<svg width="61" height="61" viewBox="0 0 61 61" fill="none" xmlns="http://www.w3.org/2000/svg">
<g clip-path="url(#clip0_4418_10976)">
<path d="M15.7718 16.875C16.5249 16.875 17.1354 16.2645 17.1354 15.5114C17.1354 14.7583 16.5249 14.1478 15.7718 14.1478C15.0187 14.1478 14.4082 14.7583 14.4082 15.5114C14.4082 16.2645 15.0187 16.875 15.7718 16.875Z" fill="#A1FF00"/>
<path d="M45.7718 16.875C46.5249 16.875 47.1354 16.2645 47.1354 15.5114C47.1354 14.7583 46.5249 14.1478 45.7718 14.1478C45.0187 14.1478 44.4082 14.7583 44.4082 15.5114C44.4082 16.2645 45.0187 16.875 45.7718 16.875Z" fill="#A1FF00"/>
<path d="M15.7718 46.875C16.5249 46.875 17.1354 46.2645 17.1354 45.5114C17.1354 44.7583 16.5249 44.1478 15.7718 44.1478C15.0187 44.1478 14.4082 44.7583 14.4082 45.5114C14.4082 46.2645 15.0187 46.875 15.7718 46.875Z" fill="#A1FF00"/>
<path d="M45.7718 46.875C46.5249 46.875 47.1354 46.2645 47.1354 45.5114C47.1354 44.7583 46.5249 44.1478 45.7718 44.1478C45.0187 44.1478 44.4082 44.7583 44.4082 45.5114C44.4082 46.2645 45.0187 46.875 45.7718 46.875Z" fill="#A1FF00"/>
<path d="M59.4079 27.7841C60.162 27.7841 60.7715 27.1732 60.7715 26.4205C60.7715 25.6678 60.162 25.0569 59.4079 25.0569H52.5897V19.6024H59.4079C60.162 19.6024 60.7715 18.9915 60.7715 18.2388C60.7715 17.4861 60.162 16.8752 59.4079 16.8752H52.5897V15.5114C52.5897 11.7519 49.5311 8.69321 45.7715 8.69321H44.4079V1.87501C44.4079 1.12231 43.7983 0.511414 43.0442 0.511414C42.2901 0.511414 41.6806 1.12231 41.6806 1.87501V8.69321H36.2261V1.87501C36.226 1.12231 35.6165 0.511414 34.8624 0.511414C34.1083 0.511414 33.4988 1.12231 33.4988 1.87501V8.69321H28.0443V1.87501C28.0442 1.12231 27.4347 0.511414 26.6806 0.511414C25.9265 0.511414 25.317 1.12231 25.317 1.87501V8.69321H19.8625V1.87501C19.8624 1.12231 19.2529 0.511414 18.4988 0.511414C17.7447 0.511414 17.1352 1.12231 17.1352 1.87501V8.69321H15.7715C12.012 8.69321 8.95328 11.7518 8.95328 15.5114V16.875H2.13508C1.38098 16.875 0.771484 17.4859 0.771484 18.2387C0.771484 18.9914 1.38098 19.6023 2.13508 19.6023H8.95328V25.0568H2.13508C1.38098 25.0569 0.771484 25.6678 0.771484 26.4205C0.771484 27.1732 1.38098 27.7841 2.13508 27.7841H8.95328V33.2386H2.13508C1.38098 33.2387 0.771484 33.8496 0.771484 34.6023C0.771484 35.355 1.38098 35.9659 2.13508 35.9659H8.95328V41.4204H2.13508C1.38098 41.4205 0.771484 42.0314 0.771484 42.7841C0.771484 43.5368 1.38098 44.1477 2.13508 44.1477H8.95328V45.5114C8.95328 49.2709 12.0119 52.3296 15.7715 52.3296H17.1351V59.1478C17.1351 59.9005 17.7446 60.5114 18.4987 60.5114C19.2528 60.5114 19.8623 59.9005 19.8623 59.1478V52.3296H25.3168V59.1478C25.3168 59.9005 25.9263 60.5114 26.6804 60.5114C27.4345 60.5114 28.0439 59.9005 28.0439 59.1478V52.3296H33.4984V59.1478C33.4984 59.9005 34.1079 60.5114 34.862 60.5114C35.6161 60.5114 36.2256 59.9005 36.2256 59.1478V52.3296H41.6801V59.1478C41.6801 59.9005 42.2896 60.5114 43.0437 60.5114C43.7978 60.5114 44.4073 59.9005 44.4073 59.1478V52.3296H45.7715C49.531 52.3296 52.5897 49.271 52.5897 45.5114V44.1478H59.4079C60.162 44.1478 60.7715 43.5369 60.7715 42.7842C60.7715 42.0315 60.162 41.4206 59.4079 41.4206H51.2261C50.472 41.4206 49.8625 42.0315 49.8625 42.7842V45.5114C49.8625 47.7669 48.027 49.6023 45.7716 49.6023H15.7715C13.516 49.6023 11.6806 47.7668 11.6806 45.5114V15.5114C11.6806 13.2559 13.5161 11.4205 15.7715 11.4205H45.7715C48.027 11.4205 49.8624 13.256 49.8624 15.5114V37.3296C49.8624 38.0823 50.4719 38.6932 51.226 38.6932C51.9801 38.6932 52.5896 38.0823 52.5896 37.3296V35.966H59.4078C60.1619 35.966 60.7714 35.3551 60.7714 34.6024C60.7714 33.8497 60.1619 33.2388 59.4078 33.2388H52.5896V27.7843H59.4079V27.7841Z" fill="#A1FF00"/>
<path d="M26.6808 22.3296C24.4253 22.3296 22.5899 24.1651 22.5899 26.4205C22.5899 28.196 23.734 29.696 25.3172 30.2605V41.4205H21.2263C20.4749 41.4205 19.864 40.8082 19.864 40.0569V20.9659C19.864 20.2145 20.4749 19.6023 21.2276 19.6023H29.4081C30.1622 19.6023 30.7717 18.9914 30.7717 18.2387C30.7717 17.486 30.1622 16.8751 29.4081 16.8751H21.2276C18.9721 16.8751 17.1367 18.7106 17.1367 20.966V40.0569C17.1367 42.3124 18.9722 44.1478 21.2262 44.1478H26.6807C27.4348 44.1478 28.0443 43.5369 28.0443 42.7842V30.2605C29.6275 29.696 30.7716 28.196 30.7716 26.4205C30.7717 24.165 28.9362 22.3296 26.6808 22.3296ZM26.6808 27.7841C25.9281 27.7841 25.3172 27.1718 25.3172 26.4205C25.3172 25.6691 25.9281 25.0569 26.6808 25.0569C27.4335 25.0569 28.0444 25.6692 28.0444 26.4205C28.0444 27.1719 27.4335 27.7841 26.6808 27.7841Z" fill="#A1FF00"/>
<path d="M40.3157 16.875H34.8625C34.1084 16.875 33.4989 17.4859 33.4989 18.2386V30.7622C31.9157 31.3269 30.7716 32.8269 30.7716 34.6023C30.7716 36.8578 32.6071 38.6932 34.8625 38.6932C37.118 38.6932 38.9534 36.8577 38.9534 34.6023C38.9534 32.8268 37.8093 31.3268 36.2261 30.7623V19.6023H40.3156C41.0683 19.6023 41.6792 20.2146 41.6792 20.9659V40.0568C41.6792 40.8082 41.0683 41.4204 40.3156 41.4204H32.1351C31.381 41.4204 30.7715 42.0313 30.7715 42.784C30.7715 43.5367 31.381 44.1476 32.1351 44.1476H40.3156C42.5711 44.1476 44.4065 42.3121 44.4065 40.0567V20.9659C44.4066 18.7105 42.5711 16.875 40.3157 16.875ZM34.8625 35.9659C34.1098 35.9659 33.4989 35.3536 33.4989 34.6023C33.4989 33.8509 34.1098 33.2387 34.8625 33.2387C35.6152 33.2387 36.2261 33.851 36.2261 34.6023C36.2261 35.3537 35.6152 35.9659 34.8625 35.9659Z" fill="#A1FF00"/>
</g>
<defs>
<clipPath id="clip0_4418_10976">
<rect width="60" height="60" fill="white" transform="translate(0.771484 0.511414)"/>
</clipPath>
</defs>
</svg>
