<svg width="66" height="66" viewBox="0 0 66 66" fill="none" xmlns="http://www.w3.org/2000/svg">
<g clip-path="url(#clip0_4418_10932)">
<path d="M43.7695 13.4123C45.1443 13.5326 46.3576 12.5145 46.4779 11.1398C46.5981 9.76503 45.58 8.55172 44.2053 8.43145C42.8305 8.31117 41.6172 9.32926 41.497 10.704C41.3767 12.0788 42.3923 13.2919 43.7695 13.4123Z" fill="#A1FF00"/>
<path d="M35.2092 25.2112C33.8344 25.0909 32.6211 26.109 32.5009 27.4838C32.3806 28.8585 33.3987 30.0718 34.7734 30.1921C36.1482 30.3124 37.3615 29.2943 37.4818 27.9195C37.602 26.5448 36.5839 25.3315 35.2092 25.2112Z" fill="#A1FF00"/>
<path d="M40.8437 18.1754C42.2185 18.2957 43.4318 17.2776 43.5521 15.9029C43.6723 14.5281 42.6543 13.3148 41.2795 13.1945C39.9048 13.0743 38.6915 14.0924 38.5712 15.4671C38.4509 16.8419 39.4665 18.0549 40.8437 18.1754Z" fill="#A1FF00"/>
<path d="M46.6972 8.64937C48.072 8.76964 49.2853 7.75156 49.4056 6.37681C49.5259 5.00206 48.5078 3.78863 47.133 3.66836C45.7583 3.54808 44.545 4.56617 44.4247 5.94092C44.3044 7.31567 45.3199 8.52887 46.6972 8.64937Z" fill="#A1FF00"/>
<path d="M55.1005 55.4674L48.189 19.729C48.084 19.1803 47.4014 18.7492 46.8435 18.7004C44.2136 18.4703 41.5917 18.4918 38.9955 18.7088C36.3764 17.4082 33.6719 16.366 30.8715 15.5889C30.9782 15.3448 31.0755 15.0924 31.0999 14.8133C31.22 13.441 30.2021 12.2253 28.8274 12.105C27.4526 11.9847 26.2391 13.0054 26.119 14.3776C26.1136 14.4398 26.1389 14.4947 26.1387 14.5549C24.9019 14.3488 23.656 14.1621 22.3833 14.0507C21.828 14.0022 21.3101 14.3282 21.1088 14.8502L8.09631 48.8455C7.9051 49.3382 8.04696 49.8977 8.45093 50.2417C13.6535 54.6846 19.9537 57.7678 26.7 59.2239L27.0889 61.2329C27.1939 61.7816 27.6473 62.1927 28.2052 62.2415L29.7568 62.3772C38.4362 63.1366 46.9948 61.2027 54.5088 56.7807C54.9639 56.512 55.203 55.9884 55.1005 55.4674ZM10.7488 48.9044L23.1038 16.6283C26.9387 17.0266 30.6778 17.946 34.2769 19.3474C29.5939 20.2377 25.0499 21.8353 20.8035 24.1615C20.3266 24.4209 20.0735 24.9609 20.1774 25.4945L26.1838 56.5486C20.5202 55.1649 15.23 52.5563 10.7488 48.9044ZM29.9747 59.8869L29.362 59.8333L22.8049 25.9252C26.9039 23.7919 31.2826 22.363 35.8241 21.6261C35.6173 21.9519 35.4631 22.3098 35.4272 22.7207C35.3069 24.0954 36.325 25.3088 37.6997 25.429C39.0745 25.5493 40.2878 24.5312 40.4081 23.1565C40.4767 22.372 40.1492 21.6682 39.6239 21.163C41.6976 21.0107 43.7967 20.996 45.9149 21.1387L52.4755 55.0646C45.602 58.9076 37.8421 60.5752 29.9747 59.8869Z" fill="#A1FF00"/>
<path d="M24.2832 6.68837C25.6579 6.80864 26.8715 5.78799 26.9915 4.41581C27.1116 3.04351 26.0937 1.82763 24.719 1.70736C23.3442 1.58708 22.1307 2.60774 22.0106 3.97992C21.8905 5.35221 22.9084 6.56809 24.2832 6.68837Z" fill="#A1FF00"/>
<path d="M24.0653 9.1788C23.9453 10.5511 24.9631 11.7669 26.3379 11.8871C27.7126 12.0074 28.9262 10.9869 29.0462 9.61457C29.1663 8.24228 28.1484 7.02652 26.7737 6.90624C25.3989 6.78597 24.1854 7.80651 24.0653 9.1788Z" fill="#A1FF00"/>
</g>
<defs>
<clipPath id="clip0_4418_10932">
<rect width="60" height="60" fill="white" transform="translate(6.03906 0.0732117) rotate(5)"/>
</clipPath>
</defs>
</svg>
