<svg width="61" height="61" viewBox="0 0 61 61" fill="none" xmlns="http://www.w3.org/2000/svg">
<g clip-path="url(#clip0_4418_10789)">
<path d="M29.5039 0.406311C13.6514 0.406311 0.753906 13.3038 0.753906 29.1563C0.753906 45.0087 13.6514 57.9062 29.5039 57.9062C45.3563 57.9062 58.2538 45.0087 58.2538 29.1563C58.2538 13.3038 45.3564 0.406311 29.5039 0.406311ZM29.5039 55.4063C15.0289 55.4063 3.25387 43.6313 3.25387 29.1563C3.25387 14.6813 15.0289 2.90627 29.5039 2.90627C43.9789 2.90627 55.7539 14.6813 55.7539 29.1563C55.7539 43.6313 43.9789 55.4063 29.5039 55.4063Z" fill="#A1FF00"/>
<path d="M19.9314 17.1666C19.4514 16.8567 18.8189 16.9191 18.4064 17.3091C15.0814 20.4216 13.2539 24.6291 13.2539 29.1567C13.2539 30.1491 13.3539 31.1792 13.5489 32.2142C13.6563 32.7767 14.1288 33.1942 14.7014 33.2292C14.8814 33.2417 15.0664 33.2466 15.2464 33.2466C19.0165 33.2466 22.3864 30.8316 23.5589 27.2217C24.7863 23.4491 23.2964 19.3116 19.9314 17.1666ZM21.1814 26.4516C20.4089 28.8316 18.2939 30.4816 15.8464 30.7167C15.7864 30.1892 15.754 29.6667 15.754 29.1567C15.754 25.6767 17.034 22.4192 19.3789 19.8741C21.2163 21.5016 21.9513 24.0766 21.1814 26.4516Z" fill="#A1FF00"/>
<path d="M25.8298 34.2109C22.6223 31.8784 18.2273 32.0134 15.1423 34.5559C14.7023 34.9184 14.5624 35.5359 14.8073 36.0534C17.1947 41.1334 21.9348 44.5785 27.4873 45.2685C27.5398 45.276 27.5899 45.2784 27.6424 45.2784C28.1499 45.2784 28.6174 44.9685 28.8024 44.4834C30.2674 40.7709 29.0449 36.546 25.8298 34.2109ZM26.7673 42.621C22.8574 41.8359 19.5148 39.4059 17.5474 35.916C19.6624 34.671 22.3449 34.7685 24.3598 36.2334C26.3848 37.7034 27.2998 40.2259 26.7673 42.621Z" fill="#A1FF00"/>
<path d="M40.602 17.3109C40.1895 16.9184 39.5545 16.8584 39.077 17.1684C35.712 19.3134 34.2221 23.4483 35.4495 27.2234C36.622 30.8334 39.992 33.2459 43.762 33.2459C43.942 33.2459 44.127 33.2384 44.307 33.2285C44.8795 33.1934 45.352 32.776 45.4595 32.2135C45.6545 31.1785 45.7545 30.1485 45.7545 29.156C45.7545 24.6284 43.927 20.4209 40.602 17.3109ZM43.162 30.7158C40.7145 30.4809 38.5995 28.8309 37.827 26.4508C37.057 24.0783 37.7945 21.5008 39.6295 19.8733C41.9745 22.4183 43.2544 25.6758 43.2544 29.1558C43.2545 29.6658 43.222 30.1884 43.162 30.7158Z" fill="#A1FF00"/>
<path d="M43.8637 34.5589C40.7812 32.0188 36.3862 31.8789 33.1762 34.2139C29.9611 36.5464 28.7386 40.7739 30.2037 44.4864C30.3912 44.9689 30.8587 45.2789 31.3662 45.2789C31.4187 45.2789 31.4688 45.2765 31.5187 45.2714C37.0687 44.5814 41.8111 41.1365 44.1987 36.0564C44.4412 35.5388 44.3037 34.9213 43.8637 34.5589ZM32.2411 42.6238C31.7086 40.2289 32.6261 37.7063 34.6486 36.2363C35.7361 35.4463 37.0111 35.0537 38.2912 35.0537C39.3862 35.0537 40.4862 35.3438 41.4612 35.9187C39.4936 39.4063 36.1512 41.8388 32.2411 42.6238Z" fill="#A1FF00"/>
<path d="M37.346 14.9262C32.561 12.2812 26.4434 12.2812 21.6584 14.9262C21.161 15.2013 20.9109 15.7788 21.0534 16.3312C22.051 20.2012 25.5235 22.9062 29.5034 22.9062C33.4835 22.9062 36.956 20.2012 37.9509 16.3312C38.0935 15.7788 37.8434 15.2013 37.346 14.9262ZM29.5034 20.4063C26.9984 20.4063 24.7734 18.9012 23.7984 16.6488C27.3633 15.0188 31.6434 15.0188 35.2083 16.6488C34.2335 18.9012 32.0084 20.4063 29.5034 20.4063Z" fill="#A1FF00"/>
<path d="M29.5039 5.40634C24.679 5.40634 20.7539 9.3313 20.7539 14.1564C20.7539 18.9813 24.6789 22.9064 29.5039 22.9064C34.329 22.9064 38.254 18.9813 38.254 14.1563C38.254 9.33119 34.329 5.40634 29.5039 5.40634ZM29.5039 20.4063C26.0564 20.4063 23.254 17.6013 23.254 14.1564C23.254 10.7113 26.0565 7.9063 29.5039 7.9063C32.9515 7.9063 35.7539 10.7113 35.7539 14.1563C35.754 17.6013 32.9515 20.4063 29.5039 20.4063Z" fill="#A1FF00"/>
<path d="M23.0344 20.551C21.9745 18.4684 20.167 16.9234 17.9419 16.201C15.727 15.4785 13.3544 15.6634 11.2645 16.726C9.18191 17.7859 7.63949 19.596 6.91691 21.8185C5.42687 26.406 7.94687 31.3534 12.5344 32.8435C13.4269 33.1309 14.3395 33.276 15.2494 33.276C16.6094 33.2735 17.962 32.9535 19.2119 32.3185C21.2944 31.2559 22.8368 29.4484 23.5594 27.226C24.282 25.0035 24.0968 22.6335 23.0344 20.551ZM21.1793 26.451C20.6643 28.0385 19.5618 29.331 18.0743 30.0885C16.5869 30.846 14.8943 30.9785 13.3043 30.4635C10.0293 29.401 8.2293 25.8685 9.2943 22.5885C9.80933 21.001 10.9118 19.7085 12.3993 18.951C13.2918 18.4985 14.2568 18.2685 15.2318 18.2685C15.8819 18.2685 16.5344 18.371 17.1693 18.576C18.7568 19.091 20.0493 20.1935 20.8068 21.681C21.5618 23.1685 21.6968 24.8635 21.1793 26.451Z" fill="#A1FF00"/>
<path d="M25.8314 34.2138C21.929 31.3738 16.4465 32.2464 13.6089 36.1488C10.7713 40.0513 11.6389 45.5338 15.5439 48.3714C17.0939 49.4964 18.8939 50.0388 20.6764 50.0388C23.3863 50.0388 26.0563 48.7888 27.7663 46.4364C30.6039 42.5313 29.7364 37.0463 25.8314 34.2138ZM25.7439 44.9663C23.7189 47.7538 19.7964 48.3688 17.0139 46.3487C14.2264 44.3213 13.6064 40.4063 15.6289 37.6187C17.6589 34.8287 21.5739 34.2087 24.3589 36.2363C25.7089 37.2163 26.5989 38.6663 26.8588 40.3138C27.1214 41.9638 26.7264 43.6138 25.7439 44.9663Z" fill="#A1FF00"/>
<path d="M45.3985 36.1486C42.5584 32.2462 37.0759 31.3762 33.1759 34.2136C29.2735 37.0486 28.4035 42.5311 31.2409 46.4362C32.9509 48.7887 35.6209 50.0386 38.3309 50.0386C40.1134 50.0386 41.9134 49.4962 43.4634 48.3712C47.3659 45.5336 48.2359 40.0536 45.3985 36.1486ZM41.9935 46.3486C39.2134 48.3736 35.2909 47.7562 33.2635 44.9662C32.281 43.6137 31.8859 41.9637 32.1484 40.3137C32.4085 38.6662 33.2984 37.2187 34.6484 36.2362C37.4334 34.2136 41.3484 34.8312 43.3784 37.6186C45.4009 40.4086 44.7809 44.3236 41.9935 46.3486Z" fill="#A1FF00"/>
<path d="M52.0914 21.8163C51.369 19.5939 49.8264 17.7838 47.7439 16.7238C45.6564 15.6588 43.2889 15.4738 41.0664 16.1988C38.8414 16.9213 37.0339 18.4663 35.9739 20.5488C34.9114 22.6314 34.7265 25.0014 35.4489 27.2238C36.1714 29.4489 37.7139 31.2564 39.7965 32.3188C41.0465 32.9538 42.399 33.2763 43.7589 33.2763C44.6689 33.2763 45.5865 33.1314 46.4739 32.8413C51.0615 31.3513 53.5815 26.4038 52.0914 21.8163ZM45.7039 30.4663C44.1114 30.9813 42.4189 30.8488 40.9339 30.0913C39.4464 29.3313 38.3439 28.0413 37.8289 26.4513C37.3114 24.8638 37.4439 23.1714 38.2014 21.6838C38.9589 20.1963 40.2514 19.0938 41.8389 18.5788C42.474 18.3713 43.1265 18.2688 43.7764 18.2688C44.7514 18.2688 45.7164 18.4989 46.6089 18.9538C48.0964 19.7138 49.1989 21.0038 49.7139 22.5913C50.7789 25.8688 48.9814 29.4013 45.7039 30.4663Z" fill="#A1FF00"/>
<path d="M59.5026 57.906C47.7702 57.906 39.7677 56.6535 33.4902 55.431C32.8202 55.291 32.1552 55.7385 32.0226 56.4185C31.8927 57.096 32.3352 57.7511 33.0126 57.8835C39.4077 59.131 47.5551 60.406 59.5026 60.406C60.1926 60.406 60.7527 59.8459 60.7527 59.1559C60.7527 58.4659 60.1926 57.906 59.5026 57.906Z" fill="#A1FF00"/>
<path d="M24.2051 47.0916C21.4926 43.9242 17.1876 37.9816 17.1876 35.5216C17.1876 34.8316 16.6275 34.2715 15.9375 34.2715C15.2475 34.2715 14.6875 34.8316 14.6875 35.5216C14.6875 39.7066 21.525 47.809 22.305 48.7191C22.5525 49.0092 22.9026 49.1566 23.2551 49.1566C23.5425 49.1566 23.8326 49.0566 24.0675 48.8541C24.5925 48.4041 24.6551 47.614 24.2051 47.0916Z" fill="#A1FF00"/>
</g>
<defs>
<clipPath id="clip0_4418_10789">
<rect width="60" height="60" fill="white" transform="translate(0.753906 0.406311)"/>
</clipPath>
</defs>
</svg>
