<svg width="61" height="61" viewBox="0 0 61 61" fill="none" xmlns="http://www.w3.org/2000/svg">
<g clip-path="url(#clip0_4418_10897)">
<path d="M31.7461 46.561H25.4961C24.8061 46.561 24.2461 46.001 24.2461 45.311C24.2461 44.621 24.8061 44.061 25.4961 44.061H31.7461C33.1261 44.061 34.2461 42.941 34.2461 41.561C34.2461 40.181 33.1261 39.061 31.7461 39.061H29.2461C26.4886 39.061 24.2461 36.8185 24.2461 34.061C24.2461 31.3035 26.4886 29.061 29.2461 29.061H35.4961C36.1861 29.061 36.7461 29.621 36.7461 30.311C36.7461 31.001 36.1861 31.561 35.4961 31.561H29.2461C27.8661 31.561 26.7461 32.681 26.7461 34.061C26.7461 35.441 27.8661 36.561 29.2461 36.561H31.7461C34.5036 36.561 36.7461 38.8035 36.7461 41.561C36.7461 44.3185 34.5036 46.561 31.7461 46.561Z" fill="#A1FF00"/>
<path d="M30.4961 50.311C29.8061 50.311 29.2461 49.751 29.2461 49.061V45.311C29.2461 44.621 29.8061 44.061 30.4961 44.061C31.1861 44.061 31.7461 44.621 31.7461 45.311V49.061C31.7461 49.751 31.1861 50.311 30.4961 50.311Z" fill="#A1FF00"/>
<path d="M30.4961 31.561C29.8061 31.561 29.2461 31.001 29.2461 30.311V26.561C29.2461 25.871 29.8061 25.311 30.4961 25.311C31.1861 25.311 31.7461 25.871 31.7461 26.561V30.311C31.7461 31.001 31.1861 31.561 30.4961 31.561Z" fill="#A1FF00"/>
<path d="M59.2461 22.8112H1.74609C1.05609 22.8112 0.496094 22.2512 0.496094 21.5612V17.8112C0.496094 17.3587 0.738594 16.9437 1.13109 16.7212L29.8811 0.471248C30.2611 0.256248 30.7311 0.256248 31.1111 0.471248L59.8611 16.7212C60.2536 16.9437 60.4961 17.3587 60.4961 17.8112V21.5612C60.4961 22.2512 59.9361 22.8112 59.2461 22.8112ZM2.99609 20.3112H57.9961V18.5412L30.4961 2.99625L2.99609 18.5412V20.3112Z" fill="#A1FF00"/>
<path d="M59.2461 60.311H1.74609C1.05609 60.311 0.496094 59.751 0.496094 59.061V54.061C0.496094 53.371 1.05609 52.811 1.74609 52.811H59.2461C59.9361 52.811 60.4961 53.371 60.4961 54.061V59.061C60.4961 59.751 59.9361 60.311 59.2461 60.311ZM2.99609 57.811H57.9961V55.311H2.99609V57.811Z" fill="#A1FF00"/>
<path d="M6.74609 55.311C6.05609 55.311 5.49609 54.751 5.49609 54.061V21.561C5.49609 20.871 6.05609 20.311 6.74609 20.311C7.43609 20.311 7.99609 20.871 7.99609 21.561V54.061C7.99609 54.751 7.43609 55.311 6.74609 55.311Z" fill="#A1FF00"/>
<path d="M14.2461 55.311C13.5561 55.311 12.9961 54.751 12.9961 54.061V21.561C12.9961 20.871 13.5561 20.311 14.2461 20.311C14.9361 20.311 15.4961 20.871 15.4961 21.561V54.061C15.4961 54.751 14.9361 55.311 14.2461 55.311Z" fill="#A1FF00"/>
<path d="M46.7461 55.311C46.0561 55.311 45.4961 54.751 45.4961 54.061V21.561C45.4961 20.871 46.0561 20.311 46.7461 20.311C47.4361 20.311 47.9961 20.871 47.9961 21.561V54.061C47.9961 54.751 47.4361 55.311 46.7461 55.311Z" fill="#A1FF00"/>
<path d="M54.2461 55.311C53.5561 55.311 52.9961 54.751 52.9961 54.061V21.561C52.9961 20.871 53.5561 20.311 54.2461 20.311C54.9361 20.311 55.4961 20.871 55.4961 21.561V54.061C55.4961 54.751 54.9361 55.311 54.2461 55.311Z" fill="#A1FF00"/>
</g>
<defs>
<clipPath id="clip0_4418_10897">
<rect width="60" height="60" fill="white" transform="translate(0.496094 0.310974)"/>
</clipPath>
</defs>
</svg>
