<svg width="66" height="66" viewBox="0 0 66 66" fill="none" xmlns="http://www.w3.org/2000/svg">
<g clip-path="url(#clip0_4418_10778)">
<path d="M13.9433 64.9517C12.5984 65.0694 11.3098 64.8835 10.1146 64.3883C7.104 63.1359 5.10882 60.0656 4.49698 55.74C3.48353 48.5735 4.85475 41.3566 8.68492 33.676C11.5652 27.903 15.1171 26.1342 21.3579 27.3625C24.4578 27.9721 27.8377 28.5121 30.8737 28.1612C33.6487 27.8682 36.5974 27.0932 40.1536 25.7181C46.0813 23.4252 49.8913 24.5499 53.7304 29.7351C58.8361 36.6338 61.4397 43.503 61.686 50.7366C61.8346 55.1028 60.4029 58.4729 57.6555 60.229C54.8296 62.0347 51.0149 61.8891 46.9139 59.8186C43.7135 58.2039 40.6533 56.4715 38.0817 54.9875C35.0795 53.2576 31.1321 53.6029 28.4784 55.8277C26.2035 57.7357 23.4907 59.9732 20.6193 62.1191C18.3631 63.8097 16.0826 64.7646 13.9433 64.9517ZM17.201 29.5305C14.4142 29.7743 12.627 31.3762 10.9208 34.7929C7.32328 42.0064 6.03042 48.7422 6.97094 55.3905C7.45278 58.804 8.91028 61.1785 11.0719 62.0786C13.3172 63.0164 16.1799 62.3193 19.1218 60.1195C21.9438 58.0105 24.6237 55.7985 26.8704 53.9131C30.3169 51.0267 35.4349 50.5789 39.3303 52.823C41.8701 54.2872 44.8934 56.0002 48.0387 57.5871C51.3206 59.2449 54.2583 59.4346 56.3067 58.121C58.2792 56.8593 59.3022 54.2678 59.184 50.8225C58.9558 44.1118 56.5152 37.7001 51.7174 31.2237C48.576 26.9838 45.8834 26.1829 41.0528 28.0511C37.2854 29.5075 34.1329 30.3329 31.1339 30.6479C27.6798 31.038 24.1639 30.4647 20.8699 29.8168C19.4705 29.5403 18.2645 29.4375 17.201 29.5305Z" fill="#A1FF00"/>
<path d="M22.4759 46.6327L12.5139 47.5043C11.8265 47.5644 11.2199 47.0554 11.1597 46.368C11.0996 45.6806 11.6087 45.0739 12.296 45.0138L22.258 44.1422C22.9453 44.0821 23.552 44.5912 23.6122 45.2785C23.6723 45.9659 23.1632 46.5726 22.4759 46.6327Z" fill="#A1FF00"/>
<path d="M17.9304 52.0495C17.243 52.1096 16.6363 51.6006 16.5762 50.9132L15.7046 40.9512C15.6445 40.2639 16.1536 39.6572 16.8409 39.597C17.5283 39.5369 18.135 40.046 18.1951 40.7333L19.0667 50.6953C19.1268 51.3827 18.6178 51.9893 17.9304 52.0495Z" fill="#A1FF00"/>
<path d="M31.0758 30.1957C30.3885 30.2558 29.7818 29.7467 29.7216 29.0594L29.3403 24.701C28.9198 19.8944 32.4878 15.6422 37.2944 15.2217L52.2374 13.9143C55.6692 13.6141 58.2191 10.5753 57.9188 7.14341L57.4831 2.16243C57.4229 1.47506 57.932 0.868381 58.6194 0.808243C59.3067 0.748106 59.9134 1.25717 59.9736 1.94454L60.4093 6.92552C60.8299 11.7322 57.2619 15.9843 52.4552 16.4048L37.5123 17.7122C34.0804 18.0124 31.5306 21.0512 31.8308 24.4831L32.2121 28.8415C32.2723 29.5288 31.7632 30.1355 31.0758 30.1957Z" fill="#A1FF00"/>
<path d="M47.8176 49.4348C44.3857 49.7351 41.3469 47.1852 41.0467 43.7533C40.7464 40.3214 43.2963 37.2826 46.7282 36.9824C50.1601 36.6821 53.1989 39.232 53.4991 42.6639C53.7994 46.0958 51.2495 49.1346 47.8176 49.4348ZM46.9461 39.4729C44.8864 39.6531 43.357 41.4758 43.5372 43.5354C43.7174 45.5951 45.5401 47.1245 47.5997 46.9443C49.6594 46.7641 51.1888 44.9414 51.0086 42.8818C50.8284 40.8221 49.0057 39.2927 46.9461 39.4729Z" fill="#A1FF00"/>
</g>
<defs>
<clipPath id="clip0_4418_10778">
<rect width="60" height="60" fill="white" transform="translate(0.09375 5.92865) rotate(-5)"/>
</clipPath>
</defs>
</svg>
