<svg width="61" height="61" viewBox="0 0 61 61" fill="none" xmlns="http://www.w3.org/2000/svg">
<g clip-path="url(#clip0_4418_10921)">
<path d="M18.8629 23.2814C18.4629 23.2814 18.0704 23.0914 17.8279 22.7364C16.1179 20.2239 15.2129 17.2939 15.2129 14.2564C15.2129 11.2189 16.1179 8.28894 17.8304 5.77644C18.2179 5.20644 18.9954 5.06144 19.5679 5.44894C20.1379 5.83894 20.2854 6.61644 19.8954 7.18644C18.4679 9.27894 17.7129 11.7239 17.7129 14.2564C17.7129 16.7889 18.4679 19.2339 19.8954 21.3264C20.2854 21.8964 20.1379 22.6739 19.5679 23.0639C19.3504 23.2114 19.1079 23.2814 18.8629 23.2814Z" fill="#A1FF00"/>
<path d="M41.5631 23.2814C41.3206 23.2814 41.0756 23.2114 40.8606 23.0639C40.2906 22.6739 40.1431 21.8964 40.5331 21.3264C41.9581 19.2339 42.7131 16.7889 42.7131 14.2564C42.7131 11.7239 41.9581 9.27894 40.5306 7.18644C40.1406 6.61644 40.2881 5.83894 40.8581 5.44894C41.4306 5.06144 42.2081 5.20644 42.5956 5.77644C44.3081 8.28894 45.2131 11.2189 45.2131 14.2564C45.2131 17.2939 44.3081 20.2239 42.5956 22.7364C42.3531 23.0914 41.9606 23.2814 41.5631 23.2814Z" fill="#A1FF00"/>
<path d="M12.6904 27.506C12.2929 27.506 11.9004 27.316 11.6579 26.9635C9.07789 23.2035 7.71289 18.811 7.71289 14.256C7.71289 9.701 9.07789 5.3085 11.6579 1.5485C12.0479 0.978503 12.8254 0.838503 13.3954 1.226C13.9654 1.616 14.1079 2.3935 13.7179 2.9635C11.4254 6.3035 10.2129 10.2085 10.2129 14.256C10.2129 18.3035 11.4254 22.2085 13.7179 25.5485C14.1079 26.1185 13.9654 26.896 13.3954 27.286C13.1804 27.4335 12.9329 27.506 12.6904 27.506Z" fill="#A1FF00"/>
<path d="M47.736 27.507C47.491 27.507 47.246 27.437 47.0285 27.287C46.4585 26.897 46.316 26.1195 46.706 25.5495C49.001 22.2095 50.2135 18.3045 50.2135 14.257C50.2135 10.2095 49.001 6.30448 46.7085 2.96448C46.3185 2.39448 46.461 1.61698 47.031 1.22698C47.601 0.83948 48.381 0.97948 48.7685 1.54948C51.3485 5.30948 52.7135 9.70198 52.7135 14.257C52.7135 18.812 51.3485 23.2045 48.7685 26.9645C48.526 27.317 48.1335 27.507 47.736 27.507Z" fill="#A1FF00"/>
<path d="M30.2129 20.5064C26.7679 20.5064 23.9629 17.7014 23.9629 14.2564C23.9629 10.8114 26.7679 8.00644 30.2129 8.00644C33.6579 8.00644 36.4629 10.8114 36.4629 14.2564C36.4629 17.7014 33.6579 20.5064 30.2129 20.5064ZM30.2129 10.5064C28.1454 10.5064 26.4629 12.1889 26.4629 14.2564C26.4629 16.3239 28.1454 18.0064 30.2129 18.0064C32.2804 18.0064 33.9629 16.3239 33.9629 14.2564C33.9629 12.1889 32.2804 10.5064 30.2129 10.5064Z" fill="#A1FF00"/>
<path d="M41.7463 60.5062H18.6813C17.4613 60.5062 16.3513 59.9387 15.6388 58.9487C14.9263 57.9587 14.7388 56.7262 15.1238 55.5687L27.4513 18.5862C27.6688 17.9312 28.3738 17.5737 29.0313 17.7962C29.6863 18.0137 30.0388 18.7212 29.8213 19.3762L17.4963 56.3612C17.3688 56.7462 17.4313 57.1562 17.6688 57.4887C17.9063 57.8162 18.2763 58.0062 18.6813 58.0062H41.7463C42.1538 58.0062 42.5238 57.8162 42.7588 57.4862C42.9963 57.1562 43.0588 56.7462 42.9313 56.3587L30.6038 19.3762C30.3863 18.7212 30.7388 18.0137 31.3938 17.7962C32.0513 17.5737 32.7563 17.9312 32.9738 18.5862L45.3013 55.5687C45.6888 56.7262 45.5013 57.9587 44.7863 58.9487C44.0713 59.9387 42.9663 60.5062 41.7463 60.5062Z" fill="#A1FF00"/>
<path d="M16.4624 59.1288C15.9899 59.1288 15.5349 58.8588 15.3249 58.4013C15.0374 57.7738 15.3124 57.0313 15.9399 56.7438L37.8024 46.6913L21.4674 40.2813C21.0199 40.1063 20.7124 39.6888 20.6774 39.2088C20.6424 38.7313 20.8849 38.2713 21.3024 38.0338L35.2149 30.0463C35.8149 29.7013 36.5774 29.9088 36.9224 30.5088C37.2674 31.1088 37.0599 31.8713 36.4599 32.2163L24.8049 38.9063L41.4499 45.4363C41.9174 45.6188 42.2299 46.0613 42.2424 46.5638C42.2549 47.0638 41.9699 47.5263 41.5149 47.7338L16.9824 59.0113C16.8149 59.0913 16.6374 59.1288 16.4624 59.1288Z" fill="#A1FF00"/>
</g>
<defs>
<clipPath id="clip0_4418_10921">
<rect width="60" height="60" fill="white" transform="translate(0.212891 0.506439)"/>
</clipPath>
</defs>
</svg>
