<svg width="61" height="61" viewBox="0 0 61 61" fill="none" xmlns="http://www.w3.org/2000/svg">
<g clip-path="url(#clip0_4418_10880)">
<path d="M48.4761 43.1179C47.6336 43.1179 46.8961 42.5554 46.6686 41.7454L43.5436 30.4954C43.2661 29.4979 43.8511 28.4654 44.8486 28.1854C45.8436 27.9104 46.8786 28.4929 47.1561 29.4879L48.4761 34.2379L49.7936 29.4904C50.0711 28.4954 51.1086 27.9104 52.1011 28.1879C53.0986 28.4654 53.6836 29.4979 53.4061 30.4979L50.2811 41.7479C50.0561 42.5554 49.3186 43.1179 48.4761 43.1179Z" fill="#A1FF00"/>
<path d="M54.1016 58.1173H7.85156C4.05906 58.1173 0.976562 55.0348 0.976562 51.2423V9.99231C0.976562 6.19981 4.05906 3.11731 7.85156 3.11731H54.1016C57.8941 3.11731 60.9766 6.19981 60.9766 9.99231V51.2423C60.9766 55.0348 57.8941 58.1173 54.1016 58.1173ZM7.85156 6.86731C6.12906 6.86731 4.72656 8.26981 4.72656 9.99231V51.2423C4.72656 52.9648 6.12906 54.3673 7.85156 54.3673H54.1016C55.8241 54.3673 57.2266 52.9648 57.2266 51.2423V9.99231C57.2266 8.26981 55.8241 6.86731 54.1016 6.86731H7.85156Z" fill="#A1FF00"/>
<path d="M59.1016 15.6173H2.85156C1.81656 15.6173 0.976562 14.7773 0.976562 13.7423C0.976562 12.7073 1.81656 11.8673 2.85156 11.8673H59.1016C60.1366 11.8673 60.9766 12.7073 60.9766 13.7423C60.9766 14.7773 60.1366 15.6173 59.1016 15.6173Z" fill="#A1FF00"/>
<path d="M10.3516 43.1173C11.3871 43.1173 12.2266 42.2778 12.2266 41.2423C12.2266 40.2068 11.3871 39.3673 10.3516 39.3673C9.31603 39.3673 8.47656 40.2068 8.47656 41.2423C8.47656 42.2778 9.31603 43.1173 10.3516 43.1173Z" fill="#A1FF00"/>
<path d="M25.3516 43.1173H20.3516C17.9391 43.1173 15.9766 41.1548 15.9766 38.7423V32.4923C15.9766 30.0798 17.9391 28.1173 20.3516 28.1173H25.3516C26.3866 28.1173 27.2266 28.9573 27.2266 29.9923C27.2266 31.0273 26.3866 31.8673 25.3516 31.8673H20.3516C20.0066 31.8673 19.7266 32.1473 19.7266 32.4923V33.7423H25.3516C26.3866 33.7423 27.2266 34.5823 27.2266 35.6173V41.2423C27.2266 42.2773 26.3866 43.1173 25.3516 43.1173ZM19.7266 37.4923V38.7423C19.7266 39.0873 20.0066 39.3673 20.3516 39.3673H23.4766V37.4923H19.7266Z" fill="#A1FF00"/>
<path d="M36.6016 43.1173H35.3516C32.9391 43.1173 30.9766 41.1548 30.9766 38.7423V32.4923C30.9766 30.0798 32.9391 28.1173 35.3516 28.1173H36.6016C39.0141 28.1173 40.9766 30.0798 40.9766 32.4923V38.7423C40.9766 41.1548 39.0141 43.1173 36.6016 43.1173ZM35.3516 31.8673C35.0066 31.8673 34.7266 32.1473 34.7266 32.4923V38.7423C34.7266 39.0873 35.0066 39.3673 35.3516 39.3673H36.6016C36.9466 39.3673 37.2266 39.0873 37.2266 38.7423V32.4923C37.2266 32.1473 36.9466 31.8673 36.6016 31.8673H35.3516Z" fill="#A1FF00"/>
</g>
<defs>
<clipPath id="clip0_4418_10880">
<rect width="60" height="60" fill="white" transform="translate(0.976562 0.61731)"/>
</clipPath>
</defs>
</svg>
