<svg width="61" height="61" viewBox="0 0 61 61" fill="none" xmlns="http://www.w3.org/2000/svg">
<g clip-path="url(#clip0_4418_10911)">
<path d="M55.3281 7.91397H52.8672V5.57022C52.8672 2.66245 50.5015 0.296783 47.5938 0.296783L5.875 0.296783C2.96723 0.296783 0.601562 2.66245 0.601562 5.57022L0.601562 34.0468C0.601562 36.9546 2.96723 39.3202 5.875 39.3202H8.33594V41.664C8.33594 44.5717 10.7016 46.9374 13.6094 46.9374H31.694C33.5575 53.0517 38.4445 58.2888 45.2358 60.2292C45.5508 60.3192 45.8855 60.3195 46.2017 60.2292C54.6296 57.8212 60.6016 50.114 60.6016 41.1389C60.6016 39.993 60.6016 14.4779 60.6016 13.1874C60.6016 10.2796 58.2359 7.91397 55.3281 7.91397ZM57.0859 13.1874V18.2265H32.3594V16.2343C32.3594 15.2635 31.5723 14.4765 30.6016 14.4765H17.4766C16.5058 14.4765 15.7188 15.2635 15.7188 16.2343V18.2265H11.8516V13.1874C11.8516 12.2182 12.6401 11.4296 13.6094 11.4296H55.3281C56.2974 11.4296 57.0859 12.2182 57.0859 13.1874ZM19.2344 17.9921H28.8438V21.9765H19.2344V17.9921ZM5.875 35.8046C4.90574 35.8046 4.11719 35.016 4.11719 34.0468V5.57022C4.11719 4.60096 4.90574 3.81241 5.875 3.81241L47.5938 3.81241C48.563 3.81241 49.3516 4.60096 49.3516 5.57022V7.91397L13.6094 7.91397C10.7016 7.91397 8.33594 10.2796 8.33594 13.1874V35.8046H5.875ZM13.6094 43.4218C12.6401 43.4218 11.8516 42.6332 11.8516 41.664V21.7421H15.7188V23.7343C15.7188 24.7051 16.5058 25.4921 17.4766 25.4921H30.6016C31.5723 25.4921 32.3594 24.7051 32.3594 23.7343V21.7421H57.0859V29.5253C53.3379 29.2019 49.7499 27.7352 46.8441 25.3136C46.1923 24.7705 45.2453 24.7705 44.5935 25.3136C41.3814 27.9903 37.2707 29.5937 32.5938 29.5937C31.623 29.5937 30.8359 30.3807 30.8359 31.3515V36.039H28.8438C27.873 36.039 27.0859 36.826 27.0859 37.7968C27.0859 38.7676 27.873 39.5546 28.8438 39.5546H30.8359C30.8359 41.1922 30.8102 42.0547 30.9657 43.4218H13.6094ZM57.0859 41.1389C57.0859 48.2264 52.4366 54.5546 45.7188 56.7028C39.0009 54.5547 34.3516 48.2265 34.3516 41.1389V33.0521C38.4483 32.7554 42.3971 31.3107 45.7188 28.8915C49.0404 31.3107 52.9892 32.7554 57.0859 33.0521V41.1389Z" fill="#A1FF00"/>
<path d="M21.3438 36.039H17.5938C16.623 36.039 15.8359 36.826 15.8359 37.7968C15.8359 38.7676 16.623 39.5546 17.5938 39.5546H21.3438C22.3145 39.5546 23.1016 38.7676 23.1016 37.7968C23.1016 36.826 22.3145 36.039 21.3438 36.039Z" fill="#A1FF00"/>
<path d="M43.2117 40.5383C42.5253 39.8519 41.4123 39.8519 40.7258 40.5383C40.0393 41.2246 40.0393 42.3377 40.7258 43.0242L44.4758 46.7742C45.1623 47.4606 46.2752 47.4606 46.9617 46.7742L54.2273 39.5085C54.9138 38.8222 54.9138 37.7091 54.2273 37.0226C53.541 36.3363 52.4279 36.3363 51.7414 37.0226L45.7188 43.0453L43.2117 40.5383Z" fill="#A1FF00"/>
</g>
<defs>
<clipPath id="clip0_4418_10911">
<rect width="60" height="60" fill="white" transform="translate(0.601562 0.296783)"/>
</clipPath>
</defs>
</svg>
