<svg width="16" height="16" viewBox="0 0 16 16" fill="none" xmlns="http://www.w3.org/2000/svg">
<path d="M1.18112 7.18075L1.18075 7.18112C0.960017 7.40262 0.85 7.67898 0.85 8C0.85 8.32103 0.960028 8.59716 1.18093 8.81807C1.4024 9.03953 1.67881 9.15 2 9.15H6.85V14C6.85 14.3211 6.96039 14.5972 7.18186 14.818C7.40271 15.0396 7.67886 15.15 8 15.15C8.32119 15.15 8.5976 15.0395 8.81907 14.8181C9.03997 14.5972 9.15 14.321 9.15 14V9.15H14C14.3211 9.15 14.5972 9.03961 14.818 8.81814C15.0396 8.59729 15.15 8.32114 15.15 8C15.15 7.67881 15.0395 7.4024 14.8181 7.18093C14.5972 6.96003 14.321 6.85 14 6.85H9.15V2C9.15 1.67898 9.03998 1.40262 8.81925 1.18112L8.81888 1.18075C8.59738 0.960017 8.32102 0.85 8 0.85C7.67897 0.85 7.40284 0.960028 7.18193 1.18093C6.96047 1.4024 6.85 1.67881 6.85 2V6.85H2C1.67898 6.85 1.40262 6.96002 1.18112 7.18075Z" fill="black" stroke="black" stroke-width="0.3"/>
</svg>
