<svg width="24" height="20" viewBox="0 0 24 20" fill="none" xmlns="http://www.w3.org/2000/svg">
<path d="M19.1833 11.4611C18.8532 11.4611 18.528 11.3349 18.2756 11.0825C14.8099 7.62168 9.17942 7.62168 5.71375 11.0825C5.2138 11.5824 4.39835 11.5824 3.8984 11.0825C3.39845 10.5825 3.39845 9.76709 3.8984 9.26714C8.36397 4.80158 15.6254 4.80158 20.0909 9.26714C20.5909 9.76709 20.5909 10.5825 20.0909 11.0825C19.8385 11.3349 19.5085 11.4611 19.1833 11.4611Z" fill="white"/>
<path d="M15.7081 14.9316C15.378 14.9316 15.0528 14.8054 14.8004 14.553C14.0529 13.8055 13.053 13.3929 11.9949 13.3929C10.9367 13.3929 9.93683 13.8055 9.18934 14.553C8.68939 15.0529 7.87393 15.0529 7.37399 14.553C6.87404 14.053 6.87404 13.2376 7.37399 12.7376C8.60687 11.5047 10.2475 10.8252 11.9949 10.8252C13.7423 10.8252 15.3829 11.5047 16.6158 12.7425C17.1157 13.2424 17.1157 14.0579 16.6158 14.5578C16.3682 14.8054 16.0382 14.9316 15.7081 14.9316Z" fill="white"/>
<path d="M11.9947 19.0767C12.941 19.0767 13.7081 18.3096 13.7081 17.3633C13.7081 16.417 12.941 15.6499 11.9947 15.6499C11.0484 15.6499 10.2812 16.417 10.2812 17.3633C10.2812 18.3096 11.0484 19.0767 11.9947 19.0767Z" fill="white"/>
<path d="M22.7125 7.93234C22.3824 7.93234 22.0572 7.80614 21.8048 7.55374C16.3928 2.14652 7.59753 2.14652 2.19031 7.55374C1.69036 8.05369 0.874911 8.05369 0.374962 7.55374C-0.124987 7.05379 -0.124987 6.23834 0.374962 5.73839C3.48144 2.63191 7.60724 0.92334 12 0.92334C16.3928 0.92334 20.5186 2.63191 23.625 5.73839C24.125 6.23834 24.125 7.05379 23.625 7.55374C23.3678 7.80614 23.0377 7.93234 22.7125 7.93234Z" fill="white"/>
</svg>
