<svg width="22" height="24" viewBox="0 0 22 24" fill="none" xmlns="http://www.w3.org/2000/svg">
<path d="M2.33212 7.77393C1.9186 7.77393 1.56775 7.91813 1.27934 8.20654C0.990928 8.49495 0.84668 8.84103 0.84668 9.24496V15.4468C0.84668 15.8609 0.990884 16.2114 1.27934 16.4999C1.56775 16.7883 1.9186 16.9325 2.33212 16.9325C2.74534 16.9325 3.09407 16.7883 3.378 16.4999C3.66138 16.2115 3.80346 15.8609 3.80346 15.4468V9.24496C3.80346 8.84099 3.65925 8.49495 3.3708 8.20654C3.08235 7.91813 2.73605 7.77393 2.33212 7.77393Z" fill="white"/>
<path d="M14.2748 2.20654L15.2989 0.317431C15.3661 0.192364 15.3422 0.0964594 15.2269 0.0290222C15.1018 -0.0291283 15.0057 0.00033753 14.9385 0.115337L13.9001 2.01955C12.9864 1.61558 12.0201 1.41322 11.001 1.41322C9.98172 1.41322 9.01525 1.61562 8.1019 2.01955L7.06348 0.115337C6.99599 0.00033753 6.89987 -0.0288679 6.77507 0.0290222C6.65955 0.0967632 6.63564 0.192364 6.70312 0.317431L7.72721 2.20654C6.68879 2.7361 5.86176 3.47361 5.2464 4.42068C4.63105 5.36828 4.32324 6.40379 4.32324 7.52904H17.6643C17.6643 6.40405 17.3564 5.36849 16.7411 4.42068C16.1257 3.47361 15.3034 2.7361 14.2748 2.20654ZM8.3542 4.95428C8.24345 5.06529 8.11118 5.12053 7.95743 5.12053C7.80337 5.12053 7.67379 5.06529 7.56808 4.95428C7.46237 4.84379 7.40951 4.71204 7.40951 4.55777C7.40951 4.40402 7.46237 4.27201 7.56808 4.16126C7.67379 4.05078 7.80368 3.99554 7.95743 3.99554C8.11118 3.99554 8.24345 4.05078 8.3542 4.16126C8.46468 4.27227 8.52019 4.40402 8.52019 4.55777C8.51988 4.71178 8.46442 4.84379 8.3542 4.95428ZM14.4334 4.95428C14.3274 5.06529 14.1975 5.12053 14.044 5.12053C13.8899 5.12053 13.7577 5.06529 13.6472 4.95428C13.5365 4.84379 13.4812 4.71204 13.4812 4.55777C13.4812 4.40402 13.5365 4.27201 13.6472 4.16126C13.7577 4.05078 13.8899 3.99554 14.044 3.99554C14.1978 3.99554 14.3274 4.05078 14.4334 4.16126C14.5392 4.27227 14.5919 4.40402 14.5919 4.55777C14.5919 4.71178 14.5391 4.84379 14.4334 4.95428Z" fill="white"/>
<path d="M4.37988 17.6537C4.37988 18.0964 4.53363 18.4712 4.84118 18.7787C5.14899 19.0863 5.52375 19.24 5.96618 19.24H7.03354L7.04816 22.5144C7.04816 22.9279 7.19237 23.279 7.48078 23.5675C7.76919 23.8559 8.11553 24.0001 8.5192 24.0001C8.93246 24.0001 9.28353 23.8559 9.57198 23.5675C9.86043 23.279 10.0046 22.9279 10.0046 22.5144V19.2403H11.9949V22.5144C11.9949 22.9279 12.1391 23.279 12.4276 23.5675C12.716 23.8559 13.0668 24.0001 13.4803 24.0001C13.8936 24.0001 14.2447 23.8559 14.5331 23.5675C14.8216 23.279 14.9657 22.9279 14.9657 22.5144V19.2403H16.0475C16.4801 19.2403 16.8501 19.0865 17.1582 18.779C17.4657 18.4715 17.6195 18.0967 17.6195 17.654V8.04785H4.37988V17.6537Z" fill="white"/>
<path d="M19.6683 7.77393C19.2644 7.77393 18.9183 7.916 18.6299 8.19938C18.3415 8.48327 18.1973 8.832 18.1973 9.24496V15.4468C18.1973 15.8609 18.3414 16.2114 18.6299 16.4999C18.9183 16.7883 19.2646 16.9325 19.6683 16.9325C20.0816 16.9325 20.4327 16.7883 20.7211 16.4999C21.0096 16.2114 21.1537 15.8609 21.1537 15.4468V9.24496C21.1537 8.83196 21.0096 8.48327 20.7211 8.19938C20.4327 7.916 20.0816 7.77393 19.6683 7.77393Z" fill="white"/>
</svg>
