<svg width="30" height="28" viewBox="0 0 30 28" fill="none" xmlns="http://www.w3.org/2000/svg">
<path d="M21.7376 26.5796H2.35695C1.55181 26.5796 0.899078 25.9269 0.899078 25.1217V14.9987V13.3963C0.899078 12.5912 1.55181 11.9385 2.35695 11.9385H21.7376C22.5427 11.9385 23.1955 12.5912 23.1955 13.3963V25.1217C23.1955 25.9269 22.5427 26.5796 21.7376 26.5796Z" stroke="white" stroke-width="1.5" stroke-miterlimit="10" stroke-linecap="round" stroke-linejoin="round"/>
<path d="M4.40549 19.7622H10.9437" stroke="white" stroke-width="1.5" stroke-miterlimit="10" stroke-linecap="round" stroke-linejoin="round"/>
<path d="M4.40549 23.1724H19.2446" stroke="white" stroke-width="1.5" stroke-miterlimit="10" stroke-linecap="round" stroke-linejoin="round" stroke-dasharray="17.33 80"/>
<path d="M19.5045 17.0734C19.5045 18.0177 18.739 18.7832 17.7947 18.7832C16.8504 18.7832 16.0849 18.0177 16.0849 17.0734C16.0849 16.1291 16.8504 15.3637 17.7947 15.3637C18.739 15.3637 19.5045 16.1291 19.5045 17.0734Z" stroke="white" stroke-width="1.5" stroke-miterlimit="10" stroke-linecap="round" stroke-linejoin="round"/>
<path d="M8.24429 11.9442L18.3413 1.84721C18.9106 1.27791 19.8337 1.27791 20.403 1.84721L28.6941 10.1383C29.2635 10.7076 29.2635 11.6307 28.6941 12.2001L23.195 17.6992" stroke="white" stroke-width="1.5" stroke-miterlimit="10" stroke-linecap="round" stroke-linejoin="round"/>
<path d="M24.4376 5.88137L18.38 11.939" stroke="white" stroke-width="1.5" stroke-miterlimit="10" stroke-linecap="round" stroke-linejoin="round"/>
<path d="M27.0913 8.536L22.9886 12.6387" stroke="white" stroke-width="1.5" stroke-miterlimit="10" stroke-linecap="round" stroke-linejoin="round"/>
</svg>
