<svg width="18" height="24" viewBox="0 0 18 24" fill="none" xmlns="http://www.w3.org/2000/svg">
<path d="M9 0C4.08281 0 0.09375 3.98906 0.09375 8.90625C0.09375 12.3469 4.45312 19.1859 7.07344 22.9875C7.80937 24.0516 9.26719 24.3234 10.3312 23.5875C10.5656 23.4234 10.7672 23.2219 10.9313 22.9875C13.5516 19.1859 17.9062 12.3469 17.9062 8.90625C17.9062 3.98906 13.9219 0 9 0ZM9 13.4531C6.53906 13.4531 4.54688 11.4609 4.54688 9C4.54688 6.53906 6.53906 4.54688 9 4.54688C11.4609 4.54688 13.4531 6.53906 13.4531 9C13.4531 11.4609 11.4609 13.4531 9 13.4531Z" fill="white"/>
</svg>
