<svg width="20" height="24" viewBox="0 0 20 24" fill="none" xmlns="http://www.w3.org/2000/svg">
<path d="M16.5759 13.4529C15.9157 10.1303 19.0693 8.18172 19.0693 8.18172C19.0693 8.18172 17.8406 6.40407 15.7756 5.94676C13.7117 5.48844 12.6787 6.06107 11.6477 6.49054C10.6157 6.92107 10.1008 6.92107 10.1008 6.92107C8.6115 6.92107 7.52284 5.34425 4.68542 6.06212C2.73064 6.55543 0.672822 8.81202 0.301022 11.5053C-0.0707784 14.1996 0.73155 17.6374 2.27848 20.3019C3.82541 22.9684 5.40123 23.9705 6.51969 23.9993C7.63819 24.0271 8.75464 23.198 10.1008 22.9961C11.4479 22.7963 12.277 23.4844 13.5984 23.8561C14.9146 24.2269 15.376 23.8829 16.892 22.5935C18.4122 21.304 19.7882 17.6055 19.7882 17.6055C19.7882 17.6055 17.2361 16.7774 16.5759 13.4529Z" fill="white"/>
<path d="M13.6533 3.79731C15.1158 2.30705 14.6204 0 14.6204 0C14.6204 0 12.5667 0.360484 11.1907 1.79206C9.81577 3.22469 10.0434 5.48743 10.0434 5.48743C10.0434 5.48743 12.1908 5.28661 13.6533 3.79731Z" fill="white"/>
</svg>
