<svg width="30" height="30" viewBox="0 0 30 30" fill="none" xmlns="http://www.w3.org/2000/svg">
<g clip-path="url(#clip0_1064_33596)">
<path d="M29.4129 27.6562H18.9255C18.6019 27.6562 18.3396 27.9186 18.3396 28.2421C18.3396 28.5657 18.6019 28.828 18.9255 28.828H29.4129C29.7366 28.828 29.9988 28.5657 29.9988 28.2421C29.9988 27.9186 29.7365 27.6562 29.4129 27.6562Z" fill="white"/>
<path d="M11.0159 27.6562H0.587054C0.263441 27.6562 0.00117493 27.9186 0.00117493 28.2421C0.00117493 28.5657 0.263499 28.828 0.587054 28.828H11.0159C11.3395 28.828 11.6018 28.5657 11.6018 28.2421C11.6018 27.9186 11.3395 27.6562 11.0159 27.6562Z" fill="white"/>
<path d="M15.2316 11.9858H10.6911C10.3675 11.9858 10.1052 12.2482 10.1052 12.5717C10.1052 12.8953 10.3675 13.1576 10.6911 13.1576H15.2316C15.5552 13.1576 15.8175 12.8953 15.8175 12.5717C15.8175 12.2482 15.5552 11.9858 15.2316 11.9858Z" fill="white"/>
<path d="M19.792 12.157C19.683 12.048 19.5318 11.9854 19.3778 11.9854C19.2231 11.9854 19.0719 12.048 18.9636 12.157C18.854 12.266 18.7919 12.4172 18.7919 12.5712C18.7919 12.7253 18.854 12.8765 18.9636 12.9854C19.0726 13.0944 19.2231 13.1571 19.3778 13.1571C19.5319 13.1571 19.683 13.0944 19.792 12.9854C19.9009 12.8764 19.9637 12.7253 19.9637 12.5712C19.9637 12.4172 19.901 12.266 19.792 12.157Z" fill="white"/>
<path d="M17.7454 12.157C17.6358 12.048 17.4853 11.9854 17.3306 11.9854C17.1765 11.9854 17.0254 12.048 16.9164 12.157C16.8074 12.266 16.7448 12.4172 16.7448 12.5712C16.7448 12.7259 16.8074 12.8765 16.9164 12.9854C17.026 13.0944 17.1766 13.1571 17.3306 13.1571C17.4847 13.1571 17.6359 13.0944 17.7454 12.9854C17.8544 12.8764 17.9165 12.7253 17.9165 12.5712C17.9165 12.4172 17.8544 12.266 17.7454 12.157Z" fill="white"/>
<path d="M15.2316 16.6729H10.6911C10.3675 16.6729 10.1052 16.9352 10.1052 17.2587C10.1052 17.5823 10.3675 17.8446 10.6911 17.8446H15.2316C15.5552 17.8446 15.8175 17.5823 15.8175 17.2587C15.8175 16.9352 15.5552 16.6729 15.2316 16.6729Z" fill="white"/>
<path d="M19.792 16.8445C19.683 16.7355 19.5318 16.6729 19.3778 16.6729C19.2231 16.6729 19.0725 16.7355 18.9636 16.8445C18.854 16.9535 18.7919 17.1047 18.7919 17.2587C18.7919 17.4134 18.854 17.564 18.9636 17.6729C19.0726 17.7819 19.2231 17.8446 19.3778 17.8446C19.5319 17.8446 19.683 17.7819 19.792 17.6729C19.9009 17.5639 19.9637 17.4128 19.9637 17.2587C19.9637 17.1047 19.901 16.9535 19.792 16.8445Z" fill="white"/>
<path d="M17.7454 16.8445C17.6358 16.7355 17.4853 16.6729 17.3306 16.6729C17.1765 16.6729 17.0254 16.7355 16.9164 16.8445C16.8074 16.9535 16.7448 17.1047 16.7448 17.2587C16.7448 17.4128 16.8074 17.564 16.9164 17.6729C17.0254 17.7819 17.1766 17.8446 17.3306 17.8446C17.4853 17.8446 17.6359 17.7819 17.7454 17.6729C17.8544 17.5639 17.9165 17.4128 17.9165 17.2587C17.9165 17.1047 17.8544 16.9535 17.7454 16.8445Z" fill="white"/>
<path d="M15.2316 21.3599H10.6911C10.3675 21.3599 10.1052 21.6222 10.1052 21.9457C10.1052 22.2693 10.3675 22.5316 10.6911 22.5316H15.2316C15.5552 22.5316 15.8175 22.2693 15.8175 21.9457C15.8175 21.6222 15.5552 21.3599 15.2316 21.3599Z" fill="white"/>
<path d="M19.792 21.5315C19.6824 21.4226 19.5318 21.3599 19.3778 21.3599C19.2231 21.3599 19.0725 21.4226 18.963 21.5315C18.854 21.6405 18.7919 21.7917 18.7919 21.9457C18.7919 22.0998 18.854 22.251 18.963 22.3599C19.0726 22.4689 19.2231 22.5316 19.3778 22.5316C19.5319 22.5316 19.683 22.4689 19.792 22.3599C19.9009 22.251 19.9637 22.0998 19.9637 21.9457C19.9637 21.7917 19.901 21.6405 19.792 21.5315Z" fill="white"/>
<path d="M17.7448 21.5315C17.6358 21.4226 17.4853 21.3599 17.3306 21.3599C17.1765 21.3599 17.0254 21.4226 16.9164 21.5315C16.8075 21.6405 16.7448 21.7917 16.7448 21.9457C16.7448 22.0998 16.8074 22.251 16.9164 22.3599C17.0254 22.4689 17.1766 22.5316 17.3306 22.5316C17.4853 22.5316 17.6359 22.4689 17.7448 22.3599C17.8544 22.251 17.9165 22.0998 17.9165 21.9457C17.9165 21.7917 17.8544 21.6405 17.7448 21.5315Z" fill="white"/>
<path d="M22.624 17.3422C22.624 16.3849 22.1625 15.5335 21.4502 14.9986C22.1624 14.4637 22.624 13.6123 22.624 12.655C22.624 11.0397 21.3099 9.72559 19.6946 9.72559H10.3203C8.70498 9.72559 7.39084 11.0397 7.39084 12.655C7.39084 13.6123 7.85238 14.4637 8.56465 14.9986C7.85244 15.5335 7.39084 16.3849 7.39084 17.3422C7.39084 18.2995 7.85238 19.1509 8.56465 19.6858C7.85244 20.2207 7.39084 21.072 7.39084 22.0293C7.39084 23.6446 8.70498 24.9588 10.3203 24.9588H14.4141V26.5852C13.7322 26.827 13.2424 27.4783 13.2424 28.2421C13.2423 29.2113 14.0308 29.9998 15 29.9998C15.9692 29.9998 16.7577 29.2113 16.7577 28.2421C16.7577 27.4783 16.2679 26.827 15.5859 26.5852V24.9588H19.6946C21.31 24.9588 22.6241 23.6446 22.6241 22.0293C22.6241 21.072 22.1626 20.2207 21.4503 19.6858C22.1624 19.1509 22.624 18.2995 22.624 17.3422ZM8.56254 12.6551C8.56254 11.6859 9.35103 10.8974 10.3202 10.8974H19.6945C20.6637 10.8974 21.4522 11.6859 21.4522 12.6551C21.4522 13.6243 20.6637 14.4128 19.6945 14.4128H10.3202C9.35103 14.4127 8.56254 13.6242 8.56254 12.6551ZM15 28.828C14.6769 28.828 14.4141 28.5652 14.4141 28.2421C14.4141 27.9191 14.677 27.6563 15 27.6563C15.323 27.6563 15.5859 27.9191 15.5859 28.2421C15.5859 28.5652 15.3231 28.828 15 28.828ZM21.4522 22.0293C21.4522 22.9985 20.6637 23.787 19.6945 23.787H10.3202C9.35103 23.787 8.56254 22.9985 8.56254 22.0293C8.56254 21.0601 9.35103 20.2716 10.3202 20.2716H19.6945C20.6637 20.2717 21.4522 21.0602 21.4522 22.0293ZM19.6945 19.0999H10.3202C9.35103 19.0999 8.56254 18.3114 8.56254 17.3422C8.56254 16.373 9.35103 15.5845 10.3202 15.5845H19.6945C20.6637 15.5845 21.4522 16.373 21.4522 17.3422C21.4522 18.3114 20.6637 19.0999 19.6945 19.0999Z" fill="white"/>
<path d="M28.741 9.07236C27.9887 7.98035 26.9612 7.12693 25.758 6.59133C24.2834 2.63795 20.4996 0 16.2597 0C13.7926 0 11.4152 0.896895 9.56549 2.52539C7.87424 4.01432 6.73107 6.01512 6.30791 8.20752C6.21697 8.20342 6.12621 8.20137 6.0358 8.20137C2.70826 8.20137 0.00111389 10.9085 0.00111389 14.2361C0.00111389 15.6841 0.521778 17.0844 1.46719 18.179C2.40264 19.262 3.69264 19.9792 5.09965 20.1985C5.13023 20.2032 5.16059 20.2056 5.19059 20.2056C5.47436 20.2056 5.72367 19.999 5.76879 19.7099C5.81865 19.3901 5.59981 19.0906 5.28012 19.0407C2.90022 18.6698 1.17287 16.6492 1.17287 14.2361C1.17287 11.5547 3.35432 9.37318 6.0358 9.37318C6.26156 9.37318 6.49049 9.38918 6.71631 9.42082C6.87076 9.44238 7.02721 9.4016 7.15131 9.3075C7.27553 9.2134 7.35709 9.07371 7.37801 8.91938C7.97707 4.50252 11.7954 1.17182 16.2596 1.17182C20.0878 1.17182 23.4954 3.60287 24.739 7.22115C24.7943 7.38217 24.9169 7.51107 25.0749 7.57447C27.3542 8.48906 28.827 10.6669 28.827 13.1228C28.827 15.9496 26.8205 18.4118 24.0559 18.9775C23.7388 19.0424 23.5345 19.352 23.5994 19.669C23.6643 19.986 23.9737 20.1903 24.2909 20.1255C27.5983 19.4487 29.9988 16.5037 29.9988 13.1228C29.9988 11.6674 29.5639 10.2667 28.741 9.07236Z" fill="white"/>
</g>
<defs>
<clipPath id="clip0_1064_33596">
<rect width="30" height="30" fill="white"/>
</clipPath>
</defs>
</svg>
