<svg width="26" height="30" viewBox="0 0 26 30" fill="none" xmlns="http://www.w3.org/2000/svg">
<path d="M20.1484 20.332C19.663 20.332 19.2695 20.7255 19.2695 21.2109V26.3086C19.2695 26.794 19.663 27.1875 20.1484 27.1875C20.6338 27.1875 21.0273 26.794 21.0273 26.3086V21.2109C21.0273 20.7255 20.6338 20.332 20.1484 20.332Z" fill="white"/>
<path d="M5.14847 13.2422C4.66309 13.2422 4.26957 13.6357 4.26957 14.1211V24.5947C4.26957 26.0697 3.69506 27.4564 2.65204 28.4996C2.3088 28.8428 2.3088 29.3993 2.65204 29.7425C2.99522 30.0858 3.55174 30.0858 3.89498 29.7425C5.27011 28.3674 6.02744 26.5392 6.02744 24.5947V14.1211C6.02738 13.6357 5.63386 13.2422 5.14847 13.2422Z" fill="white"/>
<path d="M10.7734 10.4297C9.25494 10.4297 8.01955 11.6651 8.01955 13.1836V24.9023C8.01955 26.2248 7.58256 27.5357 6.78909 28.5937C6.49782 28.982 6.57651 29.5329 6.96487 29.8241C7.35563 30.1172 7.90594 30.0342 8.19533 29.6484C9.2155 28.2882 9.77736 26.6027 9.77736 24.9023V13.1836C9.77736 12.6343 10.2242 12.1875 10.7734 12.1875C11.3227 12.1875 11.7695 12.6343 11.7695 13.1836V18.8086C11.7695 19.294 12.1631 19.6875 12.6484 19.6875C13.1338 19.6875 13.5273 19.294 13.5273 18.8086V13.1836C13.5273 11.6651 12.292 10.4297 10.7734 10.4297Z" fill="white"/>
<path d="M12.6484 22.1484C12.1631 22.1484 11.7695 22.542 11.7695 23.0273V26.3086C11.7695 26.794 12.1631 27.1875 12.6484 27.1875C13.1338 27.1875 13.5274 26.794 13.5274 26.3086V23.0273C13.5274 22.542 13.1338 22.1484 12.6484 22.1484Z" fill="white"/>
<path d="M25.4804 6.50388C25.4804 2.91761 22.5628 0 18.9766 0C16.5727 0 14.4694 1.31097 13.3437 3.25546C6.85267 1.57704 0.519592 6.49749 0.519592 13.1835V26.3085C0.519592 26.7939 0.913106 27.1874 1.3985 27.1874C1.88388 27.1874 2.2774 26.7939 2.2774 26.3085V13.1835C2.2774 7.73997 7.35113 3.68413 12.6728 4.90065C12.5072 5.5515 12.4434 6.22392 12.4856 6.90882C9.63633 6.13275 6.61607 7.3795 5.14051 9.93102C4.80038 10.5194 5.23028 11.2501 5.90059 11.2501C6.2041 11.2501 6.49935 11.0926 6.66224 10.811C7.92769 8.62268 10.705 7.79933 12.9588 8.97014C13.4498 10.1636 14.2854 11.1803 15.3417 11.8948C15.4591 12.3111 15.5195 12.7431 15.5195 13.1835V24.5946C15.5195 26.5391 16.2769 28.3673 17.652 29.7424C17.9952 30.0856 18.5517 30.0857 18.8949 29.7424C19.2382 29.3991 19.2382 28.8427 18.8949 28.4994C17.8518 27.4563 17.2774 26.0695 17.2774 24.5945C17.2774 12.1853 17.2836 13.1029 17.2636 12.7783C17.9124 12.9556 18.5832 13.0311 19.2668 13.0008C19.2708 13.1915 19.2696 12.7018 19.2696 17.4608C19.2696 17.9461 19.6631 18.3397 20.1485 18.3397C20.6339 18.3397 21.0274 17.9461 21.0274 17.4608C21.0274 12.6891 21.0321 13.0552 21.014 12.6805C23.6053 11.8236 25.4804 9.37877 25.4804 6.50388ZM18.9766 11.25C16.3596 11.25 14.2305 9.1209 14.2305 6.50388C14.2305 3.88686 16.3596 1.75781 18.9766 1.75781C21.5935 1.75781 23.7226 3.88686 23.7226 6.50388C23.7226 9.1209 21.5935 11.25 18.9766 11.25Z" fill="white"/>
<path d="M20.6988 4.53482L18.9765 6.25707L18.6605 5.94107C18.3173 5.59783 17.7608 5.59783 17.4175 5.94107C17.0743 6.28431 17.0743 6.84078 17.4175 7.18402L18.355 8.12152C18.6982 8.46476 19.2547 8.46482 19.598 8.12152L21.9417 5.77777C22.285 5.43453 22.285 4.87806 21.9417 4.53482C21.5986 4.19152 21.042 4.19152 20.6988 4.53482Z" fill="white"/>
</svg>
