<svg width="18" height="19" viewBox="0 0 18 19" fill="none" xmlns="http://www.w3.org/2000/svg">
<path d="M17.4762 16.7613L17.4761 16.7612L14.9681 14.2584C16.2611 12.7992 17.0473 10.8805 17.0473 8.78175C17.0473 4.22391 13.3402 0.516748 8.78234 0.516748C4.22452 0.516748 0.516504 4.22389 0.516504 8.78175C0.516504 13.3396 4.2245 17.0476 8.78234 17.0476C10.6835 17.0476 12.4369 16.4023 13.8347 15.3194L16.3809 17.8585L16.3811 17.8588C16.5328 18.0093 16.7312 18.0848 16.9285 18.0848C17.1262 18.0848 17.3261 18.0096 17.4774 17.8564C17.7801 17.5533 17.7786 17.0636 17.4762 16.7613ZM2.0665 8.78175C2.0665 5.07878 5.07932 2.06675 8.78234 2.06675C12.4845 2.06675 15.4973 5.07877 15.4973 8.78175C15.4973 12.4847 12.4845 15.4976 8.78234 15.4976C5.07935 15.4976 2.0665 12.4847 2.0665 8.78175Z" fill="white" stroke="white" stroke-width="0.3"/>
</svg>
