<svg width="16" height="17" viewBox="0 0 16 17" fill="none" xmlns="http://www.w3.org/2000/svg">
<path d="M13.6503 3.34989C12.8121 2.50416 11.7946 1.8575 10.6731 1.45768C9.55149 1.05786 8.35442 0.915079 7.17027 1.03989C3.50027 1.40989 0.480265 4.38989 0.0702655 8.05989C-0.479735 12.9099 3.27027 16.9999 8.00027 16.9999C9.51037 16.9999 10.9895 16.5714 12.2658 15.7642C13.542 14.957 14.5631 13.8043 15.2103 12.4399C15.5303 11.7699 15.0503 10.9999 14.3103 10.9999C13.9403 10.9999 13.5903 11.1999 13.4303 11.5299C12.8497 12.7789 11.8566 13.7899 10.6182 14.3927C9.37974 14.9955 7.97147 15.1534 6.63027 14.8399C4.41026 14.3499 2.62027 12.5399 2.15027 10.3199C1.9527 9.44215 1.95498 8.53122 2.15696 7.65449C2.35893 6.77775 2.75543 5.95764 3.31712 5.25481C3.8788 4.55198 4.59131 3.98442 5.40194 3.59411C6.21256 3.20379 7.10057 3.00071 8.00027 2.99989C9.66026 2.99989 11.1403 3.68989 12.2203 4.77989L10.7103 6.28989C10.0803 6.91989 10.5203 7.99989 11.4103 7.99989H15.0003C15.5503 7.99989 16.0003 7.54989 16.0003 6.99989V3.40989C16.0003 2.51989 14.9203 2.06989 14.2903 2.69989L13.6503 3.34989Z" fill="#A1FF00"/>
</svg>
