<svg width="16" height="20" viewBox="0 0 16 20" fill="none" xmlns="http://www.w3.org/2000/svg">
<path d="M7.2929 0.29289C7.6834 -0.09763 8.3166 -0.09763 8.7071 0.29289L12.7071 4.29289C13.0976 4.68342 13.0976 5.31658 12.7071 5.70711C12.3166 6.09763 11.6834 6.09763 11.2929 5.70711L9 3.41421V14C9 14.5523 8.5523 15 8 15C7.4477 15 7 14.5523 7 14V3.41421L4.70711 5.70711C4.31658 6.09763 3.68342 6.09763 3.29289 5.70711C2.90237 5.31658 2.90237 4.68342 3.29289 4.29289L7.2929 0.29289ZM1 15C1.55228 15 2 15.4477 2 16V18H14V16C14 15.4477 14.4477 15 15 15C15.5523 15 16 15.4477 16 16V18C16 19.1046 15.1046 20 14 20H2C0.89543 20 0 19.1046 0 18V16C0 15.4477 0.44772 15 1 15Z" fill="black"/>
</svg>
