<?xml version="1.0" encoding="utf-8"?>
<!-- Generator: Adobe Illustrator 23.0.1, SVG Export Plug-In . SVG Version: 6.00 Build 0)  -->
<svg version="1.1" id="Layer_1" xmlns="http://www.w3.org/2000/svg" xmlns:xlink="http://www.w3.org/1999/xlink" x="0px" y="0px"
	 viewBox="0 0 194 60" style="enable-background:new 0 0 194 60;" xml:space="preserve">
<style type="text/css">
	.st0{fill:url(#SVGID_1_);}
	.st1{fill:url(#SVGID_2_);}
	.st2{fill:url(#SVGID_3_);}
	.st3{fill:url(#SVGID_4_);}
	.st4{fill:url(#SVGID_5_);}
	.st5{fill:url(#SVGID_6_);}
	.st6{fill:url(#SVGID_7_);}
	.st7{fill:url(#SVGID_8_);}
	.st8{fill:url(#SVGID_9_);}
	.st9{fill:url(#SVGID_10_);}
	.st10{fill:url(#SVGID_11_);}
	.st11{fill:#FFFFFF;}
</style>
<linearGradient id="SVGID_1_" gradientUnits="userSpaceOnUse" x1="-441.75" y1="1189.65" x2="-440.75" y2="1189.65" gradientTransform="matrix(20 0 0 -20 8864.9902 23828)">
	<stop  offset="0" style="stop-color:#210622"/>
	<stop  offset="1" style="stop-color:#150430"/>
</linearGradient>
<path class="st0" d="M40,30L30,40h20L40,30z"/>
<linearGradient id="SVGID_2_" gradientUnits="userSpaceOnUse" x1="-418.5" y1="1130.3" x2="-417.5" y2="1130.3" gradientTransform="matrix(10 0 0 -10 4194.9902 11333)">
	<stop  offset="0" style="stop-color:#EB6F9F"/>
	<stop  offset="1" style="stop-color:#FA6F8D"/>
</linearGradient>
<path class="st1" d="M20,30L10,20v20L20,30z"/>
<linearGradient id="SVGID_3_" gradientUnits="userSpaceOnUse" x1="-441.75" y1="1189.65" x2="-440.75" y2="1189.65" gradientTransform="matrix(20 0 0 -20 8864.9902 23818)">
	<stop  offset="0" style="stop-color:#210622"/>
	<stop  offset="1" style="stop-color:#150430"/>
</linearGradient>
<path class="st2" d="M40,30l10-10H30L40,30z"/>
<linearGradient id="SVGID_4_" gradientUnits="userSpaceOnUse" x1="-441.75" y1="1189.65" x2="-440.75" y2="1189.65" gradientTransform="matrix(20 0 0 -20 8854.9902 23808)">
	<stop  offset="0" style="stop-color:#930046"/>
	<stop  offset="1" style="stop-color:#59008A"/>
</linearGradient>
<path class="st3" d="M30,20l10-10H20L30,20z"/>
<linearGradient id="SVGID_5_" gradientUnits="userSpaceOnUse" x1="-441.75" y1="1189.65" x2="-440.75" y2="1189.65" gradientTransform="matrix(20 0 0 -20 8864.9902 23838)">
	<stop  offset="0" style="stop-color:#460045"/>
	<stop  offset="1" style="stop-color:#29006E"/>
</linearGradient>
<path class="st4" d="M40,50l10-10H30L40,50z"/>
<linearGradient id="SVGID_6_" gradientUnits="userSpaceOnUse" x1="-441.75" y1="1189.65" x2="-440.75" y2="1189.65" gradientTransform="matrix(20 0 0 -20 8844.9902 23838)">
	<stop  offset="0" style="stop-color:#DB0035"/>
	<stop  offset="1" style="stop-color:#9D0074"/>
</linearGradient>
<path class="st5" d="M20,50l10-10H10L20,50z"/>
<linearGradient id="SVGID_7_" gradientUnits="userSpaceOnUse" x1="-441.75" y1="1189.65" x2="-440.75" y2="1189.65" gradientTransform="matrix(20 0 0 -20 8864.9902 23808)">
	<stop  offset="0" style="stop-color:#460045"/>
	<stop  offset="1" style="stop-color:#29006E"/>
</linearGradient>
<path class="st6" d="M40,10L30,20h20L40,10z"/>
<linearGradient id="SVGID_8_" gradientUnits="userSpaceOnUse" x1="-441.75" y1="1189.65" x2="-440.75" y2="1189.65" gradientTransform="matrix(20 0 0 -20 8844.9902 23808)">
	<stop  offset="0" style="stop-color:#DB0035"/>
	<stop  offset="1" style="stop-color:#9D0074"/>
</linearGradient>
<path class="st7" d="M10,20h20L20,10L10,20z"/>
<linearGradient id="SVGID_9_" gradientUnits="userSpaceOnUse" x1="-441.75" y1="1189.65" x2="-440.75" y2="1189.65" gradientTransform="matrix(20 0 0 -20 8854.9902 23838)">
	<stop  offset="0" style="stop-color:#930046"/>
	<stop  offset="1" style="stop-color:#59008A"/>
</linearGradient>
<path class="st8" d="M30,40L20,50h20L30,40z"/>
<linearGradient id="SVGID_10_" gradientUnits="userSpaceOnUse" x1="-441.75" y1="1189.65" x2="-440.75" y2="1189.65" gradientTransform="matrix(20 0 0 -20 8844.9902 23828)">
	<stop  offset="0" style="stop-color:#F63362"/>
	<stop  offset="1" style="stop-color:#C0359D"/>
</linearGradient>
<path class="st9" d="M20,30L10,40h20L20,30z"/>
<linearGradient id="SVGID_11_" gradientUnits="userSpaceOnUse" x1="-441.75" y1="1189.65" x2="-440.75" y2="1189.65" gradientTransform="matrix(20 0 0 -20 8844.9902 23818)">
	<stop  offset="0" style="stop-color:#F63362"/>
	<stop  offset="1" style="stop-color:#C0359D"/>
</linearGradient>
<path class="st10" d="M30,20H10l10,10L30,20z"/>
<path class="st11" d="M61.6,33.7c0.5,0,1-0.2,1.2-0.5c0.3-0.3,0.4-0.7,0.4-1.3H67l0,0.1c0.1,1.3-0.5,2.6-1.5,3.5
	c-1.1,0.9-2.5,1.4-3.9,1.3c-2,0-3.5-0.6-4.6-1.9c-1.1-1.3-1.7-3.1-1.6-4.8v-0.3c0-2,0.5-3.6,1.6-4.8c1.1-1.2,2.6-1.9,4.6-1.9
	c1.7,0,3,0.5,4,1.4c1,1,1.6,2.4,1.4,3.8l0,0.1h-3.7c0-0.5-0.1-1.1-0.4-1.5c-0.3-0.4-0.7-0.6-1.2-0.6c-0.8,0-1.3,0.3-1.6,1
	c-0.3,0.8-0.5,1.7-0.5,2.6v0.3c0,1.1,0.2,2,0.5,2.6C60.2,33.3,60.8,33.7,61.6,33.7 M76.1,27l-1.5,0c-0.5,0-0.8,0.1-1.2,0.2
	c-0.3,0.2-0.5,0.4-0.7,0.7v8.6h-4.1V23.4h3.9l0.1,1.9c0.2-0.6,0.6-1.2,1.1-1.6c0.4-0.4,1-0.6,1.6-0.6c0.4,0,0.8,0,1.1,0.1
	C76.5,23.3,76.1,27,76.1,27z M83.8,30.8v0.1h0.1l2.2-7.4h4.4l-5.2,15.1c-0.4,1-0.9,1.8-1.6,2.4c-0.6,0.6-1.7,1-3.1,1
	c-0.3,0-0.6,0-0.9-0.1c-0.2,0-0.6-0.1-1.1-0.2l0.5-2.9l0.3,0.1l0.2,0c0.7,0,1.1-0.1,1.4-0.3c0.3-0.2,0.5-0.5,0.7-0.9l0.3-0.8
	l-4.5-13.3h4.3L83.8,30.8L83.8,30.8z M99.6,30c0-1.1-0.2-2-0.5-2.7c-0.3-0.7-0.8-1-1.5-1c-0.5,0-0.9,0.1-1.2,0.3
	c-0.3,0.2-0.6,0.4-0.8,0.7v5.5c0.2,0.3,0.4,0.5,0.8,0.6c0.4,0.1,0.8,0.2,1.2,0.2c0.7,0,1.2-0.3,1.5-0.9c0.4-0.8,0.5-1.6,0.5-2.5
	L99.6,30L99.6,30z M103.7,30.3c0,2-0.4,3.6-1.3,4.7c-0.9,1.2-2.3,1.9-3.8,1.8c-1.2,0-2.3-0.5-3-1.4v6.2h-4.1V23.4h3.8l0.2,1.4
	c0.6-1.1,1.8-1.7,3.1-1.7c1.6,0,2.9,0.6,3.8,1.9c1,1.5,1.4,3.2,1.3,4.9C103.7,30,103.7,30.3,103.7,30.3z M110.3,20.2v3.3h2.2v2.8
	h-2.2v6c0,0.5,0.1,0.8,0.3,1c0.2,0.2,0.5,0.3,0.8,0.3c0.4,0,0.8,0,1.2-0.1l0.3,3c-0.8,0.2-1.7,0.3-2.5,0.3c-1.3,0-2.4-0.4-3.1-1.1
	c-0.7-0.7-1.1-1.8-1.1-3.4v-6h-1.8v-2.8h1.8v-3.3L110.3,20.2L110.3,20.2z M117.7,30.1c0,1.1,0.2,2,0.5,2.6c0.3,0.6,0.9,0.9,1.8,0.9
	c0.8,0,1.4-0.3,1.7-0.9c0.3-0.6,0.5-1.5,0.5-2.6v-0.3c0-0.9-0.1-1.8-0.5-2.6c-0.3-0.6-0.9-1-1.8-1c-0.8,0-1.4,0.3-1.7,1
	c-0.3,0.6-0.5,1.5-0.5,2.5C117.7,29.9,117.7,30.1,117.7,30.1z M113.6,29.9c-0.1-1.8,0.5-3.5,1.7-4.8c1.1-1.2,2.7-1.9,4.7-1.9
	s3.6,0.6,4.7,1.9c1.2,1.3,1.8,3.1,1.7,4.8v0.3c0,2-0.6,3.6-1.7,4.8c-1.1,1.2-2.7,1.9-4.7,1.9c-2,0-3.6-0.6-4.7-1.9
	c-1.1-1.3-1.7-3.1-1.7-4.8L113.6,29.9L113.6,29.9z M131.8,23.4l0.2,1.8c0.4-0.6,1-1.2,1.6-1.5c0.6-0.4,1.4-0.6,2.1-0.5
	c1.3,0,2.3,0.4,3,1.2c0.7,0.8,1.1,2.2,1.1,4v8.1h-4.1v-8.1c0-0.8-0.1-1.3-0.5-1.6c-0.3-0.3-0.8-0.5-1.4-0.5c-0.7,0-1.3,0.3-1.8,0.8
	v9.4H128V23.4L131.8,23.4L131.8,23.4z M147.7,26.3c-0.6,0-1,0.2-1.3,0.6c-0.3,0.4-0.5,1-0.5,1.7l0,0.1h3.5v-0.3
	c0-0.7-0.1-1.2-0.4-1.5C148.7,26.5,148.3,26.3,147.7,26.3 M148,36.8c-1.9,0-3.5-0.6-4.6-1.8c-1.2-1.2-1.8-2.9-1.7-4.6V30
	c0-2,0.5-3.6,1.6-4.9s2.5-1.9,4.5-1.9c1.8,0,3.2,0.5,4.2,1.6c1.1,1.2,1.6,2.7,1.5,4.3v2.1h-7.5l0,0.1c0.1,0.7,0.4,1.2,0.8,1.7
	c0.5,0.4,1.1,0.7,1.8,0.7c1.3,0,2.5-0.3,3.6-0.8l1,2.5c-0.7,0.5-1.4,0.8-2.2,1C150,36.7,149,36.8,148,36.8 M166.4,31L166.4,31
	l1.5-7.6h3.8l-3.1,13.1h-3.5l-2.1-7h-0.1l-2.1,7h-3.5l-3.1-13.1h3.8l1.4,7.7h0.1l2.1-7.7h2.6C164.2,23.4,166.4,31,166.4,31z
	 M180,32.9c0-0.3-0.2-0.6-0.6-0.9c-0.6-0.3-1.3-0.6-2-0.7c-1.2-0.2-2.4-0.7-3.5-1.4c-0.8-0.6-1.2-1.6-1.2-2.6c0-1.2,0.5-2.2,1.4-2.9
	c1-0.8,2.3-1.2,3.9-1.2c1.8,0,3.1,0.4,4.2,1.2c1,0.7,1.5,1.8,1.5,3l0,0.1h-4c0-0.5-0.1-0.9-0.4-1.2c-0.3-0.3-0.7-0.4-1.3-0.4
	c-0.4,0-0.8,0.1-1.1,0.4c-0.5,0.4-0.6,1.1-0.2,1.5c0.1,0.1,0.2,0.2,0.3,0.3c0.6,0.3,1.3,0.6,2,0.6c1.3,0.2,2.5,0.7,3.6,1.4
	c0.8,0.7,1.2,1.6,1.1,2.7c0,1.2-0.5,2.2-1.6,2.9c-1.2,0.8-2.7,1.2-4.1,1.2c-1.8,0-3.2-0.5-4.2-1.4c-1-0.9-1.5-1.9-1.5-3l0-0.1h3.7
	c0,0.6,0.2,1.1,0.6,1.3c0.4,0.3,0.9,0.4,1.5,0.4c0.6,0,1-0.1,1.3-0.3C179.8,33.6,180,33.3,180,32.9"/>
</svg>
