<svg width="200" height="197" viewBox="0 0 200 197" fill="none" xmlns="http://www.w3.org/2000/svg">
<rect opacity="0.1" y="13" width="183.406" height="183.766" rx="45" fill="white"/>
<path d="M57.4143 132.988C54.6202 132.792 52.0296 132.742 50.1278 132.741C51.1521 131.099 51.9626 129.193 52.6118 127.214C53.6602 124.02 54.3388 120.48 54.7809 117.209C55.2239 113.93 55.4345 110.882 55.5347 108.655C55.5849 107.541 55.6075 106.629 55.6175 105.994C55.6226 105.676 55.6245 105.428 55.6251 105.257C55.6254 105.172 55.6254 105.106 55.6253 105.061L55.6252 105.009L55.6251 105C55.6251 104.998 55.6251 104.997 55.6251 104.995C55.6277 83.7834 73.4572 66.5 95.5625 66.5C117.67 66.5 135.5 83.786 135.5 105C135.5 126.214 117.67 143.5 95.5625 143.5C87.2963 143.5 79.6242 141.08 73.2579 136.94C71.4064 135.6 68.7869 134.728 66.0627 134.136C63.2848 133.532 60.2302 133.185 57.4143 132.988Z" stroke="#A1FF00" stroke-width="3"/>
<path d="M80.2969 120.527L78.1081 120.316L79.4462 121.927L77.6703 123L76.6485 121.016L75.6266 123L73.8507 121.927L75.1888 120.316L73 120.527V118.473L75.1888 118.684L73.8507 117.073L75.6266 116L76.6485 117.984L77.6703 116L79.4462 117.073L78.1081 118.684L80.2969 118.473V120.527Z" fill="white"/>
<path d="M90.5313 120.527L88.3424 120.316L89.6805 121.927L87.9047 123L86.8828 121.016L85.8609 123L84.0851 121.927L85.4232 120.316L83.2344 120.527V118.473L85.4232 118.684L84.0851 117.073L85.8609 116L86.8828 117.984L87.9047 116L89.6805 117.073L88.3424 118.684L90.5313 118.473V120.527Z" fill="white"/>
<path d="M100.766 120.527L98.5768 120.316L99.9149 121.927L98.1391 123L97.1172 121.016L96.0953 123L94.3195 121.927L95.6576 120.316L93.4687 120.527V118.473L95.6576 118.684L94.3195 117.073L96.0953 116L97.1172 117.984L98.1391 116L99.9149 117.073L98.5768 118.684L100.766 118.473V120.527Z" fill="white"/>
<path d="M111 120.527L108.811 120.316L110.149 121.927L108.373 123L107.352 121.016L106.33 123L104.554 121.927L105.892 120.316L103.703 120.527V118.473L105.892 118.684L104.554 117.073L106.33 116L107.352 117.984L108.373 116L110.149 117.073L108.811 118.684L111 118.473V120.527Z" fill="white"/>
<path fill-rule="evenodd" clip-rule="evenodd" d="M87.4108 96.9698V93.2319C87.4108 89.7897 90.1493 87 93.5258 87C96.5609 87 99.079 89.6739 99.5585 92.713C99.6483 93.2824 99.1735 93.7526 98.597 93.7526C98.0206 93.7526 97.5623 93.2796 97.4324 92.718C96.9936 90.8214 95.411 89.1274 93.5258 89.1274C91.3014 89.1274 89.4983 90.965 89.4983 93.2319V96.9698H99.125C99.6082 96.9698 100 97.3616 100 97.8448V107.125C100 107.608 99.6082 108 99.125 108H86.875C86.3918 108 86 107.608 86 107.125V97.8448C86 97.3616 86.3918 96.9698 86.875 96.9698H87.4108ZM92.5127 102.213L91.9804 104.709H94.0198L93.4874 102.213C93.8048 102.036 94.0198 101.694 94.0198 101.3C94.0198 100.726 93.5633 100.261 93.0001 100.261C92.4367 100.261 91.9804 100.726 91.9804 101.3C91.9804 101.694 92.1952 102.036 92.5127 102.213Z" fill="white"/>
<ellipse cx="175.982" cy="24.0647" rx="24.0175" ry="24.0647" fill="#A1FF00"/>
<path d="M166.812 25.6272L172.113 30.6276L186.026 17.5015" stroke="#1A1A1A" stroke-width="4" stroke-linecap="round" stroke-linejoin="round"/>
</svg>
