<svg width="161" height="154" viewBox="0 0 161 154" fill="none" xmlns="http://www.w3.org/2000/svg">
<g id="Group 1171276377">
<g id="Group 1171276376">
<g id="Group 1171276373">
<path id="Vector" opacity="0.1" d="M73.6004 140.956C108.752 140.956 137.249 112.459 137.249 77.3074C137.249 42.1555 108.752 13.6592 73.6004 13.6592C38.4484 13.6592 9.95215 42.1555 9.95215 77.3074C9.95215 112.459 38.4484 140.956 73.6004 140.956Z" fill="#F3F3F3"/>
<path id="Vector_2" opacity="0.1" d="M73.6 149.649C63.8348 149.649 54.3605 147.737 45.4409 143.964C36.826 140.32 29.0897 135.104 22.4465 128.461C15.8033 121.818 10.5873 114.081 6.94357 105.466C3.17137 96.547 1.25879 87.0735 1.25879 77.3076C1.25879 67.5416 3.17137 58.0681 6.94444 49.1486C10.5882 40.5338 15.8041 32.7976 22.4474 26.1544C29.0906 19.5112 36.8269 14.2952 45.4417 10.6515C54.3605 6.87937 63.8348 4.9668 73.6 4.9668C83.3652 4.9668 92.8395 6.87937 101.759 10.6524C110.374 14.2961 118.11 19.512 124.753 26.1552C131.397 32.7984 136.613 40.5347 140.256 49.1495C144.029 58.069 145.942 67.5424 145.942 77.3084C145.942 87.0744 144.029 96.5478 140.256 105.467C136.613 114.082 131.397 121.818 124.753 128.462C118.11 135.105 110.374 140.321 101.759 143.964C92.8395 147.737 83.3661 149.65 73.6 149.65V149.649ZM73.6 7.15718C64.1291 7.15718 54.9421 9.01158 46.2943 12.6692C37.9407 16.2026 30.438 21.2605 23.9953 27.7032C17.5526 34.1458 12.4938 41.6485 8.9612 50.002C5.3036 58.6498 3.44918 67.8367 3.44918 77.3076C3.44918 86.7784 5.3036 95.9653 8.9612 104.613C12.4947 112.967 17.5526 120.469 23.9953 126.912C30.438 133.355 37.9407 138.413 46.2943 141.946C54.9421 145.604 64.1291 147.458 73.6 147.458C83.0709 147.458 92.2579 145.604 100.906 141.946C109.259 138.413 116.762 133.355 123.205 126.912C129.647 120.469 134.706 112.967 138.24 104.613C141.897 95.9653 143.752 86.7784 143.752 77.3076C143.752 67.8367 141.897 58.6498 138.24 50.002C134.706 41.6485 129.648 34.1458 123.205 27.7032C116.761 21.2605 109.259 16.2017 100.906 12.6692C92.2579 9.01158 83.0709 7.15718 73.6 7.15718Z" fill="#F3F3F3"/>
</g>
<g id="Vector_3">
<path d="M134.142 9.87999V2.93126C134.142 2.6104 134.139 2.28868 134.142 1.96782C134.142 1.96349 134.142 1.95828 134.142 1.95395C134.142 1.61228 134.291 1.2524 134.532 1.01132C134.764 0.779783 135.143 0.60548 135.475 0.621089C135.82 0.636698 136.177 0.749432 136.418 1.01132C136.657 1.27234 136.808 1.5932 136.808 1.95395V8.90268C136.808 9.22353 136.811 9.54526 136.808 9.86612C136.808 9.87045 136.808 9.87566 136.808 9.87999C136.808 10.2217 136.659 10.5815 136.418 10.8226C136.177 11.0637 135.807 11.2285 135.475 11.2129C135.13 11.1972 134.773 11.0845 134.532 10.8226C134.293 10.5616 134.142 10.2407 134.142 9.87999Z" fill="#A1FF00"/>
<path d="M142.39 11.3679C142.52 11.1407 142.651 10.9135 142.782 10.6871C143.099 10.1391 143.415 9.59015 143.732 9.04209C144.113 8.3813 144.494 7.72137 144.876 7.06058C145.205 6.48911 145.535 5.9185 145.865 5.34703C146.026 5.06866 146.183 4.78856 146.347 4.51193C146.35 4.5076 146.352 4.50413 146.354 4.49979C146.522 4.21015 146.83 3.97515 147.151 3.88669C147.47 3.79911 147.895 3.83813 148.179 4.02111C148.463 4.20495 148.714 4.47811 148.792 4.81805C148.872 5.16926 148.841 5.52827 148.658 5.84566C148.527 6.07286 148.396 6.30006 148.265 6.5264C147.948 7.07445 147.632 7.62338 147.315 8.17144C146.934 8.83223 146.553 9.49216 146.171 10.153C145.842 10.7244 145.512 11.295 145.182 11.8665C145.021 12.1449 144.864 12.425 144.7 12.7016C144.697 12.7059 144.695 12.7094 144.693 12.7137C144.525 13.0034 144.218 13.2384 143.896 13.3268C143.577 13.4144 143.152 13.3754 142.868 13.1924C142.584 13.0086 142.333 12.7354 142.255 12.3955C142.175 12.0443 142.207 11.6853 142.39 11.3679Z" fill="#A1FF00"/>
<path d="M148.775 16.7944C149.002 16.6635 149.228 16.5325 149.455 16.4016C150.003 16.085 150.552 15.7685 151.1 15.452C151.761 15.0704 152.421 14.6897 153.082 14.3082C153.653 13.9787 154.224 13.6491 154.796 13.3187C155.074 13.1583 155.351 12.9944 155.631 12.8366C155.635 12.834 155.638 12.8322 155.643 12.8296C155.944 12.6562 156.335 12.6024 156.67 12.6952C156.98 12.7802 157.315 13.0196 157.467 13.3083C157.631 13.6179 157.713 13.9925 157.602 14.3359C157.495 14.6655 157.295 14.956 156.989 15.1329L156.308 15.5257C155.76 15.8422 155.211 16.1588 154.663 16.4753C154.002 16.8568 153.342 17.2375 152.681 17.6191C152.11 17.9486 151.539 18.2781 150.968 18.6085C150.689 18.769 150.413 18.9329 150.133 19.0907C150.128 19.0933 150.125 19.095 150.121 19.0976C149.82 19.2711 149.429 19.3248 149.093 19.232C148.783 19.1471 148.449 18.9077 148.296 18.6189C148.132 18.3094 148.051 17.9347 148.162 17.5913C148.268 17.2618 148.469 16.9713 148.775 16.7944Z" fill="#A1FF00"/>
<path d="M151.609 24.6774H158.558C158.879 24.6774 159.201 24.674 159.521 24.6774C159.526 24.6774 159.531 24.6774 159.535 24.6774C159.877 24.6774 160.237 24.8266 160.478 25.0677C160.719 25.3087 160.884 25.6782 160.868 26.0103C160.853 26.3554 160.74 26.7127 160.478 26.9529C160.217 27.1923 159.896 27.3431 159.535 27.3431H152.587C152.266 27.3431 151.944 27.3466 151.623 27.3431C151.619 27.3431 151.614 27.3431 151.609 27.3431C151.268 27.3431 150.908 27.194 150.667 26.9529C150.435 26.7214 150.261 26.3424 150.276 26.0103C150.292 25.6651 150.405 25.3079 150.667 25.0677C150.928 24.8283 151.248 24.6774 151.609 24.6774Z" fill="#A1FF00"/>
</g>
<g id="Group 1171276375">
<g id="Group">
<path id="Vector_4" d="M60.6807 46.1418L74.7255 37.2041C75.8869 36.4649 77.0786 35.7754 78.2976 35.1367L89.8518 29.0846C90.9752 28.4956 92.122 27.9514 93.2874 27.4511L102.774 23.3855C104.964 22.4464 107.512 23.2851 108.717 25.3408C109.855 27.2834 109.467 29.7585 107.789 31.2583L100.558 37.72C99.8076 38.3899 99.0323 39.0316 98.2326 39.6431L86.0368 49.5677L71.9237 60.7327L60.6816 46.1418H60.6807Z" fill="url(#paint0_linear_7112_8910)"/>
<path id="Vector_5" d="M76.6318 76.5017L87.7501 66.3421L93.8733 61.1453C96.5278 58.8926 100.525 59.3061 102.661 62.0561C104.262 64.1167 104.379 66.9653 102.954 69.1507L102.654 69.611C99.6758 74.1788 96.0149 78.2629 91.8001 81.7229L82.1329 89.6591L76.6309 76.5027L76.6318 76.5017Z" fill="url(#paint1_linear_7112_8910)"/>
<path id="Vector_6" d="M81.1733 90.6991L92.3472 81.5263L94.7384 79.0854C97.0203 76.7557 100.846 77.0248 102.78 79.651C104.111 81.46 104.156 83.9117 102.891 85.7675L101.625 87.6252C99.3686 90.936 96.7551 93.9894 93.8324 96.7297L86.4102 103.688L81.1733 90.6991Z" fill="url(#paint2_linear_7112_8910)"/>
<path id="Vector_7" d="M67.0303 63.8601L78.8546 54.116C81.7997 51.6887 84.9778 49.5589 88.3423 47.7577L91.2045 46.2256C94.3076 44.5639 98.1664 45.5537 100.088 48.5037C101.969 51.3922 101.383 55.2326 98.7262 57.4297L90.9509 63.8592L77.0768 76.5368L67.0303 63.8592V63.8601Z" fill="url(#paint3_linear_7112_8910)"/>
<g id="Group_2" opacity="0.7">
<path id="Vector_8" opacity="0.5" d="M93.0063 31.0464C93.0063 31.0464 97.2806 35.6337 97.5917 38.2755C97.5917 38.2755 93.4725 32.0947 93.0063 31.0464Z" fill="url(#paint4_linear_7112_8910)"/>
<path id="Vector_9" opacity="0.5" d="M90.6309 29.5576L94.0538 34.6218C94.0538 34.6218 90.8249 31.0341 90.6309 29.5576Z" fill="url(#paint5_linear_7112_8910)"/>
<path id="Vector_10" opacity="0.5" d="M85.2456 56.3701C85.2456 56.3701 89.5199 60.9575 89.831 63.5993C89.831 63.5993 85.7118 57.4185 85.2456 56.3701Z" fill="url(#paint6_linear_7112_8910)"/>
<path id="Vector_11" opacity="0.5" d="M82.8716 54.8833L86.2945 59.9475C86.2945 59.9475 83.0656 56.3598 82.8716 54.8833Z" fill="url(#paint7_linear_7112_8910)"/>
<path id="Vector_12" opacity="0.5" d="M87.9102 71.8057C87.9102 71.8057 92.1845 76.393 92.4955 79.0348C92.4955 79.0348 88.3763 72.854 87.9102 71.8057Z" fill="url(#paint8_linear_7112_8910)"/>
<path id="Vector_13" opacity="0.5" d="M85.5322 70.3188L88.9552 75.3831C88.9552 75.3831 85.7263 71.7953 85.5322 70.3188Z" fill="url(#paint9_linear_7112_8910)"/>
<path id="Vector_14" opacity="0.5" d="M90.2329 87.2417C90.2329 87.2417 94.5072 91.829 94.8183 94.4708C94.8183 94.4708 90.6991 88.29 90.2329 87.2417Z" fill="url(#paint10_linear_7112_8910)"/>
<path id="Vector_15" opacity="0.5" d="M87.8574 85.751L91.2804 90.8152C91.2804 90.8152 88.0515 87.2274 87.8574 85.751Z" fill="url(#paint11_linear_7112_8910)"/>
</g>
</g>
<g id="Group_3">
<path id="Vector_16" d="M54.2757 54.7502L38.7398 68.873C37.6017 69.9077 35.781 69.4981 35.1959 68.0763L34.8117 67.143C34.6098 66.6525 34.5279 66.121 34.5718 65.5925L35.819 50.8016C36.2003 46.2826 35.4563 41.7381 33.6522 37.577L31.456 32.5088C30.1824 29.5686 27.2841 27.666 24.0806 27.666C22.2833 27.666 20.8956 29.2449 21.1267 31.0275L22.1058 38.5785C22.4247 41.035 22.3145 43.5296 21.782 45.949L17.3771 65.9533C16.5199 69.8453 16.1639 73.83 16.317 77.8117L17.1752 100.117C17.3449 104.539 15.7456 108.845 12.7312 112.083L0 123.294C4.72289 127.199 9.78124 131.799 14.8786 136.897C20.7864 142.805 26.0251 148.658 30.2887 154L41.011 141.49C41.9043 140.367 42.9595 139.382 44.1404 138.566L57.7659 129.162C60.3082 127.407 62.6789 125.416 64.8468 123.214L86.4163 103.689L54.2757 54.7502Z" fill="url(#paint12_linear_7112_8910)"/>
<path id="Vector_17" d="M20.769 29.7309L22.2426 40.0124C22.2426 40.0124 26.0068 41.0715 22.2426 29.7309C22.2426 29.7309 21.6067 28.5577 20.769 29.7309Z" fill="url(#paint13_linear_7112_8910)"/>
<path id="Vector_18" opacity="0.5" d="M22.2452 40.0115L21.9878 38.2122C21.9878 38.2122 23.2429 37.9957 23.6622 39.1123C23.6622 39.1123 23.4087 40.2933 22.2462 40.0124L22.2452 40.0115Z" fill="white"/>
<path id="Vector_19" opacity="0.3" d="M22.1038 44.104L23.6593 44.3673L21.9849 44.9007L22.1038 44.104Z" fill="url(#paint14_linear_7112_8910)"/>
<path id="Vector_20" opacity="0.3" d="M21.7302 46.1812H25.1268C25.1268 46.1812 22.9053 46.9789 21.5557 46.974L21.7302 46.1812Z" fill="url(#paint15_linear_7112_8910)"/>
<path id="Vector_21" opacity="0.3" d="M13.4219 111.294C13.4219 111.294 16.1817 110.933 20.2249 116.212C20.2249 116.212 17.2603 110.455 14.5872 109.684L13.4219 111.294Z" fill="url(#paint16_linear_7112_8910)"/>
<path id="Vector_22" opacity="0.3" d="M15.3706 108.315C15.3706 108.315 17.1308 109.103 18.4035 110.748C18.4035 110.748 17.1172 108.032 15.7743 107.465L15.3706 108.315Z" fill="url(#paint17_linear_7112_8910)"/>
<path id="Vector_23" opacity="0.3" d="M41.0118 141.489C41.0118 141.489 40.8704 138.547 38.9902 135.831L42.7857 139.625L41.0118 141.489Z" fill="url(#paint18_linear_7112_8910)"/>
<path id="Vector_24" opacity="0.3" d="M46.864 136.686C46.864 136.686 44.7732 138.424 38.9902 133.191C38.9902 133.191 43.1104 137.04 44.9546 138.004L46.865 136.686H46.864Z" fill="url(#paint19_linear_7112_8910)"/>
<path id="Vector_25" opacity="0.3" d="M41.9595 99.8755C41.9595 99.8755 44.8587 88.966 41.9595 83.1548C41.9595 83.1548 46.8355 89.0703 41.9595 99.8755Z" fill="url(#paint20_linear_7112_8910)"/>
<path id="Vector_26" opacity="0.3" d="M34.813 67.1421C34.813 67.1421 36.3353 72.8724 35.3445 73.6574C35.3445 73.6574 36.9038 73.202 36.5293 69.3295C36.5293 69.3295 35.2704 69.0203 34.813 67.1421Z" fill="url(#paint21_linear_7112_8910)"/>
<path id="Vector_27" opacity="0.3" d="M35.8966 47.4502L33.9131 47.7135L35.8966 47.9554V47.4502Z" fill="url(#paint22_linear_7112_8910)"/>
<path id="Vector_28" opacity="0.3" d="M35.9166 48.4502H34.9053L35.8971 48.8286L35.9166 48.4502Z" fill="url(#paint23_linear_7112_8910)"/>
<path id="Vector_29" opacity="0.3" d="M25.2402 124.512L16.8232 132.729C16.8232 132.729 19.4163 127.783 25.2402 124.512Z" fill="url(#paint24_linear_7112_8910)"/>
<path id="Vector_30" opacity="0.3" d="M25.9304 129.714L17.7407 138.138C17.7407 138.138 25.1113 133.692 25.9304 129.714Z" fill="url(#paint25_linear_7112_8910)"/>
</g>
<g id="Phone">
<path id="Vector_31" d="M91.9326 46.9045V27.4951C93.7972 27.4951 93.9015 29.0067 93.9015 30.8703V43.5284C93.9015 45.3929 93.7972 46.9035 91.9326 46.9035V46.9045Z" fill="url(#paint26_linear_7112_8910)"/>
<g id="Group_4">
<path id="Vector_32" d="M36.8985 36.0169V23.6641C34.6556 23.6641 34.5298 25.4828 34.5298 27.7258V31.9562C34.5298 34.1991 34.6556 36.0169 36.8985 36.0169Z" fill="url(#paint27_linear_7112_8910)"/>
<path id="Vector_33" d="M36.8985 50.7381V38.3853C34.6556 38.3853 34.5298 40.203 34.5298 42.447V46.6774C34.5298 48.9203 34.6556 50.7391 36.8985 50.7391V50.7381Z" fill="url(#paint28_linear_7112_8910)"/>
</g>
<path id="Vector_34" d="M84.5455 0H44.0854C39.2565 0 35.3418 3.91466 35.3418 8.74363V104.478C35.3418 109.307 39.2565 113.222 44.0854 113.222H84.5455C89.3744 113.222 93.2891 109.307 93.2891 104.478V8.74363C93.2891 3.91466 89.3744 0 84.5455 0Z" fill="url(#paint29_linear_7112_8910)"/>
<g id="Group_5">
<path id="Vector_35" opacity="0.25" d="M84.5455 0H44.0854C39.2562 0 35.3418 3.91445 35.3418 8.74363V104.478C35.3418 109.307 39.2562 113.222 44.0854 113.222H84.5455C89.3746 113.222 93.2891 109.307 93.2891 104.478V8.74363C93.2891 3.91445 89.3746 0 84.5455 0ZM92.4797 104.478C92.4797 108.853 88.9202 112.412 84.5455 112.412H44.0854C39.7107 112.412 36.1512 108.853 36.1512 104.478V8.74363C36.1512 4.36889 39.7107 0.809415 44.0854 0.809415H84.5455C88.9202 0.809415 92.4797 4.36889 92.4797 8.74363V104.478Z" fill="url(#paint30_linear_7112_8910)"/>
</g>
<path id="Vector_36" d="M84.5277 2.45703H44.1019C40.5542 2.45703 37.6782 5.33299 37.6782 8.88066V104.341C37.6782 107.889 40.5542 110.765 44.1019 110.765H84.5277C88.0754 110.765 90.9514 107.889 90.9514 104.341V8.88066C90.9514 5.33299 88.0754 2.45703 84.5277 2.45703Z" fill="white"/>
</g>
<g id="Group_6">
<g id="Group_7" opacity="0.2">
<path id="Vector_37" opacity="0.03" d="M99.8633 56.2925C97.1874 58.9684 92.1612 59.9358 89.6589 57.4325C87.1555 54.9292 88.1229 49.903 90.7989 47.228C93.4748 44.5521 96.7632 45.3225 99.2665 47.8258C101.77 50.3291 102.54 53.6175 99.8643 56.2935L99.8633 56.2925Z" fill="#7C4A1A"/>
<path id="Vector_38" opacity="0.06" d="M99.8698 56.2463C97.2056 58.9106 92.2018 59.8741 89.7092 57.3815C87.2166 54.8889 88.1801 49.8851 90.8443 47.2209C93.5086 44.5566 96.7823 45.3231 99.2749 47.8157C101.768 50.3083 102.534 53.5821 99.8698 56.2463Z" fill="#7C4A1A"/>
<path id="Vector_39" opacity="0.1" d="M99.8773 56.2009C97.2248 58.8534 92.2425 59.812 89.7616 57.3311C87.2807 54.8502 88.2393 49.8679 90.8918 47.2154C93.5444 44.5628 96.8045 45.3264 99.2854 47.8073C101.766 50.2882 102.53 53.5483 99.8773 56.2009Z" fill="#7C4A1A"/>
<path id="Vector_40" opacity="0.13" d="M99.8809 56.1546C97.24 58.7955 92.2802 59.7502 89.809 57.28C87.3388 54.8098 88.2935 49.849 90.9344 47.2082C93.5752 44.5673 96.8207 45.327 99.2909 47.7982C101.761 50.2683 102.522 53.5138 99.8809 56.1546Z" fill="#7C4A1A"/>
<path id="Vector_41" opacity="0.16" d="M99.8864 56.1092C97.2572 58.7383 92.3188 59.6891 89.8594 57.2297C87.3999 54.7702 88.3507 49.8318 90.9799 47.2027C93.609 44.5735 96.8398 45.3303 99.2993 47.7897C101.759 50.2492 102.515 53.48 99.8864 56.1092Z" fill="#7C4A1A"/>
<path id="Vector_42" opacity="0.19" d="M99.8918 56.064C97.2744 58.6814 92.3575 59.6283 89.9097 57.1796C87.461 54.7309 88.4079 49.8149 91.0253 47.1975C93.6428 44.58 96.86 45.3329 99.3077 47.7816C101.756 50.2303 102.509 53.4466 99.8918 56.064Z" fill="#7C4A1A"/>
<path id="Vector_43" opacity="0.23" d="M99.8962 56.0174C97.2904 58.6232 92.3959 59.5652 89.9579 57.1282C87.5199 54.6902 88.4619 49.7957 91.0687 47.1899C93.6744 44.5842 96.8769 45.3341 99.3149 47.7721C101.753 50.2101 102.503 53.4117 99.8971 56.0184L99.8962 56.0174Z" fill="#7C4A1A"/>
<path id="Vector_44" opacity="0.26" d="M99.9017 55.9713C97.3077 58.5653 92.4346 59.5035 90.0083 57.0762C87.581 54.6489 88.5192 49.7768 91.1132 47.1828C93.7072 44.5888 96.8952 45.3348 99.3224 47.7621C101.75 50.1893 102.496 53.3773 99.9017 55.9713Z" fill="#7C4A1A"/>
<path id="Vector_45" opacity="0.29" d="M99.9102 55.9268C97.3279 58.5091 92.4772 59.4434 90.0607 57.0268C87.6451 54.6113 88.5784 49.7606 91.1607 47.1773C93.743 44.595 96.9173 45.3381 99.3329 47.7537C101.748 50.1692 102.493 53.3435 99.9092 55.9258L99.9102 55.9268Z" fill="#7C4A1A"/>
<path id="Vector_46" opacity="0.32" d="M99.9152 55.8796C97.3446 58.4502 92.5154 59.3796 90.1106 56.9748C87.7057 54.5699 88.6351 49.7407 91.2057 47.1701C93.7763 44.5995 96.936 45.3387 99.3408 47.7445C101.746 50.1493 102.486 53.309 99.9152 55.8796Z" fill="#7C4A1A"/>
<path id="Vector_47" opacity="0.35" d="M99.9207 55.8341C97.3618 58.393 92.555 59.3185 90.1609 56.9244C87.7668 54.5303 88.6923 49.7235 91.2512 47.1646C93.8101 44.6057 96.9551 45.342 99.3492 47.7361C101.743 50.1302 102.48 53.2752 99.9207 55.8341Z" fill="#7C4A1A"/>
<path id="Vector_48" opacity="0.39" d="M99.9272 55.7894C97.38 58.3367 92.5946 59.2582 90.2113 56.8748C87.8279 54.4915 88.7494 49.7071 91.2967 47.1589C93.8439 44.6117 96.9752 45.3441 99.3577 47.7275C101.741 50.1109 102.474 53.2412 99.9262 55.7885L99.9272 55.7894Z" fill="#7C4A1A"/>
<path id="Vector_49" opacity="0.42" d="M99.9351 55.7419C97.3996 58.2774 92.6357 59.1951 90.2641 56.8224C87.8914 54.4498 88.8091 49.6869 91.3446 47.1514C93.8801 44.6159 96.9968 45.3453 99.3695 47.718C101.742 50.0907 102.472 53.2064 99.9361 55.7429L99.9351 55.7419Z" fill="#7C4A1A"/>
<path id="Vector_50" opacity="0.45" d="M99.939 55.6974C97.4152 58.2212 92.6738 59.134 90.3118 56.7731C87.9509 54.4121 88.8627 49.6707 91.3875 47.1459C93.9113 44.6221 97.0134 45.3486 99.3753 47.7096C101.736 50.0705 102.463 53.1726 99.939 55.6974Z" fill="#7C4A1A"/>
<path id="Vector_51" opacity="0.48" d="M99.944 55.6507C97.4319 58.1628 92.7119 59.0717 90.3617 56.7215C88.0115 54.3712 88.9194 49.6523 91.4325 47.1392C93.9446 44.6261 97.033 45.3497 99.3833 47.6999C101.733 50.0501 102.457 53.1376 99.944 55.6507Z" fill="#7C4A1A"/>
<path id="Vector_52" opacity="0.52" d="M99.9495 55.6071C97.4481 58.1085 92.7515 59.0125 90.412 56.673C88.0725 54.3335 88.9765 49.636 91.4779 47.1356C93.9793 44.6342 97.0522 45.3548 99.3917 47.6943C101.731 50.0338 102.451 53.1067 99.9505 55.6081L99.9495 55.6071Z" fill="#7C4A1A"/>
<path id="Vector_53" opacity="0.55" d="M99.9535 55.561C97.4638 58.0506 92.7887 58.9498 90.46 56.622C88.1312 54.2932 89.0313 49.6181 91.521 47.1284C94.0107 44.6387 97.0689 45.3555 99.3976 47.6843C101.726 50.0131 102.442 53.0723 99.9535 55.561Z" fill="#7C4A1A"/>
<path id="Vector_54" opacity="0.58" d="M99.959 55.5155C97.481 57.9935 92.8284 58.8887 90.5103 56.5716C88.1923 54.2536 89.0885 49.6009 91.5664 47.1229C94.0444 44.6449 97.089 45.3588 99.4061 47.6759C101.724 49.9939 102.437 53.0385 99.959 55.5155Z" fill="#7C4A1A"/>
<path id="Vector_55" opacity="0.61" d="M99.9666 55.4693C97.5003 57.9355 92.8691 58.8269 90.5627 56.5195C88.2564 54.2132 89.1477 49.581 91.613 47.1157C94.0793 44.6494 97.1093 45.3594 99.4156 47.6667C101.722 49.973 102.432 53.0039 99.9666 55.4702V55.4693Z" fill="#7C4A1A"/>
<path id="Vector_56" opacity="0.65" d="M99.9731 55.4267C97.5185 57.8813 92.9087 58.7687 90.6131 56.4721C88.3175 54.1765 89.2049 49.5667 91.6585 47.1122C94.1131 44.6576 97.1284 45.3646 99.425 47.6602C101.721 49.9558 102.428 52.9721 99.9731 55.4267Z" fill="#7C4A1A"/>
<path id="Vector_57" opacity="0.68" d="M99.9788 55.381C97.5359 57.8239 92.9486 58.7065 90.6637 56.4216C88.3788 54.1367 89.2614 49.5484 91.7043 47.1065C94.1471 44.6636 97.1488 45.3667 99.4337 47.6516C101.719 49.9365 102.422 52.9382 99.9788 55.381Z" fill="#7C4A1A"/>
<path id="Vector_58" opacity="0.71" d="M99.9848 55.3345C97.5536 57.7657 92.9878 58.6443 90.7136 56.3702C88.4394 54.096 89.3181 49.5301 91.7493 47.099C94.1804 44.6678 97.1675 45.368 99.4416 47.6421C101.716 49.9163 102.415 52.9033 99.9848 55.3345Z" fill="#7C4A1A"/>
<path id="Vector_59" opacity="0.74" d="M99.9927 55.2893C97.5733 57.7088 93.0298 58.5836 90.7664 56.3201C88.5029 54.0567 89.3777 49.5132 91.7972 47.0938C94.2166 44.6743 97.189 45.3706 99.4525 47.634C101.716 49.8975 102.412 52.8699 99.9927 55.2893Z" fill="#7C4A1A"/>
<path id="Vector_60" opacity="0.77" d="M99.9982 55.2419C97.5905 57.6497 93.0685 58.5196 90.8167 56.2678C88.564 54.0151 89.4349 49.4931 91.8426 47.0863C94.2504 44.6786 97.2092 45.3719 99.4609 47.6237C101.714 49.8764 102.406 52.8341 99.9982 55.2419Z" fill="#7C4A1A"/>
<path id="Vector_61" opacity="0.81" d="M100.002 55.1976C97.6058 57.5937 93.1052 58.4597 90.8642 56.2187C88.6232 53.9777 89.4892 49.4771 91.8853 47.0811C94.2813 44.685 97.2254 45.3745 99.4665 47.6164C101.707 49.8575 102.397 52.8026 100.002 55.1976Z" fill="#7C4A1A"/>
<path id="Vector_62" opacity="0.84" d="M100.007 55.1502C97.623 57.5346 93.1449 58.3966 90.9146 56.1664C88.6843 53.9361 89.5464 49.458 91.9307 47.0736C94.3151 44.6893 97.2446 45.3758 99.4758 47.6061C101.706 49.8364 102.393 52.7668 100.008 55.1512L100.007 55.1502Z" fill="#7C4A1A"/>
<path id="Vector_63" opacity="0.87" d="M100.011 55.1041C97.6382 57.4767 93.1816 58.3349 90.962 56.1153C88.7424 53.8958 89.6006 49.4391 91.9733 47.0665C94.3459 44.6938 97.2618 45.3765 99.4813 47.596C101.701 49.8156 102.384 52.7314 100.011 55.1041Z" fill="#7C4A1A"/>
<path id="Vector_64" opacity="0.9" d="M100.016 55.0585C97.6554 57.4195 93.2212 58.2728 91.0124 56.0649C88.8035 53.8561 89.6578 49.4219 92.0188 47.0609C94.3797 44.6999 97.2809 45.3797 99.4898 47.5885C101.699 49.7973 102.378 52.6985 100.017 55.0595L100.016 55.0585Z" fill="#7C4A1A"/>
<path id="Vector_65" opacity="0.94" d="M100.025 55.0143C97.6754 57.3636 93.2626 58.213 91.0655 56.0149C88.8674 53.8168 89.7168 49.405 92.066 47.0557C94.4153 44.7065 97.3019 45.3823 99.5 47.5804C101.698 49.7785 102.374 52.6651 100.025 55.0143Z" fill="#7C4A1A"/>
<path id="Vector_66" opacity="0.97" d="M100.031 54.9698C97.6931 57.3074 93.3028 58.1529 91.1154 55.9655C88.929 53.7791 89.7736 49.3878 92.1111 47.0502C94.4487 44.7127 97.3216 45.3856 99.508 47.572C101.694 49.7583 102.367 52.6313 100.03 54.9688L100.031 54.9698Z" fill="#7C4A1A"/>
<path id="Vector_67" d="M100.036 54.9226C97.7103 57.2485 93.3414 58.0891 91.1658 55.9134C88.9901 53.7377 89.8307 49.3689 92.1566 47.043C94.4824 44.7172 97.3407 45.3861 99.5164 47.5628C101.692 49.7385 102.362 52.5968 100.036 54.9226Z" fill="#7C4A1A"/>
</g>
<g id="Group_8" opacity="0.2">
<path id="Vector_68" opacity="0.03" d="M102.579 69.9776C99.9027 72.6536 94.8766 73.621 92.3742 71.1176C89.8709 68.6143 90.8383 63.5881 93.5142 60.9131C96.1901 58.2382 99.4785 59.0076 101.982 61.5109C104.485 64.0143 105.256 67.3026 102.58 69.9786L102.579 69.9776Z" fill="#7C4A1A"/>
<path id="Vector_69" opacity="0.06" d="M102.585 69.9319C99.9209 72.5961 94.9172 73.5596 92.4245 71.067C89.9319 68.5744 90.8954 63.5707 93.5597 60.9064C96.2239 58.2422 99.4977 59.0087 101.99 61.5013C104.483 63.9939 105.249 67.2676 102.585 69.9319Z" fill="#7C4A1A"/>
<path id="Vector_70" opacity="0.1" d="M102.593 69.8864C99.9401 72.5389 94.9578 73.4976 92.4769 71.0167C89.996 68.5357 90.9546 63.5535 93.6072 60.9009C96.2597 58.2484 99.5198 59.012 102.001 61.4929C104.482 63.9738 105.245 67.2339 102.593 69.8864Z" fill="#7C4A1A"/>
<path id="Vector_71" opacity="0.13" d="M102.596 69.8402C99.9554 72.481 94.9955 73.4357 92.5243 70.9656C90.0542 68.4954 91.0089 63.5345 93.6497 60.8937C96.2906 58.2529 99.536 59.0125 102.006 61.4837C104.476 63.9539 105.237 67.1993 102.596 69.8402Z" fill="#7C4A1A"/>
<path id="Vector_72" opacity="0.16" d="M102.602 69.7947C99.9725 72.4238 95.0341 73.3747 92.5747 70.9152C90.1152 68.4558 91.0661 63.5173 93.6952 60.8882C96.3243 58.2591 99.5552 59.0158 102.015 61.4753C104.474 63.9347 105.231 67.1656 102.602 69.7947Z" fill="#7C4A1A"/>
<path id="Vector_73" opacity="0.19" d="M102.607 69.7495C99.9893 72.367 95.0723 73.3139 92.6246 70.8652C90.1758 68.4164 91.1227 63.5005 93.7402 60.883C96.3576 58.2656 99.5748 59.0184 102.023 61.4672C104.471 63.9159 105.224 67.1321 102.607 69.7495Z" fill="#7C4A1A"/>
<path id="Vector_74" opacity="0.23" d="M102.611 69.703C100.005 72.3087 95.1107 73.2508 92.6727 70.8137C90.2347 68.3757 91.1768 63.4812 93.7835 60.8755C96.3892 58.2698 99.5918 59.0197 102.03 61.4577C104.468 63.8957 105.218 67.0973 102.612 69.704L102.611 69.703Z" fill="#7C4A1A"/>
<path id="Vector_75" opacity="0.26" d="M102.617 69.6568C100.023 72.2509 95.1499 73.189 92.7237 70.7617C90.2964 68.3345 91.2345 63.4624 93.8285 60.8684C96.4226 58.2743 99.6105 59.0204 102.038 61.4476C104.465 63.8749 105.211 67.0628 102.617 69.6568Z" fill="#7C4A1A"/>
<path id="Vector_76" opacity="0.29" d="M102.625 69.6123C100.043 72.1947 95.1921 73.1289 92.7755 70.7124C90.36 68.2968 91.2932 63.4462 93.8756 60.8629C96.4579 58.2805 99.6322 59.0236 102.048 61.4392C104.463 63.8548 105.207 67.029 102.624 69.6114L102.625 69.6123Z" fill="#7C4A1A"/>
<path id="Vector_77" opacity="0.32" d="M102.631 69.5671C100.06 72.1377 95.2307 73.0671 92.8259 70.6622C90.421 68.2574 91.3504 63.4282 93.921 60.8576C96.4917 58.287 99.6513 59.0262 102.056 61.432C104.461 63.8368 105.201 66.9965 102.631 69.5671Z" fill="#7C4A1A"/>
<path id="Vector_78" opacity="0.35" d="M102.636 69.5197C100.077 72.0786 95.2699 73.004 92.8758 70.6099C90.4816 68.2158 91.4071 63.4091 93.966 60.8502C96.5249 58.2912 99.67 59.0275 102.064 61.4216C104.458 63.8157 105.194 66.9607 102.636 69.5197Z" fill="#7C4A1A"/>
<path id="Vector_79" opacity="0.39" d="M102.642 69.475C100.095 72.0222 95.3095 72.9438 92.9261 70.5604C90.5427 68.177 91.4643 63.3927 94.0115 60.8445C96.5587 58.2973 99.6901 59.0296 102.072 61.413C104.456 63.7964 105.189 66.9268 102.641 69.474L102.642 69.475Z" fill="#7C4A1A"/>
<path id="Vector_80" opacity="0.42" d="M102.65 69.4294C100.115 71.9649 95.3511 72.8826 92.9794 70.5099C90.6067 68.1373 91.5244 63.3744 94.0599 60.8389C96.5954 58.3034 99.7122 59.0328 102.085 61.4055C104.457 63.7782 105.187 66.8939 102.651 69.4304L102.65 69.4294Z" fill="#7C4A1A"/>
<path id="Vector_81" opacity="0.45" d="M102.654 69.383C100.13 71.9068 95.3886 72.8196 93.0267 70.4586C90.6657 68.0977 91.5775 63.3562 94.1023 60.8315C96.6261 58.3076 99.7282 59.0342 102.09 61.3951C104.451 63.7561 105.178 66.8582 102.654 69.383Z" fill="#7C4A1A"/>
<path id="Vector_82" opacity="0.48" d="M102.659 69.3378C100.147 71.8509 95.4273 72.7588 93.077 70.4086C90.7268 68.0583 91.6347 63.3394 94.1478 60.8263C96.6609 58.3142 99.7484 59.0368 102.099 61.387C104.449 63.7372 105.172 66.8247 102.659 69.3378Z" fill="#7C4A1A"/>
<path id="Vector_83" opacity="0.52" d="M102.665 69.2927C100.163 71.794 95.4669 72.698 93.1274 70.3585C90.7879 68.019 91.6919 63.3215 94.1933 60.8211C96.6946 58.3197 99.7675 59.0404 102.107 61.3799C104.447 63.7194 105.166 66.7922 102.666 69.2936L102.665 69.2927Z" fill="#7C4A1A"/>
<path id="Vector_84" opacity="0.55" d="M102.669 69.2465C100.179 71.7362 95.5041 72.6353 93.1753 70.3075C90.8465 67.9797 91.7466 63.3036 94.2363 60.814C96.726 58.3243 99.7842 59.0411 102.113 61.3698C104.442 63.6986 105.159 66.7578 102.669 69.2465Z" fill="#7C4A1A"/>
<path id="Vector_85" opacity="0.58" d="M102.674 69.201C100.196 71.679 95.5432 72.5742 93.2251 70.2572C90.9071 67.9401 91.8033 63.2864 94.2813 60.8085C96.7593 58.3305 99.8038 59.0443 102.121 61.3614C104.439 63.6795 105.152 66.724 102.674 69.201Z" fill="#7C4A1A"/>
<path id="Vector_86" opacity="0.61" d="M102.682 69.1558C100.216 71.6221 95.5844 72.5134 93.2781 70.2061C90.9717 67.8997 91.8631 63.2675 94.3284 60.8012C96.7946 58.335 99.8246 59.0449 102.132 61.3522C104.438 63.6586 105.148 66.6895 102.683 69.1558H102.682Z" fill="#7C4A1A"/>
<path id="Vector_87" opacity="0.65" d="M102.688 69.1123C100.234 71.5668 95.624 72.4543 93.3284 70.1577C91.0328 67.862 91.9202 63.2523 94.3738 60.7977C96.8284 58.3431 99.8437 59.0502 102.14 61.3458C104.436 63.6414 105.143 66.6577 102.688 69.1123Z" fill="#7C4A1A"/>
<path id="Vector_88" opacity="0.68" d="M102.694 69.0666C100.251 71.5095 95.6635 72.392 93.3786 70.1071C91.0937 67.8222 91.9762 63.2339 94.4191 60.792C96.862 58.3492 99.8636 59.0523 102.149 61.3372C104.433 63.6221 105.137 66.6237 102.694 69.0666Z" fill="#7C4A1A"/>
<path id="Vector_89" opacity="0.71" d="M102.7 69.0201C100.269 71.4512 95.7031 72.3299 93.4289 70.0557C91.1548 67.7816 92.0334 63.2157 94.4646 60.7845C96.8958 58.3533 99.8828 59.0535 102.157 61.3277C104.431 63.6019 105.13 66.5889 102.7 69.0201Z" fill="#7C4A1A"/>
<path id="Vector_90" opacity="0.74" d="M102.708 68.9729C100.289 71.3924 95.7452 72.2672 93.4817 70.0037C91.2183 67.7403 92.093 63.1968 94.5125 60.7774C96.932 58.3579 99.9044 59.0542 102.168 61.3176C104.431 63.5811 105.128 66.5535 102.708 68.9729Z" fill="#7C4A1A"/>
<path id="Vector_91" opacity="0.77" d="M102.714 68.9294C100.306 71.3372 95.7838 72.2071 93.5321 69.9553C91.2794 67.7026 92.1502 63.1806 94.558 60.7738C96.9657 58.3661 99.9245 59.0594 102.176 61.3112C104.429 63.5639 105.121 66.5216 102.714 68.9294Z" fill="#7C4A1A"/>
<path id="Vector_92" opacity="0.81" d="M102.717 68.8832C100.321 71.2792 95.8211 72.1452 93.5791 69.9042C91.3381 67.6632 92.204 63.1627 94.6001 60.7666C96.9962 58.3705 99.9403 59.06 102.181 61.302C104.422 63.544 105.112 66.4881 102.717 68.8832Z" fill="#7C4A1A"/>
<path id="Vector_93" opacity="0.84" d="M102.722 68.8377C100.338 71.2221 95.8597 72.0841 93.6294 69.8539C91.3991 67.6236 92.2612 63.1455 94.6456 60.7611C97.0299 58.3768 99.9594 59.0633 102.191 61.2936C104.421 63.5238 105.108 66.4543 102.723 68.8387L102.722 68.8377Z" fill="#7C4A1A"/>
<path id="Vector_94" opacity="0.87" d="M102.726 68.7916C100.353 71.1642 95.8964 72.0224 93.6768 69.8028C91.4573 67.5833 92.3155 63.1266 94.6881 60.754C97.0608 58.3813 99.9766 59.064 102.196 61.2835C104.416 63.5031 105.098 66.4189 102.726 68.7916Z" fill="#7C4A1A"/>
<path id="Vector_95" opacity="0.9" d="M102.731 68.7441C100.37 71.105 95.936 71.9583 93.7272 69.7505C91.5184 67.5416 92.3726 63.1074 94.7336 60.7464C97.0946 58.3855 99.9958 59.0652 102.205 61.274C104.413 63.4829 105.093 66.3841 102.732 68.745L102.731 68.7441Z" fill="#7C4A1A"/>
<path id="Vector_96" opacity="0.94" d="M102.74 68.6999C100.391 71.0491 95.9779 71.8985 93.7808 69.7004C91.5827 67.5023 92.4321 63.0905 94.7814 60.7413C97.1306 58.392 100.017 59.0678 102.215 61.2659C104.413 63.464 105.089 66.3506 102.74 68.6999Z" fill="#7C4A1A"/>
<path id="Vector_97" opacity="0.97" d="M102.746 68.6554C100.408 70.9929 96.0176 71.8384 93.8303 69.651C91.6439 67.4646 92.4884 63.0733 94.8259 60.7358C97.1635 58.3982 100.036 59.0711 102.223 61.2575C104.409 63.4439 105.082 66.3168 102.745 68.6544L102.746 68.6554Z" fill="#7C4A1A"/>
<path id="Vector_98" d="M102.752 68.6082C100.426 70.934 96.0568 71.7746 93.8811 69.599C91.7054 67.4233 92.5461 63.0544 94.8719 60.7285C97.1978 58.4027 100.056 59.0717 102.232 61.2483C104.407 63.424 105.077 66.2823 102.752 68.6082Z" fill="#7C4A1A"/>
</g>
<g id="Group_9" opacity="0.2">
<path id="Vector_99" opacity="0.03" d="M102.222 86.6826C99.7376 89.1674 95.0693 90.0665 92.7445 87.7417C90.4196 85.4168 91.3177 80.7485 93.8035 78.2637C96.2893 75.7789 99.3426 76.4937 101.668 78.8186C103.992 81.1435 104.707 84.1978 102.222 86.6826Z" fill="#7C4A1A"/>
<path id="Vector_100" opacity="0.06" d="M102.229 86.6397C99.7547 89.1138 95.1069 90.009 92.7918 87.6939C90.4767 85.3788 91.3719 80.732 93.846 78.2569C96.3201 75.7828 99.3607 76.4947 101.676 78.8098C103.991 81.125 104.703 84.1656 102.229 86.6397Z" fill="#7C4A1A"/>
<path id="Vector_101" opacity="0.1" d="M102.233 86.5979C99.7693 89.0612 95.142 89.9526 92.8376 87.6472C90.5332 85.3428 91.4235 80.7155 93.8869 78.2521C96.3502 75.7888 99.3782 76.4977 101.683 78.8021C103.987 81.1065 104.696 84.1345 102.233 86.5979Z" fill="#7C4A1A"/>
<path id="Vector_102" opacity="0.13" d="M102.24 86.556C99.7873 89.0086 95.1805 89.895 92.8858 87.6014C90.5912 85.3067 91.4786 80.6999 93.9312 78.2473C96.3839 75.7946 99.3982 76.5007 101.693 78.7953C103.987 81.09 104.694 84.1043 102.241 86.5569L102.24 86.556Z" fill="#7C4A1A"/>
<path id="Vector_103" opacity="0.16" d="M102.244 86.5131C99.8023 88.955 95.216 89.8376 92.9311 87.5537C90.6472 85.2698 91.5297 80.6824 93.9716 78.2405C96.4135 75.7986 99.4142 76.5018 101.699 78.7857C103.983 81.0696 104.686 84.0713 102.244 86.5131Z" fill="#7C4A1A"/>
<path id="Vector_104" opacity="0.19" d="M102.251 86.4712C99.8197 88.9024 95.2539 89.7811 92.9797 87.5069C90.7055 85.2327 91.5842 80.6668 94.0154 78.2357C96.4465 75.8045 99.4336 76.5047 101.708 78.7789C103.982 81.053 104.682 84.041 102.251 86.4712Z" fill="#7C4A1A"/>
<path id="Vector_105" opacity="0.23" d="M102.255 86.4287C99.8349 88.8492 95.2895 89.7239 93.0251 87.4595C90.7607 85.1951 91.6364 80.6497 94.0559 78.2293C96.4763 75.8088 99.4507 76.5051 101.714 78.7695C103.979 81.0339 104.675 84.0083 102.254 86.4278L102.255 86.4287Z" fill="#7C4A1A"/>
<path id="Vector_106" opacity="0.26" d="M102.26 86.3888C99.8499 88.7985 95.325 89.6693 93.0703 87.4157C90.8166 85.162 91.6875 80.6361 94.0972 78.2264C96.5069 75.8166 99.4676 76.51 101.721 78.7647C103.975 81.0183 104.668 83.979 102.26 86.3888Z" fill="#7C4A1A"/>
<path id="Vector_107" opacity="0.29" d="M102.266 86.345C99.8673 88.744 95.3629 89.6109 93.1189 87.367C90.875 85.1231 91.7419 80.6176 94.1409 78.2196C96.5399 75.8206 99.487 76.5111 101.731 78.755C103.975 80.9989 104.665 83.946 102.266 86.345Z" fill="#7C4A1A"/>
<path id="Vector_108" opacity="0.32" d="M102.273 86.3035C99.8845 88.6918 95.4005 89.5549 93.1663 87.3207C90.9331 85.0875 91.7962 80.6025 94.1835 78.2143C96.5717 75.826 99.5051 76.5135 101.739 78.7477C103.973 80.9809 104.66 83.9153 102.273 86.3035Z" fill="#7C4A1A"/>
<path id="Vector_109" opacity="0.35" d="M102.276 86.2584C99.8999 88.6349 95.4354 89.4951 93.212 87.2716C90.9885 85.0482 91.8477 80.5837 94.2252 78.2071C96.6018 75.8306 99.5234 76.5142 101.747 78.7377C103.97 80.9611 104.655 83.8818 102.277 86.2594L102.276 86.2584Z" fill="#7C4A1A"/>
<path id="Vector_110" opacity="0.39" d="M102.281 86.2155C99.9155 88.5813 95.4716 89.4366 93.2579 87.2238C91.0442 85.0101 91.9004 80.5662 94.2662 78.2003C96.632 75.8345 99.5401 76.5152 101.754 78.7289C103.967 80.9426 104.648 83.8497 102.282 86.2165L102.281 86.2155Z" fill="#7C4A1A"/>
<path id="Vector_111" opacity="0.42" d="M102.289 86.1727C99.9335 88.5278 95.51 89.3791 93.306 87.1762C91.1031 84.9732 91.9544 80.5487 94.3095 78.1936C96.6646 75.8385 99.559 76.5163 101.762 78.7192C103.965 80.9222 104.643 83.8166 102.288 86.1717L102.289 86.1727Z" fill="#7C4A1A"/>
<path id="Vector_112" opacity="0.45" d="M102.29 86.1308C99.9455 88.4751 95.5425 89.3226 93.3493 87.1294C91.1561 84.9361 92.0035 80.5331 94.3479 78.1887C96.6923 75.8444 99.573 76.5192 101.766 78.7124C103.959 80.9056 104.634 83.7864 102.29 86.1308Z" fill="#7C4A1A"/>
<path id="Vector_113" opacity="0.48" d="M102.299 86.0889C99.9655 88.4226 95.582 89.2661 93.3995 87.0836C91.216 84.9002 92.0606 80.5176 94.3942 78.184C96.7279 75.8503 99.5959 76.5222 101.778 78.7047C103.962 80.8882 104.633 83.7553 102.299 86.0889Z" fill="#7C4A1A"/>
<path id="Vector_114" opacity="0.52" d="M102.301 86.046C99.9781 88.369 95.6151 89.2086 93.4423 87.0359C91.2696 84.8631 92.1092 80.5001 94.4322 78.1772C96.7551 75.8542 99.6095 76.5232 101.782 78.696C103.955 80.8687 104.624 83.7231 102.301 86.046Z" fill="#7C4A1A"/>
<path id="Vector_115" opacity="0.55" d="M102.308 86.0042C99.9955 88.3164 95.653 89.1521 93.4909 86.9891C91.328 84.8262 92.1637 80.4836 94.4759 78.1724C96.7881 75.8602 99.6288 76.5262 101.792 78.6883C103.955 80.8512 104.62 83.692 102.308 86.0042Z" fill="#7C4A1A"/>
<path id="Vector_116" opacity="0.58" d="M102.312 85.9616C100.011 88.2631 95.6887 89.0949 93.5364 86.9417C91.3842 84.7894 92.216 80.4674 94.5165 78.1659C96.818 75.8644 99.6451 76.5266 101.798 78.6798C103.951 80.8321 104.613 83.6602 102.312 85.9616Z" fill="#7C4A1A"/>
<path id="Vector_117" opacity="0.61" d="M102.316 85.9198C100.026 88.2105 95.7241 89.0385 93.5815 86.896C91.439 84.7534 92.267 80.4518 94.5577 78.1611C96.8485 75.8704 99.6629 76.5296 101.805 78.6721C103.948 80.8146 104.607 83.629 102.316 85.9198Z" fill="#7C4A1A"/>
<path id="Vector_118" opacity="0.65" d="M102.323 85.8775C100.044 88.1565 95.7617 88.9815 93.6299 86.8488C91.4971 84.716 92.3221 80.4349 94.6012 78.1558C96.8802 75.8768 99.682 76.5321 101.814 78.6649C103.947 80.7977 104.602 83.5984 102.323 85.8775Z" fill="#7C4A1A"/>
<path id="Vector_119" opacity="0.68" d="M102.33 85.8347C100.062 88.103 95.8001 88.9231 93.6781 86.8011C91.556 84.679 92.3762 80.4174 94.6445 78.1491C96.9128 75.8808 99.7009 76.5332 101.823 78.6552C103.945 80.7773 104.598 83.5654 102.329 85.8337L102.33 85.8347Z" fill="#7C4A1A"/>
<path id="Vector_120" opacity="0.71" d="M102.335 85.7908C100.077 88.0484 95.836 88.8646 93.7238 86.7523C91.6115 84.64 92.4277 80.3999 94.6853 78.1423C96.9429 75.8847 99.7173 76.5342 101.83 78.6465C103.942 80.7588 104.591 83.5332 102.334 85.7908H102.335Z" fill="#7C4A1A"/>
<path id="Vector_121" opacity="0.74" d="M102.34 85.7489C100.093 87.9958 95.8727 88.8081 93.7711 86.7066C91.6696 84.605 92.4819 80.3844 94.7288 78.1375C96.9756 75.8907 99.7374 76.5372 101.839 78.6388C103.94 80.7403 104.588 83.5021 102.34 85.7489Z" fill="#7C4A1A"/>
<path id="Vector_122" opacity="0.77" d="M102.345 85.7061C100.109 87.9422 95.9091 88.7506 93.8173 86.6588C91.7255 84.567 92.5339 80.3668 94.7701 78.1307C97.0062 75.8946 99.7543 76.5382 101.846 78.63C103.938 80.7218 104.582 83.4699 102.345 85.7061Z" fill="#7C4A1A"/>
<path id="Vector_123" opacity="0.81" d="M102.349 85.6657C100.124 87.8911 95.944 88.6956 93.863 86.6136C91.7809 84.5315 92.5855 80.3518 94.8109 78.1274C97.0363 75.902 99.7707 76.5427 101.853 78.6238C103.935 80.7049 104.575 83.4403 102.349 85.6657Z" fill="#7C4A1A"/>
<path id="Vector_124" opacity="0.84" d="M102.356 85.6218C100.141 87.8365 95.9817 88.6371 93.9103 86.5658C91.839 84.4945 92.6396 80.3353 94.8543 78.1206C97.069 75.9059 99.7898 76.5437 101.862 78.615C103.933 80.6863 104.571 83.4081 102.357 85.6228L102.356 85.6218Z" fill="#7C4A1A"/>
<path id="Vector_125" opacity="0.87" d="M102.361 85.5789C100.157 87.7829 96.0181 88.5796 93.9565 86.518C91.8949 84.4565 92.6917 80.3177 94.8956 78.1138C97.0996 75.9098 99.8077 76.5447 101.868 78.6063C103.93 80.6678 104.564 83.376 102.361 85.5789Z" fill="#7C4A1A"/>
<path id="Vector_126" opacity="0.9" d="M102.367 85.539C100.174 87.7323 96.0553 88.5251 94.0044 86.4733C91.9536 84.4224 92.7464 80.3032 94.9387 78.111C97.1319 75.9177 99.8264 76.5497 101.877 78.6005C103.928 80.6513 104.56 83.3468 102.367 85.539Z" fill="#7C4A1A"/>
<path id="Vector_127" opacity="0.94" d="M102.371 85.4961C100.19 87.6776 96.0912 88.4665 94.0501 86.4254C92.009 84.3843 92.7979 80.2865 94.9795 78.1041C97.161 75.9225 99.8428 76.5496 101.884 78.5917C103.925 80.6327 104.553 83.3145 102.371 85.4961Z" fill="#7C4A1A"/>
<path id="Vector_128" opacity="0.97" d="M102.376 85.4523C100.205 87.6231 96.1271 88.4081 94.0957 86.3777C92.0644 84.3464 92.8494 80.2691 95.0212 78.0973C97.192 75.9265 99.8601 76.5507 101.891 78.582C103.923 80.6133 104.547 83.2815 102.376 85.4523Z" fill="#7C4A1A"/>
<path id="Vector_129" d="M102.382 85.4104C100.222 87.5704 96.1642 88.3516 94.1436 86.3309C92.123 84.3103 92.9042 80.2525 95.0642 78.0925C97.2243 75.9324 99.8798 76.5536 101.9 78.5752C103.921 80.5958 104.543 83.2513 102.383 85.4113L102.382 85.4104Z" fill="#7C4A1A"/>
</g>
<path id="Vector_130" d="M100.35 55.2392C98.0238 57.565 93.5331 58.2847 91.2072 55.9589C88.8814 53.633 89.6001 49.1423 91.9269 46.8164C94.2528 44.4906 97.233 45.2814 99.5588 47.6073C101.885 49.9331 102.676 52.9134 100.35 55.2392Z" fill="url(#paint31_linear_7112_8910)"/>
<path id="Vector_131" d="M102.852 68.747C100.498 71.1002 95.955 71.8276 93.6018 69.4745C91.2487 67.1213 91.9762 62.5779 94.3293 60.2247C96.6825 57.8716 99.6978 58.6722 102.051 61.0254C104.404 63.3785 105.205 66.3938 102.852 68.747Z" fill="url(#paint32_linear_7112_8910)"/>
<path id="Vector_132" d="M102.814 85.5368C100.506 87.8451 96.0495 88.5589 93.7412 86.2506C91.4329 83.9423 92.1468 79.4857 94.4551 77.1774C96.7634 74.8691 99.7211 75.6541 102.029 77.9624C104.338 80.2707 105.123 83.2285 102.814 85.5368Z" fill="url(#paint33_linear_7112_8910)"/>
<path id="Vector_133" d="M101.962 66.6681C101.962 66.6681 101.023 60.8081 95.8477 60.1401C95.8477 60.1401 104.914 59.6779 101.962 66.6681Z" fill="url(#paint34_linear_7112_8910)"/>
<path id="Vector_134" d="M99.401 53.7636C99.401 53.7636 98.3916 47.4658 92.8301 46.748C92.8301 46.748 102.574 46.2507 99.401 53.7636Z" fill="url(#paint35_linear_7112_8910)"/>
<path id="Vector_135" d="M101.638 83.4703C101.638 83.4703 100.699 77.6104 95.5239 76.9423C95.5239 76.9423 104.59 76.4801 101.638 83.4703Z" fill="url(#paint36_linear_7112_8910)"/>
</g>
<g id="Group_10">
<g id="Group_11">
<g id="Group_12">
<g id="Group_13">
<path id="Vector_136" d="M74.1113 57.6087C79.5154 52.2046 79.5154 43.4428 74.1113 38.0387C68.7072 32.6346 59.9454 32.6346 54.5413 38.0387C49.1372 43.4428 49.1372 52.2046 54.5413 57.6087C59.9454 63.0128 68.7072 63.0128 74.1113 57.6087Z" fill="#A1FF00"/>
<path id="Vector_137" d="M64.3277 64.5388C64.3277 64.5388 60.6814 61.6171 57.4019 59.8081H64.3277V64.5388Z" fill="#A1FF00"/>
<path id="Vector_138" d="M64.3232 64.5388C64.3232 64.5388 67.9695 61.6171 71.2491 59.8081H64.3232V64.5388Z" fill="#A1FF00"/>
</g>
<g id="Group_14">
<path id="Vector_139" d="M68.8304 52.8293C66.0725 52.8293 63.8296 50.5853 63.8296 47.8285C63.8296 45.0716 66.0735 42.8276 68.8304 42.8276C71.5883 42.8276 73.8312 45.0716 73.8312 47.8285C73.8312 50.5853 71.5873 52.8293 68.8304 52.8293ZM68.8304 45.1291C67.3423 45.1291 66.1311 46.3403 66.1311 47.8285C66.1311 49.3166 67.3423 50.5278 68.8304 50.5278C70.3186 50.5278 71.5298 49.3166 71.5298 47.8285C71.5298 46.3403 70.3186 45.1291 68.8304 45.1291Z" fill="white"/>
<path id="Vector_140" d="M57.1257 51.6766H54.8242V46.6758H64.979V48.9772H57.1257V51.6766Z" fill="white"/>
<path id="Vector_141" d="M60.383 47.8281H58.0815V50.2788H60.383V47.8281Z" fill="white"/>
</g>
</g>
<g id="Group_15">
<path id="Vector_142" opacity="0.15" d="M50.9711 69.5239H77.671C80.6132 69.5239 83.0024 71.9132 83.0024 74.8553C83.0024 77.7975 80.6132 80.1867 77.671 80.1867H50.9711C48.0289 80.1867 45.6396 77.7975 45.6396 74.8553C45.6396 71.9132 48.0289 69.5239 50.9711 69.5239Z" fill="#A1FF00"/>
<path id="Vector_143" d="M56.6458 84.125H71.9934C74.2081 84.125 76.0054 85.9233 76.0054 88.137C76.0054 90.3516 74.2071 92.1489 71.9934 92.1489H56.6467C54.4321 92.1489 52.6348 90.3507 52.6348 88.137C52.6348 85.9223 54.433 84.125 56.6467 84.125H56.6458Z" fill="#A1FF00"/>
<g id="Group_16">
<path id="Vector_144" d="M61.0821 86.4922C61.0723 86.4785 61.0567 86.4707 61.0402 86.4707H60.2288C60.2064 86.4707 60.1859 86.4853 60.1791 86.5078L59.5101 88.7312L58.8411 86.5078C58.8343 86.4863 58.8148 86.4707 58.7913 86.4707H57.98C57.9634 86.4707 57.9478 86.4785 57.938 86.4922C57.9283 86.5058 57.9254 86.5224 57.9312 86.538L58.9883 89.7825C58.9952 89.8039 59.0147 89.8176 59.0371 89.8176H59.983C60.0055 89.8176 60.025 89.803 60.0318 89.7825L61.0889 86.538C61.0938 86.5224 61.0909 86.5048 61.0821 86.4922Z" fill="white"/>
<path id="Vector_145" d="M62.1325 87.3306C61.7687 87.3306 61.4391 87.4612 61.2051 87.6992C60.9749 87.9323 60.8481 88.2541 60.8481 88.6061C60.8481 88.9582 60.9759 89.2839 61.208 89.514C61.4508 89.7549 61.7882 89.8817 62.1832 89.8817C62.6425 89.8817 62.9975 89.7139 63.2354 89.3824C63.2442 89.3707 63.2471 89.3561 63.2442 89.3414C63.2413 89.3268 63.2325 89.3151 63.2198 89.3073L62.664 88.9874C62.6435 88.9757 62.6162 88.9796 62.6006 88.9972C62.5099 89.0967 62.3578 89.1561 62.1939 89.1561C61.9579 89.1561 61.8009 89.084 61.718 88.9348H63.2842C63.3086 88.9348 63.33 88.9182 63.3349 88.8938C63.3544 88.8031 63.3642 88.7056 63.3642 88.6052C63.3642 88.2531 63.2403 87.9293 63.015 87.6953C62.7888 87.4593 62.4767 87.3296 62.1354 87.3296L62.1325 87.3306ZM62.1276 88.0503C62.2476 88.0503 62.4533 88.0863 62.5469 88.3136H61.6936C61.7648 88.141 61.9131 88.0503 62.1266 88.0503H62.1276Z" fill="white"/>
<path id="Vector_146" d="M65.0981 87.3486C64.9372 87.3486 64.7772 87.3915 64.6495 87.4686C64.5715 87.5154 64.5061 87.5749 64.4544 87.6431V87.4462C64.4544 87.4179 64.431 87.3945 64.4028 87.3945H63.7074C63.6792 87.3945 63.6558 87.4179 63.6558 87.4462V89.7642C63.6558 89.7925 63.6792 89.8159 63.7074 89.8159H64.4028C64.431 89.8159 64.4544 89.7925 64.4544 89.7642V88.7168C64.4544 88.5598 64.5052 88.4379 64.6046 88.3531C64.7441 88.2341 64.9469 88.2166 65.0903 88.239C65.1049 88.2409 65.1205 88.237 65.1322 88.2273C65.1439 88.2175 65.1507 88.2029 65.1507 88.1883V87.4003C65.1507 87.372 65.1273 87.3486 65.0991 87.3486H65.0981Z" fill="white"/>
<path id="Vector_147" d="M66.1176 87.3955H65.4223C65.3937 87.3955 65.3706 87.4187 65.3706 87.4472V89.7643C65.3706 89.7928 65.3937 89.816 65.4223 89.816H66.1176C66.1462 89.816 66.1693 89.7928 66.1693 89.7643V87.4472C66.1693 87.4187 66.1462 87.3955 66.1176 87.3955Z" fill="white"/>
<path id="Vector_148" d="M65.7699 86.3579C65.5153 86.3579 65.3008 86.5725 65.3008 86.827C65.3008 87.0815 65.5153 87.2961 65.7699 87.2961C66.0244 87.2961 66.2389 87.0815 66.2389 86.827C66.2389 86.5725 66.0244 86.3579 65.7699 86.3579Z" fill="white"/>
<path id="Vector_149" d="M67.9051 86.4032C67.5151 86.3798 67.2147 86.4647 67.0119 86.6548C66.8305 86.8255 66.7339 87.0741 66.7252 87.395H66.4658C66.4375 87.395 66.4141 87.4184 66.4141 87.4467V88.1147C66.4141 88.143 66.4375 88.1664 66.4658 88.1664H66.7252V89.7647C66.7252 89.793 66.7486 89.8164 66.7768 89.8164H67.4722C67.5004 89.8164 67.5238 89.793 67.5238 89.7647V88.1664H67.9032C67.9315 88.1664 67.9549 88.143 67.9549 88.1147V87.4467C67.9549 87.4184 67.9315 87.395 67.9032 87.395H67.5258C67.5326 87.3238 67.556 87.2721 67.596 87.2351C67.6545 87.1814 67.7569 87.16 67.8983 87.1726C67.9129 87.1736 67.9266 87.1687 67.9373 87.159C67.948 87.1492 67.9539 87.1356 67.9539 87.121V86.4539C67.9539 86.4266 67.9324 86.4042 67.9051 86.4022V86.4032Z" fill="white"/>
<path id="Vector_150" d="M70.7007 87.4189C70.6909 87.4053 70.6753 87.3975 70.6587 87.3975H69.9166C69.8942 87.3975 69.8737 87.4121 69.8669 87.4335L69.4768 88.7052L69.0146 87.4316C69.0068 87.4111 68.9882 87.3975 68.9658 87.3975H68.2012C68.1837 87.3975 68.1681 87.4062 68.1583 87.4209C68.1486 87.4355 68.1466 87.453 68.1535 87.4696L69.0682 89.6619C68.9736 89.9096 68.839 89.9944 68.5445 89.9944C68.5162 89.9944 68.4928 90.0178 68.4928 90.0461V90.6946C68.4928 90.7219 68.5143 90.7443 68.5416 90.7463C68.5747 90.7482 68.6069 90.7492 68.6391 90.7492C69.2681 90.7492 69.6631 90.4264 69.9137 89.7155L70.7065 87.4677C70.7124 87.4521 70.7095 87.4345 70.6997 87.4209L70.7007 87.4189Z" fill="white"/>
</g>
<g id="Group_17">
<path id="Vector_151" d="M58.9327 76.015C58.9327 77.392 57.86 78.1078 56.6527 78.1078C55.7048 78.1078 54.8466 77.6875 54.4624 76.7669L55.696 76.0511C55.8394 76.4626 56.1076 76.7132 56.6527 76.7132C57.2427 76.7132 57.5021 76.4002 57.5021 76.016C57.5021 75.6317 57.2427 75.3187 56.6527 75.3187H56.3572L55.8121 74.5054L56.9472 73.066H54.6584V71.7251H58.6821V72.8875L57.6006 74.2645C58.37 74.5327 58.9327 75.15 58.9327 76.0169V76.015Z" fill="#344153"/>
<path id="Vector_152" d="M63.8492 76.014C63.8492 77.391 62.7764 78.1068 61.5691 78.1068C60.5764 78.1068 59.7182 77.6865 59.334 76.7659L60.5676 76.0501C60.711 76.4616 60.9791 76.7123 61.5691 76.7123C62.1591 76.7123 62.4185 76.3992 62.4185 76.015C62.4185 75.6308 62.1591 75.3177 61.614 75.3177H59.6558L59.9152 71.7231H63.5361V73.064H61.2561L61.1937 73.9222H61.7037C62.8662 73.9222 63.8501 74.638 63.8501 76.015L63.8492 76.014Z" fill="#344153"/>
<path id="Vector_153" d="M68.267 75.0777L66.3536 77.9837H64.7085L66.0679 76.008C64.8255 75.9095 63.9849 75.024 63.9849 73.8079C63.9849 72.5119 64.9328 71.5991 66.3097 71.5991C67.6867 71.5991 68.6346 72.5109 68.6346 73.8079C68.6346 74.2907 68.5 74.7285 68.2679 75.0777H68.267ZM66.3088 74.6749C66.7915 74.6749 67.203 74.3619 67.203 73.8079C67.203 73.254 66.7915 72.941 66.3088 72.941C65.826 72.941 65.4145 73.2628 65.4145 73.8079C65.4145 74.3531 65.8348 74.6749 66.3088 74.6749Z" fill="#344153"/>
<path id="Vector_154" d="M69.0801 74.8524C69.0801 72.9205 70.0104 71.5972 71.6283 71.5972C73.2461 71.5972 74.1765 72.9205 74.1765 74.8524C74.1765 76.7842 73.2461 78.1076 71.6283 78.1076C70.0104 78.1076 69.0801 76.7842 69.0801 74.8524ZM72.7468 74.8524C72.7468 73.6451 72.3802 72.9927 71.6292 72.9927C70.8783 72.9927 70.5117 73.6451 70.5117 74.8524C70.5117 76.0597 70.8783 76.7121 71.6292 76.7121C72.3802 76.7121 72.7468 76.0597 72.7468 74.8524Z" fill="#344153"/>
</g>
</g>
</g>
<g id="Group_18">
<g id="Group_19">
<path id="Vector_155" d="M45.7935 23.6997C45.7857 23.6762 45.7633 23.6606 45.7389 23.6606H44.6808C44.6565 23.6606 44.634 23.6762 44.6262 23.6997L43.3916 27.3303C43.3858 27.3479 43.3887 27.3674 43.3994 27.382C43.4102 27.3976 43.4277 27.4064 43.4462 27.4064H44.3542C44.3795 27.4064 44.4019 27.3898 44.4088 27.3664L44.5775 26.8359H45.8413L46.01 27.3664C46.0178 27.3908 46.0403 27.4064 46.0647 27.4064H46.9726C46.9911 27.4064 47.0086 27.3976 47.0194 27.382C47.0301 27.3674 47.033 27.3479 47.0272 27.3303L45.7926 23.6997H45.7935ZM45.5566 25.9426H44.8642L45.2104 24.8572L45.5566 25.9426Z" fill="#A1FF00"/>
<path id="Vector_156" d="M49.8412 23.6606H49.0113C48.9791 23.6606 48.9538 23.686 48.9538 23.7182V26.1045C48.9538 26.4078 48.7861 26.555 48.4408 26.555C48.0956 26.555 47.9279 26.4078 47.9279 26.1045V23.7182C47.9279 23.686 47.9025 23.6606 47.8703 23.6606H47.0404C47.0083 23.6606 46.9829 23.686 46.9829 23.7182V26.1767C46.9829 26.5677 47.1282 26.8993 47.4042 27.1343C47.6636 27.3566 48.0322 27.4785 48.4418 27.4785C48.8514 27.4785 49.219 27.3566 49.4794 27.1343C49.7544 26.8993 49.9007 26.5677 49.9007 26.1767V23.7182C49.9007 23.686 49.8753 23.6606 49.8432 23.6606H49.8412Z" fill="#A1FF00"/>
<path id="Vector_157" d="M52.9073 23.6606H50.2099C50.1777 23.6606 50.1523 23.686 50.1523 23.7182V24.5169C50.1523 24.5491 50.1777 24.5744 50.2099 24.5744H51.0856V27.3488C51.0856 27.381 51.111 27.4064 51.1431 27.4064H51.973C52.0052 27.4064 52.0306 27.381 52.0306 27.3488V24.5744H52.9063C52.9385 24.5744 52.9638 24.5491 52.9638 24.5169V23.7182C52.9638 23.686 52.9385 23.6606 52.9063 23.6606H52.9073Z" fill="#A1FF00"/>
<path id="Vector_158" d="M56.0722 23.6606H55.2423C55.2101 23.6606 55.1847 23.686 55.1847 23.7182V25.0503H54.1588V23.7182C54.1588 23.686 54.1335 23.6606 54.1013 23.6606H53.2714C53.2392 23.6606 53.2139 23.686 53.2139 23.7182V27.3488C53.2139 27.381 53.2392 27.4064 53.2714 27.4064H54.1013C54.1335 27.4064 54.1588 27.381 54.1588 27.3488V25.9641H55.1847V27.3488C55.1847 27.381 55.2101 27.4064 55.2423 27.4064H56.0722C56.1044 27.4064 56.1297 27.381 56.1297 27.3488V23.7182C56.1297 23.686 56.1044 23.6606 56.0722 23.6606Z" fill="#A1FF00"/>
<path id="Vector_159" d="M58.862 26.4916H57.4674V25.9641H58.7069C58.7391 25.9641 58.7644 25.9387 58.7644 25.9065V25.1186C58.7644 25.0864 58.7391 25.061 58.7069 25.061H57.4674V24.5744H58.8366C58.8688 24.5744 58.8941 24.5491 58.8941 24.5169V23.7182C58.8941 23.686 58.8688 23.6606 58.8366 23.6606H56.58C56.5478 23.6606 56.5225 23.686 56.5225 23.7182V27.3488C56.5225 27.381 56.5478 27.4064 56.58 27.4064H58.862C58.8941 27.4064 58.9195 27.381 58.9195 27.3488V26.5502C58.9195 26.518 58.8941 26.4926 58.862 26.4926V26.4916Z" fill="#A1FF00"/>
<path id="Vector_160" d="M62.0653 23.6606H61.2354C61.2032 23.6606 61.1778 23.686 61.1778 23.7182V25.5086L59.8818 23.685C59.8711 23.6694 59.8535 23.6606 59.835 23.6606H59.2128C59.1806 23.6606 59.1553 23.686 59.1553 23.7182V27.3488C59.1553 27.381 59.1806 27.4064 59.2128 27.4064H60.0427C60.0749 27.4064 60.1002 27.381 60.1002 27.3488V25.5584L61.3963 27.382C61.407 27.3976 61.4246 27.4064 61.4431 27.4064H62.0653C62.0974 27.4064 62.1228 27.381 62.1228 27.3488V23.7182C62.1228 23.686 62.0974 23.6606 62.0653 23.6606Z" fill="#A1FF00"/>
<path id="Vector_161" d="M65.126 23.6606H62.4286C62.3965 23.6606 62.3711 23.686 62.3711 23.7182V24.5169C62.3711 24.5491 62.3965 24.5744 62.4286 24.5744H63.3044V27.3488C63.3044 27.381 63.3297 27.4064 63.3619 27.4064H64.1918C64.224 27.4064 64.2493 27.381 64.2493 27.3488V24.5744H65.1251C65.1572 24.5744 65.1826 24.5491 65.1826 24.5169V23.7182C65.1826 23.686 65.1572 23.6606 65.1251 23.6606H65.126Z" fill="#A1FF00"/>
<path id="Vector_162" d="M66.3201 23.6606H65.4902C65.4584 23.6606 65.4326 23.6864 65.4326 23.7182V27.3488C65.4326 27.3806 65.4584 27.4064 65.4902 27.4064H66.3201C66.3518 27.4064 66.3776 27.3806 66.3776 27.3488V23.7182C66.3776 23.6864 66.3518 23.6606 66.3201 23.6606Z" fill="#A1FF00"/>
<path id="Vector_163" d="M70.2851 26.5676C70.2812 26.553 70.2714 26.5393 70.2578 26.5325L69.542 26.118C69.5283 26.1102 69.5127 26.1083 69.4981 26.1122C69.4835 26.1161 69.4708 26.1258 69.463 26.1395C69.3177 26.3999 69.0232 26.5559 68.6731 26.5559C68.0655 26.5559 67.6725 26.1551 67.6725 25.5349C67.6725 24.9147 68.0655 24.5138 68.6731 24.5138C69.0183 24.5138 69.3138 24.6699 69.463 24.9312C69.4708 24.9449 69.4835 24.9546 69.4981 24.9585C69.5127 24.9624 69.5283 24.9605 69.542 24.9527L70.2578 24.5372C70.2714 24.5294 70.2812 24.5168 70.2851 24.5012C70.289 24.4865 70.286 24.47 70.2782 24.4573C70.1164 24.195 69.8843 23.9755 69.6073 23.8244C69.3264 23.6713 69.0037 23.5894 68.6731 23.5894C68.1309 23.5894 67.6355 23.7883 67.2776 24.1501C66.9226 24.508 66.7275 25.0005 66.7275 25.5349C66.7275 26.0693 66.9226 26.5618 67.2776 26.9197C67.6355 27.2815 68.1309 27.4804 68.6731 27.4804C69.0056 27.4804 69.3303 27.3995 69.6112 27.2454C69.8882 27.0942 70.1193 26.8748 70.2782 26.6115C70.286 26.5978 70.289 26.5822 70.2851 26.5676Z" fill="#A1FF00"/>
<path id="Vector_164" d="M72.6554 23.6997C72.6476 23.6762 72.6251 23.6606 72.6008 23.6606H71.5427C71.5183 23.6606 71.4959 23.6762 71.4881 23.6997L70.2535 27.3303C70.2476 27.3479 70.2505 27.3674 70.2613 27.382C70.272 27.3976 70.2895 27.4064 70.3081 27.4064H71.216C71.2413 27.4064 71.2638 27.3898 71.2706 27.3664L71.4393 26.8359H72.7031L72.8719 27.3664C72.8797 27.3908 72.9021 27.4064 72.9265 27.4064H73.8344C73.8529 27.4064 73.8705 27.3976 73.8812 27.382C73.8919 27.3674 73.8948 27.3479 73.889 27.3303L72.6544 23.6997H72.6554ZM72.4174 25.9426H71.725L72.0712 24.8572L72.4174 25.9426Z" fill="#A1FF00"/>
<path id="Vector_165" d="M76.3257 23.6606H73.6283C73.5962 23.6606 73.5708 23.686 73.5708 23.7182V24.5169C73.5708 24.5491 73.5962 24.5744 73.6283 24.5744H74.5041V27.3488C74.5041 27.381 74.5294 27.4064 74.5616 27.4064H75.3915C75.4237 27.4064 75.449 27.381 75.449 27.3488V24.5744H76.3248C76.3569 24.5744 76.3823 24.5491 76.3823 24.5169V23.7182C76.3823 23.686 76.3569 23.6606 76.3248 23.6606H76.3257Z" fill="#A1FF00"/>
<path id="Vector_166" d="M77.6316 23.6606H76.8017C76.7699 23.6606 76.7441 23.6864 76.7441 23.7182V27.3488C76.7441 27.3806 76.7699 27.4064 76.8017 27.4064H77.6316C77.6633 27.4064 77.6891 27.3806 77.6891 27.3488V23.7182C77.6891 23.6864 77.6633 23.6606 77.6316 23.6606Z" fill="#A1FF00"/>
<path id="Vector_167" d="M79.989 23.5874C79.4663 23.5874 78.9777 23.7863 78.613 24.1472C78.2453 24.5109 78.0425 25.0034 78.0425 25.5329C78.0425 26.0625 78.2453 26.554 78.613 26.9187C78.9777 27.2795 79.4663 27.4784 79.989 27.4784C80.5117 27.4784 81.0003 27.2795 81.364 26.9187C81.7317 26.5549 81.9345 26.0625 81.9345 25.5329C81.9345 25.0034 81.7317 24.5119 81.364 24.1472C80.9993 23.7863 80.5107 23.5874 79.989 23.5874ZM80.6989 26.2751C80.5166 26.4555 80.265 26.5549 79.989 26.5549C79.713 26.5549 79.4604 26.4555 79.279 26.2751C79.0889 26.0868 78.9884 25.8304 78.9884 25.5339C78.9884 25.2374 79.0889 24.98 79.279 24.7927C79.4614 24.6123 79.713 24.5129 79.989 24.5129C80.265 24.5129 80.5175 24.6123 80.6989 24.7927C80.8891 24.981 80.9895 25.2374 80.9895 25.5339C80.9895 25.8304 80.8891 26.0878 80.6989 26.2751Z" fill="#A1FF00"/>
<path id="Vector_168" d="M85.1927 23.6606H84.3628C84.3306 23.6606 84.3053 23.686 84.3053 23.7182V25.5086L83.0092 23.685C82.9985 23.6694 82.981 23.6606 82.9624 23.6606H82.3403C82.3081 23.6606 82.2827 23.686 82.2827 23.7182V27.3488C82.2827 27.381 82.3081 27.4064 82.3403 27.4064H83.1701C83.2023 27.4064 83.2277 27.381 83.2277 27.3488V25.5584L84.5237 27.382C84.5344 27.3976 84.552 27.4064 84.5705 27.4064H85.1927C85.2249 27.4064 85.2502 27.381 85.2502 27.3488V23.7182C85.2502 23.686 85.2249 23.6606 85.1927 23.6606Z" fill="#A1FF00"/>
</g>
<g id="Group_20">
<path id="Vector_169" d="M49.8575 18.6152H47.1601C47.1279 18.6152 47.1025 18.6406 47.1025 18.6728V19.4715C47.1025 19.5036 47.1279 19.529 47.1601 19.529H48.0358V22.3034C48.0358 22.3356 48.0612 22.361 48.0933 22.361H48.9232C48.9554 22.361 48.9808 22.3356 48.9808 22.3034V19.529H49.8565C49.8887 19.529 49.914 19.5036 49.914 19.4715V18.6728C49.914 18.6406 49.8887 18.6152 49.8565 18.6152H49.8575Z" fill="#A1FF00"/>
<path id="Vector_170" d="M55.3093 18.6396C55.2986 18.625 55.281 18.6172 55.2635 18.6172H54.3916C54.3653 18.6172 54.3419 18.6357 54.336 18.6611L53.7617 20.9889L53.12 18.6601C53.1131 18.6347 53.0907 18.6182 53.0644 18.6182H52.3905C52.3642 18.6182 52.3418 18.6357 52.3349 18.6601L51.6933 20.9889L51.1189 18.6611C51.112 18.6357 51.0896 18.6172 51.0633 18.6172H50.1915C50.1739 18.6172 50.1563 18.626 50.1456 18.6396C50.1349 18.6542 50.131 18.6728 50.1359 18.6903L51.1374 22.321C51.1442 22.3463 51.1666 22.3629 51.193 22.3629H52.137C52.1633 22.3629 52.1857 22.3454 52.1926 22.321L52.7279 20.3803L53.2633 22.321C53.2702 22.3463 53.2926 22.3629 53.3189 22.3629H54.2629C54.2892 22.3629 54.3117 22.3454 54.3185 22.321L55.32 18.6903C55.3249 18.6728 55.321 18.6542 55.3103 18.6396H55.3093Z" fill="#A1FF00"/>
<path id="Vector_171" d="M57.2048 18.5435C56.6821 18.5435 56.1935 18.7424 55.8298 19.1032C55.4621 19.467 55.2593 19.9594 55.2593 20.489C55.2593 21.0185 55.4621 21.51 55.8298 21.8747C56.1945 22.2356 56.6831 22.4345 57.2048 22.4345C57.7265 22.4345 58.2161 22.2356 58.5798 21.8747C58.9475 21.511 59.1503 21.0185 59.1503 20.489C59.1503 19.9594 58.9475 19.4679 58.5798 19.1032C58.2151 18.7424 57.7265 18.5435 57.2048 18.5435ZM57.9147 21.2311C57.7324 21.4115 57.4808 21.511 57.2048 21.511C56.9288 21.511 56.6762 21.4115 56.4949 21.2311C56.3047 21.0429 56.2042 20.7864 56.2042 20.49C56.2042 20.1935 56.3047 19.936 56.4949 19.7488C56.6772 19.5684 56.9288 19.4689 57.2048 19.4689C57.4808 19.4689 57.7324 19.5684 57.9147 19.7488C58.1049 19.937 58.2054 20.1935 58.2054 20.49C58.2054 20.7864 58.1049 21.0439 57.9147 21.2311Z" fill="#A1FF00"/>
<path id="Vector_172" d="M61.5299 20.3203H59.559C59.5272 20.3203 59.5015 20.3461 59.5015 20.3779V21.1249C59.5015 21.1566 59.5272 21.1824 59.559 21.1824H61.5299C61.5617 21.1824 61.5874 21.1566 61.5874 21.1249V20.3779C61.5874 20.3461 61.5617 20.3203 61.5299 20.3203Z" fill="#A1FF00"/>
<path id="Vector_173" d="M64.3889 20.9723V20.1736C64.3889 20.1414 64.3635 20.1161 64.3313 20.1161H63.0402V19.5309H64.3567C64.3889 19.5309 64.4142 19.5056 64.4142 19.4734V18.6747C64.4142 18.6425 64.3889 18.6172 64.3567 18.6172H62.1527C62.1206 18.6172 62.0952 18.6425 62.0952 18.6747V22.3054C62.0952 22.3376 62.1206 22.3629 62.1527 22.3629H62.9826C63.0148 22.3629 63.0402 22.3376 63.0402 22.3054V21.0298H64.3313C64.3635 21.0298 64.3889 21.0045 64.3889 20.9723Z" fill="#A1FF00"/>
<path id="Vector_174" d="M66.7276 18.6542C66.7198 18.6308 66.6974 18.6152 66.673 18.6152H65.6149C65.5906 18.6152 65.5681 18.6308 65.5603 18.6542L64.3257 22.2849C64.3199 22.3025 64.3228 22.322 64.3335 22.3366C64.3442 22.3512 64.3618 22.361 64.3803 22.361H65.2882C65.3136 22.361 65.336 22.3444 65.3429 22.321L65.5116 21.7905H66.7754L66.9441 22.321C66.9519 22.3454 66.9744 22.361 66.9987 22.361H67.9066C67.9252 22.361 67.9427 22.3522 67.9535 22.3366C67.9642 22.322 67.9671 22.3025 67.9613 22.2849L66.7267 18.6542H66.7276ZM66.4907 20.8982H65.7983L66.1445 19.8128L66.4907 20.8982Z" fill="#A1FF00"/>
<path id="Vector_175" d="M69.821 19.4679C70.1662 19.4679 70.4617 19.624 70.6109 19.8853C70.6187 19.899 70.6314 19.9087 70.646 19.9126C70.6607 19.9165 70.6763 19.9146 70.6899 19.9068L71.4057 19.4914C71.4194 19.4835 71.4291 19.4709 71.433 19.4553C71.4369 19.4406 71.434 19.4241 71.4262 19.4114C71.2643 19.1491 71.0322 18.9296 70.7552 18.7785C70.4744 18.6254 70.1516 18.5435 69.821 18.5435C69.2788 18.5435 68.7834 18.7424 68.4255 19.1042C68.0705 19.4621 67.8755 19.9546 67.8755 20.489C67.8755 21.0234 68.0705 21.5159 68.4255 21.8738C68.7834 22.2356 69.2788 22.4345 69.821 22.4345C70.1536 22.4345 70.4783 22.3536 70.7592 22.1995C71.0361 22.0483 71.2672 21.8289 71.4262 21.5656C71.434 21.5519 71.4369 21.5363 71.433 21.5217C71.4291 21.5071 71.4194 21.4934 71.4057 21.4866L70.6899 21.0721C70.6763 21.0643 70.6607 21.0624 70.646 21.0663C70.6314 21.0702 70.6187 21.0799 70.6109 21.0936C70.4656 21.354 70.1711 21.51 69.821 21.51C69.2135 21.51 68.8205 21.1092 68.8205 20.489C68.8205 19.8688 69.2135 19.4679 69.821 19.4679Z" fill="#A1FF00"/>
<path id="Vector_176" d="M74.4361 18.6152H71.7387C71.7065 18.6152 71.6812 18.6406 71.6812 18.6728V19.4715C71.6812 19.5036 71.7065 19.529 71.7387 19.529H72.6144V22.3034C72.6144 22.3356 72.6398 22.361 72.672 22.361H73.5018C73.534 22.361 73.5594 22.3356 73.5594 22.3034V19.529H74.4351C74.4673 19.529 74.4926 19.5036 74.4926 19.4715V18.6728C74.4926 18.6406 74.4673 18.6152 74.4351 18.6152H74.4361Z" fill="#A1FF00"/>
<path id="Vector_177" d="M76.4382 18.5435C75.9155 18.5435 75.4269 18.7424 75.0632 19.1032C74.6955 19.467 74.4927 19.9594 74.4927 20.489C74.4927 21.0185 74.6955 21.51 75.0632 21.8747C75.4279 22.2356 75.9165 22.4345 76.4382 22.4345C76.9599 22.4345 77.4495 22.2356 77.8142 21.8747C78.1819 21.511 78.3847 21.0185 78.3847 20.489C78.3847 19.9594 78.1819 19.4679 77.8142 19.1032C77.4495 18.7424 76.9609 18.5435 76.4382 18.5435ZM77.1481 21.2311C76.9658 21.4115 76.7142 21.511 76.4382 21.511C76.1622 21.511 75.9106 21.4115 75.7283 21.2311C75.5381 21.0429 75.4376 20.7864 75.4376 20.49C75.4376 20.1935 75.5381 19.936 75.7283 19.7488C75.9106 19.5684 76.1622 19.4689 76.4382 19.4689C76.7142 19.4689 76.9668 19.5684 77.1481 19.7488C77.3383 19.937 77.4388 20.1935 77.4388 20.49C77.4388 20.7864 77.3383 21.0439 77.1481 21.2311Z" fill="#A1FF00"/>
<path id="Vector_178" d="M81.533 22.2761L80.7899 20.9947C81.1849 20.7704 81.4365 20.355 81.4365 19.9191C81.4365 19.57 81.3009 19.2423 81.0562 18.9975C80.8114 18.7527 80.4837 18.6172 80.1346 18.6172H78.6825C78.6504 18.6172 78.625 18.6425 78.625 18.6747V22.3054C78.625 22.3376 78.6504 22.3629 78.6825 22.3629H79.5124C79.5446 22.3629 79.57 22.3376 79.57 22.3054V21.1703H79.8733L80.5413 22.3346C80.552 22.3522 80.5705 22.3639 80.591 22.3639H81.4833C81.5038 22.3639 81.5233 22.3532 81.533 22.3346C81.5438 22.3171 81.5438 22.2947 81.533 22.2771V22.2761ZM79.57 19.5095H80.1346C80.3345 19.5095 80.4915 19.6889 80.4915 19.9191C80.4915 20.1492 80.3345 20.3287 80.1346 20.3287H79.57V19.5105V19.5095Z" fill="#A1FF00"/>
</g>
</g>
</g>
<g id="Group_21">
<path id="Vector_179" d="M115.914 10.9297C98.323 10.9297 84.0627 24.8419 84.0627 42.0044C84.0627 42.0044 84.1855 59.2956 78.5859 64.7587C78.5859 64.7587 93.2081 64.155 98.1153 67.7779C103.197 71.1248 109.321 73.0791 115.914 73.0791C133.504 73.0791 147.765 59.1669 147.765 42.0044C147.765 24.8419 133.504 10.9297 115.914 10.9297Z" fill="#A1FF00"/>
<g id="Group_22">
<path id="Vector_180" d="M132.654 46.373H100.184C97.0742 46.373 94.5532 48.894 94.5532 52.0038C94.5532 55.1136 97.0742 57.6346 100.184 57.6346H132.654C135.764 57.6346 138.285 55.1136 138.285 52.0038C138.285 48.894 135.764 46.373 132.654 46.373Z" fill="white"/>
<g id="Group_23">
<path id="Vector_181" d="M107.816 52.8425L106.095 52.6699L107.147 53.9893L105.751 54.8689L104.947 53.2433L104.144 54.8689L102.747 53.9893L103.799 52.6699L102.078 52.8425V51.1593L103.799 51.3319L102.747 50.0124L104.144 49.1328L104.947 50.7585L105.751 49.1328L107.147 50.0124L106.095 51.3319L107.816 51.1593V52.8425Z" fill="#344153"/>
<path id="Vector_182" d="M115.464 52.8425L113.743 52.6699L114.795 53.9893L113.399 54.8689L112.595 53.2433L111.792 54.8689L110.395 53.9893L111.447 52.6699L109.726 52.8425V51.1593L111.447 51.3319L110.395 50.0124L111.792 49.1328L112.595 50.7585L113.399 49.1328L114.795 50.0124L113.743 51.3319L115.464 51.1593V52.8425Z" fill="#344153"/>
<path id="Vector_183" d="M123.117 52.8425L121.396 52.6699L122.448 53.9893L121.052 54.8689L120.248 53.2433L119.444 54.8689L118.048 53.9893L119.1 52.6699L117.379 52.8425V51.1593L119.1 51.3319L118.048 50.0124L119.444 49.1328L120.248 50.7585L121.052 49.1328L122.448 50.0124L121.396 51.3319L123.117 51.1593V52.8425Z" fill="#344153"/>
<path id="Vector_184" d="M130.765 52.8425L129.044 52.6699L130.096 53.9893L128.7 54.8689L127.896 53.2433L127.093 54.8689L125.696 53.9893L126.749 52.6699L125.027 52.8425V51.1593L126.749 51.3319L125.696 50.0124L127.093 49.1328L127.896 50.7585L128.7 49.1328L130.096 50.0124L129.044 51.3319L130.765 51.1593V52.8425Z" fill="#344153"/>
</g>
</g>
<g id="Group_24">
<path id="Vector_185" d="M110.839 27.1299V31.255H112.743V27.1299C112.743 25.1005 114.389 23.4553 116.418 23.4553C118.447 23.4553 120.093 25.1005 120.093 27.1299V27.596H121.997V27.1299C121.997 24.0492 119.5 21.5508 116.418 21.5508C113.337 21.5508 110.839 24.0483 110.839 27.1299Z" fill="white"/>
<path id="Vector_186" d="M110.029 30.4766V40.3514H122.802V30.4766H110.029ZM117.345 37.4053H115.486L115.971 35.1702C115.682 35.0122 115.486 34.706 115.486 34.353C115.486 33.839 115.902 33.4226 116.416 33.4226C116.93 33.4226 117.346 33.839 117.346 34.353C117.346 34.706 117.15 35.0122 116.861 35.1702L117.346 37.4053H117.345Z" fill="white"/>
</g>
</g>
</g>
</g>
</g>
<defs>
<linearGradient id="paint0_linear_7112_8910" x1="78.2771" y1="43.9203" x2="111.037" y2="17.7128" gradientUnits="userSpaceOnUse">
<stop stop-color="#FFB56B"/>
<stop offset="0.6" stop-color="#FFC17A"/>
<stop offset="0.69" stop-color="#FFC983"/>
<stop offset="1" stop-color="#FFF0DD"/>
</linearGradient>
<linearGradient id="paint1_linear_7112_8910" x1="78.9791" y1="84.2117" x2="106.885" y2="57.5829" gradientUnits="userSpaceOnUse">
<stop stop-color="#FFB56B"/>
<stop offset="0.6" stop-color="#FFC17A"/>
<stop offset="0.69" stop-color="#FFC983"/>
<stop offset="1" stop-color="#FFF0DD"/>
</linearGradient>
<linearGradient id="paint2_linear_7112_8910" x1="83.4143" y1="97.7849" x2="105.849" y2="75.5328" gradientUnits="userSpaceOnUse">
<stop stop-color="#FFB56B"/>
<stop offset="0.6" stop-color="#FFC17A"/>
<stop offset="0.69" stop-color="#FFC983"/>
<stop offset="1" stop-color="#FFF0DD"/>
</linearGradient>
<linearGradient id="paint3_linear_7112_8910" x1="71.5493" y1="70.2058" x2="104.015" y2="45.4006" gradientUnits="userSpaceOnUse">
<stop stop-color="#FFB56B"/>
<stop offset="0.6" stop-color="#FFC17A"/>
<stop offset="0.69" stop-color="#FFC983"/>
<stop offset="1" stop-color="#FFF0DD"/>
</linearGradient>
<linearGradient id="paint4_linear_7112_8910" x1="95.9202" y1="33.9915" x2="94.5452" y2="35.4728" gradientUnits="userSpaceOnUse">
<stop stop-color="#FF9228"/>
<stop offset="1" stop-color="#BD6F00"/>
</linearGradient>
<linearGradient id="paint5_linear_7112_8910" x1="92.7373" y1="31.666" x2="91.8645" y2="32.6051" gradientUnits="userSpaceOnUse">
<stop stop-color="#FF9228"/>
<stop offset="1" stop-color="#BD6F00"/>
</linearGradient>
<linearGradient id="paint6_linear_7112_8910" x1="88.1595" y1="59.3152" x2="86.7845" y2="60.7956" gradientUnits="userSpaceOnUse">
<stop stop-color="#FF9228"/>
<stop offset="1" stop-color="#BD6F00"/>
</linearGradient>
<linearGradient id="paint7_linear_7112_8910" x1="84.978" y1="56.9907" x2="84.1052" y2="57.9308" gradientUnits="userSpaceOnUse">
<stop stop-color="#FF9228"/>
<stop offset="1" stop-color="#BD6F00"/>
</linearGradient>
<linearGradient id="paint8_linear_7112_8910" x1="90.8241" y1="74.7517" x2="89.449" y2="76.2321" gradientUnits="userSpaceOnUse">
<stop stop-color="#FF9228"/>
<stop offset="1" stop-color="#BD6F00"/>
</linearGradient>
<linearGradient id="paint9_linear_7112_8910" x1="87.6377" y1="72.4263" x2="86.7649" y2="73.3654" gradientUnits="userSpaceOnUse">
<stop stop-color="#FF9228"/>
<stop offset="1" stop-color="#BD6F00"/>
</linearGradient>
<linearGradient id="paint10_linear_7112_8910" x1="93.1478" y1="90.1878" x2="91.7718" y2="91.6681" gradientUnits="userSpaceOnUse">
<stop stop-color="#FF9228"/>
<stop offset="1" stop-color="#BD6F00"/>
</linearGradient>
<linearGradient id="paint11_linear_7112_8910" x1="89.9629" y1="87.8594" x2="89.0911" y2="88.7985" gradientUnits="userSpaceOnUse">
<stop stop-color="#FF9228"/>
<stop offset="1" stop-color="#BD6F00"/>
</linearGradient>
<linearGradient id="paint12_linear_7112_8910" x1="56.7907" y1="63.7211" x2="-22.5485" y2="136.815" gradientUnits="userSpaceOnUse">
<stop stop-color="#FFB56B"/>
<stop offset="0.6" stop-color="#FFC17A"/>
<stop offset="0.69" stop-color="#FFC983"/>
<stop offset="1" stop-color="#FFF0DD"/>
</linearGradient>
<linearGradient id="paint13_linear_7112_8910" x1="23.4196" y1="40.2377" x2="21.5804" y2="29.4793" gradientUnits="userSpaceOnUse">
<stop stop-color="#FF9D41"/>
<stop offset="1" stop-color="#FFC983"/>
</linearGradient>
<linearGradient id="paint14_linear_7112_8910" x1="21.9849" y1="44.5029" x2="23.6593" y2="44.5029" gradientUnits="userSpaceOnUse">
<stop stop-color="#FF9228"/>
<stop offset="1" stop-color="#BD6F00"/>
</linearGradient>
<linearGradient id="paint15_linear_7112_8910" x1="21.5557" y1="46.5771" x2="25.1268" y2="46.5771" gradientUnits="userSpaceOnUse">
<stop stop-color="#FF9228"/>
<stop offset="1" stop-color="#BD6F00"/>
</linearGradient>
<linearGradient id="paint16_linear_7112_8910" x1="17.862" y1="112.457" x2="16.3699" y2="114.062" gradientUnits="userSpaceOnUse">
<stop stop-color="#FF9228"/>
<stop offset="1" stop-color="#BD6F00"/>
</linearGradient>
<linearGradient id="paint17_linear_7112_8910" x1="17.3298" y1="108.847" x2="16.6813" y2="109.545" gradientUnits="userSpaceOnUse">
<stop stop-color="#FF9228"/>
<stop offset="1" stop-color="#BD6F00"/>
</linearGradient>
<linearGradient id="paint18_linear_7112_8910" x1="40.8041" y1="137.819" x2="39.0526" y2="139.704" gradientUnits="userSpaceOnUse">
<stop stop-color="#FF9228"/>
<stop offset="1" stop-color="#BD6F00"/>
</linearGradient>
<linearGradient id="paint19_linear_7112_8910" x1="43.7268" y1="134.077" x2="41.9568" y2="135.982" gradientUnits="userSpaceOnUse">
<stop stop-color="#FF9228"/>
<stop offset="1" stop-color="#BD6F00"/>
</linearGradient>
<linearGradient id="paint20_linear_7112_8910" x1="45.4595" y1="87.747" x2="37.7144" y2="96.084" gradientUnits="userSpaceOnUse">
<stop stop-color="#FF9228"/>
<stop offset="1" stop-color="#BD6F00"/>
</linearGradient>
<linearGradient id="paint21_linear_7112_8910" x1="36.3801" y1="69.0798" x2="33.5911" y2="72.0824" gradientUnits="userSpaceOnUse">
<stop stop-color="#FF9228"/>
<stop offset="1" stop-color="#BD6F00"/>
</linearGradient>
<linearGradient id="paint22_linear_7112_8910" x1="35.4715" y1="47.2239" x2="34.4962" y2="48.2742" gradientUnits="userSpaceOnUse">
<stop stop-color="#FF9228"/>
<stop offset="1" stop-color="#BD6F00"/>
</linearGradient>
<linearGradient id="paint23_linear_7112_8910" x1="35.6971" y1="48.3215" x2="35.2612" y2="48.7896" gradientUnits="userSpaceOnUse">
<stop stop-color="#FF9228"/>
<stop offset="1" stop-color="#BD6F00"/>
</linearGradient>
<linearGradient id="paint24_linear_7112_8910" x1="24.2016" y1="124.834" x2="16.7735" y2="132.83" gradientUnits="userSpaceOnUse">
<stop stop-color="#FF9228"/>
<stop offset="1" stop-color="#BD6F00"/>
</linearGradient>
<linearGradient id="paint25_linear_7112_8910" x1="25.5111" y1="130.61" x2="18.084" y2="138.604" gradientUnits="userSpaceOnUse">
<stop stop-color="#FF9228"/>
<stop offset="1" stop-color="#BD6F00"/>
</linearGradient>
<linearGradient id="paint26_linear_7112_8910" x1="91.9326" y1="37.2003" x2="93.9015" y2="37.2003" gradientUnits="userSpaceOnUse">
<stop/>
<stop offset="1" stop-color="#333333"/>
</linearGradient>
<linearGradient id="paint27_linear_7112_8910" x1="34.5298" y1="29.84" x2="36.8985" y2="29.84" gradientUnits="userSpaceOnUse">
<stop stop-color="#333333"/>
<stop offset="1"/>
</linearGradient>
<linearGradient id="paint28_linear_7112_8910" x1="-0.00200826" y1="44.5622" x2="0.0955116" y2="44.5622" gradientUnits="userSpaceOnUse">
<stop stop-color="#333333"/>
<stop offset="1"/>
</linearGradient>
<linearGradient id="paint29_linear_7112_8910" x1="64.3159" y1="-0.847448" x2="64.3159" y2="113.708" gradientUnits="userSpaceOnUse">
<stop stop-color="#333333"/>
<stop offset="1"/>
</linearGradient>
<linearGradient id="paint30_linear_7112_8910" x1="64.3159" y1="-0.475897" x2="64.3159" y2="112.971" gradientUnits="userSpaceOnUse">
<stop stop-color="white"/>
<stop offset="1" stop-color="#F3F3F3"/>
</linearGradient>
<linearGradient id="paint31_linear_7112_8910" x1="89.7815" y1="51.4008" x2="101.748" y2="51.4008" gradientUnits="userSpaceOnUse">
<stop stop-color="#FFB56B"/>
<stop offset="0.6" stop-color="#FFC17A"/>
<stop offset="0.69" stop-color="#FFC983"/>
<stop offset="1" stop-color="#FFF0DD"/>
</linearGradient>
<linearGradient id="paint32_linear_7112_8910" x1="92.1595" y1="64.8638" x2="104.267" y2="64.8638" gradientUnits="userSpaceOnUse">
<stop stop-color="#FFB56B"/>
<stop offset="0.6" stop-color="#FFC17A"/>
<stop offset="0.69" stop-color="#FFC983"/>
<stop offset="1" stop-color="#FFF0DD"/>
</linearGradient>
<linearGradient id="paint33_linear_7112_8910" x1="92.3262" y1="81.7277" x2="104.203" y2="81.7277" gradientUnits="userSpaceOnUse">
<stop stop-color="#FFB56B"/>
<stop offset="0.6" stop-color="#FFC17A"/>
<stop offset="0.69" stop-color="#FFC983"/>
<stop offset="1" stop-color="#FFF0DD"/>
</linearGradient>
<linearGradient id="paint34_linear_7112_8910" x1="98.4241" y1="60.1664" x2="101.349" y2="66.0147" gradientUnits="userSpaceOnUse">
<stop stop-color="#FFB675"/>
<stop offset="0.5" stop-color="#FFC983"/>
<stop offset="1" stop-color="#FFB675"/>
</linearGradient>
<linearGradient id="paint35_linear_7112_8910" x1="94.7571" y1="46.3072" x2="100.02" y2="52.253" gradientUnits="userSpaceOnUse">
<stop stop-color="#FFB675"/>
<stop offset="0.5" stop-color="#FFC983"/>
<stop offset="1" stop-color="#FFB675"/>
</linearGradient>
<linearGradient id="paint36_linear_7112_8910" x1="97.1067" y1="76.2851" x2="102.467" y2="82.3771" gradientUnits="userSpaceOnUse">
<stop stop-color="#FFB675"/>
<stop offset="0.5" stop-color="#FFC983"/>
<stop offset="1" stop-color="#FFB675"/>
</linearGradient>
</defs>
</svg>
