<?xml version="1.0" encoding="utf-8"?>
<!-- Generator: Adobe Illustrator 23.0.1, SVG Export Plug-In . SVG Version: 6.00 Build 0)  -->
<svg version="1.1" xmlns="http://www.w3.org/2000/svg" xmlns:xlink="http://www.w3.org/1999/xlink" x="0px" y="0px"
	 viewBox="0 0 363.48 547.93" style="enable-background:new 0 0 363.48 547.93;" xml:space="preserve">
<style type="text/css">
	.st0{display:none;}
	.st1{display:inline;}
	.st2{fill:#407BFF;}
	.st3{opacity:0.9;fill:#FFFFFF;}
	.st4{fill:#7F3E3B;}
	.st5{fill:#263238;}
	.st6{opacity:0.2;}
	.st7{fill:#803E3C;}
	.st8{fill:#FFFFFF;}
	.st9{fill:#630F0F;}
	.st10{opacity:0.3;}
	.st11{opacity:0.1;}
	.st12{opacity:0.3;fill:#FFFFFF;}
	.st13{opacity:0.6;fill:#FFFFFF;}
	.st14{opacity:0.3;fill:#407BFF;}
</style>
<g id="Background_Complete">
</g>
<g id="Background_Simple" class="st0">
	<g class="st1">
		<path class="st2" d="M123.8,105c-75.32,34.9-67.11,69.79-44.26,136c31.78,92.08,63.57,123.5,158.81,86.24
			c92.01-36,124.71-67.1,80.47-160.8C276.49,76.79,215.63,62.46,123.8,105z"/>
		<path class="st3" d="M123.8,105c-75.32,34.9-67.11,69.79-44.26,136c31.78,92.08,63.57,123.5,158.81,86.24
			c92.01-36,124.71-67.1,80.47-160.8C276.49,76.79,215.63,62.46,123.8,105z"/>
	</g>
</g>
<g id="Shadow_1_">
</g>
<g id="Character_1_">
</g>
<g id="Server">
	<g>
		<g>
			<polygon class="st4" points="357.11,515.99 345.02,518.63 336.82,490.17 348.91,487.53 			"/>
			<path class="st5" d="M344.26,517.28l13.2-2.88c0.49-0.11,0.99,0.15,1.2,0.63l4.65,10.6c0.48,1.1-0.14,2.38-1.29,2.6
				c-4.78,0.95-11.72,2.17-17.7,3.47c-7,1.53-7.97,3.08-16.29,4.17c-5.03,0.66-7.07-4.42-5.02-5.17
				c9.32-3.43,11.42-4.82,18.53-11.81C342.32,518.13,343.21,517.51,344.26,517.28z"/>
			<polygon class="st6" points="336.83,490.17 341.05,504.84 353.14,502.21 348.92,487.54 			"/>
			<path class="st7" d="M269.54,108.8c-2.48,8.48-5.19,16.73-8.12,25.01c-2.97,8.26-6.11,16.45-9.84,24.71l-1.47,3.12l-1.6,3.18
				c-0.54,1.06-1.17,2.06-1.75,3.09c-0.58,1.03-1.19,2.04-1.85,3.01c-2.53,3.96-5.34,7.67-8.36,11.14
				c-3.01,3.48-6.23,6.72-9.66,9.68c-1.71,1.49-3.47,2.9-5.3,4.24c-1.85,1.37-3.6,2.6-5.75,3.88l-5.95-8.19
				c1.16-1.38,2.57-3.01,3.81-4.58c1.27-1.58,2.48-3.24,3.71-4.85c2.41-3.27,4.67-6.62,6.77-10.03c2.07-3.42,4.06-6.86,5.73-10.42
				c0.87-1.76,1.64-3.55,2.43-5.33l1.11-2.7l1.08-2.84c2.85-7.71,5.5-15.83,8.1-23.95l7.87-24.38L269.54,108.8z"/>
			<path class="st2" d="M278.36,95.01c4.26,11.7-18.35,53.35-18.35,53.35l-25.43-20.28c0,0,7.07-18.3,15.79-31.73
				C259.32,82.55,273.69,82.17,278.36,95.01z"/>
			<path class="st6" d="M273.4,106.58c-8.04,3.53-18.96,16.91-22.36,34.62l8.98,7.17c0,0,13.38-24.64,17.6-41.34
				C276.47,106.09,275.08,105.83,273.4,106.58z"/>
			<path class="st2" d="M263.35,86.06c0,0-14.92,29.2-0.75,102.75c20.37,0,57.69,0,67.6,0c0.47-10.74-6.05-52.83,3.95-103.43
				c0,0-11.59-2.41-22.63-2.96c-8.64-0.43-21.14-0.72-28.74,0C272.78,83.37,263.35,86.06,263.35,86.06z"/>
			<polygon class="st4" points="188.14,200.57 195.03,207 205.21,204.2 198.29,191.48 			"/>
			<path class="st4" d="M213.22,192.2l-14.93-0.72l6.92,12.72c0,0,11.07,1.21,12.13-7.25L213.22,192.2z"/>
			<path class="st4" d="M308.69,48.94c-1.81,9.57-3.62,27.1,2.85,33.48c0,0-2.91,6.42-20.09,6.42c-15.7,0-8.65-6.42-8.65-6.42
				c10.31-2.55,10.05-10.46,8.25-17.9L308.69,48.94z"/>
			<path class="st6" d="M301.5,55.3l-10.44,9.22c0.43,1.76,0.77,3.54,0.89,5.28c2.52,4.05,9.39-1.89,10.65-8.13
				C303.01,59.58,301.83,56.29,301.5,55.3z"/>
			<path class="st5" d="M267.21,27.92c-3.46,6,4.13,22.62,12.91,21.1C288.9,47.49,273.76,16.55,267.21,27.92z"/>
			<path class="st4" d="M304.52,33.9c1.84,12.84,3.54,20.26-1.32,28.12c-7.31,11.82-23.62,9.32-29.12-2.69
				c-4.96-10.81-7.13-30,3.84-37.66C288.72,14.11,302.69,21.06,304.52,33.9z"/>
			<path class="st5" d="M305.56,16.98l-10.7,8.07c6.46,7.95-0.88,25.33,9.29,21.38C308.82,44.61,320.84,25.74,305.56,16.98z"/>
			<path class="st5" d="M292.78,7.08c-16.26,4.07-17.7-0.79-16.61-7.08C264,2.06,254.9,11.99,261.97,23.98
				c7.84,13.3,31.74,2.49,35.96,2.42l6.07-1.53C317.72,20.7,313.01,2.02,292.78,7.08z"/>
			<path class="st8" d="M307.19,40.62c-0.02,0-0.04,0.01-0.06,0.01c-3.08-0.06-12.59,0-12.69,0c-0.15,0-0.27-0.12-0.27-0.28
				c0-0.15,0.12-0.28,0.27-0.28c0.1,0,9.62-0.06,12.7,0c0.15,0,0.27,0.13,0.27,0.29C307.41,40.48,307.31,40.59,307.19,40.62z"/>
			<path class="st4" d="M312.91,46.66c-1.14,3.29-3.65,5.73-6.18,6.92c-3.81,1.78-6.35-1.59-5.82-5.65
				c0.48-3.66,3.03-8.99,7.11-9.06C312.04,38.8,314.21,42.89,312.91,46.66z"/>
			<polygon class="st4" points="288.98,532.09 276.63,532.09 276.21,502.49 288.57,502.49 			"/>
			<path class="st5" d="M276.14,530.61l13.49,0c0.5,0,0.94,0.36,1.05,0.87l2.44,11.36c0.25,1.18-0.61,2.29-1.78,2.27
				c-4.87-0.09-11.9-0.38-18.01-0.38c-7.15,0-13.33,0.4-21.71,0.4c-5.07,0-6.48-5.3-4.36-5.79c9.66-2.19,17.55-2.42,25.9-7.75
				C274.07,531.03,275.07,530.61,276.14,530.61z"/>
			<polygon class="st6" points="276.22,502.5 276.43,517.76 288.78,517.76 288.57,502.5 			"/>
			<path class="st2" d="M271.04,532.57c-0.95,0.16-1.86,0.13-2.5-0.26c-0.51-0.32-0.8-0.83-0.86-1.52c-0.05-0.51,0.18-0.8,0.37-0.95
				c1.25-0.95,5.69,0.94,6.19,1.16c0.11,0.05,0.18,0.16,0.18,0.29c0,0.12-0.07,0.23-0.19,0.28
				C273.4,531.93,272.19,532.38,271.04,532.57z M268.78,530.2c-0.15,0.03-0.28,0.07-0.37,0.14c-0.07,0.06-0.15,0.15-0.13,0.39
				c0.04,0.49,0.23,0.83,0.57,1.05c0.77,0.48,2.42,0.3,4.47-0.49C271.77,530.67,269.73,530.04,268.78,530.2z"/>
			<path class="st2" d="M274.17,531.59c-0.05,0.01-0.1,0-0.15-0.01c-1.4-0.52-4.33-2.94-4.29-4.42c0.01-0.27,0.12-0.75,0.82-0.95
				c0.45-0.14,0.89-0.07,1.32,0.19c1.64,0.99,2.51,4.67,2.54,4.83c0.03,0.11-0.01,0.23-0.09,0.3
				C274.28,531.56,274.22,531.58,274.17,531.59z M270.85,526.77c-0.04,0.01-0.09,0.02-0.13,0.03c-0.38,0.11-0.38,0.3-0.38,0.38
				c-0.03,0.88,1.89,2.76,3.33,3.55c-0.31-1.07-1.04-3.17-2.09-3.81C271.33,526.78,271.09,526.73,270.85,526.77z"/>
			<path class="st5" d="M262.61,188.81c0,0-9.08,119.9-10.78,159.77c-1.77,41.47,20.59,165.52,20.59,165.52h20.09
				c0,0-6.62-115.06-3.17-155.66c3.76-44.26,17.7-169.63,17.7-169.63H262.61z"/>
			<path class="st6" d="M282.87,282.99c1.71,20.08,6.66,39.2,9.08,47.72c3.09-31.47,7.63-73.77,10.93-103.99
				C295.15,232.03,279.82,247.19,282.87,282.99z"/>
			<path class="st5" d="M285.96,188.81c0,0,5.17,119.5,13.04,156.94c8.62,41.01,34.33,157.03,34.33,157.03l22.65-4.94
				c0,0-15.27-110-20.19-150.6c-5.34-44.06-6.22-158.43-6.22-158.43H285.96z"/>
			<polygon class="st2" points="357.58,498.03 333.18,503.35 329.11,494.28 355.96,487.61 			"/>
			<polygon class="st2" points="296.39,514.61 271.45,514.61 269.27,504.87 296.82,505.37 			"/>
			<path class="st5" d="M287.42,41.34c0.21,1.03-0.15,1.98-0.8,2.13c-0.65,0.14-1.35-0.58-1.56-1.61c-0.21-1.03,0.15-1.98,0.8-2.13
				C286.51,39.58,287.21,40.3,287.42,41.34z"/>
			<path class="st5" d="M276.14,43.8c0.21,1.03-0.15,1.98-0.8,2.13c-0.65,0.14-1.35-0.58-1.56-1.61c-0.21-1.03,0.15-1.98,0.8-2.13
				S275.93,42.77,276.14,43.8z"/>
			<path class="st9" d="M279.08,43.7c0,0-1.05,6.45-2.96,9.87c2.11,1.32,4.95-0.12,4.95-0.12L279.08,43.7z"/>
			<path class="st5" d="M283.45,57.53c-0.16,0.03-0.32-0.09-0.35-0.25c-0.03-0.17,0.08-0.33,0.25-0.36
				c4.41-0.77,5.95-4.32,5.97-4.36c0.07-0.16,0.24-0.23,0.39-0.16c0.15,0.07,0.22,0.25,0.15,0.41S288.18,56.71,283.45,57.53z"/>
			<path class="st5" d="M292.7,32.26c-0.17,0.06-0.37,0.03-0.53-0.09c-2.17-1.62-4.23-0.82-4.25-0.81
				c-0.29,0.13-0.65-0.04-0.77-0.36c-0.12-0.32,0.04-0.68,0.34-0.8c0.11-0.04,2.7-1.04,5.38,0.97c0.27,0.2,0.33,0.59,0.14,0.86
				C292.93,32.15,292.82,32.22,292.7,32.26z"/>
			<path class="st5" d="M269.32,36.09c-0.09-0.01-0.17-0.04-0.25-0.1c-0.28-0.18-0.36-0.57-0.18-0.86c1.8-2.88,4.56-2.92,4.68-2.92
				c0.32-0.01,0.6,0.27,0.6,0.62c0,0.34-0.26,0.62-0.59,0.62l0,0c-0.09,0-2.25,0.06-3.68,2.36
				C269.77,36.01,269.54,36.11,269.32,36.09z"/>
			<path class="st5" d="M324.15,83.02l-3.19-0.29c-0.32-0.03-0.61,0.2-0.67,0.53c-8.88,49.35-3.9,101.75-3.9,101.75h3.52
				c-2.88-54.37,3.81-95.54,4.79-101.25C324.77,83.39,324.51,83.05,324.15,83.02z"/>
			<g>
				<path class="st8" d="M320.42,185.01c0-0.65-0.51-1.18-1.14-1.18h-2.44c-0.63,0-1.14,0.53-1.14,1.18c0,0.55,0.38,0.99,0.87,1.12
					v3.13c0,0.85,0.67,1.54,1.49,1.54c0.82,0,1.49-0.69,1.49-1.54v-3.13C320.05,186,320.42,185.55,320.42,185.01z"/>
			</g>
			<g>
				<path class="st5" d="M270.62,83.68l-3.16,0.62c-0.26,0.05-0.47,0.27-0.5,0.55c-6.7,49.38,0.65,100.16,0.65,100.16h3.52
					c-5.26-53.75-0.59-94.23,0.23-100.61C271.41,83.96,271.04,83.6,270.62,83.68z"/>
				<path class="st8" d="M271.64,185.01c-0.03-0.65-0.56-1.18-1.19-1.18h-2.44c-0.62,0-1.11,0.53-1.08,1.18
					c0.02,0.55,0.42,0.99,0.92,1.12l0.14,3.13c0.04,0.85,0.74,1.54,1.56,1.54c0.82,0,1.46-0.69,1.42-1.54l-0.14-3.13
					C271.31,186,271.66,185.55,271.64,185.01z"/>
			</g>
			<path class="st2" d="M339.66,520.28c-0.9,0.35-1.8,0.53-2.5,0.28c-0.56-0.2-0.94-0.64-1.14-1.3c-0.15-0.49,0.01-0.82,0.18-1.01
				c1.04-1.2,5.75-0.29,6.29-0.18c0.12,0.03,0.21,0.12,0.24,0.24c0.02,0.12-0.03,0.25-0.12,0.32
				C341.84,519.16,340.75,519.85,339.66,520.28z M336.97,518.45c-0.15,0.06-0.26,0.13-0.34,0.22c-0.06,0.07-0.12,0.18-0.05,0.41
				c0.14,0.47,0.39,0.77,0.77,0.9c0.85,0.31,2.42-0.23,4.27-1.44C340,518.27,337.88,518.09,336.97,518.45z"/>
			<path class="st2" d="M342.53,518.66c-0.05,0.02-0.1,0.02-0.15,0.02c-1.48-0.2-4.82-1.95-5.08-3.41
				c-0.05-0.26-0.03-0.76,0.61-1.11c0.42-0.23,0.86-0.26,1.33-0.1c1.8,0.62,3.38,4.03,3.45,4.18c0.05,0.1,0.04,0.22-0.03,0.31
				C342.63,518.6,342.58,518.64,342.53,518.66z M338.32,514.65c-0.04,0.02-0.08,0.04-0.12,0.06c-0.35,0.19-0.31,0.38-0.3,0.45
				c0.15,0.86,2.4,2.29,3.97,2.77c-0.52-0.98-1.65-2.88-2.81-3.28C338.79,514.56,338.55,514.56,338.32,514.65z"/>
			<path class="st8" d="M289.21,50.05c-3.98,0.87-8.08-2.6-9.13-7.74c-0.93-4.57,1.12-7.64,5.78-8.66c4.66-1.02,7.74,0.94,8.67,5.5
				C295.58,44.29,293.19,49.18,289.21,50.05z M285.97,34.19c-3.05,0.67-6.46,2.6-5.36,8c0.99,4.84,4.79,8.12,8.49,7.31
				c3.69-0.81,5.89-5.4,4.9-10.24C292.9,33.86,289.03,33.53,285.97,34.19z"/>
			<path class="st8" d="M272.89,53.62c-3.35,0.73-6.93-2.85-7.97-7.99c-1.26-6.16,2.36-7.91,4.63-8.41c2.27-0.5,6.26-0.41,7.52,5.75
				C278.1,48.11,276.23,52.88,272.89,53.62z M269.65,37.76c-2.53,0.55-5.31,2.34-4.21,7.74c0.99,4.84,4.28,8.23,7.33,7.56
				c3.06-0.67,4.74-5.15,3.75-9.98C275.42,37.68,272.18,37.21,269.65,37.76z"/>
			<path class="st8" d="M280.33,39.1c-0.04,0.01-0.09,0.01-0.13-0.01c-1.71-0.51-3.15-0.2-4.4,0.96c-0.11,0.1-0.28,0.09-0.38-0.02
				c-0.1-0.12-0.09-0.29,0.02-0.4c1.38-1.27,3.03-1.64,4.91-1.08c0.14,0.04,0.23,0.2,0.19,0.35
				C280.5,39.01,280.42,39.08,280.33,39.1z"/>
			<polygon class="st5" points="292.48,88.83 294.95,86.98 300.2,92.21 			"/>
			<path class="st8" d="M294.95,86.98c0,0,4.34,6.28,5.18,10.83c5.18-2.22,14.98-7.79,16.29-15.66c-2.01-0.42-5.36-2.61-5.36-2.61
				S305.83,84.13,294.95,86.98z"/>
			<polygon class="st5" points="292.48,88.83 291.46,86.7 284.67,92.21 			"/>
			<path class="st8" d="M291.46,86.7c0,0-4.38,4.08-4.99,10.01c-5.18-2.22-7.22-9.48-5.86-14.32c2.83-1.4,6.14-2.08,6.14-2.08
				S286.21,85,291.46,86.7z"/>
			<polygon class="st4" points="283.25,196.4 292.06,205.99 300.86,201.7 293.41,187.31 			"/>
			<path class="st4" d="M308.33,188.03l-14.93-0.72l7.45,14.39c0,0,10.54-0.46,11.6-8.92L308.33,188.03z"/>
			<path class="st7" d="M346.58,103.4c2.2,9.45,4.15,18.9,5.9,28.44c0.88,4.77,1.71,9.55,2.46,14.38c0.79,4.82,1.48,9.65,2.05,14.69
				c0.05,0.41,0.23,1.82,0.22,2.86c0.02,1.11-0.05,2.23-0.21,3.32c-0.31,2.18-0.96,4.23-1.8,6.01c-1.7,3.58-3.94,6.16-6.15,8.28
				c-4.47,4.21-9.16,6.74-13.78,8.98c-9.34,4.3-18.6,6.81-28.35,8.43l-2.47-9.92c4.03-1.76,8.28-3.66,12.25-5.72
				c4-2.04,7.91-4.19,11.48-6.55c3.57-2.3,6.86-4.96,9.04-7.53c1.08-1.27,1.79-2.53,2.01-3.36c0.11-0.42,0.13-0.71,0.11-0.92
				c0-0.11-0.03-0.19-0.06-0.29c-0.03-0.16-0.02,0.05-0.16-0.73c-1.79-9.02-3.98-18.42-6.02-27.73c-2.08-9.32-4.11-18.71-6-28.07
				L346.58,103.4z"/>
			<path class="st2" d="M334.17,85.38c16.78,3.12,24.26,46.64,24.26,46.64l-27,17.15c0,0-8.6-25.68-8.14-41.84
				C323.71,91.92,321.41,83.01,334.17,85.38z"/>
		</g>
		<g>
			<g>
				<rect x="47.06" y="210.64" class="st2" width="173.14" height="337.29"/>
				<g>
					<rect x="62.99" y="206.52" class="st2" width="189.33" height="4.12"/>
					<rect x="62.99" y="206.52" class="st10" width="189.33" height="4.12"/>
				</g>
				<g>
					
						<rect x="220.19" y="210.64" transform="matrix(-1 -1.224647e-16 1.224647e-16 -1 488.4454 758.5681)" class="st2" width="48.06" height="337.29"/>
					
						<rect x="220.19" y="210.64" transform="matrix(-1 -1.224647e-16 1.224647e-16 -1 488.4454 758.5681)" class="st6" width="48.06" height="337.29"/>
				</g>
				<path class="st11" d="M206.84,240.05h-10.95c-0.51,0-0.93-0.42-0.93-0.93v-11.47c0-0.51,0.42-0.93,0.93-0.93h10.95
					c0.51,0,0.93,0.42,0.93,0.93v11.47C207.77,239.63,207.35,240.05,206.84,240.05z"/>
				<path class="st10" d="M180.42,240.05h-10.95c-0.51,0-0.93-0.42-0.93-0.93v-11.47c0-0.51,0.42-0.93,0.93-0.93h10.95
					c0.51,0,0.93,0.42,0.93,0.93v11.47C181.35,239.63,180.93,240.05,180.42,240.05z"/>
				<path class="st10" d="M154,240.05h-10.95c-0.51,0-0.93-0.42-0.93-0.93v-11.47c0-0.51,0.42-0.93,0.93-0.93H154
					c0.51,0,0.93,0.42,0.93,0.93v11.47C154.92,239.63,154.51,240.05,154,240.05z"/>
				<path class="st11" d="M127.57,240.05h-10.95c-0.51,0-0.93-0.42-0.93-0.93v-11.47c0-0.51,0.42-0.93,0.93-0.93h10.95
					c0.51,0,0.93,0.42,0.93,0.93v11.47C128.5,239.63,128.08,240.05,127.57,240.05z"/>
				<path class="st10" d="M101.15,240.05H90.2c-0.51,0-0.93-0.42-0.93-0.93v-11.47c0-0.51,0.42-0.93,0.93-0.93h10.95
					c0.51,0,0.93,0.42,0.93,0.93v11.47C102.08,239.63,101.66,240.05,101.15,240.05z"/>
				<path class="st10" d="M74.73,240.05H63.78c-0.51,0-0.93-0.42-0.93-0.93v-11.47c0-0.51,0.42-0.93,0.93-0.93h10.95
					c0.51,0,0.93,0.42,0.93,0.93v11.47C75.66,239.63,75.24,240.05,74.73,240.05z"/>
				<g>
					<g class="st11">
						<rect x="52.71" y="247.69" width="161.83" height="52.8"/>
					</g>
					<path class="st2" d="M206.27,292.95h-6.32c-0.72,0-1.3-0.59-1.3-1.3v-35.11c0-0.72,0.59-1.3,1.3-1.3h6.32
						c0.72,0,1.3,0.59,1.3,1.3v35.11C207.57,292.37,206.98,292.95,206.27,292.95z"/>
					<path class="st11" d="M187.84,292.95h-6.32c-0.72,0-1.3-0.59-1.3-1.3v-35.11c0-0.72,0.59-1.3,1.3-1.3h6.32
						c0.72,0,1.3,0.59,1.3,1.3v35.11C189.15,292.37,188.56,292.95,187.84,292.95z"/>
					<path class="st2" d="M169.42,292.95h-6.32c-0.72,0-1.3-0.59-1.3-1.3v-35.11c0-0.72,0.59-1.3,1.3-1.3h6.32
						c0.72,0,1.3,0.59,1.3,1.3v35.11C170.72,292.37,170.14,292.95,169.42,292.95z"/>
					<path class="st2" d="M150.99,292.95h-6.32c-0.72,0-1.3-0.59-1.3-1.3v-35.11c0-0.72,0.59-1.3,1.3-1.3h6.32
						c0.72,0,1.3,0.59,1.3,1.3v35.11C152.3,292.37,151.71,292.95,150.99,292.95z"/>
					<g>
						<path class="st12" d="M99.06,265.67c0-3.37,2.64-6.09,5.89-6.09c3.25,0,5.89,2.73,5.89,6.09c0,3.37-2.64,6.09-5.89,6.09
							C101.7,271.77,99.06,269.04,99.06,265.67z"/>
						<path class="st11" d="M127.67,282.51c0,3.37-2.64,6.09-5.89,6.09c-3.25,0-5.89-2.73-5.89-6.09s2.64-6.09,5.89-6.09
							C125.03,276.42,127.67,279.15,127.67,282.51z"/>
					</g>
					<g>
						<path class="st11" d="M115.89,265.67c0-3.37,2.64-6.09,5.89-6.09c3.25,0,5.89,2.73,5.89,6.09c0,3.37-2.64,6.09-5.89,6.09
							C118.53,271.77,115.89,269.04,115.89,265.67z"/>
						<path class="st11" d="M110.84,282.51c0,3.37-2.64,6.09-5.89,6.09c-3.25,0-5.89-2.73-5.89-6.09s2.64-6.09,5.89-6.09
							C108.21,276.42,110.84,279.15,110.84,282.51z"/>
					</g>
					<ellipse class="st12" cx="75.61" cy="274.09" rx="12.76" ry="13.2"/>
				</g>
				<g>
					<g class="st11">
						<rect x="52.71" y="307.74" width="161.83" height="52.8"/>
					</g>
					<path class="st2" d="M206.27,353h-6.32c-0.72,0-1.3-0.59-1.3-1.3v-35.11c0-0.72,0.59-1.3,1.3-1.3h6.32c0.72,0,1.3,0.59,1.3,1.3
						v35.11C207.57,352.41,206.98,353,206.27,353z"/>
					<path class="st11" d="M187.84,353h-6.32c-0.72,0-1.3-0.59-1.3-1.3v-35.11c0-0.72,0.59-1.3,1.3-1.3h6.32
						c0.72,0,1.3,0.59,1.3,1.3v35.11C189.15,352.41,188.56,353,187.84,353z"/>
					<path class="st2" d="M169.42,353h-6.32c-0.72,0-1.3-0.59-1.3-1.3v-35.11c0-0.72,0.59-1.3,1.3-1.3h6.32c0.72,0,1.3,0.59,1.3,1.3
						v35.11C170.72,352.41,170.14,353,169.42,353z"/>
					<path class="st2" d="M150.99,353h-6.32c-0.72,0-1.3-0.59-1.3-1.3v-35.11c0-0.72,0.59-1.3,1.3-1.3h6.32c0.72,0,1.3,0.59,1.3,1.3
						v35.11C152.3,352.41,151.71,353,150.99,353z"/>
					<g>
						<path class="st12" d="M99.06,325.72c0-3.37,2.64-6.09,5.89-6.09c3.25,0,5.89,2.73,5.89,6.09c0,3.37-2.64,6.09-5.89,6.09
							C101.7,331.81,99.06,329.09,99.06,325.72z"/>
						<ellipse class="st12" cx="121.78" cy="342.56" rx="5.89" ry="6.09"/>
					</g>
					<g>
						<path class="st11" d="M115.89,325.72c0-3.37,2.64-6.09,5.89-6.09c3.25,0,5.89,2.73,5.89,6.09c0,3.37-2.64,6.09-5.89,6.09
							C118.53,331.81,115.89,329.09,115.89,325.72z"/>
						<ellipse class="st11" cx="104.95" cy="342.56" rx="5.89" ry="6.09"/>
					</g>
					<ellipse class="st12" cx="75.61" cy="334.14" rx="12.76" ry="13.2"/>
				</g>
				<g>
					<g class="st11">
						<rect x="52.71" y="367.79" width="161.83" height="52.8"/>
					</g>
					<path class="st2" d="M206.27,413.05h-6.32c-0.72,0-1.3-0.59-1.3-1.3v-35.11c0-0.72,0.59-1.3,1.3-1.3h6.32
						c0.72,0,1.3,0.59,1.3,1.3v35.11C207.57,412.46,206.98,413.05,206.27,413.05z"/>
					<path class="st11" d="M187.84,413.05h-6.32c-0.72,0-1.3-0.59-1.3-1.3v-35.11c0-0.72,0.59-1.3,1.3-1.3h6.32
						c0.72,0,1.3,0.59,1.3,1.3v35.11C189.15,412.46,188.56,413.05,187.84,413.05z"/>
					<path class="st2" d="M169.42,413.05h-6.32c-0.72,0-1.3-0.59-1.3-1.3v-35.11c0-0.72,0.59-1.3,1.3-1.3h6.32
						c0.72,0,1.3,0.59,1.3,1.3v35.11C170.72,412.46,170.14,413.05,169.42,413.05z"/>
					<path class="st2" d="M150.99,413.05h-6.32c-0.72,0-1.3-0.59-1.3-1.3v-35.11c0-0.72,0.59-1.3,1.3-1.3h6.32
						c0.72,0,1.3,0.59,1.3,1.3v35.11C152.3,412.46,151.71,413.05,150.99,413.05z"/>
					<g>
						<path class="st12" d="M99.06,385.77c0-3.37,2.64-6.09,5.89-6.09c3.25,0,5.89,2.73,5.89,6.09s-2.64,6.09-5.89,6.09
							C101.7,391.86,99.06,389.13,99.06,385.77z"/>
						<ellipse class="st12" cx="121.78" cy="402.61" rx="5.89" ry="6.09"/>
					</g>
					<g>
						<path class="st11" d="M115.89,385.77c0-3.37,2.64-6.09,5.89-6.09c3.25,0,5.89,2.73,5.89,6.09s-2.64,6.09-5.89,6.09
							C118.53,391.86,115.89,389.13,115.89,385.77z"/>
						<ellipse class="st11" cx="104.95" cy="402.61" rx="5.89" ry="6.09"/>
					</g>
					<ellipse class="st11" cx="75.61" cy="394.19" rx="12.76" ry="13.2"/>
				</g>
				<g>
					<g class="st11">
						<rect x="52.71" y="427.83" width="161.83" height="52.8"/>
					</g>
					<path class="st2" d="M206.27,473.09h-6.32c-0.72,0-1.3-0.59-1.3-1.3v-35.11c0-0.72,0.59-1.3,1.3-1.3h6.32
						c0.72,0,1.3,0.59,1.3,1.3v35.11C207.57,472.51,206.98,473.09,206.27,473.09z"/>
					<path class="st11" d="M187.84,473.09h-6.32c-0.72,0-1.3-0.59-1.3-1.3v-35.11c0-0.72,0.59-1.3,1.3-1.3h6.32
						c0.72,0,1.3,0.59,1.3,1.3v35.11C189.15,472.51,188.56,473.09,187.84,473.09z"/>
					<path class="st2" d="M169.42,473.09h-6.32c-0.72,0-1.3-0.59-1.3-1.3v-35.11c0-0.72,0.59-1.3,1.3-1.3h6.32
						c0.72,0,1.3,0.59,1.3,1.3v35.11C170.72,472.51,170.14,473.09,169.42,473.09z"/>
					<path class="st2" d="M150.99,473.09h-6.32c-0.72,0-1.3-0.59-1.3-1.3v-35.11c0-0.72,0.59-1.3,1.3-1.3h6.32
						c0.72,0,1.3,0.59,1.3,1.3v35.11C152.3,472.51,151.71,473.09,150.99,473.09z"/>
					<g>
						<ellipse class="st12" cx="104.95" cy="445.81" rx="5.89" ry="6.09"/>
						<ellipse class="st12" cx="121.78" cy="462.66" rx="5.89" ry="6.09"/>
					</g>
					<g>
						<ellipse class="st12" cx="121.78" cy="445.81" rx="5.89" ry="6.09"/>
						<ellipse class="st11" cx="104.95" cy="462.66" rx="5.89" ry="6.09"/>
					</g>
					<ellipse class="st12" cx="75.61" cy="454.24" rx="12.76" ry="13.2"/>
				</g>
				<g>
					<g class="st11">
						<rect x="52.71" y="487.88" width="161.83" height="52.8"/>
					</g>
					<path class="st2" d="M206.27,533.14h-6.32c-0.72,0-1.3-0.59-1.3-1.3v-35.11c0-0.72,0.59-1.3,1.3-1.3h6.32
						c0.72,0,1.3,0.59,1.3,1.3v35.11C207.57,532.56,206.98,533.14,206.27,533.14z"/>
					<path class="st11" d="M187.84,533.14h-6.32c-0.72,0-1.3-0.59-1.3-1.3v-35.11c0-0.72,0.59-1.3,1.3-1.3h6.32
						c0.72,0,1.3,0.59,1.3,1.3v35.11C189.15,532.56,188.56,533.14,187.84,533.14z"/>
					<path class="st2" d="M169.42,533.14h-6.32c-0.72,0-1.3-0.59-1.3-1.3v-35.11c0-0.72,0.59-1.3,1.3-1.3h6.32
						c0.72,0,1.3,0.59,1.3,1.3v35.11C170.72,532.56,170.14,533.14,169.42,533.14z"/>
					<path class="st2" d="M150.99,533.14h-6.32c-0.72,0-1.3-0.59-1.3-1.3v-35.11c0-0.72,0.59-1.3,1.3-1.3h6.32
						c0.72,0,1.3,0.59,1.3,1.3v35.11C152.3,532.56,151.71,533.14,150.99,533.14z"/>
					<g>
						<ellipse class="st12" cx="104.95" cy="505.86" rx="5.89" ry="6.09"/>
						<ellipse class="st12" cx="121.78" cy="522.7" rx="5.89" ry="6.09"/>
					</g>
					<g>
						<ellipse class="st12" cx="121.78" cy="505.86" rx="5.89" ry="6.09"/>
						<ellipse class="st11" cx="104.95" cy="522.7" rx="5.89" ry="6.09"/>
					</g>
					<ellipse class="st12" cx="75.61" cy="514.28" rx="12.76" ry="13.2"/>
				</g>
			</g>
			<g>
				<polygon class="st2" points="51.87,128.37 176.8,128.37 194.37,202.43 69.44,202.43 				"/>
				<polygon class="st2" points="104.75,202.43 105.24,206.52 238.7,206.52 238.21,202.43 				"/>
				<g>
					<polygon class="st2" points="173.07,128.37 190.64,202.43 190.64,202.43 191.13,206.52 69.93,206.52 69.44,202.43 
						51.87,128.37 					"/>
					<polygon class="st13" points="173.07,128.37 190.64,202.43 190.64,202.43 191.13,206.52 69.93,206.52 69.44,202.43 
						51.87,128.37 					"/>
				</g>
			</g>
			<g>
				<path class="st14" d="M122.71,84.57l-0.78-0.42c-1-0.54-24.6-13.54-27.94-30.61c-3.22-16.48-2.49-32.49-2.46-33.17l0.07-1.53
					l1.48-0.12c0.18-0.01,17.77-1.43,29.12-5.18l0.51-0.17l0.51,0.17c11.35,3.75,28.94,5.16,29.12,5.18l1.48,0.12l0.07,1.53
					c0.03,0.67,0.76,16.69-2.46,33.17c-3.33,17.07-26.93,30.06-27.94,30.61L122.71,84.57z M94.84,22.06
					c-0.1,4.39-0.13,17.61,2.45,30.79c2.7,13.82,21.35,25.39,25.42,27.77c4.07-2.38,22.72-13.95,25.42-27.77
					c2.57-13.18,2.54-26.4,2.45-30.79c-4.51-0.42-18.03-1.89-27.87-5.03C112.87,20.18,99.35,21.64,94.84,22.06z"/>
				<path class="st2" d="M122.71,74.9c-7.04-4.45-18.9-13.68-20.73-23.03c-1.9-9.7-2.32-19.41-2.38-25.33
					c5.96-0.7,15.36-2.05,23.11-4.34c7.74,2.29,17.14,3.64,23.11,4.34c-0.06,5.93-0.49,15.66-2.38,25.33
					C141.62,61.22,129.75,70.45,122.71,74.9z"/>
			</g>
			<path class="st14" d="M3.36,547.93H0V141.36c0-20.82,16.37-37.75,36.48-37.75h74.98c5.27,0,9.57-4.44,9.57-9.9h3.36
				c0,7.38-5.8,13.38-12.93,13.38H36.48c-18.26,0-33.12,15.38-33.12,34.27V547.93z"/>
		</g>
	</g>
</g>
</svg>
