<svg width="216" height="186" viewBox="0 0 216 186" fill="none" xmlns="http://www.w3.org/2000/svg">
<g id="Group 1171276150">
<g id="Group 1171276044">
<path id="Vector" opacity="0.1" d="M92.9991 174.745C138.147 174.745 174.747 138.145 174.747 92.9971C174.747 47.8492 138.147 11.2495 92.9991 11.2495C47.8511 11.2495 11.2515 47.8492 11.2515 92.9971C11.2515 138.145 47.8511 174.745 92.9991 174.745Z" fill="#F3F3F3"/>
<path id="Vector_2" opacity="0.1" d="M92.9989 185.999C80.4452 185.999 68.2653 183.54 56.7987 178.69C45.7238 174.005 35.7783 167.3 27.2381 158.76C18.6978 150.219 11.9923 140.274 7.30812 129.199C2.45874 117.732 0 105.554 0 92.9989C0 80.444 2.45873 68.2653 7.30924 56.7987C11.9934 45.7238 18.6989 35.7783 27.2392 27.2381C35.7794 18.6978 45.7249 11.9923 56.7998 7.30812C68.2653 2.45874 80.4452 0 92.9989 0C105.553 0 117.732 2.45873 129.199 7.30924C140.274 11.9934 150.219 18.6989 158.76 27.2392C167.3 35.7794 174.005 45.7249 178.69 56.7998C183.539 68.2664 185.999 80.4452 185.999 93C185.999 105.555 183.54 117.734 178.69 129.2C174.005 140.275 167.3 150.221 158.76 158.761C150.219 167.301 140.274 174.007 129.199 178.691C117.732 183.54 105.554 186 92.9989 186V185.999ZM92.9989 2.81588C80.8235 2.81588 69.0131 5.19984 57.8958 9.90191C47.1568 14.4444 37.5116 20.9467 29.2291 29.2291C20.9467 37.5116 14.4433 47.1568 9.90191 57.8958C5.19984 69.0131 2.81588 80.8235 2.81588 92.9989C2.81588 105.174 5.19984 116.985 9.90191 128.102C14.4444 138.841 20.9467 148.486 29.2291 156.769C37.5116 165.051 47.1568 171.555 57.8958 176.096C69.0131 180.798 80.8235 183.182 92.9989 183.182C105.174 183.182 116.985 180.798 128.102 176.096C138.841 171.553 148.486 165.051 156.769 156.769C165.051 148.486 171.555 138.841 176.097 128.102C180.799 116.985 183.183 105.174 183.183 92.9989C183.183 80.8235 180.799 69.0131 176.097 57.8958C171.555 47.1568 165.052 37.5116 156.769 29.2291C148.485 20.9467 138.841 14.4433 128.102 9.90191C116.985 5.19984 105.174 2.81588 92.9989 2.81588Z" fill="#F3F3F3"/>
<path id="Vector_3" d="M152.684 34.3223H31.3878C27.8945 34.3223 25.063 37.0969 25.063 40.5177V117.892C25.063 119.254 26.1902 120.359 27.5798 120.359H156.491C157.882 120.359 159.008 119.254 159.008 117.892V40.5177C159.008 37.0969 156.176 34.3223 152.683 34.3223H152.684ZM154.11 114.549H29.9615V39.8536H154.11V114.548V114.549Z" fill="white"/>
<path id="Vector_4" opacity="0.5" d="M152.684 34.3223H106.056L101.931 39.8536H154.11V114.548H61.9484L57.6157 120.358H156.492C157.883 120.358 159.009 119.253 159.009 117.891V40.5177C159.009 37.0969 156.177 34.3223 152.684 34.3223Z" fill="#D9D9D9"/>
<path id="Vector_5" d="M154.11 39.855H29.9612V114.549H154.11V39.855Z" fill="#A1FF00"/>
<path id="Vector_6" d="M178.746 140.449C178.744 140.431 178.739 140.414 178.736 140.397C178.736 140.391 178.736 140.385 178.733 140.38C178.729 140.364 178.723 140.35 178.718 140.335C178.715 140.327 178.713 140.318 178.71 140.311C178.706 140.297 178.699 140.285 178.693 140.272C178.688 140.261 178.684 140.251 178.681 140.24C178.673 140.229 178.667 140.217 178.66 140.205C178.653 140.193 178.648 140.182 178.64 140.17C178.632 140.158 178.624 140.145 178.614 140.132C178.607 140.122 178.602 140.111 178.592 140.1C178.557 140.053 178.516 140.004 178.471 139.955C178.463 139.948 178.457 139.939 178.449 139.932L169.186 130.565H15.8342L6.57178 139.932C6.56397 139.939 6.55727 139.948 6.54946 139.955C6.51151 139.994 6.47915 140.033 6.44901 140.072C6.33182 140.222 6.27267 140.37 6.26709 140.506C6.26709 140.522 6.26709 140.537 6.26709 140.554V140.571V140.573V140.583C6.3028 141.336 6.56174 142.199 7.21353 142.873C7.86309 143.546 8.9044 144.033 10.4959 144.033H174.518C177.704 144.033 178.68 142.09 178.747 140.582C178.747 140.578 178.747 140.575 178.747 140.571V140.564C178.747 140.564 178.747 140.564 178.747 140.562V140.525C178.747 140.518 178.749 140.513 178.749 140.506C178.747 140.49 178.745 140.474 178.742 140.458C178.742 140.455 178.742 140.452 178.742 140.45L178.746 140.449Z" fill="#C9C9C9"/>
<path id="Vector_7" d="M178.471 139.946H6.55277C6.3675 140.139 6.27598 140.326 6.26929 140.498C6.26929 140.519 6.26929 140.541 6.2704 140.562C6.2704 140.566 6.2704 140.57 6.2704 140.575C6.33737 142.082 7.31394 144.026 10.4992 144.026H174.521C177.707 144.026 178.683 142.082 178.75 140.575C178.75 140.571 178.75 140.567 178.75 140.562C178.75 140.541 178.751 140.519 178.751 140.498C178.745 140.326 178.653 140.139 178.468 139.946H178.471Z" fill="#C8C8C7"/>
<path id="Vector_8" d="M109.424 140.911C109.424 140.919 109.424 140.927 109.424 140.935C109.414 141.734 109.047 142.377 108.595 142.377H76.4284C75.9786 142.377 75.6125 141.74 75.5991 140.946C75.5991 140.944 75.5991 140.942 75.5991 140.939C75.5991 140.928 75.5991 140.917 75.5991 140.906C75.6002 140.815 75.6181 140.717 75.6549 140.616H109.371C109.408 140.72 109.425 140.82 109.427 140.911H109.424Z" fill="#969696"/>
<path id="Vector_9" d="M178.754 140.509C178.754 140.523 178.754 140.539 178.754 140.553C178.714 141.136 177.68 141.55 175.998 141.55H9.02637C7.36452 141.55 6.33437 141.146 6.27187 140.575C6.27187 140.57 6.27187 140.566 6.27187 140.562C6.27187 140.541 6.27075 140.519 6.27075 140.498C6.27745 140.326 6.36897 140.139 6.55424 139.946C6.56093 139.939 6.56875 139.931 6.57544 139.924L25.6996 120.583C26.223 120.054 28.0087 119.631 29.6963 119.631H155.331C157.017 119.631 158.804 120.054 159.326 120.583L178.45 139.924C178.458 139.932 178.465 139.94 178.471 139.946C178.661 140.144 178.753 140.334 178.755 140.509H178.754Z" fill="white"/>
<path id="Vector_10" d="M33.9484 129.004L39.895 121.288C40.1282 120.986 41.0925 120.743 42.0512 120.743H142.973C143.931 120.743 144.895 120.986 145.129 121.288L151.076 129.004C151.367 129.382 150.727 129.693 149.642 129.693H35.3826C34.2978 129.693 33.6572 129.383 33.9484 129.004Z" fill="#C9C9C9"/>
<path id="Vector_11" d="M41.8563 121.8H46.5684C46.9222 121.799 47.2503 121.735 47.3005 121.656L47.5572 121.264C47.6074 121.187 47.3652 121.124 47.0148 121.124H42.3496C41.9991 121.125 41.6699 121.189 41.6118 121.266L41.3216 121.659C41.2636 121.737 41.5036 121.8 41.8563 121.8Z" fill="black"/>
<path id="Vector_12" d="M40.8581 123.168H45.664C46.0245 123.167 46.3604 123.1 46.4129 123.019L46.9207 122.24C46.9731 122.16 46.7265 122.096 46.3716 122.096H41.6394C41.2845 122.097 40.9485 122.162 40.8905 122.242L40.3146 123.021C40.2543 123.102 40.4976 123.168 40.8581 123.168Z" fill="black"/>
<path id="Vector_13" d="M47.9733 123.165H52.7781C53.1386 123.164 53.4667 123.097 53.5125 123.016L53.941 122.237C53.9846 122.158 53.7323 122.093 53.3774 122.093H48.6452C48.2903 122.094 47.9611 122.159 47.9108 122.238L47.4142 123.017C47.3617 123.098 47.6117 123.164 47.9722 123.164L47.9733 123.165Z" fill="black"/>
<path id="Vector_14" d="M55.0854 123.165H59.8902C60.2507 123.164 60.5721 123.097 60.6089 123.016L60.9594 122.237C60.9951 122.157 60.7362 122.093 60.3812 122.093H55.6502C55.2952 122.094 54.9727 122.159 54.9303 122.238L54.5129 123.017C54.4693 123.098 54.726 123.164 55.0865 123.164L55.0854 123.165Z" fill="black"/>
<path id="Vector_15" d="M62.1983 123.163H67.0031C67.3636 123.162 67.6783 123.095 67.7073 123.013L67.9786 122.235C68.0065 122.156 67.7408 122.091 67.3859 122.091H62.6548C62.2999 122.092 61.9841 122.157 61.9495 122.236L61.6102 123.015C61.5745 123.097 61.8379 123.163 62.1983 123.163Z" fill="black"/>
<path id="Vector_16" d="M68.9692 122.233L68.7091 123.011C68.6823 123.093 68.9524 123.158 69.3118 123.158H74.1154C74.4759 123.157 74.784 123.09 74.804 123.009L74.996 122.231C75.0161 122.152 74.7438 122.087 74.3889 122.087H69.6578C69.3029 122.088 68.9937 122.153 68.9669 122.232L68.9692 122.233Z" fill="black"/>
<path id="Vector_17" d="M81.3926 122.085H76.6615C76.3066 122.086 76.0042 122.15 75.9852 122.23L75.8044 123.008C75.7854 123.089 76.0622 123.155 76.4227 123.155H81.2263C81.5868 123.154 81.8882 123.087 81.9004 123.005L82.0132 122.227C82.0243 122.148 81.7464 122.083 81.3915 122.083L81.3926 122.085Z" fill="black"/>
<path id="Vector_18" d="M88.3958 122.082H83.6658C83.3109 122.083 83.0151 122.148 83.004 122.227L82.9024 123.005C82.8913 123.086 83.1747 123.152 83.5352 123.152H88.3389C88.6994 123.151 88.994 123.084 88.9974 123.002L89.032 122.225C89.0353 122.145 88.7507 122.081 88.3958 122.081V122.082Z" fill="black"/>
<path id="Vector_19" d="M95.3984 122.082H90.6684C90.3135 122.083 90.0245 122.148 90.0222 122.227L89.9988 123.005C89.9966 123.086 90.2867 123.152 90.6472 123.152H95.4509C95.8114 123.151 96.0993 123.084 96.0948 123.002L96.0502 122.225C96.0457 122.145 95.7544 122.081 95.3995 122.081L95.3984 122.082Z" fill="black"/>
<path id="Vector_20" d="M102.4 122.079H97.6696C97.3147 122.08 97.0323 122.145 97.0379 122.224L97.0937 123.002C97.0993 123.083 97.3962 123.149 97.7567 123.149H102.559C102.92 123.148 103.201 123.081 103.188 123L103.064 122.222C103.051 122.142 102.753 122.078 102.398 122.078L102.4 122.079Z" fill="black"/>
<path id="Vector_21" d="M104.867 123.149H109.67C110.03 123.148 110.305 123.081 110.283 123L110.081 122.222C110.06 122.142 109.757 122.078 109.402 122.078H104.673C104.318 122.079 104.041 122.143 104.056 122.223L104.191 123.001C104.205 123.082 104.509 123.148 104.868 123.148L104.867 123.149Z" fill="black"/>
<path id="Vector_22" d="M111.977 123.148H116.78C117.14 123.146 117.408 123.08 117.379 122.998L117.098 122.22C117.069 122.141 116.759 122.076 116.404 122.076H111.675C111.32 122.077 111.05 122.142 111.072 122.221L111.285 122.999C111.308 123.081 111.618 123.146 111.978 123.146L111.977 123.148Z" fill="black"/>
<path id="Vector_23" d="M119.086 123.145H123.889C124.249 123.144 124.51 123.077 124.472 122.995L124.112 122.217C124.075 122.138 123.758 122.073 123.403 122.073H118.674C118.319 122.074 118.056 122.139 118.086 122.218L118.379 122.996C118.409 123.078 118.726 123.144 119.086 123.144V123.145Z" fill="black"/>
<path id="Vector_24" d="M126.196 123.142H130.997C131.358 123.141 131.612 123.074 131.566 122.992L131.128 122.214C131.083 122.135 130.759 122.07 130.404 122.07H125.676C125.321 122.071 125.064 122.136 125.102 122.215L125.474 122.993C125.513 123.075 125.836 123.141 126.197 123.141L126.196 123.142Z" fill="black"/>
<path id="Vector_25" d="M55.8878 124.43L56.2986 123.62C56.341 123.537 56.0809 123.47 55.7193 123.47H50.8934C50.5317 123.471 50.198 123.539 50.1489 123.622L49.6679 124.432C49.6177 124.517 49.8744 124.586 50.2427 124.586H55.1445C55.5117 124.584 55.8454 124.516 55.8878 124.431V124.43Z" fill="black"/>
<path id="Vector_26" d="M57.4995 124.585H62.4013C62.7685 124.583 63.0955 124.515 63.129 124.43L63.4571 123.62C63.4906 123.537 63.2239 123.47 62.8622 123.47H58.0363C57.6747 123.471 57.3477 123.539 57.3075 123.622L56.909 124.432C56.8678 124.517 57.1311 124.586 57.4995 124.586V124.585Z" fill="black"/>
<path id="Vector_27" d="M64.7565 124.584H69.6584C70.0256 124.581 70.3448 124.513 70.3704 124.429L70.6171 123.618C70.6428 123.536 70.3693 123.469 70.0077 123.469H65.1818C64.8201 123.47 64.4998 123.538 64.4675 123.621L64.1505 124.431C64.117 124.516 64.3882 124.585 64.7565 124.585V124.584Z" fill="black"/>
<path id="Vector_28" d="M71.6258 123.618L71.3914 124.428C71.3668 124.513 71.6448 124.582 72.0131 124.582H76.9149C77.2821 124.58 77.5946 124.512 77.6113 124.427L77.7754 123.617C77.7922 123.534 77.512 123.467 77.1504 123.467H72.3256C71.964 123.468 71.6503 123.536 71.6269 123.619L71.6258 123.618Z" fill="black"/>
<path id="Vector_29" d="M78.7839 123.615L78.631 124.425C78.6154 124.51 78.9 124.579 79.2671 124.579H84.1679C84.5351 124.577 84.8409 124.509 84.8487 124.424L84.9302 123.614C84.9391 123.531 84.6523 123.464 84.2895 123.464H79.4647C79.1031 123.465 78.7973 123.534 78.7817 123.616L78.7839 123.615Z" fill="black"/>
<path id="Vector_30" d="M85.9428 123.614L85.8725 124.424C85.8647 124.509 86.1571 124.578 86.5243 124.578H91.425C91.7922 124.576 92.0902 124.508 92.0902 124.423V123.612C92.0902 123.53 91.7966 123.463 91.435 123.463H86.6102C86.2486 123.464 85.9495 123.532 85.9417 123.615L85.9428 123.614Z" fill="black"/>
<path id="Vector_31" d="M93.1007 123.61L93.1119 124.42C93.113 124.505 93.4121 124.574 93.7793 124.574H98.68C99.0472 124.572 99.3385 124.504 99.3296 124.419L99.247 123.609C99.2381 123.526 98.939 123.459 98.5762 123.459H93.7525C93.3909 123.461 93.0985 123.529 93.0996 123.611L93.1007 123.61Z" fill="black"/>
<path id="Vector_32" d="M100.257 123.609L100.351 124.419C100.361 124.504 100.667 124.573 101.034 124.573H105.933C106.301 124.571 106.585 124.503 106.567 124.418L106.403 123.608C106.386 123.525 106.08 123.458 105.718 123.458H100.894C100.533 123.459 100.247 123.527 100.256 123.61L100.257 123.609Z" fill="black"/>
<path id="Vector_33" d="M108.288 124.569H113.188C113.555 124.566 113.832 124.498 113.806 124.413L113.56 123.603C113.534 123.521 113.22 123.454 112.859 123.454H108.035C107.673 123.455 107.394 123.523 107.412 123.605L107.589 124.416C107.607 124.501 107.92 124.57 108.287 124.57L108.288 124.569Z" fill="black"/>
<path id="Vector_34" d="M115.543 124.567H120.442C120.81 124.565 121.08 124.497 121.045 124.412L120.717 123.603C120.683 123.521 120.363 123.454 120.002 123.454H115.178C114.816 123.455 114.544 123.523 114.571 123.605L114.828 124.415C114.855 124.499 115.176 124.569 115.543 124.569V124.567Z" fill="black"/>
<path id="Vector_35" d="M122.796 124.565H127.695C128.063 124.562 128.326 124.494 128.282 124.409L127.872 123.6C127.829 123.518 127.502 123.451 127.141 123.451H122.318C121.956 123.452 121.691 123.52 121.725 123.602L122.066 124.412C122.102 124.496 122.429 124.566 122.796 124.566V124.565Z" fill="black"/>
<path id="Vector_36" d="M130.049 124.561H134.947C135.314 124.559 135.571 124.491 135.519 124.406L135.026 123.597C134.976 123.514 134.642 123.447 134.281 123.447H129.458C129.097 123.448 128.838 123.516 128.881 123.599L129.303 124.408C129.348 124.493 129.681 124.562 130.049 124.562V124.561Z" fill="black"/>
<path id="Vector_37" d="M145.789 124.614L145.338 124.012L145.024 123.594C144.961 123.511 144.618 123.444 144.257 123.444L137.97 123.447C137.608 123.447 137.358 123.514 137.411 123.596L138.041 124.577C138.096 124.662 138.439 124.731 138.807 124.731H140.083C140.451 124.731 140.797 124.8 140.855 124.885L141.528 125.877C141.588 125.966 141.941 126.037 142.316 126.037H146.176C146.552 126.036 146.802 125.963 146.736 125.875L145.788 124.613L145.789 124.614Z" fill="black"/>
<path id="Vector_38" d="M50.8952 126.069H55.8986C56.2736 126.066 56.6129 125.995 56.6565 125.907L57.0661 125.063C57.1085 124.977 56.8428 124.907 56.4734 124.907H51.5492C51.1798 124.909 50.8405 124.978 50.7914 125.064L50.3082 125.908C50.2579 125.996 50.5202 126.069 50.8963 126.067L50.8952 126.069Z" fill="black"/>
<path id="Vector_39" d="M58.3033 126.067H63.3067C63.6817 126.065 64.0143 125.993 64.0478 125.905L64.3726 125.062C64.406 124.976 64.1326 124.905 63.7643 124.905H58.8401C58.4707 124.908 58.1381 124.977 58.0979 125.063L57.6995 125.906C57.6582 125.995 57.9283 126.067 58.3033 126.066V126.067Z" fill="black"/>
<path id="Vector_40" d="M65.7108 126.065H70.7142C71.0892 126.062 71.414 125.991 71.4396 125.903L71.6785 125.059C71.703 124.973 71.4229 124.903 71.0535 124.904H66.1293C65.7599 124.906 65.4351 124.975 65.4027 125.061L65.0902 125.905C65.0579 125.993 65.3346 126.066 65.7108 126.065Z" fill="black"/>
<path id="Vector_41" d="M78.8277 125.898L78.9806 125.054C78.9962 124.968 78.7094 124.898 78.3399 124.899H73.4169C73.0475 124.901 72.7294 124.97 72.7059 125.056L72.4794 125.9C72.4559 125.988 72.7405 126.061 73.1155 126.06H78.1178C78.4928 126.057 78.8109 125.986 78.8266 125.898H78.8277Z" fill="black"/>
<path id="Vector_42" d="M86.2177 125.896L86.2858 125.053C86.2925 124.967 85.999 124.896 85.6295 124.897H80.7065C80.3371 124.9 80.0257 124.969 80.0112 125.055L79.8694 125.899C79.8549 125.987 80.1473 126.059 80.5223 126.058H85.5246C85.8996 126.056 86.2099 125.985 86.2166 125.896H86.2177Z" fill="black"/>
<path id="Vector_43" d="M93.6075 125.893L93.5896 125.05C93.5874 124.964 93.2872 124.893 92.9178 124.895H87.9947C87.6253 124.897 87.3217 124.966 87.3161 125.052L87.2603 125.896C87.2548 125.984 87.5539 126.055 87.9289 126.055H92.9312C93.3062 126.053 93.6086 125.982 93.6075 125.893Z" fill="black"/>
<path id="Vector_44" d="M100.995 125.892L100.893 125.048C100.883 124.962 100.575 124.892 100.205 124.893H95.2833C94.9139 124.895 94.617 124.964 94.6204 125.05L94.6505 125.894C94.6539 125.982 94.9608 126.054 95.3358 126.054H100.338C100.713 126.052 101.009 125.98 100.998 125.892H100.995Z" fill="black"/>
<path id="Vector_45" d="M108.383 125.891L108.195 125.047C108.176 124.961 107.861 124.89 107.491 124.892H102.57C102.2 124.894 101.911 124.963 101.922 125.049L102.037 125.893C102.049 125.981 102.363 126.052 102.738 126.052H107.739C108.114 126.05 108.402 125.979 108.383 125.891Z" fill="black"/>
<path id="Vector_46" d="M110.143 126.048H115.144C115.519 126.046 115.801 125.974 115.772 125.886L115.497 125.042C115.469 124.956 115.147 124.886 114.778 124.887H109.856C109.487 124.889 109.205 124.959 109.225 125.045L109.426 125.888C109.447 125.977 109.768 126.048 110.143 126.048Z" fill="black"/>
<path id="Vector_47" d="M117.547 126.046H122.548C122.923 126.044 123.196 125.973 123.159 125.885L122.799 125.041C122.762 124.955 122.433 124.885 122.065 124.886H117.143C116.773 124.888 116.498 124.957 116.527 125.043L116.812 125.887C116.843 125.975 117.171 126.046 117.546 126.046H117.547Z" fill="black"/>
<path id="Vector_48" d="M124.949 126.043H129.949C130.324 126.041 130.591 125.97 130.544 125.882L130.099 125.039C130.053 124.953 129.717 124.883 129.347 124.884H124.427C124.057 124.886 123.789 124.955 123.827 125.041L124.199 125.885C124.238 125.973 124.574 126.045 124.949 126.045V126.043Z" fill="black"/>
<path id="Vector_49" d="M132.353 126.04H137.353C137.728 126.038 137.987 125.967 137.931 125.879L137.401 125.036C137.346 124.95 137.003 124.88 136.634 124.881H131.713C131.344 124.883 131.083 124.952 131.129 125.038L131.587 125.881C131.635 125.969 131.978 126.04 132.353 126.04Z" fill="black"/>
<path id="Vector_50" d="M52.6202 127.445L53.0867 126.566C53.1347 126.476 52.8668 126.404 52.4896 126.404H47.4628C47.0855 126.406 46.7351 126.479 46.6793 126.568L46.1369 127.447C46.0799 127.54 46.3445 127.615 46.7273 127.615L51.8367 127.613C52.2195 127.613 52.57 127.538 52.6191 127.445H52.6202Z" fill="black"/>
<path id="Vector_51" d="M60.167 127.442L60.5443 126.563C60.5833 126.473 60.3088 126.401 59.9315 126.401H54.9047C54.5275 126.403 54.1848 126.476 54.138 126.565L53.6837 127.444C53.6357 127.537 53.908 127.612 54.292 127.612L59.4014 127.61C59.7842 127.61 60.128 127.535 60.167 127.442Z" fill="black"/>
<path id="Vector_52" d="M67.3724 126.399H62.3467C61.9695 126.402 61.6335 126.474 61.5967 126.563L61.2317 127.443C61.1938 127.536 61.4728 127.61 61.8567 127.61L66.9662 127.608C67.349 127.608 67.6849 127.533 67.7151 127.441L68.003 126.561C68.032 126.472 67.7508 126.399 67.3735 126.399H67.3724Z" fill="black"/>
<path id="Vector_53" d="M69.4192 127.604L74.5275 127.602C74.9103 127.602 75.2384 127.527 75.2596 127.434L75.4583 126.555C75.4784 126.466 75.1893 126.393 74.8121 126.393H69.7864C69.4091 126.395 69.081 126.468 69.0531 126.557L68.7774 127.437C68.7484 127.529 69.0352 127.604 69.4192 127.604Z" fill="black"/>
<path id="Vector_54" d="M76.9821 127.603L82.0904 127.6C82.4733 127.6 82.7936 127.526 82.8047 127.433L82.9141 126.553C82.9253 126.464 82.6284 126.392 82.2523 126.392H77.2265C76.8493 126.394 76.529 126.466 76.51 126.556L76.3236 127.435C76.3046 127.528 76.5993 127.603 76.9821 127.603Z" fill="black"/>
<path id="Vector_55" d="M84.5444 127.601L89.6527 127.599C90.0355 127.599 90.348 127.524 90.3502 127.431L90.3703 126.552C90.3726 126.463 90.069 126.39 89.6918 126.39H84.6671C84.2899 126.392 83.9763 126.465 83.9662 126.554L83.8691 127.434C83.8591 127.526 84.1616 127.601 84.5444 127.601Z" fill="black"/>
<path id="Vector_56" d="M92.1057 127.598L97.2129 127.596C97.5957 127.596 97.9004 127.521 97.8937 127.429L97.8245 126.549C97.8178 126.46 97.5064 126.387 97.1292 126.387H92.1046C91.7273 126.389 91.4215 126.462 91.4204 126.551L91.4126 127.431C91.4126 127.523 91.7218 127.598 92.1046 127.597L92.1057 127.598Z" fill="black"/>
<path id="Vector_57" d="M99.6673 127.595L104.774 127.593C105.157 127.593 105.454 127.518 105.439 127.425L105.281 126.546C105.266 126.456 104.946 126.384 104.569 126.384H99.5445C99.1673 126.386 98.8693 126.459 98.8771 126.548L98.9586 127.427C98.9675 127.52 99.2845 127.595 99.6673 127.594V127.595Z" fill="black"/>
<path id="Vector_58" d="M112.007 126.383H106.982C106.605 126.386 106.313 126.458 106.331 126.548L106.502 127.427C106.52 127.52 106.845 127.594 107.229 127.593L112.336 127.591C112.719 127.591 113.009 127.516 112.982 127.424L112.735 126.544C112.71 126.455 112.384 126.382 112.008 126.382L112.007 126.383Z" fill="black"/>
<path id="Vector_59" d="M119.444 126.379H114.421C114.044 126.381 113.76 126.454 113.787 126.543L114.046 127.423C114.073 127.515 114.405 127.59 114.789 127.589L119.895 127.587C120.278 127.587 120.56 127.512 120.525 127.419L120.189 126.54C120.154 126.45 119.822 126.378 119.444 126.378V126.379Z" fill="black"/>
<path id="Vector_60" d="M126.882 126.378H121.858C121.481 126.38 121.204 126.452 121.24 126.542L121.588 127.421C121.625 127.514 121.965 127.589 122.348 127.587L127.454 127.585C127.837 127.585 128.112 127.51 128.067 127.418L127.642 126.538C127.598 126.449 127.258 126.376 126.881 126.376L126.882 126.378Z" fill="black"/>
<path id="Vector_61" d="M134.318 126.376H129.295C128.918 126.378 128.649 126.451 128.693 126.54L129.131 127.419C129.177 127.511 129.525 127.586 129.908 127.585L135.014 127.583C135.397 127.583 135.663 127.508 135.61 127.415L135.095 126.537C135.043 126.448 134.695 126.375 134.318 126.375V126.376Z" fill="black"/>
<path id="Vector_62" d="M137.371 127.584L147.321 127.581C147.703 127.581 147.958 127.506 147.889 127.414L147.229 126.535C147.162 126.446 146.802 126.374 146.425 126.374L136.636 126.377C136.259 126.377 135.998 126.449 136.051 126.54L136.577 127.418C136.632 127.511 136.988 127.586 137.371 127.584Z" fill="black"/>
<path id="Vector_63" d="M50.2849 127.963L45.1509 127.965C44.7659 127.965 44.4054 128.041 44.3462 128.134L43.7636 129.052C43.7023 129.148 43.9701 129.226 44.3619 129.226L49.5818 129.224C49.9735 129.224 50.334 129.146 50.3865 129.048L50.8898 128.131C50.9412 128.037 50.6711 127.961 50.286 127.961L50.2849 127.963Z" fill="black"/>
<path id="Vector_64" d="M57.8842 127.958L52.7514 127.96C52.3663 127.96 52.0136 128.036 51.9634 128.13L51.4734 129.047C51.4221 129.143 51.6978 129.221 52.0895 129.221L57.3094 129.219C57.7012 129.219 58.0539 129.141 58.0963 129.045L58.5059 128.128C58.5483 128.034 58.2693 127.958 57.8842 127.958Z" fill="black"/>
<path id="Vector_65" d="M66.3602 127.955L60.3501 127.957C59.9651 127.957 59.6202 128.033 59.58 128.127L59.1827 129.044C59.1414 129.14 59.4249 129.218 59.8166 129.218L65.9272 129.216C66.319 129.216 66.6627 129.138 66.694 129.042L66.9998 128.125C67.031 128.031 66.7442 127.955 66.3591 127.955H66.3602Z" fill="black"/>
<path id="Vector_66" d="M112.43 127.94L69.2149 127.954C68.8298 127.954 68.4939 128.03 68.4649 128.124L68.1769 129.041C68.1468 129.137 68.4392 129.215 68.831 129.215L112.772 129.2C113.164 129.2 113.459 129.122 113.432 129.026L113.174 128.108C113.147 128.014 112.815 127.938 112.43 127.938V127.94Z" fill="black"/>
<path id="Vector_67" d="M120.026 127.937L114.896 127.939C114.511 127.939 114.222 128.015 114.248 128.109L114.52 129.026C114.547 129.122 114.888 129.2 115.28 129.2L120.496 129.198C120.888 129.198 121.175 129.12 121.138 129.024L120.787 128.107C120.752 128.013 120.41 127.937 120.026 127.937Z" fill="black"/>
<path id="Vector_68" d="M127.62 127.934L122.491 127.936C122.106 127.936 121.824 128.012 121.861 128.106L122.225 129.023C122.263 129.119 122.611 129.197 123.003 129.197L128.219 129.195C128.611 129.195 128.89 129.117 128.843 129.021L128.4 128.104C128.355 128.01 128.006 127.934 127.621 127.934H127.62Z" fill="black"/>
<path id="Vector_69" d="M144.57 122.989L143.986 122.211C143.927 122.132 143.591 122.067 143.236 122.067L132.676 122.07C132.321 122.07 132.071 122.135 132.117 122.214L132.567 122.992C132.613 123.074 132.944 123.139 133.304 123.139L144.029 123.136C144.389 123.136 144.631 123.07 144.57 122.988V122.989Z" fill="black"/>
<path id="Vector_70" d="M39.8198 124.591L47.4215 124.588C47.7898 124.588 48.1302 124.519 48.1816 124.434L48.6793 123.624C48.7307 123.542 48.4784 123.475 48.1157 123.475L40.6324 123.477C40.2707 123.477 39.927 123.544 39.8656 123.626L39.2663 124.437C39.2038 124.521 39.4504 124.591 39.8187 124.591H39.8198Z" fill="black"/>
<path id="Vector_71" d="M38.7384 126.074L48.4918 126.07C48.8669 126.07 49.214 125.998 49.2653 125.91L49.7608 125.066C49.8111 124.98 49.5532 124.91 49.1838 124.91L39.5855 124.913C39.2161 124.913 38.8645 124.983 38.8009 125.069L38.177 125.913C38.1111 126.001 38.3623 126.074 38.7384 126.073V126.074Z" fill="black"/>
<path id="Vector_72" d="M45.0721 127.448L45.6279 126.569C45.6848 126.479 45.4248 126.406 45.0476 126.407L38.4939 126.409C38.1167 126.409 37.7573 126.482 37.6914 126.572L37.0408 127.451C36.9727 127.544 37.2283 127.619 37.6111 127.619L44.273 127.617C44.6558 127.617 45.0141 127.542 45.0721 127.449V127.448Z" fill="black"/>
<path id="Vector_73" d="M42.4902 127.964L37.3562 127.966C36.9712 127.966 36.6028 128.042 36.5336 128.136L35.8551 129.053C35.7836 129.149 36.0437 129.227 36.4354 129.227L41.6554 129.225C42.0471 129.225 42.4154 129.147 42.4779 129.05L43.0761 128.133C43.1375 128.039 42.8741 127.963 42.4891 127.963L42.4902 127.964Z" fill="black"/>
<path id="Vector_74" d="M49.2792 121.8H53.9902C54.344 121.799 54.6644 121.735 54.7079 121.656L54.9222 121.264C54.9646 121.187 54.7146 121.124 54.3652 121.124H49.7C49.3496 121.125 49.027 121.189 48.9779 121.266L48.7301 121.659C48.681 121.737 48.9266 121.8 49.2804 121.8H49.2792Z" fill="black"/>
<path id="Vector_75" d="M56.7007 121.799H61.4117C61.7655 121.798 62.0792 121.733 62.1138 121.655L62.2856 121.262C62.3191 121.185 62.0635 121.123 61.7131 121.123H57.0478C56.6974 121.124 56.3815 121.187 56.3414 121.264L56.136 121.657C56.0947 121.735 56.3481 121.799 56.7019 121.799H56.7007Z" fill="black"/>
<path id="Vector_76" d="M64.1218 121.796H68.8328C69.1866 121.795 69.4935 121.73 69.5191 121.652L69.6486 121.259C69.6743 121.182 69.4109 121.12 69.0616 121.12H64.3974C64.047 121.121 63.7378 121.184 63.7055 121.261L63.5425 121.654C63.5102 121.732 63.7702 121.796 64.1229 121.796H64.1218Z" fill="black"/>
<path id="Vector_77" d="M71.5431 121.793H76.253C76.6068 121.791 76.907 121.727 76.9238 121.649L77.0108 121.256C77.0276 121.179 76.7586 121.116 76.4081 121.116H71.744C71.3947 121.117 71.0911 121.181 71.0677 121.258L70.9471 121.651C70.9226 121.729 71.1893 121.793 71.5431 121.793Z" fill="black"/>
<path id="Vector_78" d="M78.9632 121.79H83.6731C84.0269 121.789 84.3204 121.724 84.3293 121.646L84.374 121.253C84.3829 121.176 84.1061 121.113 83.7568 121.113H79.0926C78.7433 121.114 78.4464 121.178 78.4308 121.255L78.3527 121.648C78.3371 121.726 78.6105 121.79 78.9643 121.79H78.9632Z" fill="black"/>
<path id="Vector_79" d="M86.3838 121.787H91.0937C91.4475 121.786 91.7332 121.721 91.7343 121.643L91.7366 121.25C91.7366 121.173 91.4542 121.11 91.1037 121.11H86.4396C86.0903 121.111 85.8001 121.175 85.7934 121.252L85.7577 121.645C85.751 121.723 86.0311 121.787 86.3838 121.787Z" fill="black"/>
<path id="Vector_80" d="M93.8021 121.785H98.512C98.8658 121.784 99.1448 121.719 99.137 121.641L99.0968 121.248C99.089 121.171 98.7988 121.109 98.4495 121.109H93.7865C93.4372 121.11 93.1537 121.174 93.1548 121.251L93.1615 121.643C93.1626 121.722 93.4506 121.785 93.8032 121.785H93.8021Z" fill="black"/>
<path id="Vector_81" d="M101.223 121.784H105.931C106.285 121.783 106.558 121.718 106.541 121.64L106.458 121.247C106.441 121.17 106.146 121.107 105.795 121.107H101.132C100.783 121.109 100.506 121.171 100.516 121.249L100.564 121.642C100.574 121.72 100.868 121.784 101.222 121.784H101.223Z" fill="black"/>
<path id="Vector_82" d="M108.64 121.782H113.349C113.701 121.781 113.968 121.716 113.943 121.638L113.818 121.245C113.794 121.168 113.49 121.106 113.141 121.106H108.478C108.129 121.107 107.86 121.17 107.878 121.248L107.968 121.641C107.986 121.719 108.287 121.782 108.641 121.782H108.64Z" fill="black"/>
<path id="Vector_83" d="M116.059 121.781H120.767C121.12 121.78 121.38 121.715 121.347 121.637L121.179 121.244C121.146 121.167 120.837 121.104 120.486 121.104H115.824C115.475 121.106 115.213 121.169 115.238 121.246L115.371 121.639C115.398 121.717 115.706 121.781 116.059 121.781Z" fill="black"/>
<path id="Vector_84" d="M123.476 121.778H128.185C128.537 121.777 128.79 121.712 128.748 121.634L128.538 121.241C128.497 121.164 128.18 121.102 127.831 121.102H123.169C122.82 121.103 122.564 121.165 122.599 121.243L122.774 121.636C122.808 121.714 123.123 121.778 123.477 121.778H123.476Z" fill="black"/>
<path id="Vector_85" d="M130.892 121.774H135.6C135.952 121.773 136.198 121.709 136.148 121.631L135.896 121.238C135.846 121.161 135.523 121.098 135.172 121.098H130.51C130.161 121.099 129.912 121.162 129.955 121.24L130.172 121.633C130.216 121.711 130.537 121.774 130.891 121.774H130.892Z" fill="black"/>
<path id="Vector_86" d="M142.009 128.638H137.618C137.229 128.639 136.96 128.717 137.017 128.812L137.14 129.018C137.197 129.114 137.561 129.192 137.951 129.192H142.375C142.767 129.191 143.032 129.112 142.967 129.016L142.829 128.81C142.765 128.715 142.398 128.637 142.009 128.638Z" fill="black"/>
<path id="Vector_87" d="M141.489 127.849H137.143C136.759 127.85 136.492 127.926 136.547 128.02L136.667 128.222C136.722 128.316 137.082 128.393 137.469 128.393H141.846C142.234 128.392 142.496 128.315 142.433 128.221L142.298 128.019C142.236 127.925 141.873 127.85 141.489 127.85V127.849Z" fill="black"/>
<path id="Vector_88" d="M148.2 128.636H143.808C143.42 128.637 143.158 128.715 143.221 128.81L143.361 129.017C143.426 129.113 143.796 129.191 144.187 129.191H148.61C149.002 129.19 149.259 129.111 149.187 129.015L149.032 128.808C148.96 128.713 148.588 128.635 148.199 128.636H148.2Z" fill="black"/>
<path id="Vector_89" d="M135.622 128.641H131.23C130.842 128.642 130.566 128.72 130.614 128.815L130.719 129.022C130.768 129.118 131.125 129.196 131.516 129.196H135.94C136.332 129.195 136.603 129.115 136.546 129.019L136.426 128.813C136.37 128.718 136.009 128.64 135.621 128.641H135.622Z" fill="black"/>
<path id="Vector_90" d="M138.309 121.772H143.017C143.369 121.77 143.608 121.706 143.549 121.628L143.255 121.235C143.197 121.158 142.866 121.095 142.517 121.095H137.855C137.506 121.096 137.263 121.159 137.315 121.237L137.575 121.63C137.627 121.708 137.955 121.772 138.308 121.772H138.309Z" fill="black"/>
<path id="Vector_91" d="M163.214 129.693H154.114C153.767 129.693 153.407 129.593 153.31 129.472L146.508 120.917C146.432 120.821 146.618 120.743 146.924 120.743H154.963C155.269 120.743 155.59 120.821 155.68 120.917L163.638 129.472C163.752 129.593 163.564 129.693 163.217 129.693H163.214Z" fill="#C8C8C7"/>
<path id="Vector_92" d="M30.9096 129.693H21.8091C21.4619 129.693 21.2733 129.593 21.3872 129.472L29.346 120.917C29.4353 120.821 29.7556 120.743 30.0625 120.743H38.1017C38.4075 120.743 38.595 120.821 38.518 120.917L31.7154 129.472C31.6183 129.593 31.2578 129.693 30.9118 129.693H30.9096Z" fill="#C8C8C7"/>
<path id="Vector_93" d="M128.762 140.604H48.7112L53.7548 130.52H124.588L128.762 140.604Z" fill="#C8C8C7"/>
<path id="Vector_94" d="M143.459 119.982H41.5642L42.0921 119.288H142.932L143.459 119.982Z" fill="#343433"/>
<path id="Vector_95" d="M85.0017 64.7839C85.0017 60.9077 88.1524 57.7548 92.0275 57.7492C95.9014 57.7436 99.0722 60.9647 99.0722 64.8386V68.9514C99.0722 70.3554 100.211 71.4949 101.616 71.4949C103.02 71.4949 104.159 70.3565 104.159 68.9514V64.7828C104.159 58.0885 98.7329 52.6621 92.0387 52.6621C85.3444 52.6621 79.918 58.0885 79.918 64.7828V68.9514C79.918 70.3554 81.0564 71.4949 82.4615 71.4949C83.8656 71.4949 85.0051 70.3565 85.0051 68.9514V64.7828L85.0017 64.7839Z" fill="#F3F3F3"/>
<path id="Vector_96" d="M109.047 78.7321C109.047 78.7321 109.047 78.7299 109.047 78.7288V78.5491C109.047 75.6205 106.673 73.2466 103.744 73.2466H80.3289C77.4003 73.2466 75.0264 75.6205 75.0264 78.5491V88.6954C75.0264 95.902 80.8691 101.744 88.0756 101.744H88.5154C88.5154 101.744 88.5232 101.744 88.5277 101.744H95.5478C95.5478 101.744 95.5568 101.744 95.5601 101.744H95.9987C103.205 101.744 109.048 95.902 109.048 88.6954V88.2512C109.048 88.2512 109.048 88.2456 109.048 88.2434V78.7321H109.047ZM92.0366 80.4386C92.1014 80.4386 92.165 80.4398 92.2275 80.4431C92.175 80.4464 92.1237 80.4498 92.0723 80.4543C94.0556 80.6139 95.617 82.2712 95.617 84.2958C95.617 85.5079 95.0579 86.5883 94.184 87.2959C94.1014 87.3628 94.0154 87.4264 93.9273 87.4867L93.944 87.6497L94.6204 94.4098H89.3178L90.002 87.5726L90.0109 87.4856C89.9663 87.4555 89.9228 87.4242 89.8803 87.3918C88.9339 86.6898 88.3201 85.5637 88.3201 84.2947C88.3201 82.2701 89.8815 80.6127 91.8647 80.4531C91.8346 80.4509 91.8034 80.4487 91.7732 80.4464C91.8603 80.4409 91.9485 80.4375 92.0377 80.4375L92.0366 80.4386Z" fill="#F3F3F3"/>
<path id="Vector_97" d="M35.2551 22.1486V13.2055C35.2551 12.7925 35.2596 12.3784 35.2551 11.9655C35.2551 11.9599 35.2551 11.9532 35.2551 11.9476C35.2551 11.5079 35.0631 11.0447 34.7529 10.7344C34.4549 10.4365 33.9671 10.2121 33.5397 10.2322C33.0955 10.2523 32.6356 10.3974 32.3265 10.7344C32.0184 11.0704 31.8242 11.4833 31.8242 11.9476V20.8908C31.8242 21.3038 31.8198 21.7178 31.8242 22.1308C31.8242 22.1364 31.8242 22.1431 31.8242 22.1486C31.8242 22.5884 32.0162 23.0516 32.3265 23.3618C32.6368 23.6721 33.1122 23.8842 33.5397 23.8641C33.9839 23.844 34.4437 23.6989 34.7529 23.3618C35.0609 23.0259 35.2551 22.6129 35.2551 22.1486Z" fill="#A1FF00"/>
<path id="Vector_98" d="M24.6408 24.0659C24.4723 23.7735 24.3038 23.4811 24.1353 23.1898C23.7279 22.4844 23.3205 21.778 22.9131 21.0726C22.4221 20.2221 21.9321 19.3728 21.441 18.5223C21.0169 17.7868 20.5928 17.0525 20.1676 16.317C19.9611 15.9587 19.758 15.5982 19.547 15.2422C19.5437 15.2366 19.5414 15.2321 19.5381 15.2265C19.3227 14.8538 18.9265 14.5513 18.5124 14.4375C18.1017 14.3248 17.5548 14.375 17.1899 14.6105C16.8238 14.8471 16.5012 15.1986 16.4008 15.6362C16.2981 16.0882 16.3383 16.5502 16.5738 16.9587C16.7423 17.2511 16.9108 17.5435 17.0794 17.8348C17.4867 18.5402 17.8941 19.2467 18.3015 19.9521C18.7926 20.8025 19.2825 21.6518 19.7736 22.5023C20.1977 23.2378 20.6218 23.9722 21.047 24.7077C21.2535 25.066 21.4567 25.4264 21.6676 25.7825C21.6709 25.7881 21.6732 25.7925 21.6765 25.7981C21.8919 26.1709 22.2881 26.4733 22.7022 26.5872C23.1129 26.6999 23.6598 26.6497 24.0248 26.4142C24.3908 26.1776 24.7134 25.826 24.8138 25.3885C24.9165 24.9365 24.8763 24.4744 24.6408 24.0659Z" fill="#A1FF00"/>
<path id="Vector_99" d="M16.4256 31.0494C16.1332 30.8809 15.8419 30.7124 15.5495 30.5438C14.8441 30.1365 14.1376 29.7291 13.4322 29.3217C12.5818 28.8306 11.7324 28.3407 10.882 27.8496C10.1465 27.4255 9.4121 27.0014 8.6766 26.5761C8.31833 26.3697 7.9623 26.1587 7.60181 25.9556C7.59623 25.9523 7.59176 25.95 7.58618 25.9467C7.1989 25.7235 6.69555 25.6543 6.26362 25.7737C5.86518 25.8831 5.43437 26.1911 5.23794 26.5627C5.027 26.9612 4.92209 27.4433 5.06495 27.8853C5.20223 28.3094 5.46004 28.6833 5.85402 28.911L6.73015 29.4166C7.43551 29.8239 8.14199 30.2313 8.84736 30.6387C9.69782 31.1298 10.5472 31.6197 11.3976 32.1108C12.1331 32.5349 12.8675 32.959 13.603 33.3843C13.9613 33.5907 14.3173 33.8017 14.6778 34.0048C14.6834 34.0082 14.6878 34.0104 14.6934 34.0137C15.0807 34.2369 15.584 34.3061 16.016 34.1867C16.4144 34.0773 16.8452 33.7693 17.0417 33.3977C17.2526 32.9992 17.3575 32.5171 17.2146 32.0751C17.0774 31.651 16.8196 31.2771 16.4256 31.0494Z" fill="#A1FF00"/>
<path id="Vector_100" d="M12.7781 41.1949H3.83492C3.42197 41.1949 3.0079 41.1904 2.59495 41.1949C2.58937 41.1949 2.58267 41.1949 2.57709 41.1949C2.13735 41.1949 1.67418 41.3868 1.3639 41.6971C1.05363 42.0074 0.841577 42.4828 0.861667 42.9103C0.881756 43.3545 1.02685 43.8143 1.3639 44.1235C1.69985 44.4315 2.1128 44.6257 2.57709 44.6257H11.5203C11.9332 44.6257 12.3473 44.6302 12.7602 44.6257C12.7658 44.6257 12.7725 44.6257 12.7781 44.6257C13.2178 44.6257 13.681 44.4337 13.9913 44.1235C14.2893 43.8255 14.5136 43.3377 14.4935 42.9103C14.4734 42.4661 14.3283 42.0062 13.9913 41.6971C13.6553 41.3891 13.2424 41.1949 12.7781 41.1949Z" fill="#A1FF00"/>
</g>
<g id="Rectangle 4968" style="mix-blend-mode:multiply">
<rect x="125.705" y="11.2314" width="85.8116" height="91.6522" rx="20" fill="#C9C9C9"/>
</g>
<rect id="Rectangle 4969" x="130.156" y="6.79199" width="85.6854" height="91.4326" rx="20" fill="white"/>
<g id="Group 1171276045">
<path id="Vector_101" d="M183.788 32.0395C183.034 30.8484 182.093 29.8243 181.014 28.9671C178.821 27.221 175.293 25.9894 172.917 27.194C170.541 25.9894 167.018 27.221 164.82 28.9671C163.741 29.8243 162.8 30.8484 162.046 32.0395C160.593 34.3405 159.684 37.061 159.633 39.777C159.606 41.1982 162.43 47.7086 163.019 48.3131C164.084 49.405 165.61 50.9344 167.159 51.2412C167.182 51.2412 167.201 51.2502 167.223 51.2547C169.705 49.1929 170.719 48.3492 172.913 46.5265C175.106 48.3492 176.12 49.1929 178.602 51.2547C178.625 51.2547 178.643 51.2457 178.666 51.2412C180.215 50.9389 181.741 49.405 182.806 48.3131C183.395 47.7086 186.219 41.1982 186.192 39.777C186.142 37.0565 185.237 34.3405 183.779 32.0395H183.788Z" fill="url(#paint0_linear_7112_8462)"/>
<g id="Group">
<path id="Vector_102" d="M178.648 54.4405L173.256 52.1802L167.864 54.4405C167.864 54.4405 168.527 62.5345 165.872 64.4294C165.872 64.4294 167.791 70.4795 173.256 70.4795C178.721 70.4795 180.641 64.4294 180.641 64.4294C177.981 62.5345 178.648 54.4405 178.648 54.4405Z" fill="#FFC3B1"/>
<path id="Vector_103" d="M170.898 63.9015C173.517 62.0066 176.423 60.9012 178.644 58.6003C178.493 56.3896 178.653 54.4405 178.653 54.4405L173.261 52.1802L167.869 54.4405C167.869 54.4405 168.531 62.5345 165.876 64.4294C165.876 64.4294 166.717 66.2611 168.851 67.5154C168.856 66.207 169.363 65.0159 170.898 63.906V63.9015Z" fill="#F09982"/>
</g>
<g id="Group_2">
<path id="Vector_104" d="M164.039 45.8908C164.039 45.8908 162.896 44.8171 162.183 45.3539C161.941 45.5344 161.557 46.0984 161.873 46.8789C162.777 49.1392 163.015 50.8221 163.865 51.1695C164.541 51.4447 165.506 50.5514 165.506 50.5514L164.039 45.8908Z" fill="#FFC3B1"/>
<path id="Vector_105" d="M164.624 49.5401C164.496 46.2466 162.512 46.2466 162.512 46.2466C163.015 46.9008 163.138 47.37 163.257 48.0783C163.294 48.3039 163.399 48.9852 163.367 49.2514C163.202 50.7041 164.669 50.7989 164.624 49.5401Z" fill="#F09982"/>
</g>
<g id="Group_3">
<path id="Vector_106" d="M182.481 45.8908C182.481 45.8908 183.623 44.8171 184.336 45.3539C184.578 45.5344 184.962 46.0984 184.647 46.8789C183.742 49.1392 183.504 50.8221 182.654 51.1695C181.978 51.4447 181.014 50.5514 181.014 50.5514L182.481 45.8908Z" fill="#FFC3B1"/>
<path id="Vector_107" d="M181.896 49.5401C182.024 46.2466 184.007 46.2466 184.007 46.2466C183.504 46.9008 183.381 47.37 183.262 48.0783C183.225 48.3039 183.12 48.9852 183.152 49.2514C183.317 50.7041 181.85 50.7989 181.896 49.5401Z" fill="#F09982"/>
</g>
<path id="Vector_108" d="M173.26 30.9701C173.26 30.9701 167.278 30.167 162.553 33.668C162.553 33.668 162.996 48.5385 164.472 52.184C165.948 55.8294 171.414 60.4223 173.26 60.4223C175.106 60.4223 180.571 55.8294 182.047 52.184C183.523 48.5385 183.966 33.668 183.966 33.668C179.241 30.167 173.26 30.9701 173.26 30.9701Z" fill="#FFC3B1"/>
<path id="Vector_109" d="M173.261 29.0639C158.885 28.9872 161.43 39.4137 161.43 39.4137C168.979 39.2242 172.027 35.8043 173.261 32.9485C174.495 35.8043 177.543 39.2242 185.092 39.4137C185.092 39.4137 187.637 28.9872 173.261 29.0639Z" fill="url(#paint1_linear_7112_8462)"/>
<path id="Vector_110" d="M174.54 50.8438C174.54 50.8438 174.549 51.2182 174.248 51.4212C173.942 51.6243 173.261 51.5521 173.261 51.5521C173.261 51.5521 172.575 51.6288 172.274 51.4212C171.967 51.2182 171.981 50.8438 171.981 50.8438C171.611 50.8753 171.428 51.3355 171.712 51.8092C171.894 52.1115 172.484 52.1386 172.881 52.116C173.137 52.1025 173.393 52.1025 173.649 52.116C174.047 52.1386 174.636 52.116 174.819 51.8092C175.102 51.3355 174.915 50.8753 174.549 50.8438H174.54Z" fill="#D67E6B"/>
<g id="Group_4">
<g id="Group_5">
<g id="Clip path group">
<mask id="mask0_7112_8462" style="mask-type:luminance" maskUnits="userSpaceOnUse" x="175" y="43" width="7" height="4">
<g id="clippath">
<path id="Vector_111" d="M175.583 45.7895C175.583 45.7895 176.222 43.9668 178.119 43.9668C180.015 43.9668 181.048 44.9864 181.048 44.9864C181.048 44.9864 180.6 46.2091 179.681 46.4211C178.562 46.6783 177.602 46.7009 176.912 46.4753C176.533 46.3535 176.25 46.2226 175.583 45.7895Z" fill="white"/>
</g>
</mask>
<g mask="url(#mask0_7112_8462)">
<g id="Group_6">
<path id="Vector_112" d="M179.855 45.1342C179.855 45.9734 179.165 46.6546 178.315 46.6546C177.465 46.6546 176.775 45.9734 176.775 45.1342C176.775 44.295 177.465 43.6138 178.315 43.6138C179.165 43.6138 179.855 44.295 179.855 45.1342Z" fill="url(#paint2_linear_7112_8462)"/>
<path id="Vector_113" d="M178.119 44.6826C179.59 44.6826 180.536 45.0525 180.888 45.3277C180.993 45.1337 181.048 44.9894 181.048 44.9894C181.048 44.9894 180.015 43.9697 178.119 43.9697C176.222 43.9697 175.583 45.7924 175.583 45.7924C175.646 45.833 175.701 45.8691 175.756 45.9052C176.053 45.3729 176.766 44.6871 178.119 44.6871V44.6826Z" fill="url(#paint3_linear_7112_8462)"/>
<path id="Vector_114" d="M179.681 46.12C178.562 46.3772 177.602 46.3997 176.912 46.1741C176.556 46.0568 176.277 45.935 175.688 45.5515C175.619 45.6914 175.583 45.7861 175.583 45.7861C176.245 46.2238 176.533 46.3501 176.912 46.4719C177.602 46.693 178.562 46.6704 179.681 46.4178C180.6 46.2102 181.048 44.9831 181.048 44.9831C181.048 44.9831 181.007 44.947 180.952 44.9019C180.778 45.2628 180.358 45.9621 179.681 46.12Z" fill="#D67E6B"/>
</g>
</g>
</g>
<g id="Clip path group_2">
<mask id="mask1_7112_8462" style="mask-type:luminance" maskUnits="userSpaceOnUse" x="165" y="43" width="6" height="4">
<g id="clippath-1">
<path id="Vector_115" d="M170.94 45.7895C170.94 45.7895 170.3 43.9668 168.404 43.9668C166.508 43.9668 165.475 44.9864 165.475 44.9864C165.475 44.9864 165.923 46.2091 166.841 46.4211C167.961 46.6783 168.92 46.7009 169.61 46.4753C169.99 46.3535 170.273 46.2226 170.94 45.7895Z" fill="white"/>
</g>
</mask>
<g mask="url(#mask1_7112_8462)">
<g id="Group_7">
<path id="Vector_116" d="M166.668 45.1342C166.668 45.9734 167.358 46.6546 168.208 46.6546C169.058 46.6546 169.748 45.9734 169.748 45.1342C169.748 44.295 169.058 43.6138 168.208 43.6138C167.358 43.6138 166.668 44.295 166.668 45.1342Z" fill="url(#paint4_linear_7112_8462)"/>
<path id="Vector_117" d="M168.404 44.6826C166.933 44.6826 165.987 45.0525 165.635 45.3277C165.53 45.1337 165.475 44.9894 165.475 44.9894C165.475 44.9894 166.508 43.9697 168.404 43.9697C170.3 43.9697 170.94 45.7924 170.94 45.7924C170.876 45.833 170.821 45.8691 170.766 45.9052C170.469 45.3729 169.761 44.6871 168.404 44.6871V44.6826Z" fill="url(#paint5_linear_7112_8462)"/>
<path id="Vector_118" d="M166.841 46.12C167.961 46.3772 168.92 46.3997 169.61 46.1741C169.967 46.0568 170.246 45.935 170.835 45.5515C170.904 45.6914 170.94 45.7861 170.94 45.7861C170.278 46.2238 169.99 46.3501 169.61 46.4719C168.92 46.693 167.961 46.6704 166.841 46.4178C165.923 46.2102 165.475 44.9831 165.475 44.9831C165.475 44.9831 165.516 44.947 165.571 44.9019C165.744 45.2628 166.165 45.9621 166.841 46.12Z" fill="#D67E6B"/>
</g>
</g>
</g>
</g>
<path id="Vector_119" d="M178.118 44.6859C179.59 44.6859 180.536 45.0558 180.888 45.331C180.993 45.137 181.048 44.9927 181.048 44.9927C181.048 44.9927 180.015 43.752 178.118 43.752C176.222 43.752 175.582 45.7912 175.582 45.7912C175.646 45.8318 175.701 45.8679 175.756 45.904C176.053 45.3716 176.766 44.6859 178.118 44.6859Z" fill="url(#paint6_linear_7112_8462)"/>
<path id="Vector_120" d="M168.403 44.6859C166.932 44.6859 165.986 45.0558 165.634 45.331C165.529 45.137 165.474 44.9927 165.474 44.9927C165.474 44.9927 166.507 43.752 168.403 43.752C170.3 43.752 170.94 45.7912 170.94 45.7912C170.876 45.8318 170.821 45.8679 170.766 45.904C170.469 45.3716 169.761 44.6859 168.403 44.6859Z" fill="url(#paint7_linear_7112_8462)"/>
</g>
<path id="Vector_121" d="M191.803 64.7582C189.071 62.4257 179.954 63.6303 179.954 63.6303C179.703 64.8079 179.164 65.7598 178.488 66.5268C175.773 69.6173 170.751 69.6173 168.037 66.5268C167.361 65.7598 166.821 64.8079 166.57 63.6303C166.57 63.6303 157.449 62.4257 154.721 64.7582C151.988 67.0908 150.252 71.5032 150.069 75.0358H196.46C196.277 71.4987 194.541 67.0908 191.808 64.7582H191.803Z" fill="url(#paint8_linear_7112_8462)"/>
<g id="Group_8">
<path id="Vector_122" d="M182.697 40.9192C182.697 40.9192 181.984 40.0259 179.224 39.8364C175.801 39.5973 175.696 40.1161 175.691 41.1493C175.691 42.1825 178.438 41.8757 179.676 41.9524C180.914 42.0291 183.144 41.5689 182.697 40.9192Z" fill="url(#paint9_linear_7112_8462)"/>
<path id="Vector_123" d="M163.824 40.9192C163.824 40.9192 164.537 40.0259 167.297 39.8364C170.72 39.5973 170.825 40.1161 170.829 41.1493C170.829 42.1825 168.083 41.8757 166.845 41.9524C165.606 42.0291 163.376 41.5689 163.824 40.9192Z" fill="url(#paint10_linear_7112_8462)"/>
</g>
<path id="Vector_124" d="M173.26 54.0808C171.794 54.0808 170.473 53.4897 170.473 53.4897C170.541 53.8371 170.907 54.4959 171.346 54.735C172.548 55.3847 173.969 55.3847 175.17 54.735C175.614 54.4959 175.975 53.8371 176.043 53.4897C176.043 53.4897 174.723 54.0808 173.256 54.0808H173.26Z" fill="#E45B54"/>
<path id="Vector_125" d="M184.071 38.8358L183.016 38.1681C182.924 39.7788 182.714 42.5489 182.554 44.3581C182.257 47.7825 181.019 50.7105 180.42 52.1859C180.383 52.2761 180.333 52.3663 180.292 52.4566C179.936 52.7002 179.579 52.9393 179.218 53.1694C178.286 52.8536 175.992 52.1814 173.255 52.1814C170.518 52.1814 168.224 52.8536 167.291 53.1694C166.962 52.9574 166.638 52.7408 166.314 52.5197C166.259 52.4069 166.199 52.2896 166.158 52.1814C165.56 50.706 164.321 47.778 164.024 44.3536C163.869 42.5489 163.654 39.7788 163.563 38.1636L162.507 38.8313C162.731 42.788 163.325 47.999 164.061 50.873C164.047 50.8639 164.033 50.8549 164.024 50.8459C164.294 53.7108 164.669 58.209 165.171 59.4542C166.528 62.8064 171.555 65.1975 173.255 65.1975C174.955 65.1975 179.981 62.8064 181.338 59.4542C181.832 58.2405 182.198 53.9364 182.463 51.0715C183.217 48.2472 183.838 42.8828 184.067 38.8358H184.071ZM169.106 54.2657C170.591 53.404 173.259 53.3318 173.259 53.3318C173.259 53.3318 175.923 53.404 177.413 54.2657C175.713 55.2267 174.169 55.8764 173.259 55.8764C172.35 55.8764 170.81 55.2222 169.106 54.2657Z" fill="url(#paint11_linear_7112_8462)"/>
<g id="Group_9">
<path id="Vector_126" d="M144.631 28.3639H145.988V22.219H152.212V20.8745H144.631V28.3639Z" fill="#A1FF00"/>
<path id="Vector_127" d="M194.308 20.8745V22.219H200.532V28.3639H201.889V20.8745H194.308Z" fill="#A1FF00"/>
<path id="Vector_128" d="M200.532 78.6934H194.308V80.0333H201.889V72.5439H200.532V78.6934Z" fill="#A1FF00"/>
<path id="Vector_129" d="M145.988 72.5439H144.631V80.0333H152.212V78.6934H145.988V72.5439Z" fill="#A1FF00"/>
</g>
<g id="Group_10">
<path id="Vector_130" d="M140.606 25.2584H142.155V18.2472H149.256V16.7178H140.606V25.2584Z" fill="black"/>
<path id="Vector_131" d="M197.264 16.7178V18.2472H204.366V25.2584H205.915V16.7178H197.264Z" fill="black"/>
<path id="Vector_132" d="M204.366 82.6562H197.264V84.1856H205.915V75.645H204.366V82.6562Z" fill="black"/>
<path id="Vector_133" d="M142.155 75.645H140.606V84.1856H149.256V82.6562H142.155V75.645Z" fill="black"/>
</g>
<path id="Vector_134" d="M191.822 21.8438H190.127V21.2212H191.822V21.8438ZM188.162 21.8438H186.192V21.2212H188.162V21.8438ZM184.223 21.8438H182.253V21.2212H184.223V21.8438ZM180.284 21.8438H178.314V21.2212H180.284V21.8438ZM176.345 21.8438H174.375V21.2212H176.345V21.8438ZM172.406 21.8438H170.436V21.2212H172.406V21.8438ZM168.467 21.8438H166.497V21.2212H168.467V21.8438ZM164.528 21.8438H162.558V21.2212H164.528V21.8438ZM160.589 21.8438H158.619V21.2212H160.589V21.8438ZM156.65 21.8438H154.68V21.2212H156.65V21.8438Z" fill="#A1FF00"/>
<path id="Vector_135" d="M191.822 79.7007H190.127V79.0781H191.822V79.7007ZM188.162 79.7007H186.192V79.0781H188.162V79.7007ZM184.223 79.7007H182.253V79.0781H184.223V79.7007ZM180.284 79.7007H178.314V79.0781H180.284V79.7007ZM176.345 79.7007H174.375V79.0781H176.345V79.7007ZM172.406 79.7007H170.436V79.0781H172.406V79.7007ZM168.467 79.7007H166.497V79.0781H168.467V79.7007ZM164.528 79.7007H162.558V79.0781H164.528V79.7007ZM160.589 79.7007H158.619V79.0781H160.589V79.7007ZM156.65 79.7007H154.68V79.0781H156.65V79.7007Z" fill="#A1FF00"/>
<path id="Vector_136" d="M200.879 68.7798V67.106H201.51V68.7798H200.879ZM200.879 65.1659V63.2214H201.51V65.1659H200.879ZM200.879 61.2769V59.3323H201.51V61.2769H200.879ZM200.879 57.3878V55.4433H201.51V57.3878H200.879ZM200.879 53.4987V51.5542H201.51V53.4987H200.879ZM200.879 49.6097V47.6651H201.51V49.6097H200.879ZM200.879 45.7206V43.7761H201.51V45.7206H200.879ZM200.879 41.8316V39.887H201.51V41.8316H200.879ZM200.879 37.9425V35.998H201.51V37.9425H200.879ZM200.879 34.0534V32.1089H201.51V34.0534H200.879Z" fill="#A1FF00"/>
<path id="Vector_137" d="M144.934 68.7798V67.106H145.564V68.7798H144.934ZM144.934 65.1659V63.2214H145.564V65.1659H144.934ZM144.934 61.2769V59.3323H145.564V61.2769H144.934ZM144.934 57.3878V55.4433H145.564V57.3878H144.934ZM144.934 53.4987V51.5542H145.564V53.4987H144.934ZM144.934 49.6097V47.6651H145.564V49.6097H144.934ZM144.934 45.7206V43.7761H145.564V45.7206H144.934ZM144.934 41.8316V39.887H145.564V41.8316H144.934ZM144.934 37.9425V35.998H145.564V37.9425H144.934ZM144.934 34.0534V32.1089H145.564V34.0534H144.934Z" fill="#A1FF00"/>
<path id="Vector_138" d="M172.384 74.8914C171.785 74.8688 171.177 74.8282 170.583 74.765L170.999 70.9301C171.502 70.9842 172.013 71.0203 172.521 71.0384L172.384 74.8914ZM174.189 74.8914L174.042 71.0384C174.545 71.0203 175.057 70.9842 175.564 70.9301L175.989 74.7605C175.39 74.8237 174.787 74.8688 174.189 74.8914ZM168.792 74.5124C168.202 74.4041 167.608 74.2778 167.028 74.1289L168.006 70.3977C168.495 70.5241 168.997 70.6323 169.491 70.7226L168.792 74.5124ZM177.776 74.5034L177.067 70.7135C177.565 70.6233 178.064 70.515 178.552 70.3887L179.544 74.1154C178.964 74.2642 178.37 74.3951 177.78 74.5034H177.776ZM165.291 73.6191C164.72 73.4296 164.149 73.213 163.596 72.9829L165.122 69.4367C165.584 69.6307 166.064 69.8112 166.544 69.9736L165.291 73.6236V73.6191ZM181.271 73.601L180.006 69.9556C180.485 69.7932 180.961 69.6127 181.427 69.4187L182.958 72.9649C182.409 73.195 181.843 73.4115 181.271 73.6055V73.601ZM161.96 72.225C161.426 71.9543 160.895 71.661 160.384 71.3497L162.417 68.0607C162.847 68.3224 163.295 68.566 163.747 68.7961L161.965 72.225H161.96ZM184.594 72.2024L182.802 68.778C183.25 68.5479 183.698 68.2998 184.127 68.0426L186.165 71.3271C185.654 71.6384 185.124 71.9317 184.589 72.2024H184.594ZM158.871 70.3661C158.382 70.0187 157.902 69.6533 157.441 69.2788L159.936 66.3147C160.324 66.635 160.731 66.9418 161.142 67.235L158.871 70.3707V70.3661ZM187.673 70.3436L185.398 67.2125C185.809 66.9237 186.211 66.6124 186.604 66.2921L189.104 69.2518C188.642 69.6307 188.162 70.0007 187.673 70.3436ZM156.097 68.0878C155.663 67.6772 155.243 67.2486 154.841 66.8064L157.742 64.2303C158.081 64.6002 158.437 64.9657 158.803 65.3131L156.097 68.0923V68.0878ZM190.452 68.0607L187.742 65.286C188.108 64.9386 188.464 64.5732 188.798 64.2032L191.704 66.7749C191.306 67.2125 190.881 67.6456 190.452 68.0607ZM153.685 65.4349C153.319 64.9702 152.963 64.4829 152.629 63.9866L155.878 61.8526C156.157 62.2677 156.458 62.6782 156.769 63.0753L153.685 65.4394V65.4349ZM192.865 65.4033L189.775 63.0482C190.086 62.6512 190.388 62.2361 190.662 61.8255L193.916 63.9551C193.587 64.4468 193.23 64.9341 192.865 65.4033ZM151.688 62.4662C151.391 61.9474 151.112 61.415 150.856 60.8826L154.388 59.2404C154.603 59.6915 154.836 60.1382 155.088 60.5758L151.688 62.4707V62.4662ZM194.861 62.4301L191.457 60.5397C191.704 60.1021 191.941 59.6509 192.156 59.2043L195.689 60.842C195.433 61.3789 195.154 61.9113 194.861 62.4301ZM150.148 59.2449C149.928 58.6854 149.732 58.1169 149.563 57.553L153.301 56.4386C153.447 56.9123 153.612 57.3906 153.794 57.8598L150.152 59.2449H150.148ZM196.397 59.1997L192.75 57.8237C192.933 57.3545 193.098 56.8762 193.244 56.398L196.982 57.5079C196.808 58.0763 196.612 58.6448 196.397 59.1997ZM149.101 55.8295C148.969 55.2475 148.859 54.6565 148.772 54.0745L152.634 53.515C152.707 54.0068 152.798 54.5031 152.912 54.9904L149.101 55.834V55.8295ZM197.439 55.7799L193.628 54.9497C193.737 54.458 193.829 53.9617 193.902 53.4699L197.763 54.0249C197.676 54.6069 197.567 55.1979 197.439 55.7799ZM148.571 52.3059C148.526 51.7194 148.503 51.1193 148.503 50.5238L152.405 50.5148C152.405 51.0156 152.423 51.5209 152.465 52.0172L148.571 52.3014V52.3059ZM197.96 52.2518L194.066 51.9766C194.103 51.4803 194.121 50.9705 194.121 50.4742V50.393L198.024 50.3614V50.4742C198.024 51.0652 198.001 51.6652 197.96 52.2563V52.2518ZM152.46 49.0079L148.567 48.7372C148.608 48.1461 148.672 47.5506 148.759 46.9641L152.624 47.51C152.551 48.0063 152.497 48.5071 152.465 49.0079H152.46ZM194.062 48.877C194.025 48.3807 193.966 47.88 193.893 47.3837L197.754 46.8107C197.845 47.3972 197.909 47.9927 197.955 48.5838L194.062 48.8725V48.877ZM152.894 46.0347L149.083 45.209C149.211 44.6315 149.362 44.0495 149.535 43.4811L153.278 44.5819C153.132 45.0602 153.004 45.5519 152.899 46.0392L152.894 46.0347ZM193.609 45.9083C193.5 45.4211 193.367 44.9293 193.221 44.4556L196.954 43.3322C197.128 43.8961 197.283 44.4781 197.416 45.0602L193.609 45.9129V45.9083ZM153.762 43.1607L150.111 41.7937C150.326 41.2388 150.559 40.6838 150.815 40.1469L154.352 41.7757C154.137 42.2268 153.941 42.696 153.758 43.1607H153.762ZM192.723 43.0389C192.54 42.5742 192.339 42.1095 192.124 41.6583L195.652 40.0071C195.908 40.544 196.15 41.0944 196.365 41.6448L192.723 43.0344V43.0389ZM155.051 40.4402L151.642 38.5588C151.934 38.04 152.25 37.5302 152.583 37.0339L155.841 39.1544C155.563 39.5694 155.298 40.0026 155.051 40.4402ZM191.425 40.3319C191.174 39.8943 190.904 39.4657 190.625 39.0506L193.87 36.9121C194.203 37.4038 194.519 37.9137 194.816 38.428L191.421 40.3319H191.425ZM156.728 37.9317L153.634 35.5811C154 35.1119 154.388 34.6472 154.79 34.2051L157.701 36.7722C157.363 37.1422 157.039 37.5347 156.728 37.9317ZM189.734 37.8324C189.424 37.4399 189.095 37.0519 188.756 36.682L191.654 34.0968C192.056 34.5344 192.444 34.9946 192.814 35.4638L189.734 37.8324ZM158.757 35.6849L156.043 32.9147C156.477 32.4996 156.924 32.0981 157.386 31.7191L159.895 34.6743C159.506 34.9946 159.127 35.333 158.761 35.6804L158.757 35.6849ZM187.692 35.5992C187.326 35.2563 186.947 34.9179 186.554 34.5976L189.04 31.6289C189.501 32.0079 189.958 32.4049 190.388 32.8155L187.687 35.5992H187.692ZM161.092 33.7539L158.812 30.6273C159.301 30.2799 159.808 29.946 160.315 29.6347L162.358 32.9192C161.933 33.1764 161.503 33.4561 161.092 33.7539ZM185.348 33.6817C184.936 33.393 184.507 33.1132 184.073 32.8561L186.097 29.5625C186.609 29.8693 187.116 30.1987 187.609 30.5416L185.348 33.6817ZM163.683 32.1793L161.887 28.7595C162.417 28.4888 162.97 28.2316 163.518 27.997L165.058 31.5387C164.592 31.7372 164.131 31.9537 163.683 32.1793ZM182.743 32.1207C182.295 31.8951 181.829 31.683 181.363 31.4845L182.875 27.9338C183.433 28.1639 183.986 28.4211 184.52 28.6873L182.743 32.1162V32.1207ZM166.475 30.9973L165.205 27.3518C165.776 27.1578 166.356 26.9819 166.937 26.833L167.933 30.5596C167.448 30.686 166.955 30.8348 166.48 30.9973H166.475ZM179.937 30.9521C179.462 30.7942 178.973 30.6499 178.479 30.5235L179.453 26.7924C180.038 26.9413 180.623 27.1127 181.189 27.3022L179.942 30.9521H179.937ZM169.413 30.2303L168.696 26.4405C169.285 26.3322 169.889 26.242 170.483 26.1788L170.917 30.0092C170.414 30.0633 169.907 30.14 169.413 30.2303ZM176.99 30.2077C176.496 30.1175 175.989 30.0498 175.482 29.9957L175.893 26.1607C176.496 26.2239 177.095 26.3096 177.684 26.4134L176.99 30.2077ZM172.438 29.8964L172.283 26.0434C172.612 26.0299 172.941 26.0299 173.27 26.0254C173.54 26.0254 173.814 26.0299 174.088 26.0389L173.96 29.8919C173.718 29.8829 173.48 29.8784 173.229 29.8784C172.959 29.8784 172.699 29.8829 172.434 29.8919L172.438 29.8964Z" fill="#A1FF00"/>
<path id="Vector_139" d="M160.785 85.3496H159.533V88.8191H160.785V85.3496Z" fill="#A1FF00"/>
<path id="Vector_140" d="M163.166 85.3496H161.914V88.8191H163.166V85.3496Z" fill="#A1FF00"/>
<path id="Vector_141" d="M165.547 85.3496H164.294V88.8191H165.547V85.3496Z" fill="#A1FF00"/>
<path id="Vector_142" d="M167.932 85.3496H166.68V88.8191H167.932V85.3496Z" fill="#A1FF00"/>
<path id="Vector_143" opacity="0.2" d="M170.313 85.3496H169.061V88.8191H170.313V85.3496Z" fill="url(#paint12_linear_7112_8462)"/>
<path id="Vector_144" opacity="0.2" d="M172.693 85.3496H171.441V88.8191H172.693V85.3496Z" fill="url(#paint13_linear_7112_8462)"/>
<path id="Vector_145" opacity="0.2" d="M175.079 85.3496H173.827V88.8191H175.079V85.3496Z" fill="url(#paint14_linear_7112_8462)"/>
<path id="Vector_146" opacity="0.2" d="M177.46 85.3496H176.208V88.8191H177.46V85.3496Z" fill="url(#paint15_linear_7112_8462)"/>
<path id="Vector_147" opacity="0.2" d="M179.841 85.3496H178.589V88.8191H179.841V85.3496Z" fill="url(#paint16_linear_7112_8462)"/>
<path id="Vector_148" opacity="0.2" d="M182.225 85.3496H180.973V88.8191H182.225V85.3496Z" fill="url(#paint17_linear_7112_8462)"/>
<path id="Vector_149" opacity="0.2" d="M184.607 85.3496H183.354V88.8191H184.607V85.3496Z" fill="url(#paint18_linear_7112_8462)"/>
<path id="Vector_150" opacity="0.2" d="M186.992 85.3496H185.74V88.8191H186.992V85.3496Z" fill="url(#paint19_linear_7112_8462)"/>
</g>
</g>
<defs>
<linearGradient id="paint0_linear_7112_8462" x1="159.638" y1="38.983" x2="186.201" y2="38.983" gradientUnits="userSpaceOnUse">
<stop offset="0.01" stop-color="#100B21"/>
<stop offset="1" stop-color="#3B3648"/>
</linearGradient>
<linearGradient id="paint1_linear_7112_8462" x1="161.257" y1="34.2388" x2="185.265" y2="34.2388" gradientUnits="userSpaceOnUse">
<stop offset="0.01" stop-color="#100B21"/>
<stop offset="1" stop-color="#3B3648"/>
</linearGradient>
<linearGradient id="paint2_linear_7112_8462" x1="176.775" y1="45.1342" x2="179.855" y2="45.1342" gradientUnits="userSpaceOnUse">
<stop offset="0.01" stop-color="#100B21"/>
<stop offset="1" stop-color="#3B3648"/>
</linearGradient>
<linearGradient id="paint3_linear_7112_8462" x1="175.583" y1="44.9307" x2="181.048" y2="44.9307" gradientUnits="userSpaceOnUse">
<stop offset="0.01" stop-color="#100B21"/>
<stop offset="1" stop-color="#3B3648"/>
</linearGradient>
<linearGradient id="paint4_linear_7112_8462" x1="166.668" y1="45.1342" x2="169.748" y2="45.1342" gradientUnits="userSpaceOnUse">
<stop offset="0.01" stop-color="#100B21"/>
<stop offset="1" stop-color="#3B3648"/>
</linearGradient>
<linearGradient id="paint5_linear_7112_8462" x1="165.475" y1="44.9307" x2="170.94" y2="44.9307" gradientUnits="userSpaceOnUse">
<stop offset="0.01" stop-color="#100B21"/>
<stop offset="1" stop-color="#3B3648"/>
</linearGradient>
<linearGradient id="paint6_linear_7112_8462" x1="175.582" y1="44.8257" x2="181.048" y2="44.8257" gradientUnits="userSpaceOnUse">
<stop offset="0.01" stop-color="#100B21"/>
<stop offset="1" stop-color="#3B3648"/>
</linearGradient>
<linearGradient id="paint7_linear_7112_8462" x1="165.474" y1="44.8257" x2="170.94" y2="44.8257" gradientUnits="userSpaceOnUse">
<stop offset="0.01" stop-color="#100B21"/>
<stop offset="1" stop-color="#3B3648"/>
</linearGradient>
<linearGradient id="paint8_linear_7112_8462" x1="173.26" y1="63.0934" x2="173.26" y2="77.8827" gradientUnits="userSpaceOnUse">
<stop offset="0.01" stop-color="#100B21"/>
<stop offset="1" stop-color="#3B3648"/>
</linearGradient>
<linearGradient id="paint9_linear_7112_8462" x1="175.691" y1="40.8696" x2="182.756" y2="40.8696" gradientUnits="userSpaceOnUse">
<stop offset="0.01" stop-color="#100B21"/>
<stop offset="1" stop-color="#3B3648"/>
</linearGradient>
<linearGradient id="paint10_linear_7112_8462" x1="163.765" y1="40.8696" x2="170.825" y2="40.8696" gradientUnits="userSpaceOnUse">
<stop offset="0.01" stop-color="#100B21"/>
<stop offset="1" stop-color="#3B3648"/>
</linearGradient>
<linearGradient id="paint11_linear_7112_8462" x1="162.512" y1="51.6851" x2="184.071" y2="51.6851" gradientUnits="userSpaceOnUse">
<stop offset="0.01" stop-color="#100B21"/>
<stop offset="1" stop-color="#3B3648"/>
</linearGradient>
<linearGradient id="paint12_linear_7112_8462" x1="169.061" y1="87.0866" x2="170.313" y2="87.0866" gradientUnits="userSpaceOnUse">
<stop offset="0.01" stop-color="#100B21"/>
<stop offset="1" stop-color="#3B3648"/>
</linearGradient>
<linearGradient id="paint13_linear_7112_8462" x1="171.441" y1="87.0866" x2="172.693" y2="87.0866" gradientUnits="userSpaceOnUse">
<stop offset="0.01" stop-color="#100B21"/>
<stop offset="1" stop-color="#3B3648"/>
</linearGradient>
<linearGradient id="paint14_linear_7112_8462" x1="173.827" y1="87.0866" x2="175.075" y2="87.0866" gradientUnits="userSpaceOnUse">
<stop offset="0.01" stop-color="#100B21"/>
<stop offset="1" stop-color="#3B3648"/>
</linearGradient>
<linearGradient id="paint15_linear_7112_8462" x1="176.208" y1="87.0866" x2="177.46" y2="87.0866" gradientUnits="userSpaceOnUse">
<stop offset="0.01" stop-color="#100B21"/>
<stop offset="1" stop-color="#3B3648"/>
</linearGradient>
<linearGradient id="paint16_linear_7112_8462" x1="178.589" y1="87.0866" x2="179.841" y2="87.0866" gradientUnits="userSpaceOnUse">
<stop offset="0.01" stop-color="#100B21"/>
<stop offset="1" stop-color="#3B3648"/>
</linearGradient>
<linearGradient id="paint17_linear_7112_8462" x1="180.973" y1="87.0866" x2="182.225" y2="87.0866" gradientUnits="userSpaceOnUse">
<stop offset="0.01" stop-color="#100B21"/>
<stop offset="1" stop-color="#3B3648"/>
</linearGradient>
<linearGradient id="paint18_linear_7112_8462" x1="183.354" y1="87.0866" x2="184.607" y2="87.0866" gradientUnits="userSpaceOnUse">
<stop offset="0.01" stop-color="#100B21"/>
<stop offset="1" stop-color="#3B3648"/>
</linearGradient>
<linearGradient id="paint19_linear_7112_8462" x1="185.74" y1="87.0866" x2="186.987" y2="87.0866" gradientUnits="userSpaceOnUse">
<stop offset="0.01" stop-color="#100B21"/>
<stop offset="1" stop-color="#3B3648"/>
</linearGradient>
</defs>
</svg>
