<svg width="200" height="197" viewBox="0 0 200 197" fill="none" xmlns="http://www.w3.org/2000/svg">
<rect opacity="0.1" y="13.126" width="183.406" height="183.766" rx="45" fill="white"/>
<path d="M48.5701 87.1938C48.4408 87.1938 48.3133 87.1881 48.182 87.1731C46.2247 86.9613 44.811 85.2064 45.0229 83.2509C45.2516 81.1435 45.5272 79.1242 45.8685 77.0768L45.8741 77.0412C47.5165 67.7548 55.7602 59.5165 65.0539 57.8722L65.0895 57.8666C67.1388 57.5254 69.1599 57.2479 71.2672 57.021C73.2246 56.8092 74.9813 58.2228 75.1932 60.1783C75.405 62.132 73.9895 63.8888 72.034 64.1006C70.0692 64.3144 68.1868 64.5712 66.2763 64.8881C63.2147 65.4337 60.1474 67.1155 57.6351 69.626C55.1228 72.1383 53.441 75.2038 52.8954 78.2617C52.5786 80.1685 52.3217 82.0509 52.108 84.0158C51.9093 85.8401 50.3662 87.1938 48.5701 87.1938Z" fill="#A1FF00"/>
<path d="M140.13 77.1102C140.471 79.1576 140.747 81.1788 140.976 83.2843L140.979 83.288C141.189 85.2417 139.776 86.9985 137.82 87.2103C137.689 87.2234 137.56 87.2309 137.432 87.2309C135.636 87.2309 134.091 85.8773 133.894 84.053C133.68 82.0881 133.424 80.2057 133.107 78.2989C132.563 75.241 130.879 72.1736 128.367 69.6631C125.855 67.1526 122.786 65.4709 119.726 64.9253C117.814 64.6084 115.931 64.3497 113.968 64.1378C112.011 63.9259 110.597 62.171 110.809 60.2155C111.021 58.26 112.778 56.8482 114.735 57.0582C116.839 57.2869 118.86 57.5625 120.913 57.9038L120.948 57.9094C130.238 59.5499 138.482 67.7901 140.124 77.0746L140.13 77.1102Z" fill="#A1FF00"/>
<path d="M140.13 132.924C140.471 130.876 140.747 128.855 140.976 126.75C141.187 124.794 139.774 123.039 137.816 122.827C135.863 122.615 134.102 124.029 133.89 125.985C133.679 127.949 133.42 129.832 133.103 131.739C132.557 134.797 130.876 137.862 128.363 140.374C125.851 142.885 122.782 144.569 119.722 145.112C117.815 145.429 115.933 145.686 113.966 145.9C112.011 146.112 110.597 147.868 110.809 149.822C111.006 151.646 112.551 153 114.347 153C114.474 153 114.604 152.993 114.735 152.979C116.844 152.751 118.865 152.475 120.913 152.134L120.948 152.128C130.24 150.488 138.484 142.247 140.124 132.963L140.13 132.927V132.924Z" fill="#A1FF00"/>
<path d="M45.8741 132.925L45.8684 132.889L45.8666 132.885C45.5253 130.838 45.2497 128.818 45.021 126.711C44.8091 124.757 46.2247 123.001 48.1801 122.789C50.1356 122.577 51.8942 123.991 52.1061 125.946C52.3198 127.911 52.5767 129.793 52.8935 131.7C53.4372 134.758 55.1209 137.826 57.6332 140.336C60.1474 142.846 63.2146 144.528 66.2744 145.074C68.1812 145.391 70.0654 145.648 72.0321 145.861C73.9876 146.073 75.4012 147.828 75.1894 149.784C74.9906 151.61 73.4476 152.962 71.6515 152.962C71.524 152.962 71.3947 152.956 71.2634 152.941C69.1542 152.712 67.1331 152.437 65.0858 152.095L65.0501 152.09C55.7602 150.449 47.5164 142.209 45.8741 132.925Z" fill="#A1FF00"/>
<path d="M75.5037 123.789C80.66 127.903 86.836 129.959 93.0101 129.959C99.1842 129.959 105.36 127.901 110.511 123.787C112.105 122.512 112.406 120.135 111.18 118.475C109.955 116.815 107.668 116.504 106.073 117.779C98.3849 123.921 87.6372 123.921 79.9374 117.779C78.3406 116.506 76.0558 116.819 74.8309 118.479C73.6061 120.139 73.907 122.516 75.5037 123.789Z" fill="white"/>
<path d="M79.1631 83.828V89.3597C79.1631 91.4523 77.5319 93.148 75.5212 93.148C73.5104 93.148 71.8792 91.4523 71.8792 89.3597V83.828C71.8792 81.7354 73.5104 80.0398 75.5212 80.0398C77.5319 80.0398 79.1631 81.7354 79.1631 83.828Z" fill="white"/>
<path d="M114.118 89.3597V83.828C114.118 81.7354 112.487 80.0398 110.476 80.0398C108.465 80.0398 106.834 81.7354 106.834 83.828V89.3597C106.834 91.4523 108.465 93.148 110.476 93.148C112.487 93.148 114.118 91.4523 114.118 89.3597Z" fill="white"/>
<path d="M92.9984 110.614C92.015 110.614 91.0336 110.201 90.3148 109.387C88.9539 107.845 89.0516 105.449 90.5333 104.035L93.0367 101.647L89.6727 93.819C88.8523 91.9079 89.6746 89.6677 91.5109 88.8139C93.3472 87.9601 95.5017 88.8179 96.3221 90.7269L100.758 101.046C101.398 102.534 101.049 104.28 99.8951 105.383L95.4596 109.616C94.7599 110.284 93.8782 110.614 92.9984 110.614Z" fill="white"/>
<ellipse cx="175.982" cy="24.0647" rx="24.0175" ry="24.0647" fill="#A1FF00"/>
<path d="M166.812 25.6272L172.113 30.6276L186.026 17.5015" stroke="#1A1A1A" stroke-width="4" stroke-linecap="round" stroke-linejoin="round"/>
</svg>
