<svg width="414" height="356" viewBox="0 0 414 356" fill="none" xmlns="http://www.w3.org/2000/svg">
<path opacity="0.1" d="M178.882 334.461C265.294 334.461 335.345 264.41 335.345 177.997C335.345 91.5851 265.294 21.5342 178.882 21.5342C92.4699 21.5342 22.4189 91.5851 22.4189 177.997C22.4189 264.41 92.4699 334.461 178.882 334.461Z" fill="#F3F3F3"/>
<path opacity="0.1" d="M178.882 355.998C154.854 355.998 131.542 351.292 109.595 342.008C88.3981 333.043 69.3627 320.209 53.0168 303.863C36.6709 287.517 23.8369 268.481 14.8714 247.284C5.58976 225.337 0.883789 202.028 0.883789 177.998C0.883789 153.968 5.58975 130.658 14.8735 108.711C23.839 87.5143 36.6731 68.479 53.019 52.133C69.3649 35.7871 88.4002 22.9531 109.597 13.9876C131.542 4.70597 154.854 0 178.882 0C202.909 0 226.221 4.70597 248.168 13.9897C269.365 22.9552 288.401 35.7893 304.746 52.1352C321.092 68.4811 333.926 87.5164 342.892 108.714C352.174 130.661 356.882 153.97 356.882 178C356.882 202.03 352.176 225.339 342.892 247.286C333.926 268.484 321.092 287.519 304.746 303.865C288.401 320.211 269.365 333.045 248.168 342.01C226.221 351.292 202.911 356 178.882 356V355.998ZM178.882 5.38954C155.578 5.38954 132.973 9.95238 111.695 18.952C91.1409 27.6462 72.6802 40.0915 56.8277 55.944C40.9753 71.7964 28.5279 90.2571 19.8358 110.811C10.8362 132.09 6.27333 154.694 6.27333 177.998C6.27333 201.301 10.8362 223.906 19.8358 245.184C28.53 265.739 40.9753 284.199 56.8277 300.052C72.6802 315.904 91.1409 328.352 111.695 337.044C132.973 346.043 155.578 350.606 178.882 350.606C202.185 350.606 224.79 346.043 246.068 337.044C266.622 328.35 285.083 315.904 300.936 300.052C316.788 284.199 329.235 265.739 337.93 245.184C346.929 223.906 351.492 201.301 351.492 177.998C351.492 154.694 346.929 132.09 337.93 110.811C329.235 90.2571 316.79 71.7964 300.936 55.944C285.081 40.0915 266.622 27.6441 246.068 18.952C224.79 9.95238 202.185 5.38954 178.882 5.38954Z" fill="#F3F3F3"/>
<path d="M293.117 65.6973H60.9591C54.273 65.6973 48.8535 71.0078 48.8535 77.5551V225.649C48.8535 228.255 51.011 230.37 53.6706 230.37H300.404C303.065 230.37 305.221 228.255 305.221 225.649V77.5551C305.221 71.0078 299.801 65.6973 293.115 65.6973H293.117ZM295.847 219.249H58.2291V76.2841H295.847V219.247V219.249Z" fill="white"/>
<path opacity="0.5" d="M293.117 65.6978H203.873L195.977 76.2846H295.847V219.247H119.452L111.159 230.368H300.406C303.068 230.368 305.223 228.253 305.223 225.647V77.5556C305.223 71.0083 299.803 65.6978 293.117 65.6978Z" fill="#D9D9D9"/>
<path d="M295.847 76.2847H58.2288V219.247H295.847V76.2847Z" fill="#A1FF00"/>
<path d="M342.999 268.817C342.995 268.783 342.987 268.751 342.98 268.716C342.98 268.706 342.98 268.695 342.976 268.684C342.967 268.654 342.957 268.627 342.946 268.599C342.94 268.584 342.937 268.567 342.931 268.552C342.922 268.526 342.91 268.503 342.899 268.477C342.888 268.458 342.882 268.439 342.875 268.417C342.861 268.396 342.848 268.372 342.835 268.349C342.822 268.328 342.811 268.306 342.796 268.283C342.781 268.259 342.767 268.236 342.747 268.21C342.734 268.191 342.724 268.17 342.705 268.148C342.638 268.058 342.559 267.964 342.474 267.87C342.459 267.858 342.446 267.841 342.431 267.828L324.703 249.899H31.1901L13.4621 267.828C13.4472 267.841 13.4343 267.858 13.4194 267.87C13.3468 267.945 13.2848 268.02 13.2271 268.095C13.0028 268.383 12.8896 268.665 12.8789 268.926C12.8789 268.956 12.8789 268.986 12.8789 269.018V269.05V269.054V269.073C12.9473 270.515 13.4429 272.166 14.6904 273.457C15.9336 274.745 17.9267 275.676 20.9729 275.676H334.908C341.006 275.676 342.873 271.957 343.001 269.071C343.001 269.065 343.001 269.058 343.001 269.05V269.037C343.001 269.037 343.001 269.037 343.001 269.033V268.962C343.001 268.949 343.006 268.939 343.006 268.926C343.001 268.896 342.997 268.864 342.993 268.834C342.993 268.827 342.993 268.823 342.993 268.819L342.999 268.817Z" fill="#C9C9C9"/>
<path d="M342.473 267.855H13.4254C13.0708 268.225 12.8956 268.582 12.8828 268.911C12.8828 268.951 12.8828 268.994 12.8849 269.035C12.8849 269.041 12.8849 269.05 12.8849 269.058C13.0131 271.944 14.8823 275.663 20.9789 275.663H334.914C341.01 275.663 342.879 271.944 343.007 269.058C343.007 269.052 343.007 269.043 343.007 269.035C343.007 268.994 343.01 268.951 343.01 268.911C342.997 268.582 342.822 268.225 342.467 267.855H342.473Z" fill="#C8C8C7"/>
<path d="M210.32 269.699C210.32 269.714 210.32 269.729 210.32 269.744C210.301 271.273 209.598 272.504 208.733 272.504H147.166C146.305 272.504 145.605 271.284 145.579 269.765C145.579 269.761 145.579 269.757 145.579 269.752C145.579 269.731 145.579 269.71 145.579 269.688C145.581 269.515 145.615 269.327 145.686 269.133H210.217C210.288 269.331 210.322 269.524 210.324 269.699H210.32Z" fill="#969696"/>
<path d="M343.015 268.932C343.015 268.96 343.015 268.99 343.015 269.018C342.938 270.133 340.96 270.925 337.74 270.925H18.1598C14.9791 270.925 13.0074 270.152 12.8878 269.058C12.8878 269.05 12.8878 269.041 12.8878 269.035C12.8878 268.994 12.8857 268.951 12.8857 268.911C12.8985 268.582 13.0736 268.225 13.4282 267.856C13.4411 267.841 13.456 267.826 13.4688 267.813L50.072 230.795C51.0738 229.783 54.4917 228.973 57.7216 228.973H298.183C301.411 228.973 304.831 229.783 305.83 230.795L342.434 267.813C342.448 267.828 342.461 267.843 342.474 267.856C342.837 268.234 343.012 268.597 343.017 268.932H343.015Z" fill="white"/>
<path d="M65.8601 246.908L77.2416 232.141C77.688 231.562 79.5337 231.096 81.3686 231.096H274.531C276.364 231.096 278.21 231.562 278.658 232.141L290.04 246.908C290.597 247.632 289.371 248.226 287.295 248.226H68.6051C66.5287 248.226 65.3026 247.634 65.8601 246.908Z" fill="#C9C9C9"/>
<path d="M80.9958 233.126H90.0147C90.6919 233.123 91.3199 233 91.416 232.85L91.9074 232.098C92.0035 231.951 91.5399 231.831 90.8692 231.831H81.94C81.2693 231.833 80.6391 231.955 80.528 232.102L79.9726 232.854C79.8615 233.004 80.3208 233.126 80.9958 233.126Z" fill="black"/>
<path d="M79.0854 235.742H88.2837C88.9737 235.74 89.6167 235.612 89.7171 235.456L90.689 233.965C90.7894 233.813 90.3173 233.689 89.638 233.689H80.5807C79.9014 233.692 79.2584 233.815 79.1473 233.969L78.0451 235.46C77.9297 235.616 78.3954 235.742 79.0854 235.742Z" fill="black"/>
<path d="M92.7036 235.738H101.9C102.59 235.736 103.218 235.608 103.305 235.452L104.126 233.961C104.209 233.809 103.726 233.686 103.047 233.686H93.9896C93.3103 233.688 92.6801 233.812 92.584 233.963L91.6334 235.454C91.533 235.61 92.0115 235.736 92.7015 235.736L92.7036 235.738Z" fill="black"/>
<path d="M106.316 235.734H115.512C116.202 235.732 116.817 235.604 116.888 235.448L117.559 233.957C117.627 233.805 117.132 233.681 116.452 233.681H107.397C106.718 233.683 106.1 233.807 106.019 233.959L105.22 235.45C105.137 235.606 105.628 235.732 106.318 235.732L106.316 235.734Z" fill="black"/>
<path d="M119.93 235.729H129.126C129.816 235.727 130.418 235.599 130.474 235.443L130.993 233.954C131.046 233.803 130.538 233.679 129.859 233.679H120.804C120.124 233.681 119.52 233.805 119.453 233.956L118.804 235.447C118.736 235.603 119.24 235.729 119.93 235.729Z" fill="black"/>
<path d="M132.889 233.953L132.391 235.442C132.34 235.598 132.857 235.724 133.545 235.724H142.739C143.429 235.721 144.019 235.593 144.057 235.437L144.424 233.948C144.463 233.797 143.942 233.673 143.262 233.673H134.207C133.528 233.675 132.936 233.799 132.885 233.951L132.889 233.953Z" fill="black"/>
<path d="M156.667 233.668H147.612C146.933 233.67 146.354 233.794 146.318 233.946L145.971 235.435C145.935 235.591 146.465 235.717 147.155 235.717H156.349C157.039 235.715 157.616 235.586 157.639 235.43L157.855 233.942C157.876 233.79 157.344 233.666 156.665 233.666L156.667 233.668Z" fill="black"/>
<path d="M170.071 233.664H161.018C160.339 233.666 159.773 233.79 159.752 233.941L159.557 235.43C159.536 235.586 160.078 235.712 160.768 235.712H169.963C170.652 235.71 171.216 235.582 171.223 235.426L171.289 233.937C171.295 233.786 170.751 233.662 170.071 233.662V233.664Z" fill="black"/>
<path d="M183.474 233.662H174.421C173.742 233.664 173.189 233.788 173.185 233.94L173.14 235.429C173.135 235.585 173.691 235.711 174.381 235.711H183.575C184.265 235.709 184.816 235.581 184.807 235.425L184.722 233.936C184.713 233.784 184.156 233.66 183.477 233.66L183.474 233.662Z" fill="black"/>
<path d="M196.874 233.658H187.821C187.142 233.66 186.602 233.784 186.612 233.936L186.719 235.424C186.73 235.58 187.298 235.706 187.988 235.706H197.18C197.87 235.704 198.408 235.576 198.383 235.42L198.145 233.931C198.122 233.78 197.552 233.656 196.872 233.656L196.874 233.658Z" fill="black"/>
<path d="M201.597 235.704H210.789C211.479 235.702 212.005 235.574 211.964 235.418L211.577 233.929C211.537 233.777 210.956 233.653 210.276 233.653H201.225C200.546 233.655 200.016 233.779 200.044 233.931L200.303 235.42C200.33 235.576 200.911 235.702 201.599 235.702L201.597 235.704Z" fill="black"/>
<path d="M215.206 235.7H224.397C225.087 235.697 225.6 235.569 225.545 235.413L225.006 233.924C224.951 233.773 224.357 233.649 223.678 233.649H214.627C213.947 233.651 213.43 233.775 213.473 233.927L213.881 235.416C213.924 235.571 214.518 235.697 215.208 235.697L215.206 235.7Z" fill="black"/>
<path d="M228.812 235.693H238.004C238.694 235.691 239.194 235.563 239.121 235.407L238.431 233.918C238.361 233.766 237.754 233.643 237.075 233.643H228.024C227.345 233.645 226.84 233.769 226.898 233.92L227.458 235.409C227.515 235.565 228.122 235.691 228.812 235.691V235.693Z" fill="black"/>
<path d="M242.42 235.689H251.609C252.299 235.687 252.786 235.559 252.699 235.403L251.859 233.914C251.774 233.762 251.154 233.638 250.475 233.638H241.424C240.745 233.64 240.254 233.764 240.326 233.916L241.038 235.405C241.112 235.561 241.732 235.687 242.422 235.687L242.42 235.689Z" fill="black"/>
<path d="M107.852 238.16L108.638 236.609C108.72 236.451 108.222 236.323 107.53 236.323H98.2931C97.6009 236.325 96.9622 236.456 96.8682 236.614L95.9476 238.165C95.8514 238.327 96.3428 238.459 97.0477 238.459H106.43C107.133 238.455 107.771 238.325 107.852 238.162V238.16Z" fill="black"/>
<path d="M110.937 238.453H120.319C121.022 238.449 121.647 238.319 121.712 238.156L122.34 236.606C122.404 236.447 121.893 236.319 121.201 236.319H111.964C111.272 236.321 110.646 236.452 110.569 236.61L109.807 238.161C109.728 238.323 110.232 238.455 110.937 238.455V238.453Z" fill="black"/>
<path d="M124.826 238.449H134.208C134.911 238.445 135.522 238.314 135.571 238.152L136.043 236.601C136.093 236.443 135.569 236.315 134.877 236.315H125.64C124.948 236.317 124.335 236.447 124.273 236.605L123.667 238.156C123.602 238.319 124.122 238.451 124.826 238.451V238.449Z" fill="black"/>
<path d="M137.974 236.599L137.525 238.15C137.478 238.312 138.01 238.445 138.715 238.445H148.097C148.8 238.44 149.398 238.31 149.43 238.148L149.744 236.597C149.776 236.439 149.24 236.311 148.548 236.311H139.313C138.621 236.313 138.021 236.443 137.976 236.601L137.974 236.599Z" fill="black"/>
<path d="M151.675 236.595L151.382 238.146C151.352 238.308 151.897 238.441 152.6 238.441H161.98C162.682 238.436 163.268 238.306 163.283 238.144L163.439 236.593C163.456 236.435 162.907 236.307 162.212 236.307H152.978C152.286 236.309 151.7 236.439 151.67 236.597L151.675 236.595Z" fill="black"/>
<path d="M165.376 236.591L165.242 238.142C165.227 238.304 165.786 238.436 166.489 238.436H175.869C176.572 238.432 177.142 238.302 177.142 238.139V236.589C177.142 236.43 176.58 236.302 175.888 236.302H166.654C165.962 236.304 165.389 236.435 165.374 236.593L165.376 236.591Z" fill="black"/>
<path d="M179.076 236.586L179.098 238.137C179.1 238.299 179.672 238.432 180.375 238.432H189.755C190.458 238.428 191.015 238.297 190.998 238.135L190.84 236.584C190.823 236.426 190.251 236.298 189.556 236.298H180.324C179.632 236.3 179.072 236.43 179.074 236.588L179.076 236.586Z" fill="black"/>
<path d="M192.773 236.582L192.952 238.133C192.972 238.296 193.557 238.428 194.26 238.428H203.638C204.34 238.424 204.885 238.293 204.851 238.131L204.537 236.58C204.505 236.422 203.917 236.294 203.225 236.294H193.993C193.301 236.296 192.754 236.426 192.771 236.584L192.773 236.582Z" fill="black"/>
<path d="M208.145 238.421H217.523C218.226 238.417 218.756 238.287 218.706 238.124L218.234 236.573C218.185 236.415 217.585 236.287 216.893 236.287H207.66C206.968 236.289 206.434 236.42 206.468 236.578L206.806 238.128C206.842 238.291 207.44 238.423 208.143 238.423L208.145 238.421Z" fill="black"/>
<path d="M222.03 238.417H231.408C232.111 238.413 232.628 238.282 232.561 238.12L231.933 236.571C231.869 236.413 231.256 236.285 230.564 236.285H221.332C220.639 236.287 220.118 236.418 220.169 236.576L220.663 238.124C220.714 238.287 221.327 238.419 222.03 238.419V238.417Z" fill="black"/>
<path d="M235.912 238.413H245.289C245.992 238.408 246.496 238.278 246.413 238.116L245.627 236.567C245.546 236.409 244.92 236.281 244.228 236.281H234.997C234.305 236.283 233.797 236.413 233.863 236.571L234.515 238.12C234.583 238.282 235.209 238.415 235.912 238.415V238.413Z" fill="black"/>
<path d="M249.794 238.409H259.17C259.873 238.404 260.364 238.274 260.264 238.112L259.322 236.563C259.225 236.405 258.587 236.277 257.895 236.277H248.664C247.972 236.279 247.477 236.409 247.56 236.567L248.367 238.116C248.453 238.278 249.092 238.411 249.794 238.411V238.409Z" fill="black"/>
<path d="M279.922 238.509L279.059 237.358L278.456 236.557C278.337 236.399 277.681 236.271 276.989 236.271L264.956 236.275C264.263 236.275 263.785 236.403 263.885 236.561L265.092 238.439C265.197 238.601 265.853 238.733 266.558 238.733H268.999C269.704 238.733 270.367 238.866 270.478 239.028L271.766 240.927C271.881 241.096 272.556 241.233 273.274 241.233H280.663C281.381 241.231 281.859 241.092 281.733 240.923L279.919 238.507L279.922 238.509Z" fill="black"/>
<path d="M98.2966 241.292H107.873C108.591 241.288 109.24 241.151 109.324 240.982L110.107 239.367C110.189 239.203 109.68 239.068 108.973 239.068H99.5484C98.8414 239.073 98.192 239.205 98.098 239.37L97.173 240.984C97.0769 241.153 97.5789 241.292 98.2988 241.29L98.2966 241.292Z" fill="black"/>
<path d="M112.475 241.288H122.052C122.769 241.284 123.406 241.147 123.47 240.978L124.092 239.364C124.156 239.199 123.632 239.064 122.927 239.064H113.503C112.796 239.069 112.159 239.201 112.082 239.366L111.32 240.981C111.24 241.149 111.757 241.288 112.475 241.286V241.288Z" fill="black"/>
<path d="M126.653 241.284H136.229C136.947 241.279 137.568 241.143 137.618 240.974L138.075 239.359C138.122 239.194 137.585 239.06 136.878 239.062H127.454C126.747 239.066 126.125 239.199 126.063 239.363L125.465 240.978C125.403 241.147 125.933 241.286 126.653 241.284Z" fill="black"/>
<path d="M151.759 240.968L152.051 239.353C152.081 239.188 151.532 239.054 150.825 239.056H141.402C140.695 239.06 140.087 239.192 140.042 239.357L139.608 240.972C139.563 241.141 140.108 241.279 140.826 241.277H150.4C151.118 241.273 151.727 241.136 151.756 240.968H151.759Z" fill="black"/>
<path d="M165.903 240.963L166.033 239.348C166.046 239.184 165.484 239.049 164.777 239.051H155.354C154.647 239.056 154.051 239.188 154.023 239.353L153.752 240.967C153.724 241.136 154.284 241.275 155.002 241.273H164.576C165.294 241.269 165.888 241.132 165.9 240.963H165.903Z" fill="black"/>
<path d="M180.047 240.959L180.013 239.344C180.008 239.18 179.434 239.045 178.727 239.047H169.304C168.597 239.052 168.016 239.184 168.005 239.349L167.898 240.964C167.888 241.132 168.46 241.269 169.178 241.269H178.752C179.47 241.265 180.049 241.128 180.047 240.959Z" fill="black"/>
<path d="M194.187 240.955L193.99 239.34C193.971 239.175 193.382 239.041 192.675 239.043H183.254C182.547 239.047 181.979 239.18 181.985 239.344L182.043 240.959C182.049 241.128 182.637 241.265 183.354 241.265H192.929C193.646 241.26 194.213 241.124 194.191 240.955H194.187Z" fill="black"/>
<path d="M208.327 240.949L207.966 239.334C207.929 239.17 207.327 239.035 206.62 239.037H197.2C196.492 239.041 195.939 239.174 195.961 239.338L196.181 240.953C196.204 241.122 196.804 241.259 197.522 241.259H207.094C207.812 241.254 208.363 241.118 208.327 240.949Z" fill="black"/>
<path d="M211.695 241.254H221.268C221.985 241.25 222.524 241.113 222.468 240.944L221.943 239.329C221.889 239.165 221.272 239.03 220.567 239.032H211.146C210.439 239.037 209.899 239.169 209.937 239.333L210.322 240.948C210.362 241.117 210.978 241.254 211.695 241.254Z" fill="black"/>
<path d="M225.866 241.249H235.438C236.156 241.245 236.679 241.108 236.606 240.94L235.918 239.325C235.848 239.16 235.218 239.026 234.513 239.028H225.092C224.385 239.032 223.858 239.165 223.913 239.329L224.46 240.944C224.518 241.113 225.146 241.249 225.863 241.249H225.866Z" fill="black"/>
<path d="M240.033 241.245H249.603C250.321 241.241 250.832 241.104 250.742 240.936L249.89 239.323C249.802 239.158 249.159 239.024 248.452 239.026H239.034C238.327 239.03 237.814 239.163 237.887 239.327L238.598 240.942C238.673 241.111 239.316 241.248 240.033 241.248V241.245Z" fill="black"/>
<path d="M254.203 241.241H263.773C264.491 241.237 264.986 241.1 264.88 240.931L263.865 239.318C263.76 239.154 263.104 239.019 262.397 239.022H252.979C252.272 239.026 251.772 239.158 251.862 239.323L252.738 240.936C252.83 241.104 253.485 241.241 254.203 241.241Z" fill="black"/>
<path d="M101.598 243.927L102.49 242.243C102.582 242.072 102.07 241.934 101.348 241.934H91.7263C91.0043 241.938 90.3336 242.077 90.2268 242.248L89.1886 243.931C89.0796 244.108 89.5859 244.251 90.3186 244.251L100.098 244.247C100.831 244.247 101.501 244.104 101.595 243.927H101.598Z" fill="black"/>
<path d="M116.043 243.92L116.765 242.236C116.839 242.066 116.314 241.927 115.592 241.927H105.971C105.249 241.931 104.593 242.07 104.503 242.241L103.634 243.924C103.542 244.101 104.063 244.244 104.798 244.244L114.577 244.24C115.31 244.24 115.968 244.097 116.043 243.92Z" fill="black"/>
<path d="M129.833 241.923H120.214C119.492 241.927 118.849 242.066 118.778 242.237L118.08 243.92C118.007 244.097 118.541 244.241 119.276 244.241L129.055 244.236C129.788 244.236 130.431 244.093 130.489 243.916L131.04 242.233C131.095 242.062 130.557 241.923 129.835 241.923H129.833Z" fill="black"/>
<path d="M133.751 244.234L143.528 244.229C144.261 244.229 144.889 244.086 144.929 243.909L145.309 242.226C145.348 242.055 144.795 241.916 144.073 241.916H134.454C133.731 241.92 133.103 242.059 133.05 242.23L132.522 243.913C132.467 244.091 133.016 244.234 133.751 244.234Z" fill="black"/>
<path d="M148.226 244.229L158.003 244.225C158.736 244.225 159.349 244.082 159.37 243.905L159.58 242.221C159.601 242.05 159.033 241.912 158.313 241.912H148.694C147.972 241.916 147.359 242.055 147.322 242.226L146.966 243.909C146.929 244.086 147.493 244.229 148.226 244.229Z" fill="black"/>
<path d="M162.7 244.225L172.477 244.221C173.21 244.221 173.808 244.078 173.812 243.9L173.851 242.217C173.855 242.046 173.274 241.907 172.552 241.907H162.935C162.213 241.911 161.613 242.05 161.593 242.221L161.408 243.905C161.388 244.082 161.967 244.225 162.7 244.225Z" fill="black"/>
<path d="M177.172 244.219L186.947 244.215C187.68 244.215 188.263 244.072 188.25 243.894L188.118 242.211C188.105 242.04 187.509 241.901 186.787 241.901H177.17C176.448 241.906 175.863 242.044 175.861 242.215L175.846 243.899C175.846 244.076 176.437 244.219 177.17 244.217L177.172 244.219Z" fill="black"/>
<path d="M191.645 244.215L201.42 244.21C202.152 244.21 202.721 244.067 202.691 243.89L202.389 242.207C202.36 242.036 201.749 241.897 201.027 241.897H191.41C190.688 241.901 190.117 242.04 190.132 242.211L190.288 243.894C190.305 244.072 190.912 244.215 191.645 244.213V244.215Z" fill="black"/>
<path d="M215.262 241.895H205.645C204.923 241.899 204.366 242.038 204.4 242.209L204.727 243.892C204.761 244.069 205.383 244.212 206.117 244.21L215.892 244.206C216.625 244.206 217.181 244.063 217.129 243.886L216.657 242.202C216.608 242.031 215.984 241.893 215.264 241.893L215.262 241.895Z" fill="black"/>
<path d="M229.498 241.888H219.883C219.161 241.893 218.618 242.031 218.67 242.202L219.165 243.886C219.216 244.063 219.853 244.206 220.588 244.204L230.361 244.2C231.094 244.2 231.634 244.057 231.566 243.879L230.923 242.196C230.856 242.025 230.22 241.886 229.498 241.886V241.888Z" fill="black"/>
<path d="M243.733 241.884H234.118C233.396 241.888 232.866 242.027 232.934 242.198L233.601 243.881C233.671 244.059 234.323 244.202 235.056 244.2L244.829 244.195C245.561 244.195 246.087 244.052 246.001 243.875L245.187 242.192C245.104 242.021 244.453 241.882 243.731 241.882L243.733 241.884Z" fill="black"/>
<path d="M257.966 241.88H248.351C247.629 241.884 247.114 242.023 247.2 242.194L248.037 243.875C248.125 244.053 248.791 244.196 249.524 244.194L259.297 244.189C260.029 244.189 260.54 244.046 260.438 243.869L259.453 242.188C259.352 242.017 258.686 241.878 257.966 241.878V241.88Z" fill="black"/>
<path d="M263.808 244.191L282.852 244.185C283.584 244.185 284.071 244.042 283.939 243.864L282.677 242.183C282.548 242.012 281.858 241.874 281.138 241.874L262.402 241.88C261.68 241.88 261.18 242.019 261.283 242.192L262.289 243.873C262.394 244.05 263.075 244.193 263.808 244.191Z" fill="black"/>
<path d="M97.1282 244.915L87.3019 244.92C86.5649 244.92 85.8749 245.065 85.7617 245.244L84.6466 247C84.5292 247.184 85.0418 247.333 85.7916 247.333L95.7825 247.329C96.5323 247.329 97.2222 247.18 97.3226 246.994L98.286 245.238C98.3843 245.058 97.8674 244.913 97.1304 244.913L97.1282 244.915Z" fill="black"/>
<path d="M111.673 244.909L101.849 244.913C101.112 244.913 100.437 245.059 100.341 245.238L99.4034 246.994C99.3051 247.178 99.8327 247.327 100.583 247.327L110.573 247.323C111.323 247.323 111.998 247.174 112.079 246.99L112.863 245.234C112.945 245.054 112.41 244.909 111.673 244.909Z" fill="black"/>
<path d="M127.896 244.905L116.392 244.909C115.655 244.909 114.995 245.054 114.918 245.234L114.158 246.99C114.079 247.173 114.621 247.323 115.371 247.323L127.067 247.319C127.816 247.319 128.474 247.169 128.534 246.985L129.12 245.229C129.179 245.05 128.63 244.905 127.893 244.905H127.896Z" fill="black"/>
<path d="M216.072 244.875L133.36 244.902C132.623 244.902 131.98 245.048 131.924 245.227L131.373 246.983C131.316 247.167 131.875 247.316 132.625 247.316L216.728 247.286C217.478 247.286 218.042 247.137 217.99 246.953L217.497 245.197C217.446 245.018 216.809 244.873 216.072 244.873V244.875Z" fill="black"/>
<path d="M230.612 244.871L220.792 244.875C220.055 244.875 219.502 245.02 219.553 245.2L220.072 246.955C220.125 247.139 220.777 247.289 221.527 247.289L231.511 247.284C232.261 247.284 232.81 247.135 232.74 246.951L232.069 245.195C232 245.016 231.347 244.871 230.612 244.871Z" fill="black"/>
<path d="M245.146 244.864L235.328 244.869C234.591 244.869 234.053 245.014 234.123 245.193L234.82 246.949C234.892 247.133 235.559 247.282 236.309 247.282L246.293 247.278C247.043 247.278 247.577 247.129 247.487 246.945L246.639 245.189C246.552 245.01 245.885 244.864 245.148 244.864H245.146Z" fill="black"/>
<path d="M277.588 235.396L276.471 233.907C276.357 233.756 275.714 233.632 275.035 233.632L254.823 233.638C254.143 233.638 253.665 233.762 253.753 233.914L254.613 235.403C254.703 235.559 255.335 235.685 256.025 235.685L276.552 235.678C277.242 235.678 277.705 235.552 277.588 235.394V235.396Z" fill="black"/>
<path d="M77.0977 238.464L91.6471 238.46C92.3521 238.46 93.0036 238.328 93.1019 238.165L94.0546 236.614C94.1529 236.456 93.6701 236.328 92.9758 236.328L78.6529 236.332C77.9608 236.332 77.3028 236.461 77.1853 236.619L76.0382 238.169C75.9186 238.332 76.3907 238.464 77.0956 238.464H77.0977Z" fill="black"/>
<path d="M75.0283 241.301L93.6962 241.294C94.414 241.294 95.0783 241.156 95.1766 240.987L96.125 239.372C96.2212 239.207 95.7277 239.073 95.0206 239.073L76.6497 239.079C75.9426 239.079 75.2697 239.214 75.1479 239.378L73.9538 240.993C73.8278 241.162 74.3084 241.301 75.0283 241.299V241.301Z" fill="black"/>
<path d="M87.1508 243.931L88.2146 242.247C88.3236 242.076 87.8258 241.935 87.1038 241.938L74.5603 241.942C73.8382 241.942 73.1504 242.081 73.0244 242.254L71.779 243.937C71.6487 244.114 72.1379 244.257 72.8706 244.257L85.6213 244.253C86.354 244.253 87.0397 244.11 87.1508 243.933V243.931Z" fill="black"/>
<path d="M82.2094 244.92L72.383 244.924C71.646 244.924 70.9411 245.069 70.8087 245.249L69.5099 247.005C69.3732 247.188 69.8709 247.338 70.6207 247.338L80.6115 247.333C81.3613 247.333 82.0662 247.184 82.1859 246.998L83.3308 245.242C83.4483 245.063 82.9442 244.917 82.2072 244.917L82.2094 244.92Z" fill="black"/>
<path d="M95.2028 233.122H104.219C104.897 233.12 105.51 232.996 105.593 232.846L106.003 232.094C106.084 231.947 105.606 231.827 104.937 231.827H96.0081C95.3373 231.829 94.72 231.951 94.626 232.098L94.1518 232.85C94.0578 233 94.5277 233.122 95.2049 233.122H95.2028Z" fill="black"/>
<path d="M109.407 233.117H118.424C119.101 233.115 119.702 232.991 119.768 232.842L120.097 232.09C120.161 231.942 119.672 231.823 119.001 231.823H110.072C109.401 231.825 108.797 231.947 108.72 232.094L108.327 232.846C108.248 232.996 108.732 233.117 109.41 233.117H109.407Z" fill="black"/>
<path d="M123.612 233.113H132.629C133.306 233.111 133.893 232.987 133.943 232.837L134.19 232.085C134.239 231.938 133.735 231.818 133.067 231.818H124.14C123.469 231.82 122.877 231.942 122.815 232.09L122.503 232.842C122.441 232.991 122.939 233.113 123.614 233.113H123.612Z" fill="black"/>
<path d="M137.816 233.108H146.83C147.507 233.106 148.082 232.982 148.114 232.833L148.281 232.081C148.313 231.934 147.798 231.814 147.127 231.814H138.2C137.531 231.816 136.95 231.938 136.906 232.085L136.675 232.837C136.628 232.987 137.138 233.108 137.816 233.108Z" fill="black"/>
<path d="M152.017 233.102H161.032C161.709 233.1 162.271 232.976 162.288 232.827L162.373 232.075C162.391 231.927 161.861 231.808 161.192 231.808H152.265C151.597 231.81 151.028 231.932 150.998 232.079L150.849 232.831C150.819 232.98 151.342 233.102 152.019 233.102H152.017Z" fill="black"/>
<path d="M166.22 233.098H175.235C175.912 233.096 176.459 232.972 176.461 232.823L176.465 232.071C176.465 231.923 175.925 231.804 175.254 231.804H166.327C165.658 231.806 165.103 231.928 165.09 232.075L165.022 232.827C165.009 232.976 165.545 233.098 166.22 233.098Z" fill="black"/>
<path d="M180.42 233.094H189.434C190.111 233.092 190.645 232.968 190.631 232.818L190.554 232.066C190.539 231.919 189.983 231.799 189.315 231.799H180.39C179.721 231.801 179.179 231.923 179.181 232.071L179.193 232.823C179.196 232.972 179.747 233.094 180.422 233.094H180.42Z" fill="black"/>
<path d="M194.621 233.089H203.634C204.311 233.087 204.832 232.963 204.8 232.814L204.642 232.062C204.61 231.915 204.044 231.795 203.373 231.795H194.448C193.78 231.797 193.25 231.917 193.269 232.066L193.361 232.818C193.38 232.968 193.942 233.089 194.619 233.089H194.621Z" fill="black"/>
<path d="M208.818 233.085H217.83C218.505 233.083 219.016 232.959 218.969 232.809L218.73 232.058C218.683 231.91 218.102 231.791 217.433 231.791H208.508C207.84 231.793 207.325 231.912 207.359 232.062L207.532 232.814C207.566 232.963 208.143 233.085 208.82 233.085H208.818Z" fill="black"/>
<path d="M223.017 233.081H232.03C232.705 233.079 233.203 232.955 233.139 232.806L232.818 232.054C232.754 231.906 232.162 231.787 231.492 231.787H222.569C221.9 231.789 221.398 231.91 221.447 232.058L221.702 232.81C221.753 232.959 222.342 233.081 223.017 233.081Z" fill="black"/>
<path d="M237.214 233.077H246.227C246.902 233.075 247.385 232.951 247.305 232.801L246.904 232.049C246.825 231.902 246.218 231.782 245.55 231.782H236.627C235.958 231.784 235.469 231.904 235.535 232.054L235.871 232.805C235.937 232.955 236.539 233.077 237.216 233.077H237.214Z" fill="black"/>
<path d="M251.409 233.072H260.419C261.094 233.07 261.564 232.946 261.468 232.797L260.985 232.045C260.891 231.897 260.272 231.778 259.601 231.778H250.678C250.01 231.78 249.533 231.9 249.614 232.049L250.031 232.801C250.114 232.951 250.73 233.072 251.407 233.072H251.409Z" fill="black"/>
<path d="M272.687 246.21H264.281C263.538 246.212 263.023 246.362 263.132 246.543L263.367 246.938C263.476 247.122 264.172 247.272 264.92 247.272H273.387C274.137 247.27 274.643 247.118 274.52 246.934L274.255 246.539C274.133 246.357 273.43 246.208 272.687 246.21Z" fill="black"/>
<path d="M271.691 244.702H263.373C262.638 244.704 262.128 244.849 262.232 245.028L262.461 245.415C262.568 245.595 263.256 245.742 263.997 245.742H272.375C273.116 245.74 273.618 245.592 273.498 245.413L273.24 245.026C273.12 244.847 272.426 244.704 271.691 244.704V244.702Z" fill="black"/>
<path d="M284.536 246.206H276.13C275.387 246.208 274.885 246.357 275.006 246.539L275.273 246.934C275.397 247.118 276.107 247.267 276.854 247.267H285.32C286.07 247.265 286.563 247.113 286.424 246.93L286.127 246.535C285.991 246.353 285.277 246.203 284.534 246.206H284.536Z" fill="black"/>
<path d="M260.462 246.214H252.056C251.313 246.217 250.785 246.366 250.877 246.548L251.078 246.943C251.172 247.127 251.855 247.276 252.603 247.276H261.071C261.82 247.274 262.339 247.122 262.231 246.939L262 246.543C261.893 246.362 261.203 246.212 260.46 246.214H260.462Z" fill="black"/>
<path d="M265.604 233.068H274.615C275.29 233.066 275.747 232.942 275.634 232.792L275.07 232.04C274.958 231.893 274.326 231.773 273.658 231.773H264.735C264.066 231.776 263.603 231.895 263.701 232.045L264.199 232.797C264.299 232.946 264.927 233.068 265.602 233.068H265.604Z" fill="black"/>
<path d="M313.272 248.226H295.854C295.19 248.226 294.502 248.036 294.316 247.803L281.296 231.429C281.151 231.246 281.508 231.096 282.093 231.096H297.48C298.065 231.096 298.68 231.246 298.851 231.429L314.084 247.803C314.302 248.036 313.941 248.226 313.277 248.226H313.272Z" fill="#C8C8C7"/>
<path d="M60.0441 248.226H42.6258C41.9615 248.226 41.6005 248.036 41.8184 247.803L57.0513 231.429C57.2222 231.246 57.8353 231.096 58.4227 231.096H73.8095C74.3948 231.096 74.7537 231.246 74.6063 231.429L61.5864 247.803C61.4006 248.036 60.7106 248.226 60.0484 248.226H60.0441Z" fill="#C8C8C7"/>
<path d="M247.332 269.113H94.1163L103.77 249.811H239.343L247.332 269.113Z" fill="#C8C8C7"/>
<path d="M275.462 229.641H80.4365L81.4469 228.312H274.451L275.462 229.641Z" fill="#343433"/>
<path d="M163.575 123.996C163.575 116.577 169.605 110.542 177.022 110.532C184.437 110.521 190.506 116.686 190.506 124.1V131.972C190.506 134.659 192.684 136.841 195.374 136.841C198.061 136.841 200.242 134.662 200.242 131.972V123.994C200.242 111.181 189.856 100.795 177.043 100.795C164.231 100.795 153.845 111.181 153.845 123.994V131.972C153.845 134.659 156.024 136.841 158.713 136.841C161.4 136.841 163.581 134.662 163.581 131.972V123.994L163.575 123.996Z" fill="#F3F3F3"/>
<path d="M209.597 150.694C209.597 150.694 209.597 150.689 209.597 150.687V150.343C209.597 144.738 205.053 140.194 199.448 140.194H154.631C149.026 140.194 144.482 144.738 144.482 150.343V169.763C144.482 183.556 155.665 194.737 169.458 194.737H170.3C170.3 194.737 170.315 194.737 170.324 194.737H183.76C183.76 194.737 183.777 194.737 183.784 194.737H184.623C198.416 194.737 209.599 183.556 209.599 169.763V168.913C209.599 168.913 209.599 168.902 209.599 168.898V150.694H209.597ZM177.04 153.96C177.164 153.96 177.285 153.962 177.405 153.968C177.305 153.975 177.206 153.981 177.108 153.99C180.904 154.295 183.892 157.467 183.892 161.342C183.892 163.662 182.822 165.73 181.15 167.084C180.992 167.213 180.827 167.334 180.658 167.45L180.69 167.762L181.985 180.7H171.836L173.145 167.614L173.163 167.447C173.077 167.39 172.994 167.33 172.913 167.268C171.101 165.924 169.926 163.769 169.926 161.34C169.926 157.465 172.915 154.293 176.711 153.988C176.653 153.983 176.593 153.979 176.536 153.975C176.702 153.964 176.871 153.958 177.042 153.958L177.04 153.96Z" fill="#F3F3F3"/>
<path d="M68.3613 42.3942V25.2771C68.3613 24.4867 68.3699 23.6942 68.3613 22.9038C68.3613 22.8932 68.3613 22.8803 68.3613 22.8697C68.3613 22.028 67.9939 21.1415 67.4001 20.5477C66.8297 19.9773 65.8962 19.5479 65.0781 19.5864C64.2279 19.6248 63.3478 19.9025 62.7561 20.5477C62.1665 21.1906 61.7948 21.981 61.7948 22.8697V39.9867C61.7948 40.7771 61.7862 41.5696 61.7948 42.36C61.7948 42.3707 61.7948 42.3835 61.7948 42.3942C61.7948 43.2358 62.1622 44.1223 62.7561 44.7162C63.3499 45.31 64.2599 45.7159 65.0781 45.6775C65.9283 45.639 66.8084 45.3613 67.4001 44.7162C67.9897 44.0732 68.3613 43.2828 68.3613 42.3942Z" fill="#A1FF00"/>
<path d="M48.046 46.0599C47.7234 45.5002 47.4009 44.9406 47.0783 44.383C46.2986 43.033 45.5189 41.6808 44.7392 40.3307C43.7993 38.703 42.8615 37.0773 41.9216 35.4496C41.1099 34.0419 40.2981 32.6363 39.4842 31.2285C39.0891 30.5428 38.7003 29.8528 38.2965 29.1714C38.2901 29.1607 38.2859 29.1522 38.2794 29.1415C37.8672 28.428 37.1088 27.8491 36.3163 27.6312C35.5302 27.4155 34.4835 27.5116 33.785 27.9623C33.0843 28.4152 32.4669 29.0881 32.2747 29.9255C32.0782 30.7906 32.1551 31.675 32.6058 32.4568C32.9284 33.0165 33.2509 33.5762 33.5735 34.1337C34.3532 35.4838 35.1329 36.8359 35.9126 38.186C36.8525 39.8138 37.7903 41.4394 38.7302 43.0671C39.5419 44.4749 40.3537 45.8805 41.1675 47.2882C41.5627 47.9739 41.9515 48.6639 42.3552 49.3453C42.3617 49.356 42.3659 49.3645 42.3723 49.3752C42.7846 50.0887 43.543 50.6676 44.3355 50.8855C45.1216 51.1012 46.1683 51.0051 46.8668 50.5544C47.5675 50.1015 48.1848 49.4286 48.3771 48.5913C48.5736 47.7261 48.4967 46.8417 48.046 46.0599Z" fill="#A1FF00"/>
<path d="M32.3218 59.4257C31.7621 59.1031 31.2046 58.7805 30.6449 58.458C29.2948 57.6783 27.9426 56.8986 26.5926 56.1189C24.9648 55.179 23.3392 54.2412 21.7114 53.3013C20.3037 52.4895 18.8981 51.6778 17.4904 50.8639C16.8047 50.4687 16.1232 50.065 15.4333 49.6762C15.4226 49.6698 15.414 49.6655 15.4034 49.6591C14.6621 49.2319 13.6987 49.0995 12.872 49.328C12.1094 49.5374 11.2848 50.1269 10.9089 50.8383C10.5051 51.6009 10.3043 52.5237 10.5778 53.3696C10.8405 54.1814 11.334 54.897 12.088 55.3328L13.7649 56.3005C15.115 57.0802 16.4672 57.8599 17.8172 58.6396C19.445 59.5795 21.0706 60.5172 22.6984 61.4572C24.1061 62.2689 25.5117 63.0806 26.9194 63.8945C27.6051 64.2897 28.2866 64.6934 28.9765 65.0822C28.9872 65.0886 28.9958 65.0929 29.0064 65.0993C29.7477 65.5265 30.7111 65.659 31.5378 65.4304C32.3004 65.2211 33.125 64.6315 33.5009 63.9201C33.9047 63.1575 34.1055 62.2347 33.832 61.3888C33.5693 60.5771 33.0758 59.8614 32.3218 59.4257Z" fill="#A1FF00"/>
<path d="M25.3406 78.8456H8.22353C7.43315 78.8456 6.64063 78.837 5.85025 78.8456C5.83957 78.8456 5.82675 78.8456 5.81607 78.8456C4.97442 78.8456 4.08792 79.213 3.49406 79.8069C2.90021 80.4007 2.49434 81.3107 2.53279 82.1289C2.57124 82.9791 2.84894 83.8592 3.49406 84.4509C4.13705 85.0405 4.92743 85.4122 5.81607 85.4122H22.9331C23.7235 85.4122 24.516 85.4207 25.3064 85.4122C25.3171 85.4122 25.3299 85.4122 25.3406 85.4122C26.1822 85.4122 27.0687 85.0447 27.6626 84.4509C28.233 83.8805 28.6623 82.947 28.6239 82.1289C28.5854 81.2787 28.3077 80.3986 27.6626 79.8069C27.0196 79.2173 26.2292 78.8456 25.3406 78.8456Z" fill="#A1FF00"/>
<g style="mix-blend-mode:multiply">
<rect x="241.48" y="21.4976" width="164.242" height="175.42" rx="20" fill="#C9C9C9"/>
</g>
<rect x="250" y="13" width="164" height="175" rx="20" fill="white"/>
<path d="M352.65 61.3254C351.207 59.0457 349.405 57.0855 347.341 55.4448C343.143 52.103 336.391 49.7455 331.843 52.0512C327.295 49.7455 320.552 52.103 316.345 55.4448C314.281 57.0855 312.479 59.0457 311.036 61.3254C308.255 65.7294 306.514 70.9365 306.418 76.1349C306.366 78.855 311.771 91.3156 312.899 92.4728C314.937 94.5625 317.858 97.4898 320.823 98.077C320.867 98.077 320.902 98.0943 320.945 98.103C325.695 94.1566 327.636 92.5418 331.834 89.0532C336.033 92.5418 337.974 94.1566 342.723 98.103C342.767 98.103 342.802 98.0857 342.846 98.077C345.811 97.4985 348.732 94.5625 350.77 92.4728C351.898 91.3156 357.303 78.855 357.251 76.1349C357.155 70.9278 355.423 65.7294 352.633 61.3254H352.65Z" fill="url(#paint0_linear_1683_10989)"/>
<path d="M342.812 104.2L332.492 99.8735L322.171 104.2C322.171 104.2 323.439 119.691 318.358 123.318C318.358 123.318 322.031 134.898 332.492 134.898C342.952 134.898 346.625 123.318 346.625 123.318C341.535 119.691 342.812 104.2 342.812 104.2Z" fill="#FFC3B1"/>
<path d="M327.979 122.308C332.99 118.681 338.553 116.565 342.803 112.162C342.515 107.93 342.821 104.2 342.821 104.2L332.5 99.8735L322.18 104.2C322.18 104.2 323.448 119.691 318.367 123.318C318.367 123.318 319.976 126.824 324.06 129.225C324.069 126.721 325.04 124.441 327.979 122.317V122.308Z" fill="#F09982"/>
<path d="M314.85 87.8353C314.85 87.8353 312.663 85.7802 311.299 86.8077C310.835 87.1532 310.1 88.2326 310.704 89.7265C312.436 94.0527 312.89 97.2737 314.517 97.9386C315.812 98.4653 317.657 96.7556 317.657 96.7556L314.85 87.8353Z" fill="#FFC3B1"/>
<path d="M315.97 94.8218C315.725 88.5181 311.929 88.5181 311.929 88.5181C312.891 89.7702 313.127 90.6682 313.355 92.024C313.424 92.4557 313.626 93.7597 313.564 94.2691C313.25 97.0497 316.057 97.231 315.97 94.8218Z" fill="#F09982"/>
<path d="M350.147 87.8353C350.147 87.8353 352.334 85.7802 353.698 86.8077C354.162 87.1532 354.897 88.2326 354.293 89.7265C352.561 94.0527 352.107 97.2737 350.48 97.9386C349.185 98.4653 347.34 96.7556 347.34 96.7556L350.147 87.8353Z" fill="#FFC3B1"/>
<path d="M349.028 94.8218C349.273 88.5181 353.069 88.5181 353.069 88.5181C352.106 89.7702 351.87 90.6682 351.643 92.024C351.573 92.4557 351.372 93.7597 351.433 94.2691C351.748 97.0497 348.94 97.231 349.028 94.8218Z" fill="#F09982"/>
<path d="M332.499 59.2785C332.499 59.2785 321.05 57.7414 312.007 64.4424C312.007 64.4424 312.855 92.9042 315.68 99.8814C318.505 106.859 328.966 115.649 332.499 115.649C336.033 115.649 346.493 106.859 349.318 99.8814C352.143 92.9042 352.991 64.4424 352.991 64.4424C343.948 57.7414 332.499 59.2785 332.499 59.2785Z" fill="#FFC3B1"/>
<path d="M332.501 55.6263C304.986 55.4795 309.857 75.4356 309.857 75.4356C324.306 75.0729 330.14 68.5274 332.501 63.0612C334.863 68.5274 340.696 75.0729 355.145 75.4356C355.145 75.4356 360.016 55.4795 332.501 55.6263Z" fill="url(#paint1_linear_1683_10989)"/>
<path d="M334.95 97.3169C334.95 97.3169 334.967 98.0336 334.39 98.4222C333.804 98.8108 332.501 98.6726 332.501 98.6726C332.501 98.6726 331.189 98.8194 330.612 98.4222C330.026 98.0336 330.052 97.3169 330.052 97.3169C329.343 97.3773 328.993 98.2581 329.536 99.1648C329.886 99.7434 331.014 99.7952 331.775 99.752C332.265 99.7261 332.754 99.7261 333.244 99.752C334.005 99.7952 335.133 99.752 335.483 99.1648C336.025 98.2581 335.667 97.3773 334.967 97.3169H334.95Z" fill="#D67E6B"/>
<mask id="mask0_1683_10989" style="mask-type:luminance" maskUnits="userSpaceOnUse" x="336" y="84" width="12" height="6">
<path d="M336.944 87.6464C336.944 87.6464 338.168 84.1577 341.798 84.1577C345.427 84.1577 347.404 86.1093 347.404 86.1093C347.404 86.1093 346.547 88.4494 344.789 88.8553C342.646 89.3475 340.809 89.3907 339.489 88.9589C338.763 88.7258 338.22 88.4753 336.944 87.6464Z" fill="white"/>
</mask>
<g mask="url(#mask0_1683_10989)">
<path d="M345.122 86.394C345.122 88.0001 343.801 89.304 342.174 89.304C340.547 89.304 339.227 88.0001 339.227 86.394C339.227 84.7878 340.547 83.4839 342.174 83.4839C343.801 83.4839 345.122 84.7878 345.122 86.394Z" fill="url(#paint2_linear_1683_10989)"/>
<path d="M341.798 85.5309C344.614 85.5309 346.424 86.239 347.098 86.7657C347.299 86.3944 347.404 86.1181 347.404 86.1181C347.404 86.1181 345.427 84.1665 341.798 84.1665C338.168 84.1665 336.944 87.6551 336.944 87.6551C337.066 87.7329 337.171 87.8019 337.276 87.871C337.844 86.8521 339.209 85.5395 341.798 85.5395V85.5309Z" fill="url(#paint3_linear_1683_10989)"/>
<path d="M344.789 88.2768C342.646 88.769 340.809 88.8122 339.489 88.3805C338.806 88.1559 338.273 87.9228 337.145 87.1888C337.014 87.4565 336.944 87.6378 336.944 87.6378C338.212 88.4754 338.763 88.7172 339.489 88.9504C340.809 89.3735 342.646 89.3303 344.789 88.8468C346.547 88.4495 347.404 86.1007 347.404 86.1007C347.404 86.1007 347.325 86.0317 347.22 85.9453C346.888 86.6361 346.083 87.9746 344.789 88.2768Z" fill="#D67E6B"/>
</g>
<mask id="mask1_1683_10989" style="mask-type:luminance" maskUnits="userSpaceOnUse" x="317" y="84" width="12" height="6">
<path d="M328.058 87.6464C328.058 87.6464 326.834 84.1577 323.204 84.1577C319.575 84.1577 317.598 86.1093 317.598 86.1093C317.598 86.1093 318.455 88.4494 320.213 88.8553C322.356 89.3475 324.193 89.3907 325.513 88.9589C326.239 88.7258 326.781 88.4753 328.058 87.6464Z" fill="white"/>
</mask>
<g mask="url(#mask1_1683_10989)">
<path d="M319.881 86.394C319.881 88.0001 321.202 89.304 322.829 89.304C324.455 89.304 325.776 88.0001 325.776 86.394C325.776 84.7878 324.455 83.4839 322.829 83.4839C321.202 83.4839 319.881 84.7878 319.881 86.394Z" fill="url(#paint4_linear_1683_10989)"/>
<path d="M323.204 85.5309C320.388 85.5309 318.578 86.239 317.904 86.7657C317.703 86.3944 317.598 86.1181 317.598 86.1181C317.598 86.1181 319.575 84.1665 323.204 84.1665C326.834 84.1665 328.058 87.6551 328.058 87.6551C327.936 87.7329 327.831 87.8019 327.726 87.871C327.158 86.8521 325.802 85.5395 323.204 85.5395V85.5309Z" fill="url(#paint5_linear_1683_10989)"/>
<path d="M320.213 88.2768C322.356 88.769 324.193 88.8122 325.513 88.3805C326.195 88.1559 326.729 87.9228 327.857 87.1888C327.988 87.4565 328.058 87.6378 328.058 87.6378C326.79 88.4754 326.239 88.7172 325.513 88.9504C324.193 89.3735 322.356 89.3303 320.213 88.8468C318.455 88.4495 317.598 86.1007 317.598 86.1007C317.598 86.1007 317.677 86.0317 317.782 85.9453C318.114 86.6361 318.919 87.9746 320.213 88.2768Z" fill="#D67E6B"/>
</g>
<path d="M341.798 85.5302C344.614 85.5302 346.424 86.2383 347.098 86.765C347.299 86.3937 347.404 86.1174 347.404 86.1174C347.404 86.1174 345.427 83.7427 341.798 83.7427C338.168 83.7427 336.944 87.6458 336.944 87.6458C337.066 87.7235 337.171 87.7926 337.276 87.8617C337.845 86.8427 339.209 85.5302 341.798 85.5302Z" fill="url(#paint6_linear_1683_10989)"/>
<path d="M323.203 85.5302C320.387 85.5302 318.577 86.2383 317.903 86.765C317.702 86.3937 317.597 86.1174 317.597 86.1174C317.597 86.1174 319.574 83.7427 323.203 83.7427C326.833 83.7427 328.058 87.6458 328.058 87.6458C327.935 87.7235 327.83 87.7926 327.725 87.8617C327.157 86.8427 325.801 85.5302 323.203 85.5302Z" fill="url(#paint7_linear_1683_10989)"/>
<path d="M367.991 123.948C362.761 119.484 345.312 121.79 345.312 121.79C344.831 124.043 343.799 125.865 342.505 127.333C337.31 133.249 327.698 133.249 322.503 127.333C321.208 125.865 320.176 124.043 319.695 121.79C319.695 121.79 302.238 119.484 297.016 123.948C291.786 128.413 288.463 136.858 288.113 143.619H376.904C376.554 136.849 373.23 128.413 368 123.948H367.991Z" fill="url(#paint8_linear_1683_10989)"/>
<path d="M350.561 78.3194C350.561 78.3194 349.197 76.6096 343.914 76.2469C337.363 75.7892 337.162 76.7823 337.153 78.7598C337.153 80.7372 342.41 80.15 344.78 80.2968C347.15 80.4436 351.418 79.5628 350.561 78.3194Z" fill="url(#paint9_linear_1683_10989)"/>
<path d="M314.439 78.3194C314.439 78.3194 315.804 76.6096 321.086 76.2469C327.637 75.7892 327.838 76.7823 327.847 78.7598C327.847 80.7372 322.591 80.15 320.22 80.2968C317.85 80.4436 313.582 79.5628 314.439 78.3194Z" fill="url(#paint10_linear_1683_10989)"/>
<path d="M332.5 103.509C329.693 103.509 327.165 102.377 327.165 102.377C327.296 103.042 327.996 104.303 328.836 104.761C331.136 106.004 333.856 106.004 336.156 104.761C337.005 104.303 337.695 103.042 337.827 102.377C337.827 102.377 335.299 103.509 332.492 103.509H332.5Z" fill="#E45B54"/>
<path d="M353.192 74.3301L351.172 73.0521C350.997 76.1349 350.594 81.4369 350.288 84.8997C349.72 91.4538 347.35 97.0581 346.204 99.8818C346.134 100.055 346.038 100.227 345.959 100.4C345.277 100.866 344.595 101.324 343.904 101.764C342.119 101.16 337.729 99.8732 332.49 99.8732C327.251 99.8732 322.86 101.16 321.076 101.764C320.446 101.358 319.825 100.944 319.204 100.521C319.1 100.305 318.986 100.08 318.907 99.8732C317.761 97.0495 315.391 91.4452 314.823 84.891C314.525 81.4369 314.114 76.1349 313.939 73.0435L311.919 74.3215C312.348 81.8946 313.485 91.8683 314.893 97.369C314.866 97.3517 314.84 97.3344 314.823 97.3172C315.339 102.801 316.056 111.41 317.018 113.793C319.616 120.209 329.236 124.786 332.49 124.786C335.743 124.786 345.364 120.209 347.962 113.793C348.906 111.47 349.606 103.232 350.113 97.7489C351.556 92.3432 352.746 82.0759 353.183 74.3301H353.192ZM324.548 103.863C327.391 102.213 332.499 102.075 332.499 102.075C332.499 102.075 337.598 102.213 340.449 103.863C337.195 105.702 334.239 106.945 332.499 106.945C330.758 106.945 327.811 105.693 324.548 103.863Z" fill="url(#paint11_linear_1683_10989)"/>
<path d="M277.705 54.2876H280.303V42.5264H292.215V39.9531H277.705V54.2876Z" fill="#A1FF00"/>
<path d="M372.785 39.9531V42.5264H384.697V54.2876H387.295V39.9531H372.785Z" fill="#A1FF00"/>
<path d="M384.697 150.614H372.785V153.179H387.295V138.844H384.697V150.614Z" fill="#A1FF00"/>
<path d="M280.303 138.844H277.705V153.179H292.215V150.614H280.303V138.844Z" fill="#A1FF00"/>
<path d="M270 48.3465H272.965V34.9274H286.556V32H270V48.3465Z" fill="black"/>
<path d="M378.443 32V34.9274H392.035V48.3465H395V32H378.443Z" fill="black"/>
<path d="M392.035 158.204H378.443V161.131H395V144.785H392.035V158.204Z" fill="black"/>
<path d="M272.965 144.785H270V161.132H286.556V158.204H272.965V144.785Z" fill="black"/>
<path d="M368.027 41.8098H364.782V40.6182H368.027V41.8098ZM361.021 41.8098H357.251V40.6182H361.021V41.8098ZM353.482 41.8098H349.712V40.6182H353.482V41.8098ZM345.943 41.8098H342.173V40.6182H345.943V41.8098ZM338.403 41.8098H334.634V40.6182H338.403V41.8098ZM330.864 41.8098H327.095V40.6182H330.864V41.8098ZM323.325 41.8098H319.555V40.6182H323.325V41.8098ZM315.786 41.8098H312.016V40.6182H315.786V41.8098ZM308.247 41.8098H304.477V40.6182H308.247V41.8098ZM300.708 41.8098H296.938V40.6182H300.708V41.8098Z" fill="#A1FF00"/>
<path d="M368.027 152.548H364.782V151.356H368.027V152.548ZM361.021 152.548H357.251V151.356H361.021V152.548ZM353.482 152.548H349.712V151.356H353.482V152.548ZM345.943 152.548H342.173V151.356H345.943V152.548ZM338.403 152.548H334.634V151.356H338.403V152.548ZM330.864 152.548H327.095V151.356H330.864V152.548ZM323.325 152.548H319.555V151.356H323.325V152.548ZM315.786 152.548H312.016V151.356H315.786V152.548ZM308.247 152.548H304.477V151.356H308.247V152.548ZM300.708 152.548H296.938V151.356H300.708V152.548Z" fill="#A1FF00"/>
<path d="M385.361 131.642V128.439H386.568V131.642H385.361ZM385.361 124.726V121.004H386.568V124.726H385.361ZM385.361 117.282V113.56H386.568V117.282H385.361ZM385.361 109.838V106.117H386.568V109.838H385.361ZM385.361 102.395V98.673H386.568V102.395H385.361ZM385.361 94.9512V91.2294H386.568V94.9512H385.361ZM385.361 87.5076V83.7858H386.568V87.5076H385.361ZM385.361 80.064V76.3422H386.568V80.064H385.361ZM385.361 72.6205V68.8987H386.568V72.6205H385.361ZM385.361 65.1769V61.4551H386.568V65.1769H385.361Z" fill="#A1FF00"/>
<path d="M278.284 131.642V128.439H279.49V131.642H278.284ZM278.284 124.726V121.004H279.49V124.726H278.284ZM278.284 117.282V113.56H279.49V117.282H278.284ZM278.284 109.838V106.117H279.49V109.838H278.284ZM278.284 102.395V98.673H279.49V102.395H278.284ZM278.284 94.9512V91.2294H279.49V94.9512H278.284ZM278.284 87.5076V83.7858H279.49V87.5076H278.284ZM278.284 80.064V76.3422H279.49V80.064H278.284ZM278.284 72.6205V68.8987H279.49V72.6205H278.284ZM278.284 65.1769V61.4551H279.49V65.1769H278.284Z" fill="#A1FF00"/>
<path d="M330.821 143.343C329.676 143.3 328.512 143.222 327.375 143.101L328.171 135.761C329.133 135.865 330.113 135.934 331.084 135.968L330.821 143.343ZM334.276 143.343L333.996 135.968C334.958 135.934 335.938 135.865 336.909 135.761L337.722 143.092C336.576 143.213 335.422 143.3 334.276 143.343ZM323.947 142.618C322.819 142.41 321.682 142.168 320.571 141.884L322.443 134.742C323.378 134.984 324.34 135.191 325.285 135.364L323.947 142.618ZM341.142 142.6L339.786 135.347C340.739 135.174 341.693 134.967 342.629 134.725L344.527 141.858C343.416 142.143 342.279 142.393 341.151 142.6H341.142ZM317.247 140.908C316.154 140.545 315.061 140.131 314.002 139.69L316.924 132.903C317.807 133.274 318.725 133.62 319.644 133.93L317.247 140.916V140.908ZM347.833 140.873L345.41 133.896C346.328 133.585 347.238 133.24 348.13 132.868L351.06 139.656C350.01 140.096 348.926 140.51 347.833 140.882V140.873ZM310.871 138.239C309.848 137.721 308.834 137.16 307.854 136.564L311.746 130.269C312.568 130.77 313.425 131.236 314.291 131.677L310.88 138.239H310.871ZM354.191 138.196L350.763 131.642C351.62 131.202 352.477 130.727 353.299 130.235L357.2 136.521C356.22 137.117 355.206 137.678 354.182 138.196H354.191ZM304.959 134.682C304.023 134.017 303.105 133.317 302.221 132.601L306.997 126.927C307.74 127.54 308.519 128.128 309.306 128.689L304.959 134.69V134.682ZM360.086 134.639L355.73 128.646C356.518 128.093 357.287 127.497 358.039 126.884L362.824 132.549C361.94 133.274 361.022 133.982 360.086 134.639ZM299.65 130.321C298.819 129.535 298.015 128.715 297.245 127.868L302.799 122.938C303.446 123.646 304.128 124.345 304.828 125.01L299.65 130.33V130.321ZM365.404 130.269L360.217 124.958C360.917 124.294 361.599 123.594 362.238 122.886L367.8 127.808C367.039 128.646 366.226 129.475 365.404 130.269ZM295.032 125.243C294.332 124.354 293.65 123.421 293.012 122.471L299.23 118.387C299.764 119.181 300.341 119.967 300.936 120.727L295.032 125.252V125.243ZM370.022 125.183L364.109 120.675C364.704 119.915 365.281 119.121 365.806 118.335L372.033 122.411C371.403 123.352 370.721 124.285 370.022 125.183ZM291.21 119.561C290.642 118.568 290.108 117.549 289.618 116.53L296.379 113.387C296.79 114.251 297.236 115.106 297.717 115.943L291.21 119.57V119.561ZM373.844 119.492L367.328 115.874C367.8 115.037 368.255 114.173 368.666 113.318L375.427 116.453C374.937 117.48 374.403 118.499 373.844 119.492ZM288.263 113.396C287.843 112.325 287.467 111.237 287.143 110.158L294.297 108.025C294.577 108.931 294.892 109.847 295.242 110.745L288.271 113.396H288.263ZM376.782 113.309L369.803 110.676C370.153 109.778 370.468 108.862 370.748 107.947L377.902 110.071C377.57 111.159 377.193 112.247 376.782 113.309ZM286.26 106.859C286.006 105.745 285.796 104.614 285.63 103.5L293.02 102.429C293.16 103.37 293.335 104.32 293.554 105.253L286.26 106.868V106.859ZM378.776 106.764L371.482 105.175C371.692 104.234 371.867 103.284 372.007 102.343L379.397 103.405C379.231 104.519 379.021 105.65 378.776 106.764ZM285.245 100.115C285.158 98.9922 285.114 97.8437 285.114 96.7039L292.583 96.6866C292.583 97.6451 292.618 98.6123 292.697 99.5621L285.245 100.106V100.115ZM379.774 100.011L372.322 99.4844C372.392 98.5345 372.427 97.5588 372.427 96.6089V96.4534L379.896 96.393V96.6089C379.896 97.7401 379.852 98.8886 379.774 100.02V100.011ZM292.688 93.8024L285.236 93.2843C285.315 92.1531 285.438 91.0132 285.604 89.8907L293.003 90.9355C292.863 91.8854 292.758 92.8439 292.697 93.8024H292.688ZM372.313 93.552C372.243 92.6021 372.129 91.6436 371.989 90.6937L379.38 89.5971C379.555 90.7196 379.677 91.8595 379.765 92.9907L372.313 93.5434V93.552ZM293.519 88.1118L286.225 86.5315C286.47 85.4262 286.758 84.3123 287.091 83.2242L294.254 85.3312C293.974 86.2466 293.729 87.1878 293.528 88.1204L293.519 88.1118ZM371.447 87.87C371.237 86.9374 370.984 85.9962 370.704 85.0895L377.849 82.9393C378.182 84.0187 378.479 85.1326 378.733 86.2466L371.447 87.8786V87.87ZM295.181 82.6111L288.193 79.9947C288.604 78.9325 289.05 77.8704 289.54 76.8428L296.309 79.9601C295.898 80.8236 295.522 81.7217 295.172 82.6111H295.181ZM369.75 82.378C369.401 81.4886 369.016 80.5991 368.605 79.7356L375.357 76.5751C375.847 77.6027 376.31 78.6562 376.721 79.7097L369.75 82.3694V82.378ZM297.647 77.4041L291.123 73.8032C291.682 72.8101 292.286 71.8343 292.924 70.8845L299.16 74.943C298.627 75.7375 298.119 76.5665 297.647 77.4041ZM367.267 77.1968C366.786 76.3592 366.269 75.5389 365.736 74.7444L371.946 70.6513C372.584 71.5926 373.188 72.5683 373.756 73.5528L367.258 77.1968H367.267ZM300.857 72.6029L294.936 68.1039C295.636 67.2059 296.379 66.3164 297.149 65.4702L302.72 70.3836C302.073 71.0917 301.452 71.843 300.857 72.6029ZM364.03 72.4129C363.436 71.6616 362.806 70.919 362.159 70.2109L367.704 65.2629C368.474 66.1005 369.217 66.9813 369.925 67.8794L364.03 72.4129ZM304.74 68.3025L299.545 63.0005C300.376 62.206 301.233 61.4375 302.116 60.7121L306.918 66.3682C306.175 66.9813 305.449 67.629 304.749 68.2939L304.74 68.3025ZM360.121 68.1385C359.421 67.4822 358.695 66.8345 357.943 66.2214L362.701 60.5394C363.584 61.2648 364.459 62.0247 365.281 62.8105L360.112 68.1385H360.121ZM309.21 64.6066L304.845 58.6224C305.781 57.9575 306.752 57.3185 307.723 56.7227L311.632 63.0091C310.819 63.5013 309.997 64.0367 309.21 64.6066ZM355.634 64.4685C354.847 63.9158 354.025 63.3804 353.194 62.8882L357.069 56.5845C358.048 57.1717 359.019 57.8021 359.964 58.4583L355.634 64.4685ZM314.169 61.5929L310.731 55.0474C311.746 54.5293 312.804 54.0371 313.854 53.5881L316.801 60.3667C315.909 60.7467 315.026 61.1612 314.169 61.5929ZM350.649 61.4807C349.792 61.0489 348.9 60.6431 348.008 60.2631L350.902 53.4672C351.97 53.9076 353.028 54.3998 354.051 54.9093L350.649 61.472V61.4807ZM319.513 59.3305L317.081 52.3532C318.174 51.9819 319.285 51.6451 320.396 51.3602L322.303 58.4929C321.375 58.7347 320.431 59.0196 319.521 59.3305H319.513ZM345.279 59.2441C344.369 58.9419 343.433 58.6656 342.489 58.4238L344.352 51.2824C345.471 51.5674 346.591 51.8955 347.675 52.2582L345.287 59.2441H345.279ZM325.136 57.8625L323.763 50.6089C324.891 50.4017 326.046 50.2289 327.183 50.1081L328.014 57.4394C327.052 57.543 326.081 57.6898 325.136 57.8625ZM339.637 57.8193C338.693 57.6466 337.722 57.5171 336.751 57.4135L337.538 50.0735C338.693 50.1944 339.839 50.3585 340.967 50.5571L339.637 57.8193ZM330.926 57.2235L330.629 49.849C331.259 49.8231 331.888 49.8231 332.518 49.8145C333.034 49.8145 333.559 49.8231 334.084 49.8404L333.839 57.2149C333.375 57.1976 332.92 57.189 332.439 57.189C331.923 57.189 331.425 57.1976 330.918 57.2149L330.926 57.2235Z" fill="#A1FF00"/>
<path d="M308.622 163.359H306.226V170H308.622V163.359Z" fill="#A1FF00"/>
<path d="M313.18 163.359H310.783V170H313.18V163.359Z" fill="#A1FF00"/>
<path d="M317.736 163.359H315.339V170H317.736V163.359Z" fill="#A1FF00"/>
<path d="M322.302 163.359H319.906V170H322.302V163.359Z" fill="#A1FF00"/>
<path opacity="0.2" d="M326.858 163.359H324.462V170H326.858V163.359Z" fill="url(#paint12_linear_1683_10989)"/>
<path opacity="0.2" d="M331.415 163.359H329.018V170H331.415V163.359Z" fill="url(#paint13_linear_1683_10989)"/>
<path opacity="0.2" d="M335.981 163.359H333.585V170H335.981V163.359Z" fill="url(#paint14_linear_1683_10989)"/>
<path opacity="0.2" d="M340.537 163.359H338.141V170H340.537V163.359Z" fill="url(#paint15_linear_1683_10989)"/>
<path opacity="0.2" d="M345.095 163.359H342.698V170H345.095V163.359Z" fill="url(#paint16_linear_1683_10989)"/>
<path opacity="0.2" d="M349.659 163.359H347.263V170H349.659V163.359Z" fill="url(#paint17_linear_1683_10989)"/>
<path opacity="0.2" d="M354.216 163.359H351.82V170H354.216V163.359Z" fill="url(#paint18_linear_1683_10989)"/>
<path opacity="0.2" d="M358.782 163.359H356.385V170H358.782V163.359Z" fill="url(#paint19_linear_1683_10989)"/>
<defs>
<linearGradient id="paint0_linear_1683_10989" x1="306.427" y1="74.6151" x2="357.268" y2="74.6151" gradientUnits="userSpaceOnUse">
<stop offset="0.01" stop-color="#100B21"/>
<stop offset="1" stop-color="#3B3648"/>
</linearGradient>
<linearGradient id="paint1_linear_1683_10989" x1="309.525" y1="65.5309" x2="355.477" y2="65.5309" gradientUnits="userSpaceOnUse">
<stop offset="0.01" stop-color="#100B21"/>
<stop offset="1" stop-color="#3B3648"/>
</linearGradient>
<linearGradient id="paint2_linear_1683_10989" x1="339.227" y1="86.394" x2="345.122" y2="86.394" gradientUnits="userSpaceOnUse">
<stop offset="0.01" stop-color="#100B21"/>
<stop offset="1" stop-color="#3B3648"/>
</linearGradient>
<linearGradient id="paint3_linear_1683_10989" x1="336.944" y1="86.0058" x2="347.404" y2="86.0058" gradientUnits="userSpaceOnUse">
<stop offset="0.01" stop-color="#100B21"/>
<stop offset="1" stop-color="#3B3648"/>
</linearGradient>
<linearGradient id="paint4_linear_1683_10989" x1="319.881" y1="86.394" x2="325.776" y2="86.394" gradientUnits="userSpaceOnUse">
<stop offset="0.01" stop-color="#100B21"/>
<stop offset="1" stop-color="#3B3648"/>
</linearGradient>
<linearGradient id="paint5_linear_1683_10989" x1="317.598" y1="86.0058" x2="328.058" y2="86.0058" gradientUnits="userSpaceOnUse">
<stop offset="0.01" stop-color="#100B21"/>
<stop offset="1" stop-color="#3B3648"/>
</linearGradient>
<linearGradient id="paint6_linear_1683_10989" x1="336.944" y1="85.7979" x2="347.404" y2="85.7979" gradientUnits="userSpaceOnUse">
<stop offset="0.01" stop-color="#100B21"/>
<stop offset="1" stop-color="#3B3648"/>
</linearGradient>
<linearGradient id="paint7_linear_1683_10989" x1="317.597" y1="85.7979" x2="328.058" y2="85.7979" gradientUnits="userSpaceOnUse">
<stop offset="0.01" stop-color="#100B21"/>
<stop offset="1" stop-color="#3B3648"/>
</linearGradient>
<linearGradient id="paint8_linear_1683_10989" x1="332.499" y1="120.762" x2="332.499" y2="149.068" gradientUnits="userSpaceOnUse">
<stop offset="0.01" stop-color="#100B21"/>
<stop offset="1" stop-color="#3B3648"/>
</linearGradient>
<linearGradient id="paint9_linear_1683_10989" x1="337.153" y1="78.2244" x2="350.675" y2="78.2244" gradientUnits="userSpaceOnUse">
<stop offset="0.01" stop-color="#100B21"/>
<stop offset="1" stop-color="#3B3648"/>
</linearGradient>
<linearGradient id="paint10_linear_1683_10989" x1="314.325" y1="78.2244" x2="327.838" y2="78.2244" gradientUnits="userSpaceOnUse">
<stop offset="0.01" stop-color="#100B21"/>
<stop offset="1" stop-color="#3B3648"/>
</linearGradient>
<linearGradient id="paint11_linear_1683_10989" x1="311.928" y1="98.9233" x2="353.192" y2="98.9233" gradientUnits="userSpaceOnUse">
<stop offset="0.01" stop-color="#100B21"/>
<stop offset="1" stop-color="#3B3648"/>
</linearGradient>
<linearGradient id="paint12_linear_1683_10989" x1="324.462" y1="166.684" x2="326.858" y2="166.684" gradientUnits="userSpaceOnUse">
<stop offset="0.01" stop-color="#100B21"/>
<stop offset="1" stop-color="#3B3648"/>
</linearGradient>
<linearGradient id="paint13_linear_1683_10989" x1="329.018" y1="166.684" x2="331.415" y2="166.684" gradientUnits="userSpaceOnUse">
<stop offset="0.01" stop-color="#100B21"/>
<stop offset="1" stop-color="#3B3648"/>
</linearGradient>
<linearGradient id="paint14_linear_1683_10989" x1="333.585" y1="166.684" x2="335.972" y2="166.684" gradientUnits="userSpaceOnUse">
<stop offset="0.01" stop-color="#100B21"/>
<stop offset="1" stop-color="#3B3648"/>
</linearGradient>
<linearGradient id="paint15_linear_1683_10989" x1="338.141" y1="166.684" x2="340.537" y2="166.684" gradientUnits="userSpaceOnUse">
<stop offset="0.01" stop-color="#100B21"/>
<stop offset="1" stop-color="#3B3648"/>
</linearGradient>
<linearGradient id="paint16_linear_1683_10989" x1="342.698" y1="166.684" x2="345.095" y2="166.684" gradientUnits="userSpaceOnUse">
<stop offset="0.01" stop-color="#100B21"/>
<stop offset="1" stop-color="#3B3648"/>
</linearGradient>
<linearGradient id="paint17_linear_1683_10989" x1="347.263" y1="166.684" x2="349.659" y2="166.684" gradientUnits="userSpaceOnUse">
<stop offset="0.01" stop-color="#100B21"/>
<stop offset="1" stop-color="#3B3648"/>
</linearGradient>
<linearGradient id="paint18_linear_1683_10989" x1="351.82" y1="166.684" x2="354.216" y2="166.684" gradientUnits="userSpaceOnUse">
<stop offset="0.01" stop-color="#100B21"/>
<stop offset="1" stop-color="#3B3648"/>
</linearGradient>
<linearGradient id="paint19_linear_1683_10989" x1="356.385" y1="166.684" x2="358.773" y2="166.684" gradientUnits="userSpaceOnUse">
<stop offset="0.01" stop-color="#100B21"/>
<stop offset="1" stop-color="#3B3648"/>
</linearGradient>
</defs>
</svg>
