<svg width="210" height="210" viewBox="0 0 210 210" fill="none" xmlns="http://www.w3.org/2000/svg">
<rect opacity="0.1" width="210" height="210" rx="45" fill="white"/>
<path d="M60.5701 87.1938C60.4408 87.1938 60.3133 87.1881 60.182 87.1731C58.2247 86.9613 56.811 85.2064 57.0229 83.2509C57.2516 81.1435 57.5272 79.1242 57.8685 77.0768L57.8741 77.0412C59.5165 67.7548 67.7602 59.5165 77.0539 57.8722L77.0895 57.8666C79.1388 57.5254 81.1599 57.2479 83.2672 57.021C85.2246 56.8092 86.9813 58.2228 87.1932 60.1783C87.405 62.132 85.9895 63.8888 84.034 64.1006C82.0692 64.3144 80.1868 64.5712 78.2763 64.8881C75.2147 65.4337 72.1474 67.1155 69.6351 69.626C67.1228 72.1383 65.441 75.2038 64.8954 78.2617C64.5786 80.1685 64.3217 82.0509 64.108 84.0158C63.9093 85.8401 62.3662 87.1938 60.5701 87.1938Z" fill="#A1FF00"/>
<path d="M152.13 77.1102C152.471 79.1576 152.747 81.1788 152.976 83.2843L152.979 83.288C153.189 85.2417 151.776 86.9985 149.82 87.2103C149.689 87.2234 149.56 87.2309 149.432 87.2309C147.636 87.2309 146.091 85.8773 145.894 84.053C145.68 82.0881 145.424 80.2057 145.107 78.2989C144.563 75.241 142.879 72.1736 140.367 69.6631C137.855 67.1526 134.786 65.4709 131.726 64.9253C129.814 64.6084 127.931 64.3497 125.968 64.1378C124.011 63.9259 122.597 62.171 122.809 60.2155C123.021 58.26 124.778 56.8482 126.735 57.0582C128.839 57.2869 130.86 57.5625 132.913 57.9038L132.948 57.9094C142.238 59.5499 150.482 67.7901 152.124 77.0746L152.13 77.1102Z" fill="#A1FF00"/>
<path d="M152.13 132.924C152.471 130.876 152.747 128.855 152.976 126.75C153.187 124.794 151.774 123.039 149.816 122.827C147.863 122.615 146.102 124.029 145.89 125.985C145.679 127.949 145.42 129.832 145.103 131.739C144.557 134.797 142.876 137.862 140.363 140.374C137.851 142.885 134.782 144.569 131.722 145.112C129.815 145.429 127.933 145.686 125.966 145.9C124.011 146.112 122.597 147.868 122.809 149.822C123.006 151.646 124.551 153 126.347 153C126.474 153 126.604 152.993 126.735 152.979C128.844 152.751 130.865 152.475 132.913 152.134L132.948 152.128C142.24 150.488 150.484 142.247 152.124 132.963L152.13 132.927V132.924Z" fill="#A1FF00"/>
<path d="M57.8741 132.925L57.8684 132.889L57.8666 132.885C57.5253 130.838 57.2497 128.818 57.021 126.711C56.8091 124.757 58.2247 123.001 60.1801 122.789C62.1356 122.577 63.8942 123.991 64.1061 125.946C64.3198 127.911 64.5767 129.793 64.8935 131.7C65.4372 134.758 67.1209 137.826 69.6332 140.336C72.1474 142.846 75.2146 144.528 78.2744 145.074C80.1812 145.391 82.0654 145.648 84.0321 145.861C85.9876 146.073 87.4012 147.828 87.1894 149.784C86.9906 151.61 85.4476 152.962 83.6515 152.962C83.524 152.962 83.3947 152.956 83.2634 152.941C81.1542 152.712 79.1331 152.437 77.0858 152.095L77.0501 152.09C67.7602 150.449 59.5164 142.209 57.8741 132.925Z" fill="#A1FF00"/>
<path d="M87.5037 123.789C92.66 127.903 98.836 129.959 105.01 129.959C111.184 129.959 117.36 127.901 122.511 123.787C124.105 122.512 124.406 120.135 123.18 118.475C121.955 116.815 119.668 116.504 118.073 117.779C110.385 123.921 99.6372 123.921 91.9374 117.779C90.3406 116.506 88.0558 116.819 86.8309 118.479C85.6061 120.139 85.907 122.516 87.5037 123.789Z" fill="white"/>
<path d="M91.1631 83.828V89.3597C91.1631 91.4523 89.5319 93.148 87.5212 93.148C85.5104 93.148 83.8792 91.4523 83.8792 89.3597V83.828C83.8792 81.7354 85.5104 80.0398 87.5212 80.0398C89.5319 80.0398 91.1631 81.7354 91.1631 83.828Z" fill="white"/>
<path d="M126.118 89.3597V83.828C126.118 81.7354 124.487 80.0398 122.476 80.0398C120.465 80.0398 118.834 81.7354 118.834 83.828V89.3597C118.834 91.4523 120.465 93.148 122.476 93.148C124.487 93.148 126.118 91.4523 126.118 89.3597Z" fill="white"/>
<path d="M104.998 110.614C104.015 110.614 103.034 110.201 102.315 109.387C100.954 107.845 101.052 105.449 102.533 104.035L105.037 101.647L101.673 93.819C100.852 91.9079 101.675 89.6677 103.511 88.8139C105.347 87.9601 107.502 88.8179 108.322 90.7269L112.758 101.046C113.398 102.534 113.049 104.28 111.895 105.383L107.46 109.616C106.76 110.284 105.878 110.614 104.998 110.614Z" fill="white"/>
</svg>
