<svg width="413" height="356" viewBox="0 0 413 356" fill="none" xmlns="http://www.w3.org/2000/svg">
<path opacity="0.1" d="M177.997 334.461C264.41 334.461 334.461 264.41 334.461 177.998C334.461 91.5856 264.41 21.5347 177.997 21.5347C91.5851 21.5347 21.5342 91.5856 21.5342 177.998C21.5342 264.41 91.5851 334.461 177.997 334.461Z" fill="#F3F3F3"/>
<path opacity="0.1" d="M177.998 355.998C153.97 355.998 130.658 351.292 108.711 342.008C87.5143 333.043 68.479 320.209 52.133 303.863C35.7871 287.517 22.9531 268.481 13.9876 247.284C4.70597 225.337 0 202.028 0 177.998C0 153.968 4.70597 130.658 13.9897 108.711C22.9552 87.5143 35.7893 68.479 52.1352 52.133C68.4811 35.7871 87.5164 22.9531 108.714 13.9876C130.658 4.70597 153.97 0 177.998 0C202.025 0 225.337 4.70597 247.284 13.9897C268.481 22.9552 287.517 35.7893 303.863 52.1352C320.209 68.4811 333.043 87.5164 342.008 108.714C351.29 130.661 355.998 153.97 355.998 178C355.998 202.03 351.292 225.339 342.008 247.286C333.043 268.484 320.209 287.519 303.863 303.865C287.517 320.211 268.481 333.045 247.284 342.01C225.337 351.292 202.028 356 177.998 356V355.998ZM177.998 5.38954C154.694 5.38954 132.09 9.95238 110.811 18.952C90.2571 27.6462 71.7964 40.0915 55.944 55.944C40.0915 71.7964 27.6441 90.2571 18.952 110.811C9.95238 132.09 5.38954 154.694 5.38954 177.998C5.38954 201.301 9.95238 223.906 18.952 245.184C27.6462 265.739 40.0915 284.199 55.944 300.052C71.7964 315.904 90.2571 328.352 110.811 337.044C132.09 346.043 154.694 350.606 177.998 350.606C201.301 350.606 223.906 346.043 245.184 337.044C265.739 328.35 284.199 315.904 300.052 300.052C315.904 284.199 328.352 265.739 337.046 245.184C346.046 223.906 350.608 201.301 350.608 177.998C350.608 154.694 346.046 132.09 337.046 110.811C328.352 90.2571 315.906 71.7964 300.052 55.944C284.197 40.0915 265.739 27.6441 245.184 18.952C223.906 9.95238 201.301 5.38954 177.998 5.38954Z" fill="#F3F3F3"/>
<path d="M292.233 65.6973H60.0754C53.3892 65.6973 47.9697 71.0078 47.9697 77.5551V225.649C47.9697 228.255 50.1273 230.37 52.7868 230.37H299.52C302.182 230.37 304.337 228.255 304.337 225.649V77.5551C304.337 71.0078 298.918 65.6973 292.231 65.6973H292.233ZM294.963 219.249H57.3453V76.2841H294.963V219.247V219.249Z" fill="white"/>
<path opacity="0.5" d="M292.233 65.6973H202.988L195.093 76.2841H294.963V219.247H118.567L110.274 230.368H299.521C302.183 230.368 304.338 228.253 304.338 225.647V77.5551C304.338 71.0078 298.919 65.6973 292.233 65.6973Z" fill="#D9D9D9"/>
<path d="M294.963 76.2842H57.3447V219.247H294.963V76.2842Z" fill="#A1FF00"/>
<path d="M342.116 268.817C342.111 268.783 342.103 268.751 342.096 268.716C342.096 268.706 342.096 268.695 342.092 268.684C342.083 268.654 342.073 268.627 342.062 268.599C342.056 268.584 342.054 268.567 342.047 268.552C342.039 268.526 342.026 268.503 342.015 268.477C342.004 268.458 341.998 268.439 341.992 268.417C341.977 268.396 341.964 268.372 341.951 268.349C341.938 268.328 341.928 268.306 341.913 268.283C341.898 268.259 341.883 268.236 341.863 268.21C341.851 268.191 341.84 268.17 341.821 268.148C341.755 268.058 341.675 267.964 341.59 267.87C341.575 267.858 341.562 267.841 341.547 267.828L323.819 249.899H30.3063L12.5783 267.828C12.5633 267.841 12.5505 267.858 12.5356 267.87C12.4629 267.945 12.401 268.02 12.3433 268.095C12.119 268.383 12.0058 268.665 11.9951 268.926C11.9951 268.956 11.9951 268.986 11.9951 269.018V269.05V269.054V269.073C12.0635 270.515 12.5591 272.166 13.8066 273.457C15.0498 274.745 17.0429 275.676 20.089 275.676H334.024C340.122 275.676 341.99 271.957 342.118 269.071C342.118 269.065 342.118 269.058 342.118 269.05V269.037C342.118 269.037 342.118 269.037 342.118 269.033V268.962C342.118 268.949 342.122 268.939 342.122 268.926C342.118 268.896 342.113 268.864 342.109 268.834C342.109 268.827 342.109 268.823 342.109 268.819L342.116 268.817Z" fill="#C9C9C9"/>
<path d="M341.59 267.855H12.5416C12.187 268.225 12.0118 268.582 11.999 268.911C11.999 268.951 11.999 268.994 12.0012 269.035C12.0012 269.041 12.0012 269.05 12.0012 269.058C12.1293 271.944 13.9985 275.663 20.0951 275.663H334.03C340.126 275.663 341.996 271.944 342.124 269.058C342.124 269.052 342.124 269.043 342.124 269.035C342.124 268.994 342.126 268.951 342.126 268.911C342.113 268.582 341.938 268.225 341.583 267.855H341.59Z" fill="#C8C8C7"/>
<path d="M209.435 269.699C209.435 269.714 209.435 269.729 209.435 269.744C209.416 271.273 208.713 272.504 207.848 272.504H146.282C145.421 272.504 144.72 271.284 144.694 269.765C144.694 269.761 144.694 269.757 144.694 269.752C144.694 269.731 144.694 269.71 144.694 269.688C144.696 269.515 144.731 269.327 144.801 269.133H209.332C209.403 269.331 209.437 269.524 209.439 269.699H209.435Z" fill="#969696"/>
<path d="M342.131 268.932C342.131 268.96 342.131 268.99 342.131 269.018C342.054 270.133 340.076 270.925 336.857 270.925H17.2761C14.0954 270.925 12.1237 270.152 12.0041 269.058C12.0041 269.05 12.0041 269.041 12.0041 269.035C12.0041 268.994 12.002 268.951 12.002 268.911C12.0148 268.582 12.1899 268.225 12.5445 267.856C12.5574 267.841 12.5723 267.826 12.5851 267.813L49.1883 230.795C50.1901 229.783 53.608 228.973 56.8379 228.973H297.299C300.527 228.973 303.947 229.783 304.947 230.795L341.55 267.813C341.565 267.828 341.578 267.843 341.59 267.856C341.954 268.234 342.129 268.597 342.133 268.932H342.131Z" fill="white"/>
<path d="M64.9761 246.908L76.3576 232.141C76.8041 231.562 78.6497 231.096 80.4847 231.096H273.647C275.48 231.096 277.326 231.562 277.774 232.141L289.156 246.908C289.713 247.632 288.487 248.226 286.411 248.226H67.7211C65.6447 248.226 64.4186 247.634 64.9761 246.908Z" fill="#C9C9C9"/>
<path d="M80.1119 233.126H89.1308C89.808 233.123 90.436 233 90.5321 232.85L91.0234 232.098C91.1196 231.951 90.656 231.831 89.9853 231.831H81.0561C80.3854 231.833 79.7552 231.955 79.6441 232.102L79.0887 232.854C78.9776 233.004 79.4369 233.126 80.1119 233.126Z" fill="black"/>
<path d="M78.2013 235.742H87.3997C88.0896 235.74 88.7326 235.612 88.833 235.456L89.805 233.965C89.9054 233.813 89.4333 233.689 88.754 233.689H79.6967C79.0174 233.692 78.3744 233.815 78.2633 233.969L77.161 235.46C77.0457 235.616 77.5114 235.742 78.2013 235.742Z" fill="black"/>
<path d="M91.8189 235.738H101.015C101.705 235.736 102.333 235.608 102.421 235.452L103.241 233.961C103.324 233.809 102.841 233.686 102.162 233.686H93.1048C92.4255 233.688 91.7954 233.812 91.6992 233.963L90.7487 235.454C90.6483 235.61 91.1268 235.736 91.8167 235.736L91.8189 235.738Z" fill="black"/>
<path d="M105.432 235.734H114.628C115.318 235.732 115.933 235.604 116.004 235.448L116.675 233.957C116.743 233.805 116.247 233.681 115.568 233.681H106.513C105.834 233.683 105.216 233.807 105.135 233.959L104.336 235.45C104.253 235.606 104.744 235.732 105.434 235.732L105.432 235.734Z" fill="black"/>
<path d="M119.046 235.729H128.242C128.932 235.727 129.535 235.599 129.59 235.443L130.109 233.954C130.163 233.803 129.654 233.679 128.975 233.679H119.92C119.24 233.681 118.636 233.805 118.57 233.956L117.92 235.447C117.852 235.603 118.356 235.729 119.046 235.729Z" fill="black"/>
<path d="M132.005 233.953L131.507 235.442C131.456 235.598 131.973 235.724 132.661 235.724H141.855C142.545 235.721 143.135 235.593 143.173 235.437L143.54 233.948C143.579 233.797 143.058 233.673 142.378 233.673H133.323C132.644 233.675 132.052 233.799 132.001 233.951L132.005 233.953Z" fill="black"/>
<path d="M155.783 233.668H146.728C146.049 233.67 145.47 233.794 145.434 233.946L145.087 235.435C145.051 235.591 145.581 235.717 146.271 235.717H155.465C156.155 235.715 156.732 235.586 156.755 235.43L156.971 233.942C156.992 233.79 156.46 233.666 155.781 233.666L155.783 233.668Z" fill="black"/>
<path d="M169.188 233.664H160.135C159.455 233.666 158.889 233.79 158.868 233.941L158.673 235.43C158.652 235.586 159.195 235.712 159.885 235.712H169.079C169.769 235.71 170.333 235.582 170.339 235.426L170.405 233.937C170.412 233.786 169.867 233.662 169.188 233.662V233.664Z" fill="black"/>
<path d="M182.591 233.662H173.537C172.858 233.664 172.305 233.788 172.301 233.94L172.256 235.428C172.251 235.584 172.807 235.71 173.497 235.71H182.691C183.381 235.708 183.932 235.58 183.923 235.424L183.838 233.935C183.829 233.784 183.272 233.66 182.593 233.66L182.591 233.662Z" fill="black"/>
<path d="M195.99 233.658H186.937C186.257 233.66 185.717 233.784 185.728 233.936L185.835 235.424C185.845 235.58 186.413 235.706 187.103 235.706H196.295C196.985 235.704 197.524 235.576 197.498 235.42L197.261 233.931C197.237 233.78 196.667 233.656 195.988 233.656L195.99 233.658Z" fill="black"/>
<path d="M200.713 235.705H209.905C210.595 235.702 211.12 235.574 211.08 235.418L210.693 233.929C210.653 233.778 210.072 233.654 209.392 233.654H200.341C199.662 233.656 199.132 233.78 199.16 233.931L199.418 235.42C199.446 235.576 200.027 235.702 200.715 235.702L200.713 235.705Z" fill="black"/>
<path d="M214.322 235.7H223.513C224.203 235.698 224.716 235.57 224.661 235.414L224.122 233.925C224.067 233.773 223.473 233.649 222.794 233.649H213.743C213.063 233.652 212.546 233.775 212.589 233.927L212.997 235.416C213.04 235.572 213.634 235.698 214.324 235.698L214.322 235.7Z" fill="black"/>
<path d="M227.928 235.693H237.12C237.81 235.691 238.31 235.563 238.237 235.407L237.547 233.918C237.477 233.766 236.87 233.643 236.191 233.643H227.14C226.461 233.645 225.957 233.769 226.014 233.92L226.574 235.409C226.632 235.565 227.238 235.691 227.928 235.691V235.693Z" fill="black"/>
<path d="M241.536 235.689H250.726C251.416 235.687 251.903 235.559 251.815 235.403L250.976 233.914C250.89 233.762 250.271 233.638 249.591 233.638H240.541C239.861 233.64 239.37 233.764 239.443 233.916L240.154 235.405C240.229 235.561 240.848 235.687 241.538 235.687L241.536 235.689Z" fill="black"/>
<path d="M106.968 238.161L107.754 236.61C107.835 236.452 107.337 236.324 106.645 236.324H97.4085C96.7164 236.326 96.0777 236.456 95.9837 236.614L95.063 238.165C94.9669 238.327 95.4582 238.46 96.1632 238.46H105.545C106.248 238.456 106.887 238.325 106.968 238.163V238.161Z" fill="black"/>
<path d="M110.053 238.453H119.435C120.138 238.449 120.764 238.319 120.828 238.156L121.456 236.606C121.52 236.447 121.01 236.319 120.317 236.319H111.081C110.389 236.321 109.763 236.452 109.686 236.61L108.923 238.161C108.844 238.323 109.348 238.455 110.053 238.455V238.453Z" fill="black"/>
<path d="M123.943 238.449H133.325C134.027 238.445 134.638 238.314 134.687 238.152L135.159 236.601C135.209 236.443 134.685 236.315 133.993 236.315H124.756C124.064 236.317 123.451 236.447 123.389 236.605L122.783 238.156C122.718 238.319 123.238 238.451 123.943 238.451V238.449Z" fill="black"/>
<path d="M137.089 236.599L136.641 238.15C136.594 238.312 137.126 238.445 137.831 238.445H147.213C147.915 238.44 148.514 238.31 148.546 238.148L148.86 236.597C148.892 236.439 148.355 236.311 147.663 236.311H138.429C137.737 236.313 137.136 236.443 137.091 236.601L137.089 236.599Z" fill="black"/>
<path d="M150.792 236.595L150.499 238.146C150.469 238.308 151.014 238.441 151.717 238.441H161.097C161.8 238.436 162.385 238.306 162.4 238.144L162.556 236.593C162.573 236.435 162.024 236.307 161.33 236.307H152.095C151.403 236.309 150.818 236.439 150.788 236.597L150.792 236.595Z" fill="black"/>
<path d="M164.492 236.591L164.358 238.142C164.343 238.304 164.902 238.436 165.605 238.436H174.985C175.688 238.432 176.258 238.302 176.258 238.139V236.589C176.258 236.43 175.696 236.302 175.004 236.302H165.77C165.078 236.304 164.505 236.435 164.49 236.593L164.492 236.591Z" fill="black"/>
<path d="M178.192 236.586L178.213 238.137C178.215 238.299 178.788 238.432 179.49 238.432H188.87C189.573 238.428 190.131 238.297 190.113 238.135L189.955 236.584C189.938 236.426 189.366 236.298 188.672 236.298H179.439C178.747 236.3 178.187 236.43 178.189 236.588L178.192 236.586Z" fill="black"/>
<path d="M191.89 236.582L192.07 238.133C192.089 238.296 192.674 238.428 193.377 238.428H202.755C203.458 238.424 204.002 238.293 203.968 238.131L203.654 236.58C203.622 236.422 203.035 236.294 202.342 236.294H193.11C192.418 236.296 191.871 236.426 191.888 236.584L191.89 236.582Z" fill="black"/>
<path d="M207.261 238.421H216.639C217.342 238.417 217.872 238.287 217.823 238.124L217.351 236.573C217.301 236.415 216.701 236.287 216.009 236.287H206.777C206.084 236.289 205.55 236.42 205.585 236.578L205.922 238.128C205.958 238.291 206.557 238.423 207.259 238.423L207.261 238.421Z" fill="black"/>
<path d="M221.146 238.417H230.524C231.227 238.413 231.744 238.282 231.677 238.12L231.049 236.571C230.985 236.413 230.372 236.285 229.68 236.285H220.448C219.756 236.287 219.234 236.418 219.286 236.576L219.779 238.124C219.83 238.287 220.443 238.419 221.146 238.419V238.417Z" fill="black"/>
<path d="M235.028 238.413H244.406C245.109 238.408 245.613 238.278 245.529 238.116L244.743 236.567C244.662 236.409 244.036 236.281 243.344 236.281H234.114C233.422 236.283 232.913 236.413 232.979 236.571L233.631 238.12C233.699 238.282 234.325 238.415 235.028 238.415V238.413Z" fill="black"/>
<path d="M248.91 238.409H258.286C258.989 238.404 259.48 238.274 259.38 238.112L258.438 236.563C258.342 236.405 257.703 236.277 257.011 236.277H247.78C247.088 236.279 246.593 236.409 246.676 236.567L247.483 238.116C247.569 238.278 248.208 238.411 248.91 238.411V238.409Z" fill="black"/>
<path d="M279.039 238.509L278.176 237.358L277.573 236.557C277.454 236.399 276.798 236.271 276.106 236.271L264.073 236.275C263.381 236.275 262.902 236.403 263.003 236.561L264.21 238.439C264.314 238.601 264.97 238.733 265.675 238.733H268.117C268.821 238.733 269.484 238.866 269.595 239.028L270.883 240.927C270.998 241.096 271.673 241.233 272.391 241.233H279.78C280.498 241.231 280.976 241.092 280.85 240.923L279.037 238.507L279.039 238.509Z" fill="black"/>
<path d="M97.4129 241.292H106.989C107.707 241.288 108.357 241.151 108.44 240.982L109.224 239.367C109.305 239.203 108.797 239.068 108.089 239.068H98.6647C97.9577 239.073 97.3083 239.205 97.2143 239.37L96.2893 240.984C96.1932 241.153 96.6952 241.292 97.4151 241.29L97.4129 241.292Z" fill="black"/>
<path d="M111.591 241.288H121.168C121.885 241.284 122.522 241.147 122.586 240.978L123.208 239.364C123.272 239.199 122.748 239.064 122.043 239.064H112.619C111.912 239.069 111.275 239.201 111.198 239.366L110.436 240.981C110.356 241.149 110.873 241.288 111.591 241.286V241.288Z" fill="black"/>
<path d="M125.769 241.284H135.345C136.063 241.279 136.685 241.143 136.734 240.974L137.191 239.359C137.238 239.194 136.702 239.06 135.995 239.062H126.57C125.863 239.066 125.241 239.199 125.179 239.363L124.581 240.978C124.519 241.147 125.049 241.286 125.769 241.284Z" fill="black"/>
<path d="M150.875 240.968L151.167 239.353C151.197 239.188 150.648 239.054 149.941 239.056H140.519C139.812 239.06 139.203 239.192 139.158 239.357L138.724 240.972C138.679 241.141 139.224 241.279 139.942 241.277H149.516C150.234 241.273 150.843 241.136 150.873 240.968H150.875Z" fill="black"/>
<path d="M165.019 240.963L165.149 239.348C165.162 239.184 164.6 239.049 163.893 239.051H154.47C153.763 239.056 153.167 239.188 153.139 239.353L152.868 240.967C152.84 241.136 153.4 241.275 154.118 241.273H163.692C164.41 241.269 165.004 241.132 165.017 240.963H165.019Z" fill="black"/>
<path d="M179.163 240.959L179.129 239.344C179.125 239.179 178.55 239.045 177.843 239.047H168.42C167.713 239.051 167.132 239.184 167.122 239.348L167.015 240.963C167.004 241.132 167.577 241.268 168.294 241.268H177.869C178.586 241.264 179.165 241.128 179.163 240.959Z" fill="black"/>
<path d="M193.303 240.955L193.107 239.34C193.088 239.175 192.498 239.041 191.791 239.043H182.37C181.663 239.047 181.095 239.18 181.102 239.344L181.159 240.959C181.166 241.128 181.753 241.265 182.471 241.265H192.045C192.763 241.26 193.329 241.124 193.308 240.955H193.303Z" fill="black"/>
<path d="M207.443 240.949L207.082 239.334C207.045 239.169 206.443 239.035 205.736 239.037H196.316C195.608 239.041 195.055 239.173 195.077 239.338L195.297 240.953C195.32 241.122 195.92 241.258 196.638 241.258H206.21C206.928 241.254 207.479 241.117 207.443 240.949Z" fill="black"/>
<path d="M210.812 241.254H220.384C221.102 241.25 221.64 241.113 221.584 240.944L221.059 239.329C221.006 239.165 220.388 239.03 219.683 239.032H210.263C209.556 239.037 209.015 239.169 209.054 239.333L209.438 240.948C209.479 241.117 210.094 241.254 210.812 241.254Z" fill="black"/>
<path d="M224.981 241.249H234.553C235.271 241.245 235.794 241.108 235.722 240.94L235.034 239.325C234.963 239.16 234.333 239.026 233.628 239.028H224.208C223.501 239.032 222.973 239.165 223.029 239.329L223.575 240.944C223.633 241.113 224.261 241.249 224.979 241.249H224.981Z" fill="black"/>
<path d="M239.15 241.245H248.72C249.438 241.241 249.948 241.104 249.858 240.936L249.006 239.323C248.918 239.158 248.275 239.024 247.568 239.026H238.15C237.443 239.03 236.93 239.163 237.003 239.327L237.714 240.942C237.789 241.111 238.432 241.248 239.15 241.248V241.245Z" fill="black"/>
<path d="M253.318 241.241H262.888C263.606 241.237 264.102 241.1 263.995 240.931L262.98 239.318C262.876 239.154 262.22 239.019 261.513 239.022H252.094C251.387 239.026 250.887 239.158 250.977 239.323L251.853 240.936C251.945 241.104 252.601 241.241 253.318 241.241Z" fill="black"/>
<path d="M100.713 243.927L101.606 242.243C101.698 242.072 101.185 241.934 100.463 241.934H90.8416C90.1196 241.938 89.4488 242.077 89.342 242.248L88.3038 243.931C88.1949 244.108 88.7011 244.251 89.4338 244.251L99.2132 244.247C99.9459 244.247 100.617 244.104 100.711 243.927H100.713Z" fill="black"/>
<path d="M115.159 243.92L115.881 242.236C115.956 242.066 115.43 241.927 114.708 241.927H105.087C104.365 241.931 103.709 242.07 103.619 242.241L102.75 243.924C102.658 244.101 103.179 244.244 103.914 244.244L113.693 244.24C114.426 244.24 115.084 244.097 115.159 243.92Z" fill="black"/>
<path d="M128.949 241.923H119.33C118.608 241.927 117.965 242.066 117.895 242.237L117.196 243.92C117.123 244.097 117.657 244.241 118.392 244.241L128.172 244.236C128.904 244.236 129.547 244.093 129.605 243.916L130.156 242.233C130.212 242.062 129.673 241.923 128.951 241.923H128.949Z" fill="black"/>
<path d="M132.867 244.234L142.644 244.229C143.377 244.229 144.005 244.086 144.045 243.909L144.426 242.226C144.464 242.055 143.911 241.916 143.189 241.916H133.57C132.848 241.92 132.22 242.059 132.166 242.23L131.639 243.913C131.583 244.091 132.132 244.234 132.867 244.234Z" fill="black"/>
<path d="M147.342 244.229L157.119 244.225C157.852 244.225 158.465 244.082 158.486 243.905L158.696 242.221C158.717 242.05 158.149 241.912 157.429 241.912H147.81C147.088 241.916 146.475 242.055 146.438 242.226L146.082 243.909C146.045 244.086 146.609 244.229 147.342 244.229Z" fill="black"/>
<path d="M161.816 244.225L171.594 244.221C172.326 244.221 172.924 244.078 172.929 243.9L172.967 242.217C172.971 242.046 172.39 241.907 171.668 241.907H162.051C161.329 241.911 160.729 242.05 160.71 242.221L160.524 243.905C160.505 244.082 161.084 244.225 161.816 244.225Z" fill="black"/>
<path d="M176.289 244.219L186.064 244.215C186.796 244.215 187.38 244.072 187.367 243.894L187.234 242.211C187.222 242.04 186.626 241.901 185.904 241.901H176.287C175.564 241.906 174.979 242.044 174.977 242.215L174.962 243.899C174.962 244.076 175.554 244.219 176.287 244.217L176.289 244.219Z" fill="black"/>
<path d="M190.761 244.215L200.536 244.21C201.268 244.21 201.837 244.067 201.807 243.89L201.506 242.207C201.476 242.036 200.865 241.897 200.143 241.897H190.526C189.804 241.901 189.233 242.04 189.248 242.211L189.404 243.894C189.421 244.072 190.028 244.215 190.761 244.213V244.215Z" fill="black"/>
<path d="M214.379 241.895H204.762C204.039 241.899 203.482 242.038 203.516 242.209L203.843 243.892C203.877 244.069 204.499 244.212 205.234 244.21L215.009 244.206C215.741 244.206 216.297 244.063 216.246 243.886L215.773 242.202C215.724 242.031 215.101 241.893 214.381 241.893L214.379 241.895Z" fill="black"/>
<path d="M228.614 241.888H218.999C218.277 241.893 217.734 242.031 217.785 242.202L218.281 243.886C218.332 244.063 218.969 244.206 219.704 244.204L229.477 244.2C230.209 244.2 230.75 244.057 230.681 243.879L230.038 242.196C229.972 242.025 229.336 241.886 228.614 241.886V241.888Z" fill="black"/>
<path d="M242.849 241.884H233.234C232.512 241.888 231.983 242.027 232.051 242.198L232.717 243.881C232.788 244.059 233.439 244.202 234.172 244.2L243.945 244.195C244.678 244.195 245.203 244.052 245.118 243.875L244.304 242.192C244.221 242.021 243.569 241.882 242.847 241.882L242.849 241.884Z" fill="black"/>
<path d="M257.082 241.88H247.467C246.745 241.884 246.23 242.023 246.316 242.194L247.153 243.875C247.241 244.053 247.907 244.196 248.64 244.194L258.413 244.189C259.146 244.189 259.656 244.046 259.554 243.869L258.569 242.188C258.469 242.017 257.802 241.878 257.082 241.878V241.88Z" fill="black"/>
<path d="M262.924 244.191L281.968 244.185C282.701 244.185 283.188 244.042 283.055 243.864L281.793 242.183C281.665 242.012 280.975 241.874 280.255 241.874L261.518 241.88C260.796 241.88 260.296 242.019 260.399 242.192L261.405 243.873C261.51 244.05 262.191 244.193 262.924 244.191Z" fill="black"/>
<path d="M96.2444 244.915L86.4181 244.92C85.6811 244.92 84.9911 245.065 84.8779 245.244L83.7629 247C83.6454 247.184 84.158 247.333 84.9078 247.333L94.8987 247.329C95.6485 247.329 96.3384 247.18 96.4388 246.994L97.4023 245.238C97.5005 245.058 96.9836 244.913 96.2466 244.913L96.2444 244.915Z" fill="black"/>
<path d="M110.79 244.909L100.965 244.913C100.229 244.913 99.5535 245.059 99.4574 245.238L98.5196 246.994C98.4213 247.178 98.949 247.327 99.6987 247.327L109.69 247.323C110.439 247.323 111.114 247.174 111.196 246.99L111.98 245.234C112.061 245.054 111.527 244.909 110.79 244.909Z" fill="black"/>
<path d="M127.012 244.905L115.508 244.909C114.772 244.909 114.111 245.054 114.035 245.234L113.274 246.99C113.195 247.173 113.738 247.323 114.487 247.323L126.183 247.319C126.933 247.319 127.591 247.169 127.65 246.985L128.236 245.229C128.296 245.05 127.747 244.905 127.01 244.905H127.012Z" fill="black"/>
<path d="M215.188 244.875L132.476 244.902C131.739 244.902 131.096 245.048 131.04 245.227L130.489 246.983C130.432 247.167 130.991 247.316 131.741 247.316L215.844 247.286C216.594 247.286 217.158 247.137 217.106 246.953L216.613 245.197C216.562 245.018 215.925 244.873 215.188 244.873V244.875Z" fill="black"/>
<path d="M229.727 244.871L219.907 244.875C219.17 244.875 218.617 245.02 218.668 245.2L219.187 246.955C219.241 247.139 219.892 247.289 220.642 247.289L230.627 247.284C231.376 247.284 231.925 247.135 231.855 246.951L231.184 245.195C231.116 245.016 230.462 244.871 229.727 244.871Z" fill="black"/>
<path d="M244.261 244.864L234.443 244.869C233.706 244.869 233.168 245.014 233.239 245.193L233.935 246.949C234.008 247.133 234.674 247.282 235.424 247.282L245.408 247.278C246.158 247.278 246.692 247.129 246.602 246.945L245.754 245.189C245.667 245.01 245 244.864 244.263 244.864H244.261Z" fill="black"/>
<path d="M276.704 235.396L275.587 233.907C275.474 233.756 274.831 233.632 274.151 233.632L253.939 233.638C253.26 233.638 252.781 233.762 252.869 233.914L253.73 235.403C253.819 235.559 254.452 235.685 255.142 235.685L275.668 235.678C276.358 235.678 276.822 235.552 276.704 235.394V235.396Z" fill="black"/>
<path d="M76.214 238.464L90.7634 238.46C91.4684 238.46 92.1199 238.328 92.2181 238.165L93.1709 236.614C93.2691 236.456 92.7864 236.328 92.0921 236.328L77.7691 236.332C77.077 236.332 76.4191 236.461 76.3016 236.619L75.1545 238.169C75.0349 238.332 75.5069 238.464 76.2119 238.464H76.214Z" fill="black"/>
<path d="M74.1441 241.301L92.812 241.294C93.5298 241.294 94.1941 241.156 94.2924 240.987L95.2409 239.372C95.337 239.207 94.8435 239.073 94.1365 239.073L75.7655 239.079C75.0584 239.079 74.3855 239.214 74.2637 239.378L73.0696 240.993C72.9436 241.162 73.4242 241.301 74.1441 241.299V241.301Z" fill="black"/>
<path d="M86.2671 243.931L87.3309 242.247C87.4399 242.076 86.9421 241.935 86.2201 241.938L73.6766 241.942C72.9545 241.942 72.2667 242.081 72.1407 242.254L70.8953 243.937C70.765 244.114 71.2542 244.257 71.9869 244.257L84.7376 244.253C85.4703 244.253 86.156 244.11 86.2671 243.933V243.931Z" fill="black"/>
<path d="M81.3254 244.92L71.499 244.924C70.7621 244.924 70.0571 245.069 69.9247 245.249L68.6259 247.005C68.4892 247.188 68.9869 247.338 69.7367 247.338L79.7275 247.333C80.4773 247.333 81.1823 247.184 81.3019 246.998L82.4469 245.242C82.5644 245.063 82.0602 244.917 81.3232 244.917L81.3254 244.92Z" fill="black"/>
<path d="M94.3187 233.122H103.335C104.013 233.12 104.626 232.996 104.709 232.846L105.119 232.094C105.2 231.947 104.722 231.827 104.053 231.827H95.124C94.4533 231.829 93.8359 231.951 93.7419 232.098L93.2677 232.85C93.1737 233 93.6437 233.122 94.3208 233.122H94.3187Z" fill="black"/>
<path d="M108.524 233.117H117.541C118.218 233.115 118.818 232.991 118.884 232.842L119.213 232.09C119.277 231.942 118.788 231.823 118.117 231.823H109.188C108.518 231.825 107.913 231.947 107.836 232.094L107.443 232.846C107.364 232.996 107.849 233.117 108.526 233.117H108.524Z" fill="black"/>
<path d="M122.728 233.113H131.745C132.422 233.111 133.01 232.987 133.059 232.837L133.307 232.085C133.356 231.938 132.852 231.818 132.183 231.818H123.256C122.585 231.82 121.994 231.942 121.932 232.09L121.62 232.842C121.558 232.991 122.055 233.113 122.731 233.113H122.728Z" fill="black"/>
<path d="M136.932 233.108H145.946C146.623 233.106 147.198 232.982 147.23 232.833L147.397 232.081C147.429 231.934 146.914 231.814 146.243 231.814H137.316C136.648 231.816 136.067 231.938 136.022 232.085L135.791 232.837C135.744 232.987 136.255 233.108 136.932 233.108Z" fill="black"/>
<path d="M151.133 233.102H160.147C160.824 233.1 161.386 232.976 161.403 232.827L161.489 232.075C161.506 231.927 160.976 231.808 160.307 231.808H151.38C150.712 231.81 150.144 231.932 150.114 232.079L149.964 232.831C149.934 232.98 150.458 233.102 151.135 233.102H151.133Z" fill="black"/>
<path d="M165.336 233.098H174.351C175.028 233.096 175.575 232.972 175.577 232.823L175.581 232.071C175.581 231.923 175.041 231.804 174.37 231.804H165.443C164.774 231.806 164.219 231.928 164.206 232.075L164.138 232.827C164.125 232.976 164.661 233.098 165.336 233.098Z" fill="black"/>
<path d="M179.536 233.094H188.55C189.228 233.092 189.762 232.968 189.747 232.818L189.67 232.066C189.655 231.919 189.099 231.799 188.431 231.799H179.506C178.837 231.801 178.295 231.923 178.297 232.071L178.31 232.823C178.312 232.972 178.863 233.094 179.538 233.094H179.536Z" fill="black"/>
<path d="M193.737 233.089H202.75C203.427 233.087 203.948 232.963 203.916 232.814L203.758 232.062C203.726 231.915 203.16 231.795 202.489 231.795H193.564C192.896 231.797 192.366 231.917 192.385 232.066L192.477 232.818C192.496 232.968 193.058 233.089 193.735 233.089H193.737Z" fill="black"/>
<path d="M207.934 233.085H216.947C217.622 233.083 218.132 232.959 218.085 232.809L217.846 232.058C217.799 231.91 217.218 231.791 216.549 231.791H207.624C206.956 231.793 206.441 231.912 206.475 232.062L206.648 232.814C206.682 232.963 207.259 233.085 207.936 233.085H207.934Z" fill="black"/>
<path d="M222.133 233.081H231.146C231.821 233.079 232.318 232.955 232.254 232.806L231.934 232.054C231.87 231.906 231.278 231.787 230.607 231.787H221.685C221.016 231.789 220.514 231.91 220.563 232.058L220.817 232.81C220.869 232.959 221.458 233.081 222.133 233.081Z" fill="black"/>
<path d="M236.331 233.077H245.343C246.018 233.075 246.501 232.951 246.422 232.801L246.02 232.049C245.941 231.902 245.334 231.782 244.666 231.782H235.743C235.074 231.784 234.585 231.904 234.652 232.054L234.987 232.805C235.053 232.955 235.656 233.077 236.333 233.077H236.331Z" fill="black"/>
<path d="M250.525 233.072H259.535C260.21 233.07 260.68 232.946 260.584 232.797L260.101 232.045C260.007 231.897 259.388 231.778 258.717 231.778H249.794C249.126 231.78 248.65 231.9 248.731 232.049L249.147 232.801C249.231 232.951 249.846 233.072 250.523 233.072H250.525Z" fill="black"/>
<path d="M271.803 246.21H263.397C262.654 246.212 262.139 246.362 262.248 246.543L262.483 246.938C262.592 247.122 263.288 247.272 264.036 247.272H272.504C273.253 247.27 273.76 247.118 273.636 246.934L273.371 246.539C273.249 246.357 272.546 246.208 271.803 246.21Z" fill="black"/>
<path d="M270.808 244.702H262.489C261.754 244.704 261.244 244.849 261.349 245.028L261.577 245.415C261.684 245.595 262.372 245.742 263.113 245.742H271.491C272.232 245.74 272.734 245.592 272.615 245.413L272.356 245.026C272.237 244.847 271.542 244.704 270.808 244.704V244.702Z" fill="black"/>
<path d="M283.652 246.206H275.246C274.503 246.208 274.001 246.357 274.123 246.539L274.39 246.934C274.514 247.118 275.223 247.267 275.97 247.267H284.436C285.186 247.265 285.679 247.113 285.54 246.93L285.244 246.535C285.107 246.353 284.393 246.203 283.65 246.206H283.652Z" fill="black"/>
<path d="M259.578 246.214H251.172C250.428 246.217 249.901 246.366 249.993 246.548L250.193 246.943C250.287 247.127 250.971 247.276 251.719 247.276H260.186C260.936 247.274 261.455 247.122 261.346 246.939L261.116 246.543C261.009 246.362 260.319 246.212 259.575 246.214H259.578Z" fill="black"/>
<path d="M264.72 233.068H273.731C274.406 233.066 274.863 232.942 274.749 232.792L274.186 232.04C274.074 231.893 273.442 231.773 272.774 231.773H263.851C263.182 231.776 262.719 231.895 262.817 232.045L263.315 232.797C263.415 232.946 264.043 233.068 264.718 233.068H264.72Z" fill="black"/>
<path d="M312.389 248.227H294.97C294.306 248.227 293.618 248.036 293.432 247.804L280.412 231.43C280.267 231.246 280.624 231.097 281.209 231.097H296.596C297.181 231.097 297.796 231.246 297.967 231.43L313.2 247.804C313.418 248.036 313.057 248.227 312.393 248.227H312.389Z" fill="#C8C8C7"/>
<path d="M59.1593 248.227H41.7411C41.0767 248.227 40.7157 248.036 40.9336 247.804L56.1666 231.43C56.3375 231.246 56.9505 231.097 57.538 231.097H72.9248C73.5101 231.097 73.8689 231.246 73.7215 231.43L60.7016 247.804C60.5158 248.036 59.8258 248.227 59.1636 248.227H59.1593Z" fill="#C8C8C7"/>
<path d="M246.448 269.113H93.2322L102.886 249.811H238.459L246.448 269.113Z" fill="#C8C8C7"/>
<path d="M274.578 229.642H79.5529L80.5633 228.313H273.568L274.578 229.642Z" fill="#343433"/>
<path d="M162.691 123.996C162.691 116.577 168.722 110.542 176.138 110.532C183.553 110.521 189.622 116.686 189.622 124.1V131.972C189.622 134.659 191.801 136.841 194.49 136.841C197.177 136.841 199.358 134.662 199.358 131.972V123.994C199.358 111.181 188.972 100.795 176.16 100.795C163.347 100.795 152.961 111.181 152.961 123.994V131.972C152.961 134.659 155.14 136.841 157.829 136.841C160.517 136.841 162.698 134.662 162.698 131.972V123.994L162.691 123.996Z" fill="#F3F3F3"/>
<path d="M208.714 150.694C208.714 150.694 208.714 150.689 208.714 150.687V150.343C208.714 144.738 204.17 140.194 198.565 140.194H153.749C148.143 140.194 143.6 144.738 143.6 150.343V169.763C143.6 183.556 154.782 194.737 168.576 194.737H169.417C169.417 194.737 169.432 194.737 169.441 194.737H182.877C182.877 194.737 182.894 194.737 182.901 194.737H183.74C197.533 194.737 208.716 183.556 208.716 169.763V168.913C208.716 168.913 208.716 168.902 208.716 168.898V150.694H208.714ZM176.157 153.96C176.281 153.96 176.403 153.962 176.522 153.968C176.422 153.975 176.323 153.981 176.225 153.99C180.021 154.295 183.01 157.467 183.01 161.342C183.01 163.662 181.939 165.73 180.267 167.084C180.109 167.213 179.944 167.334 179.776 167.45L179.808 167.762L181.102 180.7H170.953L172.263 167.614L172.28 167.447C172.194 167.39 172.111 167.33 172.03 167.268C170.218 165.924 169.043 163.769 169.043 161.34C169.043 157.465 172.032 154.293 175.828 153.988C175.77 153.983 175.71 153.979 175.653 153.975C175.819 153.964 175.988 153.958 176.159 153.958L176.157 153.96Z" fill="#F3F3F3"/>
<path d="M67.4774 42.3942V25.2771C67.4774 24.4867 67.486 23.6942 67.4774 22.9038C67.4774 22.8932 67.4774 22.8803 67.4774 22.8697C67.4774 22.028 67.11 21.1415 66.5162 20.5477C65.9458 19.9773 65.0123 19.5479 64.1942 19.5864C63.344 19.6248 62.4639 19.9025 61.8721 20.5477C61.2826 21.1906 60.9109 21.981 60.9109 22.8697V39.9867C60.9109 40.7771 60.9023 41.5696 60.9109 42.36C60.9109 42.3707 60.9109 42.3835 60.9109 42.3942C60.9109 43.2358 61.2783 44.1223 61.8721 44.7162C62.466 45.31 63.376 45.7159 64.1942 45.6775C65.0443 45.639 65.9244 45.3613 66.5162 44.7162C67.1057 44.0732 67.4774 43.2828 67.4774 42.3942Z" fill="#A1FF00"/>
<path d="M47.1621 46.0599C46.8395 45.5002 46.5169 44.9406 46.1944 44.383C45.4147 43.033 44.635 41.6808 43.8553 40.3307C42.9154 38.703 41.9776 37.0773 41.0377 35.4496C40.2259 34.0419 39.4142 32.6363 38.6003 31.2285C38.2051 30.5428 37.8164 29.8528 37.4126 29.1714C37.4062 29.1607 37.4019 29.1522 37.3955 29.1415C36.9833 28.428 36.2249 27.8491 35.4324 27.6312C34.6463 27.4155 33.5996 27.5116 32.901 27.9623C32.2004 28.4152 31.583 29.0881 31.3908 29.9255C31.1943 30.7906 31.2712 31.675 31.7219 32.4568C32.0444 33.0165 32.367 33.5762 32.6896 34.1337C33.4693 35.4838 34.249 36.8359 35.0287 38.186C35.9686 39.8138 36.9064 41.4394 37.8463 43.0671C38.658 44.4749 39.4697 45.8805 40.2836 47.2882C40.6788 47.9739 41.0676 48.6639 41.4713 49.3453C41.4777 49.356 41.482 49.3645 41.4884 49.3752C41.9007 50.0887 42.659 50.6676 43.4516 50.8855C44.2377 51.1012 45.2844 51.0051 45.9829 50.5544C46.6836 50.1015 47.3009 49.4286 47.4932 48.5913C47.6897 47.7261 47.6128 46.8417 47.1621 46.0599Z" fill="#A1FF00"/>
<path d="M31.4371 59.4261C30.8774 59.1036 30.3199 58.781 29.7602 58.4585C28.4101 57.6788 27.058 56.8991 25.7079 56.1194C24.0801 55.1795 22.4545 54.2417 20.8268 53.3018C19.419 52.49 18.0134 51.6783 16.6057 50.8644C15.92 50.4692 15.2386 50.0655 14.5486 49.6767C14.5379 49.6703 14.5294 49.666 14.5187 49.6596C13.7774 49.2324 12.814 49.0999 11.9873 49.3285C11.2247 49.5379 10.4002 50.1274 10.0242 50.8388C9.62046 51.6014 9.41966 52.5242 9.69309 53.3701C9.95584 54.1819 10.4493 54.8975 11.2034 55.3333L12.8802 56.3009C14.2303 57.0806 15.5825 57.8603 16.9325 58.64C18.5603 59.58 20.1859 60.5177 21.8137 61.4576C23.2214 62.2694 24.627 63.0811 26.0347 63.895C26.7204 64.2902 27.4019 64.6939 28.0919 65.0827C28.1025 65.0891 28.1111 65.0934 28.1218 65.0998C28.863 65.527 29.8264 65.6595 30.6531 65.4309C31.4157 65.2216 32.2403 64.632 32.6163 63.9206C33.02 63.158 33.2208 62.2352 32.9474 61.3893C32.6846 60.5775 32.1912 59.8619 31.4371 59.4261Z" fill="#A1FF00"/>
<path d="M24.4558 78.8456H7.33876C6.54838 78.8456 5.75586 78.837 4.96548 78.8456C4.9548 78.8456 4.94199 78.8456 4.93131 78.8456C4.08966 78.8456 3.20315 79.213 2.6093 79.8069C2.01544 80.4007 1.60957 81.3107 1.64802 82.1289C1.68648 82.9791 1.96418 83.8592 2.6093 84.4509C3.25228 85.0405 4.04266 85.4122 4.93131 85.4122H22.0484C22.8388 85.4122 23.6313 85.4207 24.4216 85.4122C24.4323 85.4122 24.4451 85.4122 24.4558 85.4122C25.2975 85.4122 26.184 85.0447 26.7778 84.4509C27.3482 83.8805 27.7776 82.947 27.7391 82.1289C27.7007 81.2787 27.423 80.3986 26.7778 79.8069C26.1349 79.2173 25.3445 78.8456 24.4558 78.8456Z" fill="#A1FF00"/>
<g style="mix-blend-mode:multiply">
<rect x="240.535" y="21.4766" width="164.079" height="175.246" rx="20" fill="#C9C9C9"/>
</g>
<rect x="249" y="13" width="164" height="175" rx="20" fill="white"/>
<path d="M344.482 41.3641L345.85 41.6144L344.721 40.7381C344.417 40.5028 344.109 40.2719 343.801 40.046L343.729 39.9928L343.644 39.9767C336.627 38.6236 328.085 36.145 318.251 32.6097L318.165 32.5786L318.079 32.5903C317.753 32.6341 317.428 32.6879 317.103 32.7507L315.876 32.9893L317.105 33.4361C327.822 37.3327 337.033 40 344.482 41.3641Z" fill="#A1FF00" stroke="#A1FF00" stroke-width="0.5"/>
<path d="M349.539 45.8613L350.642 46.1216L349.841 45.2803C349.633 45.0616 349.416 44.8479 349.193 44.6337L349.115 44.5582L349.011 44.5332C339.217 42.2017 326.826 38.7858 312.185 34.3797L312.056 34.3408L311.939 34.3935C311.725 34.4907 311.512 34.5922 311.299 34.6993L310.511 35.0934L311.405 35.3626C326.688 39.9657 339.519 43.4982 349.539 45.8613Z" fill="#A1FF00" stroke="#A1FF00" stroke-width="0.5"/>
<path d="M354.19 51.1929L355.275 51.5808L354.56 50.6556C354.453 50.518 354.345 50.3837 354.238 50.2494L354.096 50.0718L354.084 49.9308L353.842 49.8454C345.374 46.8478 330.466 42.2098 307.532 37.1349L307.378 37.1011L307.258 37.1877C307.09 37.3092 306.925 37.4307 306.758 37.5617L306.164 38.0262L306.945 38.1988C330.456 43.3875 345.614 48.1288 354.19 51.1929Z" fill="#A1FF00" stroke="#A1FF00" stroke-width="0.5"/>
<path d="M358.477 57.3736L359.585 57.943L358.916 56.8874C358.755 56.6338 358.595 56.3802 358.429 56.126L358.37 56.0344L358.273 55.9856C348.078 50.8397 330.314 43.9789 303.59 40.5163L303.425 40.4946L303.312 40.6051C303.17 40.746 303.027 40.8865 302.885 41.0374L302.398 41.5536L303.14 41.6485C330.362 45.1271 348.258 52.12 358.477 57.3736Z" fill="#A1FF00" stroke="#A1FF00" stroke-width="0.5"/>
<path d="M351.276 57.6957C355.152 59.6159 358.841 61.7543 362.238 64.0509L363.321 64.7829L362.738 63.6235C362.621 63.3927 362.503 63.1684 362.384 62.9426L362.331 62.8427L362.321 62.7272L362.16 62.6207C358.923 60.4767 355.422 58.4665 351.755 56.6473C341.226 51.4231 323.719 45.0502 300.1 44.3575L299.932 44.3525L299.832 44.4796C299.714 44.6306 299.591 44.781 299.463 44.9364L298.99 45.5136L299.77 45.5336C323.34 46.1496 340.789 52.4876 351.276 57.6957Z" fill="#A1FF00" stroke="#A1FF00" stroke-width="0.5"/>
<path d="M302.139 55.3276L302.495 55.3581L302.498 54.1699L302.138 54.1394C298.6 53.8414 295.53 54.4002 293.579 54.9214L293.432 54.9602L293.37 55.0973C293.286 55.2854 293.201 55.478 293.118 55.6756L292.81 56.401L293.575 56.1823C295.523 55.6262 298.589 55.0257 302.139 55.3276Z" fill="#A1FF00" stroke="#A1FF00" stroke-width="0.5"/>
<path d="M351.67 61.5921C356.563 64.3227 361.192 67.4534 365.427 70.8977L366.46 71.7374L365.969 70.5209C365.846 70.2167 365.713 69.9165 365.581 69.6218L365.542 69.533L365.465 69.4714C361.351 66.1869 356.889 63.1939 352.203 60.576C340.503 54.0404 321.426 46.6506 296.992 48.5593L296.827 48.572L296.742 48.7074C296.642 48.8678 296.541 49.0332 296.441 49.1986L296.738 49.4245L296.427 49.2208L296.051 49.8419L296.798 49.7802C321.087 47.7834 340.044 55.101 351.67 61.5921Z" fill="#A1FF00" stroke="#A1FF00" stroke-width="0.5"/>
<path d="M314.752 53.0417C327.451 54.4458 346.861 59.4452 367.209 75.2891L368.155 76.0261L367.748 74.9178C367.674 74.7185 367.595 74.5165 367.518 74.3156L367.451 74.143L367.44 74.022L367.301 73.9149C346.9 58.2225 327.469 53.2576 314.76 51.8556C306.303 50.9255 299.38 51.3761 295.063 51.9184L294.894 51.9395L294.217 53.2409L294.945 53.146C299.286 52.5799 306.244 52.1026 314.752 53.0417Z" fill="#A1FF00" stroke="#A1FF00" stroke-width="0.5"/>
<path d="M291.636 99.0607L290.502 98.5967L290.387 98.9169C290.364 98.9819 288.015 105.983 287.036 115.579L287.03 115.634L287.042 115.69C287.148 116.189 287.263 116.688 287.383 117.187L287.903 119.351L288.087 117.193C288.957 106.972 291.488 99.4763 291.517 99.3925L291.636 99.0607Z" fill="#A1FF00" stroke="#A1FF00" stroke-width="0.5"/>
<path d="M289.78 78.9226L289.77 78.5657L288.577 78.4941L288.587 78.8504C288.794 86.3378 287.938 95.4303 285.81 108.333L285.802 108.387L285.808 108.438C285.875 108.988 285.951 109.53 286.032 110.071L286.37 112.331L286.739 110.138C289.054 96.3826 289.992 86.7552 289.78 78.9226Z" fill="#A1FF00" stroke="#A1FF00" stroke-width="0.5"/>
<path d="M293.031 95.2829L294.561 90.4617L293.418 90.021L291.894 94.84L293.031 95.2829Z" fill="#A1FF00" stroke="#A1FF00" stroke-width="0.5"/>
<path d="M289.968 75.7733C290.421 72.0854 292.888 69.6972 292.909 69.6773L293.169 69.4425L292.306 68.5479L292.058 68.7726C292.03 68.7976 289.291 71.3889 288.783 75.5258L288.74 75.8743L289.925 76.124L289.968 75.7733Z" fill="#A1FF00" stroke="#A1FF00" stroke-width="0.5"/>
<path d="M290.437 85.5903L291.633 85.733L291.645 85.3795C291.758 82.1466 294.988 77.6307 295.13 77.4336L295.326 77.1578L294.347 76.4097L294.145 76.6827C293.999 76.8797 290.581 81.5428 290.45 85.2351L290.437 85.5903Z" fill="#A1FF00" stroke="#A1FF00" stroke-width="0.5"/>
<path d="M297.411 79.8866L297.663 79.6418L296.753 78.7666L296.516 79.0208C296.09 79.4787 292.293 83.7421 290.276 92.4705L290.196 92.8129L291.364 93.1692L291.442 92.8307C293.482 84.0024 297.376 79.9221 297.411 79.8866Z" fill="#A1FF00" stroke="#A1FF00" stroke-width="0.5"/>
<path d="M298.099 84.4115L297.066 83.7222L294.465 87.9651L295.498 88.6533L298.099 84.4115Z" fill="#A1FF00" stroke="#A1FF00" stroke-width="0.5"/>
<path d="M298.76 69.7928L299.09 69.6879L298.646 68.5469L298.313 68.6529C298.06 68.7334 292.1 70.6903 290.448 76.8618L290.358 77.1998L291.512 77.5938L291.601 77.2591C293.107 71.6465 298.53 69.8655 298.76 69.7928Z" fill="#A1FF00" stroke="#A1FF00" stroke-width="0.5"/>
<path d="M300.53 61.99L300.882 61.9389L300.601 60.7612L300.255 60.8112C294.615 61.6298 291.402 63.6694 289.7 65.2367L289.585 65.3482L289.594 65.4481L288.882 67.9195L289.936 66.7768C291.229 65.3754 294.325 62.8896 300.53 61.99Z" fill="#A1FF00" stroke="#A1FF00" stroke-width="0.5"/>
<path d="M316.433 57.4492C329.098 57.9415 348.486 62.2699 368.931 80.0945L369.888 80.9298L369.491 79.7482C369.399 79.4757 369.307 79.2032 369.211 78.9346L369.201 78.8214L369.078 78.7154C348.526 61.0361 329.062 56.7455 316.352 56.2593C303.32 55.752 294.045 58.9788 291.513 59.9783L291.384 60.0293L291.333 60.1581C291.27 60.3218 291.21 60.4922 291.151 60.6609L290.824 61.5844L291.608 61.2575C293.356 60.5283 302.769 56.9192 316.433 57.4492Z" fill="#A1FF00" stroke="#A1FF00" stroke-width="0.5"/>
<path d="M317.939 60.6592C303.47 61.2081 293.719 67.0882 293.306 67.3413L293.008 67.5222L293.711 68.5429L294 68.3653C294.399 68.1211 303.938 62.3769 318.107 61.8497C330.672 61.3718 349.96 64.9976 370.475 84.9612L371.418 85.8803L371.055 84.6443C370.966 84.3424 370.873 84.0443 370.78 83.7469L370.75 83.6503L370.675 83.5787C350.035 63.7744 330.605 60.1869 317.939 60.6592Z" fill="#A1FF00" stroke="#A1FF00" stroke-width="0.5"/>
<path d="M344.733 68.641C336.445 65.2711 327.964 64.069 319.521 65.0669C305.178 66.7691 295.796 74.3974 295.708 74.4735L295.456 74.691L296.248 75.6295L296.514 75.4125C296.605 75.3376 305.819 67.904 319.765 66.2529C332.195 64.7744 351.323 67.6742 371.848 89.8562L372.797 90.8824L372.446 89.5637C372.36 89.2423 372.276 88.926 372.186 88.6102L372.16 88.5181L372.093 88.447C363.351 79.1332 354.145 72.4694 344.733 68.641Z" fill="#A1FF00" stroke="#A1FF00" stroke-width="0.5"/>
<path d="M333.182 68.7954C312.685 66.9301 298.277 81.4415 298.134 81.5885L297.893 81.8355L298.789 82.6935L299.025 82.4521C299.164 82.3089 313.242 68.1627 333.178 69.9831C346.936 71.2402 360.355 79.575 373.064 94.7563L374.027 95.9068L373.677 94.4854C373.599 94.1669 373.525 93.8533 373.451 93.5347L373.442 93.4349L373.361 93.3388C360.592 78.3241 347.075 70.0669 333.182 68.7954Z" fill="#A1FF00" stroke="#A1FF00" stroke-width="0.5"/>
<path d="M298.866 91.1574C308.745 76.954 328.667 67.6352 350.908 78.8366C362.477 84.6595 367.318 91.5731 372.924 99.5783C373.456 100.336 373.999 101.108 374.552 101.885L375.46 103.161L375.189 101.663C375.125 101.304 375.061 100.95 374.996 100.624L374.987 100.523L374.926 100.436C374.574 99.9368 374.227 99.4418 373.882 98.9467C368.167 90.7972 363.232 83.7588 351.372 77.7849C328.495 66.2627 308.014 75.8285 297.865 90.4209C288.59 103.752 289.253 119.085 290.474 127.038L290.493 127.113C290.78 127.878 291.069 128.634 291.369 129.379L292.05 129.234C289.319 115.19 291.804 101.312 298.866 91.1574Z" fill="#A1FF00" stroke="#A1FF00" stroke-width="0.5"/>
<path d="M347.41 129.308C345.312 123.889 344.315 123.32 343.554 123.509C341.617 123.973 343.41 131.039 343.429 131.11C344.426 134.936 360.196 143.708 366.93 147.301L367.237 147.466L367.798 146.459L367.45 146.274C356.855 140.605 345.283 133.592 344.58 130.907C343.795 127.885 343.773 125.52 343.939 124.81C344.242 125.151 344.982 126.242 346.301 129.647C349.442 137.756 361.552 142.47 368.49 144.559L368.761 144.641L368.885 144.404C368.963 144.256 369.037 144.106 369.112 143.954L369.302 143.567L368.865 143.434C362.098 141.374 350.312 136.799 347.41 129.308Z" fill="#A1FF00" stroke="#A1FF00" stroke-width="0.5"/>
<path d="M349.021 127.398C346.893 122.48 345.22 120.323 343.606 120.428C341.954 120.505 340.854 122.914 340.037 128.241C338.939 135.39 359.085 146.709 365.285 150.007L365.565 150.156L365.732 149.915C365.824 149.782 365.91 149.643 365.992 149.511L366.191 149.187L365.83 148.993C353.43 142.36 340.452 133.499 341.216 128.523C342.165 122.352 343.317 121.635 343.793 121.614C344.138 121.614 345.455 122.059 347.93 127.783C350.412 133.575 357.644 138.563 369.424 142.607L369.722 142.709L369.842 142.438C369.873 142.368 369.905 142.301 369.937 142.233C369.971 142.16 370.005 142.088 370.038 142.014L370.201 141.647L369.797 141.509C358.504 137.646 351.319 132.767 349.021 127.398Z" fill="#A1FF00" stroke="#A1FF00" stroke-width="0.5"/>
<path d="M350.632 125.489C347.946 119.853 345.471 117.1 343.035 117.074C340.615 117.074 338.537 119.84 336.681 125.53C333.312 135.838 356.348 148.891 363.488 152.646L363.761 152.79L364.445 151.847L364.054 151.64C359.125 149.031 334.696 135.536 337.816 125.984C339.467 120.934 341.307 118.265 343.159 118.265C344.972 118.286 347.185 120.935 349.56 125.925C352.195 131.455 358.972 136.264 370.279 140.629L370.573 140.743L370.705 140.478C370.779 140.329 370.842 140.177 370.899 140.024L371.029 139.681L370.666 139.541C359.662 135.294 353.109 130.698 350.632 125.489Z" fill="#A1FF00" stroke="#A1FF00" stroke-width="0.5"/>
<path d="M352.238 123.585C348.785 117.008 345.39 113.626 342.146 113.531C338.927 113.458 335.963 116.58 333.318 122.861C330.676 129.125 334.909 136.796 345.559 145.045C352.188 150.18 359.459 154.105 361.529 155.185L361.785 155.319L361.956 155.114C362.056 154.993 362.156 154.872 362.257 154.747L362.524 154.412L362.113 154.197C356.548 151.286 329.06 136.123 334.423 123.4C336.882 117.57 339.499 114.649 342.216 114.722C344.959 114.803 347.981 117.946 351.195 124.063C354.849 131.017 364.293 135.709 371.08 138.633L371.413 138.777L371.589 138.314C371.627 138.217 371.665 138.118 371.698 138.021L371.81 137.697L371.476 137.553C364.874 134.707 355.699 130.162 352.238 123.585Z" fill="#A1FF00" stroke="#A1FF00" stroke-width="0.5"/>
<path d="M353.848 121.675C349.328 113.859 345.128 109.997 341.006 109.868C337.02 109.749 333.314 113.23 329.949 120.213C328.266 123.699 328.183 127.474 329.704 131.432C334.615 144.224 355.292 155.503 359.387 157.634L359.626 157.759L359.799 157.579C359.905 157.468 360.006 157.356 360.125 157.226L360.433 156.887L359.994 156.659C355.957 154.567 335.58 143.499 330.813 131.09C329.417 127.459 329.491 123.997 331.033 120.8C334.15 114.334 337.481 111.058 340.938 111.058C340.984 111.058 341.029 111.058 341.075 111.059C344.712 111.169 348.557 114.813 352.826 122.2C356.571 128.681 364.941 133.296 371.815 136.593L372.156 136.757L372.282 136.425C372.338 136.278 372.388 136.131 372.439 135.978L372.541 135.67L372.23 135.52C365.533 132.301 357.392 127.818 353.848 121.675Z" fill="#A1FF00" stroke="#A1FF00" stroke-width="0.5"/>
<path d="M355.45 119.766C351.478 113.5 346.099 106.287 339.703 106.135L339.513 106.13C334.903 106.13 330.55 109.979 326.576 117.57C324.26 121.994 324.004 126.72 325.816 131.618C331.087 145.889 352.749 157.742 357.038 159.973L357.263 160.089L357.435 159.931C357.556 159.82 357.676 159.708 357.796 159.593L358.148 159.254L357.677 159.011C353.447 156.83 332.083 145.244 326.929 131.294C325.243 126.73 325.484 122.323 327.647 118.195C331.474 110.876 335.556 107.203 339.789 107.325C345.56 107.463 350.662 114.352 354.461 120.337C358.315 126.423 365.738 130.916 372.491 134.509L372.856 134.702L372.978 134.335C373.029 134.181 373.075 134.026 373.116 133.873L373.192 133.589L372.917 133.442C366.34 129.93 359.123 125.558 355.45 119.766Z" fill="#A1FF00" stroke="#A1FF00" stroke-width="0.5"/>
<path d="M357.053 117.848L356.956 117.715C352.986 112.002 346.343 102.441 338.27 102.349H338.161C332.85 102.349 327.817 106.583 323.205 114.934C320.221 120.306 319.768 125.992 321.86 131.833C327.277 146.963 348.174 158.892 354.45 162.187L354.658 162.297L354.869 162.132C354.992 162.036 355.111 161.941 355.23 161.84L355.623 161.505L355.127 161.247C350.713 158.946 328.414 146.701 322.977 131.523C321.007 126.021 321.438 120.656 324.26 115.578C328.703 107.53 333.455 103.475 338.365 103.541C345.786 103.629 352.181 112.84 356.001 118.343L356.094 118.477C360.115 124.267 367.301 128.942 373.113 132.369L373.502 132.598L373.824 131.459L373.562 131.305C367.906 127.961 360.918 123.412 357.053 117.848Z" fill="#A1FF00" stroke="#A1FF00" stroke-width="0.5"/>
<path d="M358.66 115.951C358.458 115.685 358.248 115.405 358.03 115.114L357.507 114.415C353.096 108.494 345.714 98.5815 336.813 98.5615C330.807 98.5615 325.093 103.183 319.831 112.3C316.164 118.662 315.514 125.329 317.901 132.116C323.572 148.263 345.106 160.792 351.571 164.248L351.764 164.351L352.853 163.624L352.303 163.332C345.903 159.946 324.591 147.666 319.024 131.815C316.759 125.365 317.382 119.022 320.876 112.962C325.933 104.197 331.33 99.7525 336.94 99.7525C345.177 99.7714 352.311 109.348 356.572 115.07C356.983 115.624 357.372 116.145 357.732 116.617C361.946 122.16 368.465 126.76 373.674 130.148L374.083 130.414L374.197 129.97C374.238 129.814 374.277 129.652 374.312 129.491L374.366 129.241L374.139 129.093C369.078 125.793 362.745 121.317 358.66 115.951Z" fill="#A1FF00" stroke="#A1FF00" stroke-width="0.5"/>
<path d="M362.381 114.762C351.797 98.8975 342.345 95.5099 336.279 95.4616C329.101 95.43 322.81 99.9198 318.577 108.165C313.571 117.915 312.916 127.482 316.63 136.601C323.046 152.363 340.855 162.538 348.214 166.182L348.374 166.261L348.524 166.19C348.703 166.107 348.881 166.014 349.055 165.921L349.649 165.601L348.999 165.284C343.305 162.503 324.225 152.19 317.729 136.235C314.153 127.459 314.798 118.22 319.646 108.776C323.661 100.957 329.559 96.6515 336.253 96.6515H336.374C342.13 96.6937 351.146 99.9731 361.409 115.358C364.555 120.079 370.181 124.345 374.348 127.093L374.78 127.378L374.887 126.854C374.917 126.705 374.948 126.556 374.974 126.412L375.018 126.17L374.801 126.026C370.79 123.367 365.38 119.254 362.381 114.762Z" fill="#A1FF00" stroke="#A1FF00" stroke-width="0.5"/>
<path d="M363.827 112.222C359.471 105.758 355.25 101.185 350.544 97.8297C344.197 93.3082 337.689 91.5 331.724 92.6C325.234 93.8049 319.514 98.4319 315.618 105.63C306.988 121.55 311.445 134.873 316.703 143.244C324.852 156.325 339.786 164.398 345.829 167.262L345.975 167.331L346.115 167.275C346.313 167.197 346.501 167.119 346.697 167.031L347.387 166.723L346.655 166.382C340.646 163.582 325.796 155.668 317.7 142.681C312.615 134.589 308.311 121.702 316.681 106.263C320.427 99.3487 325.882 94.9132 332.04 93.7744C337.669 92.731 343.848 94.4614 349.907 98.7804C354.477 102.032 358.592 106.494 362.856 112.822C365.317 116.474 369.333 120.386 374.794 124.452L375.241 124.785L375.343 124.27C375.376 124.096 375.406 123.923 375.43 123.745L375.459 123.527L375.273 123.388C370.021 119.46 366.171 115.703 363.827 112.222Z" fill="#A1FF00" stroke="#A1FF00" stroke-width="0.5"/>
<path d="M365.272 109.681C360.424 102.554 356.057 98.0078 350.672 94.4814C343.713 89.9227 336.591 88.1934 330.079 89.4848C323.054 90.8695 316.867 95.7013 312.657 103.089C305.478 115.702 305.602 130.205 312.997 142.881C321.184 156.916 336.789 165.26 343.118 168.195L343.243 168.253L343.368 168.218C343.576 168.16 343.78 168.095 343.987 168.028L344.89 167.736L344.031 167.346C337.717 164.476 322.153 156.297 314.016 142.353C309.803 135.13 304.16 120.509 313.709 103.744C317.76 96.6265 323.69 91.9773 330.407 90.6531C336.608 89.4271 343.411 91.0899 350.08 95.4588C355.311 98.8858 359.565 103.321 364.303 110.288C366.694 113.809 370.349 117.619 375.167 121.613L375.648 122.012L375.735 121.429C375.763 121.241 375.781 121.059 375.8 120.873L375.819 120.676L375.658 120.543C371.056 116.707 367.562 113.052 365.272 109.681Z" fill="#A1FF00" stroke="#A1FF00" stroke-width="0.5"/>
<path d="M366.719 107.141C362.866 101.525 358.273 95.6986 350.808 91.1365C331.608 79.4007 316.666 88.8755 309.703 100.555C302.074 113.349 301.922 129.036 309.297 142.519C317.083 156.767 331.821 165.173 339.912 168.915L340.017 168.964L340.127 168.946C340.392 168.902 340.658 168.854 340.928 168.801L341.984 168.593L340.953 168.127C332.844 164.462 318.082 156.197 310.329 142.025C303.164 128.923 303.318 113.673 310.74 101.231C317.438 89.9899 331.806 80.8636 350.252 92.1366C357.491 96.561 361.98 102.256 365.752 107.751C368.099 111.179 371.359 114.811 375.442 118.547L375.969 119.029L376.028 118.355C376.045 118.164 376.056 117.968 376.068 117.772L375.711 117.712L376.069 117.765L376.079 117.587L375.942 117.46C372.052 113.872 368.949 110.4 366.719 107.141Z" fill="#A1FF00" stroke="#A1FF00" stroke-width="0.5"/>
<path d="M368.164 104.601C363.401 97.7233 358.65 92.2333 350.944 87.7967C342.059 82.6741 332.992 81.2711 324.726 83.7397C317.517 85.8964 311.131 90.9679 306.742 98.0213C298.558 111.17 298.128 127.67 305.592 142.158C313.118 156.768 327.768 165.398 335.83 169.242L335.908 169.279H335.991C336.345 169.279 336.693 169.275 337.049 169.255L338.433 169.18L337.125 168.576C328.978 164.818 314.184 156.328 306.644 141.69C299.379 127.586 299.801 111.52 307.773 98.7111C315.052 87.0053 330.589 77.3906 350.422 88.8173C357.918 93.1329 362.55 98.4936 367.199 105.214C369.456 108.485 372.279 111.849 375.588 115.213L376.17 115.804L376.19 115.014C376.195 114.801 376.196 114.589 376.196 114.372L376.197 114.219L376.085 114.104C372.946 110.872 370.281 107.675 368.164 104.601Z" fill="#A1FF00" stroke="#A1FF00" stroke-width="0.5"/>
<path d="M369.81 101.801C365.549 95.6917 360.608 89.2999 351.288 84.1979C341.766 78.9837 332.032 77.6656 323.138 80.3834C315.464 82.7255 308.663 87.9968 303.987 95.2267C293.701 111.114 296.264 129.568 302.094 141.542C308.71 155.129 321.068 163.678 330.27 168.456L330.358 168.499H330.415C330.888 168.587 331.375 168.663 331.863 168.725L333.877 168.979L332.013 168.053C322.546 163.349 309.854 154.854 303.159 141.095C297.47 129.421 294.968 111.427 305.004 95.9354C313.515 82.7843 330.973 74.3734 350.786 85.2263C359.866 90.1984 364.687 96.4465 368.848 102.42C370.974 105.473 373.298 108.427 375.757 111.202L376.4 111.927L376.371 110.908C376.365 110.695 376.359 110.488 376.348 110.259L376.337 110.13L376.251 110.033C373.961 107.42 371.794 104.65 369.81 101.801Z" fill="#A1FF00" stroke="#A1FF00" stroke-width="0.5"/>
<path d="M375.817 106.1L375.806 105.992L375.737 105.903C373.946 103.606 372.365 101.389 371.056 99.5227C366.359 92.8361 361.308 86.3977 351.228 81.1219C329.538 69.7568 310.286 78.8753 300.828 92.9543C289.866 109.27 292.555 129.272 298.19 141.443C302.164 150.067 308.776 157.664 317.801 163.992L317.904 164.063C319.258 164.871 320.631 165.587 321.985 166.189L322.274 165.565C311.449 158.915 303.709 150.659 299.268 141.025C293.761 129.141 291.129 109.61 301.833 93.6775C311.017 80.0019 329.703 71.1376 350.748 82.1631C360.553 87.2995 365.497 93.6003 370.099 100.145C371.438 102.054 373.237 104.576 375.271 107.155L376 108.079L375.902 106.95C375.876 106.666 375.847 106.383 375.817 106.1Z" fill="#A1FF00" stroke="#A1FF00" stroke-width="0.5"/>
<path d="M327.421 32.6483C326.681 32.5851 325.918 32.5834 325.134 32.6949C329.43 34.2395 336.712 36.3745 339.106 36.8363C336.833 35.1747 330.226 32.8859 327.421 32.6483Z" fill="#A1FF00" stroke="#A1FF00" stroke-width="0.5"/>
<path d="M279.775 30V34.1318H270.384V43.7561H266V30H279.775Z" fill="black"/>
<path d="M279.775 171V166.868H270.384V157.244H266V171H279.775Z" fill="black"/>
<path d="M382.225 30V34.1318H391.616V43.7561H396V30H382.225Z" fill="black"/>
<path d="M382.225 171V166.868H391.616V157.244H396V171H382.225Z" fill="black"/>
</svg>
