<svg width="216" height="186" viewBox="0 0 216 186" fill="none" xmlns="http://www.w3.org/2000/svg">
<g id="Group 1171276149">
<g id="Group 1171276043">
<path id="Vector" opacity="0.1" d="M92.9988 174.745C138.147 174.745 174.746 138.145 174.746 92.9971C174.746 47.8492 138.147 11.2495 92.9988 11.2495C47.8509 11.2495 11.2512 47.8492 11.2512 92.9971C11.2512 138.145 47.8509 174.745 92.9988 174.745Z" fill="#F3F3F3"/>
<path id="Vector_2" opacity="0.1" d="M92.9989 185.999C80.4451 185.999 68.2653 183.54 56.7987 178.69C45.7238 174.005 35.7783 167.3 27.238 158.76C18.6978 150.219 11.9923 140.274 7.30812 129.199C2.45873 117.732 0 105.554 0 92.9989C0 80.444 2.45873 68.2653 7.30924 56.7987C11.9934 45.7238 18.6989 35.7783 27.2392 27.2381C35.7794 18.6978 45.7249 11.9923 56.7998 7.30812C68.2653 2.45874 80.4451 0 92.9989 0C105.553 0 117.732 2.45873 129.199 7.30924C140.274 11.9934 150.219 18.6989 158.76 27.2392C167.3 35.7794 174.005 45.7249 178.69 56.7998C183.539 68.2664 185.999 80.4452 185.999 93C185.999 105.555 183.54 117.734 178.69 129.2C174.005 140.275 167.3 150.221 158.76 158.761C150.219 167.301 140.274 174.007 129.199 178.691C117.732 183.54 105.554 186 92.9989 186V185.999ZM92.9989 2.81588C80.8235 2.81588 69.0131 5.19984 57.8958 9.90191C47.1568 14.4444 37.5116 20.9467 29.2291 29.2291C20.9467 37.5116 14.4433 47.1568 9.9019 57.8958C5.19984 69.0131 2.81588 80.8235 2.81588 92.9989C2.81588 105.174 5.19984 116.985 9.9019 128.102C14.4444 138.841 20.9467 148.486 29.2291 156.769C37.5116 165.051 47.1568 171.555 57.8958 176.096C69.0131 180.798 80.8235 183.182 92.9989 183.182C105.174 183.182 116.985 180.798 128.102 176.096C138.841 171.553 148.486 165.051 156.769 156.769C165.051 148.486 171.554 138.841 176.097 128.102C180.799 116.985 183.183 105.174 183.183 92.9989C183.183 80.8235 180.799 69.0131 176.097 57.8958C171.554 47.1568 165.052 37.5116 156.769 29.2291C148.485 20.9467 138.841 14.4433 128.102 9.90191C116.985 5.19984 105.174 2.81588 92.9989 2.81588Z" fill="#F3F3F3"/>
<path id="Vector_3" d="M152.684 34.3223H31.3878C27.8945 34.3223 25.063 37.0969 25.063 40.5177V117.892C25.063 119.254 26.1902 120.359 27.5798 120.359H156.491C157.882 120.359 159.008 119.254 159.008 117.892V40.5177C159.008 37.0969 156.176 34.3223 152.683 34.3223H152.684ZM154.11 114.549H29.9615V39.8536H154.11V114.548V114.549Z" fill="white"/>
<path id="Vector_4" opacity="0.5" d="M152.684 34.3223H106.056L101.931 39.8536H154.11V114.548H61.9481L57.6155 120.358H156.492C157.882 120.358 159.008 119.253 159.008 117.891V40.5177C159.008 37.0969 156.177 34.3223 152.684 34.3223Z" fill="#D9D9D9"/>
<path id="Vector_5" d="M154.11 39.855H29.9609V114.549H154.11V39.855Z" fill="#A1FF00"/>
<path id="Vector_6" d="M178.746 140.449C178.743 140.431 178.739 140.414 178.736 140.397C178.736 140.391 178.736 140.385 178.733 140.38C178.729 140.364 178.723 140.35 178.718 140.335C178.714 140.327 178.713 140.318 178.71 140.311C178.706 140.297 178.699 140.285 178.693 140.272C178.688 140.261 178.684 140.251 178.681 140.24C178.673 140.229 178.666 140.217 178.66 140.205C178.653 140.193 178.648 140.182 178.64 140.17C178.632 140.158 178.624 140.145 178.614 140.132C178.607 140.122 178.602 140.111 178.592 140.1C178.557 140.053 178.516 140.004 178.471 139.955C178.463 139.948 178.457 139.939 178.449 139.932L169.186 130.565H15.8342L6.57178 139.932C6.56397 139.939 6.55727 139.948 6.54946 139.955C6.51151 139.994 6.47915 140.033 6.44901 140.072C6.33182 140.222 6.27267 140.37 6.26709 140.506C6.26709 140.522 6.26709 140.537 6.26709 140.554V140.571V140.573V140.583C6.3028 141.336 6.56174 142.199 7.21353 142.873C7.86309 143.546 8.9044 144.033 10.4959 144.033H174.518C177.704 144.033 178.68 142.09 178.747 140.582C178.747 140.578 178.747 140.575 178.747 140.571V140.564C178.747 140.564 178.747 140.564 178.747 140.562V140.525C178.747 140.518 178.749 140.513 178.749 140.506C178.747 140.49 178.745 140.474 178.742 140.458C178.742 140.455 178.742 140.452 178.742 140.45L178.746 140.449Z" fill="#C9C9C9"/>
<path id="Vector_7" d="M178.471 139.946H6.55277C6.3675 140.139 6.27598 140.326 6.26929 140.498C6.26929 140.519 6.26929 140.541 6.2704 140.562C6.2704 140.566 6.2704 140.57 6.2704 140.575C6.33737 142.082 7.31394 144.026 10.4992 144.026H174.521C177.707 144.026 178.683 142.082 178.75 140.575C178.75 140.571 178.75 140.567 178.75 140.562C178.75 140.541 178.751 140.519 178.751 140.498C178.745 140.326 178.653 140.139 178.468 139.946H178.471Z" fill="#C8C8C7"/>
<path id="Vector_8" d="M109.424 140.911C109.424 140.919 109.424 140.927 109.424 140.935C109.414 141.734 109.047 142.377 108.595 142.377H76.4281C75.9783 142.377 75.6123 141.74 75.5989 140.946C75.5989 140.944 75.5989 140.942 75.5989 140.939C75.5989 140.928 75.5989 140.917 75.5989 140.906C75.6 140.815 75.6179 140.717 75.6547 140.616H109.37C109.407 140.72 109.425 140.82 109.426 140.911H109.424Z" fill="#969696"/>
<path id="Vector_9" d="M178.754 140.509C178.754 140.523 178.754 140.539 178.754 140.553C178.714 141.136 177.68 141.55 175.998 141.55H9.02637C7.36452 141.55 6.33437 141.146 6.27187 140.575C6.27187 140.57 6.27187 140.566 6.27187 140.562C6.27187 140.541 6.27075 140.519 6.27075 140.498C6.27745 140.326 6.36897 140.139 6.55424 139.946C6.56093 139.939 6.56875 139.931 6.57544 139.924L25.6996 120.583C26.223 120.054 28.0087 119.631 29.6963 119.631H155.331C157.017 119.631 158.804 120.054 159.326 120.583L178.45 139.924C178.458 139.932 178.465 139.94 178.471 139.946C178.661 140.144 178.753 140.334 178.755 140.509H178.754Z" fill="white"/>
<path id="Vector_10" d="M33.9482 129.004L39.8947 121.288C40.128 120.986 41.0923 120.743 42.051 120.743H142.973C143.931 120.743 144.895 120.986 145.129 121.288L151.076 129.004C151.367 129.382 150.726 129.693 149.642 129.693H35.3824C34.2975 129.693 33.6569 129.383 33.9482 129.004Z" fill="#C9C9C9"/>
<path id="Vector_11" d="M41.8563 121.8H46.5684C46.9222 121.799 47.2503 121.735 47.3005 121.656L47.5572 121.264C47.6074 121.187 47.3652 121.124 47.0148 121.124H42.3496C41.9991 121.125 41.6699 121.189 41.6118 121.266L41.3216 121.659C41.2636 121.737 41.5036 121.8 41.8563 121.8Z" fill="black"/>
<path id="Vector_12" d="M40.8581 123.168H45.664C46.0245 123.167 46.3604 123.1 46.4129 123.019L46.9207 122.24C46.9731 122.16 46.7265 122.096 46.3716 122.096H41.6394C41.2845 122.097 40.9485 122.162 40.8905 122.242L40.3146 123.021C40.2543 123.102 40.4976 123.168 40.8581 123.168Z" fill="black"/>
<path id="Vector_13" d="M47.9726 123.165H52.7774C53.1378 123.164 53.466 123.097 53.5117 123.016L53.9403 122.237C53.9838 122.158 53.7316 122.093 53.3767 122.093H48.6445C48.2896 122.094 47.9603 122.159 47.9101 122.238L47.4134 123.017C47.361 123.098 47.611 123.164 47.9715 123.164L47.9726 123.165Z" fill="black"/>
<path id="Vector_14" d="M55.0852 123.165H59.8899C60.2504 123.164 60.5718 123.097 60.6087 123.016L60.9591 122.237C60.9948 122.157 60.7359 122.093 60.381 122.093H55.6499C55.295 122.094 54.9725 122.159 54.93 122.238L54.5126 123.017C54.4691 123.098 54.7258 123.164 55.0863 123.164L55.0852 123.165Z" fill="black"/>
<path id="Vector_15" d="M62.1981 123.163H67.0029C67.3633 123.162 67.6781 123.095 67.7071 123.013L67.9783 122.235C68.0062 122.156 67.7406 122.091 67.3857 122.091H62.6546C62.2997 122.092 61.9838 122.157 61.9492 122.236L61.6099 123.015C61.5742 123.097 61.8376 123.163 62.1981 123.163Z" fill="black"/>
<path id="Vector_16" d="M68.9689 122.235L68.7089 123.013C68.6821 123.094 68.9522 123.16 69.3116 123.16H74.1152C74.4757 123.159 74.7837 123.092 74.8038 123.01L74.9958 122.232C75.0159 122.153 74.7435 122.088 74.3886 122.088H69.6575C69.3026 122.089 68.9935 122.154 68.9667 122.233L68.9689 122.235Z" fill="black"/>
<path id="Vector_17" d="M81.3926 122.085H76.6615C76.3066 122.086 76.0042 122.15 75.9852 122.23L75.8044 123.008C75.7854 123.089 76.0622 123.155 76.4227 123.155H81.2263C81.5868 123.154 81.8882 123.087 81.9004 123.005L82.0132 122.227C82.0243 122.148 81.7464 122.083 81.3915 122.083L81.3926 122.085Z" fill="black"/>
<path id="Vector_18" d="M88.3958 122.082H83.6658C83.3109 122.083 83.0151 122.148 83.004 122.227L82.9024 123.005C82.8913 123.086 83.1747 123.152 83.5352 123.152H88.3389C88.6994 123.151 88.994 123.084 88.9974 123.002L89.032 122.225C89.0353 122.145 88.7507 122.081 88.3958 122.081V122.082Z" fill="black"/>
<path id="Vector_19" d="M95.3987 122.082H90.6687C90.3138 122.083 90.0247 122.148 90.0225 122.227L89.999 123.005C89.9968 123.086 90.287 123.152 90.6475 123.152H95.4511C95.8116 123.151 96.0996 123.084 96.0951 123.002L96.0504 122.225C96.046 122.145 95.7547 122.081 95.3998 122.081L95.3987 122.082Z" fill="black"/>
<path id="Vector_20" d="M102.399 122.08H97.6694C97.3145 122.081 97.0321 122.146 97.0377 122.225L97.0935 123.003C97.0991 123.085 97.3959 123.151 97.7564 123.151H102.559C102.919 123.149 103.201 123.082 103.187 123.001L103.063 122.223C103.051 122.144 102.753 122.079 102.398 122.079L102.399 122.08Z" fill="black"/>
<path id="Vector_21" d="M104.867 123.149H109.669C110.03 123.148 110.304 123.081 110.283 123L110.081 122.222C110.06 122.142 109.756 122.078 109.402 122.078H104.673C104.318 122.079 104.041 122.143 104.055 122.223L104.191 123.001C104.205 123.082 104.509 123.148 104.868 123.148L104.867 123.149Z" fill="black"/>
<path id="Vector_22" d="M111.977 123.148H116.779C117.14 123.146 117.408 123.08 117.379 122.998L117.098 122.22C117.069 122.141 116.758 122.076 116.403 122.076H111.675C111.32 122.077 111.05 122.142 111.072 122.221L111.285 122.999C111.307 123.081 111.618 123.146 111.978 123.146L111.977 123.148Z" fill="black"/>
<path id="Vector_23" d="M119.086 123.145H123.889C124.249 123.144 124.51 123.077 124.472 122.995L124.112 122.217C124.075 122.138 123.758 122.073 123.403 122.073H118.674C118.319 122.074 118.056 122.139 118.086 122.218L118.379 122.996C118.409 123.078 118.726 123.144 119.086 123.144V123.145Z" fill="black"/>
<path id="Vector_24" d="M126.196 123.142H130.997C131.358 123.141 131.612 123.074 131.566 122.992L131.128 122.214C131.083 122.135 130.759 122.07 130.404 122.07H125.676C125.321 122.071 125.064 122.136 125.102 122.215L125.474 122.993C125.513 123.075 125.836 123.141 126.197 123.141L126.196 123.142Z" fill="black"/>
<path id="Vector_25" d="M55.8876 124.43L56.2983 123.62C56.3407 123.537 56.0807 123.47 55.7191 123.47H50.8931C50.5315 123.471 50.1978 123.539 50.1487 123.622L49.6677 124.432C49.6174 124.517 49.8741 124.586 50.2424 124.586H55.1443C55.5115 124.584 55.8452 124.516 55.8876 124.431V124.43Z" fill="black"/>
<path id="Vector_26" d="M57.4997 124.585H62.4015C62.7687 124.583 63.0958 124.515 63.1292 124.43L63.4574 123.62C63.4908 123.537 63.2241 123.47 62.8625 123.47H58.0365C57.6749 123.471 57.3479 123.539 57.3077 123.622L56.9093 124.432C56.868 124.517 57.1314 124.586 57.4997 124.586V124.585Z" fill="black"/>
<path id="Vector_27" d="M64.7565 124.584H69.6584C70.0256 124.581 70.3448 124.513 70.3704 124.429L70.6171 123.618C70.6428 123.536 70.3693 123.469 70.0077 123.469H65.1818C64.8201 123.47 64.4998 123.538 64.4675 123.621L64.1505 124.431C64.117 124.516 64.3882 124.585 64.7565 124.585V124.584Z" fill="black"/>
<path id="Vector_28" d="M71.6253 123.618L71.3909 124.428C71.3664 124.513 71.6443 124.582 72.0126 124.582H76.9144C77.2816 124.58 77.5941 124.512 77.6109 124.427L77.7749 123.617C77.7917 123.534 77.5115 123.467 77.1499 123.467H72.3251C71.9635 123.468 71.6499 123.536 71.6264 123.619L71.6253 123.618Z" fill="black"/>
<path id="Vector_29" d="M78.7846 123.615L78.6317 124.425C78.6161 124.51 78.9007 124.579 79.2679 124.579H84.1686C84.5358 124.577 84.8416 124.509 84.8494 124.424L84.9309 123.614C84.9398 123.531 84.653 123.464 84.2903 123.464H79.4654C79.1038 123.465 78.798 123.534 78.7824 123.616L78.7846 123.615Z" fill="black"/>
<path id="Vector_30" d="M85.9425 123.614L85.8722 124.424C85.8644 124.509 86.1568 124.578 86.524 124.578H91.4247C91.7919 124.576 92.0899 124.508 92.0899 124.423V123.612C92.0899 123.53 91.7964 123.463 91.4348 123.463H86.61C86.2483 123.464 85.9492 123.532 85.9414 123.615L85.9425 123.614Z" fill="black"/>
<path id="Vector_31" d="M93.1002 123.61L93.1114 124.42C93.1125 124.505 93.4116 124.574 93.7788 124.574H98.6795C99.0467 124.572 99.338 124.504 99.3291 124.419L99.2465 123.609C99.2376 123.526 98.9385 123.459 98.5758 123.459H93.752C93.3904 123.461 93.098 123.529 93.0991 123.611L93.1002 123.61Z" fill="black"/>
<path id="Vector_32" d="M100.257 123.609L100.351 124.419C100.361 124.504 100.667 124.573 101.034 124.573H105.934C106.301 124.571 106.585 124.503 106.568 124.418L106.403 123.608C106.387 123.525 106.08 123.458 105.718 123.458H100.894C100.533 123.459 100.247 123.527 100.256 123.61L100.257 123.609Z" fill="black"/>
<path id="Vector_33" d="M108.288 124.569H113.188C113.555 124.566 113.832 124.498 113.806 124.413L113.559 123.603C113.534 123.521 113.22 123.454 112.858 123.454H108.035C107.673 123.455 107.394 123.523 107.412 123.605L107.588 124.416C107.607 124.501 107.92 124.57 108.287 124.57L108.288 124.569Z" fill="black"/>
<path id="Vector_34" d="M115.543 124.567H120.442C120.81 124.565 121.08 124.497 121.045 124.412L120.717 123.603C120.683 123.521 120.363 123.454 120.002 123.454H115.178C114.816 123.455 114.544 123.523 114.571 123.605L114.828 124.415C114.855 124.499 115.176 124.569 115.543 124.569V124.567Z" fill="black"/>
<path id="Vector_35" d="M122.796 124.563H127.695C128.062 124.561 128.326 124.493 128.282 124.408L127.871 123.599C127.829 123.516 127.502 123.449 127.14 123.449H122.318C121.956 123.45 121.691 123.518 121.725 123.601L122.066 124.41C122.101 124.495 122.428 124.564 122.796 124.564V124.563Z" fill="black"/>
<path id="Vector_36" d="M130.049 124.561H134.947C135.315 124.559 135.571 124.491 135.519 124.406L135.027 123.597C134.976 123.514 134.643 123.447 134.281 123.447H129.459C129.097 123.448 128.838 123.516 128.881 123.599L129.303 124.408C129.348 124.493 129.682 124.562 130.049 124.562V124.561Z" fill="black"/>
<path id="Vector_37" d="M145.79 124.613L145.339 124.011L145.024 123.592C144.962 123.51 144.619 123.443 144.258 123.443L137.971 123.445C137.609 123.445 137.359 123.512 137.411 123.595L138.042 124.576C138.097 124.661 138.439 124.73 138.808 124.73H140.083C140.452 124.73 140.798 124.799 140.856 124.884L141.529 125.876C141.589 125.964 141.942 126.036 142.317 126.036H146.177C146.552 126.034 146.802 125.962 146.736 125.874L145.789 124.611L145.79 124.613Z" fill="black"/>
<path id="Vector_38" d="M50.8957 126.069H55.8991C56.2741 126.066 56.6134 125.995 56.6569 125.907L57.0665 125.063C57.109 124.977 56.8433 124.907 56.4739 124.907H51.5497C51.1803 124.909 50.841 124.978 50.7919 125.064L50.3087 125.908C50.2584 125.996 50.5207 126.069 50.8968 126.067L50.8957 126.069Z" fill="black"/>
<path id="Vector_39" d="M58.303 126.067H63.3064C63.6815 126.065 64.014 125.993 64.0475 125.905L64.3723 125.062C64.4058 124.976 64.1324 124.905 63.764 124.905H58.8399C58.4705 124.908 58.1379 124.977 58.0977 125.063L57.6992 125.906C57.6579 125.995 57.928 126.067 58.303 126.066V126.067Z" fill="black"/>
<path id="Vector_40" d="M65.7108 126.065H70.7142C71.0892 126.062 71.414 125.991 71.4396 125.903L71.6785 125.059C71.703 124.973 71.4229 124.903 71.0535 124.904H66.1293C65.7599 124.906 65.4351 124.975 65.4027 125.061L65.0902 125.905C65.0579 125.993 65.3346 126.066 65.7108 126.065Z" fill="black"/>
<path id="Vector_41" d="M78.8279 125.898L78.9808 125.054C78.9964 124.968 78.7096 124.898 78.3402 124.899H73.4171C73.0477 124.901 72.7296 124.97 72.7062 125.056L72.4796 125.9C72.4562 125.988 72.7408 126.061 73.1158 126.06H78.1181C78.4931 126.057 78.8112 125.986 78.8268 125.898H78.8279Z" fill="black"/>
<path id="Vector_42" d="M86.2177 125.896L86.2858 125.053C86.2925 124.967 85.9989 124.896 85.6295 124.897H80.7065C80.3371 124.9 80.0257 124.969 80.0112 125.055L79.8694 125.899C79.8549 125.987 80.1473 126.059 80.5223 126.058H85.5246C85.8996 126.056 86.2099 125.985 86.2166 125.896H86.2177Z" fill="black"/>
<path id="Vector_43" d="M93.6077 125.893L93.5899 125.05C93.5877 124.964 93.2874 124.893 92.918 124.895H87.995C87.6255 124.897 87.322 124.966 87.3164 125.052L87.2606 125.896C87.255 125.984 87.5541 126.055 87.9291 126.055H92.9314C93.3064 126.053 93.6089 125.982 93.6077 125.893Z" fill="black"/>
<path id="Vector_44" d="M100.996 125.892L100.893 125.048C100.883 124.962 100.575 124.892 100.206 124.893H95.2836C94.9142 124.895 94.6173 124.964 94.6206 125.05L94.6508 125.894C94.6541 125.982 94.961 126.054 95.336 126.054H100.338C100.713 126.052 101.009 125.98 100.998 125.892H100.996Z" fill="black"/>
<path id="Vector_45" d="M108.383 125.889L108.194 125.045C108.175 124.959 107.861 124.889 107.491 124.89H102.569C102.2 124.892 101.911 124.962 101.922 125.048L102.037 125.891C102.049 125.979 102.363 126.051 102.738 126.051H107.739C108.114 126.049 108.402 125.977 108.383 125.889Z" fill="black"/>
<path id="Vector_46" d="M110.143 126.048H115.144C115.519 126.046 115.801 125.974 115.772 125.886L115.497 125.042C115.469 124.956 115.147 124.886 114.778 124.887H109.856C109.487 124.889 109.205 124.959 109.225 125.045L109.426 125.888C109.447 125.977 109.768 126.048 110.143 126.048Z" fill="black"/>
<path id="Vector_47" d="M117.546 126.046H122.547C122.922 126.044 123.196 125.973 123.158 125.885L122.798 125.041C122.762 124.955 122.432 124.885 122.064 124.886H117.142C116.773 124.888 116.497 124.957 116.526 125.043L116.812 125.887C116.842 125.975 117.17 126.046 117.545 126.046H117.546Z" fill="black"/>
<path id="Vector_48" d="M124.949 126.043H129.949C130.324 126.041 130.591 125.97 130.544 125.882L130.099 125.039C130.053 124.953 129.717 124.883 129.347 124.884H124.427C124.057 124.886 123.789 124.955 123.827 125.041L124.199 125.885C124.238 125.973 124.574 126.045 124.949 126.045V126.043Z" fill="black"/>
<path id="Vector_49" d="M132.352 126.04H137.352C137.727 126.038 137.986 125.967 137.93 125.879L137.4 125.036C137.345 124.95 137.002 124.88 136.633 124.881H131.712C131.343 124.883 131.082 124.952 131.128 125.038L131.586 125.881C131.634 125.969 131.977 126.04 132.352 126.04Z" fill="black"/>
<path id="Vector_50" d="M52.6197 127.445L53.0862 126.566C53.1342 126.476 52.8664 126.404 52.4891 126.404H47.4623C47.085 126.406 46.7346 126.479 46.6788 126.568L46.1364 127.447C46.0794 127.54 46.344 127.615 46.7268 127.615L51.8362 127.613C52.219 127.613 52.5695 127.538 52.6186 127.445H52.6197Z" fill="black"/>
<path id="Vector_51" d="M60.1673 127.442L60.5445 126.563C60.5836 126.473 60.309 126.401 59.9318 126.401H54.9049C54.5277 126.403 54.1851 126.476 54.1382 126.565L53.684 127.444C53.636 127.537 53.9083 127.612 54.2922 127.612L59.4016 127.61C59.7845 127.61 60.1282 127.535 60.1673 127.442Z" fill="black"/>
<path id="Vector_52" d="M67.3724 126.397H62.3467C61.9695 126.4 61.6335 126.472 61.5967 126.562L61.2317 127.441C61.1938 127.534 61.4728 127.608 61.8567 127.608L66.9662 127.606C67.349 127.606 67.6849 127.531 67.7151 127.439L68.003 126.559C68.032 126.47 67.7508 126.397 67.3735 126.397H67.3724Z" fill="black"/>
<path id="Vector_53" d="M69.4194 127.604L74.5277 127.602C74.9105 127.602 75.2387 127.527 75.2599 127.434L75.4585 126.555C75.4786 126.466 75.1896 126.393 74.8123 126.393H69.7866C69.4094 126.395 69.0812 126.468 69.0533 126.557L68.7777 127.437C68.7486 127.529 69.0355 127.604 69.4194 127.604Z" fill="black"/>
<path id="Vector_54" d="M76.9821 127.603L82.0904 127.6C82.4733 127.6 82.7936 127.526 82.8047 127.433L82.9141 126.553C82.9253 126.464 82.6284 126.392 82.2523 126.392H77.2265C76.8493 126.394 76.529 126.466 76.51 126.556L76.3236 127.435C76.3046 127.528 76.5993 127.603 76.9821 127.603Z" fill="black"/>
<path id="Vector_55" d="M84.5449 127.6L89.6532 127.597C90.036 127.597 90.3485 127.523 90.3507 127.43L90.3708 126.551C90.3731 126.461 90.0695 126.389 89.6922 126.389H84.6676C84.2904 126.391 83.9768 126.463 83.9667 126.553L83.8696 127.432C83.8596 127.525 84.162 127.6 84.5449 127.6Z" fill="black"/>
<path id="Vector_56" d="M92.1059 127.598L97.2131 127.596C97.596 127.596 97.9006 127.521 97.8939 127.429L97.8247 126.549C97.8181 126.46 97.5067 126.387 97.1294 126.387H92.1048C91.7276 126.389 91.4218 126.462 91.4207 126.551L91.4128 127.431C91.4128 127.523 91.722 127.598 92.1048 127.597L92.1059 127.598Z" fill="black"/>
<path id="Vector_57" d="M99.667 127.595L104.774 127.593C105.157 127.593 105.454 127.518 105.438 127.425L105.281 126.546C105.265 126.456 104.946 126.384 104.569 126.384H99.5443C99.167 126.386 98.869 126.459 98.8769 126.548L98.9583 127.427C98.9673 127.52 99.2842 127.595 99.667 127.594V127.595Z" fill="black"/>
<path id="Vector_58" d="M112.007 126.383H106.982C106.605 126.386 106.314 126.458 106.332 126.548L106.502 127.427C106.52 127.52 106.845 127.594 107.229 127.593L112.336 127.591C112.719 127.591 113.009 127.516 112.982 127.424L112.736 126.544C112.71 126.455 112.384 126.382 112.008 126.382L112.007 126.383Z" fill="black"/>
<path id="Vector_59" d="M119.444 126.378H114.421C114.044 126.38 113.76 126.452 113.787 126.542L114.046 127.421C114.073 127.514 114.405 127.589 114.789 127.587L119.895 127.585C120.278 127.585 120.56 127.51 120.525 127.418L120.189 126.538C120.154 126.449 119.822 126.376 119.444 126.376V126.378Z" fill="black"/>
<path id="Vector_60" d="M126.882 126.378H121.858C121.481 126.38 121.204 126.452 121.24 126.542L121.588 127.421C121.625 127.514 121.965 127.589 122.348 127.587L127.454 127.585C127.837 127.585 128.112 127.51 128.067 127.418L127.642 126.538C127.598 126.449 127.258 126.376 126.881 126.376L126.882 126.378Z" fill="black"/>
<path id="Vector_61" d="M134.318 126.376H129.295C128.918 126.378 128.649 126.451 128.693 126.54L129.131 127.419C129.177 127.511 129.525 127.586 129.908 127.585L135.014 127.583C135.397 127.583 135.663 127.508 135.61 127.415L135.095 126.537C135.043 126.448 134.695 126.375 134.318 126.375V126.376Z" fill="black"/>
<path id="Vector_62" d="M137.37 127.584L147.32 127.581C147.703 127.581 147.958 127.506 147.888 127.414L147.229 126.535C147.162 126.446 146.801 126.374 146.425 126.374L136.636 126.377C136.259 126.377 135.998 126.449 136.051 126.54L136.577 127.418C136.632 127.511 136.988 127.586 137.37 127.584Z" fill="black"/>
<path id="Vector_63" d="M50.2852 127.961L45.1512 127.963C44.7661 127.963 44.4056 128.039 44.3465 128.133L43.7639 129.05C43.7025 129.146 43.9704 129.224 44.3621 129.224L49.582 129.222C49.9738 129.222 50.3343 129.144 50.3867 129.047L50.8901 128.13C50.9414 128.036 50.6713 127.96 50.2863 127.96L50.2852 127.961Z" fill="black"/>
<path id="Vector_64" d="M57.8847 127.958L52.7518 127.96C52.3668 127.96 52.0141 128.036 51.9639 128.13L51.4739 129.047C51.4226 129.143 51.6983 129.221 52.09 129.221L57.3099 129.219C57.7017 129.219 58.0544 129.141 58.0968 129.045L58.5064 128.128C58.5488 128.034 58.2698 127.958 57.8847 127.958Z" fill="black"/>
<path id="Vector_65" d="M66.36 127.955L60.3499 127.957C59.9648 127.957 59.62 128.033 59.5798 128.127L59.1825 129.044C59.1412 129.14 59.4247 129.218 59.8164 129.218L65.927 129.216C66.3187 129.216 66.6625 129.138 66.6937 129.042L66.9995 128.125C67.0308 128.031 66.7439 127.955 66.3589 127.955H66.36Z" fill="black"/>
<path id="Vector_66" d="M112.43 127.94L69.2151 127.954C68.8301 127.954 68.4942 128.03 68.4651 128.124L68.1772 129.041C68.147 129.137 68.4395 129.215 68.8312 129.215L112.773 129.2C113.164 129.2 113.459 129.122 113.432 129.026L113.174 128.108C113.148 128.014 112.815 127.938 112.43 127.938V127.94Z" fill="black"/>
<path id="Vector_67" d="M120.026 127.937L114.895 127.939C114.51 127.939 114.221 128.015 114.248 128.109L114.519 129.026C114.547 129.122 114.888 129.2 115.279 129.2L120.496 129.198C120.888 129.198 121.174 129.12 121.138 129.024L120.787 128.107C120.751 128.013 120.41 127.937 120.026 127.937Z" fill="black"/>
<path id="Vector_68" d="M127.62 127.934L122.49 127.936C122.105 127.936 121.824 128.012 121.861 128.106L122.225 129.023C122.262 129.119 122.611 129.197 123.002 129.197L128.219 129.195C128.611 129.195 128.89 129.117 128.843 129.021L128.4 128.104C128.354 128.01 128.006 127.934 127.621 127.934H127.62Z" fill="black"/>
<path id="Vector_69" d="M144.57 122.989L143.986 122.211C143.927 122.132 143.591 122.067 143.236 122.067L132.676 122.07C132.321 122.07 132.071 122.135 132.117 122.214L132.567 122.992C132.613 123.074 132.944 123.139 133.304 123.139L144.029 123.136C144.389 123.136 144.631 123.07 144.57 122.988V122.989Z" fill="black"/>
<path id="Vector_70" d="M39.8196 124.589L47.4213 124.587C47.7896 124.587 48.13 124.518 48.1813 124.433L48.6791 123.623C48.7304 123.54 48.4782 123.473 48.1155 123.473L40.6321 123.475C40.2705 123.475 39.9267 123.542 39.8654 123.625L39.266 124.435C39.2035 124.52 39.4502 124.589 39.8185 124.589H39.8196Z" fill="black"/>
<path id="Vector_71" d="M38.7381 126.074L48.4916 126.07C48.8666 126.07 49.2137 125.998 49.265 125.91L49.7606 125.066C49.8108 124.98 49.553 124.91 49.1836 124.91L39.5852 124.913C39.2158 124.913 38.8643 124.983 38.8006 125.069L38.1767 125.913C38.1109 126.001 38.362 126.074 38.7381 126.073V126.074Z" fill="black"/>
<path id="Vector_72" d="M45.0724 127.447L45.6282 126.567C45.6851 126.478 45.425 126.404 45.0478 126.405L38.4942 126.408C38.1169 126.408 37.7575 126.48 37.6917 126.57L37.041 127.45C36.9729 127.543 37.2285 127.617 37.6113 127.617L44.2732 127.615C44.6561 127.615 45.0143 127.54 45.0724 127.448V127.447Z" fill="black"/>
<path id="Vector_73" d="M42.4899 127.965L37.356 127.968C36.9709 127.968 36.6026 128.044 36.5334 128.137L35.8548 129.055C35.7834 129.151 36.0434 129.229 36.4352 129.229L41.6551 129.227C42.0469 129.227 42.4152 129.149 42.4777 129.051L43.0759 128.134C43.1373 128.04 42.8739 127.964 42.4888 127.964L42.4899 127.965Z" fill="black"/>
<path id="Vector_74" d="M49.2788 121.8H53.9897C54.3435 121.799 54.6639 121.735 54.7074 121.656L54.9217 121.264C54.9641 121.187 54.7141 121.124 54.3648 121.124H49.6995C49.3491 121.125 49.0265 121.189 48.9774 121.266L48.7296 121.659C48.6805 121.737 48.9261 121.8 49.2799 121.8H49.2788Z" fill="black"/>
<path id="Vector_75" d="M56.7007 121.797H61.4117C61.7655 121.796 62.0792 121.732 62.1138 121.653L62.2856 121.261C62.3191 121.184 62.0635 121.121 61.7131 121.121H57.0478C56.6974 121.122 56.3815 121.186 56.3414 121.263L56.136 121.656C56.0947 121.734 56.3481 121.797 56.7019 121.797H56.7007Z" fill="black"/>
<path id="Vector_76" d="M64.1223 121.796H68.8332C69.187 121.795 69.494 121.73 69.5196 121.652L69.6491 121.259C69.6748 121.182 69.4114 121.12 69.062 121.12H64.3979C64.0475 121.121 63.7383 121.184 63.7059 121.261L63.543 121.654C63.5106 121.732 63.7707 121.796 64.1234 121.796H64.1223Z" fill="black"/>
<path id="Vector_77" d="M71.5431 121.793H76.253C76.6068 121.791 76.907 121.727 76.9238 121.649L77.0108 121.256C77.0276 121.179 76.7586 121.116 76.4081 121.116H71.744C71.3947 121.117 71.0911 121.181 71.0677 121.258L70.9471 121.651C70.9226 121.729 71.1893 121.793 71.5431 121.793Z" fill="black"/>
<path id="Vector_78" d="M78.9622 121.788H83.6721C84.0259 121.787 84.3194 121.722 84.3283 121.644L84.373 121.251C84.3819 121.174 84.1051 121.112 83.7558 121.112H79.0917C78.7423 121.113 78.4455 121.177 78.4298 121.254L78.3517 121.646C78.3361 121.725 78.6095 121.788 78.9633 121.788H78.9622Z" fill="black"/>
<path id="Vector_79" d="M86.3836 121.785H91.0934C91.4472 121.784 91.733 121.719 91.7341 121.641L91.7363 121.248C91.7363 121.171 91.4539 121.109 91.1035 121.109H86.4394C86.09 121.11 85.7999 121.174 85.7932 121.251L85.7574 121.643C85.7507 121.722 86.0309 121.785 86.3836 121.785Z" fill="black"/>
<path id="Vector_80" d="M93.8024 121.785H98.5122C98.866 121.784 99.1451 121.719 99.1372 121.641L99.0971 121.248C99.0893 121.171 98.7991 121.109 98.4497 121.109H93.7867C93.4374 121.11 93.1539 121.174 93.155 121.251L93.1617 121.643C93.1628 121.722 93.4508 121.785 93.8035 121.785H93.8024Z" fill="black"/>
<path id="Vector_81" d="M101.222 121.782H105.931C106.285 121.781 106.557 121.716 106.541 121.638L106.458 121.245C106.441 121.168 106.145 121.106 105.795 121.106H101.132C100.783 121.107 100.506 121.17 100.516 121.248L100.564 121.641C100.574 121.719 100.867 121.782 101.221 121.782H101.222Z" fill="black"/>
<path id="Vector_82" d="M108.64 121.782H113.348C113.701 121.781 113.968 121.716 113.943 121.638L113.818 121.245C113.794 121.168 113.49 121.106 113.141 121.106H108.478C108.128 121.107 107.859 121.17 107.877 121.248L107.968 121.641C107.986 121.719 108.287 121.782 108.641 121.782H108.64Z" fill="black"/>
<path id="Vector_83" d="M116.058 121.779H120.767C121.12 121.778 121.38 121.714 121.346 121.635L121.179 121.243C121.145 121.166 120.836 121.103 120.486 121.103H115.824C115.475 121.104 115.212 121.168 115.238 121.245L115.371 121.638C115.398 121.716 115.706 121.779 116.058 121.779Z" fill="black"/>
<path id="Vector_84" d="M123.476 121.778H128.185C128.537 121.777 128.79 121.712 128.748 121.634L128.538 121.241C128.497 121.164 128.18 121.102 127.831 121.102H123.169C122.82 121.103 122.564 121.165 122.599 121.243L122.774 121.636C122.808 121.714 123.123 121.778 123.477 121.778H123.476Z" fill="black"/>
<path id="Vector_85" d="M130.892 121.774H135.6C135.952 121.773 136.198 121.709 136.148 121.631L135.896 121.238C135.846 121.161 135.523 121.098 135.172 121.098H130.51C130.161 121.099 129.912 121.162 129.955 121.24L130.172 121.633C130.216 121.711 130.537 121.774 130.891 121.774H130.892Z" fill="black"/>
<path id="Vector_86" d="M142.009 128.638H137.617C137.229 128.639 136.96 128.717 137.017 128.812L137.14 129.018C137.197 129.114 137.56 129.192 137.951 129.192H142.375C142.767 129.191 143.031 129.112 142.967 129.016L142.828 128.81C142.765 128.715 142.398 128.637 142.009 128.638Z" fill="black"/>
<path id="Vector_87" d="M141.489 127.849H137.143C136.759 127.85 136.493 127.926 136.547 128.02L136.667 128.222C136.723 128.316 137.082 128.393 137.469 128.393H141.847C142.234 128.392 142.496 128.315 142.434 128.221L142.299 128.019C142.236 127.925 141.873 127.85 141.489 127.85V127.849Z" fill="black"/>
<path id="Vector_88" d="M148.2 128.636H143.808C143.42 128.637 143.158 128.715 143.221 128.81L143.361 129.017C143.426 129.113 143.796 129.191 144.187 129.191H148.61C149.002 129.19 149.259 129.111 149.187 129.015L149.032 128.808C148.96 128.713 148.588 128.635 148.199 128.636H148.2Z" fill="black"/>
<path id="Vector_89" d="M135.622 128.641H131.23C130.842 128.642 130.566 128.72 130.614 128.815L130.719 129.022C130.768 129.118 131.125 129.196 131.516 129.196H135.94C136.332 129.195 136.603 129.115 136.546 129.019L136.426 128.813C136.37 128.718 136.009 128.64 135.621 128.641H135.622Z" fill="black"/>
<path id="Vector_90" d="M138.309 121.772H143.017C143.369 121.77 143.608 121.706 143.549 121.628L143.255 121.235C143.197 121.158 142.866 121.095 142.517 121.095H137.855C137.506 121.096 137.263 121.159 137.315 121.237L137.575 121.63C137.627 121.708 137.955 121.772 138.308 121.772H138.309Z" fill="black"/>
<path id="Vector_91" d="M163.214 129.693H154.114C153.767 129.693 153.407 129.593 153.31 129.472L146.508 120.917C146.432 120.821 146.618 120.743 146.924 120.743H154.963C155.269 120.743 155.59 120.821 155.68 120.917L163.638 129.472C163.752 129.593 163.564 129.693 163.217 129.693H163.214Z" fill="#C8C8C7"/>
<path id="Vector_92" d="M30.9091 129.693H21.8086C21.4615 129.693 21.2728 129.593 21.3867 129.472L29.3455 120.917C29.4348 120.821 29.7551 120.743 30.062 120.743H38.1012C38.407 120.743 38.5945 120.821 38.5175 120.917L31.7149 129.472C31.6178 129.593 31.2573 129.693 30.9113 129.693H30.9091Z" fill="#C8C8C7"/>
<path id="Vector_93" d="M128.762 140.604H48.7112L53.7548 130.52H124.588L128.762 140.604Z" fill="#C8C8C7"/>
<path id="Vector_94" d="M143.459 119.982H41.564L42.0919 119.288H142.931L143.459 119.982Z" fill="#343433"/>
<path id="Vector_95" d="M85.0017 64.7824C85.0017 60.9063 88.1524 57.7533 92.0275 57.7478C95.9014 57.7422 99.0722 60.9632 99.0722 64.8371V68.9499C99.0722 70.3539 100.211 71.4935 101.616 71.4935C103.02 71.4935 104.159 70.3551 104.159 68.9499V64.7813C104.159 58.087 98.7329 52.6606 92.0386 52.6606C85.3444 52.6606 79.918 58.087 79.918 64.7813V68.9499C79.918 70.3539 81.0564 71.4935 82.4615 71.4935C83.8656 71.4935 85.0051 70.3551 85.0051 68.9499V64.7813L85.0017 64.7824Z" fill="#F3F3F3"/>
<path id="Vector_96" d="M109.047 78.7321C109.047 78.7321 109.047 78.7299 109.047 78.7288V78.5491C109.047 75.6205 106.673 73.2466 103.745 73.2466H80.3294C77.4008 73.2466 75.0269 75.6205 75.0269 78.5491V88.6954C75.0269 95.902 80.8696 101.744 88.0761 101.744H88.5159C88.5159 101.744 88.5237 101.744 88.5281 101.744H95.5483C95.5483 101.744 95.5572 101.744 95.5606 101.744H95.9992C103.206 101.744 109.048 95.902 109.048 88.6954V88.2512C109.048 88.2512 109.048 88.2456 109.048 88.2434V78.7321H109.047ZM92.0371 80.4386C92.1018 80.4386 92.1654 80.4398 92.2279 80.4431C92.1755 80.4464 92.1242 80.4498 92.0728 80.4543C94.0561 80.6139 95.6175 82.2712 95.6175 84.2958C95.6175 85.5079 95.0583 86.5883 94.1844 87.2959C94.1019 87.3628 94.0159 87.4264 93.9278 87.4867L93.9445 87.6497L94.6208 94.4098H89.3183L90.0025 87.5726L90.0114 87.4856C89.9668 87.4555 89.9232 87.4242 89.8808 87.3918C88.9344 86.6898 88.3205 85.5637 88.3205 84.2947C88.3205 82.2701 89.8819 80.6127 91.8652 80.4531C91.8351 80.4509 91.8038 80.4487 91.7737 80.4464C91.8608 80.4409 91.9489 80.4375 92.0382 80.4375L92.0371 80.4386Z" fill="#F3F3F3"/>
<path id="Vector_97" d="M35.2553 22.1486V13.2055C35.2553 12.7925 35.2598 12.3784 35.2553 11.9655C35.2553 11.9599 35.2553 11.9532 35.2553 11.9476C35.2553 11.5079 35.0634 11.0447 34.7531 10.7344C34.4551 10.4365 33.9674 10.2121 33.5399 10.2322C33.0957 10.2523 32.6359 10.3974 32.3267 10.7344C32.0187 11.0704 31.8245 11.4833 31.8245 11.9476V20.8908C31.8245 21.3038 31.82 21.7178 31.8245 22.1308C31.8245 22.1364 31.8245 22.1431 31.8245 22.1486C31.8245 22.5884 32.0165 23.0516 32.3267 23.3618C32.637 23.6721 33.1125 23.8842 33.5399 23.8641C33.9841 23.844 34.4439 23.6989 34.7531 23.3618C35.0611 23.0259 35.2553 22.6129 35.2553 22.1486Z" fill="#A1FF00"/>
<path id="Vector_98" d="M24.6408 24.0659C24.4723 23.7735 24.3038 23.4811 24.1353 23.1898C23.7279 22.4844 23.3205 21.778 22.9131 21.0726C22.4221 20.2221 21.9321 19.3728 21.441 18.5223C21.0169 17.7868 20.5928 17.0525 20.1676 16.317C19.9611 15.9587 19.758 15.5982 19.547 15.2422C19.5437 15.2366 19.5414 15.2321 19.5381 15.2265C19.3227 14.8538 18.9265 14.5513 18.5124 14.4375C18.1017 14.3248 17.5548 14.375 17.1899 14.6105C16.8238 14.8471 16.5012 15.1986 16.4008 15.6362C16.2981 16.0882 16.3383 16.5502 16.5738 16.9587C16.7423 17.2511 16.9108 17.5435 17.0794 17.8348C17.4867 18.5402 17.8941 19.2467 18.3015 19.9521C18.7926 20.8025 19.2825 21.6518 19.7736 22.5023C20.1977 23.2378 20.6218 23.9722 21.047 24.7077C21.2535 25.066 21.4566 25.4264 21.6676 25.7825C21.6709 25.7881 21.6732 25.7925 21.6765 25.7981C21.8919 26.1709 22.2881 26.4733 22.7022 26.5872C23.1129 26.6999 23.6598 26.6497 24.0248 26.4142C24.3908 26.1776 24.7134 25.826 24.8138 25.3885C24.9165 24.9365 24.8763 24.4744 24.6408 24.0659Z" fill="#A1FF00"/>
<path id="Vector_99" d="M16.4248 31.0494C16.1324 30.8809 15.8411 30.7124 15.5487 30.5438C14.8434 30.1365 14.1369 29.7291 13.4315 29.3217C12.581 28.8306 11.7317 28.3407 10.8812 27.8496C10.1457 27.4255 9.41136 27.0014 8.67586 26.5761C8.3176 26.3697 7.96157 26.1587 7.60108 25.9556C7.59549 25.9523 7.59103 25.95 7.58545 25.9467C7.19817 25.7235 6.69481 25.6543 6.26289 25.7737C5.86445 25.8831 5.43364 26.1911 5.23721 26.5627C5.02627 26.9612 4.92136 27.4433 5.06421 27.8853C5.20149 28.3094 5.45931 28.6833 5.85329 28.911L6.72941 29.4166C7.43478 29.8239 8.14126 30.2313 8.84663 30.6387C9.69708 31.1298 10.5464 31.6197 11.3969 32.1108C12.1324 32.5349 12.8668 32.959 13.6023 33.3843C13.9605 33.5907 14.3166 33.8017 14.6771 34.0048C14.6826 34.0082 14.6871 34.0104 14.6927 34.0137C15.08 34.2369 15.5833 34.3061 16.0152 34.1867C16.4137 34.0773 16.8445 33.7693 17.0409 33.3977C17.2519 32.9992 17.3568 32.5171 17.2139 32.0751C17.0766 31.651 16.8188 31.2771 16.4248 31.0494Z" fill="#A1FF00"/>
<path id="Vector_100" d="M12.7779 41.1949H3.83467C3.42172 41.1949 3.00765 41.1904 2.5947 41.1949C2.58912 41.1949 2.58242 41.1949 2.57684 41.1949C2.13711 41.1949 1.67393 41.3868 1.36366 41.6971C1.05339 42.0074 0.841333 42.4828 0.861422 42.9103C0.881512 43.3545 1.0266 43.8143 1.36366 44.1235C1.6996 44.4315 2.11255 44.6257 2.57684 44.6257H11.52C11.933 44.6257 12.347 44.6302 12.76 44.6257C12.7656 44.6257 12.7723 44.6257 12.7779 44.6257C13.2176 44.6257 13.6808 44.4337 13.991 44.1235C14.289 43.8255 14.5134 43.3377 14.4933 42.9103C14.4732 42.4661 14.3281 42.0062 13.991 41.6971C13.6551 41.3891 13.2421 41.1949 12.7779 41.1949Z" fill="#A1FF00"/>
</g>
<g id="Rectangle 4970" style="mix-blend-mode:multiply">
<rect x="125.673" y="11.2207" width="85.7266" height="91.5614" rx="20" fill="#C9C9C9"/>
</g>
<rect id="Rectangle 4971" x="130.095" y="6.79346" width="85.6854" height="91.4326" rx="20" fill="white"/>
<g id="Fingerprint">
<g id="Group">
<g id="Group_2">
<path id="Vector_101" d="M179.983 21.6097L180.697 21.7405L180.107 21.2826C179.949 21.1597 179.788 21.0391 179.627 20.921L179.589 20.8932L179.545 20.8848C175.879 20.1779 171.415 18.8829 166.277 17.0358L166.233 17.0195L166.188 17.0256C166.017 17.0485 165.847 17.0767 165.678 17.1094L165.037 17.2341L165.679 17.4675C171.278 19.5034 176.091 20.897 179.983 21.6097Z" fill="#A1FF00" stroke="#A1FF00" stroke-width="0.5"/>
<path id="Vector_102" d="M182.625 23.9591L183.201 24.0951L182.783 23.6555C182.674 23.5412 182.56 23.4296 182.444 23.3177L182.403 23.2782L182.349 23.2652C177.232 22.047 170.758 20.2623 163.108 17.9602L163.041 17.9399L162.98 17.9675C162.868 18.0182 162.757 18.0713 162.645 18.1273L162.234 18.3331L162.701 18.4738C170.686 20.8788 177.389 22.7244 182.625 23.9591Z" fill="#A1FF00" stroke="#A1FF00" stroke-width="0.5"/>
<path id="Vector_103" d="M185.054 26.7454L185.621 26.9481L185.247 26.4647C185.192 26.3928 185.135 26.3226 185.079 26.2524L185.005 26.1596L184.999 26.086L184.872 26.0413C180.448 24.4752 172.659 22.052 160.677 19.4005L160.596 19.3828L160.534 19.428C160.446 19.4915 160.36 19.5551 160.272 19.6235L159.962 19.8662L160.37 19.9564C172.654 22.6673 180.573 25.1445 185.054 26.7454Z" fill="#A1FF00" stroke="#A1FF00" stroke-width="0.5"/>
<path id="Vector_104" d="M187.294 29.9741L187.873 30.2716L187.523 29.72C187.44 29.5875 187.356 29.455 187.269 29.3222L187.238 29.2744L187.188 29.2489C181.861 26.5603 172.58 22.9757 158.617 21.1666L158.531 21.1553L158.472 21.213C158.398 21.2866 158.323 21.36 158.249 21.4389L157.994 21.7085L158.382 21.7581C172.605 23.5756 181.955 27.2292 187.294 29.9741Z" fill="#A1FF00" stroke="#A1FF00" stroke-width="0.5"/>
<path id="Vector_105" d="M183.531 30.1428C185.557 31.1461 187.484 32.2633 189.259 33.4632L189.825 33.8457L189.52 33.2399C189.459 33.1193 189.397 33.0022 189.335 32.8841L189.308 32.832L189.302 32.7716L189.218 32.716C187.527 31.5958 185.698 30.5456 183.782 29.595C178.281 26.8656 169.134 23.5359 156.794 23.174L156.706 23.1714L156.654 23.2378C156.592 23.3167 156.528 23.3952 156.461 23.4764L156.214 23.778L156.621 23.7884C168.936 24.1103 178.052 27.4217 183.531 30.1428Z" fill="#A1FF00" stroke="#A1FF00" stroke-width="0.5"/>
<path id="Vector_106" d="M157.859 28.905L158.045 28.921L158.047 28.3002L157.859 28.2842C156.01 28.1285 154.406 28.4205 153.387 28.6928L153.31 28.7131L153.278 28.7847C153.234 28.883 153.19 28.9836 153.146 29.0868L152.985 29.4658L153.385 29.3516C154.402 29.061 156.004 28.7473 157.859 28.905Z" fill="#A1FF00" stroke="#A1FF00" stroke-width="0.5"/>
<path id="Vector_107" d="M183.738 32.1776C186.295 33.6042 188.713 35.24 190.926 37.0395L191.465 37.4782L191.209 36.8426C191.144 36.6837 191.075 36.5268 191.006 36.3729L190.986 36.3265L190.945 36.2943C188.796 34.5782 186.465 33.0145 184.017 31.6467C177.903 28.232 167.936 24.3711 155.17 25.3683L155.084 25.375L155.04 25.4457C154.987 25.5295 154.935 25.6159 154.882 25.7023L155.038 25.8204L154.875 25.7139L154.678 26.0384L155.069 26.0062C167.759 24.9629 177.664 28.7861 183.738 32.1776Z" fill="#A1FF00" stroke="#A1FF00" stroke-width="0.5"/>
<path id="Vector_108" d="M164.449 27.7087C171.084 28.4423 181.225 31.0544 191.856 39.3324L192.351 39.7174L192.138 39.1384C192.1 39.0343 192.058 38.9287 192.018 38.8238L191.983 38.7336L191.977 38.6704L191.904 38.6144C181.246 30.4156 171.093 27.8215 164.453 27.0891C160.035 26.6031 156.418 26.8385 154.162 27.1218L154.074 27.1328L153.72 27.8128L154.101 27.7632C156.368 27.4675 160.004 27.2181 164.449 27.7087Z" fill="#A1FF00" stroke="#A1FF00" stroke-width="0.5"/>
<path id="Vector_109" d="M152.372 51.7527L151.779 51.5103L151.719 51.6776C151.707 51.7115 150.48 55.3691 149.968 60.3833L149.965 60.412L149.971 60.4413C150.027 60.7017 150.087 60.9623 150.15 61.223L150.421 62.3536L150.517 61.2265C150.972 55.8859 152.294 51.9699 152.309 51.9261L152.372 51.7527Z" fill="#A1FF00" stroke="#A1FF00" stroke-width="0.5"/>
<path id="Vector_110" d="M151.402 41.2336L151.397 41.0472L150.773 41.0098L150.779 41.1959C150.887 45.1079 150.44 49.8584 149.328 56.5996L149.324 56.628L149.327 56.6544C149.362 56.942 149.402 57.2251 149.444 57.5078L149.62 58.6885L149.813 57.5426C151.023 50.356 151.513 45.3259 151.402 41.2336Z" fill="#A1FF00" stroke="#A1FF00" stroke-width="0.5"/>
<path id="Vector_111" d="M153.101 49.7804L153.9 47.2615L153.303 47.0312L152.507 49.549L153.101 49.7804Z" fill="#A1FF00" stroke="#A1FF00" stroke-width="0.5"/>
<path id="Vector_112" d="M151.5 39.5871C151.737 37.6603 153.026 36.4125 153.036 36.4021L153.172 36.2794L152.721 35.812L152.592 35.9294C152.577 35.9425 151.146 37.2964 150.881 39.4578L150.858 39.6399L151.477 39.7704L151.5 39.5871Z" fill="#A1FF00" stroke="#A1FF00" stroke-width="0.5"/>
<path id="Vector_113" d="M151.745 44.7166L152.37 44.7911L152.376 44.6064C152.435 42.9173 154.123 40.5579 154.197 40.4549L154.299 40.3108L153.788 39.9199L153.682 40.0626C153.606 40.1655 151.82 42.6018 151.752 44.531L151.745 44.7166Z" fill="#A1FF00" stroke="#A1FF00" stroke-width="0.5"/>
<path id="Vector_114" d="M155.389 41.736L155.521 41.6082L155.045 41.1509L154.921 41.2837C154.698 41.5229 152.715 43.7504 151.661 48.3108L151.619 48.4897L152.23 48.6758L152.27 48.499C153.336 43.8864 155.371 41.7546 155.389 41.736Z" fill="#A1FF00" stroke="#A1FF00" stroke-width="0.5"/>
<path id="Vector_115" d="M155.748 44.1009L155.209 43.7407L153.85 45.9575L154.389 46.3171L155.748 44.1009Z" fill="#A1FF00" stroke="#A1FF00" stroke-width="0.5"/>
<path id="Vector_116" d="M156.094 36.463L156.266 36.4082L156.034 35.812L155.86 35.8674C155.728 35.9094 152.614 36.9319 151.751 40.1563L151.704 40.3329L152.307 40.5388L152.353 40.3639C153.14 37.4315 155.973 36.501 156.094 36.463Z" fill="#A1FF00" stroke="#A1FF00" stroke-width="0.5"/>
<path id="Vector_117" d="M157.018 32.3851L157.202 32.3585L157.056 31.7432L156.875 31.7693C153.928 32.197 152.25 33.2626 151.36 34.0815L151.3 34.1397L151.304 34.1919L150.933 35.4832L151.484 34.8861C152.159 34.154 153.776 32.8552 157.018 32.3851Z" fill="#A1FF00" stroke="#A1FF00" stroke-width="0.5"/>
<path id="Vector_118" d="M165.327 30.0121C171.944 30.2693 182.074 32.5307 192.756 41.8436L193.256 42.28L193.048 41.6627C193.001 41.5203 192.953 41.3779 192.903 41.2376L192.897 41.1784L192.833 41.123C182.095 31.8861 171.926 29.6444 165.285 29.3904C158.476 29.1253 153.63 30.8112 152.307 31.3334L152.24 31.3601L152.213 31.4274C152.18 31.5129 152.149 31.602 152.118 31.6901L151.947 32.1726L152.357 32.0018C153.271 31.6208 158.188 29.7351 165.327 30.0121Z" fill="#A1FF00" stroke="#A1FF00" stroke-width="0.5"/>
<path id="Vector_119" d="M166.114 31.6908C158.555 31.9776 153.46 35.0498 153.244 35.182L153.088 35.2766L153.456 35.8098L153.607 35.717C153.815 35.5894 158.799 32.5883 166.202 32.3128C172.767 32.0631 182.844 33.9575 193.563 44.3879L194.056 44.8681L193.866 44.2224C193.819 44.0646 193.771 43.9089 193.722 43.7535L193.706 43.703L193.667 43.6656C182.884 33.3184 172.732 31.4441 166.114 31.6908Z" fill="#A1FF00" stroke="#A1FF00" stroke-width="0.5"/>
<path id="Vector_120" d="M180.113 35.8604C175.783 34.0997 171.352 33.4716 166.941 33.993C159.447 34.8823 154.545 38.8679 154.499 38.9077L154.367 39.0213L154.782 39.5117L154.92 39.3983C154.968 39.3591 159.782 35.4753 167.068 34.6127C173.563 33.8402 183.556 35.3553 194.28 46.9447L194.776 47.4808L194.593 46.7919C194.548 46.624 194.504 46.4587 194.457 46.2937L194.443 46.2456L194.408 46.2085C189.841 41.3422 185.031 37.8606 180.113 35.8604Z" fill="#A1FF00" stroke="#A1FF00" stroke-width="0.5"/>
<path id="Vector_121" d="M174.078 35.9439C163.369 34.9693 155.841 42.5511 155.767 42.628L155.641 42.757L156.109 43.2053L156.232 43.0791C156.305 43.0043 163.66 35.6133 174.076 36.5644C181.264 37.2212 188.276 41.576 194.916 49.5077L195.419 50.1088L195.236 49.3662C195.195 49.1998 195.157 49.036 195.118 48.8695L195.113 48.8173L195.071 48.7672C188.399 40.9224 181.337 36.6082 174.078 35.9439Z" fill="#A1FF00" stroke="#A1FF00" stroke-width="0.5"/>
<path id="Vector_122" d="M156.149 47.6247C161.311 40.2039 171.72 35.335 183.34 41.1875C189.384 44.2298 191.913 47.8419 194.842 52.0244C195.12 52.4205 195.404 52.8239 195.693 53.2298L196.167 53.8962L196.026 53.1135C195.992 52.9259 195.959 52.7412 195.925 52.571L195.92 52.518L195.888 52.4727C195.704 52.2118 195.523 51.9531 195.343 51.6944C192.357 47.4366 189.779 43.7592 183.582 40.638C171.63 34.618 160.929 39.6158 155.626 47.24C150.78 54.2053 151.127 62.2162 151.764 66.3715L151.775 66.4106C151.924 66.8102 152.076 67.2051 152.232 67.5945L152.588 67.5186C151.161 60.1812 152.459 52.93 156.149 47.6247Z" fill="#A1FF00" stroke="#A1FF00" stroke-width="0.5"/>
<path id="Vector_123" d="M181.512 67.5565C180.416 64.7252 179.895 64.428 179.497 64.5269C178.486 64.7693 179.422 68.4612 179.432 68.4983C179.953 70.497 188.193 75.0803 191.711 76.9578L191.871 77.0436L192.164 76.5176L191.983 76.4208C186.447 73.4593 180.401 69.795 180.033 68.3922C179.623 66.813 179.612 65.5774 179.699 65.2069C179.857 65.3846 180.244 65.9547 180.933 67.7336C182.574 71.9703 188.901 74.4336 192.526 75.5251L192.668 75.5677L192.732 75.4442C192.773 75.3664 192.812 75.2885 192.851 75.209L192.95 75.0066L192.722 74.937C189.186 73.8609 183.028 71.4707 181.512 67.5565Z" fill="#A1FF00" stroke="#A1FF00" stroke-width="0.5"/>
<path id="Vector_124" d="M182.354 66.5626C181.242 63.9929 180.368 62.8658 179.525 62.9209C178.662 62.9609 178.087 64.2196 177.66 67.0027C177.086 70.7381 187.612 76.6517 190.851 78.3753L190.998 78.453L191.085 78.3269C191.133 78.2573 191.178 78.1851 191.221 78.1158L191.325 77.9467L191.136 77.8455C184.657 74.3798 177.877 69.7499 178.276 67.15C178.772 63.9262 179.373 63.5515 179.622 63.5405C179.802 63.5405 180.491 63.7731 181.784 66.7638C183.081 69.7899 186.859 72.3959 193.014 74.5089L193.17 74.5622L193.232 74.4204C193.248 74.3842 193.265 74.3488 193.282 74.3131C193.299 74.2751 193.317 74.2374 193.334 74.1989L193.42 74.0072L193.209 73.9353C187.308 71.9168 183.555 69.3674 182.354 66.5626Z" fill="#A1FF00" stroke="#A1FF00" stroke-width="0.5"/>
<path id="Vector_125" d="M183.195 65.564C181.792 62.6191 180.499 61.1811 179.226 61.1675C177.962 61.1675 176.876 62.6124 175.906 65.5851C174.146 70.971 186.182 77.791 189.912 79.753L190.055 79.8278L190.412 79.3351L190.208 79.227C187.633 77.8641 174.869 70.8133 176.5 65.8226C177.362 63.1839 178.323 61.7895 179.291 61.7895C180.238 61.8008 181.395 63.1848 182.635 65.7916C184.012 68.6808 187.553 71.1937 193.46 73.4743L193.614 73.5337L193.683 73.3951C193.721 73.3177 193.754 73.2383 193.785 73.1579L193.852 72.979L193.663 72.906C187.913 70.6868 184.49 68.2853 183.195 65.564Z" fill="#A1FF00" stroke="#A1FF00" stroke-width="0.5"/>
<path id="Vector_126" d="M184.034 64.5669C182.231 61.1308 180.457 59.3637 178.762 59.3141C177.08 59.2761 175.531 60.9072 174.149 64.1888C172.769 67.4613 174.98 71.4693 180.545 75.7794C184.008 78.4621 187.807 80.5128 188.889 81.0774L189.023 81.1472L189.112 81.04C189.164 80.9767 189.217 80.9138 189.269 80.8483L189.408 80.6731L189.194 80.5609C186.286 79.0401 171.924 71.1175 174.727 64.4706C176.011 61.4242 177.379 59.8984 178.798 59.9364C180.232 59.9787 181.81 61.6208 183.49 64.8166C185.399 68.4501 190.333 70.9015 193.879 72.4294L194.053 72.5045L194.145 72.2626C194.165 72.2116 194.184 72.1603 194.202 72.1092L194.26 71.9402L194.086 71.8648C190.637 70.3778 185.843 68.0036 184.034 64.5669Z" fill="#A1FF00" stroke="#A1FF00" stroke-width="0.5"/>
<path id="Vector_127" d="M184.876 63.5685C182.514 59.4849 180.32 57.4673 178.166 57.4C176.083 57.3376 174.147 59.1566 172.389 62.8047C171.51 64.626 171.467 66.5983 172.261 68.6664C174.827 75.3499 185.63 81.2429 187.77 82.3563L187.895 82.4216L187.985 82.3274C188.04 82.2694 188.093 82.2111 188.155 82.1429L188.316 81.966L188.087 81.8469C185.978 80.7537 175.331 74.9712 172.841 68.4878C172.111 66.5905 172.15 64.782 172.956 63.1118C174.584 59.7331 176.325 58.0214 178.131 58.0214C178.155 58.0214 178.178 58.0217 178.202 58.0223C180.103 58.0797 182.111 59.9836 184.342 63.8431C186.299 67.229 190.672 69.6404 194.263 71.3631L194.441 71.4486L194.507 71.2752C194.536 71.1984 194.563 71.1216 194.589 71.0418L194.642 70.8809L194.48 70.8026C190.981 69.1205 186.727 66.7781 184.876 63.5685Z" fill="#A1FF00" stroke="#A1FF00" stroke-width="0.5"/>
<path id="Vector_128" d="M185.713 62.5715C183.637 59.2975 180.827 55.529 177.486 55.4496L177.386 55.4473C174.977 55.4473 172.703 57.4582 170.627 61.4241C169.417 63.7354 169.283 66.2048 170.23 68.7637C172.984 76.2203 184.301 82.4128 186.542 83.5785L186.66 83.6394L186.75 83.5564C186.813 83.4985 186.876 83.4402 186.938 83.3801L187.122 83.2027L186.876 83.076C184.666 81.9364 173.504 75.883 170.811 68.5947C169.93 66.21 170.056 63.9077 171.186 61.7506C173.186 57.9268 175.319 56.0075 177.53 56.0716C180.545 56.1438 183.211 59.7428 185.196 62.8699C187.21 66.0494 191.088 68.3972 194.616 70.2742L194.807 70.3754L194.871 70.1831C194.897 70.1031 194.921 70.0222 194.943 69.9422L194.982 69.7937L194.839 69.7169C191.403 67.882 187.632 65.5979 185.713 62.5715Z" fill="#A1FF00" stroke="#A1FF00" stroke-width="0.5"/>
<path id="Vector_129" d="M186.55 61.5719L186.499 61.502C184.425 58.5173 180.954 53.5221 176.737 53.4736H176.68C173.905 53.4736 171.275 55.6861 168.865 60.0489C167.306 62.8558 167.07 65.8265 168.163 68.8785C170.993 76.7836 181.911 83.0158 185.19 84.7377L185.299 84.7951L185.409 84.7087C185.473 84.6585 185.536 84.6092 185.598 84.5561L185.803 84.381L185.544 84.2465C183.238 83.0443 171.587 76.6467 168.746 68.7167C167.717 65.8416 167.942 63.0388 169.416 60.3856C171.738 56.1808 174.221 54.062 176.786 54.0965C180.664 54.1426 184.005 58.9552 186.001 61.8302L186.049 61.9001C188.15 64.9253 191.904 67.368 194.941 69.1583L195.144 69.2783L195.313 68.683L195.176 68.6024C192.22 66.8554 188.57 64.4788 186.55 61.5719Z" fill="#A1FF00" stroke="#A1FF00" stroke-width="0.5"/>
<path id="Vector_130" d="M187.39 60.5789C187.284 60.4403 187.175 60.2939 187.061 60.1416L186.787 59.7769C184.483 56.6829 180.626 51.5041 175.976 51.4937C172.837 51.4937 169.852 53.9085 167.103 58.6715C165.187 61.9957 164.847 65.4791 166.094 69.0251C169.058 77.4614 180.308 84.0074 183.686 85.8128L183.787 85.8667L184.356 85.4869L184.068 85.3346C180.725 83.5655 169.59 77.1494 166.681 68.8676C165.498 65.4976 165.823 62.1836 167.649 59.0177C170.291 54.438 173.111 52.1159 176.042 52.1159C180.345 52.1258 184.073 57.1295 186.299 60.119C186.514 60.4081 186.717 60.6807 186.905 60.9272C189.107 63.8234 192.513 66.2263 195.234 67.9966L195.448 68.1355L195.508 67.9038C195.529 67.822 195.549 67.7376 195.568 67.6533L195.596 67.5228L195.477 67.4454C192.833 65.7212 189.524 63.3826 187.39 60.5789Z" fill="#A1FF00" stroke="#A1FF00" stroke-width="0.5"/>
<path id="Vector_131" d="M189.334 59.958C183.804 51.6693 178.866 49.8993 175.696 49.8741C171.946 49.8576 168.659 52.2034 166.448 56.5115C163.832 61.6053 163.49 66.6041 165.43 71.3685C168.783 79.6036 178.087 84.9199 181.932 86.8235L182.016 86.8647L182.094 86.8279C182.188 86.7844 182.281 86.7357 182.371 86.687L182.682 86.5202L182.342 86.3544C179.368 84.9013 169.399 79.5129 166.005 71.1772C164.136 66.5919 164.473 61.7648 167.006 56.8304C169.104 52.7454 172.185 50.4958 175.683 50.4958H175.746C178.753 50.5178 183.464 52.2313 188.826 60.2695C190.47 62.7359 193.409 64.9649 195.587 66.4005L195.812 66.5493L195.868 66.2756C195.884 66.1978 195.9 66.1201 195.914 66.045L195.937 65.9183L195.823 65.8432C193.728 64.454 190.901 62.3047 189.334 59.958Z" fill="#A1FF00" stroke="#A1FF00" stroke-width="0.5"/>
<path id="Vector_132" d="M190.089 58.6304C187.813 55.2534 185.608 52.8641 183.149 51.1109C179.833 48.7486 176.433 47.8039 173.316 48.3786C169.925 49.0081 166.937 51.4256 164.901 55.1864C160.392 63.5042 162.721 70.4651 165.469 74.8387C169.726 81.6733 177.529 85.8911 180.686 87.3874L180.762 87.4233L180.835 87.3943C180.939 87.3534 181.037 87.3128 181.14 87.2667L181.5 87.1055L181.118 86.9275C177.978 85.4649 170.219 81.3299 165.989 74.5444C163.333 70.3167 161.084 63.5833 165.457 55.5173C167.414 51.9046 170.264 49.5872 173.482 48.9921C176.423 48.447 179.651 49.3511 182.817 51.6077C185.204 53.3066 187.354 55.6379 189.582 58.9441C190.868 60.8518 192.966 62.8958 195.819 65.0201L196.053 65.1941L196.106 64.925C196.124 64.8345 196.139 64.7441 196.152 64.651L196.167 64.5373L196.07 64.4645C193.326 62.4121 191.314 60.4494 190.089 58.6304Z" fill="#A1FF00" stroke="#A1FF00" stroke-width="0.5"/>
<path id="Vector_133" d="M190.845 57.3025C188.311 53.5787 186.03 51.2036 183.216 49.3611C179.58 46.9793 175.859 46.0758 172.457 46.7505C168.787 47.474 165.554 49.9985 163.355 53.8585C159.604 60.448 159.668 68.0258 163.532 74.6483C167.81 81.9813 175.963 86.3407 179.27 87.8746L179.335 87.9048L179.4 87.8865C179.509 87.8564 179.615 87.8222 179.724 87.7871L180.195 87.6348L179.746 87.431C176.448 85.9316 168.316 81.658 164.065 74.3726C161.863 70.5989 158.915 62.9597 163.904 54.2007C166.021 50.4818 169.119 48.0528 172.628 47.3609C175.868 46.7204 179.422 47.5891 182.907 49.8718C185.64 51.6623 187.862 53.9794 190.338 57.6197C191.587 59.4592 193.497 61.4499 196.014 63.5365L196.265 63.745L196.311 63.4402C196.325 63.3425 196.335 63.2474 196.345 63.15L196.355 63.0473L196.271 62.9774C193.866 60.9732 192.041 59.0637 190.845 57.3025Z" fill="#A1FF00" stroke="#A1FF00" stroke-width="0.5"/>
<path id="Vector_134" d="M191.6 55.9745C189.588 53.04 187.188 49.9959 183.287 47.6124C173.256 41.4807 165.449 46.431 161.811 52.5334C157.825 59.2178 157.746 67.414 161.599 74.4582C165.667 81.9022 173.367 86.2944 177.595 88.2496L177.65 88.2751L177.707 88.2656C177.846 88.2427 177.984 88.2177 178.125 88.1899L178.677 88.0812L178.138 87.8379C173.902 85.9229 166.189 81.6047 162.138 74.2001C158.395 67.3548 158.475 59.3868 162.353 52.8863C165.853 47.0133 173.359 42.2451 182.997 48.1349C186.779 50.4465 189.125 53.4222 191.095 56.2931C192.321 58.084 194.025 59.9815 196.158 61.9336L196.434 62.1856L196.464 61.8333C196.473 61.7332 196.479 61.6309 196.485 61.5285L196.299 61.4975L196.485 61.5247L196.491 61.432L196.419 61.3656C194.387 59.4909 192.766 57.6772 191.6 55.9745Z" fill="#A1FF00" stroke="#A1FF00" stroke-width="0.5"/>
<path id="Vector_135" d="M192.355 54.6494C189.867 51.0558 187.384 48.1874 183.359 45.8694C178.716 43.193 173.979 42.46 169.66 43.7498C165.894 44.8766 162.557 47.5263 160.264 51.2115C155.988 58.0814 155.763 66.7021 159.663 74.2718C163.595 81.9052 171.249 86.4142 175.462 88.4225L175.502 88.4419H175.546C175.731 88.4419 175.913 88.4396 176.099 88.4291L176.822 88.3897L176.138 88.0745C171.882 86.1109 164.153 81.6749 160.213 74.0273C156.417 66.6584 156.638 58.2641 160.803 51.5719C164.606 45.4559 172.723 40.4325 183.086 46.4027C187.002 48.6575 189.422 51.4583 191.851 54.9695C193.03 56.6785 194.505 58.436 196.234 60.1935L196.538 60.5026L196.549 60.0897C196.551 59.9787 196.552 59.8679 196.552 59.7545L196.552 59.6745L196.494 59.6142C194.854 57.9254 193.462 56.2552 192.355 54.6494Z" fill="#A1FF00" stroke="#A1FF00" stroke-width="0.5"/>
<path id="Vector_136" d="M193.215 53.1865C190.989 49.9945 188.408 46.655 183.538 43.9893C178.563 41.265 173.477 40.5764 168.831 41.9963C164.821 43.22 161.268 45.9741 158.825 49.7515C153.45 58.0521 154.79 67.6942 157.835 73.9499C161.292 81.0489 167.749 85.5153 172.557 88.0119L172.603 88.0345H172.633C172.88 88.0803 173.134 88.1201 173.389 88.1522L174.441 88.285L173.468 87.8014C168.521 85.3436 161.89 80.9051 158.392 73.7162C155.42 67.617 154.113 58.216 159.356 50.1218C163.803 43.2507 172.924 38.8563 183.276 44.5266C188.02 47.1244 190.539 50.3889 192.713 53.5098C193.823 55.1049 195.038 56.6484 196.323 58.098L196.659 58.4769L196.643 57.9446C196.64 57.8335 196.637 57.7251 196.631 57.6056L196.625 57.5383L196.581 57.4876C195.384 56.1221 194.252 54.6749 193.215 53.1865Z" fill="#A1FF00" stroke="#A1FF00" stroke-width="0.5"/>
<path id="Vector_137" d="M196.354 55.4316L196.348 55.375L196.312 55.3286C195.376 54.1287 194.55 52.9703 193.866 51.9951C191.412 48.5016 188.773 45.1377 183.507 42.3813C172.174 36.4433 162.116 41.2075 157.174 48.5634C151.447 57.0878 152.852 67.5386 155.796 73.8973C157.872 78.4034 161.326 82.3725 166.042 85.6787L166.096 85.7155C166.804 86.138 167.521 86.5117 168.228 86.8267L168.379 86.5004C162.724 83.0258 158.679 78.7122 156.359 73.6789C153.482 67.4699 152.107 57.2653 157.699 48.9412C162.498 41.7961 172.261 37.1647 183.256 42.9252C188.379 45.6089 190.962 48.9009 193.366 52.3205C194.066 53.3177 195.006 54.6353 196.069 55.9828L196.449 56.4656L196.398 55.8755C196.385 55.7273 196.369 55.5794 196.354 55.4316Z" fill="#A1FF00" stroke="#A1FF00" stroke-width="0.5"/>
<path id="Vector_138" d="M171.068 17.0573C170.682 17.0243 170.283 17.0234 169.874 17.0817C172.118 17.8887 175.923 19.0042 177.174 19.2454C175.986 18.3773 172.534 17.1814 171.068 17.0573Z" fill="#A1FF00" stroke="#A1FF00" stroke-width="0.5"/>
</g>
</g>
<g id="Group_3">
<path id="Vector_139" d="M146.175 15.6758V17.8345H141.268V22.863H138.978V15.6758H146.175Z" fill="black"/>
<path id="Vector_140" d="M146.175 89.3447V87.186H141.268V82.1576H138.978V89.3447H146.175Z" fill="black"/>
<path id="Vector_141" d="M199.702 15.6758V17.8345H204.608V22.863H206.899V15.6758H199.702Z" fill="black"/>
<path id="Vector_142" d="M199.702 89.3447V87.186H204.608V82.1576H206.899V89.3447H199.702Z" fill="black"/>
</g>
</g>
</g>
</svg>
