<svg width="210" height="210" viewBox="0 0 210 210" fill="none" xmlns="http://www.w3.org/2000/svg">
<rect opacity="0.1" width="210" height="210" rx="45" fill="white"/>
<path d="M136.013 107.611C134.586 107.611 133.428 106.452 133.428 105.025C133.428 89.3362 120.674 76.5708 104.999 76.5708C96.2269 76.5708 88.0754 80.5466 82.635 87.4815C81.7511 88.6016 80.1254 88.7982 79.0063 87.9187C77.882 87.0366 77.6882 85.4096 78.5695 84.2869C84.9972 76.0949 94.6323 71.4 105.001 71.4C123.527 71.4 138.6 86.4856 138.6 105.027C138.6 106.455 137.442 107.614 136.015 107.614L136.013 107.611Z" fill="white"/>
<path d="M73.9845 107.611C72.5579 107.611 71.4 106.452 71.4 105.025C71.4 101.302 72.0125 97.6344 73.2195 94.1216C73.6847 92.7688 75.1579 92.0497 76.5044 92.5153C77.8535 92.9809 78.572 94.4527 78.1094 95.803C77.0859 98.7725 76.569 101.877 76.569 105.025C76.569 106.452 75.4112 107.611 73.9845 107.611Z" fill="white"/>
<path d="M120.221 134.668C119.885 134.668 119.542 134.601 119.211 134.461C117.898 133.903 117.285 132.384 117.844 131.067C118.681 129.094 119.433 127.035 120.079 124.95C120.503 123.584 121.953 122.821 123.312 123.245C124.677 123.67 125.44 125.118 125.016 126.481C124.318 128.734 123.506 130.956 122.599 133.09C122.18 134.076 121.224 134.666 120.219 134.666L120.221 134.668Z" fill="white"/>
<path d="M124.876 118.217C124.75 118.217 124.62 118.209 124.491 118.188C123.08 117.976 122.106 116.66 122.317 115.247C122.832 111.81 123.09 108.372 123.09 105.025C123.09 95.0399 114.975 86.9177 104.999 86.9177H104.508C103.081 86.9177 101.923 85.7588 101.923 84.331C101.923 82.9031 103.081 81.7443 104.508 81.7443H104.999C117.823 81.7443 128.259 92.1894 128.259 105.025C128.259 108.628 127.98 112.324 127.43 116.013C127.238 117.296 126.135 118.217 124.876 118.217Z" fill="white"/>
<path d="M78.8667 124.347C78.3368 124.347 77.8044 124.187 77.3444 123.851C76.1917 123.007 75.941 121.388 76.781 120.237C80.0219 115.796 81.7355 110.537 81.7355 105.027C81.7355 96.8092 86.1472 89.1164 93.2469 84.9466C94.4745 84.2198 96.0589 84.6362 96.7851 85.8701C97.5062 87.1039 97.0952 88.687 95.8624 89.4113C90.3367 92.655 86.9045 98.638 86.9045 105.027C86.9045 111.641 84.8472 117.958 80.955 123.289C80.4484 123.983 79.6627 124.35 78.8641 124.35L78.8667 124.347Z" fill="white"/>
<path d="M106.624 138.6C106.164 138.6 105.696 138.478 105.275 138.217C104.058 137.47 103.678 135.879 104.425 134.66C109.873 125.775 112.752 115.529 112.752 105.025C112.752 100.746 109.273 97.2645 104.999 97.2645C100.724 97.2645 97.2451 100.746 97.2451 105.025C97.2451 106.031 97.2166 107.011 97.1314 107.989C97.0099 109.412 95.7461 110.48 94.3349 110.343C92.9134 110.221 91.859 108.967 91.983 107.544C92.0554 106.711 92.0761 105.878 92.0761 105.025C92.0761 97.8931 97.8731 92.0911 104.999 92.0911C112.124 92.0911 117.921 97.8931 117.921 105.025C117.921 116.486 114.778 127.669 108.829 137.366C108.343 138.163 107.493 138.6 106.624 138.6Z" fill="white"/>
<path d="M86.0775 132.211C85.6898 132.211 85.2944 132.123 84.9248 131.939C83.6481 131.3 83.1312 129.746 83.7695 128.468C84.0874 127.834 84.4596 127.231 84.8809 126.683C87.1061 123.739 88.8378 120.498 90.0215 117.063C90.4867 115.713 91.9547 114.996 93.3064 115.462C94.6555 115.928 95.3714 117.402 94.9062 118.75C93.5442 122.7 91.5567 126.422 88.9928 129.813C88.7525 130.131 88.5535 130.457 88.3932 130.78C87.9409 131.688 87.0286 132.211 86.0775 132.211Z" fill="white"/>
<path d="M95.2007 137.048C94.6606 137.048 94.1178 136.88 93.65 136.531C92.5103 135.672 92.2776 134.053 93.1357 132.909C99.2067 124.818 102.414 115.177 102.414 105.027C102.414 103.599 103.572 102.44 104.999 102.44C106.425 102.44 107.583 103.599 107.583 105.027C107.583 116.305 104.017 127.022 97.2709 136.016C96.7618 136.694 95.9864 137.048 95.2007 137.048Z" fill="white"/>
<path d="M59.4 81C58.0752 81 57 79.9248 57 78.6V69C57 62.3832 62.3832 57 69 57H78.6C79.9248 57 81 58.0752 81 59.4C81 60.7248 79.9248 61.8 78.6 61.8H69C65.0304 61.8 61.8 65.0304 61.8 69V78.6C61.8 79.9248 60.7248 81 59.4 81Z" fill="white"/>
<path d="M150.6 81C149.275 81 148.2 79.9248 148.2 78.6V69C148.2 65.0304 144.97 61.8 141 61.8H131.4C130.075 61.8 129 60.7248 129 59.4C129 58.0752 130.075 57 131.4 57H141C147.617 57 153 62.3832 153 69V78.6C153 79.9248 151.925 81 150.6 81Z" fill="white"/>
<path d="M141 153H131.4C130.075 153 129 151.925 129 150.6C129 149.275 130.075 148.2 131.4 148.2H141C144.97 148.2 148.2 144.97 148.2 141V131.4C148.2 130.075 149.275 129 150.6 129C151.925 129 153 130.075 153 131.4V141C153 147.617 147.617 153 141 153Z" fill="white"/>
<path d="M78.6 153H69C62.3832 153 57 147.617 57 141V131.4C57 130.075 58.0752 129 59.4 129C60.7248 129 61.8 130.075 61.8 131.4V141C61.8 144.97 65.0304 148.2 69 148.2H78.6C79.9248 148.2 81 149.275 81 150.6C81 151.925 79.9248 153 78.6 153Z" fill="white"/>
<path d="M136.013 107.611C134.586 107.611 133.428 106.452 133.428 105.025C133.428 89.3362 120.674 76.5708 104.999 76.5708C96.2269 76.5708 88.0754 80.5466 82.635 87.4815C81.7511 88.6016 80.1254 88.7982 79.0063 87.9187C77.882 87.0366 77.6882 85.4096 78.5695 84.2869C84.9972 76.0949 94.6323 71.4 105.001 71.4C123.527 71.4 138.6 86.4856 138.6 105.027C138.6 106.455 137.442 107.614 136.015 107.614L136.013 107.611Z" stroke="white" stroke-width="0.75" stroke-linejoin="round"/>
<path d="M73.9845 107.611C72.5579 107.611 71.4 106.452 71.4 105.025C71.4 101.302 72.0125 97.6344 73.2195 94.1216C73.6847 92.7688 75.1579 92.0497 76.5044 92.5153C77.8535 92.9809 78.572 94.4527 78.1094 95.803C77.0859 98.7725 76.569 101.877 76.569 105.025C76.569 106.452 75.4112 107.611 73.9845 107.611Z" stroke="white" stroke-width="0.75" stroke-linejoin="round"/>
<path d="M120.221 134.668C119.885 134.668 119.542 134.601 119.211 134.461C117.898 133.903 117.285 132.384 117.844 131.067C118.681 129.094 119.433 127.035 120.079 124.95C120.503 123.584 121.953 122.821 123.312 123.245C124.677 123.67 125.44 125.118 125.016 126.481C124.318 128.734 123.506 130.956 122.599 133.09C122.18 134.076 121.224 134.666 120.219 134.666L120.221 134.668Z" stroke="white" stroke-width="0.75" stroke-linejoin="round"/>
<path d="M124.876 118.217C124.75 118.217 124.62 118.209 124.491 118.188C123.08 117.976 122.106 116.66 122.317 115.247C122.832 111.81 123.09 108.372 123.09 105.025C123.09 95.0399 114.975 86.9177 104.999 86.9177H104.508C103.081 86.9177 101.923 85.7588 101.923 84.331C101.923 82.9031 103.081 81.7443 104.508 81.7443H104.999C117.823 81.7443 128.259 92.1894 128.259 105.025C128.259 108.628 127.98 112.324 127.43 116.013C127.238 117.296 126.135 118.217 124.876 118.217Z" stroke="white" stroke-width="0.75" stroke-linejoin="round"/>
<path d="M78.8667 124.347C78.3368 124.347 77.8044 124.187 77.3444 123.851C76.1917 123.007 75.941 121.388 76.781 120.237C80.0219 115.796 81.7355 110.537 81.7355 105.027C81.7355 96.8092 86.1472 89.1164 93.2469 84.9466C94.4745 84.2198 96.0589 84.6362 96.7851 85.8701C97.5062 87.1039 97.0952 88.687 95.8624 89.4113C90.3367 92.655 86.9045 98.638 86.9045 105.027C86.9045 111.641 84.8472 117.958 80.955 123.289C80.4484 123.983 79.6627 124.35 78.8641 124.35L78.8667 124.347Z" stroke="white" stroke-width="0.75" stroke-linejoin="round"/>
<path d="M106.624 138.6C106.164 138.6 105.696 138.478 105.275 138.217C104.058 137.47 103.678 135.879 104.425 134.66C109.873 125.775 112.752 115.529 112.752 105.025C112.752 100.746 109.273 97.2645 104.999 97.2645C100.724 97.2645 97.2451 100.746 97.2451 105.025C97.2451 106.031 97.2166 107.011 97.1314 107.989C97.0099 109.412 95.7461 110.48 94.3349 110.343C92.9134 110.221 91.859 108.967 91.983 107.544C92.0554 106.711 92.0761 105.878 92.0761 105.025C92.0761 97.8931 97.8731 92.0911 104.999 92.0911C112.124 92.0911 117.921 97.8931 117.921 105.025C117.921 116.486 114.778 127.669 108.829 137.366C108.343 138.163 107.493 138.6 106.624 138.6Z" stroke="white" stroke-width="0.75" stroke-linejoin="round"/>
<path d="M86.0775 132.211C85.6898 132.211 85.2944 132.123 84.9248 131.939C83.6481 131.3 83.1312 129.746 83.7695 128.468C84.0874 127.834 84.4596 127.231 84.8809 126.683C87.1061 123.739 88.8378 120.498 90.0215 117.063C90.4867 115.713 91.9547 114.996 93.3064 115.462C94.6555 115.928 95.3714 117.402 94.9062 118.75C93.5442 122.7 91.5567 126.422 88.9928 129.813C88.7525 130.131 88.5535 130.457 88.3932 130.78C87.9409 131.688 87.0286 132.211 86.0775 132.211Z" stroke="white" stroke-width="0.75" stroke-linejoin="round"/>
<path d="M95.2007 137.048C94.6606 137.048 94.1178 136.88 93.65 136.531C92.5103 135.672 92.2776 134.053 93.1357 132.909C99.2067 124.818 102.414 115.177 102.414 105.027C102.414 103.599 103.572 102.44 104.999 102.44C106.425 102.44 107.583 103.599 107.583 105.027C107.583 116.305 104.017 127.022 97.2709 136.016C96.7618 136.694 95.9864 137.048 95.2007 137.048Z" stroke="white" stroke-width="0.75" stroke-linejoin="round"/>
<path d="M59.4 81C58.0752 81 57 79.9248 57 78.6V69C57 62.3832 62.3832 57 69 57H78.6C79.9248 57 81 58.0752 81 59.4C81 60.7248 79.9248 61.8 78.6 61.8H69C65.0304 61.8 61.8 65.0304 61.8 69V78.6C61.8 79.9248 60.7248 81 59.4 81Z" stroke="white" stroke-width="0.75" stroke-linejoin="round"/>
<path d="M150.6 81C149.275 81 148.2 79.9248 148.2 78.6V69C148.2 65.0304 144.97 61.8 141 61.8H131.4C130.075 61.8 129 60.7248 129 59.4C129 58.0752 130.075 57 131.4 57H141C147.617 57 153 62.3832 153 69V78.6C153 79.9248 151.925 81 150.6 81Z" stroke="white" stroke-width="0.75" stroke-linejoin="round"/>
<path d="M141 153H131.4C130.075 153 129 151.925 129 150.6C129 149.275 130.075 148.2 131.4 148.2H141C144.97 148.2 148.2 144.97 148.2 141V131.4C148.2 130.075 149.275 129 150.6 129C151.925 129 153 130.075 153 131.4V141C153 147.617 147.617 153 141 153Z" stroke="white" stroke-width="0.75" stroke-linejoin="round"/>
<path d="M78.6 153H69C62.3832 153 57 147.617 57 141V131.4C57 130.075 58.0752 129 59.4 129C60.7248 129 61.8 130.075 61.8 131.4V141C61.8 144.97 65.0304 148.2 69 148.2H78.6C79.9248 148.2 81 149.275 81 150.6C81 151.925 79.9248 153 78.6 153Z" stroke="white" stroke-width="0.75" stroke-linejoin="round"/>
<path d="M59.4 81C58.0752 81 57 79.9248 57 78.6V69C57 62.3832 62.3832 57 69 57H78.6C79.9248 57 81 58.0752 81 59.4C81 60.7248 79.9248 61.8 78.6 61.8H69C65.0304 61.8 61.8 65.0304 61.8 69V78.6C61.8 79.9248 60.7248 81 59.4 81Z" fill="#A1FF00"/>
<path d="M150.6 81C149.275 81 148.2 79.9248 148.2 78.6V69C148.2 65.0304 144.97 61.8 141 61.8H131.4C130.075 61.8 129 60.7248 129 59.4C129 58.0752 130.075 57 131.4 57H141C147.617 57 153 62.3832 153 69V78.6C153 79.9248 151.925 81 150.6 81Z" fill="#A1FF00"/>
<path d="M141 153H131.4C130.075 153 129 151.925 129 150.6C129 149.275 130.075 148.2 131.4 148.2H141C144.97 148.2 148.2 144.97 148.2 141V131.4C148.2 130.075 149.275 129 150.6 129C151.925 129 153 130.075 153 131.4V141C153 147.617 147.617 153 141 153Z" fill="#A1FF00"/>
<path d="M78.6 153H69C62.3832 153 57 147.617 57 141V131.4C57 130.075 58.0752 129 59.4 129C60.7248 129 61.8 130.075 61.8 131.4V141C61.8 144.97 65.0304 148.2 69 148.2H78.6C79.9248 148.2 81 149.275 81 150.6C81 151.925 79.9248 153 78.6 153Z" fill="#A1FF00"/>
<path d="M59.4 81C58.0752 81 57 79.9248 57 78.6V69C57 62.3832 62.3832 57 69 57H78.6C79.9248 57 81 58.0752 81 59.4C81 60.7248 79.9248 61.8 78.6 61.8H69C65.0304 61.8 61.8 65.0304 61.8 69V78.6C61.8 79.9248 60.7248 81 59.4 81Z" stroke="#A1FF00" stroke-width="0.75" stroke-linejoin="round"/>
<path d="M150.6 81C149.275 81 148.2 79.9248 148.2 78.6V69C148.2 65.0304 144.97 61.8 141 61.8H131.4C130.075 61.8 129 60.7248 129 59.4C129 58.0752 130.075 57 131.4 57H141C147.617 57 153 62.3832 153 69V78.6C153 79.9248 151.925 81 150.6 81Z" stroke="#A1FF00" stroke-width="0.75" stroke-linejoin="round"/>
<path d="M141 153H131.4C130.075 153 129 151.925 129 150.6C129 149.275 130.075 148.2 131.4 148.2H141C144.97 148.2 148.2 144.97 148.2 141V131.4C148.2 130.075 149.275 129 150.6 129C151.925 129 153 130.075 153 131.4V141C153 147.617 147.617 153 141 153Z" stroke="#A1FF00" stroke-width="0.75" stroke-linejoin="round"/>
<path d="M78.6 153H69C62.3832 153 57 147.617 57 141V131.4C57 130.075 58.0752 129 59.4 129C60.7248 129 61.8 130.075 61.8 131.4V141C61.8 144.97 65.0304 148.2 69 148.2H78.6C79.9248 148.2 81 149.275 81 150.6C81 151.925 79.9248 153 78.6 153Z" stroke="#A1FF00" stroke-width="0.75" stroke-linejoin="round"/>
</svg>
