<svg width="200" height="197" viewBox="0 0 200 197" fill="none" xmlns="http://www.w3.org/2000/svg">
<rect opacity="0.1" y="13.126" width="183.406" height="183.766" rx="45" fill="white"/>
<path d="M118.788 107.295C117.542 107.295 116.531 106.281 116.531 105.031C116.531 91.3026 105.392 80.1319 91.7016 80.1319C84.0406 80.1319 76.9213 83.611 72.1699 89.6796C71.3979 90.6597 69.9781 90.8317 69.0007 90.0621C68.0188 89.2902 67.8495 87.8665 68.6193 86.8841C74.233 79.7154 82.6479 75.607 91.7038 75.607C107.884 75.607 121.048 88.8081 121.048 105.033C121.048 106.283 120.036 107.297 118.79 107.297L118.788 107.295Z" fill="white"/>
<path d="M64.6149 107.295C63.3689 107.295 62.3577 106.281 62.3577 105.031C62.3577 101.774 62.8926 98.5641 63.9468 95.4902C64.3531 94.3063 65.6397 93.6771 66.8157 94.0845C67.9939 94.492 68.6214 95.7799 68.2174 96.9615C67.3235 99.5601 66.8721 102.276 66.8721 105.031C66.8721 106.281 65.8609 107.295 64.6149 107.295Z" fill="white"/>
<path d="M104.996 130.972C104.703 130.972 104.403 130.913 104.114 130.791C102.967 130.302 102.432 128.973 102.92 127.821C103.651 126.094 104.308 124.292 104.872 122.467C105.242 121.272 106.509 120.604 107.696 120.976C108.888 121.347 109.554 122.614 109.184 123.807C108.574 125.779 107.865 127.723 107.073 129.591C106.707 130.453 105.872 130.969 104.994 130.969L104.996 130.972Z" fill="white"/>
<path d="M109.062 116.575C108.951 116.575 108.838 116.569 108.725 116.55C107.493 116.365 106.642 115.213 106.827 113.977C107.276 110.968 107.502 107.96 107.502 105.031C107.502 96.2938 100.414 89.1862 91.7015 89.1862H91.2726C90.0266 89.1862 89.0154 88.1721 89.0154 86.9226C89.0154 85.6731 90.0266 84.659 91.2726 84.659H91.7015C102.902 84.659 112.016 93.7993 112.016 105.031C112.016 108.184 111.773 111.419 111.292 114.647C111.125 115.77 110.161 116.575 109.062 116.575Z" fill="white"/>
<path d="M68.8788 121.94C68.4161 121.94 67.9511 121.8 67.5493 121.505C66.5426 120.767 66.3236 119.35 67.0572 118.343C69.8878 114.457 71.3843 109.855 71.3843 105.033C71.3843 97.8421 75.2374 91.1102 81.4379 87.4614C82.5101 86.8253 83.8938 87.1897 84.5281 88.2694C85.1578 89.3492 84.7989 90.7345 83.7222 91.3683C78.8963 94.2068 75.8987 99.4424 75.8987 105.033C75.8987 110.821 74.102 116.349 70.7026 121.014C70.2602 121.621 69.574 121.942 68.8765 121.942L68.8788 121.94Z" fill="white"/>
<path d="M93.1212 134.412C92.7194 134.412 92.3109 134.306 91.943 134.077C90.8798 133.423 90.548 132.031 91.2003 130.965C95.9586 123.189 98.4731 114.223 98.4731 105.031C98.4731 101.287 95.4349 98.2404 91.7014 98.2404C87.968 98.2404 84.9298 101.287 84.9298 105.031C84.9298 105.912 84.905 106.77 84.8305 107.625C84.7244 108.87 83.6206 109.805 82.3882 109.685C81.1467 109.579 80.2258 108.481 80.3341 107.236C80.3973 106.507 80.4154 105.778 80.4154 105.031C80.4154 98.7905 85.4783 93.7133 91.7014 93.7133C97.9246 93.7133 102.988 98.7905 102.988 105.031C102.988 115.061 100.243 124.846 95.0466 133.333C94.6223 134.03 93.8797 134.412 93.1212 134.412Z" fill="white"/>
<path d="M75.1765 128.821C74.8379 128.821 74.4925 128.744 74.1697 128.584C73.0547 128.024 72.6032 126.664 73.1608 125.546C73.4384 124.991 73.7634 124.464 74.1314 123.984C76.0748 121.408 77.5872 118.572 78.621 115.566C79.0273 114.384 80.3094 113.757 81.4899 114.165C82.6681 114.572 83.2934 115.862 82.8871 117.042C81.6975 120.498 79.9617 123.755 77.7226 126.723C77.5127 127.001 77.3389 127.287 77.1989 127.57C76.8039 128.364 76.0071 128.821 75.1765 128.821Z" fill="white"/>
<path d="M83.1443 133.054C82.6726 133.054 82.1986 132.907 81.79 132.601C80.7946 131.85 80.5914 130.433 81.3408 129.432C86.643 122.352 89.4442 113.916 89.4442 105.033C89.4442 103.784 90.4555 102.77 91.7014 102.77C92.9474 102.77 93.9587 103.784 93.9587 105.033C93.9587 114.903 90.8437 124.28 84.9524 132.151C84.5077 132.744 83.8305 133.054 83.1443 133.054Z" fill="white"/>
<path d="M51.8773 84.0077C50.7203 84.0077 49.7812 83.0669 49.7812 81.9076V73.5068C49.7812 67.7166 54.4827 63.0059 60.2616 63.0059H68.6459C69.8029 63.0059 70.7419 63.9467 70.7419 65.106C70.7419 66.2654 69.8029 67.2062 68.6459 67.2062H60.2616C56.7947 67.2062 53.9734 70.0331 53.9734 73.5068V81.9076C53.9734 83.0669 53.0344 84.0077 51.8773 84.0077Z" fill="white"/>
<path d="M131.528 84.0077C130.371 84.0077 129.432 83.0669 129.432 81.9076V73.5068C129.432 70.0331 126.611 67.2062 123.144 67.2062H114.759C113.602 67.2062 112.663 66.2654 112.663 65.106C112.663 63.9467 113.602 63.0059 114.759 63.0059H123.144C128.923 63.0059 133.624 67.7166 133.624 73.5068V81.9076C133.624 83.0669 132.685 84.0077 131.528 84.0077Z" fill="white"/>
<path d="M123.144 147.013H114.759C113.602 147.013 112.663 146.072 112.663 144.913C112.663 143.754 113.602 142.813 114.759 142.813H123.144C126.611 142.813 129.432 139.986 129.432 136.512V128.112C129.432 126.952 130.371 126.011 131.528 126.011C132.685 126.011 133.624 126.952 133.624 128.112V136.512C133.624 142.303 128.923 147.013 123.144 147.013Z" fill="white"/>
<path d="M68.6459 147.013H60.2616C54.4827 147.013 49.7812 142.303 49.7812 136.512V128.112C49.7812 126.952 50.7203 126.011 51.8773 126.011C53.0344 126.011 53.9734 126.952 53.9734 128.112V136.512C53.9734 139.986 56.7947 142.813 60.2616 142.813H68.6459C69.8029 142.813 70.7419 143.754 70.7419 144.913C70.7419 146.072 69.8029 147.013 68.6459 147.013Z" fill="white"/>
<path d="M118.788 107.295C117.542 107.295 116.531 106.281 116.531 105.031C116.531 91.3026 105.392 80.1319 91.7016 80.1319C84.0406 80.1319 76.9213 83.611 72.1699 89.6796C71.3979 90.6597 69.9781 90.8317 69.0007 90.0621C68.0188 89.2902 67.8495 87.8665 68.6193 86.8841C74.233 79.7154 82.6479 75.607 91.7038 75.607C107.884 75.607 121.048 88.8081 121.048 105.033C121.048 106.283 120.036 107.297 118.79 107.297L118.788 107.295Z" stroke="white" stroke-width="0.75" stroke-linejoin="round"/>
<path d="M64.6149 107.295C63.3689 107.295 62.3577 106.281 62.3577 105.031C62.3577 101.774 62.8926 98.5641 63.9468 95.4902C64.3531 94.3063 65.6397 93.6771 66.8157 94.0845C67.9939 94.492 68.6214 95.7799 68.2174 96.9615C67.3235 99.5601 66.8721 102.276 66.8721 105.031C66.8721 106.281 65.8609 107.295 64.6149 107.295Z" stroke="white" stroke-width="0.75" stroke-linejoin="round"/>
<path d="M104.996 130.972C104.703 130.972 104.403 130.913 104.114 130.791C102.967 130.302 102.432 128.973 102.92 127.821C103.651 126.094 104.308 124.292 104.872 122.467C105.242 121.272 106.509 120.604 107.696 120.976C108.888 121.347 109.554 122.614 109.184 123.807C108.574 125.779 107.865 127.723 107.073 129.591C106.707 130.453 105.872 130.969 104.994 130.969L104.996 130.972Z" stroke="white" stroke-width="0.75" stroke-linejoin="round"/>
<path d="M109.062 116.575C108.951 116.575 108.838 116.569 108.725 116.55C107.493 116.365 106.642 115.213 106.827 113.977C107.276 110.968 107.502 107.96 107.502 105.031C107.502 96.2938 100.414 89.1862 91.7015 89.1862H91.2726C90.0266 89.1862 89.0154 88.1721 89.0154 86.9226C89.0154 85.6731 90.0266 84.659 91.2726 84.659H91.7015C102.902 84.659 112.016 93.7993 112.016 105.031C112.016 108.184 111.773 111.419 111.292 114.647C111.125 115.77 110.161 116.575 109.062 116.575Z" stroke="white" stroke-width="0.75" stroke-linejoin="round"/>
<path d="M68.8788 121.94C68.4161 121.94 67.9511 121.8 67.5493 121.505C66.5426 120.767 66.3236 119.35 67.0572 118.343C69.8878 114.457 71.3843 109.855 71.3843 105.033C71.3843 97.8421 75.2374 91.1102 81.4379 87.4614C82.5101 86.8253 83.8938 87.1897 84.5281 88.2694C85.1578 89.3492 84.7989 90.7345 83.7222 91.3683C78.8963 94.2068 75.8987 99.4424 75.8987 105.033C75.8987 110.821 74.102 116.349 70.7026 121.014C70.2602 121.621 69.574 121.942 68.8765 121.942L68.8788 121.94Z" stroke="white" stroke-width="0.75" stroke-linejoin="round"/>
<path d="M93.1212 134.412C92.7194 134.412 92.3109 134.306 91.943 134.077C90.8798 133.423 90.548 132.031 91.2003 130.965C95.9586 123.189 98.4731 114.223 98.4731 105.031C98.4731 101.287 95.4349 98.2404 91.7014 98.2404C87.968 98.2404 84.9298 101.287 84.9298 105.031C84.9298 105.912 84.905 106.77 84.8305 107.625C84.7244 108.87 83.6206 109.805 82.3882 109.685C81.1467 109.579 80.2258 108.481 80.3341 107.236C80.3973 106.507 80.4154 105.778 80.4154 105.031C80.4154 98.7905 85.4783 93.7133 91.7014 93.7133C97.9246 93.7133 102.988 98.7905 102.988 105.031C102.988 115.061 100.243 124.846 95.0466 133.333C94.6223 134.03 93.8797 134.412 93.1212 134.412Z" stroke="white" stroke-width="0.75" stroke-linejoin="round"/>
<path d="M75.1765 128.821C74.8379 128.821 74.4925 128.744 74.1697 128.584C73.0547 128.024 72.6032 126.664 73.1608 125.546C73.4384 124.991 73.7634 124.464 74.1314 123.984C76.0748 121.408 77.5872 118.572 78.621 115.566C79.0273 114.384 80.3094 113.757 81.4899 114.165C82.6681 114.572 83.2934 115.862 82.8871 117.042C81.6975 120.498 79.9617 123.755 77.7226 126.723C77.5127 127.001 77.3389 127.287 77.1989 127.57C76.8039 128.364 76.0071 128.821 75.1765 128.821Z" stroke="white" stroke-width="0.75" stroke-linejoin="round"/>
<path d="M83.1443 133.054C82.6726 133.054 82.1986 132.907 81.79 132.601C80.7946 131.85 80.5914 130.433 81.3408 129.432C86.643 122.352 89.4442 113.916 89.4442 105.033C89.4442 103.784 90.4555 102.77 91.7014 102.77C92.9474 102.77 93.9587 103.784 93.9587 105.033C93.9587 114.903 90.8437 124.28 84.9524 132.151C84.5077 132.744 83.8305 133.054 83.1443 133.054Z" stroke="white" stroke-width="0.75" stroke-linejoin="round"/>
<path d="M51.8773 84.0077C50.7203 84.0077 49.7812 83.0669 49.7812 81.9076V73.5068C49.7812 67.7166 54.4827 63.0059 60.2616 63.0059H68.6459C69.8029 63.0059 70.7419 63.9467 70.7419 65.106C70.7419 66.2654 69.8029 67.2062 68.6459 67.2062H60.2616C56.7947 67.2062 53.9734 70.0331 53.9734 73.5068V81.9076C53.9734 83.0669 53.0344 84.0077 51.8773 84.0077Z" stroke="white" stroke-width="0.75" stroke-linejoin="round"/>
<path d="M131.528 84.0077C130.371 84.0077 129.432 83.0669 129.432 81.9076V73.5068C129.432 70.0331 126.611 67.2062 123.144 67.2062H114.759C113.602 67.2062 112.663 66.2654 112.663 65.106C112.663 63.9467 113.602 63.0059 114.759 63.0059H123.144C128.923 63.0059 133.624 67.7166 133.624 73.5068V81.9076C133.624 83.0669 132.685 84.0077 131.528 84.0077Z" stroke="white" stroke-width="0.75" stroke-linejoin="round"/>
<path d="M123.144 147.013H114.759C113.602 147.013 112.663 146.072 112.663 144.913C112.663 143.754 113.602 142.813 114.759 142.813H123.144C126.611 142.813 129.432 139.986 129.432 136.512V128.112C129.432 126.952 130.371 126.011 131.528 126.011C132.685 126.011 133.624 126.952 133.624 128.112V136.512C133.624 142.303 128.923 147.013 123.144 147.013Z" stroke="white" stroke-width="0.75" stroke-linejoin="round"/>
<path d="M68.6459 147.013H60.2616C54.4827 147.013 49.7812 142.303 49.7812 136.512V128.112C49.7812 126.952 50.7203 126.011 51.8773 126.011C53.0344 126.011 53.9734 126.952 53.9734 128.112V136.512C53.9734 139.986 56.7947 142.813 60.2616 142.813H68.6459C69.8029 142.813 70.7419 143.754 70.7419 144.913C70.7419 146.072 69.8029 147.013 68.6459 147.013Z" stroke="white" stroke-width="0.75" stroke-linejoin="round"/>
<path d="M51.8773 84.0077C50.7203 84.0077 49.7812 83.0669 49.7812 81.9076V73.5068C49.7812 67.7166 54.4827 63.0059 60.2616 63.0059H68.6459C69.8029 63.0059 70.7419 63.9467 70.7419 65.106C70.7419 66.2654 69.8029 67.2062 68.6459 67.2062H60.2616C56.7947 67.2062 53.9734 70.0331 53.9734 73.5068V81.9076C53.9734 83.0669 53.0344 84.0077 51.8773 84.0077Z" fill="#A1FF00"/>
<path d="M131.528 84.0077C130.371 84.0077 129.432 83.0669 129.432 81.9076V73.5068C129.432 70.0331 126.611 67.2062 123.144 67.2062H114.759C113.602 67.2062 112.663 66.2654 112.663 65.106C112.663 63.9467 113.602 63.0059 114.759 63.0059H123.144C128.923 63.0059 133.624 67.7166 133.624 73.5068V81.9076C133.624 83.0669 132.685 84.0077 131.528 84.0077Z" fill="#A1FF00"/>
<path d="M123.144 147.013H114.759C113.602 147.013 112.663 146.072 112.663 144.913C112.663 143.754 113.602 142.813 114.759 142.813H123.144C126.611 142.813 129.432 139.986 129.432 136.512V128.112C129.432 126.952 130.371 126.011 131.528 126.011C132.685 126.011 133.624 126.952 133.624 128.112V136.512C133.624 142.303 128.923 147.013 123.144 147.013Z" fill="#A1FF00"/>
<path d="M68.6459 147.013H60.2616C54.4827 147.013 49.7812 142.303 49.7812 136.512V128.112C49.7812 126.952 50.7203 126.011 51.8773 126.011C53.0344 126.011 53.9734 126.952 53.9734 128.112V136.512C53.9734 139.986 56.7947 142.813 60.2616 142.813H68.6459C69.8029 142.813 70.7419 143.754 70.7419 144.913C70.7419 146.072 69.8029 147.013 68.6459 147.013Z" fill="#A1FF00"/>
<path d="M51.8773 84.0077C50.7203 84.0077 49.7812 83.0669 49.7812 81.9076V73.5068C49.7812 67.7166 54.4827 63.0059 60.2616 63.0059H68.6459C69.8029 63.0059 70.7419 63.9467 70.7419 65.106C70.7419 66.2654 69.8029 67.2062 68.6459 67.2062H60.2616C56.7947 67.2062 53.9734 70.0331 53.9734 73.5068V81.9076C53.9734 83.0669 53.0344 84.0077 51.8773 84.0077Z" stroke="#A1FF00" stroke-width="0.75" stroke-linejoin="round"/>
<path d="M131.528 84.0077C130.371 84.0077 129.432 83.0669 129.432 81.9076V73.5068C129.432 70.0331 126.611 67.2062 123.144 67.2062H114.759C113.602 67.2062 112.663 66.2654 112.663 65.106C112.663 63.9467 113.602 63.0059 114.759 63.0059H123.144C128.923 63.0059 133.624 67.7166 133.624 73.5068V81.9076C133.624 83.0669 132.685 84.0077 131.528 84.0077Z" stroke="#A1FF00" stroke-width="0.75" stroke-linejoin="round"/>
<path d="M123.144 147.013H114.759C113.602 147.013 112.663 146.072 112.663 144.913C112.663 143.754 113.602 142.813 114.759 142.813H123.144C126.611 142.813 129.432 139.986 129.432 136.512V128.112C129.432 126.952 130.371 126.011 131.528 126.011C132.685 126.011 133.624 126.952 133.624 128.112V136.512C133.624 142.303 128.923 147.013 123.144 147.013Z" stroke="#A1FF00" stroke-width="0.75" stroke-linejoin="round"/>
<path d="M68.6459 147.013H60.2616C54.4827 147.013 49.7812 142.303 49.7812 136.512V128.112C49.7812 126.952 50.7203 126.011 51.8773 126.011C53.0344 126.011 53.9734 126.952 53.9734 128.112V136.512C53.9734 139.986 56.7947 142.813 60.2616 142.813H68.6459C69.8029 142.813 70.7419 143.754 70.7419 144.913C70.7419 146.072 69.8029 147.013 68.6459 147.013Z" stroke="#A1FF00" stroke-width="0.75" stroke-linejoin="round"/>
<ellipse cx="175.982" cy="24.0647" rx="24.0175" ry="24.0647" fill="#A1FF00"/>
<path d="M166.812 25.6272L172.113 30.6276L186.026 17.5015" stroke="#1A1A1A" stroke-width="4" stroke-linecap="round" stroke-linejoin="round"/>
</svg>
