<svg width="28" height="28" viewBox="0 0 28 28" fill="none" xmlns="http://www.w3.org/2000/svg">
<path fill-rule="evenodd" clip-rule="evenodd" d="M14 28C21.732 28 28 21.732 28 14C28 6.26801 21.732 0 14 0C6.26801 0 0 6.26801 0 14C0 21.732 6.26801 28 14 28ZM10.1304 5.31716C9.86506 5.84777 9.62751 6.41983 9.41846 7.02565C10.6415 7.26934 11.9492 7.41538 13.2968 7.45312V2.0782C12.8493 2.20389 12.4078 2.4489 11.9778 2.81266C11.2934 3.39166 10.6718 4.23427 10.1304 5.31716ZM19.9562 6.70023C20.9474 6.42677 21.8629 6.08396 22.6742 5.6782C22.6167 5.61837 22.559 5.55874 22.5002 5.49995C21.1483 4.1481 19.5311 3.15804 17.7661 2.57806C18.2605 3.16244 18.7178 3.86821 19.1278 4.68818C19.4395 5.31167 19.7163 5.98556 19.9562 6.70023ZM13.2966 19.14V14.7032H8.35107C8.39932 16.4432 8.62632 18.1121 9.01418 19.6238C10.3665 19.3453 11.8114 19.1798 13.2966 19.14ZM11.9778 25.1873C12.4078 25.5511 12.8493 25.7961 13.2968 25.9218V20.5469C11.9492 20.5847 10.6415 20.7307 9.41846 20.9744C9.62751 21.5801 9.86506 22.1522 10.1304 22.6828C10.6718 23.7657 11.2934 24.6083 11.9778 25.1873ZM18.5815 20.9744C18.3724 21.5801 18.1349 22.1522 17.8696 22.6828C17.3281 23.7657 16.7065 24.6083 16.0221 25.1873C15.5921 25.5511 15.1507 25.7961 14.7031 25.9218V20.5469C16.0508 20.5846 17.3584 20.7307 18.5815 20.9744ZM14.7031 19.14V14.7032H19.6486C19.6004 16.4432 19.3734 18.1121 18.9855 19.6238C17.6333 19.3453 16.1883 19.1798 14.7031 19.14ZM13.2966 8.85996V13.2968H8.35107C8.39932 11.5568 8.62627 9.88795 9.01418 8.37623C10.3664 8.65466 11.8114 8.82016 13.2966 8.85996ZM8.04364 21.2998C7.05241 21.5732 6.13694 21.916 5.32568 22.3218C5.38311 22.3816 5.44083 22.4413 5.49966 22.5001C6.85152 23.8519 8.46872 24.842 10.2337 25.422C9.73933 24.8376 9.28208 24.1318 8.8721 23.3119C8.56033 22.6883 8.28354 22.0144 8.04364 21.2998ZM23.6107 21.223C22.6504 20.7114 21.5498 20.2847 20.3521 19.9528C20.766 18.3317 21.0069 16.5514 21.0557 14.7032H25.9999C25.8634 17.0852 25.0348 19.3362 23.6107 21.223ZM19.9562 21.2998C19.7163 22.0144 19.4395 22.6883 19.1278 23.3119C18.7178 24.1318 18.2605 24.8376 17.7661 25.422C19.5311 24.842 21.1483 23.8519 22.5002 22.5001C22.559 22.4413 22.6167 22.3816 22.6742 22.3218C21.8629 21.916 20.9475 21.5732 19.9562 21.2998ZM21.0557 13.2968C21.0069 11.4486 20.766 9.66835 20.3521 8.04721C21.5498 7.71533 22.6504 7.28865 23.6107 6.77698C25.0348 8.66371 25.8634 10.9147 25.9999 13.2968H21.0557ZM14.7031 8.85996V13.2968H19.6486C19.6004 11.5568 19.3734 9.88795 18.9855 8.37623C17.6333 8.65466 16.1883 8.82016 14.7031 8.85996ZM14.7031 2.0782C15.1507 2.20394 15.5921 2.44895 16.0221 2.81266C16.7065 3.39166 17.3281 4.23427 17.8696 5.31711C18.1349 5.84773 18.3724 6.41983 18.5815 7.0256C17.3584 7.26929 16.0507 7.41529 14.7031 7.45307V2.0782ZM8.04364 6.70023C8.28354 5.98556 8.56033 5.31167 8.8721 4.68814C9.28208 3.86817 9.73937 3.1624 10.2337 2.57801C8.46872 3.15799 6.85156 4.14805 5.49966 5.4999C5.44083 5.55874 5.38311 5.61838 5.32568 5.6782C6.13694 6.08396 7.05245 6.42677 8.04364 6.70023ZM6.94421 14.7032C6.99306 16.5514 7.23394 18.3317 7.64791 19.9528C6.45016 20.2847 5.3496 20.7114 4.38926 21.223C2.96512 19.3362 2.13652 17.0852 2 14.7032H6.94421ZM7.64791 8.04721C6.45021 7.71533 5.3496 7.28866 4.38926 6.77703C2.96512 8.66376 2.13652 10.9148 2 13.2968H6.94421C6.99302 11.4486 7.23394 9.66831 7.64791 8.04721Z" fill="#A1FF00"/>
</svg>
