<svg width="163" height="55" viewBox="0 0 163 55" fill="none" xmlns="http://www.w3.org/2000/svg">
<g clip-path="url(#clip0_1031_339)">
<path d="M4.27912 21.7327V26.0779H17.7318L17.3356 29.9065H4.27912V38.1405H0V17.874H17.7318V21.7327H4.27912Z" fill="white"/>
<path d="M26.1199 17.874V34.2795H38.7475L38.3513 38.1382H21.8408V17.874H26.1199Z" fill="white"/>
<path d="M49.5083 33.5197L47.1543 38.1382H42.3555L53.0556 17.8114H56.5097L67.2098 38.1382H62.4412L60.0872 33.5197H49.5083ZM51.3123 29.8741H58.253L54.7989 22.9464L51.3146 29.8741H51.3123Z" fill="white"/>
<path d="M74.2181 32.8527C74.4628 34.0085 74.922 34.2818 76.663 34.2818H83.5408C85.4356 34.2818 85.9857 33.8255 85.9857 32.2458V31.9424C85.9857 30.3628 85.4356 29.9065 83.5408 29.9065H76.05C73.7869 29.9065 72.3815 29.4803 71.3724 28.4473C70.4541 27.5371 69.9343 26.0779 69.9343 24.4681V23.3448C69.9343 21.735 70.4541 20.2758 71.3724 19.3331C72.3815 18.3001 73.7566 17.874 76.05 17.874H84.2144C88.1882 17.874 89.8709 19.2104 90.3301 22.7657L86.0486 23.1595C85.8039 22.0037 85.3447 21.7304 83.6037 21.7304H76.7259C74.8311 21.7304 74.281 22.1867 74.281 23.7663V24.0396C74.281 25.6193 74.8311 26.0755 76.7259 26.0755H84.2167C86.4798 26.0755 87.8852 26.5017 88.8944 27.5347C89.8127 28.445 90.3324 29.9042 90.3324 31.5464V32.6697C90.3324 34.2795 89.8127 35.7386 88.8944 36.6813C87.8852 37.7143 86.5101 38.1405 84.2167 38.1405H76.0523C72.0785 38.1405 70.3958 36.8041 69.9367 33.2488L74.2181 32.8527Z" fill="white"/>
<path d="M98.1821 38.1382H93.9006V17.874H98.1821V26.0779H109.8V17.874H114.294V38.1382H109.8V29.9042H98.1821V38.1382Z" fill="white"/>
<path d="M132.406 26.2284L162.8 0L137.589 29.7838L107.365 55L132.406 26.2284Z" fill="#A1FF00"/>
<path d="M127.569 17.8253H119.925L142.427 38.6246H150.07L127.569 17.8253Z" fill="#A1FF00"/>
</g>
<defs>
<clipPath id="clip0_1031_339">
<rect width="162.8" height="55" fill="white"/>
</clipPath>
</defs>
</svg>
