<svg width="200" height="197" viewBox="0 0 200 197" fill="none" xmlns="http://www.w3.org/2000/svg">
<rect opacity="0.1" y="13" width="183.406" height="183.766" rx="45" fill="white"/>
<rect x="43.5" y="79.5" width="97" height="51" rx="13.5" stroke="#A1FF00" stroke-width="3"/>
<path d="M126.122 100L125.369 103.821L128.379 101.303L130 104.255L126.44 105.5L130 106.716L128.263 109.784L125.369 107.237L126.093 111H122.707L123.401 107.237L120.536 109.813L118.742 106.687L122.302 105.442L118.771 104.284L120.421 101.303L123.43 103.821L122.678 100H126.122Z" fill="white"/>
<path d="M104.874 100L104.122 103.821L107.131 101.303L108.752 104.255L105.192 105.5L108.752 106.716L107.016 109.784L104.122 107.237L104.845 111H101.459L102.154 107.237L99.2886 109.813L97.4943 106.687L101.054 105.442L97.5232 104.284L99.1728 101.303L102.183 103.821L101.43 100H104.874Z" fill="white"/>
<path d="M83.6279 100L82.8755 103.821L85.8853 101.303L87.5059 104.255L83.9462 105.5L87.5059 106.716L85.7695 109.784L82.8755 107.237L83.599 111H80.213L80.9075 107.237L78.0424 109.813L76.2481 106.687L79.8078 105.442L76.277 104.284L77.9267 101.303L80.9364 103.821L80.184 100H83.6279Z" fill="white"/>
<path d="M62.3798 100L61.6273 103.821L64.6371 101.303L66.2578 104.255L62.6981 105.5L66.2578 106.716L64.5214 109.784L61.6273 107.237L62.3508 111H58.9648L59.6594 107.237L56.7943 109.813L55 106.687L58.5597 105.442L55.0289 104.284L56.6785 101.303L59.6883 103.821L58.9359 100H62.3798Z" fill="white"/>
<ellipse cx="175.982" cy="24.0647" rx="24.0175" ry="24.0647" fill="#A1FF00"/>
<path d="M166.812 25.6272L172.113 30.6276L186.026 17.5015" stroke="#1A1A1A" stroke-width="4" stroke-linecap="round" stroke-linejoin="round"/>
</svg>
