<svg width="132" height="154" viewBox="0 0 132 154" fill="none" xmlns="http://www.w3.org/2000/svg">
<g id="Group 1171276378">
<g id="Group 1171276373">
<path id="Vector" opacity="0.1" d="M65.7171 141.588C97.6501 141.588 123.537 115.701 123.537 83.7679C123.537 51.835 97.6501 25.9482 65.7171 25.9482C33.7842 25.9482 7.89746 51.835 7.89746 83.7679C7.89746 115.701 33.7842 141.588 65.7171 141.588Z" fill="#F3F3F3"/>
<path id="Vector_2" opacity="0.1" d="M65.7166 149.482C56.8457 149.482 48.2389 147.745 40.1361 144.317C32.3102 141.007 25.2824 136.269 19.2475 130.234C13.2126 124.199 8.47425 117.171 5.1642 109.345C1.73744 101.243 0 92.6367 0 83.765C0 74.8934 1.73744 66.2875 5.16499 58.1847C8.47503 50.3588 13.2134 43.331 19.2482 37.2962C25.2831 31.2613 32.311 26.523 40.1369 23.213C48.2389 19.7863 56.8457 18.0488 65.7166 18.0488C74.5875 18.0488 83.1943 19.7863 91.2971 23.2138C99.123 26.5238 106.151 31.2621 112.186 37.297C118.221 43.3318 122.959 50.3596 126.269 58.1855C129.696 66.2882 131.434 74.8941 131.434 83.7658C131.434 92.6375 129.697 101.243 126.269 109.346C122.959 117.172 118.221 124.2 112.186 130.235C106.151 136.27 99.123 141.008 91.2971 144.318C83.1943 147.745 74.5883 149.483 65.7166 149.483V149.482ZM65.7166 20.0386C57.113 20.0386 48.7673 21.7232 40.9114 25.0459C33.3228 28.2557 26.5072 32.8505 20.6544 38.7031C14.8017 44.5558 10.2062 51.3715 6.99707 58.96C3.67441 66.8159 1.98981 75.1615 1.98981 83.765C1.98981 92.3686 3.67441 100.714 6.99707 108.57C10.2069 116.159 14.8017 122.974 20.6544 128.827C26.5072 134.68 33.3228 139.275 40.9114 142.484C48.7673 145.807 57.113 147.491 65.7166 147.491C74.3202 147.491 82.6659 145.807 90.5218 142.484C98.1104 139.274 104.926 134.68 110.779 128.827C116.631 122.974 121.227 116.159 124.437 108.57C127.76 100.714 129.444 92.3686 129.444 83.765C129.444 75.1615 127.76 66.8159 124.437 58.96C121.227 51.3715 116.632 44.5558 110.779 38.7031C104.925 32.8505 98.1104 28.2549 90.5218 25.0459C82.6659 21.7232 74.3202 20.0386 65.7166 20.0386Z" fill="#F3F3F3"/>
</g>
<g id="Group 1171276372">
<g id="Text">
<g id="Group">
<g id="Group 1171276374">
<path id="Vector_3" d="M99.7191 22.4721V140.315C99.7191 143.859 96.8337 146.732 93.2748 146.732H37.2443C33.6849 146.732 30.7996 143.859 30.7996 140.315V22.4687C30.7996 18.9266 33.6834 16.0552 37.2409 16.0552H61.2905L61.3105 16.1284C61.9098 18.2762 63.2898 19.6732 64.8204 19.6732H65.6978C67.2284 19.6732 68.6081 18.2758 69.2077 16.1284L69.2311 16.0552H93.2744C96.8337 16.0552 99.7191 18.9281 99.7191 22.4721Z" fill="white"/>
<g id="Group 1171276379">
<path id="Union" d="M84.0739 41.8331C84.1258 41.8694 84.1751 41.9092 84.2214 41.9522C84.5139 42.2204 84.6991 42.6044 84.6991 43.0319V64.773C84.6991 65.1935 84.5207 65.5775 84.2287 65.8457H84.2283C83.9786 66.0848 83.6435 66.2224 83.273 66.2224H47.6253C47.2621 66.2224 46.927 66.0845 46.6774 65.8529C46.385 65.5847 46.1995 65.2008 46.1995 64.7734V43.0319L46.1995 43.0269C46.1995 43.0195 46.1996 43.0122 46.1997 43.0048C46.2073 42.5882 46.3909 42.2144 46.6772 41.9522C46.6772 41.9522 46.6772 41.9522 46.6772 41.9522C46.9265 41.7201 47.2616 41.5825 47.6253 41.5825H83.2733C83.335 41.5825 83.3959 41.5865 83.4557 41.5942C83.6828 41.6236 83.894 41.7071 84.0739 41.8331Z" fill="#A1FF00"/>
<path id="Vector_4" opacity="0.3" d="M84.2215 41.9522C83.9718 41.7205 83.6367 41.5825 83.2733 41.5825H47.6253C47.2616 41.5825 46.9265 41.7201 46.6772 41.9522C46.3848 42.2204 46.1995 42.6044 46.1995 43.0319V64.7731C46.1995 65.2005 46.3848 65.5849 46.6772 65.8527C46.9268 66.0845 47.262 66.2224 47.6253 66.2224H83.273C83.6435 66.2224 83.9786 66.0848 84.2283 65.8457C84.5207 65.5775 84.6988 65.1935 84.6988 64.7731V43.0319C84.6988 42.6044 84.5135 42.22 84.2211 41.9522H84.2215Z" fill="black"/>
<path id="Vector_5" d="M84.2213 41.9522L68.793 53.9026L66.4259 55.736C65.8483 56.1925 65.05 56.1925 64.4724 55.736L62.1053 53.9026L46.677 41.9522C46.9267 41.7201 47.2615 41.5825 47.6251 41.5825H83.2728C83.6365 41.5825 83.9716 41.7201 84.221 41.9522H84.2213Z" fill="#A1FF00"/>
<g id="Vector_6" style="mix-blend-mode:soft-light">
<path d="M62.1052 53.9016L46.6769 65.852C46.3845 65.5839 46.1992 65.1998 46.1992 64.7724V43.0308C46.1992 42.6034 46.3845 42.219 46.6769 41.9512L62.1052 53.9016Z" fill="#A1FF00"/>
</g>
<g id="Vector_7" style="mix-blend-mode:soft-light">
<path d="M84.6987 43.0308V64.772C84.6987 65.1925 84.5203 65.5765 84.2283 65.8447L68.7927 53.9016L84.221 41.9512C84.5134 42.2193 84.6987 42.6034 84.6987 43.0308Z" fill="#A1FF00"/>
</g>
</g>
<path id="Vector (Stroke)" fill-rule="evenodd" clip-rule="evenodd" d="M37.4986 16.2449C34.0454 16.2449 31.246 19.0322 31.246 22.4706V140.317C31.246 143.757 34.0469 146.545 37.502 146.545H93.5325C96.9873 146.545 99.7882 143.757 99.7882 140.317V22.474C99.7882 19.0337 96.9873 16.2449 93.5322 16.2449H69.6291C69.01 18.3914 67.5954 19.8629 65.9556 19.8629H65.0782C63.4384 19.8629 62.0234 18.3918 61.4048 16.2449H37.4986ZM30.8687 22.4706C30.8687 18.8247 33.837 15.8691 37.4986 15.8691H61.6926L61.7501 16.08L61.7503 16.0807C62.3402 18.194 63.6733 19.4872 65.0782 19.4872H65.9556C67.3607 19.4872 68.6936 18.1933 69.2837 16.08L69.2846 16.0766L69.3509 15.8691H93.5322C97.1957 15.8691 100.166 18.8262 100.166 22.474V140.317C100.166 143.965 97.1957 146.921 93.5325 146.921H37.502C33.8385 146.921 30.8687 143.964 30.8687 140.317V22.4706Z" fill="#263238"/>
<path id="Vector_8" d="M76.0933 100.733H56.1062C55.0967 100.733 54.2786 99.9186 54.2786 98.9134V95.2172C54.2786 94.2121 55.0967 93.3975 56.1062 93.3975H76.0933C77.1028 93.3975 77.921 94.2121 77.921 95.2172V98.9134C77.921 99.9186 77.1028 100.733 76.0933 100.733Z" fill="#263238"/>
<path id="Vector (Stroke)_2" fill-rule="evenodd" clip-rule="evenodd" d="M56.1054 93.5833C55.2001 93.5833 54.4665 94.3138 54.4665 95.2151V98.9114C54.4665 99.8127 55.2001 100.543 56.1054 100.543H76.0926C76.9978 100.543 77.7315 99.8127 77.7315 98.9114V95.2151C77.7315 94.3138 76.9978 93.5833 76.0926 93.5833H56.1054ZM54.0891 95.2151C54.0891 94.1062 54.9917 93.2075 56.1054 93.2075H76.0926C77.2063 93.2075 78.1089 94.1062 78.1089 95.2151V98.9114C78.1089 100.02 77.2063 100.919 76.0926 100.919H56.1054C54.9917 100.919 54.0891 100.02 54.0891 98.9114V95.2151Z" fill="#263238"/>
<path id="Vector_9" d="M31.0559 111.353V145.104C31.0559 148.648 33.9413 151.52 37.5007 151.52H93.5318C97.0912 151.52 99.9766 148.647 99.9766 145.104V111.353H31.0559Z" fill="#DBDBDB"/>
<path id="Vector (Stroke)_3" fill-rule="evenodd" clip-rule="evenodd" d="M30.8687 111.354C30.8687 111.25 30.9531 111.166 31.0573 111.166H99.978C100.082 111.166 100.167 111.25 100.167 111.354V145.105C100.167 148.752 97.1968 151.71 93.5333 151.71H37.5021C33.8385 151.71 30.8687 148.753 30.8687 145.105V111.354ZM31.246 111.542V145.105C31.246 148.545 34.0469 151.334 37.5021 151.334H93.5333C96.9884 151.334 99.7893 148.545 99.7893 145.105V111.542H31.246Z" fill="#263238"/>
<path id="Vector_10" d="M52.0454 121.751H34.8644C34.3908 121.751 34.0066 121.368 34.0066 120.896V116.284C34.0066 115.812 34.3908 115.43 34.8644 115.43H52.0454C52.519 115.43 52.9031 115.812 52.9031 116.284V120.896C52.9031 121.368 52.519 121.751 52.0454 121.751Z" fill="white"/>
<path id="Vector_11" d="M73.1924 121.751H56.0113C55.5377 121.751 55.1536 121.368 55.1536 120.896V116.284C55.1536 115.812 55.5377 115.43 56.0113 115.43H73.1924C73.666 115.43 74.0501 115.812 74.0501 116.284V120.896C74.0501 121.368 73.666 121.751 73.1924 121.751Z" fill="white"/>
<path id="Vector_12" d="M94.3375 121.751H77.1561C76.6825 121.751 76.2983 121.368 76.2983 120.896V116.284C76.2983 115.812 76.6825 115.43 77.1561 115.43H94.3375C94.8111 115.43 95.1953 115.812 95.1953 116.284V120.896C95.1953 121.368 94.8111 121.751 94.3375 121.751Z" fill="white"/>
<path id="Vector_13" d="M52.0454 129.827H34.8644C34.3908 129.827 34.0066 129.444 34.0066 128.973V124.36C34.0066 123.888 34.3908 123.506 34.8644 123.506H52.0454C52.519 123.506 52.9031 123.888 52.9031 124.36V128.973C52.9031 129.444 52.519 129.827 52.0454 129.827Z" fill="white"/>
<path id="Vector_14" d="M73.1924 129.827H56.0113C55.5377 129.827 55.1536 129.444 55.1536 128.973V124.36C55.1536 123.888 55.5377 123.506 56.0113 123.506H73.1924C73.666 123.506 74.0501 123.888 74.0501 124.36V128.973C74.0501 129.444 73.666 129.827 73.1924 129.827Z" fill="white"/>
<path id="Vector_15" d="M94.3375 129.827H77.1561C76.6825 129.827 76.2983 129.444 76.2983 128.973V124.36C76.2983 123.888 76.6825 123.506 77.1561 123.506H94.3375C94.8111 123.506 95.1953 123.888 95.1953 124.36V128.973C95.1953 129.444 94.8111 129.827 94.3375 129.827Z" fill="white"/>
<path id="Vector_16" d="M52.0454 137.902H34.8644C34.3908 137.902 34.0066 137.52 34.0066 137.048V132.436C34.0066 131.964 34.3908 131.582 34.8644 131.582H52.0454C52.519 131.582 52.9031 131.964 52.9031 132.436V137.048C52.9031 137.52 52.519 137.902 52.0454 137.902Z" fill="white"/>
<path id="Vector_17" d="M73.1924 137.902H56.0113C55.5377 137.902 55.1536 137.52 55.1536 137.048V132.436C55.1536 131.964 55.5377 131.582 56.0113 131.582H73.1924C73.666 131.582 74.0501 131.964 74.0501 132.436V137.048C74.0501 137.52 73.666 137.902 73.1924 137.902Z" fill="white"/>
<path id="Vector_18" d="M94.3375 137.902H77.1561C76.6825 137.902 76.2983 137.52 76.2983 137.048V132.436C76.2983 131.964 76.6825 131.582 77.1561 131.582H94.3375C94.8111 131.582 95.1953 131.964 95.1953 132.436V137.048C95.1953 137.52 94.8111 137.902 94.3375 137.902Z" fill="white"/>
<path id="Vector_19" d="M73.1924 145.979H56.0113C55.5377 145.979 55.1536 145.596 55.1536 145.124V140.512C55.1536 140.04 55.5377 139.658 56.0113 139.658H73.1924C73.666 139.658 74.0501 140.04 74.0501 140.512V145.124C74.0501 145.596 73.666 145.979 73.1924 145.979Z" fill="white"/>
<path id="Vector_20" d="M92.9129 145.979H81.1249L78.5811 143.035L81.1249 139.658H92.9129V145.979Z" fill="white"/>
<path id="Vector_21" d="M65.3137 58.0406C64.7907 58.6223 63.8884 58.6852 63.2867 58.1817L58.9529 54.5553C58.4319 54.1194 58.3716 53.354 58.8184 52.8453C59.2646 52.3367 60.049 52.2778 60.57 52.714L63.5815 55.2339C63.8823 55.4856 64.3335 55.4542 64.595 55.1633L70.2031 48.9248C70.6556 48.421 71.44 48.3711 71.9561 48.8132C72.4718 49.255 72.5229 50.0211 72.0704 50.5245L65.3137 58.0406Z" fill="white"/>
<path id="Vector_22" d="M43.616 75.2041H35.7803V83.0061H43.616V75.2041Z" fill="white"/>
<path id="Vector (Stroke)_4" fill-rule="evenodd" clip-rule="evenodd" d="M35.5906 75.0161H43.8037V83.1939H35.5906V75.0161ZM35.9679 75.3919V82.8181H43.4263V75.3919H35.9679Z" fill="#263238"/>
<path id="Vector_23" d="M54.1773 75.2041H46.3416V83.0061H54.1773V75.2041Z" fill="white"/>
<path id="Vector (Stroke)_5" fill-rule="evenodd" clip-rule="evenodd" d="M46.1521 75.0161H54.3652V83.1939H46.1521V75.0161ZM46.5295 75.3919V82.8181H53.9879V75.3919H46.5295Z" fill="#263238"/>
<path id="Vector_24" d="M64.7388 75.2041H56.9031V83.0061H64.7388V75.2041Z" fill="white"/>
<path id="Vector (Stroke)_6" fill-rule="evenodd" clip-rule="evenodd" d="M56.7158 75.0161H64.929V83.1939H56.7158V75.0161ZM57.0932 75.3919V82.8181H64.5516V75.3919H57.0932Z" fill="#263238"/>
<path id="Vector_25" d="M75.3001 75.2041H67.4644V83.0061H75.3001V75.2041Z" fill="white"/>
<path id="Vector (Stroke)_7" fill-rule="evenodd" clip-rule="evenodd" d="M67.2747 75.0161H75.4878V83.1939H67.2747V75.0161ZM67.652 75.3919V82.8181H75.1104V75.3919H67.652Z" fill="#263238"/>
<path id="Vector_26" d="M85.8614 75.2041H78.0256V83.0061H85.8614V75.2041Z" fill="white"/>
<path id="Vector (Stroke)_8" fill-rule="evenodd" clip-rule="evenodd" d="M77.8362 75.0161H86.0493V83.1939H77.8362V75.0161ZM78.2136 75.3919V82.8181H85.6719V75.3919H78.2136Z" fill="#263238"/>
<path id="Vector_27" d="M96.4207 75.2041H88.585V83.0061H96.4207V75.2041Z" fill="white"/>
<path id="Vector (Stroke)_9" fill-rule="evenodd" clip-rule="evenodd" d="M88.3977 75.0161H96.6108V83.1939H88.3977V75.0161ZM88.7751 75.3919V82.8181H96.2335V75.3919H88.7751Z" fill="#263238"/>
<path id="Vector_28" d="M104.357 53.3114V40.4155H103.682V24.2503C103.682 18.0248 98.6136 12.978 92.3611 12.978H38.3975C32.145 12.978 27.0764 18.0248 27.0764 24.2503V142.729C27.0764 148.955 32.145 154.002 38.3975 154.002H92.3611C98.6136 154.002 103.682 148.955 103.682 142.729V64.3027H104.357V56.6822H103.186V53.3118L104.357 53.3114ZM99.9746 140.313C99.9746 145.935 95.3964 150.49 89.7528 150.49H41.2768C35.6333 150.49 31.0551 145.935 31.0551 140.313V26.2309C31.0551 20.6116 35.6333 16.0565 41.2768 16.0565H61.5461L61.5661 16.1298C62.1653 18.2775 63.5453 19.6745 65.076 19.6745H65.9533C67.4839 19.6745 68.8636 18.2771 69.4632 16.1298L69.4866 16.0565H89.7524C95.396 16.0565 99.9742 20.6116 99.9742 26.2309L99.9746 140.313Z" fill="#A1FF00"/>
<path id="Vector_29" d="M102.001 26.4007C102.001 20.1752 96.9327 15.1284 90.6803 15.1284H40.3477C34.0952 15.1284 29.0266 20.1752 29.0266 26.4007V141.325C29.0266 147.55 34.0952 152.597 40.3477 152.597H90.6803C96.9327 152.597 102.001 147.55 102.001 141.325V26.4007ZM99.9734 140.672C99.9734 146.093 95.5597 150.488 90.115 150.488H40.9122C35.4675 150.488 31.0538 146.093 31.0538 140.672V26.9936C31.0538 21.5743 35.466 17.1811 40.9088 17.1811H61.5648C61.5648 17.1811 61.5648 20.7991 65.5134 20.7991C69.4628 20.7991 69.462 17.1811 69.462 17.1811H90.115C95.5597 17.1811 99.9734 21.5758 99.9734 26.997V140.672Z" fill="#263238"/>
<path id="Vector_30" d="M66.7017 17.6056C66.7017 16.8796 66.1106 16.2905 65.3809 16.2905C64.6511 16.2905 64.0601 16.879 64.0601 17.6056C64.0601 18.3317 64.6511 18.9208 65.3809 18.9208C66.1106 18.9208 66.7017 18.3317 66.7017 17.6056Z" fill="white"/>
<path id="Vector_31" d="M87.5568 142.97L89.3957 141.139C89.6169 140.919 89.6169 140.562 89.3957 140.342C89.1746 140.122 88.8165 140.122 88.5953 140.342L86.7564 142.173L84.9174 140.342C84.6963 140.122 84.3382 140.122 84.117 140.342C83.8959 140.562 83.8959 140.919 84.117 141.139L85.956 142.97L84.117 144.801C83.8959 145.021 83.8959 145.378 84.117 145.598C84.2276 145.708 84.3725 145.763 84.5174 145.763C84.6623 145.763 84.8072 145.708 84.9174 145.598L86.7564 143.767L88.5953 145.598C88.7059 145.708 88.8508 145.763 88.9957 145.763C89.1406 145.763 89.2855 145.708 89.3961 145.598C89.6172 145.378 89.6172 145.021 89.3961 144.801L87.5568 142.97Z" fill="#263238"/>
<path id="Vector_32" d="M42.4663 120.757V117.054C42.4436 117.065 42.3991 117.082 42.333 117.105C42.267 117.127 42.1942 117.149 42.1149 117.169C42.0357 117.19 41.9628 117.21 41.8968 117.229C41.8308 117.248 41.7847 117.263 41.7583 117.274V116.693C41.8111 116.674 41.8772 116.648 41.9564 116.614C42.0357 116.58 42.1198 116.542 42.2081 116.499C42.2968 116.455 42.3798 116.407 42.4572 116.355C42.5346 116.302 42.5976 116.248 42.647 116.191H43.247V120.756H42.4663V120.757Z" fill="#263238"/>
<path id="Vector_33" d="M63.6062 120.756V120.204L64.7383 118.462C64.8213 118.334 64.8995 118.212 64.973 118.096C65.0466 117.979 65.107 117.858 65.1542 117.732C65.2014 117.606 65.2251 117.468 65.2251 117.317C65.2251 117.149 65.1949 117.019 65.1346 116.929C65.0742 116.839 64.9798 116.794 64.8515 116.794C64.7308 116.794 64.6364 116.827 64.5685 116.895C64.5006 116.963 64.4542 117.051 64.4296 117.16C64.4051 117.269 64.393 117.389 64.393 117.521V117.713H63.6232V117.51C63.6232 117.239 63.6636 117.001 63.7447 116.797C63.8258 116.592 63.9553 116.431 64.1323 116.315C64.3096 116.198 64.5417 116.14 64.8285 116.14C65.221 116.14 65.5153 116.245 65.7116 116.456C65.9078 116.667 66.0059 116.96 66.0059 117.335C66.0059 117.523 65.9795 117.693 65.9267 117.845C65.8738 117.997 65.804 118.143 65.7172 118.282C65.6304 118.421 65.5361 118.564 65.4342 118.71L64.4945 120.131H65.887V120.756H63.6062Z" fill="#263238"/>
<path id="Vector_34" d="M85.6899 120.824C85.4031 120.824 85.1721 120.77 84.9966 120.664C84.8212 120.557 84.6936 120.404 84.6144 120.207C84.5351 120.009 84.4955 119.78 84.4955 119.516V119.359H85.271C85.271 119.37 85.271 119.389 85.271 119.415C85.271 119.441 85.271 119.468 85.271 119.494C85.2748 119.637 85.288 119.758 85.3106 119.86C85.3333 119.962 85.3755 120.039 85.4378 120.091C85.5001 120.144 85.5857 120.17 85.6955 120.17C85.8125 120.17 85.9001 120.142 85.9586 120.085C86.0171 120.029 86.0567 119.946 86.0774 119.837C86.0982 119.728 86.1084 119.599 86.1084 119.448C86.1084 119.216 86.0718 119.033 85.9978 118.899C85.9242 118.766 85.782 118.693 85.5706 118.682C85.5631 118.682 85.5453 118.682 85.5167 118.682C85.4884 118.682 85.4627 118.682 85.4401 118.682V118.057C85.4589 118.057 85.4785 118.057 85.4997 118.057C85.5204 118.057 85.5401 118.057 85.5589 118.057C85.7665 118.053 85.9099 117.997 85.9891 117.89C86.0684 117.784 86.108 117.611 86.108 117.375C86.108 117.183 86.0786 117.033 86.0205 116.924C85.962 116.815 85.8495 116.76 85.6835 116.76C85.5212 116.76 85.4129 116.821 85.3582 116.941C85.3034 117.061 85.274 117.217 85.2706 117.409C85.2706 117.435 85.2706 117.462 85.2706 117.49C85.2706 117.519 85.2706 117.548 85.2706 117.578H84.4951V117.358C84.4951 117.099 84.5411 116.878 84.634 116.695C84.7264 116.514 84.8612 116.374 85.0385 116.278C85.2159 116.182 85.431 116.135 85.6838 116.135C85.9442 116.135 86.1631 116.182 86.3405 116.276C86.5178 116.37 86.6526 116.506 86.745 116.684C86.8375 116.863 86.8839 117.082 86.8839 117.341C86.8839 117.611 86.8273 117.833 86.7141 118.006C86.6009 118.179 86.4556 118.292 86.2782 118.344C86.399 118.382 86.5046 118.446 86.5952 118.539C86.6858 118.631 86.7567 118.751 86.8077 118.9C86.8586 119.048 86.8843 119.227 86.8843 119.438C86.8843 119.712 86.8454 119.953 86.768 120.162C86.6907 120.371 86.5643 120.533 86.3888 120.65C86.2137 120.765 85.9805 120.824 85.6899 120.824Z" fill="#263238"/>
<path id="Vector_35" d="M42.844 128.85V127.728H41.4741V127.063L42.6685 124.284H43.5799V127.108H44.0497V127.728H43.5799V128.85H42.844V128.85ZM42.1311 127.108H42.8444V125.124L42.1311 127.108Z" fill="#263238"/>
<path id="Vector_36" d="M64.7935 128.917C64.4879 128.917 64.2509 128.861 64.0833 128.748C63.9154 128.635 63.7995 128.476 63.7354 128.269C63.6709 128.063 63.6392 127.82 63.6392 127.542H64.4033C64.4033 127.696 64.4135 127.832 64.4347 127.951C64.4554 128.069 64.4969 128.162 64.5592 128.227C64.6215 128.293 64.7132 128.323 64.8335 128.32C64.9656 128.32 65.0592 128.278 65.1139 128.193C65.1686 128.108 65.2034 127.99 65.2185 127.838C65.2336 127.686 65.2411 127.508 65.2411 127.305C65.2411 127.129 65.2309 126.975 65.2098 126.843C65.189 126.712 65.1483 126.609 65.0883 126.536C65.0279 126.463 64.9335 126.426 64.8052 126.426C64.6954 126.426 64.6052 126.463 64.5335 126.536C64.4618 126.609 64.409 126.706 64.375 126.826H63.7014L63.7467 124.284H65.8072V124.983H64.4033L64.3581 126.082C64.4147 126.014 64.4965 125.96 64.6041 125.919C64.7117 125.877 64.8313 125.853 64.9637 125.845C65.2053 125.834 65.4015 125.885 65.5524 125.998C65.7034 126.11 65.8147 126.273 65.8864 126.488C65.9581 126.702 65.994 126.958 65.994 127.254C65.994 127.495 65.9781 127.717 65.946 127.92C65.914 128.123 65.8543 128.298 65.7675 128.447C65.6807 128.595 65.5589 128.71 65.4026 128.793C65.2456 128.876 65.0426 128.917 64.7935 128.917Z" fill="#263238"/>
<path id="Vector_37" d="M85.7151 128.912C85.432 128.912 85.2018 128.846 85.0245 128.715C84.8471 128.583 84.7177 128.404 84.6369 128.176C84.5558 127.949 84.5154 127.694 84.5154 127.413V125.812C84.5154 125.515 84.5494 125.248 84.6173 125.009C84.6852 124.77 84.806 124.581 84.9796 124.442C85.1531 124.303 85.3962 124.233 85.7098 124.233C85.9777 124.233 86.1954 124.278 86.3634 124.366C86.5313 124.454 86.6547 124.583 86.734 124.752C86.8132 124.921 86.8528 125.13 86.8528 125.378C86.8528 125.389 86.854 125.401 86.8555 125.414C86.8574 125.428 86.8585 125.44 86.8585 125.451H86.1056C86.1056 125.248 86.0811 125.096 86.032 124.995C85.983 124.893 85.8773 124.842 85.7151 124.842C85.6169 124.842 85.5377 124.873 85.4773 124.933C85.4169 124.993 85.3728 125.092 85.3441 125.228C85.3158 125.366 85.3018 125.549 85.3018 125.778V126.325C85.3547 126.238 85.435 126.17 85.5422 126.119C85.6498 126.068 85.7754 126.043 85.9185 126.043C86.1675 126.039 86.3638 126.094 86.5072 126.206C86.6506 126.319 86.7532 126.475 86.8155 126.674C86.8777 126.873 86.9087 127.101 86.9087 127.356C86.9087 127.653 86.8709 127.919 86.7955 128.154C86.72 128.388 86.5955 128.573 86.4219 128.709C86.249 128.844 86.0132 128.912 85.7151 128.912ZM85.7207 128.309C85.8301 128.309 85.9132 128.275 85.9698 128.207C86.0264 128.14 86.066 128.046 86.0886 127.925C86.1113 127.805 86.1226 127.664 86.1226 127.503C86.1226 127.337 86.1158 127.19 86.103 127.06C86.0898 126.931 86.0547 126.827 85.9981 126.75C85.9415 126.674 85.8471 126.635 85.7151 126.635C85.6509 126.635 85.5913 126.647 85.5369 126.671C85.4822 126.696 85.435 126.727 85.3954 126.764C85.3558 126.802 85.3245 126.84 85.3022 126.877V127.593C85.3022 127.721 85.3143 127.839 85.3388 127.948C85.3633 128.057 85.4067 128.144 85.469 128.21C85.5313 128.276 85.615 128.309 85.7207 128.309Z" fill="#263238"/>
<path id="Vector_38" d="M41.9985 136.941L42.9098 132.973H41.6702V132.375H43.6797V132.854L42.757 136.94H41.9985V136.941Z" fill="#263238"/>
<path id="Vector_39" d="M64.7781 137.003C64.4872 137.003 64.2536 136.944 64.0762 136.828C63.8988 136.711 63.7724 136.549 63.697 136.34C63.6215 136.132 63.5837 135.89 63.5837 135.616C63.5837 135.484 63.5958 135.363 63.6203 135.252C63.6449 135.142 63.6807 135.041 63.7279 134.951C63.7751 134.861 63.8324 134.781 63.9007 134.711C63.9687 134.641 64.046 134.584 64.1328 134.539C63.997 134.445 63.8826 134.316 63.7902 134.153C63.6977 133.99 63.6494 133.782 63.646 133.53C63.646 133.282 63.6864 133.067 63.7675 132.885C63.8487 132.703 63.9739 132.564 64.1441 132.468C64.314 132.372 64.5253 132.324 64.7781 132.324C65.0347 132.324 65.2461 132.373 65.4121 132.471C65.5782 132.569 65.7019 132.708 65.7827 132.888C65.8638 133.068 65.9023 133.282 65.8989 133.53C65.8952 133.786 65.8487 133.994 65.7604 134.156C65.6717 134.318 65.5593 134.446 65.4234 134.54C65.5102 134.585 65.5876 134.642 65.6555 134.711C65.7234 134.781 65.7808 134.861 65.828 134.951C65.8751 135.041 65.911 135.142 65.9355 135.253C65.9601 135.364 65.9725 135.485 65.9725 135.616C65.9763 135.89 65.9393 136.132 65.8619 136.341C65.7846 136.549 65.6582 136.712 65.4827 136.828C65.3076 136.944 65.0725 137.003 64.7781 137.003ZM64.7781 136.411C64.9027 136.411 64.9959 136.373 65.0581 136.298C65.1204 136.223 65.1608 136.128 65.18 136.013C65.1989 135.899 65.2083 135.781 65.2083 135.661C65.2121 135.533 65.2027 135.41 65.18 135.292C65.1574 135.174 65.1147 135.077 65.0529 135.002C64.9906 134.927 64.8989 134.889 64.7781 134.889C64.6611 134.889 64.5713 134.927 64.5091 135.002C64.4468 135.077 64.4034 135.173 64.3789 135.29C64.3543 135.406 64.3419 135.53 64.3419 135.661C64.3419 135.781 64.3521 135.9 64.3728 136.016C64.3936 136.133 64.4362 136.228 64.5 136.301C64.5649 136.374 64.6574 136.411 64.7781 136.411ZM64.7781 134.23C64.8725 134.226 64.9468 134.193 65.0015 134.131C65.0562 134.069 65.0951 133.983 65.1178 133.874C65.1404 133.765 65.1517 133.641 65.1517 133.502C65.1517 133.33 65.1234 133.189 65.0668 133.079C65.0102 132.971 64.914 132.916 64.7781 132.916C64.6457 132.916 64.5487 132.971 64.4868 133.079C64.4245 133.189 64.3932 133.327 64.3932 133.497C64.3932 133.636 64.4053 133.761 64.4298 133.871C64.4543 133.982 64.4951 134.068 64.5517 134.131C64.6083 134.193 64.6838 134.226 64.7781 134.23Z" fill="#263238"/>
<path id="Vector_40" d="M64.7784 144.935C64.5104 144.935 64.2889 144.879 64.1134 144.766C63.938 144.653 63.8059 144.498 63.7172 144.299C63.6285 144.099 63.584 143.87 63.584 143.611V141.587C63.584 141.321 63.6266 141.087 63.7115 140.886C63.7965 140.685 63.9266 140.528 64.1021 140.415C64.2776 140.302 64.5033 140.246 64.7784 140.246C65.0539 140.246 65.2795 140.302 65.4546 140.415C65.6301 140.528 65.7603 140.685 65.8452 140.886C65.9301 141.087 65.9724 141.321 65.9724 141.587V143.611C65.9724 143.87 65.9279 144.099 65.8392 144.299C65.7505 144.498 65.6184 144.653 65.4429 144.766C65.2682 144.879 65.0463 144.935 64.7784 144.935ZM64.7784 144.264C64.8954 144.264 64.9822 144.229 65.0388 144.158C65.0954 144.086 65.1331 144 65.152 143.898C65.1708 143.797 65.1803 143.697 65.1803 143.6V141.599C65.1803 141.494 65.1716 141.389 65.155 141.286C65.138 141.183 65.101 141.095 65.0448 141.024C64.9882 140.953 64.8995 140.917 64.7787 140.917C64.658 140.917 64.5693 140.953 64.5127 141.024C64.4561 141.095 64.4195 141.183 64.4025 141.286C64.3855 141.389 64.3772 141.494 64.3772 141.599V143.6C64.3772 143.697 64.3874 143.797 64.4085 143.898C64.4293 144 64.4682 144.086 64.5248 144.158C64.5803 144.229 64.6652 144.264 64.7784 144.264Z" fill="#263238"/>
<path id="Vector_41" d="M85.6356 137.004C85.3714 137.004 85.1544 136.959 84.9846 136.869C84.8148 136.779 84.6903 136.647 84.611 136.474C84.5318 136.302 84.4922 136.091 84.4922 135.843C84.4922 135.836 84.4922 135.826 84.4922 135.815C84.4922 135.804 84.4922 135.792 84.4922 135.781H85.2394C85.2394 135.984 85.2646 136.136 85.3156 136.238C85.3665 136.339 85.4748 136.39 85.6413 136.39C85.7431 136.39 85.8224 136.36 85.879 136.3C85.9356 136.24 85.9771 136.14 86.0035 136.001C86.0299 135.862 86.0432 135.68 86.0432 135.454V134.908C85.9903 134.994 85.9111 135.062 85.8054 135.11C85.6997 135.159 85.5733 135.186 85.4261 135.189C85.1809 135.193 84.9854 135.136 84.8401 135.018C84.6948 134.899 84.591 134.738 84.5288 134.536C84.4665 134.333 84.4355 134.104 84.4355 133.848C84.4355 133.547 84.4752 133.284 84.5544 133.056C84.6337 132.829 84.762 132.65 84.9393 132.521C85.1167 132.391 85.3488 132.326 85.6356 132.326C85.9186 132.326 86.1488 132.389 86.3262 132.515C86.5036 132.641 86.633 132.815 86.7138 133.037C86.7949 133.258 86.8356 133.512 86.8356 133.797V135.415C86.8356 135.712 86.8005 135.981 86.7307 136.221C86.6609 136.462 86.5402 136.652 86.3685 136.793C86.1971 136.934 85.9526 137.004 85.6356 137.004ZM85.6413 134.598C85.7469 134.598 85.8307 134.572 85.8933 134.519C85.9556 134.466 86.0054 134.41 86.0432 134.35V133.639C86.0432 133.508 86.0318 133.389 86.0092 133.282C85.9866 133.175 85.9458 133.088 85.8873 133.022C85.8288 132.957 85.745 132.924 85.6352 132.924C85.5296 132.924 85.4477 132.957 85.3892 133.025C85.3307 133.093 85.2899 133.187 85.2673 133.307C85.2446 133.427 85.2333 133.568 85.2333 133.73C85.2333 133.891 85.2401 134.038 85.2533 134.169C85.2665 134.301 85.3016 134.405 85.3578 134.482C85.4148 134.559 85.5092 134.598 85.6413 134.598Z" fill="#263238"/>
<path id="Vector_42" d="M59.6111 99.2539V94.689H61.5357V95.2751H60.4489V96.5884H61.3036V97.1689H60.4489V98.6794H61.547V99.2539H59.6111Z" fill="#A1FF00"/>
<path id="Vector_43" d="M62.0371 99.2539V94.689H62.6201L63.7353 97.2929V94.689H64.4259V99.2539H63.8711L62.7503 96.526V99.2539H62.0371Z" fill="#A1FF00"/>
<path id="Vector_44" d="M65.5769 99.2524V95.3014H64.8467V94.687H67.1336V95.3014H66.4147V99.2524H65.5769Z" fill="#A1FF00"/>
<path id="Vector_45" d="M67.5527 99.2539V94.689H69.4773V95.2751H68.3905V96.5884H69.2453V97.1689H68.3905V98.6794H69.4887V99.2539H67.5527Z" fill="#A1FF00"/>
<path id="Vector_46" d="M69.9763 99.2539V94.689H71.0745C71.3839 94.689 71.6451 94.7254 71.8583 94.7987C72.0715 94.872 72.2338 94.9967 72.3451 95.1737C72.4564 95.3503 72.5119 95.5904 72.5119 95.8951C72.5119 96.0792 72.4949 96.2446 72.4609 96.3907C72.427 96.5376 72.3692 96.6624 72.2881 96.7657C72.207 96.8691 72.0945 96.9487 71.9511 97.0055L72.5908 99.2539H71.753L71.1983 97.1633H70.8133V99.2539H69.9763ZM70.8141 96.6387H71.0748C71.2371 96.6387 71.3662 96.615 71.4624 96.5681C71.5586 96.5211 71.6277 96.4463 71.6688 96.3426C71.7103 96.2393 71.7311 96.1067 71.7311 95.9451C71.7311 95.7159 71.6888 95.5442 71.6039 95.4292C71.519 95.3146 71.3579 95.2575 71.1198 95.2575H70.8141V96.6387Z" fill="#A1FF00"/>
<path id="Vector_47" d="M48.2982 33.44L47.4985 29.4834H48.1412L48.6661 32.2823L49.1567 29.4834H49.8141L49.0144 33.44H48.2982Z" fill="#263238"/>
<path id="Vector_48" d="M50.2219 33.44V29.4834H51.8899V29.9914H50.948V31.1295H51.6888V31.6327H50.948V32.9418H51.9001V33.44H50.2219Z" fill="#263238"/>
<path id="Vector_49" d="M52.322 33.44V29.4834H53.2738C53.5417 29.4834 53.7685 29.5153 53.953 29.5788C54.1379 29.6423 54.2783 29.7506 54.3749 29.9035C54.4715 30.0568 54.5198 30.265 54.5198 30.5287C54.5198 30.6884 54.5051 30.8316 54.4757 30.9586C54.4463 31.0856 54.3964 31.1938 54.3262 31.2836C54.2561 31.373 54.1587 31.4422 54.0345 31.491L54.5889 33.44H53.8628L53.3821 31.6278H53.0485V33.44H52.322ZM53.0481 31.1735H53.2741C53.4145 31.1735 53.5266 31.1532 53.61 31.1126C53.6938 31.0721 53.7534 31.0067 53.7892 30.9173C53.8255 30.8278 53.8436 30.7128 53.8436 30.5727C53.8436 30.3739 53.8066 30.2251 53.733 30.1259C53.6598 30.0264 53.5194 29.9771 53.3138 29.9771H53.0488V31.1735H53.0481Z" fill="#263238"/>
<path id="Vector_50" d="M55.0833 33.44V29.4834H55.7995V33.44H55.0833Z" fill="#263238"/>
<path id="Vector_51" d="M56.4119 33.44V29.4834H58.0455V29.9816H57.1379V31.1344H57.8787V31.6376H57.1379V33.44H56.4119Z" fill="#263238"/>
<path id="Vector_52" d="M58.4412 33.44V29.4834H59.1574V33.44H58.4412Z" fill="#263238"/>
<path id="Vector_53" d="M60.8411 33.4943C60.5502 33.4943 60.3219 33.4375 60.1566 33.3233C59.9913 33.2094 59.8762 33.0539 59.8109 32.8566C59.7452 32.6597 59.7124 32.4328 59.7124 32.1754V30.7637C59.7124 30.4935 59.7452 30.2591 59.8109 30.0603C59.8762 29.8619 59.9917 29.7086 60.1566 29.6011C60.3219 29.4937 60.5498 29.4399 60.8411 29.4399C61.1162 29.4399 61.331 29.4865 61.4864 29.5793C61.6415 29.6722 61.7521 29.8048 61.8174 29.9776C61.8831 30.1501 61.9155 30.3504 61.9155 30.5785V30.9106H61.2189V30.5687C61.2189 30.4578 61.2128 30.3571 61.2015 30.2658C61.1902 30.1749 61.1592 30.102 61.1087 30.0487C61.0577 29.9949 60.9706 29.9679 60.846 29.9679C60.7219 29.9679 60.6313 29.9964 60.5739 30.0535C60.5166 30.1106 60.4796 30.1869 60.4634 30.2831C60.4471 30.3789 60.4388 30.4875 60.4388 30.6078V32.3272C60.4388 32.4703 60.4502 32.5883 60.4736 32.6811C60.4966 32.7739 60.5381 32.8442 60.5985 32.8912C60.6588 32.9381 60.7415 32.9618 60.846 32.9618C60.9672 32.9618 61.0532 32.9333 61.1038 32.8762C61.1547 32.8194 61.1864 32.7435 61.1996 32.6492C61.2125 32.5545 61.2192 32.4489 61.2192 32.3317V31.9751H61.9159V32.2926C61.9159 32.5271 61.8849 32.7349 61.8227 32.9156C61.7608 33.0963 61.6521 33.238 61.4966 33.3406C61.3408 33.4428 61.1223 33.4943 60.8411 33.4943Z" fill="#263238"/>
<path id="Vector_54" d="M62.218 33.44L63.0128 29.4834H63.7879L64.5826 33.44H63.9105L63.7535 32.5266H63.0618L62.8999 33.44H62.218ZM63.1358 32.0674H63.6754L63.4056 30.4066L63.1358 32.0674Z" fill="#263238"/>
<path id="Vector_55" d="M65.1934 33.44V30.0158H64.5605V29.4834H66.5425V30.0158H65.9195V33.44H65.1934Z" fill="#263238"/>
<path id="Vector_56" d="M66.9246 33.44V29.4834H67.6408V33.44H66.9246Z" fill="#263238"/>
<path id="Vector_57" d="M69.3342 33.4946C69.0527 33.4946 68.8289 33.4424 68.6621 33.3383C68.4953 33.2342 68.3757 33.0843 68.304 32.8889C68.2323 32.6935 68.196 32.4625 68.196 32.1953V30.7152C68.196 30.4484 68.2323 30.2192 68.304 30.0287C68.3757 29.8382 68.4953 29.6924 68.6621 29.5914C68.8289 29.4903 69.0527 29.4399 69.3342 29.4399C69.6221 29.4399 69.8482 29.4903 70.0135 29.5914C70.1788 29.6924 70.298 29.8382 70.3716 30.0287C70.4452 30.2192 70.4822 30.4481 70.4822 30.7152V32.2002C70.4822 32.464 70.4452 32.6928 70.3716 32.8863C70.298 33.0802 70.1784 33.2301 70.0135 33.3357C69.8482 33.4417 69.6218 33.4946 69.3342 33.4946ZM69.3342 32.9622C69.455 32.9622 69.5444 32.9363 69.6014 32.884C69.6584 32.8318 69.6972 32.7604 69.7169 32.6691C69.7365 32.5782 69.7463 32.4786 69.7463 32.3711V30.5491C69.7463 30.4383 69.7365 30.3391 69.7169 30.2512C69.6972 30.1633 69.6587 30.0941 69.6014 30.0434C69.5444 29.993 69.455 29.9675 69.3342 29.9675C69.2195 29.9675 69.1331 29.9927 69.0742 30.0434C69.0153 30.0937 68.9761 30.1629 68.9568 30.2512C68.9368 30.3391 68.9274 30.4383 68.9274 30.5491V32.3711C68.9274 32.4786 68.9361 32.5782 68.9542 32.6691C68.9723 32.7604 69.0108 32.8322 69.0697 32.884C69.1282 32.9363 69.2161 32.9622 69.3342 32.9622Z" fill="#263238"/>
<path id="Vector_58" d="M71.0164 33.44V29.4834H71.5217L72.4881 31.7401V29.4834H73.0866V33.44H72.6058L71.6345 31.0758V33.44H71.0164Z" fill="#263238"/>
<path id="Vector_59" d="M75.9504 33.4943C75.6594 33.4943 75.4311 33.4375 75.2662 33.3233C75.1009 33.2094 74.9858 33.0539 74.9205 32.8566C74.8549 32.6597 74.822 32.4328 74.822 32.1754V30.7637C74.822 30.4935 74.8549 30.2591 74.9205 30.0603C74.9858 29.8619 75.1013 29.7086 75.2662 29.6011C75.4315 29.4937 75.6594 29.4399 75.9504 29.4399C76.2255 29.4399 76.4402 29.4865 76.5957 29.5793C76.7508 29.6722 76.8613 29.8048 76.9266 29.9776C76.9923 30.1501 77.0247 30.3504 77.0247 30.5785V30.9106H76.3281V30.5687C76.3281 30.4578 76.3221 30.3571 76.3108 30.2658C76.2994 30.1749 76.2685 30.102 76.2179 30.0487C76.167 29.9949 76.0798 29.9679 75.9553 29.9679C75.8311 29.9679 75.7406 29.9964 75.6832 30.0535C75.6258 30.1106 75.5888 30.1869 75.5726 30.2831C75.5564 30.3789 75.5481 30.4875 75.5481 30.6078V32.3272C75.5481 32.4703 75.5594 32.5883 75.5828 32.6811C75.6058 32.7739 75.6473 32.8442 75.7077 32.8912C75.7681 32.9381 75.8507 32.9618 75.9553 32.9618C76.0764 32.9618 76.1625 32.9333 76.213 32.8762C76.264 32.8194 76.2957 32.7435 76.3089 32.6492C76.3217 32.5545 76.3285 32.4489 76.3285 32.3317V31.9751H77.0251V32.2926C77.0251 32.5271 76.9942 32.7349 76.9319 32.9156C76.87 33.0963 76.7613 33.238 76.6059 33.3406C76.45 33.4428 76.2315 33.4943 75.9504 33.4943Z" fill="#263238"/>
<path id="Vector_60" d="M78.6133 33.4946C78.3317 33.4946 78.108 33.4424 77.9412 33.3383C77.7744 33.2342 77.6547 33.0843 77.583 32.8889C77.5113 32.6935 77.4751 32.4625 77.4751 32.1953V30.7152C77.4751 30.4484 77.5113 30.2192 77.583 30.0287C77.6547 29.8382 77.7744 29.6924 77.9412 29.5914C78.108 29.4903 78.3317 29.4399 78.6133 29.4399C78.9012 29.4399 79.1272 29.4903 79.2925 29.5914C79.4574 29.6924 79.5771 29.8382 79.6507 30.0287C79.7242 30.2192 79.7612 30.4481 79.7612 30.7152V32.2002C79.7612 32.464 79.7242 32.6928 79.6507 32.8863C79.5771 33.0802 79.4574 33.2301 79.2925 33.3357C79.1272 33.4417 78.9008 33.4946 78.6133 33.4946ZM78.6133 32.9622C78.734 32.9622 78.8234 32.9363 78.8804 32.884C78.9374 32.8318 78.9763 32.7604 78.9959 32.6691C79.0155 32.5782 79.0253 32.4786 79.0253 32.3711V30.5491C79.0253 30.4383 79.0155 30.3391 78.9959 30.2512C78.9763 30.1633 78.9378 30.0941 78.8804 30.0434C78.8234 29.993 78.734 29.9675 78.6133 29.9675C78.4985 29.9675 78.4121 29.9927 78.3532 30.0434C78.2944 30.0937 78.2551 30.1629 78.2355 30.2512C78.2155 30.3391 78.2061 30.4383 78.2061 30.5491V32.3711C78.2061 32.4786 78.2147 32.5782 78.2329 32.6691C78.251 32.7604 78.2895 32.8322 78.3483 32.884C78.4072 32.9363 78.4951 32.9622 78.6133 32.9622Z" fill="#263238"/>
<path id="Vector_61" d="M80.2935 33.44V29.4834H81.2305C81.5539 29.4834 81.8067 29.5274 81.9882 29.6153C82.1697 29.7032 82.2988 29.8385 82.3758 30.0207C82.4524 30.203 82.4913 30.4344 82.4913 30.7143V32.1602C82.4913 32.4469 82.4524 32.6851 82.3758 32.8756C82.2988 33.0662 82.1713 33.2078 81.9931 33.3006C81.8146 33.3934 81.5705 33.44 81.2595 33.44H80.2935ZM81.0195 32.9369H81.2403C81.4071 32.9369 81.5267 32.9076 81.5984 32.849C81.6701 32.7904 81.7146 32.7051 81.7309 32.5927C81.7475 32.4804 81.7554 32.3428 81.7554 32.1798V30.6655C81.7554 30.5058 81.7441 30.3773 81.7211 30.2796C81.698 30.1819 81.6505 30.1105 81.5788 30.0647C81.5067 30.0188 81.3905 29.9963 81.2305 29.9963H81.0191V32.9369H81.0195Z" fill="#263238"/>
<path id="Vector_62" d="M83.0256 33.44V29.4834H84.6936V29.9914H83.7517V31.1295H84.4925V31.6327H83.7517V32.9418H84.7038V33.44H83.0256Z" fill="#263238"/>
</g>
</g>
</g>
</g>
<g id="Vector_63">
<path d="M36.1259 8.412V2.09953C36.1259 1.80805 36.1291 1.51578 36.1259 1.2243C36.1259 1.22036 36.1259 1.21564 36.1259 1.2117C36.1259 0.901314 35.9904 0.574386 35.7714 0.355383C35.5611 0.145046 35.2168 -0.0132974 34.9151 0.000882662C34.6016 0.0150627 34.277 0.117474 34.0588 0.355383C33.8414 0.592505 33.7043 0.883983 33.7043 1.2117V7.52417C33.7043 7.81565 33.7011 8.10792 33.7043 8.3994C33.7043 8.40334 33.7043 8.40806 33.7043 8.412C33.7043 8.72239 33.8398 9.04931 34.0588 9.26832C34.2778 9.48732 34.6134 9.637 34.9151 9.62282C35.2286 9.60864 35.5532 9.50623 35.7714 9.26832C35.9889 9.03119 36.1259 8.73972 36.1259 8.412Z" fill="#A1FF00"/>
<path d="M28.6337 9.76365C28.5148 9.55725 28.3958 9.35085 28.2769 9.14524C27.9893 8.64736 27.7018 8.1487 27.4142 7.65082C27.0676 7.05053 26.7218 6.45103 26.3752 5.85075C26.0758 5.3316 25.7765 4.81324 25.4763 4.29409C25.3306 4.04122 25.1872 3.78676 25.0383 3.53546C25.0359 3.53152 25.0344 3.52837 25.032 3.52443C24.88 3.26132 24.6003 3.04783 24.308 2.96747C24.0181 2.88791 23.6321 2.92336 23.3745 3.08958C23.1161 3.25659 22.8885 3.50474 22.8176 3.81355C22.7451 4.1326 22.7734 4.45874 22.9397 4.74707C23.0586 4.95347 23.1776 5.15986 23.2965 5.36547C23.5841 5.86335 23.8716 6.36201 24.1591 6.85989C24.5058 7.46018 24.8516 8.05968 25.1982 8.65997C25.4976 9.17911 25.7969 9.69747 26.0971 10.2166C26.2428 10.4695 26.3862 10.7239 26.5351 10.9753C26.5374 10.9792 26.539 10.9823 26.5414 10.9863C26.6934 11.2494 26.9731 11.4629 27.2654 11.5432C27.5553 11.6228 27.9413 11.5874 28.1989 11.4211C28.4573 11.2541 28.6849 11.006 28.7558 10.6972C28.8283 10.3781 28.7999 10.052 28.6337 9.76365Z" fill="#A1FF00"/>
<path d="M22.8332 14.6933C22.6268 14.5743 22.4212 14.4554 22.2148 14.3364C21.7169 14.0489 21.2183 13.7613 20.7204 13.4738C20.1201 13.1272 19.5206 12.7814 18.9203 12.4347C18.4012 12.1354 17.8828 11.836 17.3637 11.5359C17.1108 11.3901 16.8595 11.2412 16.605 11.0979C16.6011 11.0955 16.5979 11.0939 16.594 11.0916C16.3207 10.934 15.9654 10.8852 15.6605 10.9695C15.3793 11.0467 15.0752 11.2641 14.9365 11.5264C14.7876 11.8077 14.7136 12.148 14.8144 12.4599C14.9113 12.7593 15.0933 13.0232 15.3714 13.1839L15.9898 13.5408C16.4877 13.8283 16.9863 14.1159 17.4842 14.4034C18.0845 14.75 18.684 15.0958 19.2843 15.4425C19.8034 15.7418 20.3218 16.0412 20.8409 16.3413C21.0938 16.4871 21.3451 16.636 21.5996 16.7793C21.6035 16.7817 21.6067 16.7833 21.6106 16.7856C21.8839 16.9432 22.2392 16.992 22.5441 16.9077C22.8253 16.8305 23.1294 16.6131 23.2681 16.3508C23.417 16.0695 23.491 15.7292 23.3902 15.4173C23.2933 15.1179 23.1113 14.854 22.8332 14.6933Z" fill="#A1FF00"/>
<path d="M20.2582 21.8545H13.9458C13.6543 21.8545 13.362 21.8514 13.0705 21.8545C13.0666 21.8545 13.0619 21.8545 13.0579 21.8545C12.7476 21.8545 12.4206 21.99 12.2016 22.209C11.9826 22.428 11.8329 22.7636 11.8471 23.0653C11.8613 23.3789 11.9637 23.7034 12.2016 23.9216C12.4387 24.1391 12.7302 24.2761 13.0579 24.2761H19.3704C19.6619 24.2761 19.9542 24.2793 20.2456 24.2761C20.2496 24.2761 20.2543 24.2761 20.2582 24.2761C20.5686 24.2761 20.8956 24.1406 21.1146 23.9216C21.3249 23.7113 21.4832 23.3671 21.4691 23.0653C21.4549 22.7518 21.3525 22.4272 21.1146 22.209C20.8774 21.9916 20.586 21.8545 20.2582 21.8545Z" fill="#A1FF00"/>
</g>
</g>
</svg>
