<svg width="200" height="197" viewBox="0 0 200 197" fill="none" xmlns="http://www.w3.org/2000/svg">
<rect opacity="0.1" y="13" width="183.406" height="183.766" rx="45" fill="white"/>
<path d="M71.9922 127C65.3963 127 59.2056 124.077 55.0071 118.982C50.8098 113.889 49.1389 107.186 50.423 100.591C52.0712 92.1271 58.2681 85.6341 66.5955 83.6457C68.3842 83.2186 70.1982 83.002 71.9869 83.002C79.5135 83.002 86.5599 86.9189 90.5744 93.2783H92.3631C94.1716 93.2783 95.6428 94.7495 95.6428 96.558C95.6428 96.7892 95.8296 96.976 96.0591 96.976H126.819C127.344 96.976 127.826 97.2626 128.077 97.7231L131.666 104.316C131.898 104.743 131.898 105.258 131.666 105.685L128.076 112.278C127.826 112.738 127.344 113.025 126.819 113.025H124.873C124.424 113.025 124.001 112.814 123.731 112.456L121.577 109.603L119.423 112.456C119.152 112.814 118.729 113.025 118.28 113.025H116.453C115.957 113.025 115.496 112.768 115.235 112.347L113.156 108.986L111.077 112.347C110.816 112.768 110.356 113.025 109.86 113.025H108.032C107.583 113.025 107.161 112.814 106.89 112.456L104.736 109.603L102.582 112.456C102.311 112.814 101.888 113.025 101.439 113.025H95.6428V113.443C95.6428 115.252 94.1716 116.723 92.3631 116.723H90.5324C86.51 123.082 79.4816 127 71.9922 127ZM71.9867 85.8651C70.4215 85.8651 68.8313 86.0552 67.2602 86.4305C60.0385 88.1548 54.6637 93.7906 53.2331 101.139C52.1132 106.89 53.565 112.73 57.2162 117.162C60.869 121.594 66.2545 124.137 71.9919 124.137C78.7407 124.137 85.0617 120.472 88.4886 114.572C88.7449 114.131 89.2166 113.86 89.7264 113.86H92.3629C92.5927 113.86 92.7795 113.673 92.7795 113.443V111.594C92.7795 110.803 93.4206 110.162 94.211 110.162H100.726L103.594 106.365C103.864 106.007 104.287 105.796 104.736 105.796C105.185 105.796 105.608 106.007 105.878 106.365L108.746 110.162H109.062L111.939 105.513C112.2 105.091 112.66 104.835 113.156 104.835C113.652 104.835 114.113 105.091 114.374 105.513L117.251 110.162H117.568L120.435 106.365C120.705 106.007 121.128 105.797 121.577 105.797C122.026 105.797 122.449 106.007 122.72 106.365L125.587 110.162H125.969L128.779 105.001L125.969 99.8396H96.0591C94.2509 99.8396 92.7797 98.3684 92.7797 96.5599C92.7797 96.3287 92.5929 96.1419 92.3631 96.1419H89.7677C89.2569 96.1419 88.785 95.8699 88.5292 95.428C85.1118 89.5291 78.7732 85.8651 71.9867 85.8651ZM62.9624 111.371C59.4499 111.371 56.5925 108.513 56.5925 105.001C56.5925 101.488 59.4501 98.6304 62.9624 98.6304C66.4747 98.6304 69.3326 101.488 69.3326 105.001C69.3326 108.513 66.475 111.371 62.9624 111.371ZM62.9624 101.494C61.0289 101.494 59.4556 103.067 59.4556 105.001C59.4556 106.934 61.0289 108.508 62.9624 108.508C64.8962 108.508 66.4695 106.934 66.4695 105.001C66.4695 103.067 64.8962 101.494 62.9624 101.494Z" fill="#A1FF00"/>
<path d="M96.4589 130.757C95.6684 130.757 95.0273 130.116 95.0273 129.326V122.432C95.0273 121.642 95.6684 121 96.4589 121C97.2493 121 97.8904 121.642 97.8904 122.432V129.326C97.8904 130.116 97.2496 130.757 96.4589 130.757Z" fill="white"/>
<path d="M96.4611 138.84C93.4434 138.84 90.9883 136.385 90.9883 133.367C90.9883 130.349 93.4434 127.894 96.4611 127.894C99.4788 127.894 101.934 130.349 101.934 133.367C101.934 136.385 99.479 138.84 96.4611 138.84ZM96.4611 130.757C95.0221 130.757 93.8514 131.928 93.8514 133.367C93.8514 134.806 95.0221 135.977 96.4611 135.977C97.9003 135.977 99.071 134.806 99.071 133.367C99.0713 131.928 97.9003 130.757 96.4611 130.757Z" fill="white"/>
<path d="M111.275 136.917C110.485 136.917 109.844 136.276 109.844 135.485V118.482C109.844 117.691 110.485 117.05 111.275 117.05C112.066 117.05 112.707 117.691 112.707 118.482V135.485C112.707 136.276 112.066 136.917 111.275 136.917Z" fill="white"/>
<path d="M111.274 145C108.256 145 105.801 142.545 105.801 139.527C105.801 136.509 108.256 134.054 111.274 134.054C114.292 134.054 116.747 136.509 116.747 139.527C116.747 142.545 114.292 145 111.274 145ZM111.274 136.917C109.835 136.917 108.664 138.088 108.664 139.527C108.664 140.966 109.835 142.137 111.274 142.137C112.713 142.137 113.884 140.966 113.884 139.527C113.884 138.088 112.713 136.917 111.274 136.917Z" fill="white"/>
<path d="M126.088 130.756C125.297 130.756 124.656 130.115 124.656 129.325V118.482C124.656 117.691 125.297 117.05 126.088 117.05C126.878 117.05 127.519 117.691 127.519 118.482V129.325C127.519 130.115 126.878 130.756 126.088 130.756Z" fill="white"/>
<path d="M126.09 138.84C123.072 138.84 120.617 136.385 120.617 133.367C120.617 130.349 123.072 127.894 126.09 127.894C129.108 127.894 131.563 130.349 131.563 133.367C131.563 136.385 129.108 138.84 126.09 138.84ZM126.09 130.757C124.651 130.757 123.48 131.928 123.48 133.367C123.48 134.806 124.651 135.977 126.09 135.977C127.529 135.977 128.7 134.806 128.7 133.367C128.7 131.928 127.529 130.757 126.09 130.757Z" fill="white"/>
<path d="M126.088 92.95C125.297 92.95 124.656 92.3089 124.656 91.5185V80.6757C124.656 79.8852 125.297 79.2441 126.088 79.2441C126.878 79.2441 127.519 79.8852 127.519 80.6757V91.5185C127.519 92.3089 126.878 92.95 126.088 92.95Z" fill="white"/>
<path d="M126.09 82.106C123.072 82.106 120.617 79.6509 120.617 76.6332C120.617 73.6155 123.072 71.1602 126.09 71.1602C129.108 71.1602 131.563 73.6155 131.563 76.6332C131.563 79.6509 129.108 82.106 126.09 82.106ZM126.09 74.0233C124.651 74.0233 123.48 75.194 123.48 76.6332C123.48 78.0722 124.651 79.2429 126.09 79.2429C127.529 79.2429 128.7 78.0722 128.7 76.6332C128.7 75.194 127.529 74.0233 126.09 74.0233Z" fill="white"/>
<path d="M111.275 92.9489C110.485 92.9489 109.844 92.3078 109.844 91.5173V74.5141C109.844 73.7236 110.485 73.0825 111.275 73.0825C112.066 73.0825 112.707 73.7236 112.707 74.5141V91.5173C112.707 92.3078 112.066 92.9489 111.275 92.9489Z" fill="white"/>
<path d="M111.274 75.9459C108.256 75.9459 105.801 73.4908 105.801 70.4731C105.801 67.4553 108.256 65 111.274 65C114.292 65 116.747 67.4553 116.747 70.4731C116.747 73.4908 114.292 75.9459 111.274 75.9459ZM111.274 67.8629C109.835 67.8629 108.664 69.0336 108.664 70.4728C108.664 71.912 109.835 73.0825 111.274 73.0825C112.713 73.0825 113.884 71.9118 113.884 70.4728C113.884 69.0339 112.713 67.8629 111.274 67.8629Z" fill="white"/>
<path d="M96.4589 88.9992C95.6684 88.9992 95.0273 88.3581 95.0273 87.5676V80.6737C95.0273 79.8833 95.6684 79.2422 96.4589 79.2422C97.2493 79.2422 97.8904 79.8833 97.8904 80.6737V87.5676C97.8904 88.3581 97.2496 88.9992 96.4589 88.9992Z" fill="white"/>
<path d="M96.4611 82.106C93.4434 82.106 90.9883 79.6509 90.9883 76.6332C90.9883 73.6155 93.4434 71.1602 96.4611 71.1602C99.4788 71.1602 101.934 73.6155 101.934 76.6332C101.934 79.6509 99.479 82.106 96.4611 82.106ZM96.4611 74.0233C95.0221 74.0233 93.8514 75.194 93.8514 76.6332C93.8514 78.0722 95.0221 79.2429 96.4611 79.2429C97.9003 79.2429 99.071 78.0722 99.071 76.6332C99.0713 75.194 97.9003 74.0233 96.4611 74.0233Z" fill="white"/>
<ellipse cx="175.982" cy="24.0647" rx="24.0175" ry="24.0647" fill="#A1FF00"/>
<path d="M166.812 25.6272L172.113 30.6276L186.026 17.5015" stroke="#1A1A1A" stroke-width="4" stroke-linecap="round" stroke-linejoin="round"/>
</svg>
