<svg width="40" height="13" viewBox="0 0 40 13" fill="none" xmlns="http://www.w3.org/2000/svg">
<g id="Visa_Inc._logo" clip-path="url(#clip0_6885_11052)">
<g id="g4158">
<path id="polygon9" d="M17.3333 12.7592H14.093L16.1197 0.227539H19.3598L17.3333 12.7592Z" fill="#00579F"/>
<path id="path11" d="M29.0796 0.533521C28.4404 0.279961 27.4267 0 26.1733 0C22.9734 0 20.7201 1.70634 20.7063 4.1459C20.6797 5.9458 22.3196 6.94551 23.5461 7.54565C24.7997 8.15891 25.2259 8.55918 25.2259 9.10581C25.2131 9.94534 24.2129 10.3323 23.28 10.3323C21.9863 10.3323 21.2931 10.1328 20.2397 9.66574L19.813 9.46551L19.3596 12.2786C20.1196 12.6248 21.5197 12.9321 22.9734 12.9455C26.3733 12.9455 28.5868 11.2656 28.613 8.66585C28.626 7.23929 27.76 6.1462 25.8932 5.25299C24.7598 4.6796 24.0658 4.29297 24.0658 3.70629C24.0791 3.17295 24.6528 2.62667 25.9321 2.62667C26.9855 2.59991 27.7595 2.85312 28.3458 3.1065L28.6389 3.23957L29.0796 0.533521Z" fill="#00579F"/>
<path id="path13" d="M33.3863 8.31965C33.6531 7.59972 34.68 4.8134 34.68 4.8134C34.6665 4.84016 34.9463 4.08019 35.1063 3.61365L35.3327 4.69345C35.3327 4.69345 35.9463 7.6931 36.0796 8.31965C35.5732 8.31965 34.0263 8.31965 33.3863 8.31965ZM37.386 0.227539H34.8797C34.1067 0.227539 33.5195 0.453988 33.1861 1.26729L28.373 12.759H31.773C31.773 12.759 32.3327 11.2123 32.453 10.8792C32.826 10.8792 36.1335 10.8792 36.6133 10.8792C36.7063 11.3191 36.9999 12.759 36.9999 12.759H40.0001L37.386 0.227539Z" fill="#00579F"/>
<path id="path15" d="M11.3867 0.227539L8.21338 8.7729L7.86662 7.0398C7.27994 5.04003 5.44 2.86732 3.38672 1.78699L6.29335 12.7459H9.71986L14.813 0.227539H11.3867Z" fill="#00579F"/>
<path id="path17" d="M5.26663 0.227539H0.0533341L0 0.480744C4.0667 1.52067 6.75999 4.02739 7.86654 7.04033L6.73323 1.28094C6.54665 0.480567 5.97326 0.25394 5.26663 0.227539Z" fill="#FAA61A"/>
</g>
</g>
<defs>
<clipPath id="clip0_6885_11052">
<rect width="40" height="12.9455" fill="white"/>
</clipPath>
</defs>
</svg>
