<svg width="70" height="70" viewBox="0 0 70 70" fill="none" xmlns="http://www.w3.org/2000/svg">
<path d="M2.60322 22.0163C2.50889 22.0163 2.41593 22.0122 2.32023 22.0012C0.892996 21.8468 -0.137787 20.5671 0.0166935 19.1412C0.183478 17.6046 0.38444 16.1322 0.633249 14.6393L0.637351 14.6134C1.83492 7.84205 7.846 1.83496 14.6226 0.635997L14.6486 0.631895C16.1428 0.383081 17.6166 0.180748 19.1532 0.0153271C20.5804 -0.139157 21.8614 0.891647 22.0158 2.31755C22.1703 3.74208 21.1382 5.02306 19.7123 5.17755C18.2796 5.3334 16.907 5.52069 15.514 5.75174C13.2815 6.14957 11.045 7.37587 9.21308 9.20643C7.38119 11.0384 6.15491 13.2736 5.75709 15.5034C5.52605 16.8937 5.33876 18.2663 5.18291 19.699C5.038 21.0292 3.91289 22.0163 2.60322 22.0163Z" fill="#A1FF00"/>
<path d="M69.3656 14.6637C69.6144 16.1566 69.8154 17.6304 69.9822 19.1656L69.9849 19.1684C70.138 20.5929 69.1073 21.8739 67.6814 22.0284C67.5857 22.0379 67.4914 22.0434 67.3984 22.0434C66.0887 22.0434 64.9623 21.0563 64.8187 19.7261C64.6629 18.2934 64.4756 16.9208 64.2445 15.5305C63.8481 13.3007 62.6204 11.0641 60.7885 9.23354C58.9566 7.40297 56.7187 6.17667 54.4876 5.77884C53.0932 5.5478 51.7207 5.35914 50.2893 5.20465C48.8621 5.05017 47.8313 3.77055 47.9858 2.34465C48.1403 0.918753 49.4212 -0.110684 50.8485 0.0424331C52.3823 0.209221 53.856 0.410187 55.353 0.659001L55.379 0.663103C62.1529 1.85933 68.164 7.86779 69.3615 14.6377L69.3656 14.6637Z" fill="#A1FF00"/>
<path d="M69.3656 55.3609C69.6145 53.8681 69.8154 52.3943 69.9822 50.859C70.1367 49.4331 69.1059 48.1535 67.6787 47.999C66.2542 47.8446 64.9705 48.8754 64.816 50.3013C64.6615 51.734 64.4728 53.1066 64.2418 54.4969C63.844 56.7267 62.6177 58.9619 60.7858 60.7939C58.9539 62.6244 56.716 63.8521 54.4849 64.2486C53.0946 64.4796 51.722 64.6669 50.288 64.8227C48.8621 64.9772 47.8313 66.2582 47.9858 67.6827C48.1293 69.0129 49.2558 70 50.5655 70C50.6584 70 50.7528 69.9945 50.8485 69.985C52.3864 69.8182 53.8602 69.6172 55.353 69.3684L55.379 69.3643C62.1543 68.1681 68.1653 62.1596 69.3615 55.3897L69.3656 55.3637V55.3609Z" fill="#A1FF00"/>
<path d="M0.637334 55.3616L0.633232 55.3357L0.631865 55.3329C0.383056 53.84 0.182094 52.3676 0.0153094 50.831C-0.139171 49.4065 0.892979 48.1255 2.31885 47.971C3.74472 47.8165 5.02705 48.8473 5.18153 50.2732C5.33738 51.706 5.52467 53.0785 5.7557 54.4689C6.15216 56.6987 7.3798 58.9353 9.2117 60.7658C11.045 62.5964 13.2815 63.8227 15.5126 64.2205C16.9029 64.4516 18.2768 64.6389 19.7109 64.7947C21.1368 64.9492 22.1676 66.2288 22.0131 67.6547C21.8682 68.9863 20.7431 69.972 19.4334 69.972C19.3404 69.972 19.2461 69.9679 19.1504 69.9569C17.6124 69.7901 16.1387 69.5892 14.6459 69.3404L14.6199 69.3363C7.84598 68.14 1.8349 62.1316 0.637334 55.3616Z" fill="#A1FF00"/>
</svg>
