<svg width="72" height="72" viewBox="0 0 72 72" fill="none" xmlns="http://www.w3.org/2000/svg">
 
<path d="M2.75 18.5C1.784 18.5 1 17.716 1 16.75V9.75C1 4.92525 4.92525 1 9.75 1H16.75C17.716 1 18.5 1.784 18.5 2.75C18.5 3.716 17.716 4.5 16.75 4.5H9.75C6.8555 4.5 4.5 6.8555 4.5 9.75V16.75C4.5 17.716 3.716 18.5 2.75 18.5Z" fill="#A1FF00"/>
<path d="M69.25 18.5C68.284 18.5 67.5 17.716 67.5 16.75V9.75C67.5 6.8555 65.1445 4.5 62.25 4.5H55.25C54.284 4.5 53.5 3.716 53.5 2.75C53.5 1.784 54.284 1 55.25 1H62.25C67.0747 1 71 4.92525 71 9.75V16.75C71 17.716 70.216 18.5 69.25 18.5Z" fill="#A1FF00"/>
<path d="M62.25 71H55.25C54.284 71 53.5 70.216 53.5 69.25C53.5 68.284 54.284 67.5 55.25 67.5H62.25C65.1445 67.5 67.5 65.1445 67.5 62.25V55.25C67.5 54.284 68.284 53.5 69.25 53.5C70.216 53.5 71 54.284 71 55.25V62.25C71 67.0747 67.0747 71 62.25 71Z" fill="#A1FF00"/>
<path d="M16.75 71H9.75C4.92525 71 1 67.0747 1 62.25V55.25C1 54.284 1.784 53.5 2.75 53.5C3.716 53.5 4.5 54.284 4.5 55.25V62.25C4.5 65.1445 6.8555 67.5 9.75 67.5H16.75C17.716 67.5 18.5 68.284 18.5 69.25C18.5 70.216 17.716 71 16.75 71Z" fill="#A1FF00"/>
<path d="M2.75 18.5C1.784 18.5 1 17.716 1 16.75V9.75C1 4.92525 4.92525 1 9.75 1H16.75C17.716 1 18.5 1.784 18.5 2.75C18.5 3.716 17.716 4.5 16.75 4.5H9.75C6.8555 4.5 4.5 6.8555 4.5 9.75V16.75C4.5 17.716 3.716 18.5 2.75 18.5Z" stroke="#A1FF00" stroke-width="0.75" stroke-linejoin="round"/>
<path d="M69.25 18.5C68.284 18.5 67.5 17.716 67.5 16.75V9.75C67.5 6.8555 65.1445 4.5 62.25 4.5H55.25C54.284 4.5 53.5 3.716 53.5 2.75C53.5 1.784 54.284 1 55.25 1H62.25C67.0747 1 71 4.92525 71 9.75V16.75C71 17.716 70.216 18.5 69.25 18.5Z" stroke="#A1FF00" stroke-width="0.75" stroke-linejoin="round"/>
<path d="M62.25 71H55.25C54.284 71 53.5 70.216 53.5 69.25C53.5 68.284 54.284 67.5 55.25 67.5H62.25C65.1445 67.5 67.5 65.1445 67.5 62.25V55.25C67.5 54.284 68.284 53.5 69.25 53.5C70.216 53.5 71 54.284 71 55.25V62.25C71 67.0747 67.0747 71 62.25 71Z" stroke="#A1FF00" stroke-width="0.75" stroke-linejoin="round"/>
<path d="M16.75 71H9.75C4.92525 71 1 67.0747 1 62.25V55.25C1 54.284 1.784 53.5 2.75 53.5C3.716 53.5 4.5 54.284 4.5 55.25V62.25C4.5 65.1445 6.8555 67.5 9.75 67.5H16.75C17.716 67.5 18.5 68.284 18.5 69.25C18.5 70.216 17.716 71 16.75 71Z" stroke="#A1FF00" stroke-width="0.75" stroke-linejoin="round"/>

</svg>
