<svg width="524" height="431" viewBox="0 0 524 431" fill="none" xmlns="http://www.w3.org/2000/svg">
<rect opacity="0.2" width="524" height="431" rx="30" fill="black"/>
<path d="M31.675 116.325V105.55H35.175V116.35C35.175 118.75 36.475 120 38.7 120C40.95 120 42.25 118.75 42.25 116.35V105.55H45.775V116.325C45.775 120.925 42.475 123.175 38.65 123.175C34.825 123.175 31.675 120.925 31.675 116.325ZM59.9066 119.05C59.9066 121.425 57.8316 123.225 54.4566 123.225C50.9816 123.225 48.5566 121.2 48.4066 118.625H51.9316C52.0566 119.675 53.0316 120.475 54.4316 120.475C55.8066 120.475 56.5566 119.85 56.5566 119.05C56.5566 116.575 48.7316 118.15 48.7316 113.075C48.7316 110.775 50.7816 108.925 54.2066 108.925C57.5566 108.925 59.5816 110.75 59.7816 113.5H56.4316C56.3316 112.425 55.4816 111.7 54.1066 111.7C52.8066 111.7 52.1316 112.225 52.1316 113.025C52.1316 115.55 59.8066 113.975 59.9066 119.05ZM68.7297 111.8C67.0547 111.8 65.7297 112.875 65.4547 114.775H72.0297C71.9797 112.95 70.5297 111.8 68.7297 111.8ZM75.3047 118.65C74.5547 121.2 72.2547 123.225 68.8297 123.225C64.8047 123.225 61.8797 120.425 61.8797 116.075C61.8797 111.7 64.7297 108.925 68.8297 108.925C72.8297 108.925 75.6547 111.65 75.6547 115.775C75.6547 116.225 75.6297 116.675 75.5547 117.125H65.4297C65.6047 119.175 67.0047 120.325 68.7547 120.325C70.2547 120.325 71.0797 119.575 71.5297 118.65H75.3047ZM87.6664 113.475H90.4414C92.4164 113.475 93.2914 112.5 93.2914 110.95C93.2914 109.35 92.4164 108.4 90.4414 108.4H87.6664V113.475ZM96.8914 110.95C96.8914 113.6 95.0914 116.3 90.5914 116.3H87.6664V123H84.1664V105.55H90.5914C94.7914 105.55 96.8914 107.925 96.8914 110.95ZM98.4764 116.025C98.4764 111.7 101.276 108.925 104.801 108.925C107.026 108.925 108.551 109.975 109.376 111.125V109.15H112.901V123H109.376V120.975C108.551 122.175 106.976 123.225 104.776 123.225C101.276 123.225 98.4764 120.35 98.4764 116.025ZM109.376 116.075C109.376 113.45 107.626 112 105.701 112C103.826 112 102.051 113.4 102.051 116.025C102.051 118.65 103.826 120.15 105.701 120.15C107.626 120.15 109.376 118.7 109.376 116.075ZM127.07 119.05C127.07 121.425 124.995 123.225 121.62 123.225C118.145 123.225 115.72 121.2 115.57 118.625H119.095C119.22 119.675 120.195 120.475 121.595 120.475C122.97 120.475 123.72 119.85 123.72 119.05C123.72 116.575 115.895 118.15 115.895 113.075C115.895 110.775 117.945 108.925 121.37 108.925C124.72 108.925 126.745 110.75 126.945 113.5H123.595C123.495 112.425 122.645 111.7 121.27 111.7C119.97 111.7 119.295 112.225 119.295 113.025C119.295 115.55 126.97 113.975 127.07 119.05ZM140.693 119.05C140.693 121.425 138.618 123.225 135.243 123.225C131.768 123.225 129.343 121.2 129.193 118.625H132.718C132.843 119.675 133.818 120.475 135.218 120.475C136.593 120.475 137.343 119.85 137.343 119.05C137.343 116.575 129.518 118.15 129.518 113.075C129.518 110.775 131.568 108.925 134.993 108.925C138.343 108.925 140.368 110.75 140.568 113.5H137.218C137.118 112.425 136.268 111.7 134.893 111.7C133.593 111.7 132.918 112.225 132.918 113.025C132.918 115.55 140.593 113.975 140.693 119.05ZM146.091 123L142.016 109.15H145.566L148.016 119.7L150.666 109.15H154.366L156.966 119.675L159.416 109.15H162.766L158.716 123H154.941L152.416 113.325L149.891 123H146.091ZM178.035 116.075C178.035 120.425 174.835 123.225 170.81 123.225C166.81 123.225 163.785 120.425 163.785 116.075C163.785 111.7 166.91 108.925 170.91 108.925C174.91 108.925 178.035 111.7 178.035 116.075ZM167.335 116.075C167.335 118.825 168.935 120.175 170.81 120.175C172.66 120.175 174.435 118.825 174.435 116.075C174.435 113.3 172.71 111.975 170.86 111.975C169.01 111.975 167.335 113.3 167.335 116.075ZM184.102 116.1V123H180.602V109.15H184.102V111.3C184.977 109.875 186.427 108.95 188.352 108.95V112.625H187.427C185.352 112.625 184.102 113.425 184.102 116.1ZM189.809 116.025C189.809 111.7 192.609 108.925 196.159 108.925C197.984 108.925 199.734 109.775 200.684 111.075V104.5H204.234V123H200.684V120.95C199.859 122.225 198.309 123.225 196.134 123.225C192.609 123.225 189.809 120.35 189.809 116.025ZM200.709 116.075C200.709 113.45 198.959 112 197.034 112C195.159 112 193.384 113.4 193.384 116.025C193.384 118.65 195.159 120.15 197.034 120.15C198.959 120.15 200.709 118.7 200.709 116.075ZM225.46 123L224.31 119.675H217.36L216.21 123H212.535L218.81 105.525H222.885L229.16 123H225.46ZM223.36 116.875L220.835 109.575L218.31 116.875H223.36ZM230.03 109.15H233.78L237.28 119.775L240.78 109.15H244.505L239.38 123H235.13L230.03 109.15ZM245.571 116.025C245.571 111.7 248.371 108.925 251.896 108.925C254.121 108.925 255.646 109.975 256.471 111.125V109.15H259.996V123H256.471V120.975C255.646 122.175 254.071 123.225 251.871 123.225C248.371 123.225 245.571 120.35 245.571 116.025ZM256.471 116.075C256.471 113.45 254.721 112 252.796 112C250.921 112 249.146 113.4 249.146 116.025C249.146 118.65 250.921 120.15 252.796 120.15C254.721 120.15 256.471 118.7 256.471 116.075ZM263.414 123V109.15H266.914V123H263.414ZM265.189 107.5C263.939 107.5 263.039 106.6 263.039 105.45C263.039 104.3 263.939 103.4 265.189 103.4C266.414 103.4 267.339 104.3 267.339 105.45C267.339 106.6 266.414 107.5 265.189 107.5ZM270.372 123V104.5H273.872V123H270.372ZM276.43 116.025C276.43 111.7 279.23 108.925 282.755 108.925C284.98 108.925 286.505 109.975 287.33 111.125V109.15H290.855V123H287.33V120.975C286.505 122.175 284.93 123.225 282.73 123.225C279.23 123.225 276.43 120.35 276.43 116.025ZM287.33 116.075C287.33 113.45 285.58 112 283.655 112C281.78 112 280.005 113.4 280.005 116.025C280.005 118.65 281.78 120.15 283.655 120.15C285.58 120.15 287.33 118.7 287.33 116.075ZM297.774 111.175C298.624 109.9 300.249 108.925 302.349 108.925C305.899 108.925 308.674 111.7 308.674 116.025C308.674 120.35 305.899 123.225 302.349 123.225C300.174 123.225 298.624 122.225 297.774 121.025V123H294.274V104.5H297.774V111.175ZM305.099 116.025C305.099 113.4 303.324 112 301.424 112C299.549 112 297.774 113.45 297.774 116.075C297.774 118.7 299.549 120.15 301.424 120.15C303.324 120.15 305.099 118.65 305.099 116.025ZM311.217 123V104.5H314.717V123H311.217ZM324.125 111.8C322.45 111.8 321.125 112.875 320.85 114.775H327.425C327.375 112.95 325.925 111.8 324.125 111.8ZM330.7 118.65C329.95 121.2 327.65 123.225 324.225 123.225C320.2 123.225 317.275 120.425 317.275 116.075C317.275 111.7 320.125 108.925 324.225 108.925C328.225 108.925 331.05 111.65 331.05 115.775C331.05 116.225 331.025 116.675 330.95 117.125H320.825C321 119.175 322.4 120.325 324.15 120.325C325.65 120.325 326.475 119.575 326.925 118.65H330.7Z" fill="#A1FF00"/>
<path opacity="0.5" d="M36.78 152.53V153.655H32.52V157.15H36.33V158.275H32.52V161.875H36.78V163H31.155V152.53H36.78ZM39.1004 163V155.905H38.0354V154.78H39.1004V154.195C39.1004 152.365 40.0004 151.54 42.1004 151.54V152.68C40.8704 152.68 40.4654 153.13 40.4654 154.195V154.78H42.1904V155.905H40.4654V163H39.1004ZM44.037 163V155.905H42.972V154.78H44.037V154.195C44.037 152.365 44.937 151.54 47.037 151.54V152.68C45.807 152.68 45.402 153.13 45.402 154.195V154.78H47.127V155.905H45.402V163H44.037ZM56.5185 158.875C56.5185 161.485 54.6435 163.135 52.3035 163.135C49.9785 163.135 48.2085 161.485 48.2085 158.875C48.2085 156.28 50.0385 154.645 52.3635 154.645C54.7035 154.645 56.5185 156.28 56.5185 158.875ZM49.6035 158.875C49.6035 160.96 50.8785 161.935 52.3035 161.935C53.7285 161.935 55.1235 160.96 55.1235 158.875C55.1235 156.805 53.7585 155.83 52.3485 155.83C50.9085 155.83 49.6035 156.805 49.6035 158.875ZM59.6782 158.53V163H58.3132V154.78H59.6782V156.115C60.1432 155.2 61.0282 154.63 62.3332 154.63V156.04H61.9732C60.6682 156.04 59.6782 156.625 59.6782 158.53ZM64.2089 160.75V155.905H63.1439V154.78H64.2089V152.71H65.5739V154.78H67.7189V155.905H65.5739V160.75C65.5739 161.56 65.8739 161.845 66.7139 161.845H67.7189V163H66.4889C65.0339 163 64.2089 162.4 64.2089 160.75ZM69.3728 163V151.9H70.7378V163H69.3728ZM76.5592 155.8C75.2242 155.8 74.1142 156.685 73.9642 158.29H79.1542C79.1692 156.685 77.9692 155.8 76.5592 155.8ZM80.3992 160.465C79.9792 161.965 78.6592 163.135 76.6192 163.135C74.2792 163.135 72.5542 161.485 72.5542 158.875C72.5542 156.28 74.2192 154.645 76.6192 154.645C79.0042 154.645 80.5642 156.325 80.5642 158.575C80.5642 158.875 80.5492 159.115 80.5192 159.4H73.9492C74.0542 161.065 75.2242 161.98 76.6192 161.98C77.8492 161.98 78.6292 161.35 78.9292 160.465H80.3992ZM88.2759 160.765C88.2759 162.115 87.0909 163.135 85.2759 163.135C83.3559 163.135 82.0059 162.085 81.9159 160.585H83.3259C83.4009 161.38 84.1059 161.98 85.2609 161.98C86.3409 161.98 86.9409 161.44 86.9409 160.765C86.9409 158.935 82.0809 160 82.0809 156.94C82.0809 155.68 83.2659 154.645 85.0959 154.645C86.9109 154.645 88.1109 155.62 88.2009 157.225H86.8359C86.7759 156.4 86.1459 155.8 85.0509 155.8C84.0459 155.8 83.4459 156.28 83.4459 156.94C83.4459 158.89 88.2159 157.825 88.2759 160.765ZM96.1129 160.765C96.1129 162.115 94.9279 163.135 93.1129 163.135C91.1929 163.135 89.8429 162.085 89.7529 160.585H91.1629C91.2379 161.38 91.9429 161.98 93.0979 161.98C94.1779 161.98 94.7779 161.44 94.7779 160.765C94.7779 158.935 89.9179 160 89.9179 156.94C89.9179 155.68 91.1029 154.645 92.9329 154.645C94.7479 154.645 95.9479 155.62 96.0379 157.225H94.6729C94.6129 156.4 93.9829 155.8 92.8879 155.8C91.8829 155.8 91.2829 156.28 91.2829 156.94C91.2829 158.89 96.0529 157.825 96.1129 160.765ZM98.0398 163V151.9H99.4048V163H98.0398ZM104.851 161.44L107.401 154.78H108.811L103.861 166.87H102.451L104.071 162.91L100.756 154.78H102.271L104.851 161.44ZM113.672 158.86C113.672 156.295 115.367 154.645 117.572 154.645C119.102 154.645 120.152 155.425 120.632 156.28V154.78H122.012V163H120.632V161.47C120.137 162.355 119.072 163.135 117.557 163.135C115.367 163.135 113.672 161.41 113.672 158.86ZM120.632 158.875C120.632 156.97 119.342 155.83 117.842 155.83C116.342 155.83 115.067 156.925 115.067 158.86C115.067 160.795 116.342 161.935 117.842 161.935C119.342 161.935 120.632 160.81 120.632 158.875ZM123.809 158.875C123.809 156.295 125.474 154.645 127.814 154.645C129.854 154.645 131.189 155.695 131.609 157.42H130.139C129.854 156.43 129.029 155.8 127.814 155.8C126.314 155.8 125.204 156.865 125.204 158.875C125.204 160.915 126.314 161.98 127.814 161.98C129.029 161.98 129.839 161.395 130.139 160.36H131.609C131.189 161.995 129.854 163.135 127.814 163.135C125.474 163.135 123.809 161.485 123.809 158.875ZM132.92 158.875C132.92 156.295 134.585 154.645 136.925 154.645C138.965 154.645 140.3 155.695 140.72 157.42H139.25C138.965 156.43 138.14 155.8 136.925 155.8C135.425 155.8 134.315 156.865 134.315 158.875C134.315 160.915 135.425 161.98 136.925 161.98C138.14 161.98 138.95 161.395 139.25 160.36H140.72C140.3 161.995 138.965 163.135 136.925 163.135C134.585 163.135 132.92 161.485 132.92 158.875ZM146.037 155.8C144.702 155.8 143.592 156.685 143.442 158.29H148.632C148.647 156.685 147.447 155.8 146.037 155.8ZM149.877 160.465C149.457 161.965 148.137 163.135 146.097 163.135C143.757 163.135 142.032 161.485 142.032 158.875C142.032 156.28 143.697 154.645 146.097 154.645C148.482 154.645 150.042 156.325 150.042 158.575C150.042 158.875 150.027 159.115 149.997 159.4H143.427C143.532 161.065 144.702 161.98 146.097 161.98C147.327 161.98 148.107 161.35 148.407 160.465H149.877ZM157.753 160.765C157.753 162.115 156.568 163.135 154.753 163.135C152.833 163.135 151.483 162.085 151.393 160.585H152.803C152.878 161.38 153.583 161.98 154.738 161.98C155.818 161.98 156.418 161.44 156.418 160.765C156.418 158.935 151.558 160 151.558 156.94C151.558 155.68 152.743 154.645 154.573 154.645C156.388 154.645 157.588 155.62 157.678 157.225H156.313C156.253 156.4 155.623 155.8 154.528 155.8C153.523 155.8 152.923 156.28 152.923 156.94C152.923 158.89 157.693 157.825 157.753 160.765ZM165.59 160.765C165.59 162.115 164.405 163.135 162.59 163.135C160.67 163.135 159.32 162.085 159.23 160.585H160.64C160.715 161.38 161.42 161.98 162.575 161.98C163.655 161.98 164.255 161.44 164.255 160.765C164.255 158.935 159.395 160 159.395 156.94C159.395 155.68 160.58 154.645 162.41 154.645C164.225 154.645 165.425 155.62 165.515 157.225H164.15C164.09 156.4 163.46 155.8 162.365 155.8C161.36 155.8 160.76 156.28 160.76 156.94C160.76 158.89 165.53 157.825 165.59 160.765ZM174.636 161.44L177.186 154.78H178.596L173.646 166.87H172.236L173.856 162.91L170.541 154.78H172.056L174.636 161.44ZM187.768 158.875C187.768 161.485 185.893 163.135 183.553 163.135C181.228 163.135 179.458 161.485 179.458 158.875C179.458 156.28 181.288 154.645 183.613 154.645C185.953 154.645 187.768 156.28 187.768 158.875ZM180.853 158.875C180.853 160.96 182.128 161.935 183.553 161.935C184.978 161.935 186.373 160.96 186.373 158.875C186.373 156.805 185.008 155.83 183.598 155.83C182.158 155.83 180.853 156.805 180.853 158.875ZM196.853 154.78V163H195.488V161.785C194.963 162.64 193.958 163.12 192.863 163.12C190.973 163.12 189.488 161.95 189.488 159.595V154.78H190.838V159.415C190.838 161.08 191.753 161.935 193.133 161.935C194.543 161.935 195.488 161.065 195.488 159.295V154.78H196.853ZM200.523 158.53V163H199.158V154.78H200.523V156.115C200.988 155.2 201.873 154.63 203.178 154.63V156.04H202.818C201.513 156.04 200.523 156.625 200.523 158.53ZM208.243 158.86C208.243 156.295 209.938 154.645 212.143 154.645C213.673 154.645 214.723 155.425 215.203 156.28V154.78H216.583V163H215.203V161.47C214.708 162.355 213.643 163.135 212.128 163.135C209.938 163.135 208.243 161.41 208.243 158.86ZM215.203 158.875C215.203 156.97 213.913 155.83 212.413 155.83C210.913 155.83 209.638 156.925 209.638 158.86C209.638 160.795 210.913 161.935 212.413 161.935C213.913 161.935 215.203 160.81 215.203 158.875ZM218.379 158.875C218.379 156.295 220.044 154.645 222.384 154.645C224.424 154.645 225.759 155.695 226.179 157.42H224.709C224.424 156.43 223.599 155.8 222.384 155.8C220.884 155.8 219.774 156.865 219.774 158.875C219.774 160.915 220.884 161.98 222.384 161.98C223.599 161.98 224.409 161.395 224.709 160.36H226.179C225.759 161.995 224.424 163.135 222.384 163.135C220.044 163.135 218.379 161.485 218.379 158.875ZM227.491 158.875C227.491 156.295 229.156 154.645 231.496 154.645C233.536 154.645 234.871 155.695 235.291 157.42H233.821C233.536 156.43 232.711 155.8 231.496 155.8C229.996 155.8 228.886 156.865 228.886 158.875C228.886 160.915 229.996 161.98 231.496 161.98C232.711 161.98 233.521 161.395 233.821 160.36H235.291C234.871 161.995 233.536 163.135 231.496 163.135C229.156 163.135 227.491 161.485 227.491 158.875ZM244.912 158.875C244.912 161.485 243.037 163.135 240.697 163.135C238.372 163.135 236.602 161.485 236.602 158.875C236.602 156.28 238.432 154.645 240.757 154.645C243.097 154.645 244.912 156.28 244.912 158.875ZM237.997 158.875C237.997 160.96 239.272 161.935 240.697 161.935C242.122 161.935 243.517 160.96 243.517 158.875C243.517 156.805 242.152 155.83 240.742 155.83C239.302 155.83 237.997 156.805 237.997 158.875ZM253.997 154.78V163H252.632V161.785C252.107 162.64 251.102 163.12 250.007 163.12C248.117 163.12 246.632 161.95 246.632 159.595V154.78H247.982V159.415C247.982 161.08 248.897 161.935 250.277 161.935C251.687 161.935 252.632 161.065 252.632 159.295V154.78H253.997ZM262.316 163V158.35C262.316 156.67 261.401 155.815 260.021 155.815C258.626 155.815 257.666 156.685 257.666 158.455V163H256.301V154.78H257.666V155.95C258.206 155.095 259.196 154.63 260.306 154.63C262.211 154.63 263.666 155.8 263.666 158.155V163H262.316ZM266.196 160.75V155.905H265.131V154.78H266.196V152.71H267.561V154.78H269.706V155.905H267.561V160.75C267.561 161.56 267.861 161.845 268.701 161.845H269.706V163H268.476C267.021 163 266.196 162.4 266.196 160.75ZM277.27 160.765C277.27 162.115 276.085 163.135 274.27 163.135C272.35 163.135 271 162.085 270.91 160.585H272.32C272.395 161.38 273.1 161.98 274.255 161.98C275.335 161.98 275.935 161.44 275.935 160.765C275.935 158.935 271.075 160 271.075 156.94C271.075 155.68 272.26 154.645 274.09 154.645C275.905 154.645 277.105 155.62 277.195 157.225H275.83C275.77 156.4 275.14 155.8 274.045 155.8C273.04 155.8 272.44 156.28 272.44 156.94C272.44 158.89 277.21 157.825 277.27 160.765ZM284.801 163L282.221 154.78H283.616L285.506 161.68L287.546 154.78H288.941L290.936 161.695L292.796 154.78H294.146L291.581 163H290.171L288.191 156.475L286.211 163H284.801ZM295.501 163V154.78H296.866V163H295.501ZM296.206 153.445C295.681 153.445 295.276 153.04 295.276 152.515C295.276 151.99 295.681 151.585 296.206 151.585C296.701 151.585 297.106 151.99 297.106 152.515C297.106 153.04 296.701 153.445 296.206 153.445ZM299.492 160.75V155.905H298.427V154.78H299.492V152.71H300.857V154.78H303.002V155.905H300.857V160.75C300.857 161.56 301.157 161.845 301.997 161.845H303.002V163H301.772C300.317 163 299.492 162.4 299.492 160.75ZM304.656 163V151.9H306.021V155.965C306.561 155.095 307.581 154.63 308.736 154.63C310.566 154.63 312.021 155.8 312.021 158.155V163H310.671V158.35C310.671 156.67 309.756 155.815 308.376 155.815C306.981 155.815 306.021 156.685 306.021 158.455V163H304.656ZM317.74 158.86C317.74 156.295 319.435 154.645 321.64 154.645C323.17 154.645 324.22 155.425 324.7 156.28V154.78H326.08V163H324.7V161.47C324.205 162.355 323.14 163.135 321.625 163.135C319.435 163.135 317.74 161.41 317.74 158.86ZM324.7 158.875C324.7 156.97 323.41 155.83 321.91 155.83C320.41 155.83 319.135 156.925 319.135 158.86C319.135 160.795 320.41 161.935 321.91 161.935C323.41 161.935 324.7 160.81 324.7 158.875ZM331.875 158.875C331.875 156.295 333.54 154.645 335.88 154.645C337.92 154.645 339.255 155.695 339.675 157.42H338.205C337.92 156.43 337.095 155.8 335.88 155.8C334.38 155.8 333.27 156.865 333.27 158.875C333.27 160.915 334.38 161.98 335.88 161.98C337.095 161.98 337.905 161.395 338.205 160.36H339.675C339.255 161.995 337.92 163.135 335.88 163.135C333.54 163.135 331.875 161.485 331.875 158.875ZM341.497 163V151.9H342.862V163H341.497ZM345.188 163V154.78H346.553V163H345.188ZM345.893 153.445C345.368 153.445 344.963 153.04 344.963 152.515C344.963 151.99 345.368 151.585 345.893 151.585C346.388 151.585 346.793 151.99 346.793 152.515C346.793 153.04 346.388 153.445 345.893 153.445ZM348.37 158.875C348.37 156.295 350.035 154.645 352.375 154.645C354.415 154.645 355.75 155.695 356.17 157.42H354.7C354.415 156.43 353.59 155.8 352.375 155.8C350.875 155.8 349.765 156.865 349.765 158.875C349.765 160.915 350.875 161.98 352.375 161.98C353.59 161.98 354.4 161.395 354.7 160.36H356.17C355.75 161.995 354.415 163.135 352.375 163.135C350.035 163.135 348.37 161.485 348.37 158.875ZM357.991 163V151.9H359.356V158.425L362.521 154.78H364.426L360.556 158.875L364.441 163H362.581L359.356 159.37V163H357.991ZM367.046 162.16C367.046 162.685 366.641 163.09 366.146 163.09C365.621 163.09 365.216 162.685 365.216 162.16C365.216 161.635 365.621 161.23 366.146 161.23C366.641 161.23 367.046 161.635 367.046 162.16ZM378.484 152.53V153.655H374.224V157.15H378.034V158.275H374.224V161.875H378.484V163H372.859V152.53H378.484ZM386.565 163V158.35C386.565 156.67 385.65 155.815 384.27 155.815C382.875 155.815 381.915 156.685 381.915 158.455V163H380.55V154.78H381.915V155.95C382.455 155.095 383.445 154.63 384.555 154.63C386.46 154.63 387.915 155.8 387.915 158.155V163H386.565ZM390.879 153.445C390.369 153.445 389.964 153.04 389.964 152.515C389.964 151.99 390.369 151.585 390.879 151.585C391.389 151.585 391.794 151.99 391.794 152.515C391.794 153.04 391.389 153.445 390.879 153.445ZM390.189 154.78H391.554V164.785C391.554 166.27 390.774 166.9 389.379 166.9H388.584V165.745H389.154C389.904 165.745 390.189 165.475 390.189 164.755V154.78ZM401.665 158.875C401.665 161.485 399.79 163.135 397.45 163.135C395.125 163.135 393.355 161.485 393.355 158.875C393.355 156.28 395.185 154.645 397.51 154.645C399.85 154.645 401.665 156.28 401.665 158.875ZM394.75 158.875C394.75 160.96 396.025 161.935 397.45 161.935C398.875 161.935 400.27 160.96 400.27 158.875C400.27 156.805 398.905 155.83 397.495 155.83C396.055 155.83 394.75 156.805 394.75 158.875ZM406.58 161.44L409.13 154.78H410.54L405.59 166.87H404.18L405.8 162.91L402.485 154.78H404L406.58 161.44ZM30.645 181.875C30.645 179.295 32.31 177.645 34.65 177.645C36.69 177.645 38.025 178.695 38.445 180.42H36.975C36.69 179.43 35.865 178.8 34.65 178.8C33.15 178.8 32.04 179.865 32.04 181.875C32.04 183.915 33.15 184.98 34.65 184.98C35.865 184.98 36.675 184.395 36.975 183.36H38.445C38.025 184.995 36.69 186.135 34.65 186.135C32.31 186.135 30.645 184.485 30.645 181.875ZM48.0663 181.875C48.0663 184.485 46.1913 186.135 43.8513 186.135C41.5263 186.135 39.7563 184.485 39.7563 181.875C39.7563 179.28 41.5863 177.645 43.9113 177.645C46.2513 177.645 48.0663 179.28 48.0663 181.875ZM41.1513 181.875C41.1513 183.96 42.4263 184.935 43.8513 184.935C45.2763 184.935 46.6713 183.96 46.6713 181.875C46.6713 179.805 45.3063 178.83 43.8963 178.83C42.4563 178.83 41.1513 179.805 41.1513 181.875ZM55.8761 186V181.35C55.8761 179.67 54.9611 178.815 53.5811 178.815C52.1861 178.815 51.2261 179.685 51.2261 181.455V186H49.8611V177.78H51.2261V178.95C51.7661 178.095 52.7561 177.63 53.8661 177.63C55.7711 177.63 57.2261 178.8 57.2261 181.155V186H55.8761ZM58.4808 177.78H59.9508L62.5158 184.74L65.0658 177.78H66.5208L63.2958 186H61.7058L58.4808 177.78ZM71.359 178.8C70.024 178.8 68.914 179.685 68.764 181.29H73.954C73.969 179.685 72.769 178.8 71.359 178.8ZM75.199 183.465C74.779 184.965 73.459 186.135 71.419 186.135C69.079 186.135 67.354 184.485 67.354 181.875C67.354 179.28 69.019 177.645 71.419 177.645C73.804 177.645 75.364 179.325 75.364 181.575C75.364 181.875 75.349 182.115 75.319 182.4H68.749C68.854 184.065 70.024 184.98 71.419 184.98C72.649 184.98 73.429 184.35 73.729 183.465H75.199ZM83.1807 186V181.35C83.1807 179.67 82.2657 178.815 80.8857 178.815C79.4907 178.815 78.5307 179.685 78.5307 181.455V186H77.1657V177.78H78.5307V178.95C79.0707 178.095 80.0607 177.63 81.1707 177.63C83.0757 177.63 84.5307 178.8 84.5307 181.155V186H83.1807ZM86.7605 186V177.78H88.1255V186H86.7605ZM87.4655 176.445C86.9405 176.445 86.5355 176.04 86.5355 175.515C86.5355 174.99 86.9405 174.585 87.4655 174.585C87.9605 174.585 88.3655 174.99 88.3655 175.515C88.3655 176.04 87.9605 176.445 87.4655 176.445ZM93.9469 178.8C92.6119 178.8 91.5019 179.685 91.3519 181.29H96.5419C96.5569 179.685 95.3569 178.8 93.9469 178.8ZM97.7869 183.465C97.3669 184.965 96.0469 186.135 94.0069 186.135C91.6669 186.135 89.9419 184.485 89.9419 181.875C89.9419 179.28 91.6069 177.645 94.0069 177.645C96.3919 177.645 97.9519 179.325 97.9519 181.575C97.9519 181.875 97.9369 182.115 97.9069 182.4H91.3369C91.4419 184.065 92.6119 184.98 94.0069 184.98C95.2369 184.98 96.0169 184.35 96.3169 183.465H97.7869ZM105.769 186V181.35C105.769 179.67 104.854 178.815 103.474 178.815C102.079 178.815 101.119 179.685 101.119 181.455V186H99.7536V177.78H101.119V178.95C101.659 178.095 102.649 177.63 103.759 177.63C105.664 177.63 107.119 178.8 107.119 181.155V186H105.769ZM108.838 181.875C108.838 179.295 110.503 177.645 112.843 177.645C114.883 177.645 116.218 178.695 116.638 180.42H115.168C114.883 179.43 114.058 178.8 112.843 178.8C111.343 178.8 110.233 179.865 110.233 181.875C110.233 183.915 111.343 184.98 112.843 184.98C114.058 184.98 114.868 184.395 115.168 183.36H116.638C116.218 184.995 114.883 186.135 112.843 186.135C110.503 186.135 108.838 184.485 108.838 181.875ZM121.955 178.8C120.62 178.8 119.51 179.685 119.36 181.29H124.55C124.565 179.685 123.365 178.8 121.955 178.8ZM125.795 183.465C125.375 184.965 124.055 186.135 122.015 186.135C119.675 186.135 117.95 184.485 117.95 181.875C117.95 179.28 119.615 177.645 122.015 177.645C124.4 177.645 125.96 179.325 125.96 181.575C125.96 181.875 125.945 182.115 125.915 182.4H119.345C119.45 184.065 120.62 184.98 122.015 184.98C123.245 184.98 124.025 184.35 124.325 183.465H125.795ZM133.365 186L130.785 177.78H132.18L134.07 184.68L136.11 177.78H137.505L139.5 184.695L141.36 177.78H142.71L140.145 186H138.735L136.755 179.475L134.775 186H133.365ZM144.065 186V177.78H145.43V186H144.065ZM144.77 176.445C144.245 176.445 143.84 176.04 143.84 175.515C143.84 174.99 144.245 174.585 144.77 174.585C145.265 174.585 145.67 174.99 145.67 175.515C145.67 176.04 145.265 176.445 144.77 176.445ZM148.057 183.75V178.905H146.992V177.78H148.057V175.71H149.422V177.78H151.567V178.905H149.422V183.75C149.422 184.56 149.722 184.845 150.562 184.845H151.567V186H150.337C148.882 186 148.057 185.4 148.057 183.75ZM153.22 186V174.9H154.585V178.965C155.125 178.095 156.145 177.63 157.3 177.63C159.13 177.63 160.585 178.8 160.585 181.155V186H159.235V181.35C159.235 179.67 158.32 178.815 156.94 178.815C155.545 178.815 154.585 179.685 154.585 181.455V186H153.22ZM170.615 181.875C170.615 184.485 168.74 186.135 166.4 186.135C164.075 186.135 162.305 184.485 162.305 181.875C162.305 179.28 164.135 177.645 166.46 177.645C168.8 177.645 170.615 179.28 170.615 181.875ZM163.7 181.875C163.7 183.96 164.975 184.935 166.4 184.935C167.825 184.935 169.22 183.96 169.22 181.875C169.22 179.805 167.855 178.83 166.445 178.83C165.005 178.83 163.7 179.805 163.7 181.875ZM179.7 177.78V186H178.335V184.785C177.81 185.64 176.805 186.12 175.71 186.12C173.82 186.12 172.335 184.95 172.335 182.595V177.78H173.685V182.415C173.685 184.08 174.6 184.935 175.98 184.935C177.39 184.935 178.335 184.065 178.335 182.295V177.78H179.7ZM182.305 183.75V178.905H181.24V177.78H182.305V175.71H183.67V177.78H185.815V178.905H183.67V183.75C183.67 184.56 183.97 184.845 184.81 184.845H185.815V186H184.585C183.13 186 182.305 185.4 182.305 183.75ZM190.958 181.875C190.958 179.295 192.623 177.645 194.963 177.645C197.003 177.645 198.338 178.695 198.758 180.42H197.288C197.003 179.43 196.178 178.8 194.963 178.8C193.463 178.8 192.353 179.865 192.353 181.875C192.353 183.915 193.463 184.98 194.963 184.98C196.178 184.98 196.988 184.395 197.288 183.36H198.758C198.338 184.995 197.003 186.135 194.963 186.135C192.623 186.135 190.958 184.485 190.958 181.875ZM208.379 181.875C208.379 184.485 206.504 186.135 204.164 186.135C201.839 186.135 200.069 184.485 200.069 181.875C200.069 179.28 201.899 177.645 204.224 177.645C206.564 177.645 208.379 179.28 208.379 181.875ZM201.464 181.875C201.464 183.96 202.739 184.935 204.164 184.935C205.589 184.935 206.984 183.96 206.984 181.875C206.984 179.805 205.619 178.83 204.209 178.83C202.769 178.83 201.464 179.805 201.464 181.875ZM222.039 186V181.35C222.039 179.67 221.139 178.815 219.789 178.815C218.409 178.815 217.464 179.7 217.464 181.47V186H216.114V181.35C216.114 179.67 215.214 178.815 213.864 178.815C212.484 178.815 211.539 179.7 211.539 181.47V186H210.174V177.78H211.539V178.965C212.079 178.095 213.054 177.63 214.134 177.63C215.484 177.63 216.609 178.23 217.149 179.46C217.629 178.275 218.799 177.63 220.059 177.63C221.934 177.63 223.389 178.8 223.389 181.155V186H222.039ZM226.993 179.295C227.488 178.425 228.568 177.645 230.068 177.645C232.273 177.645 233.968 179.295 233.968 181.86C233.968 184.41 232.273 186.135 230.068 186.135C228.568 186.135 227.503 185.325 226.993 184.485V189.9H225.628V177.78H226.993V179.295ZM232.573 181.86C232.573 179.925 231.298 178.83 229.783 178.83C228.298 178.83 226.993 179.97 226.993 181.875C226.993 183.81 228.298 184.935 229.783 184.935C231.298 184.935 232.573 183.795 232.573 181.86ZM237.129 181.53V186H235.764V177.78H237.129V179.115C237.594 178.2 238.479 177.63 239.784 177.63V179.04H239.424C238.119 179.04 237.129 179.625 237.129 181.53ZM249.16 181.875C249.16 184.485 247.285 186.135 244.945 186.135C242.62 186.135 240.85 184.485 240.85 181.875C240.85 179.28 242.68 177.645 245.005 177.645C247.345 177.645 249.16 179.28 249.16 181.875ZM242.245 181.875C242.245 183.96 243.52 184.935 244.945 184.935C246.37 184.935 247.765 183.96 247.765 181.875C247.765 179.805 246.4 178.83 244.99 178.83C243.55 178.83 242.245 179.805 242.245 181.875ZM262.82 186V181.35C262.82 179.67 261.92 178.815 260.57 178.815C259.19 178.815 258.245 179.7 258.245 181.47V186H256.895V181.35C256.895 179.67 255.995 178.815 254.645 178.815C253.265 178.815 252.32 179.7 252.32 181.47V186H250.955V177.78H252.32V178.965C252.86 178.095 253.835 177.63 254.915 177.63C256.265 177.63 257.39 178.23 257.93 179.46C258.41 178.275 259.58 177.63 260.84 177.63C262.715 177.63 264.17 178.8 264.17 181.155V186H262.82ZM266.409 186V177.78H267.774V186H266.409ZM267.114 176.445C266.589 176.445 266.184 176.04 266.184 175.515C266.184 174.99 266.589 174.585 267.114 174.585C267.609 174.585 268.014 174.99 268.014 175.515C268.014 176.04 267.609 176.445 267.114 176.445ZM276.01 183.765C276.01 185.115 274.825 186.135 273.01 186.135C271.09 186.135 269.74 185.085 269.65 183.585H271.06C271.135 184.38 271.84 184.98 272.995 184.98C274.075 184.98 274.675 184.44 274.675 183.765C274.675 181.935 269.815 183 269.815 179.94C269.815 178.68 271 177.645 272.83 177.645C274.645 177.645 275.845 178.62 275.935 180.225H274.57C274.51 179.4 273.88 178.8 272.785 178.8C271.78 178.8 271.18 179.28 271.18 179.94C271.18 181.89 275.95 180.825 276.01 183.765ZM277.937 186V177.78H279.302V186H277.937ZM278.642 176.445C278.117 176.445 277.712 176.04 277.712 175.515C277.712 174.99 278.117 174.585 278.642 174.585C279.137 174.585 279.542 174.99 279.542 175.515C279.542 176.04 279.137 176.445 278.642 176.445ZM287.644 186V181.35C287.644 179.67 286.729 178.815 285.349 178.815C283.954 178.815 282.994 179.685 282.994 181.455V186H281.629V177.78H282.994V178.95C283.534 178.095 284.524 177.63 285.634 177.63C287.539 177.63 288.994 178.8 288.994 181.155V186H287.644ZM290.713 181.86C290.713 179.295 292.408 177.645 294.613 177.645C296.113 177.645 297.193 178.395 297.673 179.28V177.78H299.053V186.18C299.053 188.445 297.538 190.05 295.123 190.05C292.963 190.05 291.418 188.955 291.148 187.2H292.498C292.798 188.19 293.773 188.865 295.123 188.865C296.578 188.865 297.673 187.935 297.673 186.18V184.455C297.178 185.34 296.113 186.135 294.613 186.135C292.408 186.135 290.713 184.41 290.713 181.86ZM297.673 181.875C297.673 179.97 296.383 178.83 294.883 178.83C293.383 178.83 292.108 179.925 292.108 181.86C292.108 183.795 293.383 184.935 294.883 184.935C296.383 184.935 297.673 183.81 297.673 181.875ZM311.269 183.765C311.269 185.115 310.084 186.135 308.269 186.135C306.349 186.135 304.999 185.085 304.909 183.585H306.319C306.394 184.38 307.099 184.98 308.254 184.98C309.334 184.98 309.934 184.44 309.934 183.765C309.934 181.935 305.074 183 305.074 179.94C305.074 178.68 306.259 177.645 308.089 177.645C309.904 177.645 311.104 178.62 311.194 180.225H309.829C309.769 179.4 309.139 178.8 308.044 178.8C307.039 178.8 306.439 179.28 306.439 179.94C306.439 181.89 311.209 180.825 311.269 183.765ZM316.691 178.8C315.356 178.8 314.246 179.685 314.096 181.29H319.286C319.301 179.685 318.101 178.8 316.691 178.8ZM320.531 183.465C320.111 184.965 318.791 186.135 316.751 186.135C314.411 186.135 312.686 184.485 312.686 181.875C312.686 179.28 314.351 177.645 316.751 177.645C319.136 177.645 320.696 179.325 320.696 181.575C320.696 181.875 320.681 182.115 320.651 182.4H314.081C314.186 184.065 315.356 184.98 316.751 184.98C317.981 184.98 318.761 184.35 319.061 183.465H320.531ZM321.988 181.875C321.988 179.295 323.653 177.645 325.993 177.645C328.033 177.645 329.368 178.695 329.788 180.42H328.318C328.033 179.43 327.208 178.8 325.993 178.8C324.493 178.8 323.383 179.865 323.383 181.875C323.383 183.915 324.493 184.98 325.993 184.98C327.208 184.98 328.018 184.395 328.318 183.36H329.788C329.368 184.995 328.033 186.135 325.993 186.135C323.653 186.135 321.988 184.485 321.988 181.875ZM338.899 177.78V186H337.534V184.785C337.009 185.64 336.004 186.12 334.909 186.12C333.019 186.12 331.534 184.95 331.534 182.595V177.78H332.884V182.415C332.884 184.08 333.799 184.935 335.179 184.935C336.589 184.935 337.534 184.065 337.534 182.295V177.78H338.899ZM342.569 181.53V186H341.204V177.78H342.569V179.115C343.034 178.2 343.919 177.63 345.224 177.63V179.04H344.864C343.559 179.04 342.569 179.625 342.569 181.53ZM346.8 186V177.78H348.165V186H346.8ZM347.505 176.445C346.98 176.445 346.575 176.04 346.575 175.515C346.575 174.99 346.98 174.585 347.505 174.585C348 174.585 348.405 174.99 348.405 175.515C348.405 176.04 348 176.445 347.505 176.445ZM350.791 183.75V178.905H349.726V177.78H350.791V175.71H352.156V177.78H354.301V178.905H352.156V183.75C352.156 184.56 352.456 184.845 353.296 184.845H354.301V186H353.071C351.616 186 350.791 185.4 350.791 183.75ZM359.075 184.44L361.625 177.78H363.035L358.085 189.87H356.675L358.295 185.91L354.98 177.78H356.495L359.075 184.44ZM365.742 185.16C365.742 185.685 365.337 186.09 364.842 186.09C364.317 186.09 363.912 185.685 363.912 185.16C363.912 184.635 364.317 184.23 364.842 184.23C365.337 184.23 365.742 184.635 365.742 185.16ZM381.545 180.765C381.545 183.9 379.25 186.105 376.295 186.105C373.355 186.105 371.045 183.9 371.045 180.765C371.045 177.63 373.355 175.425 376.295 175.425C379.25 175.425 381.545 177.63 381.545 180.765ZM372.44 180.765C372.44 183.315 374.09 184.92 376.295 184.92C378.5 184.92 380.15 183.315 380.15 180.765C380.15 178.2 378.5 176.61 376.295 176.61C374.09 176.61 372.44 178.2 372.44 180.765ZM384.712 181.53V186H383.347V177.78H384.712V179.115C385.177 178.2 386.062 177.63 387.367 177.63V179.04H387.007C385.702 179.04 384.712 179.625 384.712 181.53ZM388.433 181.86C388.433 179.295 390.128 177.645 392.333 177.645C393.833 177.645 394.913 178.395 395.393 179.28V177.78H396.773V186.18C396.773 188.445 395.258 190.05 392.843 190.05C390.683 190.05 389.138 188.955 388.868 187.2H390.218C390.518 188.19 391.493 188.865 392.843 188.865C394.298 188.865 395.393 187.935 395.393 186.18V184.455C394.898 185.34 393.833 186.135 392.333 186.135C390.128 186.135 388.433 184.41 388.433 181.86ZM395.393 181.875C395.393 179.97 394.103 178.83 392.603 178.83C391.103 178.83 389.828 179.925 389.828 181.86C389.828 183.795 391.103 184.935 392.603 184.935C394.103 184.935 395.393 183.81 395.393 181.875ZM398.57 181.86C398.57 179.295 400.265 177.645 402.47 177.645C404 177.645 405.05 178.425 405.53 179.28V177.78H406.91V186H405.53V184.47C405.035 185.355 403.97 186.135 402.455 186.135C400.265 186.135 398.57 184.41 398.57 181.86ZM405.53 181.875C405.53 179.97 404.24 178.83 402.74 178.83C401.24 178.83 399.965 179.925 399.965 181.86C399.965 183.795 401.24 184.935 402.74 184.935C404.24 184.935 405.53 183.81 405.53 181.875ZM415.232 186V181.35C415.232 179.67 414.317 178.815 412.937 178.815C411.542 178.815 410.582 179.685 410.582 181.455V186H409.217V177.78H410.582V178.95C411.122 178.095 412.112 177.63 413.222 177.63C415.127 177.63 416.582 178.8 416.582 181.155V186H415.232ZM418.811 186V177.78H420.176V186H418.811ZM419.516 176.445C418.991 176.445 418.586 176.04 418.586 175.515C418.586 174.99 418.991 174.585 419.516 174.585C420.011 174.585 420.416 174.99 420.416 175.515C420.416 176.04 420.011 176.445 419.516 176.445ZM427.528 177.78V178.89L423.523 184.875H427.558V186H421.963V184.875L425.953 178.89H421.993V177.78H427.528ZM432.824 178.8C431.489 178.8 430.379 179.685 430.229 181.29H435.419C435.434 179.685 434.234 178.8 432.824 178.8ZM436.664 183.465C436.244 184.965 434.924 186.135 432.884 186.135C430.544 186.135 428.819 184.485 428.819 181.875C428.819 179.28 430.484 177.645 432.884 177.645C435.269 177.645 436.829 179.325 436.829 181.575C436.829 181.875 436.814 182.115 436.784 182.4H430.214C430.319 184.065 431.489 184.98 432.884 184.98C434.114 184.98 434.894 184.35 435.194 183.465H436.664ZM442.12 181.86C442.12 179.295 443.815 177.645 446.02 177.645C447.55 177.645 448.6 178.425 449.08 179.28V177.78H450.46V186H449.08V184.47C448.585 185.355 447.52 186.135 446.005 186.135C443.815 186.135 442.12 184.41 442.12 181.86ZM449.08 181.875C449.08 179.97 447.79 178.83 446.29 178.83C444.79 178.83 443.515 179.925 443.515 181.86C443.515 183.795 444.79 184.935 446.29 184.935C447.79 184.935 449.08 183.81 449.08 181.875ZM458.781 186V181.35C458.781 179.67 457.866 178.815 456.486 178.815C455.091 178.815 454.131 179.685 454.131 181.455V186H452.766V177.78H454.131V178.95C454.671 178.095 455.661 177.63 456.771 177.63C458.676 177.63 460.131 178.8 460.131 181.155V186H458.781ZM461.851 181.86C461.851 179.295 463.546 177.645 465.766 177.645C467.056 177.645 468.241 178.305 468.811 179.25V174.9H470.191V186H468.811V184.455C468.316 185.37 467.251 186.135 465.751 186.135C463.546 186.135 461.851 184.41 461.851 181.86ZM468.811 181.875C468.811 179.97 467.521 178.83 466.021 178.83C464.521 178.83 463.246 179.925 463.246 181.86C463.246 183.795 464.521 184.935 466.021 184.935C467.521 184.935 468.811 183.81 468.811 181.875ZM38.445 200.78V209H37.08V207.785C36.555 208.64 35.55 209.12 34.455 209.12C32.565 209.12 31.08 207.95 31.08 205.595V200.78H32.43V205.415C32.43 207.08 33.345 207.935 34.725 207.935C36.135 207.935 37.08 207.065 37.08 205.295V200.78H38.445ZM41.0497 206.75V201.905H39.9847V200.78H41.0497V198.71H42.4147V200.78H44.5597V201.905H42.4147V206.75C42.4147 207.56 42.7147 207.845 43.5547 207.845H44.5597V209H43.3297C41.8747 209 41.0497 208.4 41.0497 206.75ZM46.2136 209V200.78H47.5786V209H46.2136ZM46.9186 199.445C46.3936 199.445 45.9886 199.04 45.9886 198.515C45.9886 197.99 46.3936 197.585 46.9186 197.585C47.4136 197.585 47.8186 197.99 47.8186 198.515C47.8186 199.04 47.4136 199.445 46.9186 199.445ZM49.905 209V197.9H51.27V209H49.905ZM53.5964 209V200.78H54.9614V209H53.5964ZM54.3014 199.445C53.7764 199.445 53.3714 199.04 53.3714 198.515C53.3714 197.99 53.7764 197.585 54.3014 197.585C54.7964 197.585 55.2014 197.99 55.2014 198.515C55.2014 199.04 54.7964 199.445 54.3014 199.445ZM62.3128 200.78V201.89L58.3078 207.875H62.3428V209H56.7478V207.875L60.7378 201.89H56.7778V200.78H62.3128ZM67.609 201.8C66.274 201.8 65.164 202.685 65.014 204.29H70.204C70.219 202.685 69.019 201.8 67.609 201.8ZM71.449 206.465C71.029 207.965 69.709 209.135 67.669 209.135C65.329 209.135 63.604 207.485 63.604 204.875C63.604 202.28 65.269 200.645 67.669 200.645C70.054 200.645 71.614 202.325 71.614 204.575C71.614 204.875 71.599 205.115 71.569 205.4H64.999C65.104 207.065 66.274 207.98 67.669 207.98C68.899 207.98 69.679 207.35 69.979 206.465H71.449ZM80.5348 207.44L83.0848 200.78H84.4948L79.5448 212.87H78.1348L79.7548 208.91L76.4398 200.78H77.9548L80.5348 207.44ZM93.6669 204.875C93.6669 207.485 91.7919 209.135 89.4519 209.135C87.1269 209.135 85.3569 207.485 85.3569 204.875C85.3569 202.28 87.1869 200.645 89.5119 200.645C91.8519 200.645 93.6669 202.28 93.6669 204.875ZM86.7519 204.875C86.7519 206.96 88.0269 207.935 89.4519 207.935C90.8769 207.935 92.2719 206.96 92.2719 204.875C92.2719 202.805 90.9069 201.83 89.4969 201.83C88.0569 201.83 86.7519 202.805 86.7519 204.875ZM102.752 200.78V209H101.387V207.785C100.862 208.64 99.8566 209.12 98.7616 209.12C96.8716 209.12 95.3866 207.95 95.3866 205.595V200.78H96.7366V205.415C96.7366 207.08 97.6516 207.935 99.0316 207.935C100.442 207.935 101.387 207.065 101.387 205.295V200.78H102.752ZM106.421 204.53V209H105.056V200.78H106.421V202.115C106.886 201.2 107.771 200.63 109.076 200.63V202.04H108.716C107.411 202.04 106.421 202.625 106.421 204.53ZM120.561 206.765C120.561 208.115 119.376 209.135 117.561 209.135C115.641 209.135 114.291 208.085 114.201 206.585H115.611C115.686 207.38 116.391 207.98 117.546 207.98C118.626 207.98 119.226 207.44 119.226 206.765C119.226 204.935 114.366 206 114.366 202.94C114.366 201.68 115.551 200.645 117.381 200.645C119.196 200.645 120.396 201.62 120.486 203.225H119.121C119.061 202.4 118.431 201.8 117.336 201.8C116.331 201.8 115.731 202.28 115.731 202.94C115.731 204.89 120.501 203.825 120.561 206.765ZM121.978 204.86C121.978 202.295 123.673 200.645 125.878 200.645C127.408 200.645 128.458 201.425 128.938 202.28V200.78H130.318V209H128.938V207.47C128.443 208.355 127.378 209.135 125.863 209.135C123.673 209.135 121.978 207.41 121.978 204.86ZM128.938 204.875C128.938 202.97 127.648 201.83 126.148 201.83C124.648 201.83 123.373 202.925 123.373 204.86C123.373 206.795 124.648 207.935 126.148 207.935C127.648 207.935 128.938 206.81 128.938 204.875ZM131.65 200.78H133.12L135.685 207.74L138.235 200.78H139.69L136.465 209H134.875L131.65 200.78ZM144.528 201.8C143.193 201.8 142.083 202.685 141.933 204.29H147.123C147.138 202.685 145.938 201.8 144.528 201.8ZM148.368 206.465C147.948 207.965 146.628 209.135 144.588 209.135C142.248 209.135 140.523 207.485 140.523 204.875C140.523 202.28 142.188 200.645 144.588 200.645C146.973 200.645 148.533 202.325 148.533 204.575C148.533 204.875 148.518 205.115 148.488 205.4H141.918C142.023 207.065 143.193 207.98 144.588 207.98C145.818 207.98 146.598 207.35 146.898 206.465H148.368ZM149.825 204.86C149.825 202.295 151.52 200.645 153.74 200.645C155.03 200.645 156.215 201.305 156.785 202.25V197.9H158.165V209H156.785V207.455C156.29 208.37 155.225 209.135 153.725 209.135C151.52 209.135 149.825 207.41 149.825 204.86ZM156.785 204.875C156.785 202.97 155.495 201.83 153.995 201.83C152.495 201.83 151.22 202.925 151.22 204.86C151.22 206.795 152.495 207.935 153.995 207.935C155.495 207.935 156.785 206.81 156.785 204.875ZM165.835 202.295C166.33 201.425 167.41 200.645 168.91 200.645C171.115 200.645 172.81 202.295 172.81 204.86C172.81 207.41 171.115 209.135 168.91 209.135C167.41 209.135 166.345 208.325 165.835 207.485V212.9H164.47V200.78H165.835V202.295ZM171.415 204.86C171.415 202.925 170.14 201.83 168.625 201.83C167.14 201.83 165.835 202.97 165.835 204.875C165.835 206.81 167.14 207.935 168.625 207.935C170.14 207.935 171.415 206.795 171.415 204.86ZM174.097 204.86C174.097 202.295 175.792 200.645 177.997 200.645C179.527 200.645 180.577 201.425 181.057 202.28V200.78H182.437V209H181.057V207.47C180.562 208.355 179.497 209.135 177.982 209.135C175.792 209.135 174.097 207.41 174.097 204.86ZM181.057 204.875C181.057 202.97 179.767 201.83 178.267 201.83C176.767 201.83 175.492 202.925 175.492 204.86C175.492 206.795 176.767 207.935 178.267 207.935C179.767 207.935 181.057 206.81 181.057 204.875ZM190.654 206.765C190.654 208.115 189.469 209.135 187.654 209.135C185.734 209.135 184.384 208.085 184.294 206.585H185.704C185.779 207.38 186.484 207.98 187.639 207.98C188.719 207.98 189.319 207.44 189.319 206.765C189.319 204.935 184.459 206 184.459 202.94C184.459 201.68 185.644 200.645 187.474 200.645C189.289 200.645 190.489 201.62 190.579 203.225H189.214C189.154 202.4 188.524 201.8 187.429 201.8C186.424 201.8 185.824 202.28 185.824 202.94C185.824 204.89 190.594 203.825 190.654 206.765ZM198.491 206.765C198.491 208.115 197.306 209.135 195.491 209.135C193.571 209.135 192.221 208.085 192.131 206.585H193.541C193.616 207.38 194.321 207.98 195.476 207.98C196.556 207.98 197.156 207.44 197.156 206.765C197.156 204.935 192.296 206 192.296 202.94C192.296 201.68 193.481 200.645 195.311 200.645C197.126 200.645 198.326 201.62 198.416 203.225H197.051C196.991 202.4 196.361 201.8 195.266 201.8C194.261 201.8 193.661 202.28 193.661 202.94C193.661 204.89 198.431 203.825 198.491 206.765ZM202.023 209L199.443 200.78H200.838L202.728 207.68L204.768 200.78H206.163L208.158 207.695L210.018 200.78H211.368L208.803 209H207.393L205.413 202.475L203.433 209H202.023ZM220.522 204.875C220.522 207.485 218.647 209.135 216.307 209.135C213.982 209.135 212.212 207.485 212.212 204.875C212.212 202.28 214.042 200.645 216.367 200.645C218.707 200.645 220.522 202.28 220.522 204.875ZM213.607 204.875C213.607 206.96 214.882 207.935 216.307 207.935C217.732 207.935 219.127 206.96 219.127 204.875C219.127 202.805 217.762 201.83 216.352 201.83C214.912 201.83 213.607 202.805 213.607 204.875ZM223.682 204.53V209H222.317V200.78H223.682V202.115C224.147 201.2 225.032 200.63 226.337 200.63V202.04H225.977C224.672 202.04 223.682 202.625 223.682 204.53ZM227.403 204.86C227.403 202.295 229.098 200.645 231.318 200.645C232.608 200.645 233.793 201.305 234.363 202.25V197.9H235.743V209H234.363V207.455C233.868 208.37 232.803 209.135 231.303 209.135C229.098 209.135 227.403 207.41 227.403 204.86ZM234.363 204.875C234.363 202.97 233.073 201.83 231.573 201.83C230.073 201.83 228.798 202.925 228.798 204.86C228.798 206.795 230.073 207.935 231.573 207.935C233.073 207.935 234.363 206.81 234.363 204.875ZM243.96 206.765C243.96 208.115 242.775 209.135 240.96 209.135C239.04 209.135 237.69 208.085 237.6 206.585H239.01C239.085 207.38 239.79 207.98 240.945 207.98C242.025 207.98 242.625 207.44 242.625 206.765C242.625 204.935 237.765 206 237.765 202.94C237.765 201.68 238.95 200.645 240.78 200.645C242.595 200.645 243.795 201.62 243.885 203.225H242.52C242.46 202.4 241.83 201.8 240.735 201.8C239.73 201.8 239.13 202.28 239.13 202.94C239.13 204.89 243.9 203.825 243.96 206.765ZM250.14 209V201.905H249.075V200.78H250.14V200.195C250.14 198.365 251.04 197.54 253.14 197.54V198.68C251.91 198.68 251.505 199.13 251.505 200.195V200.78H253.23V201.905H251.505V209H250.14ZM262.622 204.875C262.622 207.485 260.747 209.135 258.407 209.135C256.082 209.135 254.312 207.485 254.312 204.875C254.312 202.28 256.142 200.645 258.467 200.645C260.807 200.645 262.622 202.28 262.622 204.875ZM255.707 204.875C255.707 206.96 256.982 207.935 258.407 207.935C259.832 207.935 261.227 206.96 261.227 204.875C261.227 202.805 259.862 201.83 258.452 201.83C257.012 201.83 255.707 202.805 255.707 204.875ZM265.782 204.53V209H264.417V200.78H265.782V202.115C266.247 201.2 267.132 200.63 268.437 200.63V202.04H268.077C266.772 202.04 265.782 202.625 265.782 204.53ZM273.501 204.86C273.501 202.295 275.196 200.645 277.401 200.645C278.931 200.645 279.981 201.425 280.461 202.28V200.78H281.841V209H280.461V207.47C279.966 208.355 278.901 209.135 277.386 209.135C275.196 209.135 273.501 207.41 273.501 204.86ZM280.461 204.875C280.461 202.97 279.171 201.83 277.671 201.83C276.171 201.83 274.896 202.925 274.896 204.86C274.896 206.795 276.171 207.935 277.671 207.935C279.171 207.935 280.461 206.81 280.461 204.875ZM294.057 206.765C294.057 208.115 292.872 209.135 291.057 209.135C289.137 209.135 287.787 208.085 287.697 206.585H289.107C289.182 207.38 289.887 207.98 291.042 207.98C292.122 207.98 292.722 207.44 292.722 206.765C292.722 204.935 287.862 206 287.862 202.94C287.862 201.68 289.047 200.645 290.877 200.645C292.692 200.645 293.892 201.62 293.982 203.225H292.617C292.557 202.4 291.927 201.8 290.832 201.8C289.827 201.8 289.227 202.28 289.227 202.94C289.227 204.89 293.997 203.825 294.057 206.765ZM299.479 201.8C298.144 201.8 297.034 202.685 296.884 204.29H302.074C302.089 202.685 300.889 201.8 299.479 201.8ZM303.319 206.465C302.899 207.965 301.579 209.135 299.539 209.135C297.199 209.135 295.474 207.485 295.474 204.875C295.474 202.28 297.139 200.645 299.539 200.645C301.924 200.645 303.484 202.325 303.484 204.575C303.484 204.875 303.469 205.115 303.439 205.4H296.869C296.974 207.065 298.144 207.98 299.539 207.98C300.769 207.98 301.549 207.35 301.849 206.465H303.319ZM304.776 204.86C304.776 202.295 306.471 200.645 308.676 200.645C310.206 200.645 311.256 201.425 311.736 202.28V200.78H313.116V209H311.736V207.47C311.241 208.355 310.176 209.135 308.661 209.135C306.471 209.135 304.776 207.41 304.776 204.86ZM311.736 204.875C311.736 202.97 310.446 201.83 308.946 201.83C307.446 201.83 306.171 202.925 306.171 204.86C306.171 206.795 307.446 207.935 308.946 207.935C310.446 207.935 311.736 206.81 311.736 204.875ZM327.288 209V204.35C327.288 202.67 326.388 201.815 325.038 201.815C323.658 201.815 322.713 202.7 322.713 204.47V209H321.363V204.35C321.363 202.67 320.463 201.815 319.113 201.815C317.733 201.815 316.788 202.7 316.788 204.47V209H315.423V200.78H316.788V201.965C317.328 201.095 318.303 200.63 319.383 200.63C320.733 200.63 321.858 201.23 322.398 202.46C322.878 201.275 324.048 200.63 325.308 200.63C327.183 200.63 328.638 201.8 328.638 204.155V209H327.288ZM330.877 209V197.9H332.242V209H330.877ZM338.063 201.8C336.728 201.8 335.618 202.685 335.468 204.29H340.658C340.673 202.685 339.473 201.8 338.063 201.8ZM341.903 206.465C341.483 207.965 340.163 209.135 338.123 209.135C335.783 209.135 334.058 207.485 334.058 204.875C334.058 202.28 335.723 200.645 338.123 200.645C340.508 200.645 342.068 202.325 342.068 204.575C342.068 204.875 342.053 205.115 342.023 205.4H335.453C335.558 207.065 336.728 207.98 338.123 207.98C339.353 207.98 340.133 207.35 340.433 206.465H341.903ZM349.78 206.765C349.78 208.115 348.595 209.135 346.78 209.135C344.86 209.135 343.51 208.085 343.42 206.585H344.83C344.905 207.38 345.61 207.98 346.765 207.98C347.845 207.98 348.445 207.44 348.445 206.765C348.445 204.935 343.585 206 343.585 202.94C343.585 201.68 344.77 200.645 346.6 200.645C348.415 200.645 349.615 201.62 349.705 203.225H348.34C348.28 202.4 347.65 201.8 346.555 201.8C345.55 201.8 344.95 202.28 344.95 202.94C344.95 204.89 349.72 203.825 349.78 206.765ZM357.617 206.765C357.617 208.115 356.432 209.135 354.617 209.135C352.697 209.135 351.347 208.085 351.257 206.585H352.667C352.742 207.38 353.447 207.98 354.602 207.98C355.682 207.98 356.282 207.44 356.282 206.765C356.282 204.935 351.422 206 351.422 202.94C351.422 201.68 352.607 200.645 354.437 200.645C356.252 200.645 357.452 201.62 357.542 203.225H356.177C356.117 202.4 355.487 201.8 354.392 201.8C353.387 201.8 352.787 202.28 352.787 202.94C352.787 204.89 357.557 203.825 357.617 206.765ZM371.343 204.875C371.343 207.485 369.468 209.135 367.128 209.135C364.803 209.135 363.033 207.485 363.033 204.875C363.033 202.28 364.863 200.645 367.188 200.645C369.528 200.645 371.343 202.28 371.343 204.875ZM364.428 204.875C364.428 206.96 365.703 207.935 367.128 207.935C368.553 207.935 369.948 206.96 369.948 204.875C369.948 202.805 368.583 201.83 367.173 201.83C365.733 201.83 364.428 202.805 364.428 204.875ZM379.152 209V204.35C379.152 202.67 378.237 201.815 376.857 201.815C375.462 201.815 374.502 202.685 374.502 204.455V209H373.137V200.78H374.502V201.95C375.042 201.095 376.032 200.63 377.142 200.63C379.047 200.63 380.502 201.8 380.502 204.155V209H379.152ZM382.732 209V197.9H384.097V209H382.732ZM386.424 209V200.78H387.789V209H386.424ZM387.129 199.445C386.604 199.445 386.199 199.04 386.199 198.515C386.199 197.99 386.604 197.585 387.129 197.585C387.624 197.585 388.029 197.99 388.029 198.515C388.029 199.04 387.624 199.445 387.129 199.445ZM396.13 209V204.35C396.13 202.67 395.215 201.815 393.835 201.815C392.44 201.815 391.48 202.685 391.48 204.455V209H390.115V200.78H391.48V201.95C392.02 201.095 393.01 200.63 394.12 200.63C396.025 200.63 397.48 201.8 397.48 204.155V209H396.13ZM403.205 201.8C401.87 201.8 400.76 202.685 400.61 204.29H405.8C405.815 202.685 404.615 201.8 403.205 201.8ZM407.045 206.465C406.625 207.965 405.305 209.135 403.265 209.135C400.925 209.135 399.2 207.485 399.2 204.875C399.2 202.28 400.865 200.645 403.265 200.645C405.65 200.645 407.21 202.325 407.21 204.575C407.21 204.875 407.195 205.115 407.165 205.4H400.595C400.7 207.065 401.87 207.98 403.265 207.98C404.495 207.98 405.275 207.35 405.575 206.465H407.045ZM34.65 224.8C33.315 224.8 32.205 225.685 32.055 227.29H37.245C37.26 225.685 36.06 224.8 34.65 224.8ZM38.49 229.465C38.07 230.965 36.75 232.135 34.71 232.135C32.37 232.135 30.645 230.485 30.645 227.875C30.645 225.28 32.31 223.645 34.71 223.645C37.095 223.645 38.655 225.325 38.655 227.575C38.655 227.875 38.64 228.115 38.61 228.4H32.04C32.145 230.065 33.315 230.98 34.71 230.98C35.94 230.98 36.72 230.35 37.02 229.465H38.49ZM44.7468 232L42.7968 228.94L40.9218 232H39.4968L42.1518 227.92L39.4968 223.78H41.0418L42.9918 226.825L44.8518 223.78H46.2768L43.6368 227.845L46.2918 232H44.7468ZM48.9995 225.295C49.4945 224.425 50.5745 223.645 52.0745 223.645C54.2795 223.645 55.9745 225.295 55.9745 227.86C55.9745 230.41 54.2795 232.135 52.0745 232.135C50.5745 232.135 49.5095 231.325 48.9995 230.485V235.9H47.6345V223.78H48.9995V225.295ZM54.5795 227.86C54.5795 225.925 53.3045 224.83 51.7895 224.83C50.3045 224.83 48.9995 225.97 48.9995 227.875C48.9995 229.81 50.3045 230.935 51.7895 230.935C53.3045 230.935 54.5795 229.795 54.5795 227.86ZM61.2662 224.8C59.9312 224.8 58.8212 225.685 58.6712 227.29H63.8612C63.8762 225.685 62.6762 224.8 61.2662 224.8ZM65.1062 229.465C64.6862 230.965 63.3662 232.135 61.3262 232.135C58.9862 232.135 57.2612 230.485 57.2612 227.875C57.2612 225.28 58.9262 223.645 61.3262 223.645C63.7112 223.645 65.2712 225.325 65.2712 227.575C65.2712 227.875 65.2562 228.115 65.2262 228.4H58.6562C58.7612 230.065 59.9312 230.98 61.3262 230.98C62.5562 230.98 63.3362 230.35 63.6362 229.465H65.1062ZM68.438 227.53V232H67.073V223.78H68.438V225.115C68.903 224.2 69.788 223.63 71.093 223.63V225.04H70.733C69.428 225.04 68.438 225.625 68.438 227.53ZM72.6687 232V223.78H74.0337V232H72.6687ZM73.3737 222.445C72.8487 222.445 72.4437 222.04 72.4437 221.515C72.4437 220.99 72.8487 220.585 73.3737 220.585C73.8687 220.585 74.2737 220.99 74.2737 221.515C74.2737 222.04 73.8687 222.445 73.3737 222.445ZM79.8551 224.8C78.5201 224.8 77.4101 225.685 77.2601 227.29H82.4501C82.4651 225.685 81.2651 224.8 79.8551 224.8ZM83.6951 229.465C83.2751 230.965 81.9551 232.135 79.9151 232.135C77.5751 232.135 75.8501 230.485 75.8501 227.875C75.8501 225.28 77.5151 223.645 79.9151 223.645C82.3001 223.645 83.8601 225.325 83.8601 227.575C83.8601 227.875 83.8451 228.115 83.8151 228.4H77.2451C77.3501 230.065 78.5201 230.98 79.9151 230.98C81.1451 230.98 81.9251 230.35 82.2251 229.465H83.6951ZM91.6768 232V227.35C91.6768 225.67 90.7618 224.815 89.3818 224.815C87.9868 224.815 87.0268 225.685 87.0268 227.455V232H85.6618V223.78H87.0268V224.95C87.5668 224.095 88.5568 223.63 89.6668 223.63C91.5718 223.63 93.0268 224.8 93.0268 227.155V232H91.6768ZM94.7466 227.875C94.7466 225.295 96.4116 223.645 98.7516 223.645C100.792 223.645 102.127 224.695 102.547 226.42H101.077C100.792 225.43 99.9666 224.8 98.7516 224.8C97.2516 224.8 96.1416 225.865 96.1416 227.875C96.1416 229.915 97.2516 230.98 98.7516 230.98C99.9666 230.98 100.777 230.395 101.077 229.36H102.547C102.127 230.995 100.792 232.135 98.7516 232.135C96.4116 232.135 94.7466 230.485 94.7466 227.875ZM107.863 224.8C106.528 224.8 105.418 225.685 105.268 227.29H110.458C110.473 225.685 109.273 224.8 107.863 224.8ZM111.703 229.465C111.283 230.965 109.963 232.135 107.923 232.135C105.583 232.135 103.858 230.485 103.858 227.875C103.858 225.28 105.523 223.645 107.923 223.645C110.308 223.645 111.868 225.325 111.868 227.575C111.868 227.875 111.853 228.115 111.823 228.4H105.253C105.358 230.065 106.528 230.98 107.923 230.98C109.153 230.98 109.933 230.35 110.233 229.465H111.703Z" fill="white"/>
<path d="M494 30L479 45M494 45L479 30" stroke="white" stroke-width="3" stroke-linecap="round" stroke-linejoin="round"/>
<rect opacity="0.1" x="30" y="30" width="15" height="15" rx="7.5" fill="white"/>
<rect opacity="0.1" x="60" y="30" width="15" height="15" rx="7.5" fill="white"/>
<rect opacity="0.1" x="90" y="30" width="15" height="15" rx="7.5" fill="white"/>
<path opacity="0.1" d="M0 75H524" stroke="white" stroke-width="2"/>
<path d="M348.976 359.515V361.225H345.001V363.85H348.526V365.515H345.001V368.29H348.976V370H342.901V359.515H348.976ZM355.475 370L353.765 367.42L352.25 370H350L352.715 365.83L349.97 361.69H352.34L354.035 364.255L355.565 361.69H357.815L355.085 365.83L357.845 370H355.475ZM361.085 362.89C361.58 362.185 362.54 361.555 363.83 361.555C365.96 361.555 367.625 363.22 367.625 365.815C367.625 368.41 365.96 370.135 363.83 370.135C362.525 370.135 361.595 369.49 361.085 368.815V373.96H358.985V361.69H361.085V362.89ZM365.48 365.815C365.48 364.24 364.415 363.4 363.275 363.4C362.15 363.4 361.085 364.27 361.085 365.845C361.085 367.42 362.15 368.29 363.275 368.29C364.415 368.29 365.48 367.39 365.48 365.815ZM369.151 370V358.9H371.251V370H369.151ZM372.786 365.815C372.786 363.22 374.466 361.555 376.581 361.555C377.916 361.555 378.831 362.185 379.326 362.875V361.69H381.441V370H379.326V368.785C378.831 369.505 377.886 370.135 376.566 370.135C374.466 370.135 372.786 368.41 372.786 365.815ZM379.326 365.845C379.326 364.27 378.276 363.4 377.121 363.4C375.996 363.4 374.931 364.24 374.931 365.815C374.931 367.39 375.996 368.29 377.121 368.29C378.276 368.29 379.326 367.42 379.326 365.845ZM383.492 370V361.69H385.592V370H383.492ZM384.557 360.7C383.807 360.7 383.267 360.16 383.267 359.47C383.267 358.78 383.807 358.24 384.557 358.24C385.292 358.24 385.847 358.78 385.847 359.47C385.847 360.16 385.292 360.7 384.557 360.7ZM393.487 370V365.41C393.487 364.075 392.752 363.355 391.642 363.355C390.502 363.355 389.767 364.075 389.767 365.41V370H387.667V361.69H389.767V362.725C390.307 362.02 391.207 361.57 392.272 361.57C394.207 361.57 395.587 362.83 395.587 365.125V370H393.487ZM401.154 363.28C400.149 363.28 399.354 363.925 399.189 365.065H403.134C403.104 363.97 402.234 363.28 401.154 363.28ZM405.099 367.39C404.649 368.92 403.269 370.135 401.214 370.135C398.799 370.135 397.044 368.455 397.044 365.845C397.044 363.22 398.754 361.555 401.214 361.555C403.614 361.555 405.309 363.19 405.309 365.665C405.309 365.935 405.294 366.205 405.249 366.475H399.174C399.279 367.705 400.119 368.395 401.169 368.395C402.069 368.395 402.564 367.945 402.834 367.39H405.099ZM408.942 365.86V370H406.842V361.69H408.942V362.98C409.467 362.125 410.337 361.57 411.492 361.57V363.775H410.937C409.692 363.775 408.942 364.255 408.942 365.86ZM424.505 365.845C424.505 368.455 422.585 370.135 420.17 370.135C417.77 370.135 415.955 368.455 415.955 365.845C415.955 363.22 417.83 361.555 420.23 361.555C422.63 361.555 424.505 363.22 424.505 365.845ZM418.085 365.845C418.085 367.495 419.045 368.305 420.17 368.305C421.28 368.305 422.345 367.495 422.345 365.845C422.345 364.18 421.31 363.385 420.2 363.385C419.09 363.385 418.085 364.18 418.085 365.845ZM428.146 365.86V370H426.046V361.69H428.146V362.98C428.671 362.125 429.541 361.57 430.696 361.57V363.775H430.141C428.896 363.775 428.146 364.255 428.146 365.86ZM442.269 370V365.545H437.784V370H435.684V359.53H437.784V363.835H442.269V359.53H444.369V370H442.269ZM450.006 363.28C449.001 363.28 448.206 363.925 448.041 365.065H451.986C451.956 363.97 451.086 363.28 450.006 363.28ZM453.951 367.39C453.501 368.92 452.121 370.135 450.066 370.135C447.651 370.135 445.896 368.455 445.896 365.845C445.896 363.22 447.606 361.555 450.066 361.555C452.466 361.555 454.161 363.19 454.161 365.665C454.161 365.935 454.146 366.205 454.101 366.475H448.026C448.131 367.705 448.971 368.395 450.021 368.395C450.921 368.395 451.416 367.945 451.686 367.39H453.951ZM455.694 370V358.9H457.794V370H455.694ZM461.969 362.89C462.464 362.185 463.424 361.555 464.714 361.555C466.844 361.555 468.509 363.22 468.509 365.815C468.509 368.41 466.844 370.135 464.714 370.135C463.409 370.135 462.479 369.49 461.969 368.815V373.96H459.869V361.69H461.969V362.89ZM466.364 365.815C466.364 364.24 465.299 363.4 464.159 363.4C463.034 363.4 461.969 364.27 461.969 365.845C461.969 367.42 463.034 368.29 464.159 368.29C465.299 368.29 466.364 367.39 466.364 365.815Z" fill="white"/>
<path d="M486.66 365.469V365.261C486.66 364.586 487.08 364.228 487.5 363.94C487.91 363.662 488.32 363.304 488.32 362.649C488.32 361.735 487.58 361 486.66 361C485.74 361 485 361.735 485 362.649M486.656 367.843H486.665M494 364.5C494 368.642 490.642 372 486.5 372C482.358 372 479 368.642 479 364.5C479 360.358 482.358 357 486.5 357C490.642 357 494 360.358 494 364.5Z" stroke="white" stroke-width="1.5" stroke-linecap="round" stroke-linejoin="round"/>
<rect x="30" y="346" width="163" height="35" rx="6" fill="#A1FF00"/>
<path d="M66.0038 367V358.624H71.1758V359.98H67.6838V362.128H70.3598V363.46H67.6838V367H66.0038ZM72.3671 367V360.352H74.0471V367H72.3671ZM73.2191 359.56C72.6191 359.56 72.1871 359.128 72.1871 358.576C72.1871 358.024 72.6191 357.592 73.2191 357.592C73.8071 357.592 74.2511 358.024 74.2511 358.576C74.2511 359.128 73.8071 359.56 73.2191 359.56ZM75.7069 367V358.12H77.3869V367H75.7069ZM79.0468 367V358.12H80.7268V367H79.0468ZM85.246 367V358.624H86.926V367H85.246ZM93.2418 367V363.328C93.2418 362.26 92.6538 361.684 91.7658 361.684C90.8538 361.684 90.2658 362.26 90.2658 363.328V367H88.5858V360.352H90.2658V361.18C90.6978 360.616 91.4178 360.256 92.2698 360.256C93.8178 360.256 94.9218 361.264 94.9218 363.1V367H93.2418ZM101.059 362.428H102.391C103.339 362.428 103.759 361.96 103.759 361.216C103.759 360.448 103.339 359.992 102.391 359.992H101.059V362.428ZM105.487 361.216C105.487 362.488 104.623 363.784 102.463 363.784H101.059V367H99.3788V358.624H102.463C104.479 358.624 105.487 359.764 105.487 361.216ZM106.248 363.652C106.248 361.576 107.592 360.244 109.284 360.244C110.352 360.244 111.084 360.748 111.48 361.3V360.352H113.172V367H111.48V366.028C111.084 366.604 110.328 367.108 109.272 367.108C107.592 367.108 106.248 365.728 106.248 363.652ZM111.48 363.676C111.48 362.416 110.64 361.72 109.716 361.72C108.816 361.72 107.964 362.392 107.964 363.652C107.964 364.912 108.816 365.632 109.716 365.632C110.64 365.632 111.48 364.936 111.48 363.676ZM119.972 365.104C119.972 366.244 118.976 367.108 117.356 367.108C115.688 367.108 114.524 366.136 114.452 364.9H116.144C116.204 365.404 116.672 365.788 117.344 365.788C118.004 365.788 118.364 365.488 118.364 365.104C118.364 363.916 114.608 364.672 114.608 362.236C114.608 361.132 115.592 360.244 117.236 360.244C118.844 360.244 119.816 361.12 119.912 362.44H118.304C118.256 361.924 117.848 361.576 117.188 361.576C116.564 361.576 116.24 361.828 116.24 362.212C116.24 363.424 119.924 362.668 119.972 365.104ZM126.511 365.104C126.511 366.244 125.515 367.108 123.895 367.108C122.227 367.108 121.063 366.136 120.991 364.9H122.683C122.743 365.404 123.211 365.788 123.883 365.788C124.543 365.788 124.903 365.488 124.903 365.104C124.903 363.916 121.147 364.672 121.147 362.236C121.147 361.132 122.131 360.244 123.775 360.244C125.383 360.244 126.355 361.12 126.451 362.44H124.843C124.795 361.924 124.387 361.576 123.727 361.576C123.103 361.576 122.779 361.828 122.779 362.212C122.779 363.424 126.463 362.668 126.511 365.104ZM129.103 367L127.147 360.352H128.851L130.027 365.416L131.299 360.352H133.075L134.323 365.404L135.499 360.352H137.107L135.163 367H133.351L132.139 362.356L130.927 367H129.103ZM144.436 363.676C144.436 365.764 142.9 367.108 140.968 367.108C139.048 367.108 137.596 365.764 137.596 363.676C137.596 361.576 139.096 360.244 141.016 360.244C142.936 360.244 144.436 361.576 144.436 363.676ZM139.3 363.676C139.3 364.996 140.068 365.644 140.968 365.644C141.856 365.644 142.708 364.996 142.708 363.676C142.708 362.344 141.88 361.708 140.992 361.708C140.104 361.708 139.3 362.344 139.3 363.676ZM147.348 363.688V367H145.668V360.352H147.348V361.384C147.768 360.7 148.464 360.256 149.388 360.256V362.02H148.944C147.948 362.02 147.348 362.404 147.348 363.688ZM150.087 363.652C150.087 361.576 151.431 360.244 153.135 360.244C154.011 360.244 154.851 360.652 155.307 361.276V358.12H157.011V367H155.307V366.016C154.911 366.628 154.167 367.108 153.123 367.108C151.431 367.108 150.087 365.728 150.087 363.652ZM155.319 363.676C155.319 362.416 154.479 361.72 153.555 361.72C152.655 361.72 151.803 362.392 151.803 363.652C151.803 364.912 152.655 365.632 153.555 365.632C154.479 365.632 155.319 364.936 155.319 363.676Z" fill="#343434"/>
<rect x="208.5" y="346.5" width="99" height="34" rx="5.5" stroke="#A1FF00"/>
<path d="M239.17 367V358.624H240.85V367H239.17ZM242.078 363.652C242.078 361.576 243.422 360.244 245.114 360.244C246.158 360.244 246.914 360.724 247.31 361.3V360.352H249.002V367.048C249.002 368.848 247.898 370.276 245.714 370.276C243.842 370.276 242.534 369.34 242.366 367.816H244.034C244.202 368.416 244.826 368.812 245.666 368.812C246.59 368.812 247.31 368.284 247.31 367.048V366.016C246.914 366.592 246.158 367.108 245.114 367.108C243.422 367.108 242.078 365.728 242.078 363.652ZM247.31 363.676C247.31 362.416 246.47 361.72 245.546 361.72C244.646 361.72 243.794 362.392 243.794 363.652C243.794 364.912 244.646 365.632 245.546 365.632C246.47 365.632 247.31 364.936 247.31 363.676ZM255.298 367V363.328C255.298 362.26 254.71 361.684 253.822 361.684C252.91 361.684 252.322 362.26 252.322 363.328V367H250.642V360.352H252.322V361.18C252.754 360.616 253.474 360.256 254.326 360.256C255.874 360.256 256.978 361.264 256.978 363.1V367H255.298ZM264.996 363.676C264.996 365.764 263.46 367.108 261.528 367.108C259.608 367.108 258.156 365.764 258.156 363.676C258.156 361.576 259.656 360.244 261.576 360.244C263.496 360.244 264.996 361.576 264.996 363.676ZM259.86 363.676C259.86 364.996 260.628 365.644 261.528 365.644C262.416 365.644 263.268 364.996 263.268 363.676C263.268 362.344 262.44 361.708 261.552 361.708C260.664 361.708 259.86 362.344 259.86 363.676ZM267.908 363.688V367H266.228V360.352H267.908V361.384C268.328 360.7 269.024 360.256 269.948 360.256V362.02H269.504C268.508 362.02 267.908 362.404 267.908 363.688ZM273.936 361.624C273.132 361.624 272.496 362.14 272.364 363.052H275.52C275.496 362.176 274.8 361.624 273.936 361.624ZM277.092 364.912C276.732 366.136 275.628 367.108 273.984 367.108C272.052 367.108 270.648 365.764 270.648 363.676C270.648 361.576 272.016 360.244 273.984 360.244C275.904 360.244 277.26 361.552 277.26 363.532C277.26 363.748 277.248 363.964 277.212 364.18H272.352C272.436 365.164 273.108 365.716 273.948 365.716C274.668 365.716 275.064 365.356 275.28 364.912H277.092Z" fill="white"/>
</svg>
