<svg width="30" height="30" viewBox="0 0 30 30" fill="none" xmlns="http://www.w3.org/2000/svg">
<path d="M15 22.4961C19.1421 22.4961 22.5 19.1382 22.5 14.9961C22.5 10.854 19.1421 7.49609 15 7.49609C10.8579 7.49609 7.5 10.854 7.5 14.9961C7.5 19.1382 10.8579 22.4961 15 22.4961Z" fill="white"/>
<path d="M15.0009 7.50002H27.9891C26.673 5.21964 24.7797 3.32596 22.4996 2.0094C20.2194 0.692846 17.6328 -0.000183669 14.9999 3.65124e-08C12.367 0.000183742 9.78049 0.693574 7.50054 2.01045C5.22059 3.32733 3.32753 5.22127 2.01172 7.50184L8.50584 18.75L8.51165 18.7485C7.85103 17.6093 7.5024 16.3161 7.50092 14.9992C7.49944 13.6823 7.84516 12.3883 8.50322 11.2476C9.16128 10.1069 10.1084 9.15985 11.2492 8.50191C12.39 7.84397 13.684 7.4984 15.0009 7.50002Z" fill="url(#paint0_linear_5294_87)"/>
<path d="M15 20.9375C18.2792 20.9375 20.9375 18.2792 20.9375 15C20.9375 11.7208 18.2792 9.0625 15 9.0625C11.7208 9.0625 9.0625 11.7208 9.0625 15C9.0625 18.2792 11.7208 20.9375 15 20.9375Z" fill="#1A73E8"/>
<path d="M21.4949 18.7499L15.0007 29.998C17.6337 29.9984 20.2203 29.3056 22.5005 27.9892C24.7807 26.6728 26.6742 24.7793 27.9905 22.499C29.3068 20.2187 29.9995 17.6321 29.999 14.9991C29.9986 12.3662 29.3049 9.77981 27.9878 7.5H14.9996L14.998 7.50581C16.3149 7.50327 17.6092 7.84796 18.7505 8.50511C19.8917 9.16227 20.8395 10.1087 21.4983 11.2489C22.1571 12.3892 22.5037 13.683 22.5031 14.9999C22.5025 16.3168 22.1547 17.6102 21.4949 18.7499Z" fill="url(#paint1_linear_5294_87)"/>
<path d="M8.50627 18.7521L2.01215 7.50391C0.695355 9.7839 0.00205126 12.3704 0.00195314 15.0033C0.00185501 17.6363 0.694966 20.2228 2.01159 22.5029C3.32822 24.783 5.22195 26.6763 7.50237 27.9924C9.78279 29.3084 12.3695 30.0009 15.0025 30.0001L21.4966 18.752L21.4924 18.7477C20.8361 19.8894 19.8905 20.838 18.7507 21.4977C17.611 22.1574 16.3175 22.505 15.0006 22.5055C13.6837 22.5059 12.39 22.1592 11.2498 21.5002C10.1096 20.8413 9.16331 19.8934 8.50627 18.7521Z" fill="url(#paint2_linear_5294_87)"/>
<defs>
<linearGradient id="paint0_linear_5294_87" x1="2.01172" y1="9.37502" x2="27.9891" y2="9.37502" gradientUnits="userSpaceOnUse">
<stop stop-color="#D93025"/>
<stop offset="1" stop-color="#EA4335"/>
</linearGradient>
<linearGradient id="paint1_linear_5294_87" x1="12.9515" y1="29.7975" x2="25.9402" y2="7.30037" gradientUnits="userSpaceOnUse">
<stop stop-color="#FCC934"/>
<stop offset="1" stop-color="#FBBC04"/>
</linearGradient>
<linearGradient id="paint2_linear_5294_87" x1="16.6247" y1="29.0636" x2="3.63596" y2="6.56641" gradientUnits="userSpaceOnUse">
<stop stop-color="#1E8E3E"/>
<stop offset="1" stop-color="#34A853"/>
</linearGradient>
</defs>
</svg>
