<svg width="26" height="30" viewBox="0 0 26 30" fill="none" xmlns="http://www.w3.org/2000/svg">
<path fill-rule="evenodd" clip-rule="evenodd" d="M25.0899 7.19663L25.805 5.46966C25.805 5.46966 24.8949 4.51025 23.79 3.42291C22.685 2.33557 20.345 2.97516 20.345 2.97516L17.68 0H13H8.31998L5.65498 2.97516C5.65498 2.97516 3.315 2.33557 2.20999 3.42291C1.105 4.51025 0.194998 5.46966 0.194998 5.46966L0.909999 7.19663L0 9.75509C0 9.75509 2.67638 19.7302 2.99 20.9484C3.6075 23.347 4.02998 24.2744 5.78499 25.4896C7.53998 26.705 10.725 28.8155 11.245 29.1354C11.765 29.4552 12.415 30 13 30C13.585 30 14.235 29.4552 14.755 29.1354C15.275 28.8155 18.46 26.705 20.215 25.4896C21.97 24.2744 22.3925 23.347 23.01 20.9484C23.3235 19.7302 26 9.75509 26 9.75509L25.0899 7.19663Z" fill="url(#paint0_linear_5294_70)"/>
<path fill-rule="evenodd" clip-rule="evenodd" d="M16.3149 5.40367C16.7049 5.40367 19.5974 4.86 19.5974 4.86C19.5974 4.86 23.0253 8.93753 23.0253 9.80901C23.0253 10.5296 22.7305 10.8116 22.3833 11.1437C22.3106 11.2133 22.2356 11.2851 22.1605 11.3635L19.5903 14.0492C19.5648 14.0758 19.5364 14.1039 19.5064 14.1336C19.2499 14.3874 18.8721 14.7612 19.1387 15.382C19.1565 15.4235 19.1748 15.4656 19.1934 15.5084C19.4857 16.181 19.8464 17.0113 19.3872 17.8527C18.8987 18.7476 18.0618 19.345 17.5255 19.2462C16.9893 19.1474 15.7299 18.4998 15.2668 18.204C14.8037 17.9081 13.3358 16.7169 13.3358 16.2611C13.3358 15.881 14.3915 15.2486 14.9044 14.9414C15.0064 14.8802 15.0869 14.832 15.1334 14.8011C15.1864 14.766 15.2749 14.7119 15.3839 14.6453C15.8521 14.3591 16.6973 13.8423 16.7186 13.6132C16.7447 13.3307 16.7348 13.2478 16.3574 12.5499C16.2772 12.4015 16.1833 12.2425 16.0863 12.0782C15.727 11.4699 15.3246 10.7887 15.4137 10.3007C15.5142 9.74993 16.3913 9.43412 17.1343 9.16662C17.2271 9.13317 17.3179 9.1005 17.4048 9.06822C17.6216 8.98764 17.894 8.88722 18.1786 8.78231C18.9204 8.5089 19.7446 8.20512 19.8805 8.14345C20.0687 8.05806 20.02 7.97677 19.4502 7.92362C19.3748 7.91659 19.2811 7.90678 19.1735 7.89553C18.4681 7.82176 17.1671 7.68571 16.5346 7.85922C16.4102 7.89333 16.2707 7.93049 16.1245 7.96946C15.4138 8.15882 14.543 8.39088 14.4593 8.52466C14.4447 8.54807 14.4303 8.56819 14.4167 8.58718C14.3367 8.69915 14.2845 8.77214 14.3731 9.24788C14.3994 9.38954 14.4536 9.6682 14.5207 10.0128C14.717 11.0216 15.0231 12.5952 15.0617 12.9487C15.0671 12.9982 15.0731 13.046 15.0788 13.0919C15.1279 13.4863 15.1606 13.7488 14.6951 13.8535C14.6564 13.8622 14.6157 13.8714 14.5734 13.881C14.0481 13.9995 13.2781 14.1734 12.9999 14.1734C12.7216 14.1734 11.951 13.9994 11.4258 13.8808C11.3837 13.8713 11.3433 13.8621 11.3047 13.8535C10.8392 13.7488 10.8719 13.4863 10.921 13.0919C10.9267 13.046 10.9326 12.9982 10.9381 12.9487C10.9767 12.5947 11.2837 11.0172 11.48 10.0086C11.5466 9.66596 11.6005 9.38897 11.6268 9.24788C11.7153 8.77219 11.6632 8.69917 11.5832 8.58723C11.5696 8.56821 11.5552 8.54807 11.5406 8.52466C11.4569 8.39088 10.5861 8.15884 9.87546 7.96949C9.72918 7.93052 9.58969 7.89333 9.46523 7.85922C8.83276 7.68574 7.53187 7.82176 6.82642 7.89553C6.71879 7.90678 6.62503 7.91659 6.54959 7.92362C5.9798 7.97677 5.93118 8.05806 6.1193 8.14345C6.25521 8.2051 7.07896 8.50874 7.82057 8.78208C8.10539 8.88706 8.37811 8.98757 8.59507 9.06822C8.68199 9.10052 8.7728 9.13321 8.86569 9.16666C9.60858 9.43417 10.4856 9.74997 10.5862 10.3007C10.6752 10.7886 10.273 11.4697 9.91372 12.0779C9.81664 12.2423 9.72268 12.4014 9.64242 12.5499C9.2651 13.2478 9.25508 13.3307 9.28127 13.6132C9.30247 13.8423 10.1475 14.3589 10.6156 14.6451C10.7247 14.7118 10.8134 14.766 10.8664 14.8011C10.9128 14.832 10.9933 14.8802 11.0952 14.9412C11.6081 15.2484 12.664 15.881 12.664 16.2611C12.664 16.7169 11.1962 17.9081 10.7331 18.204C10.2699 18.4998 9.01056 19.1474 8.47431 19.2462C7.93806 19.345 7.10118 18.7476 6.61264 17.8527C6.15344 17.0114 6.51414 16.1812 6.80634 15.5086C6.82495 15.4657 6.84331 15.4235 6.86114 15.382C7.12774 14.7611 6.74988 14.3873 6.4933 14.1335C6.46332 14.1038 6.43498 14.0758 6.40953 14.0492C6.26892 13.9023 5.57619 13.1784 4.93317 12.5065C4.46441 12.0167 4.02208 11.5545 3.83931 11.3635C3.76421 11.2851 3.68921 11.2133 3.61652 11.1438C3.26936 10.8116 2.97461 10.5296 2.97461 9.80901C2.97461 8.93753 6.40245 4.86 6.40245 4.86C6.40245 4.86 9.29494 5.40367 9.68493 5.40367C9.99613 5.40367 10.5971 5.20004 11.2235 4.98775C11.3821 4.934 11.5423 4.8797 11.6999 4.82801C12.4799 4.57217 12.9999 4.57031 12.9999 4.57031C12.9999 4.57031 13.5199 4.57217 14.2999 4.82801C14.4575 4.8797 14.6178 4.934 14.7764 4.98775C15.4028 5.20004 16.0037 5.40367 16.3149 5.40367ZM15.8185 19.8264C16.43 20.1365 16.8637 20.3564 17.0277 20.4574C17.2399 20.5881 17.1105 20.8346 16.9172 20.969C16.7239 21.1035 14.1265 23.0828 13.8744 23.3014C13.8422 23.3296 13.8079 23.3598 13.7723 23.3914C13.5294 23.6068 13.2196 23.8817 13 23.8817C12.7802 23.8817 12.4702 23.6065 12.2273 23.3912C12.1918 23.3596 12.1577 23.3293 12.1255 23.3014C11.8734 23.0828 9.276 21.1035 9.08267 20.969C8.88938 20.8346 8.76001 20.5881 8.97219 20.4574C9.13629 20.3564 9.57047 20.1362 10.1825 19.8259C10.3619 19.7349 10.5566 19.6362 10.7643 19.5304C11.6802 19.064 12.8218 18.6674 13 18.6674C13.1781 18.6674 14.3197 19.064 15.2357 19.5304C15.4438 19.6364 15.6388 19.7353 15.8185 19.8264Z" fill="white"/>
<path fill-rule="evenodd" clip-rule="evenodd" d="M20.3459 2.97516L17.6809 0H13.0009H8.32091L5.65593 2.97516C5.65593 2.97516 3.31593 2.33557 2.21094 3.42291C2.21094 3.42291 5.33092 3.14576 6.40342 4.86202C6.40342 4.86202 9.29591 5.40572 9.68593 5.40572C10.0759 5.40572 10.9209 5.08591 11.7009 4.83006C12.4809 4.57422 13.0009 4.57236 13.0009 4.57236C13.0009 4.57236 13.5209 4.57422 14.3009 4.83006C15.0809 5.08591 15.9259 5.40572 16.3159 5.40572C16.7059 5.40572 19.5984 4.86202 19.5984 4.86202C20.6709 3.14576 23.7909 3.42291 23.7909 3.42291C22.6859 2.33557 20.3459 2.97516 20.3459 2.97516Z" fill="url(#paint1_linear_5294_70)"/>
<defs>
<linearGradient id="paint0_linear_5294_70" x1="0" y1="30.2117" x2="26" y2="30.2117" gradientUnits="userSpaceOnUse">
<stop stop-color="#FF5500"/>
<stop offset="0.409877" stop-color="#FF5500"/>
<stop offset="0.581981" stop-color="#FF2000"/>
<stop offset="1" stop-color="#FF2000"/>
</linearGradient>
<linearGradient id="paint1_linear_5294_70" x1="2.67456" y1="5.38579" x2="23.7909" y2="5.38579" gradientUnits="userSpaceOnUse">
<stop stop-color="#FF452A"/>
<stop offset="1" stop-color="#FF2000"/>
</linearGradient>
</defs>
</svg>
