<svg width="30" height="30" viewBox="0 0 30 30" fill="none" xmlns="http://www.w3.org/2000/svg">
<path d="M30.0002 15.0183C30.0002 19.4641 28.06 23.4616 25.0002 26.2263C21.157 28.0943 17.5749 26.7867 16.3809 25.9647C20.1495 25.1428 23.0226 20.5476 23.0226 15.0183C23.0226 9.48905 20.1495 4.89377 16.3809 4.07186C17.5749 3.24995 21.157 1.94234 25.0002 3.81032C28.06 6.57497 30.0002 10.5725 30.0002 15.0183Z" fill="#FF1B2D"/>
<path d="M10.0746 6.53799C8.43282 8.4807 7.35074 11.3948 7.27611 14.6451V15.3549C7.35074 18.6052 8.43282 21.5193 10.0746 23.462C12.2388 26.264 15.4104 28.0199 18.9925 28.0199C21.194 28.0199 23.2463 27.3475 25 26.1893C22.3507 28.5803 18.8433 30 15 30C14.7761 30 14.5149 30 14.291 30C6.34327 29.6638 0 23.0884 0 15.0187C0 6.72477 6.71642 0 15 0C15.0373 0 15.0373 0 15.0746 0C18.8806 0 22.3507 1.45703 24.9999 3.81069C23.2462 2.65255 21.194 1.98008 18.9925 1.98008C15.4104 1.98008 12.2015 3.77334 10.0746 6.53799Z" fill="#FF1B2D"/>
</svg>
