<svg width="30" height="30" viewBox="0 0 30 30" fill="none" xmlns="http://www.w3.org/2000/svg">
<path d="M29.9996 14.9288C29.9996 16.8892 29.6116 18.8305 28.8578 20.6417C28.104 22.453 26.9991 24.0987 25.6063 25.485C24.2134 26.8712 22.5598 27.9709 20.74 28.7211C18.9201 29.4714 16.9696 29.8575 14.9998 29.8575C11.0216 29.8575 7.20634 28.2847 4.39334 25.485C1.58033 22.6853 -2.53993e-07 18.8881 0 14.9288C-2.53993e-07 10.9694 1.58033 7.17222 4.39334 4.37253C7.20634 1.57285 11.0216 1.01116e-06 14.9998 0C16.9696 -1.25169e-07 18.9201 0.386145 20.74 1.13638C22.5598 1.88662 24.2134 2.98627 25.6063 4.37253C26.9991 5.75879 28.104 7.40452 28.8578 9.21576C29.6116 11.027 29.9996 12.9683 29.9996 14.9288Z" fill="url(#paint0_linear_5407_108)"/>
<path d="M28.8246 14.9308C28.8246 18.5799 27.3681 22.0796 24.7756 24.6599C22.183 27.2402 18.6667 28.6898 15.0002 28.6898C11.3337 28.6898 7.81745 27.2402 5.22486 24.6599C2.63228 22.0796 1.17578 18.5799 1.17578 14.9308C1.17578 11.2817 2.63228 7.78208 5.22486 5.20178C7.81745 2.62147 11.3337 1.17188 15.0002 1.17188C18.6667 1.17188 22.183 2.62147 24.7756 5.20178C27.3681 7.78208 28.8246 11.2817 28.8246 14.9308Z" fill="url(#paint1_radial_5407_108)"/>
<path d="M14.999 1.88672C14.8874 1.88672 14.7975 1.97618 14.7975 2.08732V4.40116C14.7975 4.5123 14.8874 4.60176 14.999 4.60176C15.1107 4.60176 15.2006 4.5123 15.2006 4.40116V2.08732C15.2006 1.97618 15.1107 1.88672 14.999 1.88672ZM13.6805 1.96966C13.6671 1.96823 13.6534 1.96823 13.6395 1.96983C13.5284 1.98136 13.4483 2.07963 13.4599 2.19017L13.5615 3.15818C13.5731 3.26871 13.6719 3.34842 13.7829 3.33687C13.894 3.32534 13.9741 3.22707 13.9625 3.11654L13.8609 2.14853C13.8508 2.05181 13.7739 1.97869 13.6805 1.96966ZM16.3268 1.97061C16.2334 1.97957 16.1565 2.05269 16.1462 2.14939L16.0439 3.11732C16.0323 3.22785 16.1123 3.32621 16.2234 3.33783C16.3345 3.34946 16.4332 3.26983 16.4449 3.15931L16.5472 2.1913C16.5589 2.08077 16.4788 1.98249 16.3677 1.97087C16.3538 1.96944 16.3402 1.96943 16.3268 1.97061ZM12.326 2.16515C12.3126 2.16526 12.2989 2.16658 12.2853 2.16944C12.176 2.19246 12.1067 2.29854 12.1298 2.40727L12.6113 4.6709C12.6344 4.77962 12.741 4.84863 12.8502 4.82561C12.9595 4.80259 13.0288 4.6966 13.0057 4.58787L12.5242 2.32416C12.504 2.22902 12.4199 2.16442 12.326 2.16515ZM17.6812 2.16706C17.5873 2.16611 17.5032 2.23089 17.4829 2.32601L16.9998 4.58938C16.9766 4.69809 17.0458 4.8042 17.155 4.82729C17.2643 4.8504 17.3709 4.78144 17.3941 4.67275L17.8772 2.40938C17.9005 2.30067 17.8312 2.19456 17.722 2.17147C17.7083 2.16861 17.6946 2.16706 17.6812 2.16706ZM11.0333 2.52791C11.0072 2.52552 10.9803 2.52838 10.9537 2.53715C10.8475 2.57151 10.7898 2.68417 10.8243 2.78987L11.1265 3.71555C11.161 3.82124 11.2743 3.87871 11.3805 3.84437C11.4867 3.81001 11.5443 3.69726 11.5098 3.59157L11.2076 2.66589C11.1818 2.58662 11.1116 2.53453 11.0333 2.52791ZM18.9666 2.52838C18.8883 2.53501 18.8182 2.58711 18.7923 2.66638L18.4899 3.59197C18.4554 3.69766 18.5131 3.81042 18.6192 3.84478C18.7254 3.87914 18.8387 3.82171 18.8733 3.71604L19.1756 2.79036C19.2101 2.68467 19.1524 2.57192 19.0463 2.53756C19.0197 2.52898 18.9927 2.52619 18.9666 2.52838ZM9.75501 2.99347C9.72882 2.99395 9.70232 2.99967 9.67681 3.01096C9.57483 3.05609 9.52915 3.17416 9.57451 3.27571L10.5188 5.39009C10.5641 5.49163 10.6827 5.53704 10.7848 5.4919C10.8868 5.44677 10.9325 5.3287 10.8872 5.22715L9.94282 3.11278C9.90882 3.0366 9.83356 2.99195 9.75501 2.99347ZM20.2593 3.00057C20.1808 2.99914 20.1055 3.04351 20.0713 3.11961L19.1242 5.23269C19.0787 5.33418 19.1242 5.45234 19.2262 5.49761C19.3281 5.54289 19.4469 5.49764 19.4924 5.39615L20.4395 3.28307C20.485 3.18158 20.4395 3.06343 20.3375 3.01815C20.3121 3.00685 20.2855 3.00114 20.2593 3.00057ZM8.56848 3.6183C8.52979 3.61544 8.48992 3.62401 8.45366 3.64489C8.35696 3.70046 8.32406 3.82266 8.37989 3.9189L8.86886 4.76181C8.92469 4.85806 9.04747 4.8908 9.14418 4.83523C9.24088 4.77966 9.27377 4.65746 9.21795 4.56122L8.72898 3.71831C8.69407 3.65815 8.63298 3.62279 8.56848 3.6183ZM21.4296 3.6183C21.3651 3.62258 21.3041 3.65814 21.2692 3.71829L20.7801 4.5612C20.7243 4.65745 20.7573 4.77965 20.854 4.83522C20.9507 4.89078 21.0735 4.85804 21.1293 4.7618L21.6183 3.91889C21.6741 3.82265 21.6412 3.70044 21.5445 3.64487C21.5082 3.62405 21.4683 3.61563 21.4296 3.6183ZM7.41632 4.3335C7.37754 4.33493 7.3387 4.34732 7.3048 4.37177C7.21442 4.43703 7.19444 4.56198 7.26003 4.65194L8.62514 6.52484C8.69071 6.6148 8.81634 6.63469 8.90672 6.56945C8.99711 6.50419 9.01709 6.37925 8.95149 6.28929L7.5863 4.41638C7.54531 4.36015 7.48093 4.33131 7.41632 4.3335ZM22.5962 4.3437C22.5316 4.34132 22.4672 4.37015 22.4261 4.4263L21.0584 6.29739C20.9927 6.38726 21.0125 6.51226 21.1028 6.57764C21.1931 6.64302 21.3187 6.62334 21.3844 6.53351L22.7521 4.66242C22.8178 4.57254 22.7979 4.44755 22.7076 4.38217C22.6738 4.35767 22.635 4.34508 22.5962 4.3437ZM6.38646 5.1931C6.33501 5.19024 6.28251 5.20735 6.24102 5.24453C6.15802 5.31889 6.15135 5.44521 6.22608 5.52781L6.8804 6.25124C6.95511 6.33384 7.08204 6.34049 7.16503 6.26611C7.24803 6.19176 7.2547 6.06535 7.17997 5.98275L6.52573 5.2594C6.48838 5.21808 6.43792 5.1958 6.38646 5.1931ZM23.6131 5.19453C23.5616 5.19739 23.5112 5.21955 23.4738 5.26085L22.8195 5.98411C22.7448 6.0667 22.7514 6.19311 22.8344 6.26748C22.9174 6.34184 23.0443 6.33517 23.119 6.25261L23.7734 5.52935C23.8481 5.44676 23.8414 5.32034 23.7585 5.24598C23.717 5.20881 23.6645 5.19185 23.6131 5.19453ZM5.3994 6.13674C5.34795 6.1396 5.29757 6.16176 5.26022 6.20306C5.18551 6.28566 5.19219 6.41199 5.27516 6.48634L7.00302 8.03441C7.08601 8.10877 7.21294 8.10212 7.28764 8.01955C7.36235 7.93695 7.35576 7.81062 7.27275 7.73627L5.54481 6.18819C5.50329 6.15102 5.45086 6.13405 5.3994 6.13674ZM24.6049 6.14351C24.5535 6.14065 24.5009 6.15771 24.4594 6.19485L22.7305 7.74172C22.6475 7.81601 22.6406 7.94234 22.7153 8.02499C22.7899 8.10764 22.9169 8.11435 23 8.04005L24.729 6.49319C24.812 6.41889 24.8188 6.29256 24.7441 6.20991C24.7068 6.16859 24.6564 6.14624 24.6049 6.14351ZM4.57858 7.1872C4.51396 7.18481 4.44954 7.21379 4.40852 7.26996C4.34288 7.35987 4.36279 7.4848 4.45315 7.55013L5.24431 8.12222C5.33465 8.18755 5.46016 8.16783 5.5258 8.0779C5.59144 7.98799 5.57158 7.86298 5.48127 7.79765L4.69011 7.22556C4.65625 7.20106 4.61735 7.18858 4.57858 7.1872ZM25.425 7.19449C25.3862 7.19592 25.3473 7.20826 25.3135 7.23276L24.5219 7.80434C24.4316 7.8696 24.4116 7.99463 24.4771 8.08459C24.5427 8.17454 24.6682 8.19435 24.7586 8.1291L25.5502 7.55752C25.6406 7.49226 25.6605 7.36731 25.5949 7.27736C25.554 7.22114 25.4896 7.19229 25.425 7.19449ZM3.81151 8.30769C3.74702 8.31198 3.686 8.34753 3.65111 8.40769C3.59527 8.50393 3.62817 8.62613 3.72487 8.6817L5.73822 9.83862C5.83493 9.89419 5.95771 9.86145 6.01354 9.76521C6.06938 9.66896 6.03648 9.54676 5.93978 9.49119L3.92642 8.33426C3.89018 8.31344 3.85021 8.30502 3.81151 8.30769ZM26.1866 8.30769C26.1479 8.30483 26.1079 8.31341 26.0716 8.33428L24.0583 9.49121C23.9616 9.54678 23.9287 9.66898 23.9845 9.76522C24.0404 9.86147 24.1631 9.89421 24.2598 9.83864L26.2733 8.68172C26.37 8.62615 26.4029 8.50395 26.3471 8.4077C26.3121 8.34755 26.2511 8.31218 26.1866 8.30769ZM3.23156 9.50201C3.15301 9.50011 3.07769 9.54486 3.04358 9.62097C2.99809 9.72247 3.04355 9.84062 3.14553 9.88589L4.03872 10.2824C4.14071 10.3277 4.25943 10.2824 4.30491 10.1809C4.3504 10.0794 4.30485 9.96129 4.20287 9.91602L3.30976 9.5195C3.28429 9.50816 3.25774 9.50254 3.23156 9.50201ZM26.7704 9.51026C26.7442 9.51073 26.7176 9.51645 26.6921 9.52775L25.7988 9.92357C25.6967 9.9688 25.6511 10.0869 25.6965 10.1884C25.742 10.2899 25.8607 10.3353 25.9627 10.2901L26.8561 9.89422C26.9581 9.84904 27.0036 9.73092 26.9582 9.62939C26.9242 9.55324 26.849 9.5087 26.7704 9.51026ZM2.71467 10.7503C2.63639 10.7568 2.5662 10.8089 2.54026 10.8881C2.50569 10.9938 2.56324 11.1066 2.66944 11.141L4.87991 11.8579C4.98607 11.8923 5.0994 11.8349 5.134 11.7293C5.16857 11.6236 5.11102 11.5108 5.00482 11.4764L2.79436 10.7596C2.76783 10.7509 2.74077 10.7481 2.71467 10.7503ZM27.2864 10.7589C27.2603 10.7565 27.2333 10.7594 27.2068 10.7681L24.9958 11.4834C24.8896 11.5178 24.8319 11.6305 24.8664 11.7362C24.9009 11.8419 25.0142 11.8993 25.1204 11.865L27.3313 11.1497C27.4375 11.1153 27.4953 11.0026 27.4608 10.8969C27.4349 10.8176 27.3646 10.7655 27.2864 10.7589ZM2.39264 12.0606C2.29874 12.0597 2.21453 12.1246 2.19422 12.2197C2.171 12.3284 2.24028 12.4345 2.34949 12.4576L3.30611 12.6599C3.41533 12.683 3.52193 12.6141 3.54515 12.5054C3.56838 12.3967 3.49909 12.2906 3.38988 12.2675L2.43335 12.0651C2.4197 12.0623 2.40605 12.0606 2.39264 12.0606ZM27.6059 12.0626C27.5925 12.0627 27.5789 12.0645 27.5653 12.0668L26.6086 12.2691C26.4994 12.2922 26.4302 12.3982 26.4534 12.5069C26.4766 12.6156 26.5832 12.6846 26.6924 12.6615L27.6489 12.4593C27.7582 12.4362 27.8275 12.3301 27.8043 12.2214C27.784 12.1263 27.6998 12.0618 27.6059 12.0626ZM2.1489 13.3787C2.05543 13.3876 1.97849 13.4606 1.96823 13.5573C1.95649 13.6678 2.03637 13.7662 2.14742 13.7779L4.4594 14.0212C4.57045 14.0328 4.66932 13.9533 4.68105 13.8427C4.69278 13.7322 4.61282 13.6338 4.50177 13.6221L2.18979 13.3789C2.1759 13.3774 2.16226 13.3774 2.1489 13.3787ZM27.8513 13.396C27.838 13.3946 27.8242 13.3946 27.8104 13.3962L25.4981 13.6363C25.3871 13.6479 25.307 13.7461 25.3186 13.8567C25.3302 13.9672 25.4289 14.0469 25.54 14.0353L27.8522 13.7952C27.9633 13.7837 28.0433 13.6854 28.0317 13.5748C28.0216 13.4781 27.9448 13.405 27.8513 13.396ZM2.10975 14.7279C1.99809 14.7279 1.9082 14.8173 1.9082 14.9285C1.9082 15.0396 1.99809 15.1291 2.10975 15.1291H3.08768C3.19934 15.1291 3.28932 15.0396 3.28932 14.9285C3.28932 14.8173 3.19934 14.7279 3.08768 14.7279H2.10975ZM26.9104 14.7279C26.7987 14.7279 26.7088 14.8173 26.7088 14.9285C26.7088 15.0396 26.7987 15.1291 26.9104 15.1291H27.8883C28 15.1291 28.0899 15.0396 28.0899 14.9285C28.0899 14.8173 28 14.7279 27.8883 14.7279H26.9104ZM4.49907 15.8214C4.48571 15.82 4.47207 15.82 4.45818 15.8216L2.14584 16.0618C2.03478 16.0733 1.95472 16.1716 1.9663 16.2821C1.97789 16.3926 2.07663 16.4723 2.18768 16.4608L4.50002 16.2206C4.61108 16.2091 4.69114 16.1108 4.67956 16.0003C4.66941 15.9036 4.59253 15.8305 4.49907 15.8214ZM25.4978 15.8356C25.4043 15.8445 25.3274 15.9175 25.3171 16.0142C25.3054 16.1248 25.3853 16.2232 25.4963 16.2348L27.8083 16.4781C27.9193 16.4898 28.0182 16.4102 28.0299 16.2997C28.0417 16.1892 27.9617 16.0908 27.8507 16.0791L25.5388 15.8358C25.5249 15.8344 25.5111 15.8344 25.4978 15.8356ZM3.34647 17.1908C3.33306 17.1909 3.31942 17.1922 3.30577 17.1951L2.34915 17.3973C2.23993 17.4205 2.17068 17.5266 2.19388 17.6353C2.2171 17.744 2.3237 17.8129 2.43293 17.7898L3.38954 17.5876C3.49877 17.5645 3.56801 17.4584 3.54481 17.3497C3.52451 17.2546 3.44037 17.19 3.34647 17.1908ZM26.6513 17.1927C26.5574 17.1918 26.4733 17.2566 26.453 17.3517C26.4298 17.4604 26.499 17.5665 26.6082 17.5896L27.5648 17.7919C27.674 17.815 27.7806 17.7462 27.8038 17.6375C27.8271 17.5288 27.7578 17.4226 27.6486 17.3995L26.692 17.1971C26.6784 17.1943 26.6647 17.1927 26.6513 17.1927ZM4.95732 17.9828C4.93123 17.9804 4.90428 17.9833 4.87773 17.9921L2.66675 18.7074C2.56055 18.7417 2.50287 18.8545 2.53739 18.9602C2.57192 19.0659 2.6852 19.1233 2.7914 19.0889L5.0023 18.3736C5.1085 18.3392 5.16626 18.2265 5.13174 18.1208C5.10584 18.0415 5.0356 17.9894 4.95732 17.9828ZM25.0386 17.9899C24.9603 17.9965 24.8901 18.0485 24.8642 18.1278C24.8296 18.2334 24.8871 18.3462 24.9933 18.3806L27.2038 19.0975C27.31 19.1319 27.4233 19.0746 27.4579 18.9689C27.4925 18.8633 27.4349 18.7505 27.3287 18.716L25.1183 17.9992C25.0917 17.9906 25.0647 17.9877 25.0386 17.9899ZM4.11362 19.5495C4.08743 19.55 4.06092 19.5556 4.03542 19.5669L3.14196 19.9628C3.03995 20.008 2.99442 20.1261 3.03984 20.2277C3.08528 20.3292 3.20392 20.3745 3.30593 20.3293L4.1994 19.9335C4.30141 19.8883 4.34693 19.7702 4.30152 19.6686C4.26748 19.5925 4.19217 19.548 4.11362 19.5495ZM25.8812 19.5571C25.8027 19.5552 25.7274 19.6 25.6932 19.6761C25.6478 19.7776 25.6932 19.8957 25.7952 19.941L26.6883 20.3375C26.7903 20.3828 26.909 20.3376 26.9545 20.2361C27 20.1346 26.9545 20.0164 26.8525 19.9711L25.9594 19.5746C25.934 19.5633 25.9074 19.5577 25.8812 19.5571ZM5.85314 19.9918C5.81445 19.989 5.77449 19.9976 5.73822 20.0184L3.72487 21.1754C3.62817 21.2309 3.59527 21.3531 3.65111 21.4494C3.70694 21.5456 3.82972 21.5784 3.92642 21.5228L5.93978 20.3659C6.03648 20.3104 6.06937 20.1881 6.01354 20.0918C5.97863 20.0317 5.91763 19.9963 5.85314 19.9918ZM24.145 19.9918C24.0805 19.9961 24.0194 20.0317 23.9845 20.0918C23.9287 20.1881 23.9616 20.3104 24.0583 20.3659L26.0716 21.5228C26.1684 21.5783 26.2912 21.5456 26.3471 21.4494C26.4029 21.3531 26.37 21.2309 26.2733 21.1753L24.2598 20.0184C24.2236 19.9976 24.1837 19.9892 24.145 19.9918ZM5.35095 21.6896C5.31216 21.691 5.27332 21.7035 5.23943 21.728L4.44792 22.2995C4.35754 22.3648 4.33755 22.4898 4.4031 22.5797C4.46868 22.6697 4.59422 22.6896 4.6846 22.6243L5.47619 22.0527C5.56658 21.9874 5.58657 21.8625 5.52101 21.7725C5.48002 21.7163 5.41557 21.6874 5.35095 21.6896ZM24.6423 21.6964C24.5777 21.694 24.5133 21.723 24.4723 21.7791C24.4066 21.869 24.4265 21.9941 24.5169 22.0594L25.3081 22.6315C25.3984 22.6968 25.5239 22.677 25.5896 22.5871C25.6552 22.4972 25.6353 22.3722 25.545 22.3069L24.7539 21.7348C24.72 21.7103 24.6811 21.6978 24.6423 21.6964ZM7.14361 21.7656C7.09217 21.7628 7.03969 21.7798 6.99817 21.817L5.26918 23.3638C5.18614 23.4381 5.1794 23.5645 5.25405 23.6471C5.3287 23.7298 5.45563 23.7365 5.53868 23.6622L7.26766 22.1153C7.3507 22.041 7.35745 21.9147 7.28279 21.832C7.24549 21.7907 7.19506 21.7684 7.14361 21.7656ZM22.8497 21.7712C22.7982 21.774 22.7478 21.7962 22.7104 21.8375C22.6357 21.9201 22.6424 22.0464 22.7253 22.1208L24.4532 23.6688C24.5362 23.7432 24.6632 23.7365 24.7379 23.654C24.8126 23.5714 24.8059 23.445 24.723 23.3707L22.995 21.8226C22.9535 21.7854 22.9011 21.7685 22.8497 21.7712ZM8.78387 23.2407C8.71926 23.2383 8.65478 23.2671 8.61372 23.3233L7.24609 25.1944C7.18039 25.2843 7.20017 25.4093 7.29043 25.4746C7.38072 25.54 7.50632 25.5203 7.57201 25.4305L8.93964 23.5594C9.00533 23.4695 8.98556 23.3445 8.8953 23.2791C8.86145 23.2546 8.82264 23.242 8.78387 23.2407ZM21.203 23.2491C21.1642 23.2505 21.1254 23.2629 21.0915 23.2874C21.0011 23.3526 20.9811 23.4776 21.0466 23.5675L22.4117 25.4404C22.4773 25.5304 22.6029 25.5503 22.6932 25.485C22.7836 25.4198 22.8036 25.2948 22.7381 25.2049L21.373 23.332C21.332 23.2758 21.2676 23.2469 21.203 23.2491ZM7.01835 23.5381C6.9669 23.541 6.91644 23.5631 6.87908 23.6044L6.22475 24.3277C6.15003 24.4103 6.15664 24.5367 6.23964 24.611C6.32263 24.6854 6.44955 24.6787 6.52427 24.5961L7.17868 23.8729C7.25341 23.7903 7.2467 23.6639 7.16374 23.5895C7.12222 23.5523 7.0698 23.5354 7.01835 23.5381ZM22.9785 23.539C22.9271 23.5362 22.8746 23.5533 22.8331 23.5905C22.7501 23.6648 22.7435 23.7912 22.8182 23.8737L23.4724 24.5972C23.5471 24.6798 23.674 24.6864 23.757 24.6121C23.84 24.5377 23.8467 24.4113 23.772 24.3287L23.1177 23.6053C23.0804 23.564 23.03 23.5417 22.9785 23.539ZM10.6937 24.3414C10.6152 24.3395 10.5399 24.3843 10.5058 24.4604L9.55859 26.5735C9.5131 26.675 9.55857 26.7931 9.66054 26.8384C9.76252 26.8837 9.88124 26.8384 9.92673 26.7369L10.8739 24.6238C10.9194 24.5224 10.874 24.4042 10.772 24.3589C10.7465 24.3476 10.7199 24.342 10.6937 24.3414ZM19.2916 24.3472C19.2654 24.3477 19.2388 24.3533 19.2133 24.3646C19.1113 24.4098 19.0656 24.5278 19.111 24.6294L20.0552 26.7438C20.1006 26.8453 20.2193 26.8907 20.3213 26.8456C20.4233 26.8005 20.469 26.6824 20.4236 26.5808L19.4794 24.4665C19.4454 24.3903 19.3701 24.3458 19.2916 24.3472ZM9.02926 24.9948C8.96477 24.999 8.90375 25.0346 8.86886 25.0947L8.37989 25.9377C8.32406 26.0339 8.35696 26.1561 8.45366 26.2117C8.55036 26.2672 8.67315 26.2345 8.72898 26.1383L9.21795 25.2953C9.27377 25.1991 9.24088 25.0769 9.14418 25.0213C9.10793 25.0005 9.06796 24.9921 9.02926 24.9948ZM20.9688 24.9948C20.9301 24.9919 20.8902 25.0005 20.854 25.0213C20.7573 25.0769 20.7244 25.1991 20.7802 25.2954L21.2692 26.1383C21.325 26.2345 21.4478 26.2673 21.5445 26.2117C21.6412 26.1561 21.6741 26.0339 21.6183 25.9377L21.1293 25.0948C21.0944 25.0346 21.0333 24.9992 20.9688 24.9948ZM12.8024 25.025C12.7085 25.024 12.6244 25.0888 12.6041 25.1839L12.1209 27.4473C12.0977 27.556 12.167 27.6621 12.2762 27.6852C12.3854 27.7083 12.492 27.6394 12.5152 27.5307L12.9984 25.2673C13.0216 25.1586 12.9523 25.0525 12.8431 25.0294C12.8295 25.0265 12.8158 25.025 12.8024 25.025ZM17.1885 25.0264C17.1751 25.0265 17.1616 25.0278 17.1479 25.0307C17.0387 25.0537 16.9694 25.1597 16.9925 25.2684L17.474 27.5321C17.4971 27.6409 17.6037 27.7099 17.7129 27.6869C17.8222 27.6638 17.8915 27.5578 17.8684 27.449L17.3868 25.1855C17.3665 25.0903 17.2824 25.0257 17.1885 25.0264ZM14.999 25.2547C14.8874 25.2547 14.7975 25.3442 14.7975 25.4553V27.7691C14.7975 27.8803 14.8874 27.9697 14.999 27.9697C15.1107 27.9697 15.2006 27.8803 15.2006 27.7691V25.4553C15.2006 25.3442 15.1107 25.2547 14.999 25.2547ZM11.2992 26.0024C11.221 26.009 11.1507 26.0611 11.1248 26.1404L10.8225 27.0661C10.788 27.1718 10.8457 27.2845 10.9519 27.3189C11.0581 27.3532 11.1714 27.2957 11.2059 27.19L11.5082 26.2644C11.5427 26.1588 11.485 26.046 11.3788 26.0116C11.3523 26.0031 11.3253 26.0002 11.2992 26.0024ZM18.6973 26.0029C18.6712 26.0005 18.6442 26.0033 18.6177 26.0121C18.5115 26.0464 18.4537 26.1592 18.4882 26.2649L18.7904 27.1905C18.825 27.2962 18.9382 27.3536 19.0444 27.3193C19.1506 27.2849 19.2084 27.1723 19.1739 27.0666L18.8716 26.1409C18.8457 26.0616 18.7756 26.0095 18.6973 26.0029ZM13.7339 26.5184C13.6404 26.5274 13.5634 26.6004 13.5532 26.6971L13.451 27.6651C13.4393 27.7756 13.5193 27.8739 13.6304 27.8855C13.7414 27.8972 13.8402 27.8176 13.8519 27.707L13.9541 26.7391C13.9658 26.6286 13.8858 26.5302 13.7748 26.5186C13.7609 26.5172 13.7472 26.5172 13.7339 26.5184ZM16.2561 26.5194C16.2427 26.5179 16.229 26.5179 16.2151 26.5195C16.1041 26.5311 16.024 26.6293 16.0356 26.7399L16.1372 27.708C16.1488 27.8185 16.2475 27.8981 16.3586 27.8866C16.4696 27.875 16.5497 27.7768 16.5381 27.6662L16.4366 26.6982C16.4264 26.6015 16.3496 26.5284 16.2561 26.5194Z" fill="#F4F2F3"/>
<g opacity="0.409" filter="url(#filter0_f_5407_108)">
<path d="M24.4469 6.90625L13.4195 13.2828L6.44727 24.2072L16.6471 16.688L24.4469 6.90625Z" fill="black"/>
</g>
<path d="M16.5807 16.5748L13.4199 13.2804L24.6325 5.77344L16.5807 16.5748Z" fill="#FF5150"/>
<path d="M16.5817 16.5757L13.4209 13.2812L5.36914 24.0827L16.5817 16.5757Z" fill="#F1F1F1"/>
<path opacity="0.243" d="M5.36914 24.0818L16.5817 16.5748L24.6335 5.77344L5.36914 24.0818Z" fill="black"/>
<defs>
<filter id="filter0_f_5407_108" x="3.90243" y="4.36141" width="23.0897" height="22.3905" filterUnits="userSpaceOnUse" color-interpolation-filters="sRGB">
<feFlood flood-opacity="0" result="BackgroundImageFix"/>
<feBlend mode="normal" in="SourceGraphic" in2="BackgroundImageFix" result="shape"/>
<feGaussianBlur stdDeviation="1.27242" result="effect1_foregroundBlur_5407_108"/>
</filter>
<linearGradient id="paint0_linear_5407_108" x1="14.9993" y1="29.8572" x2="14.9993" y2="-7.83038e-05" gradientUnits="userSpaceOnUse">
<stop stop-color="#BDBDBD"/>
<stop offset="1" stop-color="white"/>
</linearGradient>
<radialGradient id="paint1_radial_5407_108" cx="0" cy="0" r="1" gradientUnits="userSpaceOnUse" gradientTransform="translate(15.0625 12.9246) scale(14.9998 14.9287)">
<stop stop-color="#06C2E7"/>
<stop offset="0.25" stop-color="#0DB8EC"/>
<stop offset="0.5" stop-color="#12AEF1"/>
<stop offset="0.75" stop-color="#1F86F9"/>
<stop offset="1" stop-color="#107DDD"/>
</radialGradient>
</defs>
</svg>
