<svg width="1720" height="100" viewBox="0 0 1720 100" fill="none" xmlns="http://www.w3.org/2000/svg">
<g filter="url(#filter0_b_4069_10399)">
<path d="M0 50C0 22.3858 22.3858 0 50 0H1670C1697.61 0 1720 22.3858 1720 50C1720 77.6142 1697.61 100 1670 100H50C22.3858 100 0 77.6142 0 50Z" fill="white" fill-opacity="0.05"/>
<path d="M0.5 50C0.5 22.6619 22.6619 0.5 50 0.5H1670C1697.34 0.5 1719.5 22.6619 1719.5 50C1719.5 77.3381 1697.34 99.5 1670 99.5H50C22.6619 99.5 0.5 77.3381 0.5 50Z" stroke="url(#paint0_linear_4069_10399)" stroke-opacity="0.5"/>
</g>
<defs>
<filter id="filter0_b_4069_10399" x="-200" y="-200" width="2120" height="500" filterUnits="userSpaceOnUse" color-interpolation-filters="sRGB">
<feFlood flood-opacity="0" result="BackgroundImageFix"/>
<feGaussianBlur in="BackgroundImageFix" stdDeviation="100"/>
<feComposite in2="SourceAlpha" operator="in" result="effect1_backgroundBlur_4069_10399"/>
<feBlend mode="normal" in="SourceGraphic" in2="effect1_backgroundBlur_4069_10399" result="shape"/>
</filter>
<linearGradient id="paint0_linear_4069_10399" x1="0" y1="0" x2="1720" y2="100" gradientUnits="userSpaceOnUse">
<stop stop-color="white" stop-opacity="0.3"/>
<stop offset="1" stop-color="#E3E3E3" stop-opacity="0.2"/>
</linearGradient>
</defs>
</svg>
