<svg width="30" height="30" viewBox="0 0 30 30" fill="none" xmlns="http://www.w3.org/2000/svg">
<path d="M3.59554 7.21131C5.58277 7.21131 7.19489 5.5873 7.19489 3.5906V3.58693C7.19123 1.62034 5.57142 0 3.60304 0C1.61965 0 -0.00748004 1.6354 2.58646e-05 3.62071C0.00753177 5.5873 1.63466 7.21131 3.59554 7.21131Z" fill="white"/>
<path d="M16.9831 12.1806C17.2328 11.8788 17.4747 11.5866 17.7529 11.3248C19.0652 10.0841 20.6175 9.45989 22.4321 9.47494C23.4294 9.48228 24.4116 9.55388 25.3714 9.8322C27.5686 10.4674 28.8434 11.9864 29.4545 14.137C29.912 15.75 29.9943 17.4081 29.9982 19.0699C30.0017 20.6962 29.9995 22.3231 29.9973 23.9501C29.9947 25.8293 29.9921 27.7081 29.9982 29.5862C29.9982 29.7635 29.9716 29.87 29.8962 29.9306C29.8323 29.982 29.7335 30 29.5857 30C27.786 29.9849 25.9827 29.9849 24.1829 30C23.8642 30 23.7968 29.906 23.7968 29.6053C23.8038 27.5076 23.8064 25.41 23.8047 23.3115C23.8036 22.0734 23.8011 20.8353 23.7968 19.5965C23.7968 18.7619 23.7405 17.9233 23.5081 17.1111C23.0768 15.6148 22.0084 14.8515 20.4448 14.9341C18.3078 15.0468 17.1981 16.1072 16.928 18.2842C16.8643 18.803 16.8306 19.3259 16.8343 19.8484C16.8343 23.0931 16.8343 26.3378 16.8418 29.5825C16.8418 29.906 16.7631 30 16.4332 30C14.6186 29.9849 12.8038 29.9849 10.9892 30C10.6968 30 10.6143 29.9247 10.6143 29.6277C10.6218 23.2058 10.6218 16.7802 10.6143 10.3584C10.6143 10.0389 10.7192 9.96732 11.0192 9.96732C12.7401 9.9787 14.4648 9.98238 16.1857 9.96732C16.5044 9.96732 16.5831 10.069 16.5795 10.3697C16.5657 10.9253 16.5679 11.4804 16.5701 12.0371C16.571 12.2467 16.572 12.4564 16.572 12.6664C16.7157 12.5038 16.8504 12.3407 16.9831 12.1806Z" fill="white"/>
<path d="M6.69987 20.0099L6.6995 21.8968C6.69895 24.445 6.6984 26.9932 6.70737 29.5414C6.70737 29.8946 6.62115 30 6.25757 29.9963C4.4578 29.9776 2.65821 29.9813 0.854783 29.9963C0.566081 29.9963 0.479854 29.9247 0.479854 29.6277C0.48736 23.1948 0.48736 16.7615 0.479854 10.3246C0.479854 10.0576 0.543563 9.96365 0.82476 9.96365C2.65071 9.97503 4.47665 9.9787 6.3026 9.96365C6.65501 9.96365 6.69987 10.0951 6.69987 10.3999C6.69419 12.7927 6.69492 15.186 6.69566 17.5789L6.6962 20.0099H6.69987Z" fill="white"/>
</svg>
