<svg width="53" height="30" viewBox="0 0 53 30" fill="none" xmlns="http://www.w3.org/2000/svg">
<path d="M29.906 15C29.906 23.2781 23.227 30 14.953 30C6.679 30 0 23.2781 0 15C0 6.72185 6.679 0 14.953 0C23.227 0 29.906 6.72185 29.906 15Z" fill="white"/>
<path d="M46.2878 15.0001C46.2878 22.7815 42.9317 29.106 38.8113 29.106C34.6909 29.106 31.3348 22.7815 31.3348 15.0001C31.3348 7.21861 34.6909 0.894104 38.8113 0.894104C42.9317 0.894104 46.2878 7.18549 46.2878 15.0001Z" fill="white"/>
<path d="M53 14.9999C53 21.9866 51.837 27.6489 50.3749 27.6489C48.9129 27.6489 47.7498 21.9866 47.7498 14.9999C47.7498 8.01312 48.9129 2.35086 50.3749 2.35086C51.837 2.35086 53 8.01312 53 14.9999Z" fill="white"/>
</svg>
