<svg width="524" height="431" viewBox="0 0 524 431" fill="none" xmlns="http://www.w3.org/2000/svg">
<rect opacity="0.2" width="524" height="431" rx="30" fill="black"/>
<path d="M35.125 108.15V112.725H41.375V115.425H35.125V120.175H42.125V123H31.6V105.35H42.125V108.15H35.125ZM50.1598 108.975C51.3264 108.975 52.3181 109.25 53.1348 109.8C53.9681 110.35 54.5681 111.092 54.9348 112.025V104.5H58.4348V123H54.9348V120.1C54.5681 121.033 53.9681 121.783 53.1348 122.35C52.3181 122.9 51.3264 123.175 50.1598 123.175C48.9931 123.175 47.9431 122.892 47.0098 122.325C46.0764 121.758 45.3431 120.942 44.8098 119.875C44.2931 118.792 44.0348 117.525 44.0348 116.075C44.0348 114.625 44.2931 113.367 44.8098 112.3C45.3431 111.217 46.0764 110.392 47.0098 109.825C47.9431 109.258 48.9931 108.975 50.1598 108.975ZM51.2598 112.05C50.1598 112.05 49.2764 112.408 48.6098 113.125C47.9431 113.842 47.6098 114.825 47.6098 116.075C47.6098 117.325 47.9431 118.308 48.6098 119.025C49.2764 119.725 50.1598 120.075 51.2598 120.075C52.3264 120.075 53.2014 119.717 53.8848 119C54.5848 118.267 54.9348 117.292 54.9348 116.075C54.9348 114.842 54.5848 113.867 53.8848 113.15C53.2014 112.417 52.3264 112.05 51.2598 112.05ZM61.2293 105.175C61.2293 104.608 61.4293 104.15 61.8293 103.8C62.2293 103.433 62.7543 103.25 63.4043 103.25C64.0543 103.25 64.5793 103.433 64.9793 103.8C65.3793 104.15 65.5793 104.608 65.5793 105.175C65.5793 105.725 65.3793 106.183 64.9793 106.55C64.5793 106.9 64.0543 107.075 63.4043 107.075C62.7543 107.075 62.2293 106.9 61.8293 106.55C61.4293 106.183 61.2293 105.725 61.2293 105.175ZM65.1543 109.15V123H61.6293V109.15H65.1543ZM75.7432 119.975V123H73.8932C72.3432 123 71.1515 122.625 70.3182 121.875C69.5015 121.125 69.0932 119.875 69.0932 118.125V112.125H67.1682V109.15H69.0932V105.725H72.6182V109.15H75.7182V112.125H72.6182V118.175C72.6182 118.842 72.7515 119.308 73.0182 119.575C73.2848 119.842 73.7348 119.975 74.3682 119.975H75.7432ZM87.249 116.45V123H83.724V105.35H90.149C92.2324 105.35 93.799 105.85 94.849 106.85C95.9157 107.85 96.449 109.208 96.449 110.925C96.449 112.608 95.899 113.95 94.799 114.95C93.7157 115.95 92.1657 116.45 90.149 116.45H87.249ZM89.774 113.625C91.8407 113.625 92.874 112.725 92.874 110.925C92.874 110.042 92.6324 109.367 92.149 108.9C91.6657 108.433 90.874 108.2 89.774 108.2H87.249V113.625H89.774ZM104.164 108.975C105.33 108.975 106.33 109.25 107.164 109.8C107.997 110.35 108.589 111.092 108.939 112.025V109.15H112.439V123H108.939V120.1C108.589 121.033 107.997 121.783 107.164 122.35C106.33 122.9 105.33 123.175 104.164 123.175C102.997 123.175 101.947 122.892 101.014 122.325C100.08 121.758 99.347 120.942 98.8137 119.875C98.297 118.792 98.0387 117.525 98.0387 116.075C98.0387 114.625 98.297 113.367 98.8137 112.3C99.347 111.217 100.08 110.392 101.014 109.825C101.947 109.258 102.997 108.975 104.164 108.975ZM105.264 112.05C104.164 112.05 103.28 112.408 102.614 113.125C101.947 113.842 101.614 114.825 101.614 116.075C101.614 117.325 101.947 118.308 102.614 119.025C103.28 119.725 104.164 120.075 105.264 120.075C106.33 120.075 107.205 119.717 107.889 119C108.589 118.267 108.939 117.292 108.939 116.075C108.939 114.842 108.589 113.867 107.889 113.15C107.205 112.417 106.33 112.05 105.264 112.05ZM120.408 108.975C122.092 108.975 123.442 109.4 124.458 110.25C125.475 111.1 126.108 112.233 126.358 113.65H123.058C122.925 112.983 122.625 112.45 122.158 112.05C121.692 111.65 121.083 111.45 120.333 111.45C119.733 111.45 119.267 111.592 118.933 111.875C118.6 112.158 118.433 112.542 118.433 113.025C118.433 113.408 118.567 113.717 118.833 113.95C119.1 114.183 119.433 114.367 119.833 114.5C120.233 114.633 120.808 114.792 121.558 114.975C122.608 115.208 123.458 115.458 124.108 115.725C124.775 115.975 125.342 116.383 125.808 116.95C126.292 117.5 126.533 118.25 126.533 119.2C126.533 120.383 126.067 121.342 125.133 122.075C124.217 122.808 122.975 123.175 121.408 123.175C119.608 123.175 118.167 122.775 117.083 121.975C116 121.158 115.342 120 115.108 118.5H118.483C118.567 119.183 118.867 119.725 119.383 120.125C119.9 120.508 120.575 120.7 121.408 120.7C122.008 120.7 122.467 120.558 122.783 120.275C123.1 119.975 123.258 119.592 123.258 119.125C123.258 118.725 123.117 118.4 122.833 118.15C122.567 117.9 122.225 117.708 121.808 117.575C121.408 117.442 120.833 117.283 120.083 117.1C119.05 116.867 118.208 116.633 117.558 116.4C116.925 116.15 116.375 115.758 115.908 115.225C115.458 114.692 115.233 113.958 115.233 113.025C115.233 111.825 115.692 110.85 116.608 110.1C117.525 109.35 118.792 108.975 120.408 108.975ZM133.934 108.975C135.617 108.975 136.967 109.4 137.984 110.25C139 111.1 139.634 112.233 139.884 113.65H136.584C136.45 112.983 136.15 112.45 135.684 112.05C135.217 111.65 134.609 111.45 133.859 111.45C133.259 111.45 132.792 111.592 132.459 111.875C132.125 112.158 131.959 112.542 131.959 113.025C131.959 113.408 132.092 113.717 132.359 113.95C132.625 114.183 132.959 114.367 133.359 114.5C133.759 114.633 134.334 114.792 135.084 114.975C136.134 115.208 136.984 115.458 137.634 115.725C138.3 115.975 138.867 116.383 139.334 116.95C139.817 117.5 140.059 118.25 140.059 119.2C140.059 120.383 139.592 121.342 138.659 122.075C137.742 122.808 136.5 123.175 134.934 123.175C133.134 123.175 131.692 122.775 130.609 121.975C129.525 121.158 128.867 120 128.634 118.5H132.009C132.092 119.183 132.392 119.725 132.909 120.125C133.425 120.508 134.1 120.7 134.934 120.7C135.534 120.7 135.992 120.558 136.309 120.275C136.625 119.975 136.784 119.592 136.784 119.125C136.784 118.725 136.642 118.4 136.359 118.15C136.092 117.9 135.75 117.708 135.334 117.575C134.934 117.442 134.359 117.283 133.609 117.1C132.575 116.867 131.734 116.633 131.084 116.4C130.45 116.15 129.9 115.758 129.434 115.225C128.984 114.692 128.759 113.958 128.759 113.025C128.759 111.825 129.217 110.85 130.134 110.1C131.05 109.35 132.317 108.975 133.934 108.975ZM162.509 109.15L158.784 123H154.884L151.909 112.925L148.859 123H144.959L141.259 109.15H144.784L147.034 119.85L150.109 109.15H153.834L156.934 119.85L159.209 109.15H162.509ZM170.666 108.975C172.016 108.975 173.224 109.258 174.291 109.825C175.374 110.392 176.224 111.217 176.841 112.3C177.458 113.367 177.766 114.625 177.766 116.075C177.766 117.525 177.458 118.783 176.841 119.85C176.224 120.917 175.374 121.742 174.291 122.325C173.224 122.892 172.016 123.175 170.666 123.175C169.316 123.175 168.099 122.892 167.016 122.325C165.949 121.742 165.108 120.917 164.491 119.85C163.874 118.783 163.566 117.525 163.566 116.075C163.566 114.625 163.874 113.367 164.491 112.3C165.108 111.217 165.949 110.392 167.016 109.825C168.099 109.258 169.316 108.975 170.666 108.975ZM170.666 112.025C169.683 112.025 168.849 112.375 168.166 113.075C167.483 113.758 167.141 114.758 167.141 116.075C167.141 117.392 167.483 118.4 168.166 119.1C168.849 119.783 169.683 120.125 170.666 120.125C171.649 120.125 172.483 119.783 173.166 119.1C173.849 118.4 174.191 117.392 174.191 116.075C174.191 114.758 173.849 113.758 173.166 113.075C172.483 112.375 171.649 112.025 170.666 112.025ZM183.782 111.8C184.299 110.917 184.982 110.225 185.832 109.725C186.682 109.208 187.632 108.95 188.682 108.95V112.725H187.657C185.074 112.725 183.782 113.925 183.782 116.325V123H180.257V109.15H183.782V111.8ZM196.058 108.975C197.225 108.975 198.217 109.25 199.033 109.8C199.867 110.35 200.467 111.092 200.833 112.025V104.5H204.333V123H200.833V120.1C200.467 121.033 199.867 121.783 199.033 122.35C198.217 122.9 197.225 123.175 196.058 123.175C194.892 123.175 193.842 122.892 192.908 122.325C191.975 121.758 191.242 120.942 190.708 119.875C190.192 118.792 189.933 117.525 189.933 116.075C189.933 114.625 190.192 113.367 190.708 112.3C191.242 111.217 191.975 110.392 192.908 109.825C193.842 109.258 194.892 108.975 196.058 108.975ZM197.158 112.05C196.058 112.05 195.175 112.408 194.508 113.125C193.842 113.842 193.508 114.825 193.508 116.075C193.508 117.325 193.842 118.308 194.508 119.025C195.175 119.725 196.058 120.075 197.158 120.075C198.225 120.075 199.1 119.717 199.783 119C200.483 118.267 200.833 117.292 200.833 116.075C200.833 114.842 200.483 113.867 199.783 113.15C199.1 112.417 198.225 112.05 197.158 112.05Z" fill="#A1FF00"/>
<rect opacity="0.1" x="30" y="30" width="15" height="15" rx="7.5" fill="white"/>
<rect opacity="0.1" x="60" y="30" width="15" height="15" rx="7.5" fill="white"/>
<rect opacity="0.1" x="90" y="30" width="15" height="15" rx="7.5" fill="white"/>
<path d="M494 30L479 45M494 45L479 30" stroke="white" stroke-width="3" stroke-linecap="round" stroke-linejoin="round"/>
<rect x="122" y="346" width="130" height="35" rx="6" fill="#A1FF00"/>
<path d="M166.688 359.444C167.744 359.444 168.62 359.716 169.316 360.26C170.012 360.804 170.472 361.544 170.696 362.48H168.92C168.736 362.024 168.448 361.664 168.056 361.4C167.672 361.136 167.208 361.004 166.664 361.004C166.216 361.004 165.812 361.116 165.452 361.34C165.092 361.564 164.812 361.884 164.612 362.3C164.412 362.716 164.312 363.204 164.312 363.764C164.312 364.316 164.412 364.8 164.612 365.216C164.812 365.632 165.092 365.952 165.452 366.176C165.812 366.4 166.216 366.512 166.664 366.512C167.208 366.512 167.672 366.38 168.056 366.116C168.448 365.852 168.736 365.492 168.92 365.036H170.696C170.472 365.972 170.012 366.712 169.316 367.256C168.62 367.8 167.744 368.072 166.688 368.072C165.88 368.072 165.164 367.892 164.54 367.532C163.924 367.164 163.444 366.652 163.1 365.996C162.764 365.34 162.596 364.596 162.596 363.764C162.596 362.924 162.764 362.176 163.1 361.52C163.444 360.864 163.924 360.356 164.54 359.996C165.156 359.628 165.872 359.444 166.688 359.444ZM175.037 361.268C175.685 361.268 176.265 361.404 176.777 361.676C177.297 361.948 177.705 362.344 178.001 362.864C178.297 363.376 178.445 363.98 178.445 364.676C178.445 365.372 178.297 365.976 178.001 366.488C177.705 367 177.297 367.396 176.777 367.676C176.265 367.948 175.685 368.084 175.037 368.084C174.389 368.084 173.805 367.948 173.285 367.676C172.773 367.396 172.369 367 172.073 366.488C171.777 365.976 171.629 365.372 171.629 364.676C171.629 363.98 171.777 363.376 172.073 362.864C172.369 362.344 172.773 361.948 173.285 361.676C173.805 361.404 174.389 361.268 175.037 361.268ZM175.037 362.732C174.565 362.732 174.165 362.9 173.837 363.236C173.509 363.564 173.345 364.044 173.345 364.676C173.345 365.308 173.509 365.792 173.837 366.128C174.165 366.456 174.565 366.62 175.037 366.62C175.509 366.62 175.909 366.456 176.237 366.128C176.565 365.792 176.729 365.308 176.729 364.676C176.729 364.044 176.565 363.564 176.237 363.236C175.909 362.9 175.509 362.732 175.037 362.732ZM183.601 361.256C184.369 361.256 184.981 361.508 185.437 362.012C185.893 362.516 186.121 363.224 186.121 364.136V368H184.441V364.328C184.441 363.8 184.305 363.392 184.033 363.104C183.761 362.808 183.389 362.66 182.917 362.66C182.437 362.66 182.053 362.816 181.765 363.128C181.477 363.44 181.333 363.888 181.333 364.472V368H179.641V361.352H181.333V362.684C181.509 362.236 181.797 361.888 182.197 361.64C182.605 361.384 183.073 361.256 183.601 361.256ZM190.898 360.2C190.402 360.168 190.054 360.24 189.854 360.416C189.654 360.592 189.554 360.9 189.554 361.34V361.352H190.898V362.78H189.554V368H187.862V362.78H187.01V361.352H187.862V361.196C187.862 360.404 188.086 359.796 188.534 359.372C188.99 358.94 189.662 358.724 190.55 358.724C190.702 358.724 190.818 358.728 190.898 358.736V360.2ZM191.719 359.444C191.719 359.172 191.815 358.952 192.007 358.784C192.199 358.608 192.451 358.52 192.763 358.52C193.075 358.52 193.327 358.608 193.519 358.784C193.711 358.952 193.807 359.172 193.807 359.444C193.807 359.708 193.711 359.928 193.519 360.104C193.327 360.272 193.075 360.356 192.763 360.356C192.451 360.356 192.199 360.272 192.007 360.104C191.815 359.928 191.719 359.708 191.719 359.444ZM193.603 361.352V368H191.911V361.352H193.603ZM196.825 362.624C197.073 362.2 197.401 361.868 197.809 361.628C198.217 361.38 198.673 361.256 199.177 361.256V363.068H198.685C197.445 363.068 196.825 363.644 196.825 364.796V368H195.133V361.352H196.825V362.624ZM208.574 361.256C209.382 361.256 210.018 361.508 210.482 362.012C210.954 362.508 211.19 363.216 211.19 364.136V368H209.51V364.328C209.51 363.816 209.378 363.424 209.114 363.152C208.858 362.872 208.502 362.732 208.046 362.732C207.574 362.732 207.198 362.88 206.918 363.176C206.638 363.472 206.498 363.904 206.498 364.472V368H204.818V364.328C204.818 363.816 204.686 363.424 204.422 363.152C204.166 362.872 203.81 362.732 203.354 362.732C202.882 362.732 202.506 362.88 202.226 363.176C201.946 363.472 201.806 363.904 201.806 364.472V368H200.114V361.352H201.806V362.612C201.982 362.18 202.258 361.848 202.634 361.616C203.018 361.376 203.462 361.256 203.966 361.256C204.502 361.256 204.966 361.384 205.358 361.64C205.758 361.896 206.058 362.264 206.258 362.744C206.466 362.288 206.774 361.928 207.182 361.664C207.598 361.392 208.062 361.256 208.574 361.256Z" fill="#343434"/>
<rect x="272.5" y="346.5" width="129" height="34" rx="5.5" stroke="#A1FF00"/>
<path d="M319.963 359.444C321.019 359.444 321.895 359.716 322.591 360.26C323.287 360.804 323.747 361.544 323.971 362.48H322.195C322.011 362.024 321.723 361.664 321.331 361.4C320.947 361.136 320.483 361.004 319.939 361.004C319.491 361.004 319.087 361.116 318.727 361.34C318.367 361.564 318.087 361.884 317.887 362.3C317.687 362.716 317.587 363.204 317.587 363.764C317.587 364.316 317.687 364.8 317.887 365.216C318.087 365.632 318.367 365.952 318.727 366.176C319.087 366.4 319.491 366.512 319.939 366.512C320.483 366.512 320.947 366.38 321.331 366.116C321.723 365.852 322.011 365.492 322.195 365.036H323.971C323.747 365.972 323.287 366.712 322.591 367.256C321.895 367.8 321.019 368.072 319.963 368.072C319.155 368.072 318.439 367.892 317.815 367.532C317.199 367.164 316.719 366.652 316.375 365.996C316.039 365.34 315.871 364.596 315.871 363.764C315.871 362.924 316.039 362.176 316.375 361.52C316.719 360.864 317.199 360.356 317.815 359.996C318.431 359.628 319.147 359.444 319.963 359.444ZM327.845 361.268C328.405 361.268 328.885 361.4 329.285 361.664C329.685 361.928 329.969 362.284 330.137 362.732V361.352H331.817V368H330.137V366.608C329.969 367.056 329.685 367.416 329.285 367.688C328.885 367.952 328.405 368.084 327.845 368.084C327.285 368.084 326.781 367.948 326.333 367.676C325.885 367.404 325.533 367.012 325.277 366.5C325.029 365.98 324.905 365.372 324.905 364.676C324.905 363.98 325.029 363.376 325.277 362.864C325.533 362.344 325.885 361.948 326.333 361.676C326.781 361.404 327.285 361.268 327.845 361.268ZM328.373 362.744C327.845 362.744 327.421 362.916 327.101 363.26C326.781 363.604 326.621 364.076 326.621 364.676C326.621 365.276 326.781 365.748 327.101 366.092C327.421 366.428 327.845 366.596 328.373 366.596C328.885 366.596 329.305 366.424 329.633 366.08C329.969 365.728 330.137 365.26 330.137 364.676C330.137 364.084 329.969 363.616 329.633 363.272C329.305 362.92 328.885 362.744 328.373 362.744ZM337.31 361.256C338.078 361.256 338.69 361.508 339.146 362.012C339.602 362.516 339.83 363.224 339.83 364.136V368H338.15V364.328C338.15 363.8 338.014 363.392 337.742 363.104C337.47 362.808 337.098 362.66 336.626 362.66C336.146 362.66 335.762 362.816 335.474 363.128C335.186 363.44 335.042 363.888 335.042 364.472V368H333.35V361.352H335.042V362.684C335.218 362.236 335.506 361.888 335.906 361.64C336.314 361.384 336.782 361.256 337.31 361.256ZM344.307 361.268C345.163 361.268 345.875 361.5 346.443 361.964C347.019 362.428 347.379 363.06 347.523 363.86H345.735C345.663 363.508 345.499 363.232 345.243 363.032C344.987 362.824 344.663 362.72 344.271 362.72C343.823 362.72 343.447 362.888 343.143 363.224C342.847 363.552 342.699 364.036 342.699 364.676C342.699 365.316 342.847 365.804 343.143 366.14C343.447 366.468 343.823 366.632 344.271 366.632C344.663 366.632 344.987 366.532 345.243 366.332C345.499 366.124 345.663 365.844 345.735 365.492H347.523C347.379 366.292 347.019 366.924 346.443 367.388C345.875 367.852 345.163 368.084 344.307 368.084C343.659 368.084 343.083 367.948 342.579 367.676C342.075 367.396 341.683 367 341.403 366.488C341.123 365.976 340.983 365.372 340.983 364.676C340.983 363.98 341.123 363.376 341.403 362.864C341.683 362.344 342.075 361.948 342.579 361.676C343.083 361.404 343.659 361.268 344.307 361.268ZM354.977 364.424C354.977 364.592 354.957 364.784 354.917 365H350.045C350.069 365.592 350.229 366.028 350.525 366.308C350.821 366.588 351.189 366.728 351.629 366.728C352.021 366.728 352.345 366.632 352.601 366.44C352.865 366.248 353.033 365.988 353.105 365.66H354.893C354.805 366.124 354.617 366.54 354.329 366.908C354.041 367.276 353.669 367.564 353.213 367.772C352.765 367.98 352.265 368.084 351.713 368.084C351.065 368.084 350.489 367.948 349.985 367.676C349.481 367.396 349.089 367 348.809 366.488C348.529 365.976 348.389 365.372 348.389 364.676C348.389 363.98 348.529 363.376 348.809 362.864C349.089 362.344 349.481 361.948 349.985 361.676C350.489 361.404 351.065 361.268 351.713 361.268C352.369 361.268 352.941 361.404 353.429 361.676C353.925 361.948 354.305 362.324 354.569 362.804C354.841 363.276 354.977 363.816 354.977 364.424ZM353.273 364.256C353.297 363.712 353.153 363.3 352.841 363.02C352.537 362.74 352.161 362.6 351.713 362.6C351.257 362.6 350.873 362.74 350.561 363.02C350.249 363.3 350.077 363.712 350.045 364.256H353.273ZM357.87 359.12V368H356.178V359.12H357.87Z" fill="white"/>
<path opacity="0.1" d="M0 75H524" stroke="white" stroke-width="2"/>
<rect opacity="0.1" x="494" y="219" width="464" height="42" rx="4.25447" transform="rotate(180 494 219)" fill="white"/>
<path d="M32.4353 153.202V159.681C32.4353 160.743 32.6701 161.529 33.1398 162.04C33.6095 162.54 34.2579 162.79 35.0849 162.79C35.9018 162.79 36.54 162.535 36.9995 162.024C37.4589 161.514 37.6887 160.733 37.6887 159.681V153.202H39.0824V159.681C39.0824 161.151 38.7149 162.259 37.9797 163.004C37.2547 163.74 36.2796 164.107 35.0543 164.107C33.8392 164.107 32.8641 163.74 32.1289 163.004C31.404 162.259 31.0415 161.151 31.0415 159.681V153.202H32.4353ZM43.8784 155.484C44.828 155.484 45.5887 155.734 46.1605 156.235C46.7425 156.725 47.0948 157.389 47.2173 158.226H45.8848C45.8236 157.726 45.6142 157.317 45.2569 157.001C44.9097 156.674 44.44 156.51 43.8478 156.51C43.3475 156.51 42.9543 156.633 42.6684 156.878C42.3928 157.113 42.2549 157.435 42.2549 157.843C42.2549 158.149 42.3468 158.399 42.5306 158.593C42.7246 158.777 42.9594 158.92 43.2351 159.022C43.521 159.114 43.909 159.216 44.3992 159.329C45.022 159.472 45.5223 159.62 45.9001 159.773C46.2881 159.916 46.6149 160.151 46.8804 160.477C47.1561 160.804 47.2939 161.243 47.2939 161.794C47.2939 162.479 47.0335 163.035 46.5128 163.464C46.0022 163.893 45.3181 164.107 44.4604 164.107C43.4598 164.107 42.6429 163.867 42.0098 163.387C41.3768 162.907 41.0041 162.239 40.8918 161.381H42.2396C42.2906 161.891 42.5102 162.305 42.8982 162.622C43.2964 162.938 43.8171 163.096 44.4604 163.096C44.9403 163.096 45.313 162.974 45.5785 162.729C45.8542 162.484 45.992 162.162 45.992 161.764C45.992 161.437 45.895 161.177 45.701 160.983C45.507 160.789 45.2671 160.641 44.9812 160.539C44.6953 160.436 44.3022 160.329 43.8018 160.217C43.179 160.074 42.6787 159.931 42.3009 159.788C41.9333 159.645 41.6167 159.42 41.3513 159.114C41.096 158.798 40.9684 158.374 40.9684 157.843C40.9684 157.138 41.2287 156.572 41.7495 156.143C42.2702 155.704 42.9799 155.484 43.8784 155.484ZM56.891 159.329C56.891 159.625 56.8706 159.88 56.8297 160.094H50.106C50.1366 161.054 50.4072 161.774 50.9177 162.254C51.4385 162.734 52.0715 162.974 52.8169 162.974C53.4908 162.974 54.0524 162.805 54.5017 162.468C54.9612 162.121 55.242 161.662 55.3441 161.09H56.8297C56.7276 161.672 56.4979 162.193 56.1405 162.652C55.7933 163.112 55.339 163.469 54.7774 163.724C54.2158 163.98 53.5827 164.107 52.8782 164.107C52.0715 164.107 51.3568 163.934 50.7339 163.586C50.1111 163.239 49.6209 162.744 49.2636 162.101C48.9164 161.447 48.7428 160.682 48.7428 159.803C48.7428 158.925 48.9164 158.159 49.2636 157.506C49.6209 156.852 50.1111 156.352 50.7339 156.005C51.3568 155.658 52.0715 155.484 52.8782 155.484C53.695 155.484 54.4047 155.658 55.0071 156.005C55.6198 156.352 56.0843 156.817 56.4009 157.399C56.7276 157.981 56.891 158.624 56.891 159.329ZM55.4819 159.42C55.5125 158.798 55.4104 158.277 55.1756 157.858C54.9407 157.44 54.6191 157.128 54.2107 156.924C53.8022 156.72 53.3581 156.618 52.8782 156.618C52.1124 156.618 51.4691 156.858 50.9483 157.338C50.4276 157.807 50.1468 158.502 50.106 159.42H55.4819ZM60.1077 157.292C60.3834 156.71 60.7867 156.26 61.3177 155.944C61.8487 155.617 62.4817 155.454 63.2169 155.454V156.97H62.788C62.0018 156.97 61.3585 157.174 60.8582 157.583C60.3579 157.981 60.1077 158.644 60.1077 159.574V164H58.714V155.591H60.1077V157.292ZM69.77 153.202V164H68.3763V153.202H69.77ZM81.1086 158.593C81.1086 159.686 80.8891 160.641 80.45 161.458C80.0109 162.264 79.3626 162.892 78.5049 163.341C77.6574 163.78 76.6363 164 75.4416 164H72.0108V153.202H75.4416C76.6363 153.202 77.6574 153.422 78.5049 153.861C79.3626 154.29 80.0109 154.912 80.45 155.729C80.8891 156.536 81.1086 157.491 81.1086 158.593ZM75.3344 162.744C76.7435 162.744 77.8207 162.382 78.5661 161.657C79.3115 160.932 79.6842 159.911 79.6842 158.593C79.6842 157.276 79.3115 156.255 78.5661 155.53C77.831 154.795 76.7537 154.427 75.3344 154.427H73.4046V162.744H75.3344Z" fill="white"/>
<path d="M53.9628 201.992L53.3247 200.18H49.6105L48.9723 201.992H47.4535L50.6316 193.109H52.3163L55.4944 201.992H53.9628ZM52.9162 198.993L51.474 194.87L50.0189 198.993H52.9162ZM56.8763 201.992V192.547H58.3313V201.992H56.8763ZM63.2027 196.07C62.22 196.07 61.4286 196.733 61.2755 197.844H65.1683C65.1428 196.759 64.2876 196.07 63.2027 196.07ZM66.4957 199.899C66.1 201.124 64.9896 202.107 63.2666 202.107C61.2499 202.107 59.7566 200.677 59.7566 198.469C59.7566 196.261 61.1861 194.844 63.2666 194.844C65.2704 194.844 66.6871 196.236 66.6871 198.303C66.6871 198.546 66.6744 198.776 66.6361 199.018H61.2627C61.3648 200.18 62.1944 200.882 63.2666 200.882C64.16 200.882 64.6578 200.448 64.9258 199.899H66.4957ZM71.7566 201.992L70.2378 199.605L68.8083 201.992H67.2894L69.5613 198.533L67.2894 194.959H68.9359L70.4547 197.346L71.8842 194.959H73.4031L71.1312 198.431L73.4031 201.992H71.7566ZM75.1392 203.855V202.502H82.2612V203.855H75.1392ZM86.1266 195.993C86.5733 195.406 87.4285 194.844 88.5772 194.844C90.4279 194.844 91.8829 196.274 91.8829 198.444C91.8829 200.613 90.4279 202.107 88.5772 202.107C87.4157 202.107 86.5861 201.52 86.1266 200.971V205.336H84.6716V194.959H86.1266V195.993ZM90.4024 198.444C90.4024 196.925 89.3558 196.108 88.2581 196.108C87.1732 196.108 86.1266 196.963 86.1266 198.469C86.1266 199.988 87.1732 200.843 88.2581 200.843C89.3558 200.843 90.4024 199.963 90.4024 198.444ZM94.7768 198.291V201.992H93.3218V194.959H94.7768V195.98C95.1853 195.278 95.8872 194.844 96.8828 194.844V196.351H96.5126C95.4405 196.351 94.7768 196.797 94.7768 198.291ZM97.3906 194.959H98.9478L100.939 200.69L102.93 194.959H104.474L101.794 201.992H100.058L97.3906 194.959ZM105.804 200.039V196.146H104.974V194.959H105.804V193.211H107.272V194.959H108.982V196.146H107.272V200.039C107.272 200.562 107.476 200.779 108.089 200.779H108.982V201.992H107.833C106.582 201.992 105.804 201.469 105.804 200.039Z" fill="white"/>
<rect opacity="0.1" x="494" y="315.63" width="464" height="43" rx="4.25447" transform="rotate(180 494 315.63)" fill="white"/>
<path d="M474.717 294.526C474.717 295.85 473.673 296.919 472.382 296.919C471.09 296.919 470.047 295.85 470.047 294.526C470.047 293.203 471.09 292.134 472.382 292.134C473.673 292.134 474.717 293.203 474.717 294.526Z" stroke="white" stroke-width="0.978528" stroke-linecap="round" stroke-linejoin="round"/>
<path d="M472.382 300.054C474.684 300.054 476.83 298.664 478.323 296.257C478.91 295.315 478.91 293.731 478.323 292.789C476.83 290.382 474.684 288.992 472.382 288.992C470.079 288.992 467.934 290.382 466.44 292.789C465.853 293.731 465.853 295.315 466.44 296.257C467.934 298.664 470.079 300.054 472.382 300.054Z" stroke="white" stroke-width="0.978528" stroke-linecap="round" stroke-linejoin="round"/>
<path d="M32.5118 255.65V260H31.1181V249.202H34.5489C35.7844 249.202 36.7084 249.493 37.3211 250.075C37.9337 250.647 38.2401 251.433 38.2401 252.434C38.2401 253.445 37.9235 254.236 37.2905 254.808C36.6574 255.369 35.7435 255.65 34.5489 255.65H32.5118ZM34.4264 254.486C35.2738 254.486 35.8814 254.308 36.249 253.95C36.6268 253.593 36.8157 253.087 36.8157 252.434C36.8157 251.76 36.6268 251.249 36.249 250.902C35.8814 250.545 35.2738 250.366 34.4264 250.366H32.5118V254.486H34.4264ZM43.3141 251.484C44.131 251.484 44.8202 251.688 45.3818 252.097C45.9536 252.505 46.3518 253.052 46.5764 253.736V251.591H47.9702V260H46.5764V257.856C46.3518 258.54 45.9536 259.086 45.3818 259.495C44.8202 259.903 44.131 260.107 43.3141 260.107C42.5687 260.107 41.905 259.934 41.323 259.586C40.741 259.239 40.2815 258.744 39.9446 258.101C39.6178 257.447 39.4545 256.682 39.4545 255.803C39.4545 254.925 39.6178 254.159 39.9446 253.506C40.2815 252.852 40.741 252.352 41.323 252.005C41.905 251.658 42.5687 251.484 43.3141 251.484ZM43.7123 252.725C42.8546 252.725 42.1654 253.001 41.6447 253.552C41.1341 254.093 40.8789 254.844 40.8789 255.803C40.8789 256.763 41.1341 257.519 41.6447 258.07C42.1654 258.611 42.8546 258.882 43.7123 258.882C44.2637 258.882 44.7538 258.754 45.1827 258.499C45.6217 258.244 45.9638 257.886 46.2089 257.427C46.4539 256.957 46.5764 256.416 46.5764 255.803C46.5764 255.191 46.4539 254.65 46.2089 254.18C45.9638 253.71 45.6217 253.353 45.1827 253.108C44.7538 252.852 44.2637 252.725 43.7123 252.725ZM52.8228 251.484C53.7724 251.484 54.5331 251.734 55.1049 252.235C55.6869 252.725 56.0391 253.389 56.1617 254.226H54.8292C54.7679 253.726 54.5586 253.317 54.2012 253.001C53.8541 252.674 53.3844 252.51 52.7921 252.51C52.2918 252.51 51.8987 252.633 51.6128 252.878C51.3371 253.113 51.1993 253.435 51.1993 253.843C51.1993 254.149 51.2912 254.399 51.475 254.593C51.669 254.777 51.9038 254.92 52.1795 255.022C52.4654 255.114 52.8534 255.216 53.3435 255.329C53.9664 255.472 54.4667 255.62 54.8445 255.773C55.2325 255.916 55.5592 256.151 55.8247 256.477C56.1004 256.804 56.2383 257.243 56.2383 257.794C56.2383 258.479 55.9779 259.035 55.4571 259.464C54.9466 259.893 54.2625 260.107 53.4048 260.107C52.4041 260.107 51.5873 259.867 50.9542 259.387C50.3211 258.907 49.9485 258.239 49.8361 257.381H51.1839C51.235 257.891 51.4545 258.305 51.8425 258.622C52.2408 258.938 52.7615 259.096 53.4048 259.096C53.8847 259.096 54.2574 258.974 54.5229 258.729C54.7985 258.484 54.9364 258.162 54.9364 257.764C54.9364 257.437 54.8394 257.177 54.6454 256.983C54.4514 256.789 54.2114 256.641 53.9255 256.539C53.6396 256.436 53.2465 256.329 52.7462 256.217C52.1233 256.074 51.623 255.931 51.2452 255.788C50.8776 255.645 50.5611 255.42 50.2956 255.114C50.0403 254.798 49.9127 254.374 49.9127 253.843C49.9127 253.138 50.1731 252.572 50.6938 252.143C51.2146 251.704 51.9242 251.484 52.8228 251.484ZM60.7351 251.484C61.6847 251.484 62.4454 251.734 63.0172 252.235C63.5992 252.725 63.9515 253.389 64.074 254.226H62.7415C62.6802 253.726 62.4709 253.317 62.1135 253.001C61.7664 252.674 61.2967 252.51 60.7045 252.51C60.2041 252.51 59.811 252.633 59.5251 252.878C59.2494 253.113 59.1116 253.435 59.1116 253.843C59.1116 254.149 59.2035 254.399 59.3873 254.593C59.5813 254.777 59.8161 254.92 60.0918 255.022C60.3777 255.114 60.7657 255.216 61.2558 255.329C61.8787 255.472 62.379 255.62 62.7568 255.773C63.1448 255.916 63.4716 256.151 63.737 256.477C64.0127 256.804 64.1506 257.243 64.1506 257.794C64.1506 258.479 63.8902 259.035 63.3695 259.464C62.8589 259.893 62.1748 260.107 61.3171 260.107C60.3164 260.107 59.4996 259.867 58.8665 259.387C58.2335 258.907 57.8608 258.239 57.7484 257.381H59.0963C59.1473 257.891 59.3668 258.305 59.7549 258.622C60.1531 258.938 60.6738 259.096 61.3171 259.096C61.797 259.096 62.1697 258.974 62.4352 258.729C62.7109 258.484 62.8487 258.162 62.8487 257.764C62.8487 257.437 62.7517 257.177 62.5577 256.983C62.3637 256.789 62.1237 256.641 61.8378 256.539C61.5519 256.436 61.1588 256.329 60.6585 256.217C60.0357 256.074 59.5353 255.931 59.1575 255.788C58.7899 255.645 58.4734 255.42 58.2079 255.114C57.9527 254.798 57.825 254.374 57.825 253.843C57.825 253.138 58.0854 252.572 58.6061 252.143C59.1269 251.704 59.8365 251.484 60.7351 251.484ZM77.5614 251.591L75.1414 260H73.6404L71.3277 253.154L68.9997 260H67.4834L65.0941 251.591H66.5031L68.2951 258.668L70.6232 251.591H72.0782L74.4216 258.652L76.2289 251.591H77.5614ZM82.6749 251.484C83.4816 251.484 84.2014 251.658 84.8345 252.005C85.4778 252.352 85.9781 252.852 86.3355 253.506C86.703 254.159 86.8868 254.925 86.8868 255.803C86.8868 256.682 86.703 257.447 86.3355 258.101C85.9781 258.744 85.4778 259.239 84.8345 259.586C84.2014 259.934 83.4816 260.107 82.6749 260.107C81.8683 260.107 81.1433 259.934 80.5 259.586C79.867 259.239 79.3666 258.744 78.999 258.101C78.6315 257.447 78.4477 256.682 78.4477 255.803C78.4477 254.925 78.6315 254.159 78.999 253.506C79.3666 252.852 79.867 252.352 80.5 252.005C81.1433 251.658 81.8683 251.484 82.6749 251.484ZM82.6749 252.71C82.1746 252.71 81.71 252.822 81.2811 253.046C80.8625 253.271 80.5204 253.618 80.255 254.088C79.9997 254.547 79.8721 255.119 79.8721 255.803C79.8721 256.477 79.9997 257.049 80.255 257.519C80.5204 257.978 80.8625 258.32 81.2811 258.545C81.71 258.77 82.1746 258.882 82.6749 258.882C83.1752 258.882 83.6347 258.77 84.0534 258.545C84.4822 258.32 84.8243 257.978 85.0795 257.519C85.345 257.049 85.4778 256.477 85.4778 255.803C85.4778 255.119 85.345 254.547 85.0795 254.088C84.8243 253.618 84.4822 253.271 84.0534 253.046C83.6347 252.822 83.1752 252.71 82.6749 252.71ZM90.0968 253.292C90.3724 252.71 90.7758 252.26 91.3067 251.944C91.8377 251.617 92.4707 251.454 93.2059 251.454V252.97H92.7771C91.9908 252.97 91.3476 253.174 90.8472 253.583C90.3469 253.981 90.0968 254.644 90.0968 255.574V260H88.703V251.591H90.0968V253.292ZM98.0273 251.484C98.8441 251.484 99.5333 251.688 100.095 252.097C100.667 252.505 101.065 253.052 101.29 253.736V248.666H102.683V260H101.29V257.856C101.065 258.54 100.667 259.086 100.095 259.495C99.5333 259.903 98.8441 260.107 98.0273 260.107C97.2819 260.107 96.6182 259.934 96.0362 259.586C95.4542 259.239 94.9947 258.744 94.6577 258.101C94.331 257.447 94.1676 256.682 94.1676 255.803C94.1676 254.925 94.331 254.159 94.6577 253.506C94.9947 252.852 95.4542 252.352 96.0362 252.005C96.6182 251.658 97.2819 251.484 98.0273 251.484ZM98.4255 252.725C97.5678 252.725 96.8785 253.001 96.3578 253.552C95.8473 254.093 95.592 254.844 95.592 255.803C95.592 256.763 95.8473 257.519 96.3578 258.07C96.8785 258.611 97.5678 258.882 98.4255 258.882C98.9769 258.882 99.467 258.754 99.8958 258.499C100.335 258.244 100.677 257.886 100.922 257.427C101.167 256.957 101.29 256.416 101.29 255.803C101.29 255.191 101.167 254.65 100.922 254.18C100.677 253.71 100.335 253.353 99.8958 253.108C99.467 252.852 98.9769 252.725 98.4255 252.725Z" fill="white"/>
<path d="M53.7428 291.855L54.6624 293.484L51.8627 294.523L54.6624 295.541L53.7223 297.232L51.3927 295.378L51.8423 298.352H49.9418L50.3505 295.378L48.0004 297.272L47.0195 295.541L49.7987 294.503L47.04 293.484L47.9596 291.834L50.3505 293.667L49.9214 290.694H51.8423L51.3927 293.667L53.7428 291.855Z" fill="white"/>
<path d="M69.9114 291.855L70.831 293.484L68.0314 294.523L70.831 295.541L69.891 297.232L67.5614 295.378L68.011 298.352H66.1105L66.5192 295.378L64.1691 297.272L63.1882 295.541L65.9674 294.503L63.2086 293.484L64.1282 291.834L66.5192 293.667L66.09 290.694H68.011L67.5614 293.667L69.9114 291.855Z" fill="white"/>
<path d="M86.0801 291.855L86.9997 293.484L84.2001 294.523L86.9997 295.541L86.0597 297.232L83.7301 295.378L84.1796 298.352H82.2791L82.6878 295.378L80.3378 297.272L79.3569 295.541L82.1361 294.503L79.3773 293.484L80.2969 291.834L82.6878 293.667L82.2587 290.694H84.1796L83.7301 293.667L86.0801 291.855Z" fill="white"/>
<path d="M102.249 291.855L103.168 293.484L100.369 294.523L103.168 295.541L102.228 297.232L99.8987 295.378L100.348 298.352H98.4478L98.8565 295.378L96.5065 297.272L95.5256 295.541L98.3048 294.503L95.546 293.484L96.4656 291.834L98.8565 293.667L98.4274 290.694H100.348L99.8987 293.667L102.249 291.855Z" fill="white"/>
<path d="M118.417 291.855L119.337 293.484L116.537 294.523L119.337 295.541L118.397 297.232L116.067 295.378L116.517 298.352H114.617L115.025 295.378L112.675 297.272L111.694 295.541L114.473 294.503L111.715 293.484L112.634 291.834L115.025 293.667L114.596 290.694H116.517L116.067 293.667L118.417 291.855Z" fill="white"/>
<path d="M134.586 291.855L135.506 293.484L132.706 294.523L135.506 295.541L134.566 297.232L132.236 295.378L132.686 298.352H130.785L131.194 295.378L128.844 297.272L127.863 295.541L130.642 294.503L127.883 293.484L128.803 291.834L131.194 293.667L130.765 290.694H132.686L132.236 293.667L134.586 291.855Z" fill="white"/>
<path d="M150.755 291.855L151.674 293.484L148.875 294.523L151.674 295.541L150.734 297.232L148.405 295.378L148.854 298.352H146.954L147.363 295.378L145.012 297.272L144.032 295.541L146.811 294.503L144.052 293.484L144.972 291.834L147.363 293.667L146.933 290.694H148.854L148.405 293.667L150.755 291.855Z" fill="white"/>
<path d="M166.924 291.855L167.843 293.484L165.043 294.523L167.843 295.541L166.903 297.232L164.573 295.378L165.023 298.352H163.123L163.531 295.378L161.181 297.272L160.2 295.541L162.979 294.503L160.221 293.484L161.14 291.834L163.531 293.667L163.102 290.694H165.023L164.573 293.667L166.924 291.855Z" fill="white"/>
<path d="M183.092 291.855L184.012 293.484L181.212 294.523L184.012 295.541L183.072 297.232L180.742 295.378L181.192 298.352H179.291L179.7 295.378L177.35 297.272L176.369 295.541L179.148 294.503L176.389 293.484L177.309 291.834L179.7 293.667L179.271 290.694H181.192L180.742 293.667L183.092 291.855Z" fill="white"/>
<path d="M199.261 291.855L200.18 293.484L197.381 294.523L200.18 295.541L199.24 297.232L196.911 295.378L197.36 298.352H195.46L195.869 295.378L193.519 297.272L192.538 295.541L195.317 294.503L192.558 293.484L193.478 291.834L195.869 293.667L195.439 290.694H197.36L196.911 293.667L199.261 291.855Z" fill="white"/>
</svg>
